<svg xmlns="http://www.w3.org/2000/svg" xmlns:xlink="http://www.w3.org/1999/xlink" width="94.596" height="94.595" viewBox="0 0 94.596 94.595">
  <defs>
    <filter id="Trazado_642489" x="0" y="0" width="94.596" height="94.595" filterUnits="userSpaceOnUse">
      <feOffset dy="3" input="SourceAlpha"/>
      <feGaussianBlur stdDeviation="3" result="blur"/>
      <feFlood flood-opacity="0.161"/>
      <feComposite operator="in" in2="blur"/>
      <feComposite in="SourceGraphic"/>
    </filter>
  </defs>
  <g id="spellbook" transform="translate(9 6)">
    <path id="Trazado_642484" data-name="Trazado 642484" d="M10,66v56.848a8.378,8.378,0,0,0,8.378,8.378H72.234V74.378Zm0,0" transform="translate(-8.504 -56.126)" fill="#6c7a88"/>
    <path id="Trazado_642485" data-name="Trazado 642485" d="M437.37,10V66.848L426,83.6V26.755Zm0,0" transform="translate(-362.27 -8.504)" fill="#fff"/>
    <path id="Trazado_642486" data-name="Trazado 642486" d="M72.234,26.755H18.378a8.378,8.378,0,1,1,0-16.755H83.6Zm0,0" transform="translate(-8.504 -8.504)" fill="#edf2fa"/>
    <path id="Trazado_642487" data-name="Trazado 642487" d="M217.713,217.18a36.549,36.549,0,0,1-6.684-12.7l-1.516-5.14L208,204.48a36.559,36.559,0,0,1-6.684,12.7Zm0,0" transform="translate(-171.196 -169.519)" fill="#f9a21b"/>
    <path id="Trazado_642488" data-name="Trazado 642488" d="M197.581,316.226c0-2.334-5.6-4.226-12.5-4.226s-12.5,1.892-12.5,4.226,5.6,4.226,12.5,4.226S197.581,318.56,197.581,316.226Zm0,0" transform="translate(-146.767 -265.325)" fill="#f9a21b"/>
    <g transform="matrix(1, 0, 0, 1, -9, -6)" filter="url(#Trazado_642489)">
      <path id="Trazado_642489-2" data-name="Trazado 642489" d="M76.592,1.46A1.488,1.488,0,0,0,75.1,0H9.874A9.885,9.885,0,0,0,0,9.874V66.722A9.885,9.885,0,0,0,9.874,76.6H63.73a1.5,1.5,0,0,0,1.238-.656l11.37-16.755a1.5,1.5,0,0,0,.258-.84V1.5a.307.307,0,0,0,0-.036ZM9.874,2.992h62.4L70.653,5.386H36a1.5,1.5,0,1,0,0,2.992H68.622l-2.041,3.008a1.426,1.426,0,0,0-.207-.016H9.874a1.5,1.5,0,1,0,0,2.992H64.562l-1.625,2.394H9.874a6.882,6.882,0,0,1,0-13.763Zm52.36,16.755V67.619H46.517a1.5,1.5,0,1,0,0,2.992H62.234V73.6H14.96V19.747ZM2.992,66.722v-5.81a9.841,9.841,0,0,0,6.882,2.8,1.5,1.5,0,0,0,0-2.992A6.89,6.89,0,0,1,2.992,53.84V45.369a9.841,9.841,0,0,0,6.882,2.8,1.5,1.5,0,0,0,0-2.992A6.89,6.89,0,0,1,2.992,38.3V29.826a9.839,9.839,0,0,0,6.882,2.8,1.5,1.5,0,0,0,0-2.992,6.89,6.89,0,0,1-6.882-6.882v-5.81a9.839,9.839,0,0,0,6.882,2.8h2.094V73.6H9.874a6.89,6.89,0,0,1-6.882-6.882Zm67.919-4.869V31.739a1.5,1.5,0,0,0-2.992,0V65.9a1.5,1.5,0,0,0,.033.314L65.226,70.23V18.711L73.6,6.365V57.884Zm0,0" transform="translate(9 6)"/>
    </g>
    <path id="Trazado_642490" data-name="Trazado 642490" d="M455.5,155.828a1.5,1.5,0,1,0,1.058.438A1.507,1.507,0,0,0,455.5,155.828Zm0,0" transform="translate(-386.081 -132.516)"/>
    <path id="Trazado_642491" data-name="Trazado 642491" d="M155.164,387.271a1.5,1.5,0,0,0,1.5-1.5v-1.893a1.5,1.5,0,1,0-2.992,0v1.893A1.5,1.5,0,0,0,155.164,387.271Zm0,0" transform="translate(-130.679 -325.181)"/>
    <path id="Trazado_642492" data-name="Trazado 642492" d="M155.164,447.9a1.5,1.5,0,0,0,1.5-1.5v-1.892a1.5,1.5,0,1,0-2.992,0V446.4A1.5,1.5,0,0,0,155.164,447.9Zm0,0" transform="translate(-130.679 -376.737)"/>
    <path id="Trazado_642493" data-name="Trazado 642493" d="M181.041,419.023h-1.893a1.5,1.5,0,0,0,0,2.992h1.893a1.5,1.5,0,1,0,0-2.992Zm0,0" transform="translate(-151.076 -356.337)"/>
    <path id="Trazado_642494" data-name="Trazado 642494" d="M118.527,422.015h1.892a1.5,1.5,0,1,0,0-2.992h-1.892a1.5,1.5,0,1,0,0,2.992Zm0,0" transform="translate(-99.523 -356.337)"/>
    <path id="Trazado_642495" data-name="Trazado 642495" d="M347.859,166.353a1.5,1.5,0,0,0,1.5-1.5v-1.892a1.5,1.5,0,0,0-2.992,0v1.892A1.5,1.5,0,0,0,347.859,166.353Zm0,0" transform="translate(-294.547 -137.313)"/>
    <path id="Trazado_642496" data-name="Trazado 642496" d="M347.859,226.975a1.5,1.5,0,0,0,1.5-1.5v-1.893a1.5,1.5,0,1,0-2.992,0v1.893A1.5,1.5,0,0,0,347.859,226.975Zm0,0" transform="translate(-294.547 -188.865)"/>
    <path id="Trazado_642497" data-name="Trazado 642497" d="M371.845,201.1h1.892a1.5,1.5,0,0,0,0-2.992h-1.893a1.5,1.5,0,1,0,0,2.992Zm0,0" transform="translate(-314.944 -168.468)"/>
    <path id="Trazado_642498" data-name="Trazado 642498" d="M311.223,201.1h1.892a1.5,1.5,0,0,0,0-2.992h-1.892a1.5,1.5,0,0,0,0,2.992Zm0,0" transform="translate(-263.392 -168.468)"/>
    <path id="Trazado_642499" data-name="Trazado 642499" d="M176.583,217.638c6.74,0,13.994-1.791,13.994-5.722,0-2.06-1.992-3.531-4.856-4.466a34.872,34.872,0,0,1-6.187-11.9l-1.516-5.14a1.5,1.5,0,0,0-2.87,0l-1.516,5.14a34.872,34.872,0,0,1-6.187,11.9c-2.865.935-4.856,2.406-4.856,4.466,0,3.931,7.253,5.722,13.993,5.722ZM176.5,196.4l.081-.276.082.276a37.831,37.831,0,0,0,4.674,10.1,37.369,37.369,0,0,0-9.512,0,37.849,37.849,0,0,0,4.674-10.1Zm-8.064,13.875a31.015,31.015,0,0,1,16.291,0c2.224.714,2.82,1.479,2.855,1.642-.035.162-.632.927-2.855,1.641a31,31,0,0,1-16.291,0c-2.245-.72-2.831-1.493-2.856-1.636.025-.153.612-.926,2.856-1.646Zm0,0" transform="translate(-138.266 -161.015)"/>
    <path id="Trazado_642500" data-name="Trazado 642500" d="M186.828,38.992a1.5,1.5,0,1,0-1.058-.438A1.507,1.507,0,0,0,186.828,38.992Zm0,0" transform="translate(-157.606 -30.614)"/>
  </g>
</svg>
