<svg xmlns="http://www.w3.org/2000/svg" width="85" height="70" viewBox="0 0 85 70">
  <g id="_4" data-name="4" transform="translate(-180 -2792)">
    <rect id="Rectángulo_334759" data-name="Rectángulo 334759" width="85" height="70" rx="11" transform="translate(180 2792)" fill="#ffe6a1"/>
    <g id="copyright" transform="translate(194.99 2799.459)">
      <path id="Trazado_653880" data-name="Trazado 653880" d="M50.529,20.2V29H26.764L15.322,17.562H3V8.76A1.766,1.766,0,0,1,4.76,7H15.322L26.764,18.442h22A1.76,1.76,0,0,1,50.5,19.921a1.456,1.456,0,0,1,.026.282Z" transform="translate(-0.12 -0.599)" fill="#f2bd36"/>
      <path id="Trazado_653881" data-name="Trazado 653881" d="M44.206,3H10.76A1.766,1.766,0,0,0,9,4.76V17.083h7.041L27.483,28.525H45.967V4.76A1.766,1.766,0,0,0,44.206,3Z" transform="translate(-0.839 -0.12)" fill="#e6e7e8"/>
      <path id="Trazado_653882" data-name="Trazado 653882" d="M51,20h1.76V30.562H51Z" transform="translate(-5.872 -2.157)" fill="#cc7400"/>
      <path id="Trazado_653883" data-name="Trazado 653883" d="M50.529,30.442V54.206a1.766,1.766,0,0,1-1.76,1.76H4.76A1.766,1.766,0,0,1,3,54.206V19H15.322L26.764,30.442Z" transform="translate(-0.12 -2.037)" fill="#fcc843"/>
      <path id="Trazado_653884" data-name="Trazado 653884" d="M48.1,32l-8.89,12.683-.5.722-1.54,1.144L36,50.483l4.471-3.318.5-.722L51.092,32Z" transform="translate(-4.075 -3.595)" fill="#ee8700"/>
      <path id="Trazado_653885" data-name="Trazado 653885" d="M56.131,25.922V21.962a1.456,1.456,0,0,0-.026-.282l-.6.863L50.85,29.188l-1.1,1.575h2.993Z" transform="translate(-5.722 -2.358)" fill="#cc7400"/>
      <circle id="Elipse_7597" data-name="Elipse 7597" cx="7.041" cy="7.041" r="7.041" transform="translate(9.921 32.806)" fill="#ffd422"/>
      <path id="Trazado_653886" data-name="Trazado 653886" d="M44.281,3v8.8L41.64,8.281,39,11.8V3Z" transform="translate(-4.434 -0.12)" fill="#e2fc85"/>
      <path id="Trazado_653887" data-name="Trazado 653887" d="M7,7H8.76V17.562H7Z" transform="translate(-0.599 -0.599)" fill="#cc7400"/>
      <path id="Trazado_653888" data-name="Trazado 653888" d="M55.026,17.09l-1.787,2.561-.229.317L55.9,21.992l.6-.863,1.417-2.024Z" transform="translate(-6.113 -1.808)" fill="#e6e7e8"/>
      <path id="Trazado_653889" data-name="Trazado 653889" d="M60.528,14.72a1.76,1.76,0,0,1-.317,1L58.187,18.61,55.3,16.594l2.024-2.887a1.76,1.76,0,0,1,3.2,1.012Z" transform="translate(-6.387 -1.313)" fill="#6ad34d"/>
      <path id="Trazado_653890" data-name="Trazado 653890" d="M51.017,20.36l-1.769,2.526-5.4,7.719L36.38,41.273l2.878,2.016,8.89-12.683,1.1-1.575L53.9,22.384Z" transform="translate(-4.12 -2.2)" fill="#ffd422"/>
      <path id="Trazado_653891" data-name="Trazado 653891" d="M38.973,46.136l-.5.722L34,50.175l1.584-5.334.51-.722Z" transform="translate(-3.835 -5.048)" fill="#424d53"/>
      <path id="Trazado_653892" data-name="Trazado 653892" d="M14,8h5.281V9.76H14Z" transform="translate(-1.438 -0.719)"/>
      <path id="Trazado_653893" data-name="Trazado 653893" d="M22,8h7.041V9.76H22Z" transform="translate(-2.397 -0.719)"/>
      <path id="Trazado_653894" data-name="Trazado 653894" d="M14,12H28.083v1.76H14Z" transform="translate(-1.438 -1.198)"/>
      <path id="Trazado_653895" data-name="Trazado 653895" d="M22,18H37.843v1.76H22Z" transform="translate(-2.397 -1.917)"/>
      <path id="Trazado_653896" data-name="Trazado 653896" d="M26,22H43.6v1.76H26Z" transform="translate(-2.876 -2.397)"/>
      <path id="Trazado_653897" data-name="Trazado 653897" d="M42,18h3.521v1.76H42Z" transform="translate(-4.794 -1.917)"/>
      <path id="Trazado_653898" data-name="Trazado 653898" d="M30,26H42.322v1.76H30Z" transform="translate(-3.356 -2.876)"/>
      <path id="Trazado_653899" data-name="Trazado 653899" d="M54.979,12.947a2.64,2.64,0,0,0-4.763-1.056l-3.552,5.072h-.655V4.64A2.64,2.64,0,0,0,43.368,2H9.921a2.64,2.64,0,0,0-2.64,2.64v.88H4.64A2.64,2.64,0,0,0,2,8.161V52.169a2.64,2.64,0,0,0,2.64,2.64H48.648a2.64,2.64,0,0,0,2.64-2.64v-32.6l3.257-4.649a2.621,2.621,0,0,0,.433-1.972ZM34.925,39.864l-1.442-1.01,13.63-19.466L48.555,20.4Zm-2.413.46,1.363.955-2.112,1.568ZM48.12,17.947l1.012-1.442,1.442,1.009-1.01,1.443ZM35.446,3.76h3.521V9.041L37.911,7.633a.912.912,0,0,0-1.408,0L35.446,9.041Zm-25.525,0H33.686v7.921a.88.88,0,0,0,1.584.528l1.936-2.582,1.936,2.582a.88.88,0,0,0,.7.352.9.9,0,0,0,.278-.045.88.88,0,0,0,.6-.835V3.76h2.64a.88.88,0,0,1,.88.88V20.412l-4.98,7.113H27.009L15.825,16.34a.88.88,0,0,0-.622-.258H9.041V4.64a.88.88,0,0,1,.88-.88ZM4.64,7.281h2.64v8.8H3.76V8.161A.88.88,0,0,1,4.64,7.281ZM49.529,52.169a.88.88,0,0,1-.88.88H4.64a.88.88,0,0,1-.88-.88V17.843H14.838L26.022,29.027a.88.88,0,0,0,.622.258h11.39l-7,10a.871.871,0,0,0-.122.254l-1.584,5.336a.88.88,0,0,0,1.369.955l4.47-3.316a.88.88,0,0,0,.2-.2l9.121-13.029h5.047Zm0-24.644H46.008v-.419l3.521-5.028ZM53.1,13.909l-1.514,2.163-1.44-1.01L51.659,12.9a.88.88,0,0,1,1.44,1.01Z"/>
      <path id="Trazado_653900" data-name="Trazado 653900" d="M18.4,41.76a2.645,2.645,0,0,1,1.98.894L21.7,41.49a4.4,4.4,0,1,0,0,5.821l-1.32-1.164A2.64,2.64,0,1,1,18.4,41.76Z" transform="translate(-1.438 -4.554)"/>
      <path id="Trazado_653901" data-name="Trazado 653901" d="M17.921,36a7.921,7.921,0,1,0,7.921,7.921A7.921,7.921,0,0,0,17.921,36Zm0,14.083a6.161,6.161,0,1,1,6.161-6.161A6.161,6.161,0,0,1,17.921,50.083Z" transform="translate(-0.959 -4.075)"/>
    </g>
  </g>
</svg>
