<svg xmlns="http://www.w3.org/2000/svg" width="101" height="101" viewBox="0 0 101 101">
  <g id="_12" data-name="12" transform="translate(-3621 9231.189)">
    <circle id="Elipse_7557" data-name="Elipse 7557" cx="50.5" cy="50.5" r="50.5" transform="translate(3621 -9231.189)" fill="#fcd03e"/>
    <g id="leer_3_" data-name="leer (3)" transform="translate(3631.997 -9225.715)">
      <path id="Trazado_650652" data-name="Trazado 650652" d="M41.809,32l15.82,2.966a4.968,4.968,0,0,1,4.053,4.884V51.872H12V39.85a4.968,4.968,0,0,1,4.053-4.884L31.872,32Z" transform="translate(2.662 7.497)" fill="#5e84c2"/>
      <path id="Trazado_650653" data-name="Trazado 650653" d="M36.325,35.833c0-1.29-.062-2.566-.154-3.833h-4.3l-15.82,2.966A4.968,4.968,0,0,0,12,39.85V51.872H33.822a52.5,52.5,0,0,0,2.5-16.04Z" transform="translate(2.662 7.497)" fill="#88a8d8"/>
      <path id="Trazado_650654" data-name="Trazado 650654" d="M20,60.6V37l14.9,3.726V60.6Z" transform="translate(4.599 8.707)" fill="#e49542"/>
      <path id="Trazado_650655" data-name="Trazado 650655" d="M20,37V60.6h7.512a52.174,52.174,0,0,0,6.541-20.086Z" transform="translate(4.599 8.707)" fill="#dcad58"/>
      <path id="Trazado_650656" data-name="Trazado 650656" d="M12,48h9.936v9.936H12Z" transform="translate(2.662 11.369)" fill="#f5cf88"/>
      <path id="Trazado_650657" data-name="Trazado 650657" d="M44,48h9.936v9.936H44Z" transform="translate(10.407 11.369)" fill="#f5cf88"/>
      <path id="Trazado_650658" data-name="Trazado 650658" d="M32,60.6V40.726L46.9,37V60.6Z" transform="translate(7.503 8.707)" fill="#dcad58"/>
      <path id="Trazado_650659" data-name="Trazado 650659" d="M28,27v6.21l4.968,4.968,4.968-4.968V27Z" transform="translate(6.535 6.287)" fill="#f5cf88"/>
      <path id="Trazado_650660" data-name="Trazado 650660" d="M45.9,19.388l1.43-3.312A8.791,8.791,0,0,0,42.9,4.593L39.432,3.015A11.285,11.285,0,0,0,27.986,4.256l-2.1,1.608a6.495,6.495,0,0,0-4.476,9.261l2.131,4.264h.009l2.484-4.968,1.987,1.49a11.178,11.178,0,0,0,13.414,0l1.987-1.49,2.484,4.968Z" transform="translate(4.774 0.236)" fill="#c18e59"/>
      <path id="Trazado_650661" data-name="Trazado 650661" d="M23,16.968v4.968a11.178,11.178,0,1,0,22.356,0V16.968L42.872,12l-1.987,1.49a11.178,11.178,0,0,1-13.414,0L25.484,12Z" transform="translate(5.325 2.656)" fill="#fadfb2"/>
      <path id="Trazado_650662" data-name="Trazado 650662" d="M23.968,17H21.484a2.484,2.484,0,0,0,0,4.968h2.484" transform="translate(4.356 3.866)" fill="#f5cf88"/>
      <path id="Trazado_650663" data-name="Trazado 650663" d="M41,17h2.484a2.484,2.484,0,1,1,0,4.968H41" transform="translate(9.681 3.866)" fill="#f5cf88"/>
      <path id="Trazado_650664" data-name="Trazado 650664" d="M2,56H76.522v7.452H2Z" transform="translate(0.242 13.305)" fill="#976947"/>
      <path id="Trazado_650665" data-name="Trazado 650665" d="M20,50h4.968a2.484,2.484,0,0,1,2.484,2.484v2.484a2.484,2.484,0,0,1-2.484,2.484H20" transform="translate(4.599 11.853)" fill="#fadfb2"/>
      <path id="Trazado_650666" data-name="Trazado 650666" d="M45.452,50H40.484A2.484,2.484,0,0,0,38,52.484v2.484a2.484,2.484,0,0,0,2.484,2.484h4.968" transform="translate(8.955 11.853)" fill="#fadfb2"/>
      <path id="Trazado_650670" data-name="Trazado 650670" d="M31.868,56H2v7.452H26.74A52.747,52.747,0,0,0,31.868,56Z" transform="translate(0.242 13.305)" fill="#c18e59"/>
      <path id="Trazado_650671" data-name="Trazado 650671" d="M76.764,68.063H65.585V47.346a6.21,6.21,0,0,0-5.065-6.1L45.713,38.466V35.332a12.453,12.453,0,0,0,5.962-8.256h1.49a3.726,3.726,0,1,0,0-7.452H52.024L53.242,16.8A10.037,10.037,0,0,0,48.186,3.7L44.719,2.12A12.733,12.733,0,0,0,32.011,3.5L30.053,4.968A7.729,7.729,0,0,0,25.07,15.913l1.857,3.711H25.841a3.726,3.726,0,0,0,0,7.452h1.49a12.448,12.448,0,0,0,5.962,8.255v3.135L18.485,41.242a6.21,6.21,0,0,0-5.065,6.1V68.063H2.242A1.242,1.242,0,0,0,1,69.305v7.452A1.242,1.242,0,0,0,2.242,78H76.764a1.242,1.242,0,0,0,1.242-1.242V69.305A1.242,1.242,0,0,0,76.764,68.063ZM25.841,63.1h3.726a1.242,1.242,0,0,1,1.242,1.242v2.484a1.242,1.242,0,0,1-1.242,1.242H25.841Zm3.726-2.484H25.841V47.3L38.261,50.4V68.063h-5.2a3.684,3.684,0,0,0,.231-1.242V64.337A3.726,3.726,0,0,0,29.567,60.611ZM40.745,50.4,53.165,47.3V60.611H49.439a3.726,3.726,0,0,0-3.726,3.726v2.484a3.677,3.677,0,0,0,.229,1.242h-5.2ZM48.2,66.821V64.337A1.242,1.242,0,0,1,49.439,63.1h3.726v4.968H49.433A1.242,1.242,0,0,1,48.2,66.821Zm7.452-6.21H63.1v7.452H55.649ZM54.407,23.35a1.242,1.242,0,0,1-1.242,1.242H51.923V22.108h1.242A1.242,1.242,0,0,1,54.407,23.35ZM27.489,9.754a5.275,5.275,0,0,1,4.5-2.55,5.8,5.8,0,0,1,4.836,2.587l.389.585L39.284,9l-.39-.585a8.266,8.266,0,0,0-4.685-3.383,10.214,10.214,0,0,1,9.482-.65l3.465,1.581a7.55,7.55,0,0,1,3.8,9.86l-.373.853L49.3,14.1a1.242,1.242,0,0,0-.825-.655,1.258,1.258,0,0,0-1.032.216l-1.987,1.49a9.936,9.936,0,0,1-11.923,0l-1.987-1.49a1.242,1.242,0,0,0-1.863.438l-1.36,2.751L27.3,14.8a5.217,5.217,0,0,1,.189-5.05ZM24.6,23.35a1.242,1.242,0,0,1,1.242-1.242h1.242v2.484H25.841A1.242,1.242,0,0,1,24.6,23.35Zm4.968,1.242V19.917l1.687-3.375.8.6a12.42,12.42,0,0,0,14.9,0l.8-.6,1.688,3.375v4.675a9.936,9.936,0,1,1-19.872,0ZM39.5,37.013a12.387,12.387,0,0,0,3.726-.573v2.541L39.5,42.707l-3.726-3.726V36.439A12.372,12.372,0,0,0,39.5,37.013ZM18.942,43.684l15.176-2.845,4.506,4.5a1.242,1.242,0,0,0,1.756,0l4.5-4.5,15.176,2.845a3.726,3.726,0,0,1,3.04,3.661V58.127H55.649V45.707A1.242,1.242,0,0,0,54.105,44.5L39.5,48.152,24.9,44.5a1.242,1.242,0,0,0-1.544,1.206v12.42H15.9V47.345a3.726,3.726,0,0,1,3.038-3.661ZM15.9,60.611h7.452v7.452H15.9Zm59.617,14.9H3.484V70.547H75.522Z" transform="translate(0 0)"/>
      <path id="Trazado_650672" data-name="Trazado 650672" d="M61,28H60V27a1,1,0,0,0-2,0v1H57a1,1,0,0,0,0,2h1v1a1,1,0,0,0,2,0V30h1a1,1,0,0,0,0-2Z" transform="translate(10.003 10.715)"/>
      <path id="Trazado_650673" data-name="Trazado 650673" d="M49,18h1v1a1,1,0,0,0,2,0V18h1a1,1,0,0,0,0-2H52V15a1,1,0,0,0-2,0v1H49a1,1,0,0,0,0,2Z" transform="translate(11.003 4.715)"/>
      <path id="Trazado_650674" data-name="Trazado 650674" d="M55,8h1V9a1,1,0,0,0,2,0V8h1a1,1,0,0,0,0-2H58V5a1,1,0,0,0-2,0V6H55a1,1,0,0,0,0,2Z" transform="translate(7.003 3.715)"/>
      <path id="Trazado_650675" data-name="Trazado 650675" d="M7,8H8V9a1,1,0,0,0,2,0V8h1a1,1,0,0,0,0-2H10V5A1,1,0,0,0,8,5V6H7A1,1,0,0,0,7,8Z" transform="translate(7.003 3.715)"/>
      <path id="Trazado_650676" data-name="Trazado 650676" d="M12,18a1,1,0,0,0,0,2h1v1a1,1,0,0,0,2,0V20h1a1,1,0,0,0,0-2H15V17a1,1,0,0,0-2,0v1Z" transform="translate(0.003 5.715)"/>
      <path id="Trazado_650677" data-name="Trazado 650677" d="M6,34H7a1,1,0,0,0,0-2H6V31a1,1,0,0,0-2,0v1H3a1,1,0,0,0,0,2H4v1a1,1,0,0,0,2,0Z" transform="translate(2.003 3.715)"/>
    </g>
  </g>
</svg>
