<svg xmlns="http://www.w3.org/2000/svg" xmlns:xlink="http://www.w3.org/1999/xlink" width="142.427" height="136.088" viewBox="0 0 142.427 136.088">
  <defs>
    <filter id="Trazado_634157" x="5.486" y="108.854" width="136.941" height="27.234" filterUnits="userSpaceOnUse">
      <feOffset dy="3" input="SourceAlpha"/>
      <feGaussianBlur stdDeviation="3" result="blur"/>
      <feFlood flood-opacity="0.161"/>
      <feComposite operator="in" in2="blur"/>
      <feComposite in="SourceGraphic"/>
    </filter>
    <filter id="Trazado_634156" x="9.294" y="0" width="129.325" height="129.325" filterUnits="userSpaceOnUse">
      <feOffset dy="3" input="SourceAlpha"/>
      <feGaussianBlur stdDeviation="3" result="blur-2"/>
      <feFlood flood-opacity="0.161"/>
      <feComposite operator="in" in2="blur-2"/>
      <feComposite in="SourceGraphic"/>
    </filter>
    <filter id="Elipse_5225" x="104.237" y="14.411" width="30.589" height="30.589" filterUnits="userSpaceOnUse">
      <feOffset dy="3" input="SourceAlpha"/>
      <feGaussianBlur stdDeviation="3" result="blur-3"/>
      <feFlood flood-opacity="0.161"/>
      <feComposite operator="in" in2="blur-3"/>
      <feComposite in="SourceGraphic"/>
    </filter>
    <filter id="Elipse_7578" x="0" y="41.666" width="27.448" height="27.448" filterUnits="userSpaceOnUse">
      <feOffset dy="3" input="SourceAlpha"/>
      <feGaussianBlur stdDeviation="3" result="blur-4"/>
      <feFlood flood-opacity="0.161"/>
      <feComposite operator="in" in2="blur-4"/>
      <feComposite in="SourceGraphic"/>
    </filter>
    <filter id="Elipse_7579" x="18.17" y="3.792" width="24.306" height="24.306" filterUnits="userSpaceOnUse">
      <feOffset dy="3" input="SourceAlpha"/>
      <feGaussianBlur stdDeviation="3" result="blur-5"/>
      <feFlood flood-opacity="0.161"/>
      <feComposite operator="in" in2="blur-5"/>
      <feComposite in="SourceGraphic"/>
    </filter>
  </defs>
  <g id="_15" data-name="15" transform="translate(-1180.257 -2523.529)">
    <g id="Grupo_946757" data-name="Grupo 946757" transform="translate(1189.257 2529.529)">
      <g id="Grupo_946416" data-name="Grupo 946416" transform="translate(0)">
        <g transform="matrix(1, 0, 0, 1, -9, -6)" filter="url(#Trazado_634157)">
          <path id="Trazado_634157-2" data-name="Trazado 634157" d="M59.471,0c32.845,0,59.471,2.067,59.471,4.617S92.315,9.234,59.471,9.234,0,7.167,0,4.617,26.626,0,59.471,0Z" transform="translate(14.49 114.85)" fill="#d4dde7"/>
        </g>
        <g transform="matrix(1, 0, 0, 1, -9, -6)" filter="url(#Trazado_634156)">
          <path id="Trazado_634156-2" data-name="Trazado 634156" d="M55.663,0A55.663,55.663,0,1,1,0,55.663,55.663,55.663,0,0,1,55.663,0Z" transform="translate(18.29 6)" fill="#f3f9ff"/>
        </g>
        <g transform="matrix(1, 0, 0, 1, -9, -6)" filter="url(#Elipse_5225)">
          <circle id="Elipse_5225-2" data-name="Elipse 5225" cx="4.451" cy="4.451" r="4.451" transform="translate(113.24 26.71) rotate(-45)" fill="#84a575"/>
        </g>
        <g transform="matrix(1, 0, 0, 1, -9, -6)" filter="url(#Elipse_7578)">
          <circle id="Elipse_7578-2" data-name="Elipse 7578" cx="3.34" cy="3.34" r="3.34" transform="translate(9 52.39) rotate(-45)" fill="#84a575"/>
        </g>
        <g transform="matrix(1, 0, 0, 1, -9, -6)" filter="url(#Elipse_7579)">
          <circle id="Elipse_7579-2" data-name="Elipse 7579" cx="2.23" cy="2.23" r="2.23" transform="translate(27.17 12.95) rotate(-45)" fill="#84a575"/>
        </g>
      </g>
    </g>
    <g id="estudiar" transform="translate(1204.226 2540.753)">
      <g id="Grupo_945715" data-name="Grupo 945715" transform="translate(4.053 1.422)">
        <g id="Grupo_945697" data-name="Grupo 945697" transform="translate(19.902 65.393)">
          <path id="Trazado_650678" data-name="Trazado 650678" d="M49.275,59.373H43.588V67.9H27.468a9.468,9.468,0,0,1-2.061-18.708L30.794,48,45.01,50.843,59.226,48l5.388,1.194A9.467,9.467,0,0,1,62.552,67.9H50.7a4.265,4.265,0,0,0,0-8.529Z" transform="translate(-18 -48)" fill="#d3a06c"/>
        </g>
        <g id="Grupo_945698" data-name="Grupo 945698" transform="translate(32.696 48.334)">
          <path id="Trazado_650679" data-name="Trazado 650679" d="M53.5,36.384,41.216,38.843,28.933,36.384,27,36V53.059L41.216,55.9l14.216-2.843V36Z" transform="translate(-27 -36)" fill="#e6e9ed"/>
        </g>
        <g id="Grupo_945699" data-name="Grupo 945699" transform="translate(24.167 34.118)">
          <path id="Trazado_650680" data-name="Trazado 650680" d="M33.794,35.951,31.463,40.6l-1.933-.384v2.843A2.852,2.852,0,0,0,32.373,45.9h2.843v8.529H32.543a11.761,11.761,0,0,1-3.014-.4A11.544,11.544,0,0,1,30.653,31.5l5.573-.924a3.6,3.6,0,0,0,.782-.256l.014.071a5.467,5.467,0,0,0,10.6,0l.085-.341v-.014a2.606,2.606,0,0,0,1.095.227h.682a25.436,25.436,0,0,1,6.8.924,26.011,26.011,0,0,1,6.312,2.7,4.312,4.312,0,0,0,2.289.64A3.021,3.021,0,0,0,67.912,31.5V26h8.529v7.108a9.944,9.944,0,0,1-9.951,9.951H57.961V40.216l-1.933.384L53.7,35.951l-9.951,7.108Z" transform="translate(-21 -26)" fill="#b4dd7f"/>
        </g>
        <g id="Grupo_945700" data-name="Grupo 945700" transform="translate(27.01)">
          <path id="Trazado_650681" data-name="Trazado 650681" d="M48.716,16.216H47.309A8.819,8.819,0,0,1,40.173,12.6l-8.9,4.478a2.023,2.023,0,0,0-1.095,1.777L30.165,21.9h-2.9l-2.843-5.686,4.265-4.265L23,7.686A33.8,33.8,0,0,1,41.779,2h5.814a10.975,10.975,0,0,1,9.866,6.2,10.859,10.859,0,0,1,1.08,4.748,13.845,13.845,0,0,1-1.464,6.2L55.7,21.9H52.91l.014-2.63a1.98,1.98,0,0,0-1.606-1.948,6.749,6.749,0,0,1-2.6-1.109Z" transform="translate(-23 -2)" fill="#656d78"/>
        </g>
        <g id="Grupo_945701" data-name="Grupo 945701" transform="translate(46.912 44.069)">
          <path id="Trazado_650682" data-name="Trazado 650682" d="M49.282,37.649,37,40.108,46.951,33Z" transform="translate(-37 -33)" fill="#f0d0b4"/>
        </g>
        <g id="Grupo_945702" data-name="Grupo 945702" transform="translate(34.63 44.069)">
          <path id="Trazado_650683" data-name="Trazado 650683" d="M40.642,40.108,28.36,37.649,30.691,33Z" transform="translate(-28.36 -33)" fill="#f0d0b4"/>
        </g>
        <g id="Grupo_945703" data-name="Grupo 945703" transform="translate(45.491 76.765)">
          <path id="Trazado_650684" data-name="Trazado 650684" d="M43.108,56a4.265,4.265,0,0,1,0,8.529H36V56h7.108Z" transform="translate(-36 -56)" fill="#f0d0b4"/>
        </g>
        <g id="Grupo_945704" data-name="Grupo 945704" transform="translate(38.383 54.02)">
          <path id="Trazado_650685" data-name="Trazado 650685" d="M38.278,41.251a4.262,4.262,0,0,1-3.014,7.278H31V40h4.265A4.255,4.255,0,0,1,38.278,41.251Z" transform="translate(-31 -40)" fill="#f0d0b4"/>
        </g>
        <g id="Grupo_945705" data-name="Grupo 945705" transform="translate(71.079 22.745)">
          <path id="Trazado_650686" data-name="Trazado 650686" d="M54,18h8.529a2.852,2.852,0,0,1,2.843,2.843,2.864,2.864,0,0,1-2.843,2.843h-6.4l.071-.156a5.846,5.846,0,0,0,.64-2.687A2.864,2.864,0,0,0,54,18Z" transform="translate(-54 -18)" fill="#f0d0b4"/>
        </g>
        <g id="Grupo_945706" data-name="Grupo 945706" transform="translate(69.657 14.216)">
          <path id="Trazado_650687" data-name="Trazado 650687" d="M58.686,14.843v5.686H54.422A2.836,2.836,0,0,0,53,20.913v-6.07A2.852,2.852,0,0,1,55.843,12a2.864,2.864,0,0,1,2.843,2.843Z" transform="translate(-53 -12)" fill="#f0d0b4"/>
        </g>
        <g id="Grupo_945707" data-name="Grupo 945707" transform="translate(68.236 22.745)">
          <path id="Trazado_650688" data-name="Trazado 650688" d="M54.36,28.662A14.151,14.151,0,0,1,52,20.843a2.78,2.78,0,0,1,.839-2,2.577,2.577,0,0,1,.583-.455A2.836,2.836,0,0,1,54.843,18a2.864,2.864,0,0,1,2.843,2.843,5.846,5.846,0,0,1-.64,2.687l-.071.156h6.4v5.686H54.843Z" transform="translate(-52 -18)" fill="#f0d0b4"/>
        </g>
        <g id="Grupo_945708" data-name="Grupo 945708" transform="translate(56.565 19.902)">
          <path id="Trazado_650689" data-name="Trazado 650689" d="M48.936,20.848a2.78,2.78,0,0,1-2,.839l-2.886-.043-.256-.057a10.656,10.656,0,0,0,.341-2.7L44.145,16h2.786a2.852,2.852,0,0,1,2.843,2.843A2.78,2.78,0,0,1,48.936,20.848Z" transform="translate(-43.79 -16)" fill="#f0d0b4"/>
        </g>
        <g id="Grupo_945709" data-name="Grupo 945709" transform="translate(40.174 33.677)">
          <path id="Trazado_650690" data-name="Trazado 650690" d="M42.965,30.168v.014l-.085.341a5.467,5.467,0,0,1-10.6,0l-.014-.071a2.882,2.882,0,0,0,1.507-1.862l.725-2.9a11.373,11.373,0,0,0,6.17.028l.64,2.53a2.764,2.764,0,0,0,1.663,1.919Z" transform="translate(-32.26 -25.69)" fill="#f0d0b4"/>
        </g>
        <g id="Grupo_945710" data-name="Grupo 945710" transform="translate(34.161 10.605)">
          <path id="Trazado_650691" data-name="Trazado 650691" d="M42.445,32.561a11.373,11.373,0,0,1-6.17-.028c-4.563-2.3-6.013-3.852-7.918-8.2a11.6,11.6,0,0,1-.327-2.744v-.028l.014-2.8.014-3.042a2.023,2.023,0,0,1,1.095-1.777l8.9-4.478a8.819,8.819,0,0,0,7.136,3.611H46.6a6.749,6.749,0,0,0,2.6,1.109A1.98,1.98,0,0,1,50.8,16.127l-.014,2.63-.014,2.886a10.656,10.656,0,0,1-.341,2.7,11.324,11.324,0,0,1-7.989,8.217Z" transform="translate(-28.03 -9.46)" fill="#f0d0b4"/>
        </g>
        <g id="Grupo_945711" data-name="Grupo 945711" transform="translate(28.432 19.902)">
          <path id="Trazado_650692" data-name="Trazado 650692" d="M29.743,16l-.014,2.8v.028a11.6,11.6,0,0,0,.327,2.744l-.327.071-2.886.043A2.864,2.864,0,0,1,24,18.843,2.852,2.852,0,0,1,26.843,16h2.843Z" transform="translate(-24 -16)" fill="#f0d0b4"/>
        </g>
        <g id="Grupo_945712" data-name="Grupo 945712" transform="translate(5.686 36.961)">
          <path id="Trazado_650693" data-name="Trazado 650693" d="M13.686,30.843a2.864,2.864,0,0,1-2.843,2.843A2.852,2.852,0,0,1,8,30.843V28h5.686Z" transform="translate(-8 -28)" fill="#aab2bd"/>
        </g>
        <g id="Grupo_945713" data-name="Grupo 945713" transform="translate(0 19.902)">
          <path id="Trazado_650694" data-name="Trazado 650694" d="M12.529,33.059H9.686L7.412,31.353A8.3,8.3,0,0,1,4.9,28.339a8.538,8.538,0,0,1,.81-8.928A8.3,8.3,0,0,1,8.72,16.9a8.551,8.551,0,0,1,7.62,0,8.3,8.3,0,0,1,3.014,2.516,8.529,8.529,0,0,1-1.706,11.941l-2.275,1.706Z" transform="translate(-4 -16)" fill="#ffeaa7"/>
        </g>
        <g id="Grupo_945714" data-name="Grupo 945714" transform="translate(5.686 25.588)">
          <circle id="Elipse_7558" data-name="Elipse 7558" cx="2.843" cy="2.843" r="2.843" transform="translate(0 0)" fill="#fcd770"/>
        </g>
      </g>
      <g id="Grupo_945716" data-name="Grupo 945716" transform="translate(0 0)">
        <circle id="Elipse_7559" data-name="Elipse 7559" cx="1.422" cy="1.422" r="1.422" transform="translate(42.515 19.902)"/>
        <circle id="Elipse_7560" data-name="Elipse 7560" cx="1.422" cy="1.422" r="1.422" transform="translate(53.887 19.902)"/>
        <path id="Trazado_650695" data-name="Trazado 650695" d="M43.028,21.124l.149-.3-2.543-1.272-.149.3a3.179,3.179,0,0,1-5.686,0l-.149-.3-2.543,1.272.149.3a6.022,6.022,0,0,0,10.773,0Z" transform="translate(11.902 6.821)"/>
        <path id="Trazado_650696" data-name="Trazado 650696" d="M82.393,28.01a4.27,4.27,0,0,0-4.265-4.265H75.285V19.481a4.265,4.265,0,0,0-8.529,0v5.374a4.241,4.241,0,0,0-1.422,3.156,15.465,15.465,0,0,0,2.6,8.6l.239.358v5.068a1.612,1.612,0,0,1-1.611,1.609,3.029,3.029,0,0,1-1.559-.432,26.9,26.9,0,0,0-13.836-3.833h-.677a1.423,1.423,0,0,1-1.38-1.078L48.8,37.039a12.869,12.869,0,0,0,7.32-7.638l2.11.031a4.25,4.25,0,0,0,2.031-7.991l.621-1.244a15.35,15.35,0,0,0,1.612-6.826A12.371,12.371,0,0,0,50.121,1H44.31A35.164,35.164,0,0,0,24.741,6.925L23.07,8.04l5.982,4.487-3.83,3.83,2.542,5.084a4.25,4.25,0,0,0,2.051,7.992l2.179-.033a12.767,12.767,0,0,0,7.233,7.618l-.408,1.633a1.424,1.424,0,0,1-1.146,1.058l-5.574.93a12.955,12.955,0,0,0-2.306,24.956v1.08l-4.269.948a10.888,10.888,0,0,0,2.361,21.516h35.09a10.887,10.887,0,0,0,2.361-21.516l-4.269-.948V55.02h7.108A11.386,11.386,0,0,0,79.55,43.647V32.013A4.259,4.259,0,0,0,82.393,28.01ZM69.6,19.481a1.422,1.422,0,0,1,2.843,0v4.265H69.6Zm0,7.108A1.423,1.423,0,0,1,71.02,28.01a4.613,4.613,0,0,1-.486,2.057l-.786,1.571,2.543,1.272.318-.635h4.1v2.843H70.359l-.055-.084a12.628,12.628,0,0,1-2.127-7.024A1.423,1.423,0,0,1,69.6,26.588Zm-11.351,0-1.471-.021a12.723,12.723,0,0,0,.078-1.345l.007-1.477h1.365a1.422,1.422,0,0,1,.021,2.843Zm-28.453,0a1.422,1.422,0,0,1,0-2.843h1.477l-.006,1.366a12.658,12.658,0,0,0,.082,1.454Zm1.5-7.317L31.284,20.9h-.611l-1.992-3.985,4.7-4.7-5.337-4A32.317,32.317,0,0,1,44.31,3.843h5.811a9.525,9.525,0,0,1,9.526,9.527,12.465,12.465,0,0,1-1.312,5.554L57.347,20.9h-.475l.006-1.2a3.42,3.42,0,0,0-2.749-3.358A5.512,5.512,0,0,1,49.7,10.951H46.853a8.281,8.281,0,0,0,1.026,3.972,7.422,7.422,0,0,1-5.318-5.672l-2.788.557a10.245,10.245,0,0,0,.923,2.641l-7.53,3.791a3.393,3.393,0,0,0-1.875,3.031Zm2.818,5.853.026-5.84a.563.563,0,0,1,.313-.5L42.355,14.8a10.269,10.269,0,0,0,7.482,3.26h1a8.274,8.274,0,0,0,2.737,1.076.568.568,0,0,1,.458.559l-.024,5.517a9.951,9.951,0,1,1-19.9-.087ZM44.06,37.961a12.83,12.83,0,0,0,2-.172l.3,1.207a4.246,4.246,0,0,0,1.366,2.195,4.029,4.029,0,0,1-7.334.188,4.253,4.253,0,0,0,1.187-2.039l.391-1.562a12.938,12.938,0,0,0,2.093.183ZM34.231,66.393h6.936a5.628,5.628,0,0,0,2.843-.79v3.321L32.637,66.649v-.364A13.1,13.1,0,0,0,34.231,66.393ZM46.853,54.764,58.226,52.49V66.649L46.853,68.923Zm4.795-3.858,3.207-2.29.749,1.5ZM32.637,52.49,44.01,54.764V55.81a5.628,5.628,0,0,0-2.843-.79H34.059A1.423,1.423,0,0,1,32.637,53.6Zm2.621-2.375.751-1.5,3.207,2.29Zm5.908,7.749a2.843,2.843,0,0,1,0,5.686H38.324V57.863Zm4.265,28.432V80.609h5.686a2.843,2.843,0,1,1,0,5.686ZM71.02,78.25a8.053,8.053,0,0,1-8.043,8.045H56.014a5.617,5.617,0,0,0-1.758-7.578L63.068,74.8l-1.156-2.6L49.395,77.765H45.432V76.679l-16.685-4.55L28,74.872l14.588,3.979v7.443h-14.7a8.045,8.045,0,0,1-1.744-15.9l5.089-1.13,14.2,2.84,14.2-2.84,5.089,1.13A8,8,0,0,1,71.02,78.25ZM68.177,52.177H61.069V49.021l-2.574.515L55.91,44.367,45.432,51.851,34.953,44.367,32.47,49.334H29.794V53.6a4.27,4.27,0,0,0,4.265,4.265h1.422V63.55h-1.25a10.123,10.123,0,0,1-1.665-20.108l5.244-.874a6.862,6.862,0,0,0,12.557-.353c.043,0,.084.011.128.011h.677a24.058,24.058,0,0,1,12.375,3.429,5.884,5.884,0,0,0,3.019.836,4.458,4.458,0,0,0,4.454-4.452V37.961h5.686v5.686a8.538,8.538,0,0,1-8.529,8.529Zm9.951-22.745H73.714a7.471,7.471,0,0,0,.149-1.422,4.217,4.217,0,0,0-.262-1.422h4.526a1.422,1.422,0,0,1,0,2.843Z" transform="translate(5.533 -1)"/>
        <path id="Trazado_650697" data-name="Trazado 650697" d="M20.912,18.98A9.951,9.951,0,1,0,6.98,32.912l1.706,1.279v2.132a4.265,4.265,0,1,0,8.529,0V34.191l1.7-1.279A9.95,9.95,0,0,0,20.912,18.98ZM12.951,37.745a1.423,1.423,0,0,1-1.422-1.422V34.9h2.843v1.422A1.423,1.423,0,0,1,12.951,37.745ZM11.529,24.951a1.422,1.422,0,1,1,1.422,1.422A1.423,1.423,0,0,1,11.529,24.951Zm5.685,5.686-1.895,1.422h-.947v-3.1a4.265,4.265,0,1,0-2.843,0v3.1h-.947l-1.9-1.422a7.109,7.109,0,1,1,8.528,0Z" transform="translate(-0.369 4.902)"/>
        <path id="Trazado_650698" data-name="Trazado 650698" d="M0,0H2.843V8.289H0Z" transform="translate(0 13.531) rotate(-30.974)"/>
        <path id="Trazado_650699" data-name="Trazado 650699" d="M0,0H8.289V2.843H0Z" transform="matrix(0.515, -0.857, 0.857, 0.515, 18.471, 19.183)"/>
        <path id="Trazado_650700" data-name="Trazado 650700" d="M9,7h2.843v8.529H9Z" transform="translate(2.16 1.529)"/>
      </g>
    </g>
  </g>
</svg>
