<svg xmlns="http://www.w3.org/2000/svg" xmlns:xlink="http://www.w3.org/1999/xlink" width="136.941" height="136.088" viewBox="0 0 136.941 136.088">
  <defs>
    <filter id="Trazado_634157" x="0" y="108.854" width="136.941" height="27.234" filterUnits="userSpaceOnUse">
      <feOffset dy="3" input="SourceAlpha"/>
      <feGaussianBlur stdDeviation="3" result="blur"/>
      <feFlood flood-opacity="0.161"/>
      <feComposite operator="in" in2="blur"/>
      <feComposite in="SourceGraphic"/>
    </filter>
    <filter id="Trazado_634156" x="3.808" y="0" width="129.325" height="129.325" filterUnits="userSpaceOnUse">
      <feOffset dy="3" input="SourceAlpha"/>
      <feGaussianBlur stdDeviation="3" result="blur-2"/>
      <feFlood flood-opacity="0.161"/>
      <feComposite operator="in" in2="blur-2"/>
      <feComposite in="SourceGraphic"/>
    </filter>
    <filter id="Elipse_5225" x="98.751" y="14.411" width="30.589" height="30.589" filterUnits="userSpaceOnUse">
      <feOffset dy="3" input="SourceAlpha"/>
      <feGaussianBlur stdDeviation="3" result="blur-3"/>
      <feFlood flood-opacity="0.161"/>
      <feComposite operator="in" in2="blur-3"/>
      <feComposite in="SourceGraphic"/>
    </filter>
    <filter id="Elipse_7578" x="7.96" y="55.662" width="27.448" height="27.448" filterUnits="userSpaceOnUse">
      <feOffset dy="3" input="SourceAlpha"/>
      <feGaussianBlur stdDeviation="3" result="blur-4"/>
      <feFlood flood-opacity="0.161"/>
      <feComposite operator="in" in2="blur-4"/>
      <feComposite in="SourceGraphic"/>
    </filter>
    <filter id="Elipse_7579" x="12.684" y="3.792" width="24.306" height="24.306" filterUnits="userSpaceOnUse">
      <feOffset dy="3" input="SourceAlpha"/>
      <feGaussianBlur stdDeviation="3" result="blur-5"/>
      <feFlood flood-opacity="0.161"/>
      <feComposite operator="in" in2="blur-5"/>
      <feComposite in="SourceGraphic"/>
    </filter>
  </defs>
  <g id="_16" data-name="16" transform="translate(-1229.882 -2590.484)">
    <g id="nota" transform="translate(1251.137 2614.59)">
      <g id="Grupo_946769" data-name="Grupo 946769" transform="translate(16.109 1.082)">
        <g id="Grupo_946767" data-name="Grupo 946767" transform="translate(0)">
          <g id="Grupo_946763" data-name="Grupo 946763">
            <g id="Grupo_946762" data-name="Grupo 946762">
              <path id="Trazado_652132" data-name="Trazado 652132" d="M74.175,79.212H27a4.469,4.469,0,0,1-4.469-4.469V11.969A4.469,4.469,0,0,1,27,7.5H74.175a4.469,4.469,0,0,1,4.469,4.469V74.743A4.469,4.469,0,0,1,74.175,79.212Z" transform="translate(-22.528 -7.5)" fill="#feba80"/>
              <path id="Trazado_652133" data-name="Trazado 652133" d="M333.412,7.5h-7.934a4.469,4.469,0,0,1,4.469,4.469V74.743a4.469,4.469,0,0,1-4.469,4.469h7.934a4.469,4.469,0,0,0,4.469-4.469V11.969A4.469,4.469,0,0,0,333.412,7.5Z" transform="translate(-281.766 -7.5)" fill="#feba80"/>
              <path id="Trazado_652134" data-name="Trazado 652134" d="M74.175,7.5H27a4.469,4.469,0,0,0-4.469,4.469v7.707H78.643V11.969A4.469,4.469,0,0,0,74.175,7.5Z" transform="translate(-22.528 -7.5)" fill="#feba80"/>
              <path id="Trazado_652135" data-name="Trazado 652135" d="M337.886,19.676V11.969A4.469,4.469,0,0,0,333.416,7.5h-7.933a4.469,4.469,0,0,1,4.468,4.469v7.707Z" transform="translate(-281.77 -7.5)" fill="#feba80"/>
            </g>
          </g>
          <g id="Grupo_946766" data-name="Grupo 946766" transform="translate(28.058 32.394)">
            <path id="Trazado_652136" data-name="Trazado 652136" d="M225.932,267.886l-7.811,3.371a.813.813,0,0,1-1.068-1.068l3.371-7.811a3.646,3.646,0,0,1,.769-1.133l28.439-28.439a2.724,2.724,0,0,1,3.853,0l2.018,2.018a2.724,2.724,0,0,1,0,3.853l-28.439,28.439A3.644,3.644,0,0,1,225.932,267.886Z" transform="translate(-216.984 -232.009)" fill="#feba80"/>
            <g id="Grupo_946764" data-name="Grupo 946764" transform="translate(29.53 0)">
              <path id="Trazado_652137" data-name="Trazado 652137" d="M427.512,241.8l3.118-3.118a2.724,2.724,0,0,0,0-3.853l-2.018-2.018a2.724,2.724,0,0,0-3.853,0l-3.118,3.118Z" transform="translate(-421.641 -232.012)" fill="#feba80"/>
            </g>
            <g id="Grupo_946765" data-name="Grupo 946765" transform="translate(4.2 6.996)">
              <path id="Trazado_652138" data-name="Trazado 652138" d="M0,0H31.455V8.3H0Z" transform="translate(0 22.239) rotate(-45)" fill="#feba80"/>
            </g>
            <path id="Trazado_652139" data-name="Trazado 652139" d="M219.1,463.69l-2.051,4.751a.813.813,0,0,0,1.068,1.068l4.751-2.051Z" transform="translate(-216.984 -430.261)" fill="#feba80"/>
          </g>
        </g>
        <g id="Grupo_946768" data-name="Grupo 946768" transform="translate(54.509 36.311)">
          <path id="Trazado_652140" data-name="Trazado 652140" d="M409.256,265.023l-5.871-5.871-3.078,3.078,5.871,5.871Z" transform="translate(-400.307 -259.152)" fill="#feba80"/>
        </g>
      </g>
      <g id="Grupo_946771" data-name="Grupo 946771" transform="translate(15.027 0)">
        <g id="Grupo_946770" data-name="Grupo 946770" transform="translate(0 0)">
          <path id="Trazado_652141" data-name="Trazado 652141" d="M103.747,155.526H60.411a1.078,1.078,0,1,0,0,2.156h43.336a1.078,1.078,0,1,0,0-2.156Z" transform="translate(-52.94 -133.085)" fill="#feba80"/>
          <path id="Trazado_652142" data-name="Trazado 652142" d="M103.747,208.843H60.411a1.078,1.078,0,1,0,0,2.156h43.336a1.078,1.078,0,1,0,0-2.156Z" transform="translate(-52.94 -178.709)" fill="#feba80"/>
          <path id="Trazado_652143" data-name="Trazado 652143" d="M104.825,263.237a1.078,1.078,0,0,0-1.078-1.078H60.411a1.078,1.078,0,0,0,0,2.156h43.336A1.078,1.078,0,0,0,104.825,263.237Z" transform="translate(-52.94 -224.332)" fill="#feba80"/>
          <path id="Trazado_652144" data-name="Trazado 652144" d="M91.454,316.554a1.078,1.078,0,0,0-1.078-1.078H60.411a1.078,1.078,0,1,0,0,2.156H90.376a1.078,1.078,0,0,0,1.078-1.078Z" transform="translate(-52.94 -269.956)" fill="#feba80"/>
          <path id="Trazado_652145" data-name="Trazado 652145" d="M83.668,369.871a1.078,1.078,0,0,0-1.078-1.078H60.411a1.078,1.078,0,1,0,0,2.156H82.59A1.078,1.078,0,0,0,83.668,369.871Z" transform="translate(-52.94 -315.58)" fill="#feba80"/>
          <path id="Trazado_652146" data-name="Trazado 652146" d="M60.411,422.11a1.078,1.078,0,0,0,0,2.156H74.937a1.078,1.078,0,0,0,0-2.156Z" transform="translate(-52.94 -361.204)" fill="#feba80"/>
          <path id="Trazado_652147" data-name="Trazado 652147" d="M50.463,71.676l3.079-1.329a4.7,4.7,0,0,0,1.468-1L83.452,40.908a3.8,3.8,0,0,0,0-5.378l-2.018-2.018a3.807,3.807,0,0,0-5.378,0L47.614,61.954h0a4.7,4.7,0,0,0-1,1.466l-3.372,7.812a1.906,1.906,0,0,0-.136.487H20.575a3.4,3.4,0,0,1-3.392-3.392v-54H71.149V33.409a1.078,1.078,0,0,0,2.156,0V5.547A5.554,5.554,0,0,0,67.758,0H20.575a5.554,5.554,0,0,0-5.547,5.547V68.329a5.554,5.554,0,0,0,5.547,5.547H67.757A5.554,5.554,0,0,0,73.3,68.329V56.141a1.078,1.078,0,1,0-2.156,0V68.329a3.4,3.4,0,0,1-3.392,3.392h-17.4l.1-.043h0ZM17.183,5.547a3.4,3.4,0,0,1,3.392-3.392H67.757a3.4,3.4,0,0,1,3.392,3.392v6.63H17.183Zm60.4,29.489a1.649,1.649,0,0,1,2.329,0l2.018,2.018a1.648,1.648,0,0,1,0,2.329L79.571,41.74l-4.347-4.347ZM73.7,38.917l4.347,4.347-1.554,1.554-4.347-4.347ZM70.621,42l4.347,4.347-20.72,20.72L49.9,62.716ZM45.49,71.474l1.157-2.681,1.524,1.524ZM50.3,69.4l-2.734-2.734.975-2.259,4.018,4.018Z" transform="translate(-15.027 0)" fill="#feba80"/>
        </g>
      </g>
    </g>
    <g id="Grupo_947499" data-name="Grupo 947499">
      <g id="Grupo_946757" data-name="Grupo 946757" transform="translate(1233.396 2596.484)">
        <g id="Grupo_946416" data-name="Grupo 946416" transform="translate(0)">
          <g transform="matrix(1, 0, 0, 1, -3.51, -6)" filter="url(#Trazado_634157)">
            <path id="Trazado_634157-2" data-name="Trazado 634157" d="M59.471,0c32.845,0,59.471,2.067,59.471,4.617S92.315,9.234,59.471,9.234,0,7.167,0,4.617,26.626,0,59.471,0Z" transform="translate(9 114.85)" fill="#d4dde7"/>
          </g>
          <g transform="matrix(1, 0, 0, 1, -3.51, -6)" filter="url(#Trazado_634156)">
            <path id="Trazado_634156-2" data-name="Trazado 634156" d="M55.663,0A55.663,55.663,0,1,1,0,55.663,55.663,55.663,0,0,1,55.663,0Z" transform="translate(12.81 6)" fill="#f3f9ff"/>
          </g>
          <g transform="matrix(1, 0, 0, 1, -3.51, -6)" filter="url(#Elipse_5225)">
            <circle id="Elipse_5225-2" data-name="Elipse 5225" cx="4.451" cy="4.451" r="4.451" transform="translate(107.75 26.71) rotate(-45)" fill="#84a575"/>
          </g>
          <g transform="matrix(1, 0, 0, 1, -3.51, -6)" filter="url(#Elipse_7578)">
            <circle id="Elipse_7578-2" data-name="Elipse 7578" cx="3.34" cy="3.34" r="3.34" transform="translate(16.96 66.39) rotate(-45)" fill="#84a575"/>
          </g>
          <g transform="matrix(1, 0, 0, 1, -3.51, -6)" filter="url(#Elipse_7579)">
            <circle id="Elipse_7579-2" data-name="Elipse 7579" cx="2.23" cy="2.23" r="2.23" transform="translate(21.68 12.95) rotate(-45)" fill="#84a575"/>
          </g>
        </g>
      </g>
      <g id="nota-2" data-name="nota" transform="translate(1253.137 2616.59)">
        <g id="Grupo_946769-2" data-name="Grupo 946769" transform="translate(16.109 1.082)">
          <g id="Grupo_946767-2" data-name="Grupo 946767" transform="translate(0)">
            <g id="Grupo_946763-2" data-name="Grupo 946763">
              <g id="Grupo_946762-2" data-name="Grupo 946762">
                <path id="Trazado_652132-2" data-name="Trazado 652132" d="M74.175,79.212H27a4.469,4.469,0,0,1-4.469-4.469V11.969A4.469,4.469,0,0,1,27,7.5H74.175a4.469,4.469,0,0,1,4.469,4.469V74.743A4.469,4.469,0,0,1,74.175,79.212Z" transform="translate(-22.528 -7.5)" fill="#f7e5c1"/>
                <path id="Trazado_652133-2" data-name="Trazado 652133" d="M333.412,7.5h-7.934a4.469,4.469,0,0,1,4.469,4.469V74.743a4.469,4.469,0,0,1-4.469,4.469h7.934a4.469,4.469,0,0,0,4.469-4.469V11.969A4.469,4.469,0,0,0,333.412,7.5Z" transform="translate(-281.766 -7.5)" fill="#feba80"/>
                <path id="Trazado_652134-2" data-name="Trazado 652134" d="M74.175,7.5H27a4.469,4.469,0,0,0-4.469,4.469v7.707H78.643V11.969A4.469,4.469,0,0,0,74.175,7.5Z" transform="translate(-22.528 -7.5)" fill="#b4dd7f"/>
                <path id="Trazado_652135-2" data-name="Trazado 652135" d="M337.886,19.676V11.969A4.469,4.469,0,0,0,333.416,7.5h-7.933a4.469,4.469,0,0,1,4.468,4.469v7.707Z" transform="translate(-281.77 -7.5)" fill="#85b745"/>
              </g>
            </g>
            <g id="Grupo_946766-2" data-name="Grupo 946766" transform="translate(28.058 32.394)">
              <path id="Trazado_652136-2" data-name="Trazado 652136" d="M225.932,267.886l-7.811,3.371a.813.813,0,0,1-1.068-1.068l3.371-7.811a3.646,3.646,0,0,1,.769-1.133l28.439-28.439a2.724,2.724,0,0,1,3.853,0l2.018,2.018a2.724,2.724,0,0,1,0,3.853l-28.439,28.439A3.644,3.644,0,0,1,225.932,267.886Z" transform="translate(-216.984 -232.009)" fill="#e8a887"/>
              <g id="Grupo_946764-2" data-name="Grupo 946764" transform="translate(29.53 0)">
                <path id="Trazado_652137-2" data-name="Trazado 652137" d="M427.512,241.8l3.118-3.118a2.724,2.724,0,0,0,0-3.853l-2.018-2.018a2.724,2.724,0,0,0-3.853,0l-3.118,3.118Z" transform="translate(-421.641 -232.012)" fill="#6aa4ef"/>
              </g>
              <g id="Grupo_946765-2" data-name="Grupo 946765" transform="translate(4.2 6.996)">
                <path id="Trazado_652138-2" data-name="Trazado 652138" d="M0,0H31.455V8.3H0Z" transform="translate(0 22.239) rotate(-45)" fill="#fdd966"/>
              </g>
              <path id="Trazado_652139-2" data-name="Trazado 652139" d="M219.1,463.69l-2.051,4.751a.813.813,0,0,0,1.068,1.068l4.751-2.051Z" transform="translate(-216.984 -430.261)" fill="#538ef6"/>
            </g>
          </g>
          <g id="Grupo_946768-2" data-name="Grupo 946768" transform="translate(54.509 36.311)">
            <path id="Trazado_652140-2" data-name="Trazado 652140" d="M409.256,265.023l-5.871-5.871-3.078,3.078,5.871,5.871Z" transform="translate(-400.307 -259.152)" fill="#dbe8f9"/>
          </g>
        </g>
        <g id="Grupo_946771-2" data-name="Grupo 946771" transform="translate(15.027 0)">
          <g id="Grupo_946770-2" data-name="Grupo 946770" transform="translate(0 0)">
            <path id="Trazado_652141-2" data-name="Trazado 652141" d="M103.747,155.526H60.411a1.078,1.078,0,1,0,0,2.156h43.336a1.078,1.078,0,1,0,0-2.156Z" transform="translate(-52.94 -133.085)"/>
            <path id="Trazado_652142-2" data-name="Trazado 652142" d="M103.747,208.843H60.411a1.078,1.078,0,1,0,0,2.156h43.336a1.078,1.078,0,1,0,0-2.156Z" transform="translate(-52.94 -178.709)"/>
            <path id="Trazado_652143-2" data-name="Trazado 652143" d="M104.825,263.237a1.078,1.078,0,0,0-1.078-1.078H60.411a1.078,1.078,0,0,0,0,2.156h43.336A1.078,1.078,0,0,0,104.825,263.237Z" transform="translate(-52.94 -224.332)"/>
            <path id="Trazado_652144-2" data-name="Trazado 652144" d="M91.454,316.554a1.078,1.078,0,0,0-1.078-1.078H60.411a1.078,1.078,0,1,0,0,2.156H90.376a1.078,1.078,0,0,0,1.078-1.078Z" transform="translate(-52.94 -269.956)"/>
            <path id="Trazado_652145-2" data-name="Trazado 652145" d="M83.668,369.871a1.078,1.078,0,0,0-1.078-1.078H60.411a1.078,1.078,0,1,0,0,2.156H82.59A1.078,1.078,0,0,0,83.668,369.871Z" transform="translate(-52.94 -315.58)"/>
            <path id="Trazado_652146-2" data-name="Trazado 652146" d="M60.411,422.11a1.078,1.078,0,0,0,0,2.156H74.937a1.078,1.078,0,0,0,0-2.156Z" transform="translate(-52.94 -361.204)"/>
            <path id="Trazado_652147-2" data-name="Trazado 652147" d="M50.463,71.676l3.079-1.329a4.7,4.7,0,0,0,1.468-1L83.452,40.908a3.8,3.8,0,0,0,0-5.378l-2.018-2.018a3.807,3.807,0,0,0-5.378,0L47.614,61.954h0a4.7,4.7,0,0,0-1,1.466l-3.372,7.812a1.906,1.906,0,0,0-.136.487H20.575a3.4,3.4,0,0,1-3.392-3.392v-54H71.149V33.409a1.078,1.078,0,0,0,2.156,0V5.547A5.554,5.554,0,0,0,67.758,0H20.575a5.554,5.554,0,0,0-5.547,5.547V68.329a5.554,5.554,0,0,0,5.547,5.547H67.757A5.554,5.554,0,0,0,73.3,68.329V56.141a1.078,1.078,0,1,0-2.156,0V68.329a3.4,3.4,0,0,1-3.392,3.392h-17.4l.1-.043h0ZM17.183,5.547a3.4,3.4,0,0,1,3.392-3.392H67.757a3.4,3.4,0,0,1,3.392,3.392v6.63H17.183Zm60.4,29.489a1.649,1.649,0,0,1,2.329,0l2.018,2.018a1.648,1.648,0,0,1,0,2.329L79.571,41.74l-4.347-4.347ZM73.7,38.917l4.347,4.347-1.554,1.554-4.347-4.347ZM70.621,42l4.347,4.347-20.72,20.72L49.9,62.716ZM45.49,71.474l1.157-2.681,1.524,1.524ZM50.3,69.4l-2.734-2.734.975-2.259,4.018,4.018Z" transform="translate(-15.027 0)"/>
          </g>
        </g>
      </g>
    </g>
  </g>
</svg>
