<svg xmlns="http://www.w3.org/2000/svg" xmlns:xlink="http://www.w3.org/1999/xlink" width="1048" height="93" viewBox="0 0 1048 93">
  <defs>
    <filter id="Rectángulo_335910" x="0" y="0" width="1048" height="93" filterUnits="userSpaceOnUse">
      <feOffset dy="3" input="SourceAlpha"/>
      <feGaussianBlur stdDeviation="3" result="blur"/>
      <feFlood flood-opacity="0.161"/>
      <feComposite operator="in" in2="blur"/>
      <feComposite in="SourceGraphic"/>
    </filter>
    <linearGradient id="linear-gradient" x1="-0.186" y1="0.16" x2="0.605" y2="0.841" gradientUnits="objectBoundingBox">
      <stop offset="0" stop-color="#0a5610"/>
      <stop offset="1" stop-color="#258d3a" stop-opacity="0"/>
    </linearGradient>
    <linearGradient id="linear-gradient-2" x1="0.274" y1="0.199" x2="0.809" y2="0.789" gradientUnits="objectBoundingBox">
      <stop offset="0" stop-color="#03300a"/>
      <stop offset="1" stop-color="#1e6623" stop-opacity="0"/>
    </linearGradient>
  </defs>
  <g id="_19" data-name="19" transform="translate(-276 -3496)">
    <g transform="matrix(1, 0, 0, 1, 276, 3496)" filter="url(#Rectángulo_335910)">
      <rect id="Rectángulo_335910-2" data-name="Rectángulo 335910" width="1030" height="75" rx="11" transform="translate(9 6)" fill="#dee4f0"/>
    </g>
    <path id="Trazado_655102" data-name="Trazado 655102" d="M.185,19,2.408,6.2l3.99.009a5.293,5.293,0,0,1,3.34.905A2.8,2.8,0,0,1,10.749,9.64a3.223,3.223,0,0,1-2.241,2.839,2.15,2.15,0,0,1,1.187.989,2.959,2.959,0,0,1,.36,1.709,3.7,3.7,0,0,1-1.419,2.817A5.629,5.629,0,0,1,5.1,19Zm3.551-5.572-.606,3.454,2.03.009a2.618,2.618,0,0,0,1.591-.47,1.866,1.866,0,0,0,.765-1.27A1.577,1.577,0,0,0,7.3,13.916a1.427,1.427,0,0,0-1.138-.479Zm.316-1.863,1.749.018a2.785,2.785,0,0,0,1.6-.457A1.772,1.772,0,0,0,8.139,9.9q.22-1.547-1.626-1.556l-1.9-.009ZM13.878,19h-2.5L13.729,5.5h2.487Zm7.541-9.686a3.814,3.814,0,0,1,2.167.646,3.638,3.638,0,0,1,1.336,1.731,5.357,5.357,0,0,1,.3,2.448,5.786,5.786,0,0,1-1.578,3.669,4.455,4.455,0,0,1-3.4,1.367,3.8,3.8,0,0,1-2.145-.637A3.624,3.624,0,0,1,16.77,16.82a5.239,5.239,0,0,1-.308-2.426,5.957,5.957,0,0,1,1.6-3.744A4.363,4.363,0,0,1,21.419,9.314Zm-2.5,5.979a2.194,2.194,0,0,0,.4,1.33,1.314,1.314,0,0,0,1.063.5,1.926,1.926,0,0,0,1.793-1.049,5.227,5.227,0,0,0,.606-2.848,2.387,2.387,0,0,0-.409-1.347,1.293,1.293,0,0,0-1.068-.522,1.929,1.929,0,0,0-1.771,1.04A5.173,5.173,0,0,0,18.914,15.294Zm7.5-1.057a6.58,6.58,0,0,1,1.437-3.582,3.647,3.647,0,0,1,2.958-1.349,2.667,2.667,0,0,1,2.268,1.1l.325-.923,2.276.009-1.556,9.185A4.481,4.481,0,0,1,32.5,21.681a5.03,5.03,0,0,1-3.375,1.072,4.689,4.689,0,0,1-1.881-.426,4.022,4.022,0,0,1-1.477-1.121L27,19.694a2.642,2.642,0,0,0,2.074,1.081,2.436,2.436,0,0,0,1.652-.505,2.7,2.7,0,0,0,.932-1.525l.141-.571a3.092,3.092,0,0,1-2.329,1,2.732,2.732,0,0,1-2.206-1.033,4.44,4.44,0,0,1-.9-2.641A8.876,8.876,0,0,1,26.411,14.236Zm2.435,1.043a2.273,2.273,0,0,0,.347,1.325,1.215,1.215,0,0,0,1.006.524,2.219,2.219,0,0,0,1.793-.863l.738-4.031a1.458,1.458,0,0,0-1.4-.863,1.944,1.944,0,0,0-1.608.766,4.006,4.006,0,0,0-.826,2.1A9.241,9.241,0,0,0,28.846,15.279Z" transform="translate(380 3530)" fill="#12263f"/>
    <g id="Grupo_946821" data-name="Grupo 946821" transform="translate(15 -9)">
      <path id="Trazado_655101" data-name="Trazado 655101" d="M8.631,13.454h-4.9l-.6,3.428H8.895L8.525,19H.185L2.408,6.2h8.323l-.378,2.136H4.614l-.536,3.05H9Zm6.882,1.09H10.7l.352-2.048h4.825Zm10.415-.272a6.819,6.819,0,0,1-1.371,3.6,3.412,3.412,0,0,1-2.865,1.31,2.652,2.652,0,0,1-2.285-1.213L19.046,19H16.787L19.125,5.5h2.487l-.958,4.86a2.963,2.963,0,0,1,2.32-1.046,2.683,2.683,0,0,1,2.167.989,4.376,4.376,0,0,1,.839,2.685A10.274,10.274,0,0,1,25.928,14.271Zm-2.461-.185a7.373,7.373,0,0,0,.053-1.164q-.1-1.534-1.266-1.56a2.062,2.062,0,0,0-1.819,1l-.686,3.791a1.415,1.415,0,0,0,1.424.987q1.828.053,2.241-2.662Zm8.675-4.772a3.814,3.814,0,0,1,2.167.646,3.638,3.638,0,0,1,1.336,1.731,5.357,5.357,0,0,1,.3,2.448,5.786,5.786,0,0,1-1.578,3.669,4.455,4.455,0,0,1-3.4,1.367,3.8,3.8,0,0,1-2.145-.637,3.624,3.624,0,0,1-1.336-1.718,5.239,5.239,0,0,1-.308-2.426,5.957,5.957,0,0,1,1.6-3.744A4.363,4.363,0,0,1,32.142,9.314Zm-2.5,5.979a2.194,2.194,0,0,0,.4,1.33,1.314,1.314,0,0,0,1.063.5,1.926,1.926,0,0,0,1.793-1.049,5.227,5.227,0,0,0,.606-2.848,2.387,2.387,0,0,0-.409-1.347,1.293,1.293,0,0,0-1.068-.522,1.929,1.929,0,0,0-1.771,1.04A5.173,5.173,0,0,0,29.637,15.294ZM42.1,9.314a3.814,3.814,0,0,1,2.167.646A3.638,3.638,0,0,1,45.6,11.692a5.357,5.357,0,0,1,.3,2.448,5.786,5.786,0,0,1-1.578,3.669,4.455,4.455,0,0,1-3.4,1.367,3.8,3.8,0,0,1-2.145-.637A3.624,3.624,0,0,1,37.45,16.82a5.239,5.239,0,0,1-.308-2.426,5.957,5.957,0,0,1,1.6-3.744A4.363,4.363,0,0,1,42.1,9.314Zm-2.5,5.979a2.194,2.194,0,0,0,.4,1.33,1.314,1.314,0,0,0,1.063.5,1.926,1.926,0,0,0,1.793-1.049,5.227,5.227,0,0,0,.606-2.848,2.387,2.387,0,0,0-.409-1.347,1.293,1.293,0,0,0-1.068-.522,1.929,1.929,0,0,0-1.771,1.04A5.173,5.173,0,0,0,39.595,15.294Zm11.136-.082-1.151,1L49.1,19H46.617L48.955,5.5h2.487l-1.283,7.33.483-.519L53.464,9.49h3.182l-4.157,4.087L55.134,19H52.418Zm10.811,1.107q.141-.7-.976-1.02l-.8-.2q-2.839-.782-2.76-2.76A2.731,2.731,0,0,1,58.2,10.145a4.434,4.434,0,0,1,2.764-.831,3.978,3.978,0,0,1,2.6.853,2.809,2.809,0,0,1,1.011,2.224l-2.461-.009A1.084,1.084,0,0,0,60.9,11.143a1.745,1.745,0,0,0-1.006.29,1.194,1.194,0,0,0-.523.782q-.132.7,1.063.993l.352.079a7.071,7.071,0,0,1,1.854.664,2.8,2.8,0,0,1,.989.927,2.3,2.3,0,0,1,.321,1.327,2.533,2.533,0,0,1-.584,1.582,3.577,3.577,0,0,1-1.529,1.046,5.328,5.328,0,0,1-2.043.343,4.015,4.015,0,0,1-2.637-.91,2.933,2.933,0,0,1-1.072-2.307l2.338.018a1.285,1.285,0,0,0,1.459,1.38,2.076,2.076,0,0,0,1.129-.281A1.111,1.111,0,0,0,61.541,16.319Z" transform="translate(506.284 3539)" fill="#12263f"/>
    </g>
    <path id="Trazado_655106" data-name="Trazado 655106" d="M5.871,13.827,8.771,4.2h2.936L7.251,17H4.5L.062,4.2H2.988ZM15.425,17H12.876V7.49h2.549Zm-2.7-11.971a1.251,1.251,0,0,1,.382-.94A1.436,1.436,0,0,1,14.15,3.72a1.44,1.44,0,0,1,1.037.369,1.244,1.244,0,0,1,.387.94,1.247,1.247,0,0,1-.391.949,1.629,1.629,0,0,1-2.065,0A1.247,1.247,0,0,1,12.727,5.029Zm4.395,7.146a5.731,5.731,0,0,1,1-3.542,3.237,3.237,0,0,1,2.729-1.318,2.913,2.913,0,0,1,2.294,1.037V3.5H25.69V17H23.4l-.123-1.011a2.989,2.989,0,0,1-2.443,1.187,3.228,3.228,0,0,1-2.694-1.323A5.916,5.916,0,0,1,17.121,12.175Zm2.54.189a3.754,3.754,0,0,0,.466,2.051,1.517,1.517,0,0,0,1.354.713,1.7,1.7,0,0,0,1.661-.995V10.375A1.675,1.675,0,0,0,21.5,9.38Q19.661,9.38,19.661,12.364Zm12.375,4.812a4.668,4.668,0,0,1-3.406-1.283,4.561,4.561,0,0,1-1.314-3.419v-.246a5.745,5.745,0,0,1,.554-2.562,4.064,4.064,0,0,1,1.569-1.74,4.4,4.4,0,0,1,2.316-.611,3.947,3.947,0,0,1,3.072,1.23,5,5,0,0,1,1.121,3.489v1.037H29.892a2.36,2.36,0,0,0,.743,1.494,2.245,2.245,0,0,0,1.569.563A2.742,2.742,0,0,0,34.5,14.064l1.248,1.4A3.813,3.813,0,0,1,34.2,16.723,5.075,5.075,0,0,1,32.036,17.176Zm-.29-7.813a1.587,1.587,0,0,0-1.226.512,2.651,2.651,0,0,0-.6,1.466h3.533v-.2a1.891,1.891,0,0,0-.457-1.311A1.638,1.638,0,0,0,31.746,9.362Zm5.247,2.795a5.64,5.64,0,0,1,.545-2.522,3.989,3.989,0,0,1,1.569-1.714,4.577,4.577,0,0,1,2.377-.606,4.33,4.33,0,0,1,3.142,1.178,4.727,4.727,0,0,1,1.358,3.2l.018.65a4.97,4.97,0,0,1-1.222,3.511,4.735,4.735,0,0,1-6.561,0,5.058,5.058,0,0,1-1.226-3.586Zm2.54.18a3.555,3.555,0,0,0,.51,2.073,1.831,1.831,0,0,0,2.9.009,3.89,3.89,0,0,0,.519-2.267,3.519,3.519,0,0,0-.519-2.06,1.686,1.686,0,0,0-1.459-.731,1.658,1.658,0,0,0-1.441.726A3.955,3.955,0,0,0,39.533,12.338Zm13.184,2.035a.818.818,0,0,0-.461-.734,5.241,5.241,0,0,0-1.481-.479q-3.393-.712-3.393-2.883a2.613,2.613,0,0,1,1.05-2.114,4.237,4.237,0,0,1,2.747-.848,4.56,4.56,0,0,1,2.9.853,2.687,2.687,0,0,1,1.085,2.215H52.62a1.229,1.229,0,0,0-.352-.9,1.488,1.488,0,0,0-1.1-.356,1.52,1.52,0,0,0-.993.29.916.916,0,0,0-.352.738.783.783,0,0,0,.4.681,4.114,4.114,0,0,0,1.349.448,11.019,11.019,0,0,1,1.6.426,2.628,2.628,0,0,1,2.013,2.558,2.481,2.481,0,0,1-1.116,2.1,4.815,4.815,0,0,1-2.883.8,5.029,5.029,0,0,1-2.123-.426,3.561,3.561,0,0,1-1.455-1.169,2.716,2.716,0,0,1-.527-1.6h2.408a1.326,1.326,0,0,0,.5,1.037,1.987,1.987,0,0,0,1.248.36,1.839,1.839,0,0,0,1.1-.277A.861.861,0,0,0,52.717,14.372Z" transform="translate(870.851 3530)" fill="#12263f"/>
    <g id="Layer_2" data-name="Layer 2" transform="translate(820.717 3521.717)">
      <g id="Color" transform="translate(0.285 0.285)">
        <g id="_02.YouTube" data-name="02.YouTube" transform="translate(0 0)">
          <circle id="Background" cx="19" cy="19" r="19" transform="translate(-0.002 -0.002)" fill="#2b6e17"/>
          <g id="Shadow" transform="translate(10.324 12.893)">
            <path id="Trazado_655064" data-name="Trazado 655064" d="M70.823,66.866,65.46,69.978V63.74Z" transform="translate(-59.467 -60.753)" fill="url(#linear-gradient)"/>
            <path id="Trazado_655065" data-name="Trazado 655065" d="M69.539,61.875A19.351,19.351,0,0,1,54.391,77.063L41.9,64.572a3.816,3.816,0,0,0,2.358.806H56.912a3.849,3.849,0,0,0,3.839-3.851V54.684A3.836,3.836,0,0,0,59.667,52Z" transform="translate(-41.9 -52)" fill="url(#linear-gradient-2)"/>
          </g>
          <path id="Icon" d="M52.5,47.41H39.849A3.849,3.849,0,0,0,36,51.261V58.1a3.849,3.849,0,0,0,3.849,3.851H52.5A3.849,3.849,0,0,0,56.351,58.1V51.261A3.849,3.849,0,0,0,52.5,47.41ZM43.494,57.8V51.564l5.363,3.119Z" transform="translate(-27.177 -35.685)" fill="#f0f0f0"/>
        </g>
      </g>
    </g>
    <path id="Trazado_655105" data-name="Trazado 655105" d="M3.946,17H1.31V4.2H3.946ZM8.561,7.49l.079,1.1a3.32,3.32,0,0,1,2.733-1.274,2.759,2.759,0,0,1,2.25.888,4.142,4.142,0,0,1,.756,2.654V17h-2.54V10.918a1.648,1.648,0,0,0-.352-1.173,1.574,1.574,0,0,0-1.169-.365,1.747,1.747,0,0,0-1.608.914V17H6.17V7.49ZM17,17V9.354H15.583V7.49H17V6.682A3.283,3.283,0,0,1,17.917,4.2a3.557,3.557,0,0,1,2.571-.883,5.938,5.938,0,0,1,1.292.176L21.753,5.46a3.238,3.238,0,0,0-.773-.079q-1.433,0-1.433,1.345V7.49h1.89V9.354h-1.89V17Zm5.361-4.843A5.64,5.64,0,0,1,22.9,9.635a3.989,3.989,0,0,1,1.569-1.714,4.577,4.577,0,0,1,2.377-.606,4.33,4.33,0,0,1,3.142,1.178,4.727,4.727,0,0,1,1.358,3.2l.018.65a4.97,4.97,0,0,1-1.222,3.511,4.247,4.247,0,0,1-3.278,1.323,4.268,4.268,0,0,1-3.283-1.318,5.058,5.058,0,0,1-1.226-3.586Zm2.54.18a3.555,3.555,0,0,0,.51,2.073,1.831,1.831,0,0,0,2.9.009,3.89,3.89,0,0,0,.519-2.267,3.519,3.519,0,0,0-.519-2.06,1.686,1.686,0,0,0-1.459-.731,1.658,1.658,0,0,0-1.441.726A3.955,3.955,0,0,0,24.9,12.338Zm7.664-.163A5.573,5.573,0,0,1,33.6,8.65a3.375,3.375,0,0,1,2.808-1.336,2.96,2.96,0,0,1,2.435,1.072l.105-.9h2.3v9.193a4.064,4.064,0,0,1-.567,2.171,3.641,3.641,0,0,1-1.6,1.406,5.608,5.608,0,0,1-2.408.483,5.215,5.215,0,0,1-2.039-.417,3.619,3.619,0,0,1-1.5-1.077L34.269,17.7a2.975,2.975,0,0,0,2.3,1.063,2.178,2.178,0,0,0,1.573-.541,2.027,2.027,0,0,0,.563-1.534v-.51a2.938,2.938,0,0,1-2.312.993,3.366,3.366,0,0,1-2.773-1.34,5.572,5.572,0,0,1-1.059-3.555Zm2.54.189a3.47,3.47,0,0,0,.519,2.029,1.65,1.65,0,0,0,1.424.735,1.764,1.764,0,0,0,1.661-.871V10.251a1.76,1.76,0,0,0-1.644-.871,1.66,1.66,0,0,0-1.437.748A3.911,3.911,0,0,0,35.1,12.364ZM48.551,9.872a6.9,6.9,0,0,0-.914-.07,1.86,1.86,0,0,0-1.89.976V17h-2.54V7.49h2.4l.07,1.134a2.354,2.354,0,0,1,2.118-1.31,2.662,2.662,0,0,1,.791.114ZM55.02,17a2.821,2.821,0,0,1-.255-.853,3.073,3.073,0,0,1-2.4,1.028,3.376,3.376,0,0,1-2.316-.809,2.6,2.6,0,0,1-.918-2.039,2.687,2.687,0,0,1,1.121-2.32,5.529,5.529,0,0,1,3.239-.817h1.169v-.545a1.567,1.567,0,0,0-.338-1.055,1.331,1.331,0,0,0-1.068-.4,1.513,1.513,0,0,0-1.006.308,1.045,1.045,0,0,0-.365.844h-2.54a2.551,2.551,0,0,1,.51-1.529,3.37,3.37,0,0,1,1.441-1.1,5.253,5.253,0,0,1,2.092-.4,4.15,4.15,0,0,1,2.791.883,3.09,3.09,0,0,1,1.033,2.483V14.8a4.546,4.546,0,0,0,.378,2.048V17Zm-2.1-1.767a2.188,2.188,0,0,0,1.037-.25,1.645,1.645,0,0,0,.7-.672V12.676H53.71q-1.907,0-2.03,1.318l-.009.149a1.017,1.017,0,0,0,.334.782A1.3,1.3,0,0,0,52.919,15.233ZM59.854,17V9.354H58.438V7.49h1.415V6.682A3.283,3.283,0,0,1,60.772,4.2a3.557,3.557,0,0,1,2.571-.883,5.938,5.938,0,0,1,1.292.176L64.608,5.46a3.238,3.238,0,0,0-.773-.079q-1.433,0-1.433,1.345V7.49h1.89V9.354H62.4V17Zm8.5,0h-2.54V7.49h2.54ZM67.605,3.632h2.769L67.939,6.356H65.874ZM76.052,17a2.821,2.821,0,0,1-.255-.853,3.073,3.073,0,0,1-2.4,1.028,3.376,3.376,0,0,1-2.316-.809,2.6,2.6,0,0,1-.918-2.039,2.687,2.687,0,0,1,1.121-2.32,5.529,5.529,0,0,1,3.239-.817h1.169v-.545a1.567,1.567,0,0,0-.338-1.055,1.331,1.331,0,0,0-1.068-.4,1.513,1.513,0,0,0-1.006.308,1.045,1.045,0,0,0-.365.844h-2.54a2.551,2.551,0,0,1,.51-1.529,3.37,3.37,0,0,1,1.441-1.1,5.253,5.253,0,0,1,2.092-.4,4.15,4.15,0,0,1,2.791.883,3.09,3.09,0,0,1,1.033,2.483V14.8a4.546,4.546,0,0,0,.378,2.048V17Zm-2.1-1.767a2.188,2.188,0,0,0,1.037-.25,1.645,1.645,0,0,0,.7-.672V12.676h-.949q-1.907,0-2.03,1.318l-.009.149a1.017,1.017,0,0,0,.334.782A1.3,1.3,0,0,0,73.951,15.233Zm11.391-.861a.818.818,0,0,0-.461-.734,5.241,5.241,0,0,0-1.481-.479q-3.393-.712-3.393-2.883a2.613,2.613,0,0,1,1.05-2.114A4.237,4.237,0,0,1,83.8,7.314a4.56,4.56,0,0,1,2.9.853,2.687,2.687,0,0,1,1.085,2.215h-2.54a1.229,1.229,0,0,0-.352-.9,1.488,1.488,0,0,0-1.1-.356,1.52,1.52,0,0,0-.993.29.916.916,0,0,0-.352.738.783.783,0,0,0,.4.681,4.114,4.114,0,0,0,1.349.448,11.019,11.019,0,0,1,1.6.426,2.628,2.628,0,0,1,2.013,2.558,2.481,2.481,0,0,1-1.116,2.1,4.815,4.815,0,0,1-2.883.8,5.029,5.029,0,0,1-2.123-.426,3.561,3.561,0,0,1-1.455-1.169,2.716,2.716,0,0,1-.527-1.6h2.408a1.326,1.326,0,0,0,.5,1.037,1.987,1.987,0,0,0,1.248.36,1.839,1.839,0,0,0,1.1-.277A.861.861,0,0,0,85.342,14.372Z" transform="translate(1022.135 3530)" fill="#12263f"/>
    <g id="Layer_1_5_" transform="translate(958.36 3509.918)">
      <g id="Grupo_947425" data-name="Grupo 947425" transform="translate(14.075 14.082)">
        <path id="Trazado_655066" data-name="Trazado 655066" d="M43.3,17.55a4.253,4.253,0,0,1,3.277,4.116h0a4.251,4.251,0,0,1-3.536,4.168A8.265,8.265,0,0,0,36.561,29.3a8.089,8.089,0,0,0-5.706-2.355h0a8.038,8.038,0,0,0-2.7.465A16.561,16.561,0,0,1,43.3,17.55Z" transform="translate(-26.278 -17.088)" fill="#77ae43" fill-rule="evenodd"/>
        <path id="Trazado_655067" data-name="Trazado 655067" d="M25.825,120.679a8.263,8.263,0,0,0,3.464,6.485,8.088,8.088,0,0,0-2.357,5.7h0a8.1,8.1,0,0,0,.465,2.7,16.561,16.561,0,0,1-9.857-15.145h0a4.257,4.257,0,0,1,1.134-2.035,4.213,4.213,0,0,1,2.982-1.242h0a4.253,4.253,0,0,1,4.169,3.532Z" transform="translate(-17.078 -103.405)" fill="#2b6e17" fill-rule="evenodd"/>
        <path id="Trazado_655068" data-name="Trazado 655068" d="M179.7,28.148a16.561,16.561,0,0,1,9.857,15.145h0a4.261,4.261,0,0,1-1.134,2.035,4.213,4.213,0,0,1-2.982,1.242h0a4.253,4.253,0,0,1-4.169-3.532,8.262,8.262,0,0,0-3.464-6.485,8.089,8.089,0,0,0,2.357-5.7h0A8.091,8.091,0,0,0,179.7,28.148Z" transform="translate(-155.975 -26.273)" fill="#2b6e17" fill-rule="evenodd"/>
        <path id="Trazado_655069" data-name="Trazado 655069" d="M135.562,179.705a16.557,16.557,0,0,1-15.142,9.858h0a4.251,4.251,0,0,1-3.278-4.116h0a4.25,4.25,0,0,1,3.535-4.167,8.265,8.265,0,0,0,6.481-3.464,8.093,8.093,0,0,0,5.706,2.355h0a8.018,8.018,0,0,0,2.7-.465Z" transform="translate(-103.397 -155.984)" fill="#77ae43" fill-rule="evenodd"/>
        <path id="Trazado_655070" data-name="Trazado 655070" d="M18.653,23.474A8.506,8.506,0,0,1,24.3,25.606a8.67,8.67,0,0,1,6.493-3.238,3.765,3.765,0,0,0,.252-7.361,16.118,16.118,0,0,0-14.23,8.668A8.526,8.526,0,0,1,18.653,23.474Zm5.706,3.279a.461.461,0,0,1-.326-.133,7.621,7.621,0,0,0-7.927-1.783.462.462,0,0,1-.577-.622A17.041,17.041,0,0,1,31.1,14.083h0a.438.438,0,0,1,.1.012,4.688,4.688,0,0,1-.287,9.189.439.439,0,0,1-.059.006,7.757,7.757,0,0,0-6.12,3.271.465.465,0,0,1-.338.192Zm23.3,4.35h0Zm-7.823-.3a3.753,3.753,0,0,0,6.36,2.009,3.785,3.785,0,0,0,1-1.763,16.119,16.119,0,0,0-8.67-14.23,8.535,8.535,0,0,1-1.931,7.486A8.666,8.666,0,0,1,39.832,30.8Zm3.707,4.04a4.7,4.7,0,0,1-4.622-3.917.453.453,0,0,1-.009-.062,7.76,7.76,0,0,0-3.269-6.123.457.457,0,0,1-.193-.337.462.462,0,0,1,.13-.364,7.62,7.62,0,0,0,1.786-7.927.462.462,0,0,1,.622-.577A17.039,17.039,0,0,1,48.117,31.1a.622.622,0,0,1-.012.105,4.706,4.706,0,0,1-1.258,2.257,4.649,4.649,0,0,1-3.307,1.377ZM15,31.155a16.12,16.12,0,0,0,8.669,14.23A8.535,8.535,0,0,1,25.6,37.9a8.665,8.665,0,0,1-3.239-6.5A3.765,3.765,0,0,0,15,31.155Zm9.395,15.554a.462.462,0,0,1-.187-.039A17.041,17.041,0,0,1,14.075,31.1.617.617,0,0,1,14.087,31a4.705,4.705,0,0,1,1.258-2.257,4.689,4.689,0,0,1,7.932,2.54c0,.02,0,.041.006.063a7.762,7.762,0,0,0,3.269,6.123.455.455,0,0,1,.193.337.461.461,0,0,1-.13.364,7.62,7.62,0,0,0-1.785,7.927.46.46,0,0,1-.121.494A.455.455,0,0,1,24.394,46.709ZM31.4,39.837a3.765,3.765,0,0,0-.252,7.362,16.119,16.119,0,0,0,14.23-8.668A8.548,8.548,0,0,1,37.893,36.6,8.667,8.667,0,0,1,31.4,39.837Zm-.3,8.285a.466.466,0,0,1-.107-.012,4.688,4.688,0,0,1,.284-9.189.393.393,0,0,1,.062-.006,7.76,7.76,0,0,0,6.12-3.271.463.463,0,0,1,.7-.059,7.622,7.622,0,0,0,7.926,1.783.462.462,0,0,1,.577.622A17.038,17.038,0,0,1,31.1,48.122Z" transform="translate(-14.075 -14.082)" fill-rule="evenodd"/>
      </g>
    </g>
    <g id="Grupo_946824" data-name="Grupo 946824" transform="translate(17 -9)">
      <path id="Trazado_655104" data-name="Trazado 655104" d="M3.551,14.491,2.76,19H.185L2.408,6.2l4.482.009a4.484,4.484,0,0,1,3.261,1.151,3.57,3.57,0,0,1,1.037,3.006A4.041,4.041,0,0,1,9.62,13.375,5.709,5.709,0,0,1,5.977,14.5Zm.36-2.136,2.145.018a2.711,2.711,0,0,0,1.723-.536,2.157,2.157,0,0,0,.817-1.45A1.852,1.852,0,0,0,8.3,8.928a1.6,1.6,0,0,0-1.261-.58L4.614,8.339ZM16.7,9.314a3.814,3.814,0,0,1,2.167.646A3.638,3.638,0,0,1,20.2,11.692a5.357,5.357,0,0,1,.3,2.448,5.786,5.786,0,0,1-1.578,3.669,4.455,4.455,0,0,1-3.4,1.367,3.8,3.8,0,0,1-2.145-.637A3.624,3.624,0,0,1,12.05,16.82a5.239,5.239,0,0,1-.308-2.426,5.957,5.957,0,0,1,1.6-3.744A4.363,4.363,0,0,1,16.7,9.314Zm-2.5,5.979a2.194,2.194,0,0,0,.4,1.33,1.314,1.314,0,0,0,1.063.5,1.926,1.926,0,0,0,1.793-1.049,5.227,5.227,0,0,0,.606-2.848,2.387,2.387,0,0,0-.409-1.347,1.293,1.293,0,0,0-1.068-.522,1.929,1.929,0,0,0-1.771,1.04A5.173,5.173,0,0,0,14.194,15.294ZM25.937,9.306a2.706,2.706,0,0,1,2.145,1.063L29.013,5.5H31.5L29.162,19H26.947l.141-1.02a3.078,3.078,0,0,1-2.479,1.2,2.738,2.738,0,0,1-1.556-.466A2.933,2.933,0,0,1,22.021,17.4a5.292,5.292,0,0,1-.4-1.912,7.2,7.2,0,0,1,.026-1.072l.053-.4a7.613,7.613,0,0,1,.813-2.566A4.237,4.237,0,0,1,23.99,9.815,3.481,3.481,0,0,1,25.937,9.306Zm-1.8,5.115a7.118,7.118,0,0,0-.044,1.125q.088,1.547,1.248,1.573a2.121,2.121,0,0,0,1.819-.984l.677-3.779a1.4,1.4,0,0,0-1.371-.984,1.806,1.806,0,0,0-1.507.7A4.7,4.7,0,0,0,24.135,14.421Zm11.171,2.716a1.628,1.628,0,0,0,1.143-.374,1.836,1.836,0,0,0,.6-1.042l2.329-.009a3.416,3.416,0,0,1-.628,1.8,3.818,3.818,0,0,1-1.512,1.248,4.327,4.327,0,0,1-1.991.422,3.514,3.514,0,0,1-2.742-1.2,4.461,4.461,0,0,1-.976-3.111l.026-.483.009-.1a5.945,5.945,0,0,1,1.564-3.678A4.231,4.231,0,0,1,36.4,9.314a3.428,3.428,0,0,1,2.553,1.05,3.71,3.71,0,0,1,.927,2.676H37.573a1.947,1.947,0,0,0-.334-1.2,1.269,1.269,0,0,0-1-.475q-1.775-.053-2.153,2.593a8.755,8.755,0,0,0-.1,1.617Q34.075,17.11,35.306,17.137ZM45.835,19a2.566,2.566,0,0,1-.1-.861,3.221,3.221,0,0,1-2.426,1.037,2.919,2.919,0,0,1-2.07-.813,2.46,2.46,0,0,1-.769-1.964,2.843,2.843,0,0,1,1.305-2.386,5.924,5.924,0,0,1,3.335-.831l1.16.018.123-.571a1.984,1.984,0,0,0,.026-.554.952.952,0,0,0-.312-.646,1.075,1.075,0,0,0-.708-.242,1.514,1.514,0,0,0-.984.286,1.384,1.384,0,0,0-.519.875l-2.487.009a2.764,2.764,0,0,1,1.252-2.21,4.851,4.851,0,0,1,2.94-.831,3.507,3.507,0,0,1,2.531.962,2.816,2.816,0,0,1,.765,2.386l-.729,4.553-.044.563a2.714,2.714,0,0,0,.149,1.055L48.27,19Zm-1.907-1.749a2.27,2.27,0,0,0,1.872-.932l.308-1.644-.861-.009a2.406,2.406,0,0,0-1.978.835,1.454,1.454,0,0,0-.272.712.844.844,0,0,0,.2.751A1,1,0,0,0,43.928,17.251Zm11.364-.932q.141-.7-.976-1.02l-.8-.2q-2.839-.782-2.76-2.76a2.731,2.731,0,0,1,1.191-2.193,4.434,4.434,0,0,1,2.764-.831,3.978,3.978,0,0,1,2.6.853,2.809,2.809,0,0,1,1.011,2.224l-2.461-.009a1.084,1.084,0,0,0-1.213-1.239,1.745,1.745,0,0,0-1.006.29,1.194,1.194,0,0,0-.523.782q-.132.7,1.063.993l.352.079a7.071,7.071,0,0,1,1.854.664,2.8,2.8,0,0,1,.989.927,2.3,2.3,0,0,1,.321,1.327,2.533,2.533,0,0,1-.584,1.582,3.577,3.577,0,0,1-1.529,1.046,5.328,5.328,0,0,1-2.043.343,4.015,4.015,0,0,1-2.637-.91,2.933,2.933,0,0,1-1.072-2.307l2.338.018a1.285,1.285,0,0,0,1.459,1.38,2.076,2.076,0,0,0,1.129-.281A1.111,1.111,0,0,0,55.292,16.319ZM63.87,7.152,63.457,9.49h1.582l-.325,1.863H63.132l-.809,4.764a1.211,1.211,0,0,0,.07.686q.123.237.6.255.141.009.756-.044l-.176,1.942a4.169,4.169,0,0,1-1.424.2,2.234,2.234,0,0,1-1.819-.765,2.763,2.763,0,0,1-.492-2.021l.817-5.019H59.309l.325-1.863h1.345l.4-2.338Zm6.469,9.167q.141-.7-.976-1.02l-.8-.2q-2.839-.782-2.76-2.76a2.731,2.731,0,0,1,1.191-2.193,4.434,4.434,0,0,1,2.764-.831,3.978,3.978,0,0,1,2.6.853,2.809,2.809,0,0,1,1.011,2.224l-2.461-.009A1.084,1.084,0,0,0,69.7,11.143a1.745,1.745,0,0,0-1.006.29,1.194,1.194,0,0,0-.523.782q-.132.7,1.063.993l.352.079a7.071,7.071,0,0,1,1.854.664,2.8,2.8,0,0,1,.989.927,2.3,2.3,0,0,1,.321,1.327,2.533,2.533,0,0,1-.584,1.582,3.577,3.577,0,0,1-1.529,1.046,5.328,5.328,0,0,1-2.043.343,4.015,4.015,0,0,1-2.637-.91,2.933,2.933,0,0,1-1.072-2.307l2.338.018a1.285,1.285,0,0,0,1.459,1.38,2.076,2.076,0,0,0,1.129-.281A1.111,1.111,0,0,0,70.339,16.319Z" transform="translate(1188.419 3539)" fill="#12263f"/>
    </g>
    <g id="Grupo_946825" data-name="Grupo 946825" transform="translate(24 -9)">
      <path id="Trazado_655103" data-name="Trazado 655103" d="M10.3,19H7.8l-3.56-8.534L2.76,19H.185L2.408,6.2H4.9l3.568,8.552L9.949,6.2h2.566Zm6.662.176a4.137,4.137,0,0,1-2.21-.611,3.7,3.7,0,0,1-1.437-1.652,4.605,4.605,0,0,1-.369-2.316l.026-.352a6.148,6.148,0,0,1,.809-2.549,4.884,4.884,0,0,1,1.74-1.789,4.306,4.306,0,0,1,2.355-.593,3.29,3.29,0,0,1,2.782,1.351A4.631,4.631,0,0,1,21.375,14l-.141,1.083H15.407a2.041,2.041,0,0,0,.448,1.477,1.711,1.711,0,0,0,1.318.571,3.041,3.041,0,0,0,2.373-1.055l1.134,1.406a3.527,3.527,0,0,1-1.547,1.261A5.059,5.059,0,0,1,16.963,19.176Zm.791-7.813a1.761,1.761,0,0,0-1.217.431,3.784,3.784,0,0,0-.954,1.556h3.41l.053-.229a2.33,2.33,0,0,0,.009-.668,1.276,1.276,0,0,0-.431-.8A1.35,1.35,0,0,0,17.754,11.362ZM30.56,15.537,32.818,9.49h2.47l-4,9.51H29.215l-.7-5.95L25.734,19H23.66l-.7-9.51h2.32l.149,5.985L28.143,9.49h1.793Zm9.844.782q.141-.7-.976-1.02l-.8-.2q-2.839-.782-2.76-2.76a2.731,2.731,0,0,1,1.191-2.193,4.434,4.434,0,0,1,2.764-.831,3.978,3.978,0,0,1,2.6.853,2.809,2.809,0,0,1,1.011,2.224l-2.461-.009a1.084,1.084,0,0,0-1.213-1.239,1.745,1.745,0,0,0-1.006.29,1.194,1.194,0,0,0-.523.782q-.132.7,1.063.993l.352.079a7.071,7.071,0,0,1,1.854.664,2.8,2.8,0,0,1,.989.927,2.3,2.3,0,0,1,.321,1.327,2.533,2.533,0,0,1-.584,1.582A3.577,3.577,0,0,1,40.7,18.833a5.328,5.328,0,0,1-2.043.343,4.015,4.015,0,0,1-2.637-.91,2.933,2.933,0,0,1-1.072-2.307l2.338.018a1.285,1.285,0,0,0,1.459,1.38,2.076,2.076,0,0,0,1.129-.281A1.111,1.111,0,0,0,40.4,16.319ZM46.573,19h-2.5L46.424,5.5h2.487Zm6.618.176a4.137,4.137,0,0,1-2.21-.611,3.7,3.7,0,0,1-1.437-1.652,4.605,4.605,0,0,1-.369-2.316l.026-.352A6.148,6.148,0,0,1,50.01,11.7a4.884,4.884,0,0,1,1.74-1.789,4.306,4.306,0,0,1,2.355-.593,3.29,3.29,0,0,1,2.782,1.351A4.631,4.631,0,0,1,57.6,14l-.141,1.083H51.636a2.041,2.041,0,0,0,.448,1.477,1.711,1.711,0,0,0,1.318.571,3.041,3.041,0,0,0,2.373-1.055l1.134,1.406a3.527,3.527,0,0,1-1.547,1.261A5.059,5.059,0,0,1,53.191,19.176Zm.791-7.813a1.761,1.761,0,0,0-1.217.431,3.784,3.784,0,0,0-.954,1.556h3.41l.053-.229a2.33,2.33,0,0,0,.009-.668,1.276,1.276,0,0,0-.431-.8A1.35,1.35,0,0,0,53.982,11.362Zm9.246-4.21L62.815,9.49H64.4l-.325,1.863H62.49l-.809,4.764a1.211,1.211,0,0,0,.07.686q.123.237.6.255.141.009.756-.044l-.176,1.942a4.169,4.169,0,0,1-1.424.2,2.234,2.234,0,0,1-1.819-.765,2.763,2.763,0,0,1-.492-2.021l.817-5.019H58.667l.325-1.863h1.345l.4-2.338Zm5.985,0L68.8,9.49h1.582l-.325,1.863H68.476l-.809,4.764a1.211,1.211,0,0,0,.07.686q.123.237.6.255.141.009.756-.044l-.176,1.942a4.169,4.169,0,0,1-1.424.2,2.234,2.234,0,0,1-1.819-.765,2.763,2.763,0,0,1-.492-2.021L66,11.354H64.652l.325-1.863h1.345l.4-2.338Zm5.476,12.023a4.137,4.137,0,0,1-2.21-.611,3.7,3.7,0,0,1-1.437-1.652,4.605,4.605,0,0,1-.369-2.316l.026-.352a6.148,6.148,0,0,1,.809-2.549,4.884,4.884,0,0,1,1.74-1.789A4.306,4.306,0,0,1,75.6,9.314a3.29,3.29,0,0,1,2.782,1.351A4.631,4.631,0,0,1,79.1,14l-.141,1.083H73.134a2.041,2.041,0,0,0,.448,1.477,1.711,1.711,0,0,0,1.318.571,3.041,3.041,0,0,0,2.373-1.055l1.134,1.406a3.527,3.527,0,0,1-1.547,1.261A5.059,5.059,0,0,1,74.689,19.176Zm.791-7.813a1.761,1.761,0,0,0-1.217.431,3.784,3.784,0,0,0-.954,1.556h3.41l.053-.229a2.33,2.33,0,0,0,.009-.668,1.276,1.276,0,0,0-.431-.8A1.35,1.35,0,0,0,75.48,11.362Zm10.731.51a5.117,5.117,0,0,0-.835-.088,2.4,2.4,0,0,0-2.1.993L82.178,19H79.7l1.652-9.51,2.329-.009-.229,1.16A2.615,2.615,0,0,1,85.667,9.3a3.615,3.615,0,0,1,.861.123Z" transform="translate(663.567 3539)" fill="#12263f"/>
    </g>
    <g id="_13._Newsletter" data-name="13. Newsletter" transform="translate(610.917 3524.459)">
      <path id="Trazado_654996" data-name="Trazado 654996" d="M40,200H67.161v19.113H40Z" transform="translate(-7.497 -187.426)" fill="#2b6e17"/>
      <path id="Trazado_654997" data-name="Trazado 654997" d="M40,480H67.161v1.509H40Z" transform="translate(-7.497 -449.821)" fill="#1a5615"/>
      <path id="Trazado_654998" data-name="Trazado 654998" d="M59.664,212.119H32.5a.5.5,0,0,1-.5-.5V208.1a.5.5,0,0,1,1.006,0v3.018H59.161V193.006H33.006v13.077a.5.5,0,1,1-1.006,0V192.5a.5.5,0,0,1,.5-.5H59.664a.5.5,0,0,1,.5.5v19.113A.5.5,0,0,1,59.664,212.119Z" transform="translate(0 -179.929)"/>
      <path id="Trazado_654999" data-name="Trazado 654999" d="M67.161,42.563,53.58,53.125,40,42.563,53.58,32Z" transform="translate(-7.497 -29.988)" fill="#256718"/>
      <path id="Trazado_655000" data-name="Trazado 655000" d="M53.58,193.557,41.293,184,40,185.006l13.58,10.563,13.58-10.563L65.868,184Z" transform="translate(-7.497 -172.431)" fill="#1a5615"/>
      <path id="Trazado_655001" data-name="Trazado 655001" d="M45.782,46.03,32.2,35.468a.5.5,0,0,1,0-.793l13.58-10.563a.5.5,0,0,1,.617,0l10.06,7.823a.5.5,0,1,1-.617.794l-9.751-7.584L33.328,35.071,46.091,45l12.763-9.926-1-.776a.5.5,0,0,1,.616-.8l1.509,1.174a.5.5,0,0,1,0,.793L46.4,46.029A.5.5,0,0,1,45.782,46.03Z" transform="translate(-0.007 -22.497)"/>
      <path id="Trazado_655002" data-name="Trazado 655002" d="M108.119,8V22.81L98.06,30.634,88,22.81V8Z" transform="translate(-52.479 -7.497)" fill="#b7ceac"/>
      <path id="Trazado_655003" data-name="Trazado 655003" d="M116.119,211.56v2.012L106.06,221.4,96,213.572V211.56l10.06,7.824Z" transform="translate(-59.976 -198.259)" fill="#87a679"/>
      <path id="Trazado_655004" data-name="Trazado 655004" d="M98.254,23.534l-10.06-7.823a.5.5,0,0,1-.194-.4V.5a.5.5,0,0,1,.5-.5h20.119a.5.5,0,0,1,.5.5v14.81a.5.5,0,0,1-.194.4l-10.06,7.823A.5.5,0,0,1,98.254,23.534Zm-9.248-8.466L98.563,22.5l9.557-7.433V1.006H89.006Z" transform="translate(-52.479 0)"/>
      <path id="Trazado_655005" data-name="Trazado 655005" d="M246.036,56v8.048A8.5,8.5,0,0,0,240,61.533c0-3.108.006-3.018,0-3.018A8.5,8.5,0,0,0,246.036,56Z" transform="translate(-194.923 -52.479)" fill="#f6f6f6"/>
      <path id="Trazado_655006" data-name="Trazado 655006" d="M240,120v1.509a8.5,8.5,0,0,1,6.036,2.515v-1.509A8.5,8.5,0,0,0,240,120Z" transform="translate(-194.923 -112.455)" fill="#dcdcdc"/>
      <path id="Trazado_655007" data-name="Trazado 655007" d="M238.184,56.91a7.948,7.948,0,0,0-5.681-2.368.5.5,0,0,1-.5-.5V51.021a.5.5,0,0,1,.5-.5,7.946,7.946,0,0,0,5.681-2.368.5.5,0,0,1,.858.356v8.048a.5.5,0,0,1-.858.356Zm-5.178-3.36a8.92,8.92,0,0,1,5.03,1.886V49.625a8.917,8.917,0,0,1-5.03,1.886Z" transform="translate(-187.426 -44.985)"/>
      <path id="Trazado_655008" data-name="Trazado 655008" d="M328.5,50.06a.5.5,0,0,1-.5-.5V40.5a.5.5,0,1,1,1.006,0v9.054A.5.5,0,0,1,328.5,50.06Z" transform="translate(-277.39 -37.485)"/>
      <rect id="Rectángulo_336154" data-name="Rectángulo 336154" width="2.409" height="3.613" rx="1.204" transform="translate(42.47 5.256)" fill="#2b6e17"/>
      <path id="Trazado_655009" data-name="Trazado 655009" d="M194.515,120.5H192.5a.5.5,0,0,1-.5-.5v1.509a.5.5,0,0,0,.5.5h2.012a.5.5,0,0,0,.5-.5V120A.5.5,0,0,1,194.515,120.5Z" transform="translate(-149.94 -112.455)" fill="#1a5615"/>
      <path id="Trazado_655010" data-name="Trazado 655010" d="M187.018,85.03h-2.012A1.006,1.006,0,0,1,184,84.024V81.006A1.006,1.006,0,0,1,185.006,80h2.012a1.006,1.006,0,0,1,1.006,1.006v3.018A1.006,1.006,0,0,1,187.018,85.03Zm-2.012-4.024v3.018h2.012V81.006Z" transform="translate(-142.443 -74.97)"/>
      <path id="Trazado_655011" data-name="Trazado 655011" d="M200,152l.5,2.515h1.509V152Z" transform="translate(-157.437 -142.443)" fill="#f6f6f6"/>
      <path id="Trazado_655012" data-name="Trazado 655012" d="M194.519,147.521H193.01a.5.5,0,0,1-.493-.4l-.5-2.515a.5.5,0,0,1,.493-.6h2.012a.5.5,0,0,1,.5.5v2.515A.5.5,0,0,1,194.519,147.521Zm-1.1-1.006h.594v-1.509h-.9Z" transform="translate(-149.945 -134.946)"/>
      <path id="Trazado_655013" data-name="Trazado 655013" d="M161.509,99.018h.5V96h-.5a1.509,1.509,0,1,0,0,3.018Z" transform="translate(-119.952 -89.964)" fill="#f6f6f6"/>
      <path id="Trazado_655014" data-name="Trazado 655014" d="M160.207,108a1.509,1.509,0,0,0,1.306,2.263h.5v-1.509h-.5a1.509,1.509,0,0,1-1.306-.754Z" transform="translate(-119.957 -101.21)" fill="#dcdcdc"/>
      <path id="Trazado_655015" data-name="Trazado 655015" d="M154.515,92.024h-.5a2.012,2.012,0,0,1,0-4.024h.5a.5.5,0,0,1,.5.5v3.018A.5.5,0,0,1,154.515,92.024Zm-.5-3.018a1.006,1.006,0,0,0,0,2.012Z" transform="translate(-112.455 -82.467)"/>
      <path id="Trazado_655016" data-name="Trazado 655016" d="M179.066,225.006H168.5a.5.5,0,0,1,0-1.006h10.563a.5.5,0,0,1,0,1.006Z" transform="translate(-127.449 -209.917)"/>
      <path id="Trazado_655017" data-name="Trazado 655017" d="M192.551,265.006H184.5a.5.5,0,1,1,0-1.006h8.048a.5.5,0,0,1,0,1.006Z" transform="translate(-142.443 -247.402)"/>
      <path id="Trazado_655018" data-name="Trazado 655018" d="M67.161,346.563H40L53.58,336Z" transform="translate(-7.497 -314.875)" fill="#1a5615"/>
      <path id="Trazado_655019" data-name="Trazado 655019" d="M41.94,480,40,481.509H67.161L65.221,480Z" transform="translate(-7.497 -449.821)" fill="#11440f"/>
      <path id="Trazado_655020" data-name="Trazado 655020" d="M59.671,339.574H32.51a.5.5,0,0,1-.309-.9l13.58-10.563a.5.5,0,0,1,.617,0l13.58,10.563a.5.5,0,0,1-.309.9Zm-25.695-1.006H58.2L46.09,329.146Z" transform="translate(-0.007 -307.383)"/>
    </g>
    <g id="blog_1_" data-name="blog (1)" transform="translate(312.195 3526.999)">
      <g id="Grupo_947410" data-name="Grupo 947410" transform="translate(19.351 0.342)">
        <g id="Grupo_947398" data-name="Grupo 947398" transform="translate(0)">
          <path id="Trazado_655021" data-name="Trazado 655021" d="M25.432,5.467H49.177a.694.694,0,0,1,.693.693V36.091a.7.7,0,0,1-.693.693H25.432a.7.7,0,0,1-.693-.693V6.16a.694.694,0,0,1,.693-.693Z" transform="translate(-24.739 -5.467)" fill="#b7ceac" fill-rule="evenodd"/>
        </g>
        <g id="Grupo_947399" data-name="Grupo 947399" transform="translate(22.138 4.894)">
          <path id="Trazado_655022" data-name="Trazado 655022" d="M379.624,83.772V109.5a.7.7,0,0,1-.693.693h2.3a.7.7,0,0,0,.693-.693V83.772Z" transform="translate(-378.931 -83.772)" fill="#a8b7a3" fill-rule="evenodd"/>
        </g>
        <g id="Grupo_947400" data-name="Grupo 947400" transform="translate(0 0)">
          <path id="Trazado_655023" data-name="Trazado 655023" d="M24.739,10.361H49.87V6.16a.694.694,0,0,0-.693-.693H25.432a.694.694,0,0,0-.693.693Z" transform="translate(-24.739 -5.467)" fill="#2b6e17" fill-rule="evenodd"/>
        </g>
        <g id="Grupo_947401" data-name="Grupo 947401" transform="translate(22.138 0)">
          <path id="Trazado_655024" data-name="Trazado 655024" d="M379.624,6.16v4.2h2.3V6.16a.694.694,0,0,0-.693-.693h-2.3A.694.694,0,0,1,379.624,6.16Z" transform="translate(-378.931 -5.467)" fill="#1a5615" fill-rule="evenodd"/>
        </g>
        <g id="Grupo_947402" data-name="Grupo 947402" transform="translate(18.179 24.633)">
          <path id="Trazado_655025" data-name="Trazado 655025" d="M317.843,400.623l-.9-1.031-1.175.045-.168,2.579a.2.2,0,0,0,.347.164Z" transform="translate(-315.603 -399.592)" fill="#9c9c9c" fill-rule="evenodd"/>
        </g>
        <g id="Grupo_947403" data-name="Grupo 947403" transform="translate(18.513 9.701)">
          <path id="Trazado_655026" data-name="Trazado 655026" d="M326.841,160.677l-5.894,12.4,1.67,1.534,2.131.271,5.894-12.4Z" transform="translate(-320.947 -160.677)" fill="#2b6e17" fill-rule="evenodd"/>
        </g>
        <g id="Grupo_947404" data-name="Grupo 947404" transform="translate(24.134 7.753)">
          <path id="Trazado_655027" data-name="Trazado 655027" d="M410.881,132.041l3.8,1.808.857-1.8a1.4,1.4,0,0,0-.754-1.818l-.581-.277-.581-.277a1.4,1.4,0,0,0-1.886.564Z" transform="translate(-410.881 -129.518)" fill="#f6f6f6" fill-rule="evenodd"/>
        </g>
        <g id="Grupo_947405" data-name="Grupo 947405" transform="translate(26.608 7.872)">
          <path id="Trazado_655028" data-name="Trazado 655028" d="M450.647,131.412a1.389,1.389,0,0,1,.672,1.777l-.857,1.8,1.327.631.857-1.8a1.4,1.4,0,0,0-.754-1.818l-.581-.277-.581-.277C450.7,131.435,450.675,131.423,450.647,131.412Z" transform="translate(-450.461 -131.412)" fill="#dcdcdc" fill-rule="evenodd"/>
        </g>
        <g id="Grupo_947406" data-name="Grupo 947406" transform="translate(20.989 11.453)">
          <path id="Trazado_655029" data-name="Trazado 655029" d="M366.175,188.712l-5.619,11.821,1.325.631,5.621-11.821Z" transform="translate(-360.556 -188.712)" fill="#1a5615" fill-rule="evenodd"/>
        </g>
        <g id="Grupo_947407" data-name="Grupo 947407" transform="translate(18.179 25.034)">
          <path id="Trazado_655030" data-name="Trazado 655030" d="M317.842,406.625l-1.325-.63-.82.759-.095,1.465a.2.2,0,0,0,.346.164Z" transform="translate(-315.602 -405.994)" fill="#838383" fill-rule="evenodd"/>
        </g>
        <g id="Grupo_947408" data-name="Grupo 947408" transform="translate(18.347 22.099)">
          <path id="Trazado_655031" data-name="Trazado 655031" d="M322.256,360.846l-3.8-1.806-.166,2.579,2.072.986Z" transform="translate(-318.289 -359.04)" fill="#fcd79f" fill-rule="evenodd"/>
        </g>
        <g id="Grupo_947409" data-name="Grupo 947409" transform="translate(19.094 23.274)">
          <path id="Trazado_655032" data-name="Trazado 655032" d="M333.455,378.475l-1.325-.63-1.9,1.759,1.325.63Z" transform="translate(-330.235 -377.844)" fill="#fac574" fill-rule="evenodd"/>
        </g>
      </g>
      <g id="Grupo_947411" data-name="Grupo 947411" transform="translate(18.992 0)">
        <path id="Trazado_655033" data-name="Trazado 655033" d="M96.282,143.612a1.342,1.342,0,0,0-1.341-1.34H93.889a.65.65,0,0,0-.65.649v3.441a.65.65,0,0,0,.65.649h1.533a1.342,1.342,0,0,0,1.341-1.34v-.158a1.339,1.339,0,0,0-.629-1.134,1.331,1.331,0,0,0,.148-.61Zm-2.106-.4h.765a.4.4,0,0,1,.4.4v.158a.409.409,0,0,1-.4.4h-.765Zm1.649,2.462a.4.4,0,0,1-.4.4H94.177v-.964h1.245a.4.4,0,0,1,.4.4v.158Z" transform="translate(-88.598 -133.38)"/>
        <path id="Trazado_655034" data-name="Trazado 655034" d="M230.386,147.011a1.656,1.656,0,0,0,1.655-1.654v-1.432a1.656,1.656,0,0,0-1.655-1.654h-.214a1.656,1.656,0,0,0-1.655,1.654v1.432a1.656,1.656,0,0,0,1.655,1.654Zm-.932-1.654v-1.432a.718.718,0,0,1,.717-.716h.214a.718.718,0,0,1,.717.716v1.432a.718.718,0,0,1-.717.717h-.214A.718.718,0,0,1,229.455,145.357Z" transform="translate(-215.421 -133.379)"/>
        <path id="Trazado_655035" data-name="Trazado 655035" d="M166.451,142.271a.469.469,0,0,0-.469.469v3.8a.469.469,0,0,0,.469.469h2.269a.469.469,0,1,0,0-.938h-1.8V142.74A.469.469,0,0,0,166.451,142.271Z" transform="translate(-156.795 -133.379)"/>
        <path id="Trazado_655036" data-name="Trazado 655036" d="M325.212,40.536a.469.469,0,0,0-.469.469v.005a.469.469,0,1,0,.469-.474Z" transform="translate(-305.633 -38.002)"/>
        <path id="Trazado_655037" data-name="Trazado 655037" d="M286.67,40.422a.469.469,0,0,0-.469.469V40.9a.469.469,0,0,0,.938,0v-.007A.469.469,0,0,0,286.67,40.422Z" transform="translate(-269.5 -37.896)"/>
        <path id="Trazado_655038" data-name="Trazado 655038" d="M363.753,40.734a.469.469,0,0,0-.469.469v.007a.469.469,0,0,0,.938,0V41.2A.469.469,0,0,0,363.753,40.734Z" transform="translate(-341.765 -38.188)"/>
        <path id="Trazado_655039" data-name="Trazado 655039" d="M86.882,40.621H76.635a.469.469,0,1,0,0,.938H86.882a.469.469,0,0,0,0-.938Z" transform="translate(-72.593 -38.082)"/>
        <path id="Trazado_655040" data-name="Trazado 655040" d="M299.663,143.209h1.521a.469.469,0,0,0,0-.938h-1.521a1.333,1.333,0,0,0-1.323,1.4v2.089a1.257,1.257,0,0,0,1.247,1.252h.986a1.329,1.329,0,0,0,1.417-1.39V145.3a1.193,1.193,0,0,0-1.263-1.231h-.261a.469.469,0,1,0,0,.938h.261c.169,0,.325.036.325.293v.322c0,.124,0,.453-.48.453h-.986c-.291,0-.309-.311-.309-.314V143.67C299.278,143.385,299.425,143.209,299.663,143.209Z" transform="translate(-280.88 -133.379)"/>
        <path id="Trazado_655041" data-name="Trazado 655041" d="M48.479,9.468a1.986,1.986,0,0,0-.992-1.03l-1.153-.55a1.993,1.993,0,0,0-1.466-.105V1.156A1.158,1.158,0,0,0,43.713,0H20.149a1.158,1.158,0,0,0-1.157,1.156V15.672a.469.469,0,1,0,.938,0V5.792h24V8.5a1.655,1.655,0,0,0-.093.169L41.877,12.8a.469.469,0,0,0,.847.4l.91-1.912,2.925,1.39L41.383,23.555l-2.925-1.389L41.8,15.132a.469.469,0,0,0-.847-.4l-1.1,2.3H26.053a.469.469,0,0,0,0,.938H39.415l-1.14,2.4H22.853a.469.469,0,0,0,0,.938H37.829l-.419.882a.468.468,0,0,0-.044.171L37.278,23.7H22.962a.469.469,0,0,0,0,.938H37.218l-.184,2.835q0,.019,0,.038a.681.681,0,0,0,.378.625.637.637,0,0,0,.275.062.728.728,0,0,0,.449-.164l.029-.025,3.76-3.489a.469.469,0,0,0,.1-.142l1.9-4V30.844a.222.222,0,0,1-.219.219H20.149a.222.222,0,0,1-.219-.219V17.837a.469.469,0,1,0-.938,0V30.844A1.158,1.158,0,0,0,20.149,32H43.713a1.158,1.158,0,0,0,1.157-1.156V18.409l3.589-7.543a1.7,1.7,0,0,0,.022-1.4ZM38.012,26.874l.078-1.207.808.385Zm1.626-1.509-1.483-.705.1-1.551,2.523,1.2Zm4.293-20.51h-24v-3.7a.219.219,0,0,1,.219-.219H43.713a.219.219,0,0,1,.219.219Zm3.679,5.609-.65,1.366-2.925-1.39.65-1.366a.92.92,0,0,1,1.247-.338l1.153.55a1.051,1.051,0,0,1,.528.542.777.777,0,0,1,0,.637Z" transform="translate(-18.992 0)"/>
      </g>
    </g>
    <g id="e-learning" transform="translate(473.339 3523.037)">
      <g id="Grupo_947424" data-name="Grupo 947424" transform="translate(7.576 2.371)">
        <g id="Grupo_947412" data-name="Grupo 947412" transform="translate(0.518 0.515)">
          <path id="Trazado_655042" data-name="Trazado 655042" d="M30.3,6.406V31.9a3.035,3.035,0,0,1-3.035,3.035H11.617A3.035,3.035,0,0,1,8.582,31.9V6.406a3.035,3.035,0,0,1,3.035-3.035H27.263A3.035,3.035,0,0,1,30.3,6.406Z" transform="translate(-8.582 -3.371)" fill="#b7ceac"/>
        </g>
        <g id="Grupo_947413" data-name="Grupo 947413" transform="translate(0.518 27.606)">
          <path id="Trazado_655043" data-name="Trazado 655043" d="M8.582,55.953v1.435a3.035,3.035,0,0,0,3.035,3.035H27.263A3.035,3.035,0,0,0,30.3,57.388V55.953Z" transform="translate(-8.582 -55.953)" fill="#2b6e17"/>
        </g>
        <g id="Grupo_947414" data-name="Grupo 947414" transform="translate(0.518 27.605)">
          <path id="Trazado_655044" data-name="Trazado 655044" d="M30.3,55.95v1.437a3.037,3.037,0,0,1-3.035,3.035H11.617a3.037,3.037,0,0,1-3.035-3.035V55.95a3.038,3.038,0,0,0,3.035,2.993H27.264A3.038,3.038,0,0,0,30.3,55.95Z" transform="translate(-8.582 -55.95)" fill="#1d570b"/>
        </g>
        <g id="Grupo_947415" data-name="Grupo 947415" transform="translate(0.518 0.515)">
          <path id="Trazado_655045" data-name="Trazado 655045" d="M30.3,7.363V6.406a3.035,3.035,0,0,0-3.035-3.035H11.617A3.035,3.035,0,0,0,8.582,6.406v.957H30.3Z" transform="translate(-8.582 -3.371)" fill="#2b6e17"/>
        </g>
        <g id="Grupo_947416" data-name="Grupo 947416" transform="translate(0.518 0.515)">
          <path id="Trazado_655046" data-name="Trazado 655046" d="M30.3,6.4v.958h-.026A3.034,3.034,0,0,0,27.264,4.7H11.617A3.034,3.034,0,0,0,8.608,7.363H8.582V6.4A3.037,3.037,0,0,1,11.617,3.37H27.264A3.037,3.037,0,0,1,30.3,6.4Z" transform="translate(-8.582 -3.37)" fill="#2b6e17"/>
        </g>
        <g id="Grupo_947417" data-name="Grupo 947417" transform="translate(6.392 8.855)">
          <path id="Trazado_655047" data-name="Trazado 655047" d="M40.3,20.651V32.176a1.091,1.091,0,0,1-1.092,1.093H32.354a2.215,2.215,0,0,1-4.421,0H21.075a1.091,1.091,0,0,1-1.092-1.093V20.651a1.091,1.091,0,0,1,1.092-1.092H39.211A1.091,1.091,0,0,1,40.3,20.651Z" transform="translate(-19.983 -19.559)" fill="#87a679"/>
        </g>
        <g id="Grupo_947418" data-name="Grupo 947418" transform="translate(6.392 20.201)">
          <path id="Trazado_655048" data-name="Trazado 655048" d="M40.3,41.58v1.272a1.092,1.092,0,0,1-1.092,1.092H32.353a2.215,2.215,0,0,1-4.421,0H21.074a1.092,1.092,0,0,1-1.092-1.092V41.58a1.093,1.093,0,0,0,1.092,1.092h4.743a3.517,3.517,0,0,1,2.647,1.3,2.21,2.21,0,0,0,3.356,0,3.517,3.517,0,0,1,2.647-1.3H39.21A1.093,1.093,0,0,0,40.3,41.58Z" transform="translate(-19.982 -41.58)" fill="#87a679"/>
        </g>
        <g id="Grupo_947419" data-name="Grupo 947419" transform="translate(8.427 6.841)">
          <path id="Trazado_655049" data-name="Trazado 655049" d="M32.057,17.483V27.525a1.834,1.834,0,0,1-1.834,1.834H24.773a.841.841,0,0,1-.841-.841V16.49a.841.841,0,0,1,.841-.841h5.451A1.834,1.834,0,0,1,32.057,17.483Z" transform="translate(-23.932 -15.649)" fill="#b7ceac"/>
        </g>
        <g id="Grupo_947420" data-name="Grupo 947420" transform="translate(16.552 6.841)">
          <path id="Trazado_655050" data-name="Trazado 655050" d="M47.829,16.49V28.518a.841.841,0,0,1-.841.841H41.537A1.834,1.834,0,0,1,39.7,27.525V17.483a1.834,1.834,0,0,1,1.834-1.834h5.451a.841.841,0,0,1,.841.841Z" transform="translate(-39.703 -15.649)" fill="#b7ceac"/>
        </g>
        <g id="Grupo_947421" data-name="Grupo 947421" transform="translate(8.427 6.841)">
          <path id="Trazado_655051" data-name="Trazado 655051" d="M32.057,17.484v1.607a1.835,1.835,0,0,0-1.834-1.834H23.932v-.766a.841.841,0,0,1,.841-.841h5.449A1.834,1.834,0,0,1,32.057,17.484Z" transform="translate(-23.932 -15.65)" fill="#a0bd97"/>
        </g>
        <g id="Grupo_947422" data-name="Grupo 947422" transform="translate(16.552 6.841)">
          <path id="Trazado_655052" data-name="Trazado 655052" d="M47.827,16.491v.766H41.536A1.835,1.835,0,0,0,39.7,19.092V17.484a1.834,1.834,0,0,1,1.834-1.834h5.449A.841.841,0,0,1,47.827,16.491Z" transform="translate(-39.702 -15.65)" fill="#a0bd97"/>
        </g>
        <g id="Grupo_947423" data-name="Grupo 947423">
          <path id="Trazado_655053" data-name="Trazado 655053" d="M27.341,6.246a.515.515,0,0,0,0,1.03h1.886a.515.515,0,1,0,0-1.03Z" transform="translate(-16.908 -4.249)" fill="#003"/>
          <path id="Trazado_655054" data-name="Trazado 655054" d="M34.289,16.582a.515.515,0,0,0,.515-.515V12.319A1.61,1.61,0,0,0,33.2,10.712H32.77v-.658A1.358,1.358,0,0,0,31.413,8.7H30.326c0-.284.009-2.807-.016-3.089a3.554,3.554,0,0,0-3.535-3.237H11.13A3.554,3.554,0,0,0,7.6,5.608c-.029.327-.016.276-.016,3.875a.515.515,0,0,0,1.03,0V7.394H24.725a.515.515,0,1,0,0-1.03H8.61V5.922A2.523,2.523,0,0,1,11.13,3.4H26.776a2.523,2.523,0,0,1,2.52,2.52v.442H26.887a.515.515,0,0,0,0,1.03H29.3V8.7H25.963a2.337,2.337,0,0,0-1.834.9,2.337,2.337,0,0,0-1.834-.9H16.844a1.358,1.358,0,0,0-1.356,1.356v.658h-.427a1.609,1.609,0,0,0-1.608,1.608V23.844a1.609,1.609,0,0,0,1.608,1.608h6.42a2.729,2.729,0,0,0,5.3,0H29.3v4.011H26.279a.515.515,0,1,0,0,1.03H29.3v.92a2.523,2.523,0,0,1-2.52,2.52H11.13a2.523,2.523,0,0,1-2.52-2.52v-.92H23.7a.515.515,0,0,0,0-1.03H8.61V11.227a.515.515,0,0,0-1.03,0V31.412a3.555,3.555,0,0,0,3.551,3.55H26.776a3.555,3.555,0,0,0,3.551-3.55V25.452H33.2A1.61,1.61,0,0,0,34.8,23.844V18.252a.515.515,0,0,0-1.03,0v5.592a.578.578,0,0,1-.578.577H26.339a.516.516,0,0,0-.514.48,1.7,1.7,0,0,1-3.393,0,.516.516,0,0,0-.514-.48H15.061a.578.578,0,0,1-.577-.577V12.319a.578.578,0,0,1,.577-.577h.427v2.265a.515.515,0,0,0,1.03,0V10.053a.326.326,0,0,1,.326-.326h5.451a1.32,1.32,0,0,1,1.319,1.318V21.089a1.32,1.32,0,0,1-1.319,1.319H16.844a.327.327,0,0,1-.326-.326V16.8a.515.515,0,0,0-1.03,0v5.28a1.358,1.358,0,0,0,1.356,1.357h5.451a2.337,2.337,0,0,0,1.834-.9,2.336,2.336,0,0,0,1.834.9h5.451a1.358,1.358,0,0,0,1.356-1.357V11.742H33.2a.578.578,0,0,1,.578.577v3.748a.515.515,0,0,0,.515.515Zm-2.55,5.5a.327.327,0,0,1-.326.326H25.963a1.32,1.32,0,0,1-1.319-1.319V11.046a1.32,1.32,0,0,1,1.319-1.318h5.451a.326.326,0,0,1,.326.326Z" transform="translate(-7.576 -2.371)" fill="#003"/>
          <path id="Trazado_655055" data-name="Trazado 655055" d="M27.9,21.469h3.536a.515.515,0,0,0,0-1.03H27.9a.515.515,0,1,0,0,1.03Z" transform="translate(-17.179 -11.13)" fill="#003"/>
          <path id="Trazado_655056" data-name="Trazado 655056" d="M27.9,26.48h3.536a.515.515,0,0,0,0-1.03H27.9a.515.515,0,1,0,0,1.03Z" transform="translate(-17.179 -13.559)" fill="#003"/>
          <path id="Trazado_655057" data-name="Trazado 655057" d="M27.9,31.49h3.536a.515.515,0,0,0,0-1.03H27.9a.515.515,0,1,0,0,1.03Z" transform="translate(-17.179 -15.988)" fill="#003"/>
          <path id="Trazado_655058" data-name="Trazado 655058" d="M27.9,36.5h3.536a.515.515,0,0,0,0-1.03H27.9a.515.515,0,0,0,0,1.03Z" transform="translate(-17.179 -18.416)" fill="#003"/>
          <path id="Trazado_655059" data-name="Trazado 655059" d="M47.208,20.439H43.672a.515.515,0,1,0,0,1.03h3.536a.515.515,0,1,0,0-1.03Z" transform="translate(-24.825 -11.13)" fill="#003"/>
          <path id="Trazado_655060" data-name="Trazado 655060" d="M47.208,25.449H43.672a.515.515,0,1,0,0,1.03h3.536a.515.515,0,1,0,0-1.03Z" transform="translate(-24.825 -13.559)" fill="#003"/>
          <path id="Trazado_655061" data-name="Trazado 655061" d="M47.208,30.459H43.672a.515.515,0,1,0,0,1.03h3.536a.515.515,0,1,0,0-1.03Z" transform="translate(-24.825 -15.988)" fill="#003"/>
          <path id="Trazado_655062" data-name="Trazado 655062" d="M47.208,35.469H43.672a.515.515,0,1,0,0,1.03h3.536a.515.515,0,0,0,0-1.03Z" transform="translate(-24.825 -18.416)" fill="#003"/>
          <path id="Trazado_655063" data-name="Trazado 655063" d="M25.2,59.291a.515.515,0,1,0,0,1.03h4.093a.515.515,0,1,0,0-1.03Z" transform="translate(-15.87 -29.965)" fill="#003"/>
        </g>
      </g>
    </g>
    <g id="volume" transform="translate(1157.007 3523.16)">
      <path id="Trazado_655082" data-name="Trazado 655082" d="M17.658,0A17.658,17.658,0,1,1,0,17.658,17.658,17.658,0,0,1,17.658,0Z" transform="translate(0.11 0.11)" fill="#2b6e17"/>
      <path id="Trazado_655071" data-name="Trazado 655071" d="M105.231,88.408l-7.314-7.314-.465.314L91.152,75,75,92.66l12.592,12.592A17.722,17.722,0,0,0,105.231,88.408Z" transform="translate(-69.763 -69.763)" fill="#195415"/>
      <path id="Trazado_655072" data-name="Trazado 655072" d="M83.869,185.01l-.1,1.835-.132,2.511-2.266,2.609H75V181.706h6.353l.015-.015Z" transform="translate(-69.763 -169.068)" fill="#6b6767"/>
      <path id="Trazado_655073" data-name="Trazado 655073" d="M83.766,256.142l-.132,2.511-2.266,2.609H75v-5.12Z" transform="translate(-69.763 -238.365)" fill="#4a4a4a"/>
      <g id="Grupo_947426" data-name="Grupo 947426" transform="translate(22.368 11.331)">
        <path id="Trazado_655074" data-name="Trazado 655074" d="M324.518,220.012a4.82,4.82,0,0,1-.822,2.687l-1.233-.808a3.371,3.371,0,0,0,0-3.759l1.233-.808A4.82,4.82,0,0,1,324.518,220.012Z" transform="translate(-322.462 -213.566)" fill="#ddd"/>
        <path id="Trazado_655075" data-name="Trazado 655075" d="M391.791,169.472a10.723,10.723,0,0,1-1.821,5.947l-.323.5-1.219-.822.323-.485a9.191,9.191,0,0,0,0-10.279l-.323-.485,1.219-.822.323.5A10.722,10.722,0,0,1,391.791,169.472Z" transform="translate(-383.861 -163.026)" fill="#ddd"/>
        <path id="Trazado_655076" data-name="Trazado 655076" d="M355.869,191.386a7.75,7.75,0,0,1-1.307,4.317l-.323.5-1.233-.822.338-.485a6.353,6.353,0,0,0,0-7.019l-.338-.485,1.233-.822.323.5A7.749,7.749,0,0,1,355.869,191.386Z" transform="translate(-350.891 -184.94)" fill="#ddd"/>
      </g>
      <path id="Trazado_655077" data-name="Trazado 655077" d="M176.769,75v25.06l-9.784-7.4V82.386l3.812-2.878Z" transform="translate(-155.38 -69.763)" fill="#fff"/>
      <path id="Trazado_655078" data-name="Trazado 655078" d="M166.985,256.142h9.784v12.52l-9.784-7.4Z" transform="translate(-155.38 -238.365)" fill="#ddd"/>
      <g id="Grupo_947427" data-name="Grupo 947427" transform="translate(22.368 17.777)">
        <path id="Trazado_655079" data-name="Trazado 655079" d="M323.035,256.142h1.483a4.82,4.82,0,0,1-.822,2.687l-1.233-.808A3.4,3.4,0,0,0,323.035,256.142Z" transform="translate(-322.462 -256.142)" fill="#b7b7b7"/>
        <path id="Trazado_655080" data-name="Trazado 655080" d="M355.869,256.142a7.749,7.749,0,0,1-1.307,4.317l-.323.5-1.233-.822.338-.485a6.377,6.377,0,0,0,1.057-3.509Z" transform="translate(-350.891 -256.142)" fill="#b7b7b7"/>
        <path id="Trazado_655081" data-name="Trazado 655081" d="M391.791,256.142a10.723,10.723,0,0,1-1.821,5.947l-.323.5-1.219-.822.323-.485a9.233,9.233,0,0,0,1.571-5.139Z" transform="translate(-383.861 -256.142)" fill="#b7b7b7"/>
      </g>
    </g>
  </g>
</svg>
