<svg xmlns="http://www.w3.org/2000/svg" width="44.025" height="53.939" viewBox="0 0 44.025 53.939">
  <g id="_22" data-name="22" transform="translate(0)">
    <g id="Grupo_54835" data-name="Grupo 54835" transform="translate(0.79 0.79)">
      <path id="Trazado_103159" data-name="Trazado 103159" d="M87.134,7.5H64.419a9.865,9.865,0,0,0-9.865,9.865V41.489a9.865,9.865,0,0,0,9.865,9.865h5.834a1.342,1.342,0,0,1,1.227.8l3.07,6.91a1.342,1.342,0,0,0,2.453,0l3.07-6.91a1.342,1.342,0,0,1,1.227-.8h5.834A9.865,9.865,0,0,0,97,41.489V17.365A9.865,9.865,0,0,0,87.134,7.5Z" transform="translate(-54.554 -7.5)" fill="#f5f5f5"/>
    </g>
    <g id="Grupo_54836" data-name="Grupo 54836" transform="translate(18.762 8.042)">
      <path id="Trazado_103160" data-name="Trazado 103160" d="M229.654,94.59h-2.52a.975.975,0,0,1-.973-.914l-1.016-16.307a.975.975,0,0,1,.973-1.036h4.551a.975.975,0,0,1,.973,1.036l-1.016,16.307A.975.975,0,0,1,229.654,94.59Zm-1.26,5.16a2.873,2.873,0,1,0,2.873,2.873A2.873,2.873,0,0,0,228.394,99.75Z" transform="translate(-225.144 -76.333)" fill="#b3009d"/>
    </g>
    <g id="Grupo_54837" data-name="Grupo 54837" transform="translate(30.209 0.79)">
      <path id="Trazado_103161" data-name="Trazado 103161" d="M336.966,7.5h-3.16a9.865,9.865,0,0,1,9.865,9.865V41.489a9.865,9.865,0,0,1-9.865,9.865h3.16a9.865,9.865,0,0,0,9.865-9.865V17.365A9.865,9.865,0,0,0,336.966,7.5Z" transform="translate(-333.806 -7.5)" fill="#ebe5ed"/>
    </g>
    <g id="Grupo_54838" data-name="Grupo 54838" transform="translate(20.432 31.458)">
      <path id="Trazado_103162" data-name="Trazado 103162" d="M242.58,298.607a2.858,2.858,0,0,0-1.58.474,2.872,2.872,0,0,1,0,4.8,2.873,2.873,0,1,0,1.58-5.272Z" transform="translate(-241 -298.607)" fill="#e600c9"/>
    </g>
    <g id="Grupo_54839" data-name="Grupo 54839" transform="translate(20.432 8.042)">
      <path id="Trazado_103163" data-name="Trazado 103163" d="M244.856,76.333H241.7a.975.975,0,0,1,.973,1.036l-1.016,16.307a.975.975,0,0,1-.653.859.969.969,0,0,0,.32.055h2.52a.975.975,0,0,0,.973-.914l1.016-16.307A.975.975,0,0,0,244.856,76.333Z" transform="translate(-241 -76.333)" fill="#e600c9"/>
    </g>
    <g id="Grupo_54840" data-name="Grupo 54840" transform="translate(17.972 7.252)">
      <path id="Trazado_103164" data-name="Trazado 103164" d="M222.946,88.671h-2.52a1.768,1.768,0,0,1-1.762-1.655l-1.016-16.307a1.765,1.765,0,0,1,1.762-1.875h4.551a1.765,1.765,0,0,1,1.762,1.875l-1.016,16.307A1.768,1.768,0,0,1,222.946,88.671ZM219.41,70.414a.185.185,0,0,0-.185.2l1.016,16.307a.185.185,0,0,0,.184.173h2.52a.185.185,0,0,0,.184-.173l1.016-16.307a.185.185,0,0,0-.185-.2Z" transform="translate(-217.645 -68.834)" fill="#3c0061"/>
    </g>
    <g id="Grupo_54841" data-name="Grupo 54841" transform="translate(18.349 30.668)">
      <path id="Trazado_103165" data-name="Trazado 103165" d="M224.893,298.432a3.663,3.663,0,1,1,3.663-3.663A3.667,3.667,0,0,1,224.893,298.432Zm0-5.746a2.083,2.083,0,1,0,2.083,2.083A2.085,2.085,0,0,0,224.893,292.686Z" transform="translate(-221.23 -291.106)" fill="#3c0061"/>
    </g>
    <g id="Grupo_54842" data-name="Grupo 54842" transform="translate(0)">
      <path id="Trazado_103166" data-name="Trazado 103166" d="M80.424,0H57.709A10.667,10.667,0,0,0,47.054,10.655V15.98a.79.79,0,1,0,1.58,0V10.655A9.085,9.085,0,0,1,57.709,1.58H80.424A9.085,9.085,0,0,1,89.5,10.655V25.1a.79.79,0,1,0,1.58,0V10.655A10.667,10.667,0,0,0,80.424,0Z" transform="translate(-47.054)" fill="#3c0061"/>
      <path id="Trazado_103167" data-name="Trazado 103167" d="M90.288,183.305a.79.79,0,0,0-.79.79v6.519a9.085,9.085,0,0,1-9.075,9.075H74.589a2.134,2.134,0,0,0-1.949,1.267l-3.07,6.91a.552.552,0,0,1-1.009,0l-3.07-6.91a2.134,2.134,0,0,0-1.949-1.267H57.708a9.085,9.085,0,0,1-9.075-9.075V174.976a.79.79,0,1,0-1.58,0v15.639A10.667,10.667,0,0,0,57.708,201.27h5.834a.553.553,0,0,1,.5.328l3.07,6.91a2.132,2.132,0,0,0,3.9,0l3.07-6.91a.552.552,0,0,1,.5-.328h5.834a10.667,10.667,0,0,0,10.655-10.655V184.1A.791.791,0,0,0,90.288,183.305Z" transform="translate(-47.053 -155.835)" fill="#3c0061"/>
    </g>
  </g>
</svg>
