<svg xmlns="http://www.w3.org/2000/svg" xmlns:xlink="http://www.w3.org/1999/xlink" width="137" height="141.871" viewBox="0 0 137 141.871">
  <defs>
    <filter id="Elipse_7588" x="0" y="0" width="137" height="137" filterUnits="userSpaceOnUse">
      <feOffset dy="3" input="SourceAlpha"/>
      <feGaussianBlur stdDeviation="3" result="blur"/>
      <feFlood flood-opacity="0.161"/>
      <feComposite operator="in" in2="blur"/>
      <feComposite in="SourceGraphic"/>
    </filter>
  </defs>
  <g id="_24" data-name="24" transform="translate(-942 -5675)">
    <g transform="matrix(1, 0, 0, 1, 942, 5675)" filter="url(#Elipse_7588)">
      <circle id="Elipse_7588-2" data-name="Elipse 7588" cx="59.5" cy="59.5" r="59.5" transform="translate(9 6)" fill="#fcd03e"/>
    </g>
    <g id="escalada" transform="translate(954 5705.959)">
      <g id="Grupo_946895" data-name="Grupo 946895" transform="translate(16.258 0.718)">
        <g id="Grupo_946872" data-name="Grupo 946872" transform="translate(61.419 75.871)">
          <path id="Trazado_653649" data-name="Trazado 653649" d="M369.29,346.407a7.226,7.226,0,1,1,0,14.452H351.226a7.226,7.226,0,1,1,0-14.452c.061,0,.12,0,.181,0a9.033,9.033,0,0,1,17.7,0C369.171,346.409,369.229,346.407,369.29,346.407Z" transform="translate(-344 -339.181)" fill="#e6e9ed"/>
        </g>
        <g id="Grupo_946873" data-name="Grupo 946873" transform="translate(62.605 7.226)">
          <path id="Trazado_653650" data-name="Trazado 653650" d="M373.355,42.407a7.226,7.226,0,0,1,0,14.452H355.29a7.216,7.216,0,0,1-6.038-3.256l0,0a14.216,14.216,0,0,0,2.427-7.971v-.253a13.822,13.822,0,0,0-.133-1.922,7.162,7.162,0,0,1,3.746-1.048c.061,0,.12,0,.181,0a9.033,9.033,0,0,1,17.7,0C373.235,42.409,373.294,42.407,373.355,42.407Z" transform="translate(-349.25 -35.181)" fill="#e6e9ed"/>
        </g>
        <g id="Grupo_946874" data-name="Grupo 946874" transform="translate(40.042 36.129)">
          <path id="Trazado_653651" data-name="Trazado 653651" d="M253.914,176.562,249.33,167.4l6.925-2.771,1.987-.795a9.1,9.1,0,0,1,1.657-.485,8.935,8.935,0,0,1,1.718-.165,9.083,9.083,0,0,1,9.089,9.089V175.9a22.636,22.636,0,0,0,1.885,9.048,10.741,10.741,0,0,0-4.6,1.718,10.739,10.739,0,0,1-5.966,1.806h-.666a12.371,12.371,0,0,1-8.723-3.613V177.14Z" transform="translate(-249.33 -163.181)" fill="#5cd6b3"/>
        </g>
        <g id="Grupo_946875" data-name="Grupo 946875" transform="translate(28.903 73.001)">
          <path id="Trazado_653652" data-name="Trazado 653652" d="M216.258,332.954l-2,3.435-1.669,2.859-9.7-4.848L200,332.954a24.124,24.124,0,0,1,1.077-2.685,24.46,24.46,0,0,1,2.215-3.8h0Z" transform="translate(-200 -326.471)" fill="#aab2bd"/>
        </g>
        <g id="Grupo_946876" data-name="Grupo 946876" transform="translate(21.677 61.817)">
          <path id="Trazado_653653" data-name="Trazado 653653" d="M173.449,276.941l7.176,8.61a24.215,24.215,0,0,0-2.1,2.574h0a24.462,24.462,0,0,0-2.215,3.8h0l-6.86-8.231L168,281.963a15.728,15.728,0,0,1,5.449-5.022Z" transform="translate(-168 -276.941)" fill="#aab2bd"/>
        </g>
        <g id="Grupo_946877" data-name="Grupo 946877" transform="translate(32.198 57.895)">
          <path id="Trazado_653654" data-name="Trazado 653654" d="M216.695,272.1l.047-.052a24.632,24.632,0,0,1,8.775-5.973l7.632-3.053v0a12.233,12.233,0,0,0,1.321.072h.666a10.739,10.739,0,0,0,5.966-1.806,10.741,10.741,0,0,1,4.6-1.718l.506,1.082a11.574,11.574,0,0,1-6.4,16.053l-9.028,3.283-3.225,1.172-12.964-6.483A24.218,24.218,0,0,1,216.695,272.1Z" transform="translate(-214.59 -259.571)" fill="#ccd1d9"/>
        </g>
        <g id="Grupo_946878" data-name="Grupo 946878" transform="translate(27.126 57.806)">
          <path id="Trazado_653655" data-name="Trazado 653655" d="M208.359,259.181a12.327,12.327,0,0,0,7.4,3.541v0l-7.632,3.053a24.632,24.632,0,0,0-8.775,5.973l-.047.052-7.176-8.61v0a15.75,15.75,0,0,1,4.55-1.673l1.484-.3,6.648-1.33Z" transform="translate(-192.13 -259.181)" fill="#ccd1d9"/>
        </g>
        <g id="Grupo_946879" data-name="Grupo 946879" transform="translate(47.932 93.936)">
          <path id="Trazado_653656" data-name="Trazado 653656" d="M291.5,419.181l3.13,7.226H287.4l-3.13-7.226h7.224Z" transform="translate(-284.27 -419.181)" fill="#d3a06c"/>
        </g>
        <g id="Grupo_946880" data-name="Grupo 946880" transform="translate(43.158 78.312)">
          <path id="Trazado_653657" data-name="Trazado 653657" d="M272,358.389h-7.226L263.13,354.6l2-3.435,3.225-1.172Z" transform="translate(-263.13 -349.991)" fill="#d3a06c"/>
        </g>
        <g id="Grupo_946881" data-name="Grupo 946881" transform="translate(16.619 21.677)">
          <path id="Trazado_653658" data-name="Trazado 653658" d="M152.826,99.181l9.287,21.431-.616.246-7.027-11.243a6.824,6.824,0,0,0-5.738-3.209L145.6,99.181Z" transform="translate(-145.6 -99.181)" fill="#d3a06c"/>
        </g>
        <g id="Grupo_946882" data-name="Grupo 946882" transform="translate(10.358 7.226)">
          <path id="Trazado_653659" data-name="Trazado 653659" d="M125.1,35.181l3.13,7.226H121l-3.13-7.226Z" transform="translate(-117.87 -35.181)" fill="#d3a06c"/>
        </g>
        <g id="Grupo_946883" data-name="Grupo 946883" transform="translate(51.062 101.161)">
          <path id="Trazado_653660" data-name="Trazado 653660" d="M305.356,451.181l3.132,7.226h-7.226l-3.132-7.226Z" transform="translate(-298.13 -451.181)" fill="#b27946"/>
        </g>
        <g id="Grupo_946884" data-name="Grupo 946884" transform="translate(44.8 86.71)">
          <path id="Trazado_653661" data-name="Trazado 653661" d="M277.626,387.181l3.13,7.226h-7.224l-3.132-7.226Z" transform="translate(-270.4 -387.181)" fill="#b27946"/>
        </g>
        <g id="Grupo_946885" data-name="Grupo 946885" transform="translate(30.549 52.821)">
          <path id="Trazado_653662" data-name="Trazado 653662" d="M214.082,237.1l2.466,5.695-6.648,1.33-2.61-6.022a7.034,7.034,0,0,0,2.251.37,6.975,6.975,0,0,0,2.908-.63Z" transform="translate(-207.29 -237.101)" fill="#b27946"/>
        </g>
        <g id="Grupo_946886" data-name="Grupo 946886" transform="translate(13.49 14.452)">
          <path id="Trazado_653663" data-name="Trazado 653663" d="M138.964,67.181l3.132,7.226H134.87l-3.13-7.226Z" transform="translate(-131.74 -67.181)" fill="#b27946"/>
        </g>
        <g id="Grupo_946887" data-name="Grupo 946887" transform="translate(7.226)">
          <path id="Trazado_653664" data-name="Trazado 653664" d="M114.358,10.407h-7.226L104,3.181h7.226Z" transform="translate(-104 -3.181)" fill="#b27946"/>
        </g>
        <g id="Grupo_946888" data-name="Grupo 946888" transform="translate(14.452 101.161)">
          <path id="Trazado_653665" data-name="Trazado 653665" d="M154.065,451.181V456.6a1.806,1.806,0,0,1-1.806,1.806H137.806A1.8,1.8,0,0,1,136,456.6a5.421,5.421,0,0,1,5.419-5.419h12.645Z" transform="translate(-136 -451.181)" fill="#969faa"/>
        </g>
        <g id="Grupo_946889" data-name="Grupo 946889" transform="translate(0 75.871)">
          <path id="Trazado_653666" data-name="Trazado 653666" d="M88,351.395l-1.612,1.075a6.94,6.94,0,0,1-3.839,1.163,6.92,6.92,0,0,1-5.4-2.6l-4.27-5.336a4.012,4.012,0,0,1,3.134-6.519,4.646,4.646,0,0,1,2.579.781l4.247,2.832Z" transform="translate(-72 -339.181)" fill="#969faa"/>
        </g>
        <g id="Grupo_946890" data-name="Grupo 946890" transform="translate(21.677 80.929)">
          <path id="Trazado_653667" data-name="Trazado 653667" d="M187.812,366.429l-4.925,8.441v0l-4.049,6.941H168l10.116-20.232Z" transform="translate(-168 -361.581)" fill="#f0d0b4"/>
        </g>
        <g id="Grupo_946891" data-name="Grupo 946891" transform="translate(10.839 68.568)">
          <path id="Trazado_653668" data-name="Trazado 653668" d="M139.139,315.072h0a24.125,24.125,0,0,0-1.077,2.685l-12.9,8.6-5.162-8.6,12.279-10.915Z" transform="translate(-120 -306.841)" fill="#f0d0b4"/>
        </g>
        <g id="Grupo_946892" data-name="Grupo 946892" transform="translate(14.452 28.903)">
          <path id="Trazado_653669" data-name="Trazado 653669" d="M161.591,142.623l4.584,9.165-1.271.578L158.89,155.1l-1.633.743a7.034,7.034,0,0,1-8.872-2.674l-6.966-11.148-1.831-.61a5.25,5.25,0,0,1,1.662-10.229h.05a6.824,6.824,0,0,1,5.738,3.209l7.027,11.243.616-.246Z" transform="translate(-136 -131.181)" fill="#f0d0b4"/>
        </g>
        <g id="Grupo_946893" data-name="Grupo 946893" transform="translate(39.742 14.452)">
          <path id="Trazado_653670" data-name="Trazado 653670" d="M265.008,71.851a3.613,3.613,0,0,1-2.556,6.169V89.05a9.035,9.035,0,0,0-1.863-.192,8.935,8.935,0,0,0-1.718.165,9.1,9.1,0,0,0-1.657.485l-1.987.795V85.246A7.227,7.227,0,0,1,248,78.02V70.794a3.612,3.612,0,0,1,3.613-3.613h7.226a3.608,3.608,0,0,1,3.613,3.613A3.61,3.61,0,0,1,265.008,71.851Z" transform="translate(-248 -67.181)" fill="#f0d0b4"/>
        </g>
        <g id="Grupo_946894" data-name="Grupo 946894" transform="translate(32.516 1.806)">
          <path id="Trazado_653671" data-name="Trazado 653671" d="M248.383,24.874a13.825,13.825,0,0,1,.133,1.922v.253a14.216,14.216,0,0,1-2.427,7.971,14.074,14.074,0,0,1-3.861,3.839c-2.391,1.592-4.55,3.033-4.55,3.033V34.665a3.613,3.613,0,1,0,0-7.226,3.608,3.608,0,0,0-3.613-3.613h-7.226a3.612,3.612,0,0,0-3.613,3.613v3.613l-2.746-.686A5.913,5.913,0,0,1,216,24.628v-.084a6.065,6.065,0,0,1,1.773-4.3l.034-.034-.269-.269a5.25,5.25,0,0,1,1.364-8.409l.711-.355a17.069,17.069,0,0,0,3.721,1.348,17,17,0,0,0,3.931.458h7.443a13.812,13.812,0,0,1,13.675,11.886Z" transform="translate(-216 -11.181)" fill="#fcd770"/>
        </g>
      </g>
      <g id="Grupo_946896" data-name="Grupo 946896" transform="translate(0 0)">
        <path id="Trazado_653672" data-name="Trazado 653672" d="M67.065,80.071l7.224-2.627a13.38,13.38,0,0,0,7.395-18.559,20.947,20.947,0,0,1-2.2-9.321v-3.63a10.913,10.913,0,0,0-7.226-10.257V34.2L76,31.7a15.887,15.887,0,0,0,2.937-2.525A9.006,9.006,0,0,0,84.9,31.428h18.065a9.033,9.033,0,0,0,1.217-17.983,10.842,10.842,0,0,0-20.5,0,8.987,8.987,0,0,0-1.228.257A15.631,15.631,0,0,0,67.482,2.524H60.039A15.385,15.385,0,0,1,53.195.909L52.387.5l-1.519.759A7.06,7.06,0,0,0,48.226,11.6a7.843,7.843,0,0,0-1.258,4.286v.084a7.709,7.709,0,0,0,5.85,7.491l1.376.344v2.2a9.048,9.048,0,0,0,7.226,8.851v2.21L50.349,41.5,32.367,0,29.052,1.436l2.037,4.7H27.8L25.141,0,21.826,1.436l11.63,26.838a7.055,7.055,0,0,0,.271,13.289l1.214.4,6.623,10.6a8.8,8.8,0,0,0,3.885,3.386l1.428,3.3a17.4,17.4,0,0,0-7.34,3.781L21.212,24.784a8.979,8.979,0,0,0-6.186-4.914L2.2,17.019l-.784,3.527L14.242,23.4a5.387,5.387,0,0,1,3.712,2.949L36.9,65.887c-.161.219-.317.44-.469.667l-.748,1.122L36.869,69.1l-9.93,8.827-3.088-2.059a6.435,6.435,0,0,0-3.58-1.084,5.819,5.819,0,0,0-4.544,9.453L20,89.573a8.724,8.724,0,0,0,11.652,1.809l13.643-9.1.337.168-8.809,17.618h-.69A7.234,7.234,0,0,0,28.9,107.3H0v3.613H112V107.3H78.863Zm-19.647-.761a22.85,22.85,0,0,1,1.657-3.261l9.813,4.906-1.847,3.166ZM57.806,57.044l-.663.133L55.962,54.45l1.844-.838v3.432Zm-5.134-1.1L53.52,57.9l-3.026.605-.786-1.814a8.761,8.761,0,0,0,2.964-.748Zm6.392,4.533a14.124,14.124,0,0,0,2.582,1.792l-2.935,1.174a26.445,26.445,0,0,0-8.024,5.033l-4.4-5.285a14.094,14.094,0,0,1,2.006-.56Zm9.6,32.371H65.375L63.81,89.234H67.1ZM66.941,96.46h3.288l1.566,3.613H68.506Zm-7.763-8.829L67.7,107.3H60.75L54.867,95.02Zm10.895,16.055H73.36l1.566,3.613H71.638Zm-4.54-18.065H62.244l-.807-1.864,1.214-2.081,1.013-.368Zm7.522-11.573-11.522,4.19-10.3-5.149A22.8,22.8,0,0,1,60.053,66.8l7.238-2.9c.346.025.693.042,1.044.042H69a12.522,12.522,0,0,0,6.968-2.11,9,9,0,0,1,2.559-1.169,9.759,9.759,0,0,1-5.474,13.384Zm2.816-28.113v3.63a24.569,24.569,0,0,0,1.263,7.746,12.609,12.609,0,0,0-3.168,1.517A8.922,8.922,0,0,1,69,60.331h-.666a10.45,10.45,0,0,1-6.916-2.589V51.969l9.78-4.445-1.5-3.289-7.983,3.628L58.8,42.01l7.09-2.836a7.281,7.281,0,0,1,9.986,6.761ZM84.9,16.976l1.65.04.3-1.484a7.227,7.227,0,0,1,14.163,0l.3,1.484,1.65-.04a5.419,5.419,0,1,1,0,10.839H84.9a5.405,5.405,0,0,1-3.836-1.593,16.054,16.054,0,0,0,2.03-7.83v-.253c0-.283-.009-.565-.024-.846a5.422,5.422,0,0,1,1.83-.317Zm-30.71,1.806v1.3l-.5-.125a4.1,4.1,0,0,1-3.112-3.986v-.084a4.238,4.238,0,0,1,1.243-3.019l1.312-1.312-1.546-1.546a3.444,3.444,0,0,1,.824-5.479,19.027,19.027,0,0,0,7.626,1.605h7.443a12,12,0,0,1,12,12v.253A12.346,12.346,0,0,1,74,28.7l-1.742,1.161V27.505a5.42,5.42,0,0,0-.233-10.3,5.429,5.429,0,0,0-5.187-3.846H59.613A5.426,5.426,0,0,0,54.194,18.783Zm3.613,7.226V18.783a1.809,1.809,0,0,1,1.806-1.806h7.226a1.809,1.809,0,0,1,1.806,1.806v1.806h1.806a1.806,1.806,0,0,1,0,3.613H68.645v10.84h-.056a10.838,10.838,0,0,0-3.557.6v-4.21H63.226A5.426,5.426,0,0,1,57.806,26.009Zm-20.57,1.9L35.629,24.2h3.288l2.359,5.443A8.554,8.554,0,0,0,37.237,27.912Zm.115-7.323H34.063L32.5,16.976h3.288Zm-4.7-10.839,1.566,3.613H30.932L29.367,9.751Zm4.662,29.2-2.447-.815a3.443,3.443,0,0,1,1.089-6.708,4.991,4.991,0,0,1,4.256,2.359l7.828,12.524,7.386-2.954,3,6-7.21,3.278a5.224,5.224,0,0,1-6.592-1.987ZM43,64.9l5.177,6.213A26.363,26.363,0,0,0,45.908,74.3l-5.68-6.816A13.829,13.829,0,0,1,43,64.9ZM44.13,77.813q-.252.6-.475,1.222L32.832,86.25l-3.416-5.693,9.767-8.681ZM26.809,89.234a5.086,5.086,0,0,1-3.991-1.918l-4.27-5.337A2.206,2.206,0,0,1,20.27,78.4a2.834,2.834,0,0,1,1.576.477l3.91,2.607,4.066,6.777-.179.119a5.094,5.094,0,0,1-2.835.859Zm22.051-5.164,6.358,3.179-7.48,12.824H40.858ZM32.516,107.3a3.617,3.617,0,0,1,3.613-3.613h10.84V107.3H32.516Zm18.065-4.931,2.087-3.577,4.077,8.508H50.581Z" transform="translate(0 0)"/>
        <path id="Trazado_653673" data-name="Trazado 653673" d="M48.656,132.672l2.266,13.6a8.178,8.178,0,0,0,8.092,6.855v-3.613a4.577,4.577,0,0,1-4.529-3.836l-2.266-13.6a8.232,8.232,0,0,0-3.542-5.477l-3.113-2.076-2,3.006,3.113,2.076A4.605,4.605,0,0,1,48.656,132.672Z" transform="translate(-33.725 -96.406)"/>
        <path id="Trazado_653674" data-name="Trazado 653674" d="M39.956,227.782,42.693,240.1l3.527-.784L43.483,227a10.252,10.252,0,0,0-5.445-6.973l-1.616,3.232a6.654,6.654,0,0,1,3.533,4.526Z" transform="translate(-28.198 -170.342)"/>
        <path id="Trazado_653675" data-name="Trazado 653675" d="M364.314,338.488a10.841,10.841,0,0,0-20.5,0,9.033,9.033,0,0,0,1.217,17.983H363.1a9.033,9.033,0,0,0,1.217-17.983Zm-1.217,14.37H345.032a5.419,5.419,0,1,1,0-10.839l1.65.04.3-1.484a7.228,7.228,0,0,1,14.163,0l.3,1.484,1.65-.04a5.419,5.419,0,1,1,0,10.839Z" transform="translate(-260.129 -256.397)"/>
      </g>
    </g>
  </g>
</svg>
