<svg xmlns="http://www.w3.org/2000/svg" width="101" height="101" viewBox="0 0 101 101">
  <g id="_7" data-name="7" transform="translate(-3621 10308.189)">
    <circle id="Elipse_7552" data-name="Elipse 7552" cx="50.5" cy="50.5" r="50.5" transform="translate(3621 -10308.189)" fill="#fcd03e"/>
    <g id="leer_1_" data-name="leer (1)" transform="translate(3571.04 -10302.101)">
      <g id="Grupo_945652" data-name="Grupo 945652" transform="translate(69.114 1.301)">
        <g id="Grupo_945651" data-name="Grupo 945651" transform="translate(0)">
          <g id="Grupo_945647" data-name="Grupo 945647" transform="translate(4.914)">
            <path id="Trazado_650495" data-name="Trazado 650495" d="M215.91,177.886a14.257,14.257,0,0,0,8.01-3.015,1.375,1.375,0,0,0-.284-2.39l-.01,0a4.823,4.823,0,0,1-2.87-4.409v-7.2H209.668v7.2a4.824,4.824,0,0,1-2.292,4.1l-.034.02a1.371,1.371,0,0,0-.134,2.291A14.89,14.89,0,0,0,215.91,177.886Z" transform="translate(-188.782 -134.26)" fill="#ffddce"/>
            <g id="Grupo_945646" data-name="Grupo 945646">
              <g id="Grupo_945645" data-name="Grupo 945645">
                <g id="Grupo_945644" data-name="Grupo 945644">
                  <g id="Grupo_945641" data-name="Grupo 945641" transform="translate(11.934 2.848)">
                    <path id="Trazado_650496" data-name="Trazado 650496" d="M201.41,37.961a2.049,2.049,0,0,0-2.046-2.053l-.768,0-.013-3.093c-.027-6.48-5.374-8.862-11.3-8.9-5.9.092-11.238,2.5-11.211,9l.009,2.181,0,.912h-.727a2.93,2.93,0,0,0-2.929,2.932l0,2.657a2.93,2.93,0,0,0,2.931,2.928h.752a10.655,10.655,0,0,0,3.583,7.815,11.424,11.424,0,0,0,15.406-.066,10.657,10.657,0,0,0,3.518-7.845l.771,0a2.05,2.05,0,0,0,2.029-2.071Z" transform="translate(-172.427 -23.914)" fill="#ffece4"/>
                  </g>
                  <path id="Trazado_650497" data-name="Trazado 650497" d="M141.477,227.065c-.3-.058-1.09-.216-1.992-.4a4.752,4.752,0,0,1-1-.323,11.944,11.944,0,0,1-15.978-.055c-.093-.081-.182-.165-.273-.249a4.806,4.806,0,0,1-1.582.627c-.9.182-1.688.339-1.992.4a18.519,18.519,0,0,0-15.019,18.185v9.013a3.783,3.783,0,0,0,3.783,3.783h45.3a3.783,3.783,0,0,0,3.783-3.783V245.25a18.52,18.52,0,0,0-15.02-18.185Z" transform="translate(-103.636 -188.128)" fill="#88a8d8"/>
                  <g id="Grupo_945642" data-name="Grupo 945642" transform="translate(31.106 38.217)">
                    <path id="Trazado_650498" data-name="Trazado 650498" d="M289.676,228.515c-.3-.058-1.091-.216-1.992-.4a4.76,4.76,0,0,1-1-.323,12.769,12.769,0,0,1-3.738,2.245,18.523,18.523,0,0,1,10.43,16.661v9.014a3.783,3.783,0,0,1-3.783,3.783h11.324a3.783,3.783,0,0,0,3.783-3.783V246.7A18.519,18.519,0,0,0,289.676,228.515Z" transform="translate(-282.941 -227.794)" fill="#7296d1"/>
                  </g>
                  <path id="Trazado_650499" data-name="Trazado 650499" d="M132.956,254.578c-7.035-4.761-17.685-5.054-22-4.954a1.965,1.965,0,0,0-1.919,1.965v28.37a1.963,1.963,0,0,0,2.011,1.966c4.141-.089,13.812.195,20.759,4.233a5.413,5.413,0,0,0,5.448,0c9.062-5.267,22.76-4.146,22.77-4.143V251.59a1.965,1.965,0,0,0-1.919-1.965c-4.318-.1-14.968.193-22,4.954A2.8,2.8,0,0,1,132.956,254.578Z" transform="translate(-108.097 -207.609)" fill="#f7f4f7"/>
                  <g id="Grupo_945643" data-name="Grupo 945643" transform="translate(38.883 42.001)">
                    <path id="Trazado_650500" data-name="Trazado 650500" d="M338.9,249.624a55.64,55.64,0,0,0-11.121.853,1.965,1.965,0,0,1,1.716,1.95v30.065a55.266,55.266,0,0,1,11.324-.478V251.59A1.965,1.965,0,0,0,338.9,249.624Z" transform="translate(-327.774 -249.61)" fill="#edeaed"/>
                  </g>
                  <path id="Trazado_650501" data-name="Trazado 650501" d="M201.3,10.215A2.758,2.758,0,0,0,198.543,7.5H186.31a8.882,8.882,0,0,0-8.882,8.882v5.87a2.026,2.026,0,0,0,1.36,1.913l2.188.762a1.175,1.175,0,0,0,1.562-1.112l0-4.139c0-.066,0-.133,0-.2A2.837,2.837,0,0,1,187.5,17.8c2.018,2.255,6.161,5.692,11.852,4.316a1.422,1.422,0,0,1,1.614.74h0a2.632,2.632,0,0,0,3.221,1.311,2.026,2.026,0,0,0,1.36-1.913V14.5a2.71,2.71,0,0,0-2.665-2.709A1.605,1.605,0,0,1,201.3,10.215Z" transform="translate(-164.627 -7.5)" fill="#89808c"/>
                  <path id="Trazado_650502" data-name="Trazado 650502" d="M252.239,38.258a2.05,2.05,0,0,0-2.046-2.053l-.767,0-.013-3.093c-.025-5.936-4.514-8.431-9.826-8.841a6.97,6.97,0,0,1,1.323,4.092l.006,16.359A10.657,10.657,0,0,1,237.4,52.57a12.308,12.308,0,0,1-3.473,2.169,11.543,11.543,0,0,0,4.316.851,11.723,11.723,0,0,0,7.691-3.021,10.658,10.658,0,0,0,3.518-7.845l.771,0a2.05,2.05,0,0,0,2.029-2.071Z" transform="translate(-211.322 -21.364)" fill="#ffddce"/>
                  <path id="Trazado_650503" data-name="Trazado 650503" d="M245.194,11.795a1.605,1.605,0,0,1-1.579-1.58A2.758,2.758,0,0,0,240.857,7.5H229.525a7,7,0,0,1,7,7l0,7.607a10.571,10.571,0,0,0,5.133,0,1.422,1.422,0,0,1,1.614.74h0a2.632,2.632,0,0,0,3.221,1.311,2.026,2.026,0,0,0,1.36-1.913V14.5A2.709,2.709,0,0,0,245.194,11.795Z" transform="translate(-206.941 -7.5)" fill="#756e78"/>
                </g>
              </g>
            </g>
          </g>
          <g id="Grupo_945650" data-name="Grupo 945650" transform="translate(4.149 46.452)">
            <g id="Grupo_945648" data-name="Grupo 945648" transform="translate(0 0)">
              <path id="Trazado_650504" data-name="Trazado 650504" d="M293.315,275.283c-4.43-.1-15.1.185-22.59,4.725v34.433q.177-.087.349-.187c7.765-4.514,18.722-4.63,22.737-4.5a1.5,1.5,0,0,0,1.552-1.5V277.38a2.1,2.1,0,0,0-2.047-2.1Z" transform="translate(-240.974 -275.268)" fill="#dcad58"/>
              <path id="Trazado_650505" data-name="Trazado 650505" d="M123.868,280.008c-7.486-4.539-18.161-4.827-22.591-4.725a2.1,2.1,0,0,0-2.047,2.1v30.87a1.5,1.5,0,0,0,1.552,1.5c4.015-.131,14.972-.015,22.737,4.5q.172.1.349.187Z" transform="translate(-99.23 -275.268)" fill="#dcad58"/>
            </g>
            <g id="Grupo_945649" data-name="Grupo 945649" transform="translate(40.447)">
              <path id="Trazado_650506" data-name="Trazado 650506" d="M344.276,275.283a59.286,59.286,0,0,0-11.894.915l.55.01a2.1,2.1,0,0,1,2.047,2.1v30.87a1.5,1.5,0,0,1-.521,1.138,60.847,60.847,0,0,1,10.313-.557,1.5,1.5,0,0,0,1.552-1.5V277.38A2.1,2.1,0,0,0,344.276,275.283Z" transform="translate(-332.382 -275.268)" fill="#e8ae4d"/>
            </g>
            <path id="Trazado_650507" data-name="Trazado 650507" d="M239.829,301.738c-.25-.159-.505-.313-.763-.462v34.457l.03.017a5.774,5.774,0,0,0,5.811,0l.03-.017V301.276q-.387.224-.763.462A4.042,4.042,0,0,1,239.829,301.738Z" transform="translate(-214.807 -296.764)" fill="#e49542"/>
          </g>
          <path id="Trazado_650508" data-name="Trazado 650508" d="M77.2,347.955l2.259-1.384v2.206a1.642,1.642,0,0,0,1.642,1.642H82.18a2.967,2.967,0,0,1,2.967,2.967v3.865a1.853,1.853,0,0,1-1.853,1.853H79.582a4.27,4.27,0,0,1-4.27-4.27v-3.5A3.958,3.958,0,0,1,77.2,347.955Z" transform="translate(-75.312 -287.749)" fill="#ffece4"/>
          <path id="Trazado_650509" data-name="Trazado 650509" d="M387.941,347.955l-2.259-1.384v2.206a1.642,1.642,0,0,1-1.642,1.642h-1.078A2.967,2.967,0,0,0,380,353.385v3.865a1.853,1.853,0,0,0,1.853,1.853h3.712a4.27,4.27,0,0,0,4.27-4.27v-3.5a3.958,3.958,0,0,0-1.89-3.375Z" transform="translate(-327.139 -287.749)" fill="#ffddce"/>
        </g>
      </g>
      <g id="Grupo_945653" data-name="Grupo 945653" transform="translate(67.813 0)">
        <path id="Trazado_650510" data-name="Trazado 650510" d="M297.592,328.713a1.3,1.3,0,1,0,.817,2.471,48.558,48.558,0,0,1,12.769-2.123,1.3,1.3,0,1,0-.107-2.6A51.169,51.169,0,0,0,297.592,328.713Z" transform="translate(-256.992 -269.825)"/>
        <path id="Trazado_650511" data-name="Trazado 650511" d="M128.953,59.392V57.754a1.3,1.3,0,0,0-2.6,0v4.624a.34.34,0,0,1-.336.292h-1.078a4.273,4.273,0,0,0-4.268,4.268V70.8a3.158,3.158,0,0,0,3.155,3.155h2.527v6.779a.2.2,0,0,1-.208.2c-4.027-.132-13.7,0-21.448,3.641V53.039c7.182-3.843,16.936-4.06,20.88-3.969a.815.815,0,0,1,.144.018l.017,0a.79.79,0,0,1,.616.776v1.791a1.3,1.3,0,0,0,2.6,0V49.866a3.378,3.378,0,0,0-1.7-2.951V45.283a3.247,3.247,0,0,0-3.19-3.266c-1.117-.026-2.664-.026-4.469.071a19.652,19.652,0,0,0-7.479-3.126,12.4,12.4,0,0,1-2.712-.631h0a3.524,3.524,0,0,1-2.1-3.219v-.037a14.17,14.17,0,0,0,2.193-1.588,11.853,11.853,0,0,0,3.877-7.556,3.359,3.359,0,0,0,2.882-3.343l-.01-4.4a3.367,3.367,0,0,0-.179-1.063,3.315,3.315,0,0,0,.18-1.074V8.305a4.029,4.029,0,0,0-3.945-4.01A.3.3,0,0,1,112,4a4.076,4.076,0,0,0-4.058-4H95.711a10.223,10.223,0,0,0-9.966,8.083,1.3,1.3,0,1,0,2.547.534A7.609,7.609,0,0,1,95.711,2.6h12.233A1.463,1.463,0,0,1,109.4,4.036,2.894,2.894,0,0,0,112.259,6.9a1.415,1.415,0,0,1,1.386,1.408v7.747a.726.726,0,0,1-.486.685,1.334,1.334,0,0,1-1.629-.664,2.712,2.712,0,0,0-3.084-1.424c-5.059,1.222-8.8-1.931-10.577-3.919a4.168,4.168,0,0,0-4.515-1.148,4.006,4.006,0,0,0-2.715,3.633c-.011.216,0-.04,0,4.226l-2.021-.7a.726.726,0,0,1-.486-.685V14.424a1.3,1.3,0,0,0-2.6,0v1.628a3.321,3.321,0,0,0,.039.5,4.216,4.216,0,0,0-.907,2.62l0,2.657a4.237,4.237,0,0,0,3.777,4.2,11.851,11.851,0,0,0,3.94,7.522,14.618,14.618,0,0,0,1.233.953v.6a3.5,3.5,0,0,1-1.675,3h0c-.65.4-1.024.447-3.136.854a19.653,19.653,0,0,0-7.48,3.127c-1.8-.1-3.351-.1-4.468-.071a3.247,3.247,0,0,0-3.19,3.266v1.633a3.378,3.378,0,0,0-1.7,2.951v9.528c-.6.526-4.149,1.668-4.149,5.488v3.5a5.581,5.581,0,0,0,4.149,5.386v6.964a2.8,2.8,0,0,0,2.9,2.805c12.458-.406,19.543,2.877,22.013,4.307h0l0,0,.032.018a7.1,7.1,0,0,0,7.106,0l.034-.019h0c2.471-1.431,9.559-4.712,22.01-4.306a2.8,2.8,0,0,0,2.9-2.805V73.773a5.581,5.581,0,0,0,4.153-5.388v-3.5c0-3.815-3.576-4.98-4.154-5.49ZM90.948,24.725a1.3,1.3,0,0,0-1.3-1.268h-.754a1.631,1.631,0,0,1-1.629-1.628c0-2.807-.012-2.665.01-2.849a3.329,3.329,0,0,0,.487.215l2.188.762a2.477,2.477,0,0,0,3.291-2.342c0-4.818-.007-4.177,0-4.272a1.444,1.444,0,0,1,.985-1.307,1.558,1.558,0,0,1,1.707.431c2.166,2.422,6.752,6.254,13.128,4.714a.123.123,0,0,1,.144.057,3.942,3.942,0,0,0,4.445,2.067l.007,3.291a.75.75,0,0,1-.733.764l-.771,0a1.3,1.3,0,0,0-1.3,1.279,9.355,9.355,0,0,1-3.076,6.89,10.138,10.138,0,0,1-13.7.058,9.352,9.352,0,0,1-3.134-6.863ZM104.8,36.2a6.128,6.128,0,0,0,1.825,3.363,10.55,10.55,0,0,1-11.974-.37,6.062,6.062,0,0,0,1.511-3.3A12.454,12.454,0,0,0,104.8,36.2Zm-15.51,5.317a15.017,15.017,0,0,0,3.137-.746,13.2,13.2,0,0,0,16.69.223c.39.114,2.114.448,2.5.523a17.245,17.245,0,0,1,3.357,1.007c-4.533.623-9.653,1.945-13.68,4.67a1.5,1.5,0,0,1-1.683,0c-4.027-2.725-9.149-4.047-13.681-4.67A17.234,17.234,0,0,1,89.293,41.516Zm-12.379,3.1c1.153-.027,2.789-.025,4.693.09l.03,0c4.936.3,11.669,1.356,16.521,4.639a4.085,4.085,0,0,0,4.6,0c6.736-4.558,17.1-4.827,21.244-4.73a.66.66,0,0,1,.648.665v1.172c-7.4-.045-16.472,1.2-22.718,5.175a2.724,2.724,0,0,1-2.949,0c-6.233-3.964-15.3-5.22-22.718-5.175V45.282A.66.66,0,0,1,76.913,44.618Zm-6.5,23.768v-3.5a2.836,2.836,0,0,1,1.548-2.437,2.946,2.946,0,0,0,2.94,2.827h1.078a1.667,1.667,0,0,1,1.666,1.666V70.8a.553.553,0,0,1-.552.552H73.384a2.972,2.972,0,0,1-2.969-2.969ZM74.773,80.94a.2.2,0,0,1-.208-.2V73.957H77.1A3.158,3.158,0,0,0,80.25,70.8V66.938a4.273,4.273,0,0,0-4.268-4.268H74.9a.34.34,0,0,1-.34-.332V49.866a.79.79,0,0,1,.615-.776l.019,0a.817.817,0,0,1,.142-.017c3.944-.092,13.7.126,20.88,3.969V84.581C88.473,80.945,78.8,80.81,74.773,80.94Zm27.319,4.972a4.5,4.5,0,0,1-3.269,0V54.4a5.4,5.4,0,0,0,3.269,0ZM130.5,68.386a2.972,2.972,0,0,1-2.969,2.969h-3.712a.553.553,0,0,1-.552-.552V66.937a1.667,1.667,0,0,1,1.666-1.666h1.078a2.951,2.951,0,0,0,2.94-2.827l.28.172a2.673,2.673,0,0,1,1.269,2.265v3.5Z" transform="translate(-67.813 0)"/>
      </g>
    </g>
  </g>
</svg>
