<svg xmlns="http://www.w3.org/2000/svg" width="101" height="101" viewBox="0 0 101 101">
  <g id="_8" data-name="8" transform="translate(-3621 10092.189)">
    <circle id="Elipse_7553" data-name="Elipse 7553" cx="50.5" cy="50.5" r="50.5" transform="translate(3621 -10092.189)" fill="#fcd03e"/>
    <g id="_035---Creative-Writing" data-name="035---Creative-Writing" transform="translate(3644.818 -10086.869)">
      <g id="Icons" transform="translate(1.389 9.727)">
        <rect id="Rectangle-path" width="47.237" height="56.962" rx="3" transform="translate(0 15.281)" fill="#dfc49c"/>
        <rect id="Rectangle-path-2" data-name="Rectangle-path" width="43.069" height="56.962" rx="3" transform="translate(0 15.281)" fill="#ffe0b2"/>
        <path id="Shape" d="M24.118,15v5.557H13c0-4.886.01-5.389-.014-5.557Z" transform="translate(5.057 5.839)" fill="#9e9e9e"/>
        <path id="Shape-2" data-name="Shape" d="M27.187,15.962a7.607,7.607,0,0,0-1.9,4.877H14.155a8.5,8.5,0,0,0-2-5,9.725,9.725,0,1,1,15.032.125Z" transform="translate(3.892 0)" fill="#ffdc00"/>
        <path id="Shape-3" data-name="Shape" d="M24.115,19v2.779a2.787,2.787,0,0,1-2.779,2.779H15.779A2.787,2.787,0,0,1,13,21.779V19Z" transform="translate(5.061 7.396)" fill="#707070"/>
        <path id="Shape-4" data-name="Shape" d="M20.557,23v2.779a2.779,2.779,0,1,1-5.557,0V23Z" transform="translate(5.84 8.953)" fill="#37474f"/>
        <path id="Shape-5" data-name="Shape" d="M25.049,15.963a7.607,7.607,0,0,0-1.9,4.877H18.977a7.607,7.607,0,0,1,1.9-4.877A9.741,9.741,0,0,0,15.49.222a9.742,9.742,0,0,1,9.559,15.741Z" transform="translate(6.031 -0.001)" fill="#fec108"/>
        <path id="Shape-6" data-name="Shape" d="M49.124,29.69l-22.6,22.6L18.67,44.43,41.26,21.84Z" transform="translate(7.269 8.501)" fill="#02a9f4"/>
        <path id="Shape-7" data-name="Shape" d="M28.17,45.964c-11.254,4.821-13.5,5.724-13.74,5.877L20.321,38.1Z" transform="translate(5.618 14.832)" fill="#9e9e9e"/>
        <path id="Shape-8" data-name="Shape" d="M48.684,25.91,42.794,31.8l-7.864-7.85,5.891-5.9a5.56,5.56,0,0,1,7.864,7.864Z" transform="translate(13.599 6.39)" fill="#02a9f4"/>
        <path id="Shape-9" data-name="Shape" d="M47.7,28.265l-22.6,22.6L22.33,48.09,44.92,25.5Z" transform="translate(8.694 9.926)" fill="#0377bc"/>
        <path id="Shape-10" data-name="Shape" d="M28.17,44.535c-11.254,4.821-13.5,5.724-13.74,5.877l2.084-4.849c2.042-.875,4.89-2.1,8.878-3.793Z" transform="translate(5.618 16.261)" fill="#707070"/>
        <path id="Shape-11" data-name="Shape" d="M47.259,25.769,41.369,31.66,38.59,28.895,44.481,23a5.557,5.557,0,0,0,1.125-6.224,5.557,5.557,0,0,1,1.653,8.989Z" transform="translate(15.024 6.531)" fill="#0377bc"/>
      </g>
      <g id="Outline" transform="translate(0)">
        <path id="Shape-12" data-name="Shape" d="M14.714,21.286H5.557A5.557,5.557,0,0,0,0,26.843V75.469a5.557,5.557,0,0,0,5.557,5.557h38.9a5.557,5.557,0,0,0,5.557-5.557V62.59a1.389,1.389,0,0,0-2.779,0V75.469a2.779,2.779,0,0,1-2.779,2.779H5.557a2.779,2.779,0,0,1-2.779-2.779V26.843a2.779,2.779,0,0,1,2.779-2.779H16.331a7.1,7.1,0,0,1,1.73,4.446v8.058a4.168,4.168,0,0,0,2.779,3.912c0,1.774-.182,3.214,1.214,4.574a4.168,4.168,0,0,0,7.122-2.929V40.481a4.168,4.168,0,0,0,2.779-3.912V28.246a6.441,6.441,0,0,1,1.72-4.182H44.458a2.779,2.779,0,0,1,2.779,2.779,1.389,1.389,0,0,0,1.389,1.389c2.906,0,1.131-6.947-4.168-6.947H35.312a11.115,11.115,0,1,0-20.6,0Zm14.461,8.336V32.4H20.84V29.622ZM25.008,43.515a1.4,1.4,0,0,1-1.389-1.389V40.736H26.4v1.389A1.389,1.389,0,0,1,25.008,43.515Zm4.168-6.947a1.389,1.389,0,0,1-1.389,1.389H22.229a1.389,1.389,0,0,1-1.389-1.389V35.179h8.336ZM19.451,10.9A8.336,8.336,0,0,1,31.406,22.464a9.281,9.281,0,0,0-2.091,4.379H26.4V19.9a1.389,1.389,0,0,0-2.779,0v6.947H20.673c-.868-4.489-4-4.915-4-9.725A8.348,8.348,0,0,1,19.451,10.9Z" transform="translate(0 2.333)"/>
        <path id="Shape-13" data-name="Shape" d="M19.779,4.168V1.389a1.389,1.389,0,0,0-2.779,0V4.168a1.389,1.389,0,1,0,2.779,0Z" transform="translate(6.618)"/>
        <path id="Shape-14" data-name="Shape" d="M29.389,15.779h2.779a1.389,1.389,0,1,0,0-2.779H29.389a1.389,1.389,0,1,0,0,2.779Z" transform="translate(10.901 5.061)"/>
        <path id="Shape-15" data-name="Shape" d="M8.168,13H5.389a1.389,1.389,0,1,0,0,2.779H8.168a1.389,1.389,0,1,0,0-2.779Z" transform="translate(1.557 5.061)"/>
        <path id="Shape-16" data-name="Shape" d="M29.12,23.154,27.155,21.19a1.389,1.389,0,1,0-1.965,1.965l1.963,1.966a1.39,1.39,0,0,0,1.966-1.966Z" transform="translate(9.642 8.085)"/>
        <path id="Shape-17" data-name="Shape" d="M10.18,8.144A1.389,1.389,0,1,0,12.144,6.18L10.18,4.214A1.39,1.39,0,0,0,8.214,6.18Z" transform="translate(3.039 1.482)"/>
        <path id="Shape-18" data-name="Shape" d="M10.18,25.12l1.965-1.965a1.389,1.389,0,1,0-1.965-1.965L8.214,23.154A1.39,1.39,0,0,0,10.18,25.12Z" transform="translate(3.039 8.085)"/>
        <path id="Shape-19" data-name="Shape" d="M27.145,4.214,25.18,6.18a1.389,1.389,0,0,0,1.965,1.965L29.111,6.18a1.39,1.39,0,0,0-1.966-1.966Z" transform="translate(9.651 1.482)"/>
        <path id="Shape-20" data-name="Shape" d="M5,27.389a1.389,1.389,0,0,0,1.389,1.389h5.557a1.389,1.389,0,1,0,0-2.779H6.389A1.389,1.389,0,0,0,5,27.389Z" transform="translate(1.947 10.122)"/>
        <path id="Shape-21" data-name="Shape" d="M27.779,26H26.389a1.389,1.389,0,1,0,0,2.779h1.389a1.389,1.389,0,0,0,0-2.779Z" transform="translate(9.733 10.122)"/>
        <path id="Shape-22" data-name="Shape" d="M6.389,33.779h5.557a1.389,1.389,0,0,0,0-2.779H6.389a1.389,1.389,0,0,0,0,2.779Z" transform="translate(1.947 12.069)"/>
        <path id="Shape-23" data-name="Shape" d="M6.389,43.779H21.825a1.389,1.389,0,0,0,0-2.779H6.389a1.389,1.389,0,0,0,0,2.779Z" transform="translate(1.947 15.962)"/>
        <path id="Shape-24" data-name="Shape" d="M19.588,47.389A1.389,1.389,0,0,0,18.2,46H6.389a1.389,1.389,0,0,0,0,2.779H18.2A1.389,1.389,0,0,0,19.588,47.389Z" transform="translate(1.947 17.909)"/>
        <path id="Shape-25" data-name="Shape" d="M6.389,51a1.389,1.389,0,0,0,0,2.779h8.836a1.389,1.389,0,0,0,0-2.779Z" transform="translate(1.947 19.855)"/>
        <path id="Shape-26" data-name="Shape" d="M6.389,38.779H28.771a1.389,1.389,0,1,0,0-2.779H6.389a1.389,1.389,0,1,0,0,2.779Z" transform="translate(1.947 14.016)"/>
        <path id="Shape-27" data-name="Shape" d="M54.127,22.423c-3.319,0-4.774,1.9-6.877,4l-.982-.982a4.168,4.168,0,0,0-5.894,0l-8.842,8.84A1.39,1.39,0,0,0,33.5,36.247l8.842-8.842a1.389,1.389,0,0,1,1.965,0l.982.982C19.126,54.544,20.6,52.978,20.416,53.406c-.556,1.118,1.988-4.64-5.884,13.729a1.389,1.389,0,0,0,1.281,1.937c.407,0-.66.4,14.3-6.007.564-.242.318-.171,28.924-28.784a6.958,6.958,0,0,0-4.911-11.858ZM18.459,65.043l3.714-8.68,4.957,4.957Zm11.115-5.214-5.9-5.9L44.3,33.3,50.2,39.192ZM57.082,32.321l-4.92,4.908-5.895-5.895L51.18,26.42a4.268,4.268,0,0,1,5.894,0,4.168,4.168,0,0,1,0,5.9Z" transform="translate(5.614 8.73)"/>
      </g>
    </g>
  </g>
</svg>
