<svg xmlns="http://www.w3.org/2000/svg" width="29.627" height="32.001" viewBox="0 0 29.627 32.001">
  <g id="i1" transform="translate(-18.992)">
    <g id="Grupo_947410" data-name="Grupo 947410" transform="translate(19.351 0.342)">
      <g id="Grupo_947398" data-name="Grupo 947398" transform="translate(0)">
        <path id="Trazado_655021" data-name="Trazado 655021" d="M25.432,5.467H49.177a.694.694,0,0,1,.693.693V36.091a.7.7,0,0,1-.693.693H25.432a.7.7,0,0,1-.693-.693V6.16a.694.694,0,0,1,.693-.693Z" transform="translate(-24.739 -5.467)" fill="#b7ceac" fill-rule="evenodd"/>
      </g>
      <g id="Grupo_947399" data-name="Grupo 947399" transform="translate(22.138 4.894)">
        <path id="Trazado_655022" data-name="Trazado 655022" d="M379.624,83.772V109.5a.7.7,0,0,1-.693.693h2.3a.7.7,0,0,0,.693-.693V83.772Z" transform="translate(-378.931 -83.772)" fill="#a8b7a3" fill-rule="evenodd"/>
      </g>
      <g id="Grupo_947400" data-name="Grupo 947400" transform="translate(0 0)">
        <path id="Trazado_655023" data-name="Trazado 655023" d="M24.739,10.361H49.87V6.16a.694.694,0,0,0-.693-.693H25.432a.694.694,0,0,0-.693.693Z" transform="translate(-24.739 -5.467)" fill="#2b6e17" fill-rule="evenodd"/>
      </g>
      <g id="Grupo_947401" data-name="Grupo 947401" transform="translate(22.138 0)">
        <path id="Trazado_655024" data-name="Trazado 655024" d="M379.624,6.16v4.2h2.3V6.16a.694.694,0,0,0-.693-.693h-2.3A.694.694,0,0,1,379.624,6.16Z" transform="translate(-378.931 -5.467)" fill="#1a5615" fill-rule="evenodd"/>
      </g>
      <g id="Grupo_947402" data-name="Grupo 947402" transform="translate(18.179 24.633)">
        <path id="Trazado_655025" data-name="Trazado 655025" d="M317.843,400.623l-.9-1.031-1.175.045-.168,2.579a.2.2,0,0,0,.347.164Z" transform="translate(-315.603 -399.592)" fill="#9c9c9c" fill-rule="evenodd"/>
      </g>
      <g id="Grupo_947403" data-name="Grupo 947403" transform="translate(18.513 9.701)">
        <path id="Trazado_655026" data-name="Trazado 655026" d="M326.841,160.677l-5.894,12.4,1.67,1.534,2.131.271,5.894-12.4Z" transform="translate(-320.947 -160.677)" fill="#2b6e17" fill-rule="evenodd"/>
      </g>
      <g id="Grupo_947404" data-name="Grupo 947404" transform="translate(24.134 7.753)">
        <path id="Trazado_655027" data-name="Trazado 655027" d="M410.881,132.041l3.8,1.808.857-1.8a1.4,1.4,0,0,0-.754-1.818l-.581-.277-.581-.277a1.4,1.4,0,0,0-1.886.564Z" transform="translate(-410.881 -129.518)" fill="#f6f6f6" fill-rule="evenodd"/>
      </g>
      <g id="Grupo_947405" data-name="Grupo 947405" transform="translate(26.608 7.872)">
        <path id="Trazado_655028" data-name="Trazado 655028" d="M450.647,131.412a1.389,1.389,0,0,1,.672,1.777l-.857,1.8,1.327.631.857-1.8a1.4,1.4,0,0,0-.754-1.818l-.581-.277-.581-.277C450.7,131.435,450.675,131.423,450.647,131.412Z" transform="translate(-450.461 -131.412)" fill="#dcdcdc" fill-rule="evenodd"/>
      </g>
      <g id="Grupo_947406" data-name="Grupo 947406" transform="translate(20.989 11.453)">
        <path id="Trazado_655029" data-name="Trazado 655029" d="M366.175,188.712l-5.619,11.821,1.325.631,5.621-11.821Z" transform="translate(-360.556 -188.712)" fill="#1a5615" fill-rule="evenodd"/>
      </g>
      <g id="Grupo_947407" data-name="Grupo 947407" transform="translate(18.179 25.034)">
        <path id="Trazado_655030" data-name="Trazado 655030" d="M317.842,406.625l-1.325-.63-.82.759-.095,1.465a.2.2,0,0,0,.346.164Z" transform="translate(-315.602 -405.994)" fill="#838383" fill-rule="evenodd"/>
      </g>
      <g id="Grupo_947408" data-name="Grupo 947408" transform="translate(18.347 22.099)">
        <path id="Trazado_655031" data-name="Trazado 655031" d="M322.256,360.846l-3.8-1.806-.166,2.579,2.072.986Z" transform="translate(-318.289 -359.04)" fill="#fcd79f" fill-rule="evenodd"/>
      </g>
      <g id="Grupo_947409" data-name="Grupo 947409" transform="translate(19.094 23.274)">
        <path id="Trazado_655032" data-name="Trazado 655032" d="M333.455,378.475l-1.325-.63-1.9,1.759,1.325.63Z" transform="translate(-330.235 -377.844)" fill="#fac574" fill-rule="evenodd"/>
      </g>
    </g>
    <g id="Grupo_947411" data-name="Grupo 947411" transform="translate(18.992 0)">
      <path id="Trazado_655033" data-name="Trazado 655033" d="M96.282,143.612a1.342,1.342,0,0,0-1.341-1.34H93.889a.65.65,0,0,0-.65.649v3.441a.65.65,0,0,0,.65.649h1.533a1.342,1.342,0,0,0,1.341-1.34v-.158a1.339,1.339,0,0,0-.629-1.134,1.331,1.331,0,0,0,.148-.61Zm-2.106-.4h.765a.4.4,0,0,1,.4.4v.158a.409.409,0,0,1-.4.4h-.765Zm1.649,2.462a.4.4,0,0,1-.4.4H94.177v-.964h1.245a.4.4,0,0,1,.4.4v.158Z" transform="translate(-88.598 -133.38)"/>
      <path id="Trazado_655034" data-name="Trazado 655034" d="M230.386,147.011a1.656,1.656,0,0,0,1.655-1.654v-1.432a1.656,1.656,0,0,0-1.655-1.654h-.214a1.656,1.656,0,0,0-1.655,1.654v1.432a1.656,1.656,0,0,0,1.655,1.654Zm-.932-1.654v-1.432a.718.718,0,0,1,.717-.716h.214a.718.718,0,0,1,.717.716v1.432a.718.718,0,0,1-.717.717h-.214A.718.718,0,0,1,229.455,145.357Z" transform="translate(-215.421 -133.379)"/>
      <path id="Trazado_655035" data-name="Trazado 655035" d="M166.451,142.271a.469.469,0,0,0-.469.469v3.8a.469.469,0,0,0,.469.469h2.269a.469.469,0,1,0,0-.938h-1.8V142.74A.469.469,0,0,0,166.451,142.271Z" transform="translate(-156.795 -133.379)"/>
      <path id="Trazado_655036" data-name="Trazado 655036" d="M325.212,40.536a.469.469,0,0,0-.469.469v.005a.469.469,0,1,0,.469-.474Z" transform="translate(-305.633 -38.002)"/>
      <path id="Trazado_655037" data-name="Trazado 655037" d="M286.67,40.422a.469.469,0,0,0-.469.469V40.9a.469.469,0,0,0,.938,0v-.007A.469.469,0,0,0,286.67,40.422Z" transform="translate(-269.5 -37.896)"/>
      <path id="Trazado_655038" data-name="Trazado 655038" d="M363.753,40.734a.469.469,0,0,0-.469.469v.007a.469.469,0,0,0,.938,0V41.2A.469.469,0,0,0,363.753,40.734Z" transform="translate(-341.765 -38.188)"/>
      <path id="Trazado_655039" data-name="Trazado 655039" d="M86.882,40.621H76.635a.469.469,0,1,0,0,.938H86.882a.469.469,0,0,0,0-.938Z" transform="translate(-72.593 -38.082)"/>
      <path id="Trazado_655040" data-name="Trazado 655040" d="M299.663,143.209h1.521a.469.469,0,0,0,0-.938h-1.521a1.333,1.333,0,0,0-1.323,1.4v2.089a1.257,1.257,0,0,0,1.247,1.252h.986a1.329,1.329,0,0,0,1.417-1.39V145.3a1.193,1.193,0,0,0-1.263-1.231h-.261a.469.469,0,1,0,0,.938h.261c.169,0,.325.036.325.293v.322c0,.124,0,.453-.48.453h-.986c-.291,0-.309-.311-.309-.314V143.67C299.278,143.385,299.425,143.209,299.663,143.209Z" transform="translate(-280.88 -133.379)"/>
      <path id="Trazado_655041" data-name="Trazado 655041" d="M48.479,9.468a1.986,1.986,0,0,0-.992-1.03l-1.153-.55a1.993,1.993,0,0,0-1.466-.105V1.156A1.158,1.158,0,0,0,43.713,0H20.149a1.158,1.158,0,0,0-1.157,1.156V15.672a.469.469,0,1,0,.938,0V5.792h24V8.5a1.655,1.655,0,0,0-.093.169L41.877,12.8a.469.469,0,0,0,.847.4l.91-1.912,2.925,1.39L41.383,23.555l-2.925-1.389L41.8,15.132a.469.469,0,0,0-.847-.4l-1.1,2.3H26.053a.469.469,0,0,0,0,.938H39.415l-1.14,2.4H22.853a.469.469,0,0,0,0,.938H37.829l-.419.882a.468.468,0,0,0-.044.171L37.278,23.7H22.962a.469.469,0,0,0,0,.938H37.218l-.184,2.835q0,.019,0,.038a.681.681,0,0,0,.378.625.637.637,0,0,0,.275.062.728.728,0,0,0,.449-.164l.029-.025,3.76-3.489a.469.469,0,0,0,.1-.142l1.9-4V30.844a.222.222,0,0,1-.219.219H20.149a.222.222,0,0,1-.219-.219V17.837a.469.469,0,1,0-.938,0V30.844A1.158,1.158,0,0,0,20.149,32H43.713a1.158,1.158,0,0,0,1.157-1.156V18.409l3.589-7.543a1.7,1.7,0,0,0,.022-1.4ZM38.012,26.874l.078-1.207.808.385Zm1.626-1.509-1.483-.705.1-1.551,2.523,1.2Zm4.293-20.51h-24v-3.7a.219.219,0,0,1,.219-.219H43.713a.219.219,0,0,1,.219.219Zm3.679,5.609-.65,1.366-2.925-1.39.65-1.366a.92.92,0,0,1,1.247-.338l1.153.55a1.051,1.051,0,0,1,.528.542.777.777,0,0,1,0,.637Z" transform="translate(-18.992 0)"/>
    </g>
  </g>
</svg>
