<svg xmlns="http://www.w3.org/2000/svg" width="28.167" height="32.191" viewBox="0 0 28.167 32.191">
  <g id="i3" transform="translate(-32)">
    <path id="Trazado_654996" data-name="Trazado 654996" d="M40,200H67.161v19.113H40Z" transform="translate(-7.497 -187.426)" fill="#2b6e17"/>
    <path id="Trazado_654997" data-name="Trazado 654997" d="M40,480H67.161v1.509H40Z" transform="translate(-7.497 -449.821)" fill="#1a5615"/>
    <path id="Trazado_654998" data-name="Trazado 654998" d="M59.664,212.119H32.5a.5.5,0,0,1-.5-.5V208.1a.5.5,0,0,1,1.006,0v3.018H59.161V193.006H33.006v13.077a.5.5,0,1,1-1.006,0V192.5a.5.5,0,0,1,.5-.5H59.664a.5.5,0,0,1,.5.5v19.113A.5.5,0,0,1,59.664,212.119Z" transform="translate(0 -179.929)"/>
    <path id="Trazado_654999" data-name="Trazado 654999" d="M67.161,42.563,53.58,53.125,40,42.563,53.58,32Z" transform="translate(-7.497 -29.988)" fill="#256718"/>
    <path id="Trazado_655000" data-name="Trazado 655000" d="M53.58,193.557,41.293,184,40,185.006l13.58,10.563,13.58-10.563L65.868,184Z" transform="translate(-7.497 -172.431)" fill="#1a5615"/>
    <path id="Trazado_655001" data-name="Trazado 655001" d="M45.782,46.03,32.2,35.468a.5.5,0,0,1,0-.793l13.58-10.563a.5.5,0,0,1,.617,0l10.06,7.823a.5.5,0,1,1-.617.794l-9.751-7.584L33.328,35.071,46.091,45l12.763-9.926-1-.776a.5.5,0,0,1,.616-.8l1.509,1.174a.5.5,0,0,1,0,.793L46.4,46.029A.5.5,0,0,1,45.782,46.03Z" transform="translate(-0.007 -22.497)"/>
    <path id="Trazado_655002" data-name="Trazado 655002" d="M108.119,8V22.81L98.06,30.634,88,22.81V8Z" transform="translate(-52.479 -7.497)" fill="#b7ceac"/>
    <path id="Trazado_655003" data-name="Trazado 655003" d="M116.119,211.56v2.012L106.06,221.4,96,213.572V211.56l10.06,7.824Z" transform="translate(-59.976 -198.259)" fill="#87a679"/>
    <path id="Trazado_655004" data-name="Trazado 655004" d="M98.254,23.534l-10.06-7.823a.5.5,0,0,1-.194-.4V.5a.5.5,0,0,1,.5-.5h20.119a.5.5,0,0,1,.5.5v14.81a.5.5,0,0,1-.194.4l-10.06,7.823A.5.5,0,0,1,98.254,23.534Zm-9.248-8.466L98.563,22.5l9.557-7.433V1.006H89.006Z" transform="translate(-52.479 0)"/>
    <path id="Trazado_655005" data-name="Trazado 655005" d="M246.036,56v8.048A8.5,8.5,0,0,0,240,61.533c0-3.108.006-3.018,0-3.018A8.5,8.5,0,0,0,246.036,56Z" transform="translate(-194.923 -52.479)" fill="#f6f6f6"/>
    <path id="Trazado_655006" data-name="Trazado 655006" d="M240,120v1.509a8.5,8.5,0,0,1,6.036,2.515v-1.509A8.5,8.5,0,0,0,240,120Z" transform="translate(-194.923 -112.455)" fill="#dcdcdc"/>
    <path id="Trazado_655007" data-name="Trazado 655007" d="M238.184,56.91a7.948,7.948,0,0,0-5.681-2.368.5.5,0,0,1-.5-.5V51.021a.5.5,0,0,1,.5-.5,7.946,7.946,0,0,0,5.681-2.368.5.5,0,0,1,.858.356v8.048a.5.5,0,0,1-.858.356Zm-5.178-3.36a8.92,8.92,0,0,1,5.03,1.886V49.625a8.917,8.917,0,0,1-5.03,1.886Z" transform="translate(-187.426 -44.985)"/>
    <path id="Trazado_655008" data-name="Trazado 655008" d="M328.5,50.06a.5.5,0,0,1-.5-.5V40.5a.5.5,0,1,1,1.006,0v9.054A.5.5,0,0,1,328.5,50.06Z" transform="translate(-277.39 -37.485)"/>
    <rect id="Rectángulo_336154" data-name="Rectángulo 336154" width="2.409" height="3.613" rx="1.204" transform="translate(42.47 5.256)" fill="#2b6e17"/>
    <path id="Trazado_655009" data-name="Trazado 655009" d="M194.515,120.5H192.5a.5.5,0,0,1-.5-.5v1.509a.5.5,0,0,0,.5.5h2.012a.5.5,0,0,0,.5-.5V120A.5.5,0,0,1,194.515,120.5Z" transform="translate(-149.94 -112.455)" fill="#1a5615"/>
    <path id="Trazado_655010" data-name="Trazado 655010" d="M187.018,85.03h-2.012A1.006,1.006,0,0,1,184,84.024V81.006A1.006,1.006,0,0,1,185.006,80h2.012a1.006,1.006,0,0,1,1.006,1.006v3.018A1.006,1.006,0,0,1,187.018,85.03Zm-2.012-4.024v3.018h2.012V81.006Z" transform="translate(-142.443 -74.97)"/>
    <path id="Trazado_655011" data-name="Trazado 655011" d="M200,152l.5,2.515h1.509V152Z" transform="translate(-157.437 -142.443)" fill="#f6f6f6"/>
    <path id="Trazado_655012" data-name="Trazado 655012" d="M194.519,147.521H193.01a.5.5,0,0,1-.493-.4l-.5-2.515a.5.5,0,0,1,.493-.6h2.012a.5.5,0,0,1,.5.5v2.515A.5.5,0,0,1,194.519,147.521Zm-1.1-1.006h.594v-1.509h-.9Z" transform="translate(-149.945 -134.946)"/>
    <path id="Trazado_655013" data-name="Trazado 655013" d="M161.509,99.018h.5V96h-.5a1.509,1.509,0,1,0,0,3.018Z" transform="translate(-119.952 -89.964)" fill="#f6f6f6"/>
    <path id="Trazado_655014" data-name="Trazado 655014" d="M160.207,108a1.509,1.509,0,0,0,1.306,2.263h.5v-1.509h-.5a1.509,1.509,0,0,1-1.306-.754Z" transform="translate(-119.957 -101.21)" fill="#dcdcdc"/>
    <path id="Trazado_655015" data-name="Trazado 655015" d="M154.515,92.024h-.5a2.012,2.012,0,0,1,0-4.024h.5a.5.5,0,0,1,.5.5v3.018A.5.5,0,0,1,154.515,92.024Zm-.5-3.018a1.006,1.006,0,0,0,0,2.012Z" transform="translate(-112.455 -82.467)"/>
    <path id="Trazado_655016" data-name="Trazado 655016" d="M179.066,225.006H168.5a.5.5,0,0,1,0-1.006h10.563a.5.5,0,0,1,0,1.006Z" transform="translate(-127.449 -209.917)"/>
    <path id="Trazado_655017" data-name="Trazado 655017" d="M192.551,265.006H184.5a.5.5,0,1,1,0-1.006h8.048a.5.5,0,0,1,0,1.006Z" transform="translate(-142.443 -247.402)"/>
    <path id="Trazado_655018" data-name="Trazado 655018" d="M67.161,346.563H40L53.58,336Z" transform="translate(-7.497 -314.875)" fill="#1a5615"/>
    <path id="Trazado_655019" data-name="Trazado 655019" d="M41.94,480,40,481.509H67.161L65.221,480Z" transform="translate(-7.497 -449.821)" fill="#11440f"/>
    <path id="Trazado_655020" data-name="Trazado 655020" d="M59.671,339.574H32.51a.5.5,0,0,1-.309-.9l13.58-10.563a.5.5,0,0,1,.617,0l13.58,10.563a.5.5,0,0,1-.309.9Zm-25.695-1.006H58.2L46.09,329.146Z" transform="translate(-0.007 -307.383)"/>
  </g>
</svg>
