<svg xmlns="http://www.w3.org/2000/svg" width="34.042" height="34.04" viewBox="0 0 34.042 34.04">
  <g id="i5" transform="translate(-14.075 -14.082)">
    <g id="Grupo_947425" data-name="Grupo 947425" transform="translate(14.075 14.082)">
      <path id="Trazado_655066" data-name="Trazado 655066" d="M43.3,17.55a4.253,4.253,0,0,1,3.277,4.116h0a4.251,4.251,0,0,1-3.536,4.168A8.265,8.265,0,0,0,36.561,29.3a8.089,8.089,0,0,0-5.706-2.355h0a8.038,8.038,0,0,0-2.7.465A16.561,16.561,0,0,1,43.3,17.55Z" transform="translate(-26.278 -17.088)" fill="#77ae43" fill-rule="evenodd"/>
      <path id="Trazado_655067" data-name="Trazado 655067" d="M25.825,120.679a8.263,8.263,0,0,0,3.464,6.485,8.088,8.088,0,0,0-2.357,5.7h0a8.1,8.1,0,0,0,.465,2.7,16.561,16.561,0,0,1-9.857-15.145h0a4.257,4.257,0,0,1,1.134-2.035,4.213,4.213,0,0,1,2.982-1.242h0a4.253,4.253,0,0,1,4.169,3.532Z" transform="translate(-17.078 -103.405)" fill="#2b6e17" fill-rule="evenodd"/>
      <path id="Trazado_655068" data-name="Trazado 655068" d="M179.7,28.148a16.561,16.561,0,0,1,9.857,15.145h0a4.261,4.261,0,0,1-1.134,2.035,4.213,4.213,0,0,1-2.982,1.242h0a4.253,4.253,0,0,1-4.169-3.532,8.262,8.262,0,0,0-3.464-6.485,8.089,8.089,0,0,0,2.357-5.7h0A8.091,8.091,0,0,0,179.7,28.148Z" transform="translate(-155.975 -26.273)" fill="#2b6e17" fill-rule="evenodd"/>
      <path id="Trazado_655069" data-name="Trazado 655069" d="M135.562,179.705a16.557,16.557,0,0,1-15.142,9.858h0a4.251,4.251,0,0,1-3.278-4.116h0a4.25,4.25,0,0,1,3.535-4.167,8.265,8.265,0,0,0,6.481-3.464,8.093,8.093,0,0,0,5.706,2.355h0a8.018,8.018,0,0,0,2.7-.465Z" transform="translate(-103.397 -155.984)" fill="#77ae43" fill-rule="evenodd"/>
      <path id="Trazado_655070" data-name="Trazado 655070" d="M18.653,23.474A8.506,8.506,0,0,1,24.3,25.606a8.67,8.67,0,0,1,6.493-3.238,3.765,3.765,0,0,0,.252-7.361,16.118,16.118,0,0,0-14.23,8.668A8.526,8.526,0,0,1,18.653,23.474Zm5.706,3.279a.461.461,0,0,1-.326-.133,7.621,7.621,0,0,0-7.927-1.783.462.462,0,0,1-.577-.622A17.041,17.041,0,0,1,31.1,14.083h0a.438.438,0,0,1,.1.012,4.688,4.688,0,0,1-.287,9.189.439.439,0,0,1-.059.006,7.757,7.757,0,0,0-6.12,3.271.465.465,0,0,1-.338.192Zm23.3,4.35h0Zm-7.823-.3a3.753,3.753,0,0,0,6.36,2.009,3.785,3.785,0,0,0,1-1.763,16.119,16.119,0,0,0-8.67-14.23,8.535,8.535,0,0,1-1.931,7.486A8.666,8.666,0,0,1,39.832,30.8Zm3.707,4.04a4.7,4.7,0,0,1-4.622-3.917.453.453,0,0,1-.009-.062,7.76,7.76,0,0,0-3.269-6.123.457.457,0,0,1-.193-.337.462.462,0,0,1,.13-.364,7.62,7.62,0,0,0,1.786-7.927.462.462,0,0,1,.622-.577A17.039,17.039,0,0,1,48.117,31.1a.622.622,0,0,1-.012.105,4.706,4.706,0,0,1-1.258,2.257,4.649,4.649,0,0,1-3.307,1.377ZM15,31.155a16.12,16.12,0,0,0,8.669,14.23A8.535,8.535,0,0,1,25.6,37.9a8.665,8.665,0,0,1-3.239-6.5A3.765,3.765,0,0,0,15,31.155Zm9.395,15.554a.462.462,0,0,1-.187-.039A17.041,17.041,0,0,1,14.075,31.1.617.617,0,0,1,14.087,31a4.705,4.705,0,0,1,1.258-2.257,4.689,4.689,0,0,1,7.932,2.54c0,.02,0,.041.006.063a7.762,7.762,0,0,0,3.269,6.123.455.455,0,0,1,.193.337.461.461,0,0,1-.13.364,7.62,7.62,0,0,0-1.785,7.927.46.46,0,0,1-.121.494A.455.455,0,0,1,24.394,46.709ZM31.4,39.837a3.765,3.765,0,0,0-.252,7.362,16.119,16.119,0,0,0,14.23-8.668A8.548,8.548,0,0,1,37.893,36.6,8.667,8.667,0,0,1,31.4,39.837Zm-.3,8.285a.466.466,0,0,1-.107-.012,4.688,4.688,0,0,1,.284-9.189.393.393,0,0,1,.062-.006,7.76,7.76,0,0,0,6.12-3.271.463.463,0,0,1,.7-.059,7.622,7.622,0,0,0,7.926,1.783.462.462,0,0,1,.577.622A17.038,17.038,0,0,1,31.1,48.122Z" transform="translate(-14.075 -14.082)" fill-rule="evenodd"/>
    </g>
  </g>
</svg>
