<svg xmlns="http://www.w3.org/2000/svg" width="101" height="101" viewBox="0 0 101 101">
  <g id="_10" data-name="10" transform="translate(-3621 9670.189)">
    <circle id="Elipse_7555" data-name="Elipse 7555" cx="50.5" cy="50.5" r="50.5" transform="translate(3621 -9670.189)" fill="#fcd03e"/>
    <g id="estante-para-libros" transform="translate(3635.081 -9681.533)">
      <g id="Grupo_945684" data-name="Grupo 945684" transform="translate(1.096 27.477)">
        <g id="Grupo_945680" data-name="Grupo 945680" transform="translate(0 60.756)">
          <path id="Trazado_650561" data-name="Trazado 650561" d="M80.145,452.268a2.047,2.047,0,0,1-2.046,2.046H9.546a2.047,2.047,0,0,1,0-4.094H78.1a2.046,2.046,0,0,1,2.046,2.048Z" transform="translate(-7.5 -450.22)" fill="#d77d41"/>
          <path id="Trazado_650562" data-name="Trazado 650562" d="M468.894,450.819a2.048,2.048,0,0,1-1.447,3.495H463.5a2.047,2.047,0,0,0,0-4.094h3.947A2.045,2.045,0,0,1,468.894,450.819Z" transform="translate(-396.848 -450.22)" fill="#b5612a"/>
        </g>
        <g id="Grupo_945681" data-name="Grupo 945681" transform="translate(35.433)">
          <path id="Trazado_650563" data-name="Trazado 650563" d="M270.489,48.991l-2.305-2.937.691-2.681L266.5,35.1a.755.755,0,0,0-.935-.517l-3.87,1.112-11.229,3.226a.755.755,0,0,0-.519.935l2.375,8.269,2.229,2.673-.614,2.945,9.541,33.206,9.2-1.134,7.35-3.622Z" transform="translate(-249.915 -34.557)" fill="#d4e16c"/>
          <path id="Trazado_650564" data-name="Trazado 650564" d="M348.825,82.2l-3.075.883L332.336,36.719a1.493,1.493,0,0,0-1.848-1.02l3.871-1.112a.755.755,0,0,1,.935.517l2.377,8.27-.691,2.681,2.305,2.937Z" transform="translate(-318.711 -34.557)" fill="#a4ce39"/>
          <path id="Trazado_650565" data-name="Trazado 650565" d="M284.537,100.5l-3.137.9-13.417,3.854-1.615-5.619,13.406-3.85,3.148-.9Z" transform="translate(-263.963 -86.063)" fill="#fdeda5"/>
          <path id="Trazado_650566" data-name="Trazado 650566" d="M361.42,368.061l-2.175-7.568-16.553,4.756,1.429,4.974.954,3.321L360.9,369A.759.759,0,0,0,361.42,368.061Z" transform="translate(-329.131 -312.852)" fill="#56788b"/>
          <path id="Trazado_650567" data-name="Trazado 650567" d="M369.247,369l-15.826,4.546-.954-3.321,10.477-3.167a3.128,3.128,0,0,0,2.1-3.862l-.527-1.817,3.075-.883,2.175,7.568A.758.758,0,0,1,369.247,369Z" transform="translate(-337.477 -312.852)" fill="#415e6f"/>
          <path id="Trazado_650568" data-name="Trazado 650568" d="M359.712,101.4l-1.625-5.614,3.148-.9,1.614,5.617Z" transform="translate(-342.276 -86.063)" fill="#fbdf63"/>
        </g>
        <g id="Grupo_945682" data-name="Grupo 945682" transform="translate(18.995 8.216)">
          <path id="Trazado_650569" data-name="Trazado 650569" d="M171.756,91.569v51.739h-14.3V90.768h13.5A.8.8,0,0,1,171.756,91.569Z" transform="translate(-154.533 -90.768)" fill="#f08282"/>
          <path id="Trazado_650570" data-name="Trazado 650570" d="M232.677,91.569v51.739h-3.07V91.569a.8.8,0,0,0-.8-.8h3.07A.8.8,0,0,1,232.677,91.569Z" transform="translate(-215.454 -90.768)" fill="#c54545"/>
          <path id="Trazado_650571" data-name="Trazado 650571" d="M157.456,390.708h14.3v8.7h-14.3Z" transform="translate(-154.533 -346.867)" fill="#56788b"/>
          <path id="Trazado_650572" data-name="Trazado 650572" d="M151.609,390.708h3.07v8.7H137.456v-2.776h11.233a2.921,2.921,0,0,0,2.92-2.92Z" transform="translate(-137.456 -346.867)" fill="#415e6f"/>
          <path id="Trazado_650573" data-name="Trazado 650573" d="M157.456,154.358h14.3V160.2h-14.3Z" transform="translate(-154.533 -145.063)" fill="#fdeda5"/>
          <path id="Trazado_650574" data-name="Trazado 650574" d="M234.286,154.358h3.07V160.2h-3.07Z" transform="translate(-220.133 -145.063)" fill="#fbdf63"/>
        </g>
        <g id="Grupo_945683" data-name="Grupo 945683" transform="translate(4.696 2.37)">
          <path id="Trazado_650575" data-name="Trazado 650575" d="M56.85,51.534v8.529l-1.462,2.923,1.462,2.923v36.008l-17.223-1.462V65.909l1.462-2.923-1.462-2.923V51.534a.765.765,0,0,1,.764-.766H56.084A.767.767,0,0,1,56.85,51.534Z" transform="translate(-39.627 -50.768)" fill="#8ed7e8"/>
          <path id="Trazado_650576" data-name="Trazado 650576" d="M56.85,51.534v8.529l-1.462,2.923,1.462,2.923v43.245H39.627v-2.776H50.86a2.921,2.921,0,0,0,2.92-2.92V51.534a.767.767,0,0,0-.766-.766h3.07A.767.767,0,0,1,56.85,51.534Z" transform="translate(-39.627 -50.768)" fill="#63afcd"/>
          <path id="Trazado_650577" data-name="Trazado 650577" d="M39.627,390.708H56.85v8.7H39.627Z" transform="translate(-39.627 -341.02)" fill="#56788b"/>
          <path id="Trazado_650578" data-name="Trazado 650578" d="M39.627,114.358H56.85V120.2H39.627Z" transform="translate(-39.627 -105.063)" fill="#fdeda5"/>
          <path id="Trazado_650579" data-name="Trazado 650579" d="M136.457,114.358h3.07V120.2h-3.07Z" transform="translate(-122.304 -105.063)" fill="#fbdf63"/>
          <path id="Trazado_650580" data-name="Trazado 650580" d="M53.78,390.708h3.07v8.7H39.627v-2.776H50.86a2.921,2.921,0,0,0,2.92-2.92Z" transform="translate(-39.627 -341.02)" fill="#415e6f"/>
        </g>
      </g>
      <g id="Grupo_945685" data-name="Grupo 945685" transform="translate(0 26.265)">
        <path id="Trazado_650581" data-name="Trazado 650581" d="M71.7,87.138H60.278l9.07-2.606a1.1,1.1,0,0,0,.751-1.356l-2.4-8.359h0L60.58,50.043a1.1,1.1,0,0,0-2.107.605l6.815,23.719-14.446,4.15-8.934-31.1,14.446-4.15.779,2.711a1.1,1.1,0,1,0,2.107-.605L53.977,27.059a1.1,1.1,0,0,0-1.356-.751L36.067,31.064a1.1,1.1,0,0,0-.751,1.356l.626,2.178H24.111v-4.75a1.1,1.1,0,0,0-1.1-1.1H5.792a1.1,1.1,0,0,0-1.1,1.1v57.29H3.143a3.143,3.143,0,0,0,0,6.286h6.5a1.1,1.1,0,1,0,0-2.193h-6.5a.951.951,0,0,1,0-1.9H71.7a.951.951,0,0,1,0,1.9H14.769a1.1,1.1,0,1,0,0,2.193H71.7a3.143,3.143,0,0,0,0-6.286ZM55.747,41.163,41.3,45.313,40.293,41.8l14.446-4.15ZM52.172,28.718l1.961,6.825-14.446,4.15-1.961-6.825ZM24.111,36.79H36.218v7.1H24.111Zm0,9.294H36.218v3.654H24.111ZM6.888,30.944h15.03v7.1H6.888Zm0,9.294h15.03v3.654H6.888Zm15.03,46.9H6.888V80.632h15.03v6.506Zm14.3,0H24.111V80.632H36.218Zm2.193,0V63.714a1.1,1.1,0,0,0-2.193,0V78.44H24.111V72.965a1.1,1.1,0,1,0-2.193,0V78.44H6.888V46.084h15.03V67.927a1.1,1.1,0,0,0,2.193,0v-16H36.218v6.781a1.1,1.1,0,1,0,2.193,0V43.192L49.036,80.174v.005l2,6.958Zm13.036-6.513,14.446-4.15,1.8,6.253-14.446,4.15Z" transform="translate(0 -26.265)"/>
        <path id="Trazado_650582" data-name="Trazado 650582" d="M74.783,191.973a1.1,1.1,0,0,0-1.1,1.1v21.386a1.1,1.1,0,0,0,2.193,0V193.069A1.1,1.1,0,0,0,74.783,191.973Z" transform="translate(-62.916 -167.752)"/>
        <path id="Trazado_650583" data-name="Trazado 650583" d="M109.493,215.128a1.1,1.1,0,0,0-1.1,1.1v14.617a1.1,1.1,0,0,0,2.193,0V216.224A1.1,1.1,0,0,0,109.493,215.128Z" transform="translate(-92.553 -187.522)"/>
        <path id="Trazado_650584" data-name="Trazado 650584" d="M323.119,190.287a1.1,1.1,0,0,0-.751,1.356l5.905,20.554a1.1,1.1,0,0,0,2.107-.605l-5.905-20.554A1.1,1.1,0,0,0,323.119,190.287Z" transform="translate(-275.211 -166.276)"/>
        <path id="Trazado_650585" data-name="Trazado 650585" d="M367.211,219.157a1.1,1.1,0,0,0,1.054-1.4l-4.036-14.048a1.1,1.1,0,1,0-2.107.605l4.036,14.048A1.1,1.1,0,0,0,367.211,219.157Z" transform="translate(-309.154 -177.095)"/>
        <path id="Trazado_650586" data-name="Trazado 650586" d="M200.329,231.973a1.1,1.1,0,0,0-1.1,1.1v15.539a1.1,1.1,0,0,0,2.193,0V233.069A1.1,1.1,0,0,0,200.329,231.973Z" transform="translate(-170.112 -201.905)"/>
      </g>
    </g>
  </g>
</svg>
