<svg xmlns="http://www.w3.org/2000/svg" width="101" height="101" viewBox="0 0 101 101">
  <g id="_11" data-name="11" transform="translate(-3621 9454.189)">
    <circle id="Elipse_7556" data-name="Elipse 7556" cx="50.5" cy="50.5" r="50.5" transform="translate(3621 -9454.189)" fill="#fcd03e"/>
    <g id="libro-magico" transform="translate(3635.561 -9443.5)">
      <path id="Trazado_650587" data-name="Trazado 650587" d="M77.345,178.467v39.669a3.146,3.146,0,0,1-3.146,3.146H10.747A3.146,3.146,0,0,1,7.6,218.136V178.467a3.3,3.3,0,0,1,3.3-3.3H74.044A3.3,3.3,0,0,1,77.345,178.467Z" transform="translate(-6.534 -149.941)" fill="#b4dd7f"/>
      <path id="Trazado_650588" data-name="Trazado 650588" d="M96.586,184.51V222.3a3.176,3.176,0,0,1-3.176,3.176H37.53a3.176,3.176,0,0,1-3.176-3.176V184.51" transform="translate(-29.531 -157.973)" fill="#cec1e8"/>
      <g id="Grupo_945686" data-name="Grupo 945686" transform="translate(4.822 19.105)">
        <path id="Trazado_650589" data-name="Trazado 650589" d="M65.467,138.31v41.657H65a6.74,6.74,0,0,0-6.266-4.256h-21.2a3.177,3.177,0,0,1-3.177-3.175V134.75a3.177,3.177,0,0,1,3.177-3.177h21.2A6.736,6.736,0,0,1,65.467,138.31Z" transform="translate(-34.35 -131.573)" fill="#ede6f5"/>
        <path id="Trazado_650590" data-name="Trazado 650590" d="M287.116,134.749v37.786a3.176,3.176,0,0,1-3.177,3.175h-21.2a6.64,6.64,0,0,0-1.186.105,6.744,6.744,0,0,0-5.08,4.15H256V138.309a6.729,6.729,0,0,1,6.737-6.737h21.2A3.176,3.176,0,0,1,287.116,134.749Z" transform="translate(-224.883 -131.572)" fill="#ede6f5"/>
      </g>
      <path id="Trazado_650591" data-name="Trazado 650591" d="M261.551,132.312v44.139a6.744,6.744,0,0,0-5.08,4.15H256V138.945A6.739,6.739,0,0,1,261.551,132.312Z" transform="translate(-220.061 -113.103)" fill="#cec1e8"/>
      <g id="Grupo_945687" data-name="Grupo 945687" transform="translate(10.376 2.041)">
        <path id="Trazado_650592" data-name="Trazado 650592" d="M89.827,21.184l2.436-.494a1.076,1.076,0,0,0,0-2.11l-2.436-.494a6.1,6.1,0,0,1-4.763-4.763l-.494-2.436a1.076,1.076,0,0,0-2.11,0l-.494,2.436A6.1,6.1,0,0,1,77.2,18.086l-2.436.494a1.076,1.076,0,0,0,0,2.11l2.436.494a6.1,6.1,0,0,1,4.763,4.763l.494,2.436a1.076,1.076,0,0,0,2.11,0l.494-2.436A6.1,6.1,0,0,1,89.827,21.184Z" transform="translate(-73.907 -10.026)" fill="#f9d366"/>
        <path id="Trazado_650593" data-name="Trazado 650593" d="M304.291,108.81l2.877-.583a1.271,1.271,0,0,0,0-2.492l-2.877-.583a7.2,7.2,0,0,1-5.626-5.626l-.583-2.877a1.271,1.271,0,0,0-2.492,0l-.583,2.877a7.2,7.2,0,0,1-5.626,5.626l-2.877.583a1.271,1.271,0,0,0,0,2.492l2.877.583a7.2,7.2,0,0,1,5.626,5.626l.583,2.877a1.271,1.271,0,0,0,2.492,0l.583-2.877A7.2,7.2,0,0,1,304.291,108.81Z" transform="translate(-255.781 -83.612)" fill="#f9d366"/>
      </g>
      <path id="Trazado_650594" data-name="Trazado 650594" d="M285.548,5.7a1.068,1.068,0,0,0,1.068-1.068V1.8a1.067,1.067,0,1,0-2.135,0V4.633A1.067,1.067,0,0,0,285.548,5.7Z" transform="translate(-244.542 0)"/>
      <path id="Trazado_650595" data-name="Trazado 650595" d="M285.548,59.952a1.068,1.068,0,0,0,1.068-1.068V56.056a1.067,1.067,0,1,0-2.135,0v2.829A1.067,1.067,0,0,0,285.548,59.952Z" transform="translate(-244.542 -46.635)"/>
      <path id="Trazado_650596" data-name="Trazado 650596" d="M302.6,40.073h2.829a1.068,1.068,0,0,0,0-2.135H302.6a1.068,1.068,0,0,0,0,2.135Z" transform="translate(-259.198 -31.978)"/>
      <path id="Trazado_650597" data-name="Trazado 650597" d="M248.348,40.073h2.829a1.068,1.068,0,1,0,0-2.135h-2.829a1.068,1.068,0,1,0,0,2.135Z" transform="translate(-212.565 -31.978)"/>
      <path id="Trazado_650598" data-name="Trazado 650598" d="M7.9,233.891H4.213a2.08,2.08,0,0,1-2.078-2.078v-39.67a1.068,1.068,0,1,0-2.135,0v39.67a4.218,4.218,0,0,0,4.213,4.213H7.9a1.067,1.067,0,1,0,0-2.135Z" transform="translate(0 -163.617)"/>
      <path id="Trazado_650599" data-name="Trazado 650599" d="M93.8,133.389a1.068,1.068,0,0,0-1.068,1.067v39.67a2.081,2.081,0,0,1-2.079,2.078H60V174.5H86.87a4.249,4.249,0,0,0,4.244-4.244v-42.04a4.249,4.249,0,0,0-4.244-4.244H80.293a1.068,1.068,0,1,0,0,2.135H86.87a2.112,2.112,0,0,1,2.109,2.109V166a2.111,2.111,0,0,1-2.109,2.108h-21.2A7.768,7.768,0,0,0,60,170.537V131.772a5.676,5.676,0,0,1,5.669-5.669H68.48a1.068,1.068,0,1,0,0-2.135H65.667a7.807,7.807,0,0,0-6.737,3.871,7.807,7.807,0,0,0-6.737-3.871H47.669a1.068,1.068,0,1,0,0,2.135h4.525a5.676,5.676,0,0,1,5.669,5.669v38.764a7.768,7.768,0,0,0-5.669-2.431H30.99A2.111,2.111,0,0,1,28.881,166V128.212A2.112,2.112,0,0,1,30.99,126.1h7.568a1.068,1.068,0,1,0,0-2.135H30.99a4.249,4.249,0,0,0-4.244,4.244v42.04A4.249,4.249,0,0,0,30.99,174.5H57.863V176.2H34.449a1.068,1.068,0,0,0,0,2.135H90.656a4.218,4.218,0,0,0,4.214-4.213v-39.67A1.068,1.068,0,0,0,93.8,133.389ZM65.667,170.241h21.2a4.218,4.218,0,0,0,2.109-.563v.575a2.112,2.112,0,0,1-2.109,2.109H61.24A5.64,5.64,0,0,1,65.667,170.241Zm-36.786.011v-.575a4.218,4.218,0,0,0,2.109.563h21.2a5.64,5.64,0,0,1,4.427,2.121H30.99A2.112,2.112,0,0,1,28.881,170.252Z" transform="translate(-22.991 -105.931)"/>
      <path id="Trazado_650600" data-name="Trazado 650600" d="M91.956,193.706H74.685a1.068,1.068,0,0,0,0,2.135H91.956a1.068,1.068,0,1,0,0-2.135Z" transform="translate(-63.282 -165.878)"/>
      <path id="Trazado_650601" data-name="Trazado 650601" d="M91.956,230.923H74.685a1.068,1.068,0,0,0,0,2.135H91.956a1.068,1.068,0,1,0,0-2.135Z" transform="translate(-63.282 -197.871)"/>
      <path id="Trazado_650602" data-name="Trazado 650602" d="M174.222,305.357h-3.836a1.068,1.068,0,0,0,0,2.135h3.836a1.068,1.068,0,1,0,0-2.135Z" transform="translate(-145.548 -261.855)"/>
      <path id="Trazado_650603" data-name="Trazado 650603" d="M74.685,307.492h9.877a1.068,1.068,0,1,0,0-2.135H74.685a1.068,1.068,0,0,0,0,2.135Z" transform="translate(-63.282 -261.855)"/>
      <path id="Trazado_650604" data-name="Trazado 650604" d="M91.956,379.79H74.685a1.068,1.068,0,0,0,0,2.135H91.956a1.068,1.068,0,1,0,0-2.135Z" transform="translate(-63.282 -325.838)"/>
      <path id="Trazado_650605" data-name="Trazado 650605" d="M91.956,268.14H74.685a1.068,1.068,0,0,0,0,2.135H91.956a1.068,1.068,0,1,0,0-2.135Z" transform="translate(-63.282 -229.863)"/>
      <path id="Trazado_650606" data-name="Trazado 650606" d="M91.956,342.574H74.685a1.068,1.068,0,0,0,0,2.135H91.956a1.068,1.068,0,1,0,0-2.135Z" transform="translate(-63.282 -293.847)"/>
      <path id="Trazado_650607" data-name="Trazado 650607" d="M307.069,233.058H309.6a1.068,1.068,0,0,0,0-2.135h-2.529a1.068,1.068,0,0,0,0,2.135Z" transform="translate(-263.042 -197.87)"/>
      <path id="Trazado_650608" data-name="Trazado 650608" d="M400.4,230.923h-4.85a1.068,1.068,0,0,0,0,2.135h4.85a1.068,1.068,0,1,0,0-2.135Z" transform="translate(-339.1 -197.871)"/>
      <path id="Trazado_650609" data-name="Trazado 650609" d="M324.34,305.357H307.069a1.068,1.068,0,1,0,0,2.135H324.34a1.068,1.068,0,1,0,0-2.135Z" transform="translate(-263.042 -261.855)"/>
      <path id="Trazado_650610" data-name="Trazado 650610" d="M307.069,381.925H324.34a1.068,1.068,0,1,0,0-2.135H307.069a1.068,1.068,0,1,0,0,2.135Z" transform="translate(-263.042 -325.838)"/>
      <path id="Trazado_650611" data-name="Trazado 650611" d="M324.34,268.14H307.069a1.068,1.068,0,1,0,0,2.135H324.34a1.068,1.068,0,1,0,0-2.135Z" transform="translate(-263.042 -229.863)"/>
      <path id="Trazado_650612" data-name="Trazado 650612" d="M307.069,344.709h2.51a1.068,1.068,0,1,0,0-2.135h-2.51a1.068,1.068,0,1,0,0,2.135Z" transform="translate(-263.042 -293.847)"/>
      <path id="Trazado_650613" data-name="Trazado 650613" d="M361.5,342.574h-11.2a1.068,1.068,0,1,0,0,2.135h11.2a1.068,1.068,0,1,0,0-2.135Z" transform="translate(-300.198 -293.847)"/>
      <path id="Trazado_650614" data-name="Trazado 650614" d="M68.02,15.2l2.436.494a5.019,5.019,0,0,1,3.929,3.929l.494,2.436a2.124,2.124,0,0,0,2.1,1.718h0a2.125,2.125,0,0,0,2.1-1.718l.494-2.436A5.019,5.019,0,0,1,83.5,15.693l2.435-.494a2.144,2.144,0,0,0,0-4.2L83.5,10.5a5.019,5.019,0,0,1-3.929-3.929L79.08,4.139a2.144,2.144,0,0,0-4.2,0l-.494,2.436A5.019,5.019,0,0,1,70.455,10.5L68.02,11a2.144,2.144,0,0,0,0,4.2Zm.417-2.108h.007l2.436-.494a7.15,7.15,0,0,0,5.6-5.6l.494-2.436,0-.007h.014l0,.007L77.481,7a7.15,7.15,0,0,0,5.6,5.6l2.435.494h.007a.126.126,0,0,1,0,.014h-.007l-2.435.494a7.15,7.15,0,0,0-5.6,5.6l-.494,2.435,0,.007h-.014v-.007L76.476,19.2a7.15,7.15,0,0,0-5.6-5.6l-2.436-.494h-.007S68.437,13.1,68.437,13.091Z" transform="translate(-56.994 -1.448)"/>
      <path id="Trazado_650615" data-name="Trazado 650615" d="M282.63,97.568l-2.877.583a2.339,2.339,0,0,0,0,4.585l2.877.583a6.122,6.122,0,0,1,4.792,4.792l.583,2.877a2.339,2.339,0,0,0,4.584,0l.583-2.877a6.122,6.122,0,0,1,4.792-4.792l2.877-.583a2.339,2.339,0,0,0,0-4.585l-2.877-.583a6.122,6.122,0,0,1-4.792-4.792L292.59,89.9a2.339,2.339,0,0,0-4.584,0l-.583,2.877A6.122,6.122,0,0,1,282.63,97.568Zm6.884-4.368.583-2.877a.2.2,0,0,1,.4,0l.583,2.877a8.253,8.253,0,0,0,6.46,6.46l2.877.583a.2.2,0,0,1,0,.4l-2.877.583a8.253,8.253,0,0,0-6.46,6.46l-.583,2.877a.2.2,0,0,1-.4,0l-.583-2.877a8.253,8.253,0,0,0-6.46-6.46l-2.877-.583a.2.2,0,0,1,0-.4l2.877-.583A8.253,8.253,0,0,0,289.515,93.2Z" transform="translate(-238.868 -75.034)"/>
    </g>
  </g>
</svg>
