<svg id="Grupo_927709" data-name="Grupo 927709" xmlns="http://www.w3.org/2000/svg" xmlns:xlink="http://www.w3.org/1999/xlink" width="295" height="284.3" viewBox="0 0 295 284.3">
  <defs>
    <clipPath id="clip-path">
      <rect id="Rectángulo_335351" data-name="Rectángulo 335351" width="295" height="284.3" fill="none"/>
    </clipPath>
    <clipPath id="clip-path-6">
      <rect id="Rectángulo_335324" data-name="Rectángulo 335324" width="24.904" height="14.674" fill="none"/>
    </clipPath>
    <clipPath id="clip-path-7">
      <rect id="Rectángulo_335325" data-name="Rectángulo 335325" width="4.242" height="4.242" fill="none"/>
    </clipPath>
    <clipPath id="clip-path-8">
      <rect id="Rectángulo_335326" data-name="Rectángulo 335326" width="25.195" height="24.058" fill="none"/>
    </clipPath>
    <clipPath id="clip-path-9">
      <rect id="Rectángulo_335328" data-name="Rectángulo 335328" width="53.848" height="21.147" fill="none"/>
    </clipPath>
    <clipPath id="clip-path-10">
      <rect id="Rectángulo_335329" data-name="Rectángulo 335329" width="7.318" height="7.317" fill="none"/>
    </clipPath>
    <clipPath id="clip-path-11">
      <rect id="Rectángulo_335333" data-name="Rectángulo 335333" width="24.903" height="14.674" fill="none"/>
    </clipPath>
    <clipPath id="clip-path-13">
      <rect id="Rectángulo_335335" data-name="Rectángulo 335335" width="25.196" height="24.058" fill="none"/>
    </clipPath>
    <clipPath id="clip-path-15">
      <rect id="Rectángulo_335338" data-name="Rectángulo 335338" width="7.317" height="7.317" fill="none"/>
    </clipPath>
    <clipPath id="clip-path-18">
      <rect id="Rectángulo_335343" data-name="Rectángulo 335343" width="25.195" height="24.059" fill="none"/>
    </clipPath>
    <clipPath id="clip-path-22">
      <rect id="Rectángulo_335348" data-name="Rectángulo 335348" width="19.526" height="67.559" fill="none"/>
    </clipPath>
    <clipPath id="clip-path-23">
      <rect id="Rectángulo_335349" data-name="Rectángulo 335349" width="8.715" height="40.117" fill="none"/>
    </clipPath>
  </defs>
  <g id="Grupo_927708" data-name="Grupo 927708" clip-path="url(#clip-path)">
    <rect id="Rectángulo_335290" data-name="Rectángulo 335290" width="105.049" height="188.713" transform="translate(180.088 14.052)" fill="#ebebeb"/>
    <rect id="Rectángulo_335291" data-name="Rectángulo 335291" width="95.572" height="177.619" transform="translate(184.285 19.524)" fill="#fafafa"/>
    <path id="Trazado_642507" data-name="Trazado 642507" d="M449.122,210.538l-4.443-1.7V16.923h4.443Z" transform="translate(-159.542 -6.072)" fill="#e0e0e0"/>
    <g id="Grupo_927648" data-name="Grupo 927648">
      <g id="Grupo_927647" data-name="Grupo 927647" clip-path="url(#clip-path)">
        <path id="Trazado_642508" data-name="Trazado 642508" d="M323.938,188.037l24.82-23.07c3.145-2.924,7.256-6.073,11.3-4.632,1.946.693,3.41,2.355,5.316,3.148,3.811,1.588,8.163-.7,11.094-3.612s5.242-6.546,8.792-8.654,9.064-1.84,10.819,1.9v25.108l-36.071,15.444Z" transform="translate(-116.223 -53.781)" fill="#f5f5f5"/>
        <path id="Trazado_642509" data-name="Trazado 642509" d="M287.4,185.994c9.146-3.724,18.273-.558,24.82,6.835,1.379,1.556,2.633,3.354,4.526,4.213,2.564,1.162,5.525.292,8.323-.025a20.933,20.933,0,0,1,19.687,9.543L314.218,221.58l-26.819-.195Z" transform="translate(-103.113 -66.169)" fill="#e0e0e0"/>
        <path id="Trazado_642510" data-name="Trazado 642510" d="M382.97,186.465c-6.024-2.909-11.327.61-16.885,4.334s-10.722,8.5-17.241,10c-4.356,1-9.023.446-13.234,1.946-8.579,3.055-13.539,13.949-22.631,14.468-4.937.282-9.365-2.71-13.771-4.955s-7.881-4.377-11.81-1.374v52.775H382.97Z" transform="translate(-103.113 -66.514)" fill="#ebebeb"/>
        <rect id="Rectángulo_335292" data-name="Rectángulo 335292" width="97.647" height="1.891" transform="translate(184.286 70.621)" fill="#e0e0e0"/>
        <rect id="Rectángulo_335293" data-name="Rectángulo 335293" width="97.647" height="1.891" transform="translate(184.286 112.919)" fill="#e0e0e0"/>
        <rect id="Rectángulo_335294" data-name="Rectángulo 335294" width="97.647" height="1.891" transform="translate(184.286 155.217)" fill="#e0e0e0"/>
        <rect id="Rectángulo_335295" data-name="Rectángulo 335295" width="4.829" height="130.614" transform="translate(229.657 71.566)" fill="#e0e0e0"/>
        <rect id="Rectángulo_335296" data-name="Rectángulo 335296" width="2.187" height="52.041" transform="translate(202.689 19.524)" fill="#e0e0e0"/>
        <rect id="Rectángulo_335297" data-name="Rectángulo 335297" width="2.187" height="52.041" transform="translate(221.555 19.524)" fill="#e0e0e0"/>
        <rect id="Rectángulo_335298" data-name="Rectángulo 335298" width="2.187" height="52.041" transform="translate(240.422 19.524)" fill="#e0e0e0"/>
        <rect id="Rectángulo_335299" data-name="Rectángulo 335299" width="2.187" height="52.041" transform="translate(259.289 19.524)" fill="#e0e0e0"/>
        <rect id="Rectángulo_335300" data-name="Rectángulo 335300" width="4.443" height="193.082" transform="translate(175.645 10.851)" fill="#e0e0e0"/>
        <rect id="Rectángulo_335301" data-name="Rectángulo 335301" width="113.935" height="5.149" transform="translate(175.645 8.903)" fill="#e0e0e0"/>
        <rect id="Rectángulo_335302" data-name="Rectángulo 335302" width="120.095" height="4.798" transform="translate(172.492 205.101)" fill="#e0e0e0"/>
        <path id="Trazado_642511" data-name="Trazado 642511" d="M381.652,316.218l7.451,2.336h-120.1l7.6-2.336Z" transform="translate(-96.515 -113.453)" fill="#ebebeb"/>
        <rect id="Rectángulo_335303" data-name="Rectángulo 335303" width="65.006" height="65.006" transform="translate(0 16.722) rotate(-14.906)" fill="#d2d7df"/>
        <path id="Trazado_642512" data-name="Trazado 642512" d="M70.054,7.313l5.919,50.574L63.62,73.516,13.046,79.435,5.489,14.869Z" transform="translate(-1.969 -2.624)" fill="#eff1f4"/>
        <rect id="Rectángulo_335304" data-name="Rectángulo 335304" width="5.03" height="5.03" transform="translate(58.817 9.686) rotate(-6.677)" fill="#d2d7df"/>
        <rect id="Rectángulo_335305" data-name="Rectángulo 335305" width="5.03" height="5.03" transform="translate(48.793 10.859) rotate(-6.677)" fill="#d2d7df"/>
        <rect id="Rectángulo_335306" data-name="Rectángulo 335306" width="5.03" height="5.03" transform="translate(38.768 12.033) rotate(-6.677)" fill="#d2d7df"/>
        <rect id="Rectángulo_335307" data-name="Rectángulo 335307" width="5.03" height="5.03" transform="translate(28.744 13.206) rotate(-6.677)" fill="#d2d7df"/>
        <rect id="Rectángulo_335308" data-name="Rectángulo 335308" width="5.03" height="5.03" transform="translate(18.719 14.379) rotate(-6.677)" fill="#d2d7df"/>
        <rect id="Rectángulo_335309" data-name="Rectángulo 335309" width="5.03" height="5.03" transform="translate(8.695 15.552) rotate(-6.677)" fill="#d2d7df"/>
        <rect id="Rectángulo_335310" data-name="Rectángulo 335310" width="50.465" height="1.125" transform="matrix(0.993, -0.116, 0.116, 0.993, 13.1, 31.556)" fill="#e1e4e9"/>
        <rect id="Rectángulo_335311" data-name="Rectángulo 335311" width="50.465" height="1.125" transform="matrix(0.993, -0.116, 0.116, 0.993, 13.599, 35.822)" fill="#e1e4e9"/>
        <rect id="Rectángulo_335312" data-name="Rectángulo 335312" width="50.465" height="1.125" transform="matrix(0.993, -0.116, 0.116, 0.993, 14.099, 40.087)" fill="#e1e4e9"/>
        <rect id="Rectángulo_335313" data-name="Rectángulo 335313" width="50.465" height="1.125" transform="matrix(0.993, -0.116, 0.116, 0.993, 14.597, 44.353)" fill="#e1e4e9"/>
        <rect id="Rectángulo_335314" data-name="Rectángulo 335314" width="50.465" height="1.125" transform="translate(15.097 48.619) rotate(-6.676)" fill="#e1e4e9"/>
        <rect id="Rectángulo_335315" data-name="Rectángulo 335315" width="50.465" height="1.125" transform="matrix(0.993, -0.116, 0.116, 0.993, 15.596, 52.884)" fill="#e1e4e9"/>
        <rect id="Rectángulo_335316" data-name="Rectángulo 335316" width="50.465" height="1.125" transform="matrix(0.993, -0.116, 0.116, 0.993, 16.095, 57.15)" fill="#e1e4e9"/>
        <rect id="Rectángulo_335317" data-name="Rectángulo 335317" width="25.232" height="1.125" transform="matrix(0.993, -0.116, 0.116, 0.993, 16.595, 61.416)" fill="#e1e4e9"/>
        <path id="Trazado_642513" data-name="Trazado 642513" d="M107.583,86.185,95.23,101.814,93.593,87.822Z" transform="translate(-33.58 -30.922)" fill="#e1e4e9"/>
        <path id="Trazado_642514" data-name="Trazado 642514" d="M112.1,29.468l-6.282.735-.063-.535,6.282-.735a2.045,2.045,0,1,0-.475-4.061l-4.137.484-.063-.535,4.137-.484a2.583,2.583,0,1,1,.6,5.132" transform="translate(-37.943 -8.725)" fill="#d2d7df"/>
        <path id="Trazado_642515" data-name="Trazado 642515" d="M107.467,30.353l-7.689.9a2.061,2.061,0,1,1-.48-4.095l7.69-.9a2.061,2.061,0,1,1,.479,4.094m-8.106-2.659a1.522,1.522,0,1,0,.354,3.024l7.69-.9a1.523,1.523,0,0,0-.354-3.025Z" transform="translate(-34.973 -9.416)" fill="#d2d7df"/>
      </g>
    </g>
    <g id="Grupo_927650" data-name="Grupo 927650">
      <g id="Grupo_927649" data-name="Grupo 927649" clip-path="url(#clip-path)">
        <path id="Trazado_642516" data-name="Trazado 642516" d="M295.863,443c0,.092-65.7.167-146.723.167C68.088,443.168,2.4,443.094,2.4,443s65.684-.167,146.736-.167c81.024,0,146.723.074,146.723.167" transform="translate(-0.863 -158.881)" fill="#263238"/>
      </g>
    </g>
    <path id="Trazado_642517" data-name="Trazado 642517" d="M32.565,393.469l4.595,32H53.88l4.2-32Z" transform="translate(-11.684 -141.169)" fill="#455a64"/>
    <g id="Grupo_927652" data-name="Grupo 927652">
      <g id="Grupo_927651" data-name="Grupo 927651" clip-path="url(#clip-path)">
        <path id="Trazado_642518" data-name="Trazado 642518" d="M29.694,390.483c.081-2.151.574-4.07,2.219-5.337H57.051c1.38,1.044,1.8,3.07,1.986,5.337Z" transform="translate(-10.654 -138.183)" fill="#455a64"/>
        <path id="Trazado_642519" data-name="Trazado 642519" d="M35.673,383.4l2.124-3.123H55.218l1.854,3.123Z" transform="translate(-12.799 -136.435)" fill="#455a64"/>
        <path id="Trazado_642520" data-name="Trazado 642520" d="M58.687,384.888c0,.092-5.4.165-12.061.165s-12.061-.074-12.061-.165,5.4-.165,12.061-.165,12.061.074,12.061.165" transform="translate(-12.401 -138.031)" fill="#263238"/>
        <path id="Trazado_642521" data-name="Trazado 642521" d="M59.183,393.376c0,.092-6.51.165-14.54.165s-14.542-.074-14.542-.165,6.51-.165,14.542-.165,14.54.074,14.54.165" transform="translate(-10.8 -141.077)" fill="#263238"/>
        <path id="Trazado_642522" data-name="Trazado 642522" d="M34.183,404.738h23.53l-1.376,10.486H35.688Z" transform="translate(-12.264 -145.212)" fill="#263238"/>
        <path id="Trazado_642523" data-name="Trazado 642523" d="M49.712,326.958a.969.969,0,0,1,.341.112,1.951,1.951,0,0,1,.763.7,2.941,2.941,0,0,1,.456,1.57,4.149,4.149,0,0,1-.625,2.073,21.994,21.994,0,0,1-1.508,2.118,5.72,5.72,0,0,0-1.212,2.592,4.438,4.438,0,0,0,.9,2.968c.628.931,1.436,1.79,2.165,2.769a8.431,8.431,0,0,1,.948,1.556,4.568,4.568,0,0,1,.4,1.745,5.189,5.189,0,0,1-1.2,3.1c-.641.851-1.375,1.535-1.991,2.221a8.162,8.162,0,0,0-1.463,2.074,3.564,3.564,0,0,0-.323,2.021,3.115,3.115,0,0,0,.556,1.452,2.624,2.624,0,0,0,1.063.8c0,.006-.032,0-.09-.013a1.491,1.491,0,0,1-.255-.083,2.128,2.128,0,0,1-.819-.628,3.172,3.172,0,0,1-.638-1.5,3.735,3.735,0,0,1,.292-2.144,8.237,8.237,0,0,1,1.473-2.163c.618-.7,1.338-1.392,1.951-2.221a4.9,4.9,0,0,0,1.123-2.913,4.278,4.278,0,0,0-.378-1.613,8.2,8.2,0,0,0-.913-1.49c-.711-.959-1.524-1.826-2.169-2.787a4.725,4.725,0,0,1-.933-3.187,5.93,5.93,0,0,1,1.295-2.719,23.389,23.389,0,0,0,1.526-2.072,4.015,4.015,0,0,0,.642-1.955,2.86,2.86,0,0,0-.38-1.5,2.26,2.26,0,0,0-.994-.877" transform="translate(-16.909 -117.306)" fill="#263238"/>
        <path id="Trazado_642524" data-name="Trazado 642524" d="M56.291,326.958a.969.969,0,0,1,.341.112,1.951,1.951,0,0,1,.763.7,2.941,2.941,0,0,1,.456,1.57,4.149,4.149,0,0,1-.625,2.073,22.1,22.1,0,0,1-1.508,2.118,5.72,5.72,0,0,0-1.212,2.592,4.438,4.438,0,0,0,.9,2.968c.628.931,1.436,1.79,2.165,2.769a8.431,8.431,0,0,1,.948,1.556,4.567,4.567,0,0,1,.4,1.745,5.185,5.185,0,0,1-1.2,3.1c-.641.851-1.375,1.535-1.991,2.221a8.162,8.162,0,0,0-1.463,2.074,3.564,3.564,0,0,0-.323,2.021,3.115,3.115,0,0,0,.556,1.452,2.624,2.624,0,0,0,1.063.8c0,.006-.032,0-.09-.013a1.491,1.491,0,0,1-.255-.083,2.128,2.128,0,0,1-.819-.628,3.172,3.172,0,0,1-.638-1.5,3.735,3.735,0,0,1,.292-2.144,8.238,8.238,0,0,1,1.473-2.163c.618-.7,1.338-1.392,1.951-2.221a4.9,4.9,0,0,0,1.123-2.913,4.278,4.278,0,0,0-.378-1.613,8.2,8.2,0,0,0-.913-1.49c-.711-.959-1.524-1.826-2.169-2.787a4.725,4.725,0,0,1-.933-3.187,5.93,5.93,0,0,1,1.295-2.719,23.391,23.391,0,0,0,1.526-2.072,4.015,4.015,0,0,0,.642-1.955,2.86,2.86,0,0,0-.38-1.5,2.26,2.26,0,0,0-.994-.877" transform="translate(-19.269 -117.306)" fill="#263238"/>
      </g>
    </g>
    <rect id="Rectángulo_335321" data-name="Rectángulo 335321" width="122.899" height="161.932" transform="translate(35.37 39.937)" fill="#fff"/>
    <g id="Grupo_927699" data-name="Grupo 927699">
      <g id="Grupo_927698" data-name="Grupo 927698" clip-path="url(#clip-path)">
        <path id="Trazado_642525" data-name="Trazado 642525" d="M177.967,224.122c0-1.325-.062-65.955-.151-161.932l.151.15-122.885.017h-.014l.167-.167c-.012,60.244-.022,116.115-.03,161.932l-.137-.137,122.9.137-122.9.137H54.93v-.137C54.922,178.3,54.912,122.435,54.9,62.19v-.167h.181l122.885.017h.151v.151c-.089,95.976-.149,160.607-.151,161.932" transform="translate(-19.697 -22.253)" fill="#263238"/>
        <path id="Trazado_642526" data-name="Trazado 642526" d="M178.06,80.678c0,.055-27.514.1-61.447.1s-61.453-.044-61.453-.1,27.508-.1,61.453-.1,61.447.044,61.447.1" transform="translate(-19.791 -28.91)" fill="#263238"/>
        <line id="Línea_2718" data-name="Línea 2718" x2="41.926" transform="translate(78.681 46.233)" fill="#455a64"/>
        <path id="Trazado_642527" data-name="Trazado 642527" d="M164.632,72.047c0,.055-9.386.1-20.962.1s-20.964-.044-20.964-.1,9.384-.1,20.964-.1,20.962.044,20.962.1" transform="translate(-44.025 -25.814)" fill="#455a64"/>
        <path id="Trazado_642528" data-name="Trazado 642528" d="M63.221,71.342a1.359,1.359,0,1,1-1.359-1.359,1.359,1.359,0,0,1,1.359,1.359" transform="translate(-21.708 -25.109)" fill="#e0e0e0"/>
        <path id="Trazado_642529" data-name="Trazado 642529" d="M70.406,71.342a1.359,1.359,0,1,1-1.359-1.359,1.359,1.359,0,0,1,1.359,1.359" transform="translate(-24.286 -25.109)" fill="#e0e0e0"/>
        <path id="Trazado_642530" data-name="Trazado 642530" d="M77.592,71.342a1.359,1.359,0,1,1-1.359-1.359,1.36,1.36,0,0,1,1.359,1.359" transform="translate(-26.863 -25.109)" fill="#e0e0e0"/>
        <path id="Trazado_642531" data-name="Trazado 642531" d="M125.394,103.868h-2.816l-.537,1.3H120.6l2.7-6.065h1.386l2.712,6.065h-1.473Zm-.442-1.066-.962-2.322-.962,2.322Z" transform="translate(-43.27 -35.556)" fill="#455a64"/>
        <path id="Trazado_642532" data-name="Trazado 642532" d="M136.06,105.167l-1.17-1.69H133.6v1.69h-1.4V99.1h2.626c1.62,0,2.634.841,2.634,2.2a1.972,1.972,0,0,1-1.248,1.915l1.361,1.95Zm-1.317-4.922H133.6v2.114h1.143c.858,0,1.291-.4,1.291-1.057s-.434-1.057-1.291-1.057" transform="translate(-47.429 -35.556)" fill="#455a64"/>
        <path id="Trazado_642533" data-name="Trazado 642533" d="M142.864,100.245h-1.941V99.1h5.286v1.144h-1.941v4.922h-1.4Z" transform="translate(-50.56 -35.556)" fill="#455a64"/>
        <rect id="Rectángulo_335322" data-name="Rectángulo 335322" width="1.404" height="6.066" transform="translate(96.402 63.545)" fill="#455a64"/>
        <path id="Trazado_642534" data-name="Trazado 642534" d="M154.178,102.076a3.34,3.34,0,0,1,5.788-2.062l-.9.832a1.952,1.952,0,0,0-1.525-.71,1.941,1.941,0,0,0,0,3.882,1.932,1.932,0,0,0,1.525-.719l.9.832a3.334,3.334,0,0,1-5.788-2.054" transform="translate(-55.316 -35.497)" fill="#455a64"/>
        <path id="Trazado_642535" data-name="Trazado 642535" d="M164.676,99.1h1.4v4.922h3.041v1.144h-4.445Z" transform="translate(-59.083 -35.556)" fill="#455a64"/>
        <path id="Trazado_642536" data-name="Trazado 642536" d="M177.534,104.041v1.127h-4.7V99.1h4.583v1.127h-3.189v1.317h2.816v1.092h-2.816v1.4Z" transform="translate(-62.011 -35.556)" fill="#455a64"/>
        <path id="Trazado_642537" data-name="Trazado 642537" d="M99.668,104.622c0,.055-6.506.1-14.529.1s-14.53-.044-14.53-.1,6.5-.1,14.53-.1,14.529.044,14.529.1" transform="translate(-25.333 -37.501)" fill="#263238"/>
        <path id="Trazado_642538" data-name="Trazado 642538" d="M219.351,104.622c0,.055-6.83.1-15.254.1s-15.256-.044-15.256-.1,6.829-.1,15.256-.1,15.254.044,15.254.1" transform="translate(-67.753 -37.501)" fill="#263238"/>
        <rect id="Rectángulo_335323" data-name="Rectángulo 335323" width="29.474" height="28.515" transform="translate(116.619 165.218)" fill="#455a64"/>
        <g id="Grupo_927655" data-name="Grupo 927655" transform="translate(118.905 176.619)" opacity="0.3">
          <g id="Grupo_927654" data-name="Grupo 927654">
            <g id="Grupo_927653" data-name="Grupo 927653" clip-path="url(#clip-path-6)">
              <path id="Trazado_642539" data-name="Trazado 642539" d="M185.435,290.115l8.153-14.674,6.669,9.379,4.052-4.981,6.029,10.275Z" transform="translate(-185.435 -275.442)"/>
            </g>
          </g>
        </g>
        <g id="Grupo_927658" data-name="Grupo 927658" transform="translate(132.326 171.644)" opacity="0.3">
          <g id="Grupo_927657" data-name="Grupo 927657">
            <g id="Grupo_927656" data-name="Grupo 927656" clip-path="url(#clip-path-7)">
              <path id="Trazado_642540" data-name="Trazado 642540" d="M210.041,268.25a2.2,2.2,0,0,1-3.108,3.107,2.2,2.2,0,0,1,3.108-3.107" transform="translate(-206.366 -267.684)"/>
            </g>
          </g>
        </g>
        <g id="Grupo_927661" data-name="Grupo 927661" transform="translate(118.733 167.436)" opacity="0.3">
          <g id="Grupo_927660" data-name="Grupo 927660">
            <g id="Grupo_927659" data-name="Grupo 927659" clip-path="url(#clip-path-8)">
              <path id="Trazado_642541" data-name="Trazado 642541" d="M210.243,285.058a.957.957,0,0,1-.007-.117c0-.086,0-.194-.006-.333q0-.455-.014-1.283c-.007-1.131-.018-2.766-.031-4.842-.015-4.165-.036-10.1-.062-17.217l.121.12-24.9.02c-.034.029.264-.264.138-.137v1.617q0,.809,0,1.61,0,1.6,0,3.175c0,2.1,0,4.147,0,6.145,0,3.994-.009,7.769-.013,11.242l-.122-.122,18.005.062,5.078.032,1.347.014.349.007a.892.892,0,0,1,.122.007.652.652,0,0,1-.109.007l-.335.007-1.324.014-5.051.032-18.084.062h-.122v-.122c0-3.473-.008-7.249-.013-11.242,0-2,0-4.049,0-6.145q0-1.572,0-3.175,0-.8,0-1.61v-1.617c-.125.123.171-.176.143-.144l24.9.019h.121v.121c-.026,7.153-.047,13.11-.062,17.294-.013,2.065-.024,3.691-.031,4.816q-.01.813-.014,1.26c0,.133-.005.237-.007.32a.51.51,0,0,1-.006.1" transform="translate(-185.168 -261.122)"/>
            </g>
          </g>
        </g>
        <path id="Trazado_642542" data-name="Trazado 642542" d="M99.031,121.427c0,.092-6.445.167-14.393.167s-14.393-.074-14.393-.167,6.443-.167,14.393-.167,14.393.074,14.393.167" transform="translate(-25.203 -43.506)" fill="#263238"/>
        <path id="Trazado_642543" data-name="Trazado 642543" d="M121.231,132.2c0,.092-11.414.167-25.492.167s-25.494-.074-25.494-.167,11.412-.167,25.494-.167,25.492.074,25.492.167" transform="translate(-25.203 -47.371)" fill="#263238"/>
        <path id="Trazado_642544" data-name="Trazado 642544" d="M169.212,131.414c0,.092-3.093.167-6.907.167s-6.908-.074-6.908-.167,3.093-.167,6.908-.167,6.907.074,6.907.167" transform="translate(-55.754 -47.089)" fill="#263238"/>
        <path id="Trazado_642545" data-name="Trazado 642545" d="M213.7,130.955c0,.092-6.383.167-14.254.167s-14.256-.074-14.256-.167,6.381-.167,14.256-.167,14.254.074,14.254.167" transform="translate(-66.444 -46.924)" fill="#263238"/>
        <path id="Trazado_642546" data-name="Trazado 642546" d="M171.966,140.123c0,.092-22.9.167-51.14.167s-51.144-.074-51.144-.167,22.894-.167,51.144-.167,51.14.074,51.14.167" transform="translate(-25.001 -50.214)" fill="#263238"/>
        <path id="Trazado_642547" data-name="Trazado 642547" d="M117.462,149.749c0,.092-10.594.167-23.66.167s-23.661-.074-23.661-.167,10.592-.167,23.661-.167,23.66.074,23.66.167" transform="translate(-25.165 -53.667)" fill="#263238"/>
        <path id="Trazado_642548" data-name="Trazado 642548" d="M163.747,149.749a62.757,62.757,0,0,1-6.466.167,62.765,62.765,0,0,1-6.467-.167,62.757,62.757,0,0,1,6.467-.167,62.749,62.749,0,0,1,6.466.167" transform="translate(-54.109 -53.667)" fill="#263238"/>
        <path id="Trazado_642549" data-name="Trazado 642549" d="M210.614,148.832c0,.092-7.436.167-16.606.167s-16.607-.074-16.607-.167,7.434-.167,16.607-.167,16.606.074,16.606.167" transform="translate(-63.648 -53.338)" fill="#263238"/>
        <path id="Trazado_642550" data-name="Trazado 642550" d="M120.227,232.229c0,.092-11.414.167-25.492.167s-25.494-.074-25.494-.167,11.412-.167,25.494-.167,25.492.074,25.492.167" transform="translate(-24.842 -83.259)" fill="#263238"/>
        <path id="Trazado_642551" data-name="Trazado 642551" d="M168.208,231.442c0,.092-3.093.167-6.907.167s-6.908-.074-6.908-.167,3.092-.167,6.908-.167,6.907.074,6.907.167" transform="translate(-55.394 -82.977)" fill="#263238"/>
        <path id="Trazado_642552" data-name="Trazado 642552" d="M212.7,230.983c0,.092-6.383.167-14.254.167s-14.256-.074-14.256-.167,6.381-.167,14.256-.167,14.254.074,14.254.167" transform="translate(-66.083 -82.812)" fill="#263238"/>
        <path id="Trazado_642553" data-name="Trazado 642553" d="M170.962,240.151c0,.092-22.9.167-51.139.167s-51.145-.074-51.145-.167,22.894-.167,51.145-.167,51.139.074,51.139.167" transform="translate(-24.64 -86.102)" fill="#263238"/>
        <path id="Trazado_642554" data-name="Trazado 642554" d="M116.458,249.777c0,.092-10.594.167-23.659.167s-23.662-.074-23.662-.167,10.592-.167,23.662-.167,23.659.074,23.659.167" transform="translate(-24.805 -89.555)" fill="#263238"/>
        <path id="Trazado_642555" data-name="Trazado 642555" d="M162.743,249.777a62.752,62.752,0,0,1-6.466.167,62.76,62.76,0,0,1-6.467-.167,62.776,62.776,0,0,1,6.467-.167,62.768,62.768,0,0,1,6.466.167" transform="translate(-53.749 -89.555)" fill="#263238"/>
        <path id="Trazado_642556" data-name="Trazado 642556" d="M209.61,248.86c0,.092-7.436.167-16.606.167s-16.607-.074-16.607-.167,7.434-.167,16.607-.167,16.606.074,16.606.167" transform="translate(-63.288 -89.226)" fill="#263238"/>
        <path id="Trazado_642557" data-name="Trazado 642557" d="M134.861,260.337c0,.093-14.453.167-32.278.167s-32.28-.074-32.28-.167,14.45-.166,32.28-.166,32.278.074,32.278.166" transform="translate(-25.223 -93.344)" fill="#263238"/>
        <path id="Trazado_642558" data-name="Trazado 642558" d="M133.932,270.9c0,.092-14.423.167-32.21.167s-32.214-.074-32.214-.167,14.42-.167,32.214-.167,32.21.074,32.21.167" transform="translate(-24.938 -97.133)" fill="#263238"/>
        <rect id="Rectángulo_335327" data-name="Rectángulo 335327" width="62.598" height="39.965" transform="translate(44.613 102.614)" fill="#ff725e"/>
        <path id="Trazado_642559" data-name="Trazado 642559" d="M131.166,198.15s-.009-.216-.014-.624-.008-1.018-.014-1.8c-.008-1.584-.019-3.9-.033-6.866-.016-5.937-.04-14.479-.069-24.944l.13.13-56.724.037h0l.167-.167c0,12.129-.008,23.7-.012,34.234L74.438,198l40.8.075,11.714.042,3.125.019.81.01c.183,0,.28.009.28.009s-.085.006-.262.009l-.792.01-3.094.019-11.679.042-40.9.075h-.155v-.155c0-10.533-.008-22.105-.012-34.234v-.167h.171l56.724.037h.131v.13c-.029,10.5-.053,19.069-.069,25.024-.015,2.955-.026,5.259-.033,6.837q-.01,1.159-.014,1.776c-.005.4-.014.6-.014.6" transform="translate(-26.647 -58.75)" fill="#263238"/>
        <g id="Grupo_927664" data-name="Grupo 927664" transform="translate(49.324 118.253)" opacity="0.2">
          <g id="Grupo_927663" data-name="Grupo 927663">
            <g id="Grupo_927662" data-name="Grupo 927662" clip-path="url(#clip-path-9)">
              <path id="Trazado_642560" data-name="Trazado 642560" d="M76.922,205.566l16.409-21.147,11.859,13.544,9.075-8.168,16.5,15.771Z" transform="translate(-76.922 -184.419)"/>
            </g>
          </g>
        </g>
        <g id="Grupo_927667" data-name="Grupo 927667" transform="translate(73.944 112.078)" opacity="0.2">
          <g id="Grupo_927666" data-name="Grupo 927666">
            <g id="Grupo_927665" data-name="Grupo 927665" clip-path="url(#clip-path-10)">
              <path id="Trazado_642561" data-name="Trazado 642561" d="M122.636,178.447a3.658,3.658,0,1,1-3.659-3.659,3.659,3.659,0,0,1,3.659,3.659" transform="translate(-115.318 -174.789)"/>
            </g>
          </g>
        </g>
        <path id="Trazado_642562" data-name="Trazado 642562" d="M209.56,159.393c0,.092-7.857.167-17.547.167s-17.548-.074-17.548-.167,7.856-.167,17.548-.167,17.547.074,17.547.167" transform="translate(-62.595 -57.127)" fill="#263238"/>
        <path id="Trazado_642563" data-name="Trazado 642563" d="M209.56,169.094c0,.092-7.857.167-17.547.167s-17.548-.074-17.548-.167,7.856-.167,17.548-.167,17.547.074,17.547.167" transform="translate(-62.595 -60.608)" fill="#263238"/>
        <path id="Trazado_642564" data-name="Trazado 642564" d="M207.6,211.313c0,.092-7.857.167-17.547.167s-17.548-.074-17.548-.167,7.856-.167,17.548-.167,17.547.074,17.547.167" transform="translate(-61.891 -75.755)" fill="#263238"/>
        <path id="Trazado_642565" data-name="Trazado 642565" d="M207.6,222.262c0,.092-7.857.167-17.547.167s-17.548-.075-17.548-.167,7.856-.167,17.548-.167,17.547.074,17.547.167" transform="translate(-61.891 -79.683)" fill="#263238"/>
        <path id="Trazado_642566" data-name="Trazado 642566" d="M198.1,178.795c0,.092-5.291.167-11.816.167s-11.816-.074-11.816-.167,5.289-.167,11.816-.167,11.816.074,11.816.167" transform="translate(-62.595 -64.088)" fill="#263238"/>
        <path id="Trazado_642567" data-name="Trazado 642567" d="M224.671,178.682a29.291,29.291,0,0,1-4.412.167,29.289,29.289,0,0,1-4.412-.167,29.294,29.294,0,0,1,4.412-.167,29.3,29.3,0,0,1,4.412.167" transform="translate(-77.442 -64.048)" fill="#263238"/>
        <path id="Trazado_642568" data-name="Trazado 642568" d="M216.435,189.434c0,.092-5.271.167-11.771.167s-11.772-.074-11.772-.167,5.27-.167,11.772-.167,11.771.074,11.771.167" transform="translate(-69.206 -67.905)" fill="#263238"/>
        <path id="Trazado_642569" data-name="Trazado 642569" d="M198.1,200.3c0,.092-5.291.167-11.816.167s-11.816-.074-11.816-.167,5.289-.167,11.816-.167,11.816.074,11.816.167" transform="translate(-62.595 -71.803)" fill="#263238"/>
        <path id="Trazado_642570" data-name="Trazado 642570" d="M224.671,200.186a29.3,29.3,0,0,1-4.412.167,29.293,29.293,0,0,1-4.412-.167,29.289,29.289,0,0,1,4.412-.167,29.291,29.291,0,0,1,4.412.167" transform="translate(-77.442 -71.763)" fill="#263238"/>
        <path id="Trazado_642571" data-name="Trazado 642571" d="M181.97,189.184a31.777,31.777,0,0,1-6.5,0,31.783,31.783,0,0,1,6.5,0" transform="translate(-62.955 -67.816)" fill="#263238"/>
        <path id="Trazado_642572" data-name="Trazado 642572" d="M134.576,281.24c0,.092-14.567.167-32.532.167s-32.535-.074-32.535-.167,14.564-.167,32.535-.167,32.532.074,32.532.167" transform="translate(-24.938 -100.844)" fill="#263238"/>
        <path id="Trazado_642573" data-name="Trazado 642573" d="M136.1,292.943c0,.092-14.567.167-32.532.167s-32.535-.074-32.535-.167,14.564-.167,32.535-.167,32.532.074,32.532.167" transform="translate(-25.486 -105.042)" fill="#263238"/>
        <rect id="Rectángulo_335330" data-name="Rectángulo 335330" width="122.899" height="161.932" transform="translate(29.02 35.715)" fill="#fff"/>
        <path id="Trazado_642574" data-name="Trazado 642574" d="M168.063,217.537c0-1.326-.062-65.955-.151-161.932l.151.151-122.885.017h-.014l.167-.167c-.012,60.245-.022,116.115-.03,161.932l-.137-.137,122.9.137-122.9.137h-.137v-.137C45.018,171.72,45.008,115.85,45,55.6v-.167h.181l122.885.017h.151v.15c-.089,95.977-.149,160.607-.151,161.932" transform="translate(-16.144 -19.89)" fill="#263238"/>
        <path id="Trazado_642575" data-name="Trazado 642575" d="M168.156,74.093c0,.055-27.514.1-61.447.1s-61.453-.044-61.453-.1,27.508-.1,61.453-.1,61.447.044,61.447.1" transform="translate(-16.237 -26.548)" fill="#263238"/>
        <line id="Línea_2719" data-name="Línea 2719" x2="41.926" transform="translate(72.33 42.011)" fill="#455a64"/>
        <path id="Trazado_642576" data-name="Trazado 642576" d="M154.727,65.462c0,.054-9.386.1-20.962.1s-20.964-.044-20.964-.1,9.384-.1,20.964-.1,20.962.044,20.962.1" transform="translate(-40.471 -23.451)" fill="#455a64"/>
        <path id="Trazado_642577" data-name="Trazado 642577" d="M53.316,64.757A1.359,1.359,0,1,1,51.958,63.4a1.359,1.359,0,0,1,1.359,1.359" transform="translate(-18.154 -22.746)" fill="#e0e0e0"/>
        <path id="Trazado_642578" data-name="Trazado 642578" d="M60.5,64.757A1.359,1.359,0,1,1,59.143,63.4,1.359,1.359,0,0,1,60.5,64.757" transform="translate(-20.732 -22.746)" fill="#e0e0e0"/>
        <path id="Trazado_642579" data-name="Trazado 642579" d="M67.687,64.757A1.359,1.359,0,1,1,66.329,63.4a1.359,1.359,0,0,1,1.359,1.359" transform="translate(-23.31 -22.746)" fill="#e0e0e0"/>
        <path id="Trazado_642580" data-name="Trazado 642580" d="M115.489,97.283h-2.816l-.537,1.3H110.7l2.7-6.065h1.386l2.712,6.065h-1.473Zm-.442-1.066-.962-2.322-.962,2.322Z" transform="translate(-39.716 -33.193)" fill="#455a64"/>
        <path id="Trazado_642581" data-name="Trazado 642581" d="M126.155,98.582l-1.17-1.69h-1.291v1.69h-1.4V92.516h2.626c1.62,0,2.634.841,2.634,2.2a1.972,1.972,0,0,1-1.248,1.915l1.361,1.95Zm-1.317-4.922h-1.144v2.114h1.144c.858,0,1.291-.4,1.291-1.057s-.433-1.057-1.291-1.057" transform="translate(-43.875 -33.193)" fill="#455a64"/>
        <path id="Trazado_642582" data-name="Trazado 642582" d="M132.959,93.66h-1.941V92.516H136.3V93.66h-1.941v4.922h-1.4Z" transform="translate(-47.007 -33.193)" fill="#455a64"/>
        <rect id="Rectángulo_335331" data-name="Rectángulo 335331" width="1.404" height="6.066" transform="translate(90.05 59.323)" fill="#455a64"/>
        <path id="Trazado_642583" data-name="Trazado 642583" d="M144.273,95.491a3.34,3.34,0,0,1,5.788-2.062l-.9.832a1.952,1.952,0,0,0-1.525-.71,1.941,1.941,0,1,0,0,3.882,1.932,1.932,0,0,0,1.525-.719l.9.832a3.334,3.334,0,0,1-5.788-2.054" transform="translate(-51.762 -33.135)" fill="#455a64"/>
        <path id="Trazado_642584" data-name="Trazado 642584" d="M154.772,92.516h1.4v4.922h3.041v1.144h-4.445Z" transform="translate(-55.529 -33.193)" fill="#455a64"/>
        <path id="Trazado_642585" data-name="Trazado 642585" d="M167.629,97.456v1.127h-4.7V92.516h4.583v1.127h-3.189V94.96h2.816v1.092h-2.816v1.4Z" transform="translate(-58.457 -33.193)" fill="#455a64"/>
        <path id="Trazado_642586" data-name="Trazado 642586" d="M89.763,98.037c0,.055-6.506.1-14.529.1s-14.53-.044-14.53-.1,6.5-.1,14.53-.1,14.529.044,14.529.1" transform="translate(-21.779 -35.138)" fill="#263238"/>
        <path id="Trazado_642587" data-name="Trazado 642587" d="M209.446,98.037c0,.055-6.83.1-15.254.1s-15.256-.044-15.256-.1,6.829-.1,15.256-.1,15.254.044,15.254.1" transform="translate(-64.199 -35.138)" fill="#263238"/>
        <rect id="Rectángulo_335332" data-name="Rectángulo 335332" width="29.474" height="28.515" transform="translate(110.269 160.995)" fill="#455a64"/>
        <g id="Grupo_927670" data-name="Grupo 927670" transform="translate(112.554 172.396)" opacity="0.3">
          <g id="Grupo_927669" data-name="Grupo 927669">
            <g id="Grupo_927668" data-name="Grupo 927668" clip-path="url(#clip-path-11)">
              <path id="Trazado_642588" data-name="Trazado 642588" d="M175.531,283.531l8.153-14.674,6.669,9.379,4.052-4.981,6.029,10.276Z" transform="translate(-175.531 -268.857)"/>
            </g>
          </g>
        </g>
        <g id="Grupo_927673" data-name="Grupo 927673" transform="translate(125.975 167.422)" opacity="0.3">
          <g id="Grupo_927672" data-name="Grupo 927672">
            <g id="Grupo_927671" data-name="Grupo 927671" clip-path="url(#clip-path-7)">
              <path id="Trazado_642589" data-name="Trazado 642589" d="M200.136,261.666a2.2,2.2,0,0,1-3.108,3.107,2.2,2.2,0,0,1,3.108-3.107" transform="translate(-196.461 -261.099)"/>
            </g>
          </g>
        </g>
        <g id="Grupo_927676" data-name="Grupo 927676" transform="translate(112.382 163.214)" opacity="0.3">
          <g id="Grupo_927675" data-name="Grupo 927675">
            <g id="Grupo_927674" data-name="Grupo 927674" clip-path="url(#clip-path-13)">
              <path id="Trazado_642590" data-name="Trazado 642590" d="M200.338,278.473a.948.948,0,0,1-.007-.117c0-.086,0-.194-.006-.333q0-.455-.014-1.283c-.007-1.13-.018-2.766-.031-4.842-.015-4.165-.036-10.1-.062-17.217l.121.121-24.9.02c-.034.029.264-.264.138-.137V256.3q0,.809,0,1.61,0,1.6,0,3.175c0,2.1,0,4.147,0,6.145,0,3.994-.009,7.769-.013,11.242l-.122-.122,18.005.062,5.078.032,1.347.014.349.007a.889.889,0,0,1,.122.007.651.651,0,0,1-.109.007l-.335.007-1.324.014-5.051.032-18.084.062h-.122v-.123c0-3.473-.008-7.249-.013-11.242,0-2,0-4.049,0-6.145q0-1.572,0-3.175,0-.8,0-1.61v-1.616c-.125.123.171-.176.143-.144l24.9.019h.121v.121c-.026,7.153-.047,13.11-.062,17.294-.013,2.065-.024,3.692-.031,4.816q-.01.813-.014,1.26c0,.133-.005.238-.007.32a.5.5,0,0,1-.006.1" transform="translate(-175.263 -254.537)"/>
            </g>
          </g>
        </g>
        <path id="Trazado_642591" data-name="Trazado 642591" d="M89.126,114.842c0,.092-6.445.167-14.393.167s-14.393-.074-14.393-.167,6.443-.167,14.393-.167,14.393.074,14.393.167" transform="translate(-21.649 -41.143)" fill="#263238"/>
        <path id="Trazado_642592" data-name="Trazado 642592" d="M111.326,125.616c0,.092-11.414.167-25.492.167s-25.494-.074-25.494-.167,11.412-.167,25.494-.167,25.492.074,25.492.167" transform="translate(-21.649 -45.009)" fill="#263238"/>
        <path id="Trazado_642593" data-name="Trazado 642593" d="M159.307,124.829c0,.092-3.093.167-6.907.167s-6.908-.074-6.908-.167,3.093-.167,6.908-.167,6.907.074,6.907.167" transform="translate(-52.2 -44.726)" fill="#263238"/>
        <path id="Trazado_642594" data-name="Trazado 642594" d="M203.8,124.37c0,.092-6.383.167-14.254.167s-14.256-.074-14.256-.167,6.381-.167,14.256-.167,14.254.074,14.254.167" transform="translate(-62.89 -44.562)" fill="#263238"/>
        <path id="Trazado_642595" data-name="Trazado 642595" d="M162.061,133.538c0,.092-22.9.167-51.14.167s-51.144-.074-51.144-.167,22.894-.167,51.144-.167,51.14.074,51.14.167" transform="translate(-21.447 -47.851)" fill="#263238"/>
        <path id="Trazado_642596" data-name="Trazado 642596" d="M107.556,143.164c0,.092-10.594.167-23.66.167s-23.662-.074-23.662-.167S70.827,143,83.9,143s23.66.074,23.66.167" transform="translate(-21.611 -51.305)" fill="#263238"/>
        <path id="Trazado_642597" data-name="Trazado 642597" d="M153.842,143.164a62.76,62.76,0,0,1-6.466.167,62.768,62.768,0,0,1-6.467-.167,62.765,62.765,0,0,1,6.467-.167,62.757,62.757,0,0,1,6.466.167" transform="translate(-50.555 -51.305)" fill="#263238"/>
        <path id="Trazado_642598" data-name="Trazado 642598" d="M200.709,142.247c0,.092-7.436.167-16.606.167s-16.607-.074-16.607-.167,7.434-.167,16.607-.167,16.606.074,16.606.167" transform="translate(-60.094 -50.976)" fill="#263238"/>
        <path id="Trazado_642599" data-name="Trazado 642599" d="M110.322,225.644c0,.092-11.414.167-25.492.167s-25.494-.074-25.494-.167,11.412-.167,25.494-.167,25.492.074,25.492.167" transform="translate(-21.289 -80.897)" fill="#263238"/>
        <path id="Trazado_642600" data-name="Trazado 642600" d="M158.3,224.856c0,.093-3.093.167-6.907.167s-6.908-.074-6.908-.167,3.092-.167,6.908-.167,6.907.074,6.907.167" transform="translate(-51.84 -80.614)" fill="#263238"/>
        <path id="Trazado_642601" data-name="Trazado 642601" d="M202.794,224.4c0,.092-6.383.167-14.254.167s-14.256-.074-14.256-.167,6.381-.167,14.256-.167,14.254.074,14.254.167" transform="translate(-62.53 -80.45)" fill="#263238"/>
        <path id="Trazado_642602" data-name="Trazado 642602" d="M161.057,233.566c0,.092-22.9.167-51.14.167s-51.144-.074-51.144-.167,22.894-.167,51.144-.167,51.14.074,51.14.167" transform="translate(-21.087 -83.739)" fill="#263238"/>
        <path id="Trazado_642603" data-name="Trazado 642603" d="M106.553,243.192c0,.092-10.594.167-23.659.167s-23.662-.074-23.662-.167,10.592-.167,23.662-.167,23.659.074,23.659.167" transform="translate(-21.251 -87.193)" fill="#263238"/>
        <path id="Trazado_642604" data-name="Trazado 642604" d="M152.838,243.192a62.757,62.757,0,0,1-6.466.167,62.765,62.765,0,0,1-6.467-.167,62.765,62.765,0,0,1,6.467-.167,62.757,62.757,0,0,1,6.466.167" transform="translate(-50.195 -87.193)" fill="#263238"/>
        <path id="Trazado_642605" data-name="Trazado 642605" d="M199.7,242.275c0,.092-7.436.167-16.606.167s-16.607-.074-16.607-.167,7.434-.167,16.607-.167,16.606.074,16.606.167" transform="translate(-59.734 -86.864)" fill="#263238"/>
        <path id="Trazado_642606" data-name="Trazado 642606" d="M124.956,253.752c0,.093-14.453.167-32.278.167s-32.28-.074-32.28-.167,14.45-.167,32.28-.167,32.278.074,32.278.167" transform="translate(-21.67 -90.981)" fill="#263238"/>
        <path id="Trazado_642607" data-name="Trazado 642607" d="M124.027,264.313c0,.092-14.423.167-32.21.167S59.6,264.4,59.6,264.313s14.42-.167,32.214-.167,32.21.074,32.21.167" transform="translate(-21.384 -94.77)" fill="#263238"/>
        <rect id="Rectángulo_335336" data-name="Rectángulo 335336" width="62.598" height="39.965" transform="translate(38.262 98.391)" fill="#ff725e"/>
        <path id="Trazado_642608" data-name="Trazado 642608" d="M121.261,191.566s-.009-.216-.014-.624-.008-1.018-.014-1.8c-.008-1.585-.019-3.9-.033-6.866-.016-5.937-.04-14.479-.069-24.944l.13.13-56.724.037h0l.167-.167c0,12.128-.008,23.7-.012,34.234l-.155-.155,40.8.076,11.714.042,3.125.019.81.01c.183,0,.28.009.28.009s-.085.006-.262.009l-.792.01-3.094.019-11.679.042-40.9.075h-.155v-.155c0-10.533-.008-22.106-.012-34.234v-.167h.171l56.724.037h.131v.13c-.029,10.5-.053,19.069-.069,25.024-.015,2.955-.026,5.259-.033,6.837q-.01,1.159-.014,1.776c-.005.4-.014.6-.014.6" transform="translate(-23.093 -56.388)" fill="#263238"/>
        <g id="Grupo_927679" data-name="Grupo 927679" transform="translate(42.972 114.031)" opacity="0.2">
          <g id="Grupo_927678" data-name="Grupo 927678">
            <g id="Grupo_927677" data-name="Grupo 927677" clip-path="url(#clip-path-9)">
              <path id="Trazado_642609" data-name="Trazado 642609" d="M67.017,198.981l16.409-21.147,11.858,13.544,9.075-8.168,16.5,15.771Z" transform="translate(-67.017 -177.834)"/>
            </g>
          </g>
        </g>
        <g id="Grupo_927682" data-name="Grupo 927682" transform="translate(67.593 107.856)" opacity="0.2">
          <g id="Grupo_927681" data-name="Grupo 927681">
            <g id="Grupo_927680" data-name="Grupo 927680" clip-path="url(#clip-path-15)">
              <path id="Trazado_642610" data-name="Trazado 642610" d="M112.731,171.862a3.658,3.658,0,1,1-3.659-3.659,3.659,3.659,0,0,1,3.659,3.659" transform="translate(-105.414 -168.204)"/>
            </g>
          </g>
        </g>
        <path id="Trazado_642611" data-name="Trazado 642611" d="M199.655,152.808c0,.092-7.857.167-17.547.167s-17.548-.074-17.548-.167,7.856-.167,17.548-.167,17.547.074,17.547.167" transform="translate(-59.041 -54.765)" fill="#263238"/>
        <path id="Trazado_642612" data-name="Trazado 642612" d="M199.655,162.509c0,.092-7.857.167-17.547.167s-17.548-.074-17.548-.167,7.856-.167,17.548-.167,17.547.074,17.547.167" transform="translate(-59.041 -58.245)" fill="#263238"/>
        <path id="Trazado_642613" data-name="Trazado 642613" d="M197.693,204.727c0,.093-7.857.167-17.547.167s-17.548-.074-17.548-.167,7.856-.166,17.548-.166,17.547.074,17.547.166" transform="translate(-58.337 -73.393)" fill="#263238"/>
        <path id="Trazado_642614" data-name="Trazado 642614" d="M197.693,215.677c0,.092-7.857.167-17.547.167s-17.548-.074-17.548-.167,7.856-.167,17.548-.167,17.547.074,17.547.167" transform="translate(-58.337 -77.321)" fill="#263238"/>
        <path id="Trazado_642615" data-name="Trazado 642615" d="M188.192,172.21c0,.092-5.291.167-11.815.167s-11.817-.074-11.817-.167,5.289-.167,11.817-.167,11.815.074,11.815.167" transform="translate(-59.041 -61.726)" fill="#263238"/>
        <path id="Trazado_642616" data-name="Trazado 642616" d="M214.766,172.1a29.3,29.3,0,0,1-4.412.167,29.294,29.294,0,0,1-4.412-.167,29.289,29.289,0,0,1,4.412-.167,29.291,29.291,0,0,1,4.412.167" transform="translate(-73.888 -61.685)" fill="#263238"/>
        <path id="Trazado_642617" data-name="Trazado 642617" d="M206.53,182.849c0,.092-5.271.167-11.771.167s-11.772-.074-11.772-.167,5.27-.167,11.772-.167,11.771.074,11.771.167" transform="translate(-65.653 -65.543)" fill="#263238"/>
        <path id="Trazado_642618" data-name="Trazado 642618" d="M188.192,193.713c0,.092-5.291.167-11.815.167s-11.817-.074-11.817-.167,5.289-.167,11.817-.167,11.815.074,11.815.167" transform="translate(-59.041 -69.441)" fill="#263238"/>
        <path id="Trazado_642619" data-name="Trazado 642619" d="M214.766,193.6a29.3,29.3,0,0,1-4.412.167,29.3,29.3,0,0,1-4.412-.167,29.29,29.29,0,0,1,4.412-.167,29.292,29.292,0,0,1,4.412.167" transform="translate(-73.888 -69.4)" fill="#263238"/>
        <path id="Trazado_642620" data-name="Trazado 642620" d="M172.065,182.6a31.78,31.78,0,0,1-6.5,0,31.783,31.783,0,0,1,6.5,0" transform="translate(-59.401 -65.453)" fill="#263238"/>
        <path id="Trazado_642621" data-name="Trazado 642621" d="M124.671,274.655c0,.092-14.567.167-32.532.167s-32.535-.074-32.535-.167,14.564-.167,32.535-.167,32.532.074,32.532.167" transform="translate(-21.384 -98.481)" fill="#263238"/>
        <path id="Trazado_642622" data-name="Trazado 642622" d="M126.2,286.358c0,.092-14.567.167-32.532.167s-32.535-.074-32.535-.167,14.564-.167,32.535-.167,32.532.074,32.532.167" transform="translate(-21.932 -102.68)" fill="#263238"/>
        <rect id="Rectángulo_335339" data-name="Rectángulo 335339" width="122.899" height="161.932" transform="translate(22.91 29.605)" fill="#fff"/>
        <path id="Trazado_642623" data-name="Trazado 642623" d="M158.535,208.009c0-1.325-.062-65.955-.151-161.932l.151.151L35.65,46.244h-.014l.167-.167c-.012,60.245-.022,116.115-.03,161.932l-.137-.137,122.9.137-122.9.137H35.5v-.137c-.008-45.817-.019-101.687-.029-161.932V45.91h.181l122.885.017h.151v.15c-.089,95.977-.149,160.607-.151,161.932" transform="translate(-12.726 -16.472)" fill="#263238"/>
        <path id="Trazado_642624" data-name="Trazado 642624" d="M158.628,64.565c0,.055-27.514.1-61.447.1s-61.453-.044-61.453-.1,27.508-.1,61.453-.1,61.447.044,61.447.1" transform="translate(-12.819 -23.129)" fill="#263238"/>
        <line id="Línea_2720" data-name="Línea 2720" x2="41.926" transform="translate(66.221 35.901)" fill="#455a64"/>
        <path id="Trazado_642625" data-name="Trazado 642625" d="M145.2,55.934c0,.055-9.386.1-20.962.1s-20.964-.044-20.964-.1,9.384-.1,20.964-.1,20.962.044,20.962.1" transform="translate(-37.052 -20.033)" fill="#455a64"/>
        <path id="Trazado_642626" data-name="Trazado 642626" d="M43.788,55.229A1.359,1.359,0,1,1,42.43,53.87a1.359,1.359,0,0,1,1.359,1.359" transform="translate(-14.735 -19.328)" fill="#e0e0e0"/>
        <path id="Trazado_642627" data-name="Trazado 642627" d="M50.974,55.229a1.359,1.359,0,1,1-1.359-1.359,1.359,1.359,0,0,1,1.359,1.359" transform="translate(-17.314 -19.328)" fill="#e0e0e0"/>
        <path id="Trazado_642628" data-name="Trazado 642628" d="M58.159,55.229A1.359,1.359,0,1,1,56.8,53.87a1.359,1.359,0,0,1,1.359,1.359" transform="translate(-19.892 -19.328)" fill="#e0e0e0"/>
        <path id="Trazado_642629" data-name="Trazado 642629" d="M80.235,88.51c0,.054-6.506.1-14.529.1s-14.53-.044-14.53-.1,6.5-.1,14.53-.1,14.529.044,14.529.1" transform="translate(-18.361 -31.72)" fill="#263238"/>
        <path id="Trazado_642630" data-name="Trazado 642630" d="M199.919,88.51c0,.054-6.83.1-15.254.1s-15.256-.044-15.256-.1,6.829-.1,15.256-.1,15.254.044,15.254.1" transform="translate(-60.781 -31.72)" fill="#263238"/>
        <rect id="Rectángulo_335340" data-name="Rectángulo 335340" width="29.474" height="28.515" transform="translate(104.159 154.886)" fill="#455a64"/>
        <g id="Grupo_927685" data-name="Grupo 927685" transform="translate(106.444 166.287)" opacity="0.3">
          <g id="Grupo_927684" data-name="Grupo 927684">
            <g id="Grupo_927683" data-name="Grupo 927683" clip-path="url(#clip-path-11)">
              <path id="Trazado_642631" data-name="Trazado 642631" d="M166,274l8.153-14.674,6.669,9.379,4.052-4.981L190.906,274Z" transform="translate(-166.003 -259.329)"/>
            </g>
          </g>
        </g>
        <g id="Grupo_927688" data-name="Grupo 927688" transform="translate(119.865 161.312)" opacity="0.3">
          <g id="Grupo_927687" data-name="Grupo 927687">
            <g id="Grupo_927686" data-name="Grupo 927686" clip-path="url(#clip-path-7)">
              <path id="Trazado_642632" data-name="Trazado 642632" d="M190.608,252.138a2.2,2.2,0,0,1-3.108,3.107,2.2,2.2,0,0,1,3.108-3.107" transform="translate(-186.933 -251.571)"/>
            </g>
          </g>
        </g>
        <g id="Grupo_927691" data-name="Grupo 927691" transform="translate(106.273 157.104)" opacity="0.3">
          <g id="Grupo_927690" data-name="Grupo 927690">
            <g id="Grupo_927689" data-name="Grupo 927689" clip-path="url(#clip-path-18)">
              <path id="Trazado_642633" data-name="Trazado 642633" d="M190.81,268.945a.959.959,0,0,1-.007-.117c0-.086,0-.194-.006-.333q0-.455-.014-1.283c-.007-1.13-.018-2.766-.031-4.843-.015-4.165-.036-10.1-.062-17.217l.121.121-24.9.02c-.034.029.264-.264.138-.137v1.617q0,.809,0,1.61,0,1.6,0,3.175c0,2.1,0,4.147,0,6.145,0,3.994-.009,7.769-.013,11.243l-.122-.123,18.005.062,5.078.032,1.347.014.349.007a.862.862,0,0,1,.122.007.589.589,0,0,1-.109.007l-.336.007-1.324.014-5.051.032-18.084.062h-.122v-.123c0-3.474-.008-7.249-.013-11.243,0-2,0-4.049,0-6.145q0-1.572,0-3.175,0-.8,0-1.61v-1.617c-.125.123.171-.176.143-.144l24.9.019h.121v.121c-.026,7.153-.047,13.11-.062,17.294-.013,2.065-.024,3.692-.031,4.816q-.01.813-.014,1.26c0,.133-.005.238-.007.32a.5.5,0,0,1-.006.1" transform="translate(-165.736 -245.009)"/>
            </g>
          </g>
        </g>
        <path id="Trazado_642634" data-name="Trazado 642634" d="M79.6,105.314c0,.092-6.444.167-14.392.167s-14.394-.074-14.394-.167,6.443-.167,14.394-.167,14.392.074,14.392.167" transform="translate(-18.23 -37.725)" fill="#263238"/>
        <path id="Trazado_642635" data-name="Trazado 642635" d="M101.8,116.088c0,.092-11.414.167-25.492.167s-25.494-.074-25.494-.167,11.412-.167,25.494-.167,25.492.074,25.492.167" transform="translate(-18.231 -41.59)" fill="#263238"/>
        <path id="Trazado_642636" data-name="Trazado 642636" d="M149.779,115.3c0,.092-3.093.167-6.907.167s-6.908-.074-6.908-.167,3.093-.167,6.908-.167,6.907.074,6.907.167" transform="translate(-48.782 -41.308)" fill="#263238"/>
        <path id="Trazado_642637" data-name="Trazado 642637" d="M194.271,114.842c0,.092-6.383.167-14.254.167s-14.256-.074-14.256-.167,6.381-.166,14.256-.166,14.254.074,14.254.166" transform="translate(-59.472 -41.144)" fill="#263238"/>
        <path id="Trazado_642638" data-name="Trazado 642638" d="M152.533,124.01c0,.092-22.9.167-51.14.167s-51.144-.074-51.144-.167,22.894-.167,51.144-.167,51.14.074,51.14.167" transform="translate(-18.028 -44.432)" fill="#263238"/>
        <path id="Trazado_642639" data-name="Trazado 642639" d="M98.028,133.636c0,.092-10.594.167-23.66.167s-23.662-.074-23.662-.167,10.592-.167,23.662-.167,23.66.074,23.66.167" transform="translate(-18.193 -47.886)" fill="#263238"/>
        <path id="Trazado_642640" data-name="Trazado 642640" d="M144.315,133.636a62.757,62.757,0,0,1-6.466.167,62.764,62.764,0,0,1-6.467-.167,62.764,62.764,0,0,1,6.467-.167,62.757,62.757,0,0,1,6.466.167" transform="translate(-47.137 -47.886)" fill="#263238"/>
        <path id="Trazado_642641" data-name="Trazado 642641" d="M191.181,132.719c0,.092-7.436.167-16.606.167s-16.607-.074-16.607-.167,7.434-.167,16.607-.167,16.606.074,16.606.167" transform="translate(-56.676 -47.557)" fill="#263238"/>
        <path id="Trazado_642642" data-name="Trazado 642642" d="M100.794,216.116c0,.092-11.414.167-25.492.167s-25.494-.074-25.494-.167,11.412-.167,25.494-.167,25.492.074,25.492.167" transform="translate(-17.87 -77.478)" fill="#263238"/>
        <path id="Trazado_642643" data-name="Trazado 642643" d="M148.775,215.329c0,.092-3.093.167-6.907.167s-6.908-.074-6.908-.167,3.092-.167,6.908-.167,6.907.074,6.907.167" transform="translate(-48.421 -77.196)" fill="#263238"/>
        <path id="Trazado_642644" data-name="Trazado 642644" d="M193.267,214.87c0,.092-6.383.167-14.255.167s-14.255-.074-14.255-.167,6.381-.167,14.255-.167,14.255.074,14.255.167" transform="translate(-59.112 -77.031)" fill="#263238"/>
        <path id="Trazado_642645" data-name="Trazado 642645" d="M151.529,224.038c0,.092-22.9.167-51.14.167s-51.144-.074-51.144-.167,22.894-.167,51.144-.167,51.14.074,51.14.167" transform="translate(-17.668 -80.321)" fill="#263238"/>
        <path id="Trazado_642646" data-name="Trazado 642646" d="M97.025,233.664c0,.092-10.594.167-23.659.167s-23.662-.074-23.662-.167S60.3,233.5,73.366,233.5s23.659.074,23.659.167" transform="translate(-17.833 -83.774)" fill="#263238"/>
        <path id="Trazado_642647" data-name="Trazado 642647" d="M143.31,233.664a62.754,62.754,0,0,1-6.466.167,62.762,62.762,0,0,1-6.467-.167,62.765,62.765,0,0,1,6.467-.167,62.757,62.757,0,0,1,6.466.167" transform="translate(-46.777 -83.774)" fill="#263238"/>
        <path id="Trazado_642648" data-name="Trazado 642648" d="M190.177,232.747c0,.092-7.436.167-16.606.167s-16.607-.074-16.607-.167,7.434-.167,16.607-.167,16.606.074,16.606.167" transform="translate(-56.316 -83.445)" fill="#263238"/>
        <path id="Trazado_642649" data-name="Trazado 642649" d="M115.429,244.225c0,.092-14.453.167-32.278.167s-32.28-.074-32.28-.167,14.45-.167,32.28-.167,32.278.074,32.278.167" transform="translate(-18.252 -87.563)" fill="#263238"/>
        <path id="Trazado_642650" data-name="Trazado 642650" d="M114.5,254.786c0,.092-14.423.167-32.21.167s-32.214-.074-32.214-.167,14.42-.167,32.214-.167,32.21.074,32.21.167" transform="translate(-17.966 -91.352)" fill="#263238"/>
        <path id="Trazado_642716" data-name="Trazado 642716" d="M0,0H62.6V39.965H0Z" transform="translate(32.153 92.282)" fill="#f9a21b"/>
        <path id="Trazado_642651" data-name="Trazado 642651" d="M111.733,182.037s-.009-.216-.014-.624-.008-1.018-.014-1.8c-.008-1.585-.019-3.9-.033-6.866-.016-5.937-.04-14.479-.069-24.944l.13.13-56.724.037h0l.167-.167c0,12.128-.008,23.7-.012,34.234L55,181.883l40.8.075,11.714.042,3.125.019.81.01c.183,0,.28.009.28.009s-.085.006-.262.009l-.792.01-3.094.019-11.679.042-40.9.076H54.85v-.155c0-10.533-.008-22.106-.012-34.234v-.167h.171l56.724.037h.131v.13c-.029,10.5-.053,19.069-.069,25.024-.015,2.955-.026,5.259-.033,6.837q-.01,1.159-.014,1.776c-.005.4-.014.6-.014.6" transform="translate(-19.675 -52.969)" fill="#263238"/>
        <g id="Grupo_927694" data-name="Grupo 927694" transform="translate(36.863 107.921)" opacity="0.2">
          <g id="Grupo_927693" data-name="Grupo 927693">
            <g id="Grupo_927692" data-name="Grupo 927692" clip-path="url(#clip-path-9)">
              <path id="Trazado_642652" data-name="Trazado 642652" d="M57.489,189.454,73.9,168.306l11.859,13.544,9.075-8.168,16.5,15.771Z" transform="translate(-57.489 -168.306)"/>
            </g>
          </g>
        </g>
        <g id="Grupo_927697" data-name="Grupo 927697" transform="translate(61.484 101.746)" opacity="0.2">
          <g id="Grupo_927696" data-name="Grupo 927696">
            <g id="Grupo_927695" data-name="Grupo 927695" clip-path="url(#clip-path-15)">
              <path id="Trazado_642653" data-name="Trazado 642653" d="M103.2,162.335a3.658,3.658,0,1,1-3.659-3.659,3.659,3.659,0,0,1,3.659,3.659" transform="translate(-95.886 -158.676)"/>
            </g>
          </g>
        </g>
        <path id="Trazado_642654" data-name="Trazado 642654" d="M190.127,143.28c0,.092-7.857.167-17.547.167s-17.548-.074-17.548-.167,7.856-.167,17.548-.167,17.547.074,17.547.167" transform="translate(-55.622 -51.346)" fill="#263238"/>
        <path id="Trazado_642655" data-name="Trazado 642655" d="M190.127,152.981c0,.092-7.857.167-17.547.167s-17.548-.074-17.548-.167,7.856-.167,17.548-.167,17.547.074,17.547.167" transform="translate(-55.622 -54.827)" fill="#263238"/>
        <path id="Trazado_642656" data-name="Trazado 642656" d="M188.165,195.2c0,.092-7.857.167-17.547.167s-17.548-.074-17.548-.167,7.855-.167,17.548-.167,17.547.074,17.547.167" transform="translate(-54.919 -69.974)" fill="#263238"/>
        <path id="Trazado_642657" data-name="Trazado 642657" d="M188.165,206.15c0,.092-7.857.167-17.547.167s-17.548-.074-17.548-.167,7.855-.167,17.548-.167,17.547.074,17.547.167" transform="translate(-54.919 -73.903)" fill="#263238"/>
        <path id="Trazado_642658" data-name="Trazado 642658" d="M178.664,162.682c0,.092-5.291.167-11.816.167s-11.816-.074-11.816-.167,5.289-.167,11.816-.167,11.816.074,11.816.167" transform="translate(-55.622 -58.307)" fill="#263238"/>
        <path id="Trazado_642659" data-name="Trazado 642659" d="M205.238,162.57a29.292,29.292,0,0,1-4.412.167,29.29,29.29,0,0,1-4.412-.167,29.294,29.294,0,0,1,4.412-.167,29.3,29.3,0,0,1,4.412.167" transform="translate(-70.47 -58.267)" fill="#263238"/>
        <path id="Trazado_642660" data-name="Trazado 642660" d="M197,173.321c0,.092-5.271.167-11.771.167s-11.771-.074-11.771-.167,5.27-.167,11.771-.167,11.771.074,11.771.167" transform="translate(-62.234 -62.124)" fill="#263238"/>
        <path id="Trazado_642661" data-name="Trazado 642661" d="M178.664,184.185c0,.092-5.291.167-11.816.167s-11.816-.074-11.816-.167,5.289-.167,11.816-.167,11.816.074,11.816.167" transform="translate(-55.622 -66.022)" fill="#263238"/>
        <path id="Trazado_642662" data-name="Trazado 642662" d="M205.238,184.073a29.3,29.3,0,0,1-4.412.167,29.3,29.3,0,0,1-4.412-.167,29.29,29.29,0,0,1,4.412-.167,29.292,29.292,0,0,1,4.412.167" transform="translate(-70.47 -65.982)" fill="#263238"/>
        <path id="Trazado_642663" data-name="Trazado 642663" d="M162.538,173.071a15.916,15.916,0,0,1-3.251.167,15.916,15.916,0,0,1-3.251-.167,16.058,16.058,0,0,1,3.251-.166,16.058,16.058,0,0,1,3.251.166" transform="translate(-55.983 -62.035)" fill="#263238"/>
        <path id="Trazado_642664" data-name="Trazado 642664" d="M115.144,265.127c0,.092-14.567.167-32.532.167s-32.535-.074-32.535-.167,14.564-.167,32.535-.167,32.532.074,32.532.167" transform="translate(-17.966 -95.063)" fill="#263238"/>
        <path id="Trazado_642665" data-name="Trazado 642665" d="M116.669,276.831c0,.092-14.567.167-32.532.167s-32.535-.074-32.535-.167,14.564-.167,32.535-.167,32.532.074,32.532.167" transform="translate(-18.513 -99.262)" fill="#263238"/>
        <path id="Trazado_642666" data-name="Trazado 642666" d="M35.7,172.9a8.583,8.583,0,1,1-8.583-8.583A8.583,8.583,0,0,1,35.7,172.9" transform="translate(-6.651 -58.955)" fill="#ebebeb"/>
        <path id="Trazado_642667" data-name="Trazado 642667" d="M35.61,172.828a15.5,15.5,0,0,0-.332-2.08,8.554,8.554,0,0,0-3.13-4.649,8.44,8.44,0,0,0-7.993-1.188,8.454,8.454,0,0,0-3.909,2.941,8.388,8.388,0,0,0,0,9.952,8.448,8.448,0,0,0,3.91,2.941,8.507,8.507,0,0,0,11.123-5.838,15.5,15.5,0,0,0,.332-2.079,3.313,3.313,0,0,1,.006.549,3.946,3.946,0,0,1-.051.665,6.028,6.028,0,0,1-.16.9,8.645,8.645,0,0,1-6.768,6.456,8.729,8.729,0,0,1-4.586-.361A8.74,8.74,0,0,1,19.983,178a8.686,8.686,0,0,1,0-10.34,8.727,8.727,0,0,1,4.068-3.036,8.733,8.733,0,0,1,4.585-.361,8.642,8.642,0,0,1,6.769,6.456,6.014,6.014,0,0,1,.16.9,3.946,3.946,0,0,1,.051.665,3.313,3.313,0,0,1-.006.549" transform="translate(-6.557 -58.88)" fill="#263238"/>
        <path id="Trazado_642668" data-name="Trazado 642668" d="M236.455,172.9a8.583,8.583,0,1,1-8.583-8.583,8.583,8.583,0,0,1,8.583,8.583" transform="translate(-78.676 -58.955)" fill="#ebebeb"/>
        <path id="Trazado_642669" data-name="Trazado 642669" d="M236.361,172.828a15.5,15.5,0,0,0-.332-2.08,8.554,8.554,0,0,0-3.13-4.649,8.44,8.44,0,0,0-7.993-1.188A8.454,8.454,0,0,0,221,167.852a8.388,8.388,0,0,0,0,9.952,8.456,8.456,0,0,0,3.91,2.941,8.507,8.507,0,0,0,11.123-5.838,15.507,15.507,0,0,0,.332-2.079,3.321,3.321,0,0,1,.006.549,3.944,3.944,0,0,1-.051.665,6.028,6.028,0,0,1-.16.9,8.643,8.643,0,0,1-6.768,6.456,8.729,8.729,0,0,1-4.586-.361A8.74,8.74,0,0,1,220.734,178a8.686,8.686,0,0,1,0-10.34,8.727,8.727,0,0,1,4.068-3.036,8.733,8.733,0,0,1,4.585-.361,8.642,8.642,0,0,1,6.769,6.456,6.013,6.013,0,0,1,.16.9,3.944,3.944,0,0,1,.051.665,3.321,3.321,0,0,1-.006.549" transform="translate(-78.583 -58.88)" fill="#263238"/>
        <path id="Trazado_642670" data-name="Trazado 642670" d="M230.907,178.949a.321.321,0,0,1-.206-.566l2.689-2.255-2.689-2.255a.321.321,0,1,1,.412-.492l2.982,2.5a.322.322,0,0,1,0,.492l-2.982,2.5a.322.322,0,0,1-.206.075" transform="translate(-82.73 -62.179)" fill="#263238"/>
        <path id="Trazado_642671" data-name="Trazado 642671" d="M32.4,178.949a.322.322,0,0,1-.206-.075l-2.982-2.5a.321.321,0,0,1,0-.492l2.982-2.5a.321.321,0,1,1,.412.492l-2.689,2.255,2.689,2.255a.321.321,0,0,1-.206.566" transform="translate(-10.44 -62.179)" fill="#263238"/>
      </g>
    </g>
    <g id="Grupo_927707" data-name="Grupo 927707">
      <g id="Grupo_927706" data-name="Grupo 927706" clip-path="url(#clip-path)">
        <path id="Trazado_642672" data-name="Trazado 642672" d="M258.733,309.371l-15,49.381-31.545,14.982,2.088,16.946,29.613-7.051c15.53-3.141,23.681-8.95,27.12-23.533l5.941-19.418Z" transform="translate(-76.127 -110.996)" fill="#2b6e17"/>
        <path id="Trazado_642673" data-name="Trazado 642673" d="M394.314,287.3a5.4,5.4,0,0,1-.893.094,22.372,22.372,0,0,0-2.412.3,11.092,11.092,0,0,0-3.36,1.2,15.855,15.855,0,0,0-3.513,2.607,17.324,17.324,0,0,0-2.54,3.575,31.2,31.2,0,0,0-1.546,3.258c-.389.952-.672,1.736-.867,2.278a5.234,5.234,0,0,1-.325.836,4.635,4.635,0,0,1,.209-.873c.16-.555.413-1.354.778-2.323a27.847,27.847,0,0,1,1.5-3.314,16.831,16.831,0,0,1,2.568-3.652,15.5,15.5,0,0,1,3.6-2.645,10.83,10.83,0,0,1,3.457-1.162,17.1,17.1,0,0,1,2.445-.2,4.585,4.585,0,0,1,.9.028" transform="translate(-135.926 -103.066)" fill="#263238"/>
        <path id="Trazado_642674" data-name="Trazado 642674" d="M230.743,410.608l9.338-6.189a4.633,4.633,0,0,1,3.132-.677l7.146,1.007,16.375,8.212,8.242-.633-.673,14.264s-7.3-.012-10.148-.653-6.7-3.423-6.7-3.423a3.2,3.2,0,0,1,.336,2.585c-.543,1.092-4.478,2.635-4.478,2.635s-2.771.807-3.143-1.139c0,0-4.832.37-5.1-3.493,0,0-7.259-1.654-6.026-4.969.916-2.462,1.81-4.248,1.81-4.248l2.431-4.674-2.4-.557s-4.576,3.032-6.512,3.243a5.335,5.335,0,0,1-3.626-1.293" transform="translate(-82.786 -144.838)" fill="#ffbe9d"/>
        <path id="Trazado_642675" data-name="Trazado 642675" d="M256.37,416.942c.029.053-.691.362-1.626,1.168a8.145,8.145,0,0,0-2.524,3.974,8.918,8.918,0,0,0-.106,2.621c.073.813.193,1.543.3,2.154a17.321,17.321,0,0,1,.342,1.989,1.805,1.805,0,0,1-.187-.512c-.1-.335-.232-.823-.371-1.433a19.251,19.251,0,0,1-.373-2.171,8.657,8.657,0,0,1,.088-2.717,7.856,7.856,0,0,1,2.687-4.073,6.856,6.856,0,0,1,1.257-.8,1.6,1.6,0,0,1,.51-.2" transform="translate(-90.328 -149.59)" fill="#eb996e"/>
        <path id="Trazado_642676" data-name="Trazado 642676" d="M262.478,423.466a3.789,3.789,0,0,1-.508-.015,2.694,2.694,0,0,0-1.284.378,3.419,3.419,0,0,0-1.343,1.439,5.041,5.041,0,0,0-.429,2.4,14.27,14.27,0,0,0,.387,2.479c.162.762.319,1.445.473,2.012.3,1.136.579,1.811.535,1.831a1.5,1.5,0,0,1-.25-.453,12.106,12.106,0,0,1-.5-1.316c-.183-.565-.364-1.249-.542-2.011a13.059,13.059,0,0,1-.418-2.53,5.125,5.125,0,0,1,.484-2.542,3.511,3.511,0,0,1,1.493-1.5,2.576,2.576,0,0,1,1.394-.306,1.071,1.071,0,0,1,.5.137" transform="translate(-92.779 -151.88)" fill="#eb996e"/>
        <path id="Trazado_642677" data-name="Trazado 642677" d="M268.561,432.724c-.031-.021.038-.19.258-.365a1.879,1.879,0,0,1,1-.373,1.391,1.391,0,0,1,1.045.292c.217.2.233.4.2.407s-.133-.116-.332-.23a1.538,1.538,0,0,0-.887-.158,3.992,3.992,0,0,0-1.284.426" transform="translate(-96.352 -154.986)" fill="#eb996e"/>
        <path id="Trazado_642678" data-name="Trazado 642678" d="M269.253,428.7c.032-.025.169.107.25.377a2.563,2.563,0,0,1,.066,1.067,2.062,2.062,0,0,1-.386,1.006c-.18.226-.364.283-.381.249s.089-.151.2-.37a3,3,0,0,0,.262-.928,4.574,4.574,0,0,0,.027-.98c-.02-.251-.072-.4-.034-.422" transform="translate(-96.44 -153.807)" fill="#eb996e"/>
        <path id="Trazado_642679" data-name="Trazado 642679" d="M243.689,420.436a2.25,2.25,0,0,1,.2-.573c.15-.36.378-.877.664-1.513.572-1.272,1.382-3.02,2.293-4.941l.942-1.97.012-.024.017-.017a4.411,4.411,0,0,1,1.959-1.126,4.529,4.529,0,0,1,1.774-.133,3.913,3.913,0,0,1,1.123.306,1.115,1.115,0,0,1,.36.212,7.641,7.641,0,0,0-1.5-.331,4.5,4.5,0,0,0-3.5,1.28l.029-.04c-.293.62-.605,1.286-.93,1.976-.912,1.922-1.754,3.654-2.377,4.9-.312.624-.569,1.127-.753,1.47a2.341,2.341,0,0,1-.314.521" transform="translate(-87.43 -147.138)" fill="#eb996e"/>
        <path id="Trazado_642680" data-name="Trazado 642680" d="M377.2,343.293s-1.452-44.042-3.3-50.129-4.118-9.432-8.7-12.393c-5.219-3.373-23.466-7.191-24.091-7.749l-30.7.609-1.845.2a27.048,27.048,0,0,0-22.811,18.157q-.19.576-.365,1.172c-3.718,12.728,10.866,31.028,10.865,30.224a46.768,46.768,0,0,0,.936,10.039c2.117,8.472,20.641,22.686,21.7,26.825s1.595,21.831,1.595,21.831,28.927.22,41.872.155c10.523-.053,33.033-.155,33.033-.155Z" transform="translate(-102.173 -97.955)" fill="#2b6e17"/>
        <path id="Trazado_642681" data-name="Trazado 642681" d="M300.867,301.169a3.373,3.373,0,0,1,.169.5,15.08,15.08,0,0,1,.39,1.47,28.794,28.794,0,0,1,.667,5.548,72.23,72.23,0,0,1-.294,8.283c-.242,3.109-.618,6.514-.8,10.1a51.413,51.413,0,0,0,.336,10.086,29.533,29.533,0,0,0,2.26,7.9,28.454,28.454,0,0,0,2.793,4.8c.389.53.716.923.923,1.2a3.389,3.389,0,0,1,.309.431,3.442,3.442,0,0,1-.358-.391c-.223-.266-.566-.648-.972-1.168a26.631,26.631,0,0,1-2.9-4.78,29.106,29.106,0,0,1-2.344-7.947,50.406,50.406,0,0,1-.363-10.145c.18-3.6.564-7.005.822-10.108a76.535,76.535,0,0,0,.36-8.252,30.994,30.994,0,0,0-.566-5.53c-.109-.65-.255-1.139-.332-1.477a3.425,3.425,0,0,1-.108-.519" transform="translate(-107.847 -108.054)" fill="#263238"/>
        <g id="Grupo_927702" data-name="Grupo 927702" transform="translate(248.699 213.273)" opacity="0.3">
          <g id="Grupo_927701" data-name="Grupo 927701">
            <g id="Grupo_927700" data-name="Grupo 927700" clip-path="url(#clip-path-22)">
              <path id="Trazado_642682" data-name="Trazado 642682" d="M406.151,332.6a448.711,448.711,0,0,0-14.892,61.533l-3.406,6.026c4.285-.6,7.867-3.765,10.049-7.5s3.186-8.025,4.162-12.24c3.636-15.712,7.286-32.01,4.086-47.818" transform="translate(-387.854 -332.605)"/>
            </g>
          </g>
        </g>
        <path id="Trazado_642683" data-name="Trazado 642683" d="M296.179,370.124,339,365.136s8.945-54.146,9.194-55.11,3.243-17.823,11.726-19.269,16.216,1.927,16.715,10.117c.4,6.551-9.1,53.588-15.093,75.371-1.722,6.265-8.59,11.811-15.3,11.938-17.5.33-49.862,0-49.862,0Z" transform="translate(-106.263 -104.201)" fill="#2b6e17"/>
        <path id="Trazado_642684" data-name="Trazado 642684" d="M348.193,315.869c-.171,1.038-3.575,21.734-9.069,55.131l-.015.089-.09.015c-12.61,2.162-27,2.45-42.663,5.135l.126-.151c.056,5.009-.011,12.521.05,17.936l-.153-.153,16.2.113c9.06.042,17.907.051,26.45-.015l6.348-.079a14.913,14.913,0,0,0,6.02-1.141,18.053,18.053,0,0,0,8.792-7.775l.346-.64.289-.665a11.47,11.47,0,0,0,.494-1.354c.278-.921.505-1.861.758-2.782.5-1.844.952-3.676,1.409-5.478q1.349-5.411,2.519-10.521c1.568-6.8,2.946-13.158,4.166-18.967,2.412-11.625,4.2-21.067,5.25-27.622.263-1.639.5-3.094.659-4.362q.13-.949.239-1.751.084-.8.151-1.457a17.761,17.761,0,0,0,.134-1.98c.015-.448.031-.678.031-.678s.005.229,0,.677a16.336,16.336,0,0,1-.1,1.986q-.062.654-.137,1.46-.1.8-.224,1.754c-.154,1.27-.377,2.727-.631,4.368-1.013,6.565-2.769,16.015-5.154,27.648-1.207,5.814-2.573,12.174-4.13,18.98q-1.17,5.105-2.505,10.529c-.456,1.8-.9,3.638-1.4,5.484-.252.924-.476,1.857-.757,2.791a11.672,11.672,0,0,1-.5,1.384l-.294.679-.352.653a18.332,18.332,0,0,1-8.931,7.913,15.207,15.207,0,0,1-6.128,1.168l-6.351.083c-8.545.071-17.392.063-26.454.022l-16.2-.115h-.152v-.152c-.059-5.416.011-12.928-.043-17.936v-.13l.128-.022c15.667-2.667,30.058-2.94,42.671-5.087l-.1.105c2.8-16.726,5.1-30.5,6.706-40.1.819-4.791,1.46-8.538,1.9-11.1l.517-2.9c.122-.655.2-.989.2-.989" transform="translate(-106.263 -110.044)" fill="#263238"/>
        <g id="Grupo_927705" data-name="Grupo 927705" transform="translate(189.602 201.436)" opacity="0.3">
          <g id="Grupo_927704" data-name="Grupo 927704">
            <g id="Grupo_927703" data-name="Grupo 927703" clip-path="url(#clip-path-23)">
              <path id="Trazado_642685" data-name="Trazado 642685" d="M298.664,335.249c-.109-6.729,1.811-13.789,1.783-21.1A74.314,74.314,0,0,0,296.04,332.1a31.607,31.607,0,0,0,.6,12.61c1.2,4.063,3.892,7.848,7.77,9.554-4.02-5.4-5.632-12.284-5.741-19.013" transform="translate(-295.69 -314.146)"/>
            </g>
          </g>
        </g>
        <path id="Trazado_642686" data-name="Trazado 642686" d="M291.613,193.81a11.23,11.23,0,0,1-4.415-11.181,1.49,1.49,0,0,0-.956-2.137,8.282,8.282,0,0,1-4.176-5.03,6.439,6.439,0,0,1,1.6-6.216c-3.27-1.125-4.694-5.513-3.195-8.64s5.241-4.778,8.678-4.411a4.933,4.933,0,0,1,.678-5.849,9.717,9.717,0,0,1,5.554-2.784c2.782-.544,6.133-.256,7.756,2.078.131-1.739,1.856-2.933,3.536-3.37a9.495,9.495,0,0,1,11.048,6.205,8.651,8.651,0,0,1,4.856-2.026,4.067,4.067,0,0,1,4.1,2.78c.736-1.6,2.646-2.284,4.394-2.462a6.316,6.316,0,0,1,3.706.548,3.121,3.121,0,0,1,1.683,3.148,4.968,4.968,0,0,1,4.378,8.876,6.336,6.336,0,0,1,.566,10.766,1.735,1.735,0,0,1,1.147,2.473,3.382,3.382,0,0,1-2.617,1.625q.7,5.5,1.391,11a22.725,22.725,0,0,1,.147,7.122,7.659,7.659,0,0,1-3.94,5.636" transform="translate(-100.412 -52.386)" fill="#263238"/>
        <path id="Trazado_642687" data-name="Trazado 642687" d="M296.184,193.2c-.653-8.93,7.638-19.079,16.547-19.355l29.227,1.524.557,4.777,3.763,60.421-26.691,23.758-3.375-27.172s-11.518-.329-15.865-14.767c-2.162-7.18-3.437-19.265-4.162-29.186" transform="translate(-106.252 -62.374)" fill="#ffbe9d"/>
        <path id="Trazado_642688" data-name="Trazado 642688" d="M304.394,220.079a1.9,1.9,0,0,0,2.078,1.659,1.825,1.825,0,0,0,1.709-1.974,1.905,1.905,0,0,0-2.076-1.661,1.826,1.826,0,0,0-1.711,1.976" transform="translate(-109.207 -78.249)" fill="#263238"/>
        <path id="Trazado_642689" data-name="Trazado 642689" d="M301.564,211.815c.267.214,1.55-1.043,3.579-1.316,2.022-.3,3.652.541,3.839.26.093-.125-.206-.538-.919-.922a5.2,5.2,0,0,0-3.115-.514,5,5,0,0,0-2.805,1.356c-.558.566-.709,1.041-.578,1.136" transform="translate(-108.18 -75.082)" fill="#263238"/>
        <path id="Trazado_642690" data-name="Trazado 642690" d="M334.134,217.233a1.9,1.9,0,0,0,2.078,1.659,1.824,1.824,0,0,0,1.709-1.974,1.9,1.9,0,0,0-2.076-1.661,1.825,1.825,0,0,0-1.711,1.975" transform="translate(-119.878 -77.228)" fill="#263238"/>
        <path id="Trazado_642691" data-name="Trazado 642691" d="M332.737,208.825c.267.215,1.552-1.043,3.579-1.316,2.022-.3,3.654.541,3.84.26.092-.125-.2-.538-.919-.922a5.189,5.189,0,0,0-3.114-.514,5,5,0,0,0-2.807,1.356c-.557.567-.708,1.042-.578,1.137" transform="translate(-119.364 -74.009)" fill="#263238"/>
        <path id="Trazado_642692" data-name="Trazado 642692" d="M321.477,225.124a13.486,13.486,0,0,0-3.375-.144c-.525.018-1.029-.019-1.165-.362a2.687,2.687,0,0,1,.135-1.589q.472-1.988.991-4.171c1.356-5.931,2.263-10.78,2.024-10.831s-1.531,4.711-2.888,10.642q-.483,2.191-.923,4.187a3.052,3.052,0,0,0,.009,2.078,1.314,1.314,0,0,0,.956.644,3.537,3.537,0,0,0,.9,0,13.285,13.285,0,0,0,3.339-.455" transform="translate(-113.407 -74.636)" fill="#263238"/>
        <path id="Trazado_642693" data-name="Trazado 642693" d="M327.437,268.114a37.626,37.626,0,0,0,18.957-7.98s-3.513,11.77-18.407,12.412Z" transform="translate(-117.478 -93.331)" fill="#eb996e"/>
        <path id="Trazado_642694" data-name="Trazado 642694" d="M326.788,241.145a3.683,3.683,0,0,1,3.089-1.814,3.36,3.36,0,0,1,2.473.925,2.149,2.149,0,0,1,.492,2.405,2.471,2.471,0,0,1-2.566,1.041,7.748,7.748,0,0,1-2.8-1.2,2.283,2.283,0,0,1-.662-.523.691.691,0,0,1-.1-.758" transform="translate(-117.19 -85.867)" fill="#eb996e"/>
        <path id="Trazado_642695" data-name="Trazado 642695" d="M330.894,235.606c-.333.026-.035,2.237-1.7,4.066s-4.045,1.908-4.02,2.219c-.012.142.58.357,1.575.248a5.521,5.521,0,0,0,3.373-1.727,4.85,4.85,0,0,0,1.288-3.39c-.042-.936-.362-1.449-.511-1.416" transform="translate(-116.664 -84.53)" fill="#263238"/>
        <path id="Trazado_642696" data-name="Trazado 642696" d="M330.246,197.833c.276.526,2.264-.015,4.682-.054,2.418-.087,4.431.348,4.679-.192.108-.257-.3-.732-1.146-1.161a8.105,8.105,0,0,0-7.132.188c-.825.473-1.2.97-1.084,1.22" transform="translate(-118.478 -70.209)" fill="#263238"/>
        <path id="Trazado_642697" data-name="Trazado 642697" d="M301.451,202.407c.42.414,1.751-.259,3.428-.512,1.667-.313,3.144-.116,3.406-.645.111-.255-.176-.687-.857-1.039a5,5,0,0,0-5.505.932c-.529.557-.659,1.061-.471,1.264" transform="translate(-108.126 -71.671)" fill="#263238"/>
        <path id="Trazado_642698" data-name="Trazado 642698" d="M301.951,169.87a7.431,7.431,0,0,0,3.089,7.511,7.355,7.355,0,0,0,8.09-.117,2.794,2.794,0,0,0,.582,3.668,5.248,5.248,0,0,0,3.851,1.014,9.994,9.994,0,0,0,7.262-4.079,7.285,7.285,0,0,0,11.023,4.233,6.7,6.7,0,1,0,11.866,4.862,7.518,7.518,0,0,0,1.352-11.855,4.5,4.5,0,0,0,2.362-3.815,9.131,9.131,0,0,0-1.1-4.529,14.335,14.335,0,0,0-8.213-7.611c-3.655-1.149-8.068-.128-10.374,2.944a2.1,2.1,0,0,1-.937.866,1.858,1.858,0,0,1-1.6-.588c-2.044-1.647-4.188-3.431-6.786-3.779a7.05,7.05,0,0,0-7.4,4.685c-2.16-2.785-6.175-4.189-9.393-2.771s-4.855,5.912-2.855,8.814" transform="translate(-108.284 -56.881)" fill="#263238"/>
        <path id="Trazado_642699" data-name="Trazado 642699" d="M362.653,205.247a31.877,31.877,0,0,0,2.912,8.565c.582,1.145,1.425,2.384,2.7,2.495a2.734,2.734,0,0,0,2.594-1.958,7.249,7.249,0,0,0,.084-3.472,94.008,94.008,0,0,0-2.948-12.1" transform="translate(-130.113 -71.316)" fill="#263238"/>
        <path id="Trazado_642700" data-name="Trazado 642700" d="M368.155,211.317c.171-.115,7.061-3.62,8.21,3.894s-6.6,7.123-6.644,6.909-1.566-10.8-1.566-10.8" transform="translate(-132.087 -75.488)" fill="#ffbe9d"/>
        <path id="Trazado_642701" data-name="Trazado 642701" d="M373.316,220.232c.029-.029.144.071.38.139a1.312,1.312,0,0,0,.977-.131c.746-.413,1.219-1.776,1.048-3.136a4.381,4.381,0,0,0-.651-1.818,1.524,1.524,0,0,0-1.134-.853.671.671,0,0,0-.714.477c-.068.226,0,.368-.035.387-.018.022-.18-.1-.167-.421a.845.845,0,0,1,.222-.516.994.994,0,0,1,.692-.3,1.853,1.853,0,0,1,1.539.955,4.5,4.5,0,0,1,.772,2.024c.184,1.522-.371,3.057-1.4,3.538a1.406,1.406,0,0,1-1.222-.015c-.26-.15-.325-.312-.3-.33" transform="translate(-133.832 -76.799)" fill="#eb996e"/>
        <path id="Trazado_642702" data-name="Trazado 642702" d="M322.237,173.268a.85.85,0,0,1-.225.092c-.151.053-.378.122-.677.2a10.54,10.54,0,0,1-2.66.357,7.366,7.366,0,0,1-1.913-.24,5.5,5.5,0,0,1-2.053-1,5.437,5.437,0,0,1-1.6-2.06,4.066,4.066,0,0,1-.167-2.891l.269.176a9.979,9.979,0,0,1-5.736,2.642,9.762,9.762,0,0,1-3.5-.229,6.064,6.064,0,0,1-1.7-.7,3.481,3.481,0,0,1-1.3-1.4,5,5,0,0,1-.479-2.162,14.267,14.267,0,0,1,.138-2.119,7.037,7.037,0,0,1,.519-2.017,2.411,2.411,0,0,1,1.486-1.4l.129.341a5.978,5.978,0,0,1-3.879.376,6.479,6.479,0,0,1-3.127-1.709,5.44,5.44,0,0,1-1.5-2.8,6.3,6.3,0,0,1,.071-2.725,6.235,6.235,0,0,1,1.981-3.253,4.044,4.044,0,0,1,1.164-.726,12.677,12.677,0,0,0-1.084.817,6.285,6.285,0,0,0-1.84,3.216,6.131,6.131,0,0,0-.026,2.614,5.181,5.181,0,0,0,1.453,2.63,6.192,6.192,0,0,0,2.984,1.595,5.658,5.658,0,0,0,3.647-.37l.129.34a2.041,2.041,0,0,0-1.248,1.21,6.726,6.726,0,0,0-.482,1.908,7.3,7.3,0,0,0,.306,4.058,3.994,3.994,0,0,0,2.753,1.9,9.439,9.439,0,0,0,3.366.23,9.7,9.7,0,0,0,5.55-2.515l.494-.463-.225.639a3.763,3.763,0,0,0,.134,2.662,5.179,5.179,0,0,0,1.487,1.967,5.291,5.291,0,0,0,1.945.984,7.317,7.317,0,0,0,1.855.273,11.533,11.533,0,0,0,2.634-.262c.6-.126.92-.213.925-.194" transform="translate(-105.534 -53.826)" fill="#fff"/>
        <path id="Trazado_642703" data-name="Trazado 642703" d="M294.865,184.085c.012.019-.143.149-.469.307a3.994,3.994,0,0,1-1.49.371,3.842,3.842,0,0,1-2.237-.532,1.9,1.9,0,0,1-.855-1.146,1.427,1.427,0,0,1,.49-1.481l.193.331-.125.054a5.957,5.957,0,0,1-5.052-.145,5.094,5.094,0,0,1-1.279-.9c-.26-.262-.377-.431-.36-.446a10.984,10.984,0,0,0,1.754,1.1,5.964,5.964,0,0,0,4.78.04l.116-.05,1.72-.737-1.527,1.068a1.062,1.062,0,0,0-.344,1.085,1.561,1.561,0,0,0,.684.934,3.731,3.731,0,0,0,2.035.556,6.627,6.627,0,0,0,1.967-.408" transform="translate(-101.778 -64.758)" fill="#fff"/>
        <path id="Trazado_642704" data-name="Trazado 642704" d="M376.248,225.927a3.442,3.442,0,0,1,1.327.707,7.867,7.867,0,0,1,2.59,3.2,7.027,7.027,0,0,1-.245,6.074,6.816,6.816,0,0,1-6.442,3.558,6.275,6.275,0,0,1-3.681-1.507,8.062,8.062,0,0,1-2.186-2.964,7.09,7.09,0,0,1,.074-6.079,6.223,6.223,0,0,1,2.993-2.824,2.844,2.844,0,0,1,1.468-.34c.017.067-.517.155-1.339.605a6.279,6.279,0,0,0-2.644,2.8,6.642,6.642,0,0,0,.085,5.559,6.465,6.465,0,0,0,5.278,4,6.17,6.17,0,0,0,5.779-3.135,6.57,6.57,0,0,0,.364-5.539,8.256,8.256,0,0,0-2.28-3.171c-.709-.622-1.177-.88-1.144-.937" transform="translate(-131.661 -80.989)" fill="#455a64"/>
        <path id="Trazado_642705" data-name="Trazado 642705" d="M305.336,222a15.652,15.652,0,0,0-.338-2.133,8.772,8.772,0,0,0-3.209-4.768,8.651,8.651,0,0,0-8.2-1.219,8.664,8.664,0,0,0-4.01,3.015,8.6,8.6,0,0,0,0,10.208,8.661,8.661,0,0,0,4.01,3.016A8.723,8.723,0,0,0,305,224.134a15.653,15.653,0,0,0,.338-2.133,3.536,3.536,0,0,1,.005.563,3.963,3.963,0,0,1-.053.681,6.118,6.118,0,0,1-.164.92,8.86,8.86,0,0,1-6.937,6.615,8.943,8.943,0,0,1-4.7-.371,8.951,8.951,0,0,1-4.169-3.111,8.9,8.9,0,0,1,0-10.6,8.946,8.946,0,0,1,4.168-3.111,8.947,8.947,0,0,1,4.7-.37,8.859,8.859,0,0,1,6.938,6.615,6.133,6.133,0,0,1,.164.92,3.97,3.97,0,0,1,.053.682,3.536,3.536,0,0,1-.005.563" transform="translate(-103.175 -76.445)" fill="#263238"/>
        <path id="Trazado_642706" data-name="Trazado 642706" d="M340.644,219.659a15.6,15.6,0,0,0-.339-2.133,8.767,8.767,0,0,0-3.209-4.768,8.651,8.651,0,0,0-8.2-1.219,8.664,8.664,0,0,0-4.01,3.015,8.6,8.6,0,0,0,0,10.208,8.661,8.661,0,0,0,4.01,3.016,8.723,8.723,0,0,0,11.407-5.987,15.642,15.642,0,0,0,.338-2.133,3.536,3.536,0,0,1,.005.563,3.963,3.963,0,0,1-.053.681,6.2,6.2,0,0,1-.164.92,8.86,8.86,0,0,1-6.937,6.615,8.943,8.943,0,0,1-4.7-.371,8.948,8.948,0,0,1-4.169-3.112,8.9,8.9,0,0,1,0-10.6,8.939,8.939,0,0,1,4.168-3.111,8.941,8.941,0,0,1,4.7-.371,8.859,8.859,0,0,1,6.938,6.615,6.19,6.19,0,0,1,.164.92,4.035,4.035,0,0,1,.053.682,3.536,3.536,0,0,1-.005.563" transform="translate(-115.842 -75.604)" fill="#263238"/>
        <path id="Trazado_642707" data-name="Trazado 642707" d="M320.4,221.125c-.038.043-.316-.194-.83-.432a4.462,4.462,0,0,0-4.217.3c-.476.308-.717.582-.761.545-.028-.019.151-.356.624-.737a4.1,4.1,0,0,1,4.464-.317c.521.311.747.619.721.642" transform="translate(-112.869 -78.92)" fill="#263238"/>
        <path id="Trazado_642708" data-name="Trazado 642708" d="M362.311,212.511a130.336,130.336,0,0,1-12.671,3.7,130.6,130.6,0,0,1,12.671-3.7" transform="translate(-125.444 -76.242)" fill="#263238"/>
        <path id="Trazado_642709" data-name="Trazado 642709" d="M297.266,232.521a1.03,1.03,0,0,1-.439,0,5.285,5.285,0,0,1-1.161-.282,6.253,6.253,0,0,1-4.145-6.174,5.285,5.285,0,0,1,.178-1.181c.078-.271.142-.414.162-.408.058.013-.117.612-.1,1.592a6.455,6.455,0,0,0,4,5.951c.9.383,1.523.448,1.513.506" transform="translate(-104.589 -80.536)" fill="#fff"/>
        <path id="Trazado_642710" data-name="Trazado 642710" d="M326.377,227c-.016.013-.151-.113-.362-.371a7.123,7.123,0,0,1-.768-1.185,8.346,8.346,0,0,1,.718-8.872,7.148,7.148,0,0,1,.948-1.046c.249-.221.4-.324.417-.308.042.043-.518.525-1.172,1.491a8.693,8.693,0,0,0-.7,8.631c.49,1.059.965,1.624.917,1.66" transform="translate(-116.352 -77.214)" fill="#fff"/>
        <path id="Trazado_642711" data-name="Trazado 642711" d="M331.465,235.769c-.041.083-.353.01-.7-.161s-.587-.377-.546-.46.353-.01.7.161.587.377.546.46" transform="translate(-118.476 -84.354)" fill="#fff"/>
        <path id="Trazado_642712" data-name="Trazado 642712" d="M185.954,405.665H97.189L83.817,344.548a4.761,4.761,0,0,1,4.662-5.779l78.684.171a4.762,4.762,0,0,1,4.635,3.718Z" transform="translate(-30.032 -121.544)" fill="#e0e0e0"/>
        <path id="Trazado_642713" data-name="Trazado 642713" d="M240.49,440.075H282.5a5.4,5.4,0,0,0-5.4-5.4H235.709Z" transform="translate(-84.568 -155.954)" fill="#e0e0e0"/>
        <path id="Trazado_642714" data-name="Trazado 642714" d="M226.878,405.758a.682.682,0,0,1-.059-.167l-.142-.5c-.124-.466-.3-1.112-.513-1.931-.441-1.679-1.054-4.113-1.8-7.126-1.484-6.025-3.437-14.372-5.545-23.6s-4.024-17.586-5.449-23.624l-1.692-7.15-.452-1.946-.11-.508a.7.7,0,0,1-.026-.176.761.761,0,0,1,.059.167l.142.5c.124.466.295,1.112.513,1.931.441,1.678,1.054,4.113,1.795,7.125,1.484,6.026,3.437,14.373,5.545,23.6s4.023,17.582,5.448,23.62l1.692,7.15c.192.826.343,1.477.453,1.946.044.208.08.375.109.508a.683.683,0,0,1,.026.176" transform="translate(-75.737 -121.637)" fill="#263238"/>
        <path id="Trazado_642715" data-name="Trazado 642715" d="M153.7,380.319c-1.413-.3-2.757,1-3.071,2.408a4.16,4.16,0,0,0,1.642,4.25,3.842,3.842,0,0,0,4.5-.189,3.571,3.571,0,0,0,.8-4.38c-.812-1.393-3.8-2.617-5.241-1.9" transform="translate(-54.009 -136.435)" fill="#fff"/>
      </g>
    </g>
  </g>
</svg>
