<svg xmlns="http://www.w3.org/2000/svg" width="85" height="99" viewBox="0 0 85 99">
  <g id="_13" data-name="13" transform="translate(-180 -2794)">
    <rect id="Rect치ngulo_334759" data-name="Rect치ngulo 334759" width="85" height="99" rx="11" transform="translate(180 2794)" fill="#ffd667"/>
    <g id="filled_outline" data-name="filled outline" transform="translate(167.981 2779.644)">
      <path id="Trazado_650281" data-name="Trazado 650281" d="M78.115,110.256H41.223a6.917,6.917,0,0,1-6.917-6.917V51.647a4.035,4.035,0,0,0-2.231-3.609L32,48H74.08a4.035,4.035,0,0,1,4.035,4.035Z" transform="translate(-6.848 -13.695)" fill="#e8e8e8"/>
      <rect id="Rect치ngulo_335881" data-name="Rect치ngulo 335881" width="18.446" height="4.612" rx="2.306" transform="translate(63.197 78.114)" fill="#92d1f7"/>
      <path id="Trazado_650282" data-name="Trazado 650282" d="M132.892,425.223h0a6.917,6.917,0,0,0,6.917-6.917V416H102.917v2.306A6.917,6.917,0,0,1,96,425.223Z" transform="translate(-61.625 -328.663)" fill="#accbea"/>
      <path id="Trazado_650283" data-name="Trazado 650283" d="M341.055,43.465h0a17.1,17.1,0,0,0-6.049,6.179L333.374,52.5A40.783,40.783,0,0,0,328,72.736h0a7.767,7.767,0,0,0,3.458,6.462h0a26.77,26.77,0,0,0,6.055-5.552l2.015-2.518-1.153-3.459h2.306l3.459-6.917-2.306-2.306,3.459-1.153,2.306-6.917-1.153-2.306,2.306-1.153L351.058,40l-5.9,1.686a17.094,17.094,0,0,0-4.1,1.779Z" transform="translate(-260.192 -6.848)" fill="#eae9e4"/>
      <path id="Trazado_650284" data-name="Trazado 650284" d="M300.878,388.2a6.72,6.72,0,0,1-1.863-1.863L297.454,384H285.925l-1.561,2.341A6.72,6.72,0,0,1,282.5,388.2a5.255,5.255,0,0,0-2.314,3.866h23A5.255,5.255,0,0,0,300.878,388.2Z" transform="translate(-219.27 -301.274)" fill="#5ebef7"/>
      <path id="Trazado_650285" data-name="Trazado 650285" d="M280.027,440c-.016.168-.027.337-.027.508a5.257,5.257,0,0,0,5.257,5.257H297.8a5.257,5.257,0,0,0,5.257-5.257c0-.171-.011-.34-.027-.508Z" transform="translate(-219.109 -349.204)" fill="#0a71cd"/>
      <circle id="Elipse_7548" data-name="Elipse 7548" cx="4.612" cy="4.612" r="4.612" transform="translate(44.751 41.222)" fill="#accbea"/>
      <path id="Trazado_650286" data-name="Trazado 650286" d="M273.153,218.306h2.306a1.153,1.153,0,1,0,0-2.306h-2.306a1.153,1.153,0,1,0,0,2.306Z" transform="translate(-212.262 -157.485)"/>
      <path id="Trazado_650287" data-name="Trazado 650287" d="M90.549,32.044l-5.9,1.686a18.256,18.256,0,0,0-4.376,1.9h0a18.29,18.29,0,0,0-6.456,6.6L72.42,44.663V38.34a5.194,5.194,0,0,0-5.188-5.188H25.152a1.153,1.153,0,0,0-.515,2.184l.075.037A2.867,2.867,0,0,1,26.3,37.952V89.643a8.079,8.079,0,0,0,8.07,8.07H78.692a6.41,6.41,0,0,0,3.555-11.743A5.539,5.539,0,0,1,80.7,84.427l-.449-.673a3.459,3.459,0,0,0-.918-6.793H72.42s0-3.814.006-4.008a27.884,27.884,0,0,0,5.8-5.435L80.238,65a1.153,1.153,0,0,0,.193-1.085l-.647-1.942h.706a1.153,1.153,0,0,0,1.031-.637L84.98,54.42a1.153,1.153,0,0,0-.216-1.331l-.986-.986,1.689-.563a1.153,1.153,0,0,0,.729-.729L88.5,43.893a1.153,1.153,0,0,0-.063-.88L87.8,41.738l1.275-.637a1.153,1.153,0,0,0,.578-.667l2.306-6.917a1.153,1.153,0,0,0-1.411-1.474ZM34.375,95.408a5.771,5.771,0,0,1-5.764-5.764V37.952a5.188,5.188,0,0,0-.633-2.494H67.232a2.886,2.886,0,0,1,2.882,2.882v10.8c0,.022,0,.043,0,.064a42.013,42.013,0,0,0-3.462,16.679,8.9,8.9,0,0,0,3.465,7.057c0,.2-.007,4.017-.007,4.017H65.5a3.459,3.459,0,0,0-.918,6.793l-.449.673a5.536,5.536,0,0,1-1.543,1.543c-.1.068-.2.14-.3.214h-21a1.153,1.153,0,0,0-1.153,1.153v2.306a5.771,5.771,0,0,1-5.764,5.764ZM65.5,81.573a1.153,1.153,0,0,1,0-2.306h4.612v2.306Zm4.612,2.306v5.764H62.4a4.1,4.1,0,0,1,1.476-1.754,7.826,7.826,0,0,0,2.183-2.183l1.218-1.827Zm-30.1,11.529a8.046,8.046,0,0,0,2.428-5.764V88.49H60.39a6.4,6.4,0,0,0,.839,6.917Zm38.675,0H66.148A4.11,4.11,0,0,1,62.1,91.949h20.65a4.11,4.11,0,0,1-4.053,3.459Zm2.277-7.519a4.1,4.1,0,0,1,1.476,1.754H72.42V83.879h5.147l1.218,1.827a7.83,7.83,0,0,0,2.183,2.183Zm-1.632-8.622a1.153,1.153,0,0,1,0,2.306H72.42V79.267Zm8.28-40.016-1.879.939a1.153,1.153,0,0,0-.515,1.547l.939,1.879L84.19,49.534l-2.911.97a1.153,1.153,0,0,0-.451,1.909l1.718,1.718-2.769,5.537H78.184a1.153,1.153,0,0,0-1.094,1.517l.954,2.864-1.623,2.029a25.594,25.594,0,0,1-3.88,3.9A52.514,52.514,0,0,1,84.829,39.661a1.153,1.153,0,1,0-1.76-1.49A54.824,54.824,0,0,0,70.243,69.8a6.6,6.6,0,0,1-1.283-3.913,39.7,39.7,0,0,1,5.222-19.662l1.633-2.857a15.982,15.982,0,0,1,5.641-5.762h0a15.953,15.953,0,0,1,3.824-1.658l3.8-1.086Z" transform="translate(0 0)"/>
      <path id="Trazado_650288" data-name="Trazado 650288" d="M165.764,99.529A5.764,5.764,0,1,0,160,93.764,5.764,5.764,0,0,0,165.764,99.529Zm0-9.223a3.459,3.459,0,1,1-3.459,3.459A3.459,3.459,0,0,1,165.764,90.306Z" transform="translate(-116.402 -47.931)"/>
      <path id="Trazado_650289" data-name="Trazado 650289" d="M96.153,282.306h27.813a1.153,1.153,0,0,0,0-2.306H96.153a1.153,1.153,0,0,0,0,2.306Z" transform="translate(-60.769 -212.262)"/>
      <path id="Trazado_650290" data-name="Trazado 650290" d="M129.153,218.306h8.07a1.153,1.153,0,1,0,0-2.306h-8.07a1.153,1.153,0,1,0,0,2.306Z" transform="translate(-89.014 -157.485)"/>
      <path id="Trazado_650291" data-name="Trazado 650291" d="M216,217.153a1.153,1.153,0,0,0,1.153,1.153h3.459a1.153,1.153,0,1,0,0-2.306h-3.459A1.153,1.153,0,0,0,216,217.153Z" transform="translate(-164.332 -157.485)"/>
      <path id="Trazado_650292" data-name="Trazado 650292" d="M97.153,250.306h9.223a1.153,1.153,0,0,0,0-2.306H97.153a1.153,1.153,0,1,0,0,2.306Z" transform="translate(-61.625 -184.873)"/>
      <path id="Trazado_650293" data-name="Trazado 650293" d="M206.987,248H193.153a1.153,1.153,0,0,0,0,2.306h13.835a1.153,1.153,0,0,0,0-2.306Z" transform="translate(-143.791 -184.873)"/>
      <path id="Trazado_650294" data-name="Trazado 650294" d="M129.153,328a1.153,1.153,0,1,0,0,2.306h6.917a1.153,1.153,0,1,0,0-2.306Z" transform="translate(-89.014 -253.344)"/>
      <path id="Trazado_650295" data-name="Trazado 650295" d="M209.153,328a1.153,1.153,0,1,0,0,2.306h6.917a1.153,1.153,0,1,0,0-2.306Z" transform="translate(-157.485 -253.344)"/>
      <path id="Trazado_650296" data-name="Trazado 650296" d="M121.363,361.153A1.153,1.153,0,0,0,120.211,360H97.153a1.153,1.153,0,0,0,0,2.306h23.058A1.153,1.153,0,0,0,121.363,361.153Z" transform="translate(-61.625 -280.733)"/>
    </g>
  </g>
</svg>
