<svg id="Grupo_927321" data-name="Grupo 927321" xmlns="http://www.w3.org/2000/svg" xmlns:xlink="http://www.w3.org/1999/xlink" width="295" height="294.782" viewBox="0 0 295 294.782">
  <defs>
    <clipPath id="clip-path">
      <rect id="Rectángulo_335027" data-name="Rectángulo 335027" width="295" height="294.782" fill="none"/>
    </clipPath>
    <clipPath id="clip-path-7">
      <rect id="Rectángulo_335022" data-name="Rectángulo 335022" width="5.751" height="5.729" fill="none"/>
    </clipPath>
    <clipPath id="clip-path-8">
      <rect id="Rectángulo_335023" data-name="Rectángulo 335023" width="44.536" height="3.245" fill="none"/>
    </clipPath>
    <clipPath id="clip-path-9">
      <rect id="Rectángulo_335024" data-name="Rectángulo 335024" width="6.81" height="61.424" fill="none"/>
    </clipPath>
    <clipPath id="clip-path-10">
      <rect id="Rectángulo_335025" data-name="Rectángulo 335025" width="51.247" height="12.26" fill="none"/>
    </clipPath>
  </defs>
  <g id="Grupo_927347" data-name="Grupo 927347" clip-path="url(#clip-path)">
    <rect id="Rectángulo_335008" data-name="Rectángulo 335008" width="149.777" height="210.874" transform="translate(11.38 44.14)" fill="#ebebeb"/>
    <g id="Grupo_927323" data-name="Grupo 927323">
      <g id="Grupo_927322" data-name="Grupo 927322" clip-path="url(#clip-path)">
        <path id="Trazado_641138" data-name="Trazado 641138" d="M400.559,27.479a19.958,19.958,0,0,0-4.868-2.116l-1-4.819-8.142-.143-1.172,4.78a19.979,19.979,0,0,0-4.941,1.943l-4.115-2.7-5.857,5.657,2.55,4.206a19.915,19.915,0,0,0-2.115,4.87l-4.818,1-.144,8.142,4.78,1.172a19.933,19.933,0,0,0,1.943,4.939l-2.7,4.115,5.656,5.858,4.207-2.55a19.946,19.946,0,0,0,4.869,2.115l1,4.819,8.142.143,1.172-4.78a19.976,19.976,0,0,0,4.94-1.944l4.115,2.7,5.858-5.657-2.551-4.206a19.951,19.951,0,0,0,2.116-4.869l4.819-1,.142-8.141-4.78-1.172a19.989,19.989,0,0,0-1.943-4.94l2.7-4.115-5.656-5.858Zm-4.34,10.846a8.735,8.735,0,1,1-12.351-.217,8.733,8.733,0,0,1,12.351.217" transform="translate(-365.693 -6.673)" fill="#e0e0e0"/>
        <path id="Trazado_641139" data-name="Trazado 641139" d="M404.412,45.664a6.583,6.583,0,0,0-1.626-1.427,8.7,8.7,0,0,0-5.7-1.348,8.822,8.822,0,0,0-3.874,1.376,8.95,8.95,0,0,0-3.132,3.529,8.956,8.956,0,0,0-.844,5.141,8.912,8.912,0,0,0,7.374,7.638,8.959,8.959,0,0,0,5.168-.663,8.932,8.932,0,0,0,3.637-3.007,8.815,8.815,0,0,0,1.512-3.823,8.7,8.7,0,0,0-1.147-5.742,6.574,6.574,0,0,0-1.369-1.676c-.046.04.528.573,1.2,1.772a8.712,8.712,0,0,1,.966,5.592,8.539,8.539,0,0,1-4.986,6.461,8.536,8.536,0,0,1-4.9.6,8.465,8.465,0,0,1-6.97-7.22A8.545,8.545,0,0,1,390.5,48a8.535,8.535,0,0,1,6.632-4.756,8.711,8.711,0,0,1,5.555,1.161c1.175.715,1.688,1.308,1.729,1.262" transform="translate(-373.886 -14.012)" fill="#e0e0e0"/>
        <path id="Trazado_641140" data-name="Trazado 641140" d="M400.533,27.406a1.91,1.91,0,0,0,.271-.143l.807-.466,3.171-1.873-.1-.013L410.3,30.8l-.015-.157-2.714,4.1-.048.074.043.079a19.9,19.9,0,0,1,1.912,4.907l.024.1.1.024,4.777,1.186-.136-.176c-.051,2.563-.1,5.284-.162,8.14l.157-.189-4.819.993-.123.026-.034.121a19.836,19.836,0,0,1-2.1,4.813l-.068.112.068.112,2.544,4.21L409.74,59l-5.865,5.648.289-.027-4.112-2.7-.12-.079-.126.07a19.821,19.821,0,0,1-4.881,1.916l-.143.035-.035.143c-.368,1.5-.77,3.13-1.175,4.78l.243-.187-8.142-.147.239.2c-.316-1.522-.657-3.165-1-4.819l-.03-.149-.146-.041a19.782,19.782,0,0,1-4.8-2.087l0,0-.131-.077-.129.077L375.461,64.1l.31.04-5.657-5.856.029.308,2.7-4.116.082-.124-.073-.13a19.715,19.715,0,0,1-1.923-4.878l-.036-.143-.143-.035L365.965,48l.182.236q.07-4.169.135-8.142l-.184.221,4.817-1.009.133-.028.037-.131a19.781,19.781,0,0,1,2.085-4.819l.068-.112-.068-.112-2.557-4.2-.034.258,5.846-5.668-.238.023,4.121,2.686.092.06.094-.053a19.871,19.871,0,0,1,4.892-1.941l.1-.024.024-.1,1.155-4.784-.146.113,8.142.107-.108-.089,1.033,4.812.011.048.046.013a20.725,20.725,0,0,1,3.723,1.432l.875.458a1.988,1.988,0,0,0,.292.149,2.622,2.622,0,0,0-.271-.185c-.186-.114-.468-.286-.859-.495a19.343,19.343,0,0,0-3.717-1.513l.057.061-.972-4.825-.017-.087-.091,0-8.14-.178-.118,0-.029.115c-.367,1.477-.756,3.041-1.188,4.776l.12-.12A20.12,20.12,0,0,0,380.32,26.9l.186.007L376.4,24.195l-.127-.084-.111.107-5.869,5.644-.12.115.086.143,2.544,4.21v-.224a20.18,20.18,0,0,0-2.146,4.92l.17-.159-4.819,1-.18.037,0,.184q-.074,3.971-.151,8.141l0,.19.185.046,4.78,1.176-.178-.178a20.184,20.184,0,0,0,1.964,5l.009-.254-2.7,4.114-.108.166.137.143,5.654,5.86.139.144.171-.1,4.207-2.55h-.259l0,0a20.276,20.276,0,0,0,4.926,2.139l-.176-.19,1,4.819.04.194.2,0,8.142.139.2,0,.046-.19c.4-1.65.8-3.283,1.169-4.781l-.177.178a20.267,20.267,0,0,0,5-1.971l-.246-.009,4.118,2.693.156.1.134-.129,5.851-5.663.129-.124-.093-.153-2.556-4.2v.223a20.184,20.184,0,0,0,2.13-4.924l-.157.145,4.817-1.012.154-.032,0-.157c.043-2.857.085-5.578.124-8.142l0-.143-.138-.034-4.784-1.159.12.12a20.155,20.155,0,0,0-1.974-4.972l-.005.152c.965-1.486,1.868-2.875,2.68-4.126l.055-.086-.071-.072L404.8,24.8l-.046-.046-.053.034-3.1,1.929-.8.505a2.425,2.425,0,0,0-.27.185" transform="translate(-365.665 -6.6)" fill="#e0e0e0"/>
        <path id="Trazado_641141" data-name="Trazado 641141" d="M342.151,4.371A11.929,11.929,0,0,0,339.237,3.1l-.6-2.885L333.764.134,333.062,3A11.927,11.927,0,0,0,330.1,4.159l-2.464-1.614L324.135,5.93l1.527,2.518a11.934,11.934,0,0,0-1.266,2.915l-2.884.6-.086,4.873,2.862.7A11.948,11.948,0,0,0,325.45,20.5l-1.614,2.463,3.385,3.507,2.519-1.527a11.943,11.943,0,0,0,2.914,1.266l.6,2.884,4.874.085.7-2.861a11.938,11.938,0,0,0,2.957-1.163l2.464,1.614,3.507-3.385-1.527-2.518a11.939,11.939,0,0,0,1.266-2.914l2.885-.6.085-4.873-2.862-.7a11.971,11.971,0,0,0-1.163-2.957l1.614-2.463L344.67,2.844Zm-2.6,6.492a5.229,5.229,0,1,1-7.393-.13,5.229,5.229,0,0,1,7.393.13" transform="translate(-271.758 -0.044)" fill="#f5f5f5"/>
        <path id="Trazado_641142" data-name="Trazado 641142" d="M344.459,15.256a3.943,3.943,0,0,0-.974-.855,5.206,5.206,0,0,0-3.411-.806,5.265,5.265,0,0,0-2.319.824,5.353,5.353,0,0,0-1.875,2.112,5.362,5.362,0,0,0-.505,3.077,5.337,5.337,0,0,0,4.414,4.572,5.356,5.356,0,0,0,3.093-.4,5.358,5.358,0,0,0,2.178-1.8,5.268,5.268,0,0,0,.9-2.288,5.208,5.208,0,0,0-.686-3.438,3.951,3.951,0,0,0-.82-1c-.028.024.316.343.719,1.061a5.215,5.215,0,0,1,.578,3.347,5.11,5.11,0,0,1-2.985,3.868,5.108,5.108,0,0,1-2.932.359,5.067,5.067,0,0,1-4.172-4.322,5.112,5.112,0,0,1,.462-2.917,5.111,5.111,0,0,1,3.97-2.847,5.211,5.211,0,0,1,3.326.7c.7.427,1.01.783,1.035.755" transform="translate(-276.664 -4.437)" fill="#f5f5f5"/>
        <path id="Trazado_641143" data-name="Trazado 641143" d="M342.136,4.327a1.094,1.094,0,0,0,.162-.085l.483-.279,1.9-1.121-.059-.008,3.365,3.527-.009-.095-1.624,2.457-.029.044.026.047a11.9,11.9,0,0,1,1.145,2.937l.014.057.058.015,2.86.71-.081-.106c-.03,1.534-.063,3.163-.1,4.873l.094-.113-2.885.595-.073.015-.021.073A11.888,11.888,0,0,1,346.1,20.75l-.041.067.041.067,1.523,2.52.022-.166-3.511,3.381.173-.016-2.462-1.617-.072-.047-.075.042a11.9,11.9,0,0,1-2.922,1.147l-.085.021-.021.085c-.22.9-.461,1.873-.7,2.861l.145-.112-4.874-.088.143.118c-.19-.911-.394-1.894-.6-2.884l-.019-.089-.087-.025a11.812,11.812,0,0,1-2.875-1.249l0,0-.079-.046-.077.047-2.518,1.527.186.024-3.387-3.505.018.184,1.613-2.464.049-.075-.044-.077a11.8,11.8,0,0,1-1.151-2.92l-.021-.085-.085-.02-2.862-.7.108.141q.041-2.5.081-4.873l-.11.133,2.884-.6.079-.017.022-.078a11.839,11.839,0,0,1,1.248-2.884l.04-.067-.04-.067-1.531-2.515-.02.154,3.5-3.393-.143.013,2.467,1.608.055.036.057-.032a11.876,11.876,0,0,1,2.928-1.161l.058-.015.014-.058c.252-1.04.478-1.978.692-2.863l-.087.067,4.874.064L338.556.19c.248,1.15.45,2.094.619,2.881l.006.028.028.008a12.374,12.374,0,0,1,2.229.857l.524.274a1.179,1.179,0,0,0,.175.089,1.411,1.411,0,0,0-.163-.11c-.111-.069-.28-.172-.513-.3a11.543,11.543,0,0,0-2.225-.906l.034.036L338.688.162,338.677.11h-.054L333.75,0l-.071,0-.018.069c-.219.884-.452,1.82-.711,2.859l.072-.072a12.044,12.044,0,0,0-2.986,1.165l.111,0L327.689,2.4l-.077-.05-.066.064L324.033,5.8l-.072.069.052.085,1.522,2.52V8.337a12.085,12.085,0,0,0-1.285,2.945l.1-.094-2.885.6-.108.023,0,.11q-.043,2.376-.09,4.873l0,.114.111.028,2.861.7-.106-.106a12.106,12.106,0,0,0,1.176,2.993l.005-.152L323.7,22.833l-.065.1.083.085,3.384,3.507.083.086.1-.062,2.518-1.526h-.152A12.1,12.1,0,0,0,332.6,26.3l-.106-.114c.207.991.411,1.974.6,2.885l.025.116.118,0,4.874.083.117,0,.028-.114c.241-.988.48-1.966.7-2.863l-.106.106a12.132,12.132,0,0,0,2.991-1.18l-.147-.005,2.465,1.612.094.061.08-.077,3.5-3.39.077-.074-.055-.092-1.531-2.515v.134a12.092,12.092,0,0,0,1.275-2.948l-.094.087,2.883-.606.093-.02V17.3c.026-1.711.051-3.339.074-4.874v-.085l-.083-.02-2.863-.693.072.072A12.048,12.048,0,0,0,346.5,8.727l0,.091,1.6-2.47.034-.051-.042-.043-3.406-3.487-.028-.028-.032.02-1.855,1.155-.477.3a1.518,1.518,0,0,0-.161.11" transform="translate(-271.743)" fill="#f5f5f5"/>
        <rect id="Rectángulo_335009" data-name="Rectángulo 335009" width="88.095" height="145.822" transform="translate(196.902 15.062)" fill="#e0e0e0"/>
        <rect id="Rectángulo_335010" data-name="Rectángulo 335010" width="88.095" height="145.822" transform="translate(199.831 15.062)" fill="#ebebeb"/>
        <rect id="Rectángulo_335011" data-name="Rectángulo 335011" width="80.592" height="139.907" transform="translate(203.582 18.019)" fill="#fafafa"/>
        <rect id="Rectángulo_335012" data-name="Rectángulo 335012" width="49.558" height="103.548" transform="translate(219.274 36.199)" fill="#ebebeb"/>
        <path id="Trazado_641144" data-name="Trazado 641144" d="M88.794,134.652c.114-9.673-8.582-19.116-18.161-20.466-4.567-.644-9.42.262-13.688-1.488C49.327,109.574,46.9,99.454,39.236,96.451l-.35,74.843H88.794Z" transform="translate(180.038 -31.548)" fill="#e0e0e0"/>
        <path id="Trazado_641145" data-name="Trazado 641145" d="M331.281,388.251a13.147,13.147,0,0,0-3.2-1.392l-.659-3.169-5.355-.094-.77,3.144a13.119,13.119,0,0,0-3.25,1.278l-2.706-1.774-3.852,3.72,1.677,2.767a13.125,13.125,0,0,0-1.391,3.2l-3.169.659-.094,5.355,3.145.771a13.1,13.1,0,0,0,1.278,3.249l-1.774,2.706,3.72,3.853,2.766-1.678a13.119,13.119,0,0,0,3.2,1.392l.659,3.169,5.354.094.771-3.144a13.128,13.128,0,0,0,3.249-1.279l2.706,1.774,3.852-3.721-1.678-2.766a13.1,13.1,0,0,0,1.392-3.2l3.169-.659.094-5.355-3.144-.771a13.138,13.138,0,0,0-1.279-3.248l1.774-2.706-3.72-3.853Zm-2.854,7.134a5.745,5.745,0,1,1-8.123-.143,5.746,5.746,0,0,1,8.123.143" transform="translate(-253.017 -125.468)" fill="#f5f5f5"/>
      </g>
    </g>
    <g id="Grupo_927325" data-name="Grupo 927325">
      <g id="Grupo_927324" data-name="Grupo 927324" clip-path="url(#clip-path)">
        <path id="Trazado_641146" data-name="Trazado 641146" d="M11.567,437.722s-.289-.013-.878-.02l-2.674-.019v.077c13.814.078,70.073.137,137.33.137l99.633-.051,30.192-.056,8.208-.032,2.135-.018c.481-.006.727-.018.727-.018s-.246-.012-.727-.018l-2.135-.017-8.208-.033-30.192-.056-99.633-.051c-67.257,0-123.516.059-137.33.137v.077l2.674-.019c.589-.007.878-.019.878-.019" transform="translate(3.365 -143.114)" fill="#263238"/>
      </g>
    </g>
    <rect id="Rectángulo_335015" data-name="Rectángulo 335015" width="150.823" height="212.81" transform="translate(23.407 33.149)" fill="#fff"/>
    <g id="Grupo_927327" data-name="Grupo 927327">
      <g id="Grupo_927326" data-name="Grupo 927326" clip-path="url(#clip-path)">
        <path id="Trazado_641147" data-name="Trazado 641147" d="M179.372,261.987c0-1.415.065-87.09.159-212.81l-.159.159,150.806.016h.017l-.175-.175c.013,79.748.024,153.492.034,212.81l.141-.142-150.823.142,150.823.142h.142v-.142c.009-59.319.021-133.062.034-212.81V49h-.192l-150.806.016h-.159v.159c.094,125.72.159,211.4.159,212.81" transform="translate(-155.965 -16.027)" fill="#263238"/>
        <path id="Trazado_641148" data-name="Trazado 641148" d="M199.071,274h55.385a4.5,4.5,0,0,0,4.5-4.5v-5.762a4.5,4.5,0,0,0-4.5-4.5H199.071a4.5,4.5,0,0,0-4.5,4.5V269.5a4.5,4.5,0,0,0,4.5,4.5" transform="translate(-94.886 -84.791)" fill="#f5f5f5"/>
        <path id="Trazado_641149" data-name="Trazado 641149" d="M301.026,274h53.956a4.5,4.5,0,0,0,4.5-4.5v-5.762a4.5,4.5,0,0,0-4.5-4.5H301.026a4.5,4.5,0,0,0-4.5,4.5V269.5a4.5,4.5,0,0,0,4.5,4.5" transform="translate(-264.019 -84.791)" fill="#f5f5f5"/>
        <path id="Trazado_641150" data-name="Trazado 641150" d="M198.618,318.963H322.378a4.5,4.5,0,0,0,4.5-4.5V308.7a4.5,4.5,0,0,0-4.5-4.5H198.618a4.5,4.5,0,0,0-4.5,4.5v5.762a4.5,4.5,0,0,0,4.5,4.5" transform="translate(-162.504 -99.499)" fill="#f5f5f5"/>
        <path id="Trazado_641151" data-name="Trazado 641151" d="M197.194,250.322c0,.1,6.223.175,13.9.175s13.9-.078,13.9-.175-6.222-.175-13.9-.175-13.9.078-13.9.175" transform="translate(-62.685 -81.819)" fill="#263238"/>
        <path id="Trazado_641152" data-name="Trazado 641152" d="M303.692,250.322c0,.1,4.9.175,10.943.175s10.944-.078,10.944-.175-4.9-.175-10.944-.175-10.943.078-10.943.175" transform="translate(-234.938 -81.819)" fill="#263238"/>
        <path id="Trazado_641153" data-name="Trazado 641153" d="M197.714,295.061c0,.1,10.094.175,22.542.175s22.545-.078,22.545-.175-10.092-.175-22.545-.175-22.542.078-22.542.175" transform="translate(-80.846 -96.452)" fill="#263238"/>
        <path id="Trazado_641154" data-name="Trazado 641154" d="M194.975,225.568H321.347a4.38,4.38,0,0,0,4.379-4.379V213.81a4.379,4.379,0,0,0-4.379-4.379H194.975a4.379,4.379,0,0,0-4.379,4.379v7.379a4.38,4.38,0,0,0,4.379,4.379" transform="translate(-158.982 -68.501)" fill="#e0e0e0"/>
        <path id="Trazado_641155" data-name="Trazado 641155" d="M254.191,221.336c0,.1,11.989.175,26.776.175s26.778-.078,26.778-.175-11.987-.175-26.778-.175-26.776.078-26.776.175" transform="translate(-183.794 -72.338)" fill="#263238"/>
        <path id="Trazado_641156" data-name="Trazado 641156" d="M194.975,79.76H321.347a4.38,4.38,0,0,0,4.379-4.379V68a4.379,4.379,0,0,0-4.379-4.379H194.975A4.379,4.379,0,0,0,190.6,68v7.379a4.38,4.38,0,0,0,4.379,4.379" transform="translate(-158.982 -20.81)" fill="#e0e0e0"/>
        <path id="Trazado_641157" data-name="Trazado 641157" d="M254.191,75.528c0,.1,11.989.175,26.776.175s26.778-.078,26.778-.175-11.987-.175-26.778-.175-26.776.078-26.776.175" transform="translate(-183.794 -24.647)" fill="#263238"/>
        <path id="Trazado_641158" data-name="Trazado 641158" d="M179.271,93.326c0,.1,33.8.175,75.476.175s75.483-.078,75.483-.175-33.789-.175-75.483-.175-75.476.078-75.476.175" transform="translate(-155.864 -30.468)" fill="#ebebeb"/>
        <path id="Trazado_641159" data-name="Trazado 641159" d="M179.271,199.414c0,.1,33.8.176,75.476.176s75.483-.079,75.483-.176-33.789-.175-75.483-.175-75.476.078-75.476.175" transform="translate(-155.864 -65.168)" fill="#ebebeb"/>
        <path id="Trazado_641160" data-name="Trazado 641160" d="M199.071,132.215h55.385a4.5,4.5,0,0,0,4.5-4.5v-5.762a4.5,4.5,0,0,0-4.5-4.5H199.071a4.5,4.5,0,0,0-4.5,4.5v5.762a4.5,4.5,0,0,0,4.5,4.5" transform="translate(-94.886 -38.417)" fill="#f5f5f5"/>
        <path id="Trazado_641161" data-name="Trazado 641161" d="M301.026,132.215h53.956a4.5,4.5,0,0,0,4.5-4.5v-5.762a4.5,4.5,0,0,0-4.5-4.5H301.026a4.5,4.5,0,0,0-4.5,4.5v5.762a4.5,4.5,0,0,0,4.5,4.5" transform="translate(-264.019 -38.417)" fill="#f5f5f5"/>
        <path id="Trazado_641162" data-name="Trazado 641162" d="M198.618,177.183H322.378a4.5,4.5,0,0,0,4.5-4.5v-5.762a4.5,4.5,0,0,0-4.5-4.5H198.618a4.5,4.5,0,0,0-4.5,4.5v5.762a4.5,4.5,0,0,0,4.5,4.5" transform="translate(-162.504 -53.125)" fill="#f5f5f5"/>
        <path id="Trazado_641163" data-name="Trazado 641163" d="M197.194,108.541c0,.1,6.223.175,13.9.175s13.9-.078,13.9-.175-6.222-.175-13.9-.175-13.9.078-13.9.175" transform="translate(-62.685 -35.445)" fill="#263238"/>
        <path id="Trazado_641164" data-name="Trazado 641164" d="M303.692,108.541c0,.1,4.9.175,10.943.175s10.944-.078,10.944-.175-4.9-.175-10.944-.175-10.943.078-10.943.175" transform="translate(-234.938 -35.445)" fill="#263238"/>
        <path id="Trazado_641165" data-name="Trazado 641165" d="M197.714,153.281c0,.1,10.094.175,22.542.175s22.545-.078,22.545-.175-10.092-.175-22.545-.175-22.542.078-22.542.175" transform="translate(-80.846 -50.078)" fill="#263238"/>
        <path id="Trazado_641166" data-name="Trazado 641166" d="M319.133,339.385c0,.1,9.845.175,21.988.175s21.99-.078,21.99-.175-9.843-.175-21.99-.175-21.988.078-21.988.175" transform="translate(-282.861 -110.95)" fill="#263238"/>
        <path id="Trazado_641167" data-name="Trazado 641167" d="M203.327,128.073a7.853,7.853,0,0,0,1.042.261,12.331,12.331,0,0,0,7.769-1.113,4.486,4.486,0,0,0,1.2-.9,2.849,2.849,0,0,0,.719-1.435,2.124,2.124,0,0,0-.347-1.668,1.62,1.62,0,0,0-1.7-.542,1.223,1.223,0,0,0-.747.631,1.571,1.571,0,0,0-.127.982,3.53,3.53,0,0,0,.931,1.727,8.453,8.453,0,0,0,3.377,2.307,8.148,8.148,0,0,0,4.36.4,4.862,4.862,0,0,0,2.131-.937,2.533,2.533,0,0,0,1.037-2.157,2.368,2.368,0,0,0-.464-1.174,1.837,1.837,0,0,0-1.06-.74,1.32,1.32,0,0,0-1.259.415,1.883,1.883,0,0,0-.452,1.244,2.553,2.553,0,0,0,.31,1.281,2.873,2.873,0,0,0,.914.959,8.291,8.291,0,0,0,2.408.966,10.6,10.6,0,0,0,5.237.557,4.933,4.933,0,0,0,2.409-1.307,3.453,3.453,0,0,0,1.044-2.573,2.283,2.283,0,0,0-.728-1.635,1.673,1.673,0,0,0-1.777-.189,1.373,1.373,0,0,0-.671.653,1.41,1.41,0,0,0-.08.929,2.654,2.654,0,0,0,1.051,1.387,13.614,13.614,0,0,0,6.057,2.3,6.141,6.141,0,0,0,3.154-.277A3.177,3.177,0,0,0,241,126.042a2.167,2.167,0,0,0-1.6-2.42,1.5,1.5,0,0,0-1.436.515,2.29,2.29,0,0,0-.5,1.4,2.8,2.8,0,0,0,.308,1.419,3.327,3.327,0,0,0,.956,1.045,7.347,7.347,0,0,0,2.469,1.034,8.279,8.279,0,0,0,4.926.178,4.236,4.236,0,0,0,1.872-1.363,3.037,3.037,0,0,0,.663-2.075,2.906,2.906,0,0,0-.9-1.828,1.979,1.979,0,0,0-1.8-.537l-.073.019,0,.072a5.2,5.2,0,0,0,1.32,3.579,5.443,5.443,0,0,0,2.358,1.607,4.465,4.465,0,0,0,1.766.226,5.045,5.045,0,0,0,.6-.114,4.675,4.675,0,0,1-2.336-.211,5.387,5.387,0,0,1-2.276-1.607,5.058,5.058,0,0,1-1.239-3.47L246,123.6a1.776,1.776,0,0,1,1.6.5,2.691,2.691,0,0,1,.816,1.69,3.386,3.386,0,0,1-2.4,3.176,8.044,8.044,0,0,1-4.763-.211,7.092,7.092,0,0,1-2.367-1,3.036,3.036,0,0,1-.864-.948,2.472,2.472,0,0,1-.267-1.261,1.984,1.984,0,0,1,.434-1.208,1.182,1.182,0,0,1,1.138-.408A1.85,1.85,0,0,1,240.677,126a2.854,2.854,0,0,1-1.746,2.115,5.826,5.826,0,0,1-2.982.246,13.31,13.31,0,0,1-5.889-2.243,2.322,2.322,0,0,1-.921-1.192,1,1,0,0,1,.563-1.184,1.326,1.326,0,0,1,1.4.14,1.933,1.933,0,0,1,.606,1.386,3.106,3.106,0,0,1-.944,2.311,4.589,4.589,0,0,1-2.239,1.213,10.306,10.306,0,0,1-5.063-.547,8.009,8.009,0,0,1-2.312-.917,2.548,2.548,0,0,1-.81-.841,2.228,2.228,0,0,1-.271-1.111,1.555,1.555,0,0,1,.362-1.027.987.987,0,0,1,.945-.317,1.886,1.886,0,0,1,1.272,1.626,2.225,2.225,0,0,1-.915,1.879,4.58,4.58,0,0,1-1.991.88,7.861,7.861,0,0,1-4.2-.366,8.188,8.188,0,0,1-3.276-2.215,3.275,3.275,0,0,1-.876-1.589,1.111,1.111,0,0,1,.691-1.333,1.383,1.383,0,0,1,1.443.45,1.9,1.9,0,0,1,.312,1.485,3.223,3.223,0,0,1-1.789,2.205,12.234,12.234,0,0,1-4.611,1.322,12.971,12.971,0,0,1-3.052-.108c-.346-.057-.609-.1-.785-.145a1.566,1.566,0,0,0-.269-.046" transform="translate(-93.75 -40.104)" fill="#ffb338"/>
        <path id="Trazado_641168" data-name="Trazado 641168" d="M311.7,127.035a4.521,4.521,0,0,0,.846.421,7.728,7.728,0,0,0,2.65.556,8.134,8.134,0,0,0,4.158-.972,5.18,5.18,0,0,0,2.025-1.779,2.411,2.411,0,0,0,.363-1.462,2.045,2.045,0,0,0-.781-1.387,1.321,1.321,0,0,0-.82-.271,1.253,1.253,0,0,0-.816.347,2,2,0,0,0-.546,1.659,2.932,2.932,0,0,0,.845,1.6,7.012,7.012,0,0,0,1.473,1.124,8.77,8.77,0,0,0,3.675,1.176,7.017,7.017,0,0,0,4.019-.75,3.931,3.931,0,0,0,1.558-1.507,2.931,2.931,0,0,0,.357-1.073,2.6,2.6,0,0,0-.166-1.137,2.641,2.641,0,0,0-1.6-1.618,1.543,1.543,0,0,0-1.209.121,1.873,1.873,0,0,0-.81.906,2.789,2.789,0,0,0,.089,2.356,4.876,4.876,0,0,0,1.6,1.764,8.8,8.8,0,0,0,4.516,1.561,8.984,8.984,0,0,0,4.673-1,7.063,7.063,0,0,0,1.9-1.416,3.215,3.215,0,0,0,.943-2.161,2.134,2.134,0,0,0-1.3-1.918,1.311,1.311,0,0,0-1.209.145,1.764,1.764,0,0,0-.668.982,2.535,2.535,0,0,0,.454,2.177,6.723,6.723,0,0,0,1.549,1.493,9.476,9.476,0,0,0,7.6,1.626,5.132,5.132,0,0,0,3.083-1.846,2.844,2.844,0,0,0,.571-1.637,3.1,3.1,0,0,0-.406-1.61,2.048,2.048,0,0,0-1.242-.991,1.764,1.764,0,0,0-1.472.328,2.7,2.7,0,0,0-.993,2.468,3.327,3.327,0,0,0,1.188,2.013,4.468,4.468,0,0,0,1.758.892,8.654,8.654,0,0,0,2.7.169l.7-.062a1.245,1.245,0,0,0,.238-.035,1.225,1.225,0,0,0-.24,0l-.7.027a9.055,9.055,0,0,1-2.665-.23,4.344,4.344,0,0,1-1.685-.887,3.158,3.158,0,0,1-1.1-1.914,2.5,2.5,0,0,1,.932-2.261,1.534,1.534,0,0,1,1.282-.279,1.811,1.811,0,0,1,1.085.886,2.706,2.706,0,0,1-.171,2.964,4.865,4.865,0,0,1-2.928,1.721,9.186,9.186,0,0,1-7.346-1.6,6.433,6.433,0,0,1-1.47-1.421,2.2,2.2,0,0,1-.4-1.9,1.441,1.441,0,0,1,.536-.8.968.968,0,0,1,.9-.1,1.8,1.8,0,0,1,1.07,1.6,2.879,2.879,0,0,1-.856,1.923,6.73,6.73,0,0,1-1.808,1.342,8.654,8.654,0,0,1-4.489.963,8.462,8.462,0,0,1-4.334-1.5,4.548,4.548,0,0,1-1.494-1.632,2.449,2.449,0,0,1-.086-2.064,1.342,1.342,0,0,1,1.61-.84,2.314,2.314,0,0,1,1.386,1.41,2.265,2.265,0,0,1,.148.987,2.617,2.617,0,0,1-.315.947,3.614,3.614,0,0,1-1.429,1.385,6.717,6.717,0,0,1-3.834.723,8.489,8.489,0,0,1-3.555-1.119,6.782,6.782,0,0,1-1.417-1.068,2.662,2.662,0,0,1-.779-1.44,1.741,1.741,0,0,1,.455-1.436.994.994,0,0,1,1.312-.065,1.812,1.812,0,0,1,.693,1.215,2.192,2.192,0,0,1-.321,1.322,5,5,0,0,1-1.927,1.72,8.115,8.115,0,0,1-6.687.522c-.58-.207-.861-.377-.871-.355" transform="translate(-267.961 -39.868)" fill="#ffb338"/>
        <path id="Trazado_641169" data-name="Trazado 641169" d="M201.329,171.982a1.727,1.727,0,0,0,.258.131l.773.351c.682.3,1.69.743,3.017,1.242a24.532,24.532,0,0,0,4.993,1.329,19.236,19.236,0,0,0,3.229.2,10.928,10.928,0,0,0,3.593-.543,4.277,4.277,0,0,0,2.729-2.843,2.777,2.777,0,0,0-.264-2.146,2.425,2.425,0,0,0-1.861-1.253,2.058,2.058,0,0,0-1.931,1.247,3.171,3.171,0,0,0-.17,2.394,4.691,4.691,0,0,0,1.409,2.022,9.15,9.15,0,0,0,2.114,1.363,7.24,7.24,0,0,0,5.109.6,5.175,5.175,0,0,0,3.549-3.912,4.253,4.253,0,0,0,.01-1.425,2.737,2.737,0,0,0-.579-1.333,1.813,1.813,0,0,0-1.3-.748,1.3,1.3,0,0,0-1.243.867,3.484,3.484,0,0,0,.5,2.861,8.664,8.664,0,0,0,1.886,2.235,7.96,7.96,0,0,0,10.546-.162,4.5,4.5,0,0,0,1.367-2.407,2.76,2.76,0,0,0-.09-1.4,2.827,2.827,0,0,0-.789-1.147,2.347,2.347,0,0,0-1.253-.589,1.66,1.66,0,0,0-1.326.414,2.562,2.562,0,0,0-.6,2.522,4.716,4.716,0,0,0,1.4,2.114,11.341,11.341,0,0,0,6.352,2.955,9.863,9.863,0,0,0,4.318-.387,4.817,4.817,0,0,0,1.777-1.065,3.326,3.326,0,0,0,.962-1.738,3.025,3.025,0,0,0-.175-1.89,1.866,1.866,0,0,0-1.413-1.1,2.114,2.114,0,0,0-1.641.451,1.555,1.555,0,0,0-.522,1.5,2.359,2.359,0,0,0,.777,1.271,4.985,4.985,0,0,0,1.139.756,13.109,13.109,0,0,0,2.211.844,12.553,12.553,0,0,0,3.229.48,8.082,8.082,0,0,0,1.137-.048,1.86,1.86,0,0,0-.289-.006c-.19,0-.474,0-.846-.016a13.292,13.292,0,0,1-5.367-1.4,4.8,4.8,0,0,1-1.091-.74,2.176,2.176,0,0,1-.707-1.173,1.35,1.35,0,0,1,.464-1.3,1.906,1.906,0,0,1,1.473-.39,1.631,1.631,0,0,1,1.233.98,2.792,2.792,0,0,1,.146,1.737,3.665,3.665,0,0,1-2.587,2.6,9.627,9.627,0,0,1-4.194.354,11.07,11.07,0,0,1-6.169-2.9,4.412,4.412,0,0,1-1.3-1.97,2.245,2.245,0,0,1,.511-2.192,1.59,1.59,0,0,1,2.138.183,2.5,2.5,0,0,1,.691,1.007,2.421,2.421,0,0,1,.073,1.231,4.17,4.17,0,0,1-1.271,2.219,7.619,7.619,0,0,1-10.081.14,8.3,8.3,0,0,1-1.81-2.143,3.971,3.971,0,0,1-.515-1.26,2.364,2.364,0,0,1,.042-1.3A.954.954,0,0,1,226,169a1.476,1.476,0,0,1,1.037.618,3.117,3.117,0,0,1,.5,2.478,4.846,4.846,0,0,1-3.307,3.653,6.926,6.926,0,0,1-4.876-.569,6.118,6.118,0,0,1-3.369-3.19,2.869,2.869,0,0,1,.146-2.163,1.762,1.762,0,0,1,1.645-1.09,2.146,2.146,0,0,1,1.636,1.106,2.5,2.5,0,0,1,.244,1.937,4.021,4.021,0,0,1-2.556,2.678,10.762,10.762,0,0,1-3.51.551,19.189,19.189,0,0,1-3.2-.166,25.022,25.022,0,0,1-4.974-1.263c-1.33-.478-2.346-.9-3.036-1.179l-.786-.318a1.767,1.767,0,0,0-.273-.1" transform="translate(-95.028 -55.094)" fill="#ffb338"/>
      </g>
    </g>
    <g id="Grupo_927332" data-name="Grupo 927332">
      <g id="Grupo_927331" data-name="Grupo 927331" clip-path="url(#clip-path)">
        <path id="Trazado_641170" data-name="Trazado 641170" d="M340.159,368.7s15.484-17.822,21.328-35.644,3.067-15.776,3.067-15.776-7.888,17.312-13.878,25.674-16.653,20.633-16.653,20.633Z" transform="translate(-294.984 -103.753)" fill="#406834"/>
        <path id="Trazado_641171" data-name="Trazado 641171" d="M381,321.213a.9.9,0,0,1,1.68.574c-.944,6.26-2.985,20.951-2.9,30.478.1,12.378,0,17.162,0,17.162h-6.445s1.144-25.587,2.6-33.388A53.558,53.558,0,0,1,381,321.213" transform="translate(-338.913 -104.912)" fill="#406834"/>
        <path id="Trazado_641172" data-name="Trazado 641172" d="M392.673,366.275a68.256,68.256,0,0,1-5.3-19.243c-.531-4.556.416-10.713,1.824-18.93a50.985,50.985,0,0,0,.815-9.109,1.537,1.537,0,0,0-2.887-.721,40.873,40.873,0,0,0-3.6,9.1c-1.56,8.113-3.328,12.17-1.976,19.867s6.345,19.554,6.345,19.554Z" transform="translate(-354.097 -103.84)" fill="#406834"/>
        <path id="Trazado_641173" data-name="Trazado 641173" d="M413.948,362s-17-36.537-18.18-41.957-5.185-17.91-5.657-17.2-1.178,7.306,1.886,14.847,16.145,45.427,16.145,45.427h5.805" transform="translate(-381.177 -99.044)" fill="#406834"/>
        <path id="Trazado_641174" data-name="Trazado 641174" d="M334.331,365.308a3.424,3.424,0,0,0,.476-.327c.3-.229.76-.55,1.317-1.006a60.174,60.174,0,0,0,4.569-4.033,76.667,76.667,0,0,0,12.335-15.831,103.754,103.754,0,0,0,8.42-18.238c.855-2.427,1.479-4.413,1.883-5.793.208-.688.351-1.228.452-1.593a3.448,3.448,0,0,0,.131-.563,3.589,3.589,0,0,0-.2.542q-.192.586-.516,1.573c-.445,1.365-1.106,3.337-1.99,5.747a110.246,110.246,0,0,1-8.49,18.14,80.028,80.028,0,0,1-12.2,15.834c-1.82,1.808-3.377,3.186-4.479,4.107-.542.471-.985.81-1.272,1.057a3.474,3.474,0,0,0-.432.385" transform="translate(-293.893 -103.988)" fill="#263238"/>
        <path id="Trazado_641175" data-name="Trazado 641175" d="M374.592,349.112a6.2,6.2,0,0,0,.153-1.072c.081-.756.186-1.742.313-2.929.269-2.472.69-5.881,1.29-9.625s1.273-7.115,1.792-9.547c.252-1.166.46-2.135.62-2.879a6.2,6.2,0,0,0,.191-1.066,6.232,6.232,0,0,0-.328,1.032c-.191.67-.443,1.645-.734,2.856-.584,2.421-1.3,5.791-1.9,9.545s-.982,7.176-1.187,9.658c-.1,1.241-.169,2.246-.2,2.943a6.207,6.207,0,0,0-.011,1.083" transform="translate(-336.014 -105.319)" fill="#263238"/>
        <path id="Trazado_641176" data-name="Trazado 641176" d="M388.553,318.236a2.61,2.61,0,0,0-.2.464c-.129.344-.3.795-.509,1.357-.225.588-.484,1.314-.73,2.175s-.58,1.826-.826,2.926q-.2.823-.421,1.718c-.143.6-.244,1.231-.374,1.881-.277,1.3-.449,2.7-.655,4.18a62.422,62.422,0,0,0,.692,19.313c.311,1.458.583,2.848.953,4.123.176.639.323,1.262.508,1.849l.543,1.684c.324,1.079.72,2.021,1.034,2.859s.617,1.546.884,2.117l.606,1.318a2.594,2.594,0,0,0,.233.448,2.686,2.686,0,0,0-.166-.478l-.542-1.342c-.246-.578-.536-1.289-.824-2.134s-.672-1.785-.979-2.866l-.518-1.683c-.178-.586-.316-1.209-.486-1.846-.355-1.272-.615-2.658-.916-4.11a64.518,64.518,0,0,1-.688-19.212c.2-1.47.355-2.871.619-4.164.123-.648.217-1.279.352-1.876s.27-1.168.4-1.716c.229-1.1.538-2.068.772-2.929s.465-1.593.669-2.188c.184-.571.332-1.029.445-1.378a2.708,2.708,0,0,0,.132-.489" transform="translate(-353.958 -104.09)" fill="#263238"/>
        <path id="Trazado_641177" data-name="Trazado 641177" d="M393.822,303.944a.563.563,0,0,0,.013.164c.02.129.045.285.075.475.075.416.169,1.033.335,1.818.328,1.572.875,3.834,1.726,6.578s2.008,5.963,3.385,9.5,2.966,7.39,4.475,11.493c1.533,4.1,2.713,8.093,3.823,11.72s2.143,6.889,3.151,9.579a61.15,61.15,0,0,0,2.684,6.248c.348.724.661,1.264.863,1.635l.238.418a.538.538,0,0,0,.092.136.578.578,0,0,0-.059-.154l-.206-.434c-.181-.382-.474-.931-.8-1.662-.685-1.448-1.606-3.577-2.571-6.275s-1.99-5.953-3.071-9.587-2.266-7.642-3.8-11.749c-1.513-4.112-3.117-7.963-4.5-11.49s-2.577-6.726-3.452-9.454-1.463-4.971-1.833-6.531c-.187-.779-.3-1.391-.4-1.8l-.111-.468a.564.564,0,0,0-.05-.157" transform="translate(-384.692 -99.415)" fill="#263238"/>
        <path id="Trazado_641178" data-name="Trazado 641178" d="M369.978,291.746a1.463,1.463,0,0,1,2.41,1.493,41.7,41.7,0,0,1-2.137,5.494c-2.337,4.967-9.2,22.788-12.417,32.576s-7.743,28.048-7.743,28.048l-6.862-1.113s6.278-30,12.414-40.812c4.93-8.686,9.86-21.238,14.334-25.685" transform="translate(-308.422 -95.287)" fill="#406834"/>
        <path id="Trazado_641179" data-name="Trazado 641179" d="M373.615,359.84a4.27,4.27,0,0,0-.354.822c-.2.538-.479,1.324-.791,2.3-.633,1.958-1.406,4.692-2.185,7.73s-1.425,5.8-1.876,7.808l-.516,2.378a4.14,4.14,0,0,0-.142.884,4.278,4.278,0,0,0,.279-.851c.168-.626.377-1.413.628-2.351.525-2.064,1.215-4.778,1.978-7.778.778-3.035,1.511-5.774,2.079-7.746.271-.931.5-1.713.68-2.334a4.263,4.263,0,0,0,.219-.867" transform="translate(-326.081 -117.698)" fill="#263238"/>
        <path id="Trazado_641180" data-name="Trazado 641180" d="M344.411,358.948a.721.721,0,0,0,.039-.183c.02-.143.046-.32.077-.54.072-.474.137-1.179.281-2.078.252-1.8.7-4.4,1.439-7.57a108.461,108.461,0,0,1,3.212-10.964c1.408-4.066,3.173-8.459,5.174-13.006,4.038-9.082,8.071-17.139,10.721-23.1,1.34-2.972,2.377-5.4,3.06-7.088.348-.843.6-1.5.771-1.952l.191-.511a.784.784,0,0,0,.053-.179.682.682,0,0,0-.088.165l-.223.5-.834,1.925c-.723,1.672-1.795,4.081-3.163,7.036-2.708,5.925-6.776,13.96-10.82,23.056-2,4.553-3.764,8.961-5.158,13.043A103.229,103.229,0,0,0,346,348.519a76.711,76.711,0,0,0-1.328,7.609c-.124.9-.166,1.612-.214,2.089-.017.221-.031.4-.042.544a.73.73,0,0,0,0,.186" transform="translate(-306.188 -95.437)" fill="#263238"/>
        <path id="Trazado_641181" data-name="Trazado 641181" d="M375.5,376.753a7.241,7.241,0,0,0,.231-1.153c.137-.806.316-1.869.534-3.155.473-2.659,1.2-6.321,2.233-10.308s2.186-7.539,3.077-10.088c.437-1.229.8-2.245,1.073-3.015a7.27,7.27,0,0,0,.365-1.118,7.2,7.2,0,0,0-.5,1.067c-.3.7-.709,1.711-1.183,2.978a99.749,99.749,0,0,0-3.187,10.085,104.835,104.835,0,0,0-2.135,10.357c-.2,1.339-.345,2.424-.421,3.177a7.242,7.242,0,0,0-.092,1.173" transform="translate(-340.695 -113.798)" fill="#263238"/>
        <rect id="Rectángulo_335017" data-name="Rectángulo 335017" width="26.788" height="32.638" transform="translate(20.721 261.97)" fill="#dd9520"/>
        <rect id="Rectángulo_335020" data-name="Rectángulo 335020" width="23.766" height="32.638" transform="translate(29.266 261.97)" fill="#ffb338"/>
      </g>
    </g>
    <g id="Grupo_927346" data-name="Grupo 927346">
      <g id="Grupo_927345" data-name="Grupo 927345" clip-path="url(#clip-path)">
        <path id="Trazado_641182" data-name="Trazado 641182" d="M127.7,117.824l.762,61.313c.129,10.427-1.811,25.77-18.305,25.223-14.275-1.554-18.062-15.067-18.173-24.8-.052-4.616-.106-8.465-.142-8.938,0,0-15.627-1.275-16.946-16.709-.637-7.459-.7-22.929-.594-36.925a28.854,28.854,0,0,1,26.762-28.542l1.491-.109c16.141-.235,25.358,13.343,25.146,29.484" transform="translate(116.564 -28.893)" fill="#ffbe9d"/>
        <path id="Trazado_641183" data-name="Trazado 641183" d="M99.443,207.018a37.419,37.419,0,0,0,19.68-7.416s-4.083,11.642-19.6,11.376Z" transform="translate(108.96 -65.287)" fill="#eb996e"/>
        <path id="Trazado_641184" data-name="Trazado 641184" d="M101.472,138.991c.307.312,2.089-1.122,4.675-1.192,2.582-.108,4.517,1.2,4.788.866.133-.148-.186-.719-1.029-1.31a6.471,6.471,0,0,0-3.844-1.091,6.247,6.247,0,0,0-3.71,1.35c-.779.649-1.032,1.237-.881,1.377" transform="translate(115.781 -44.569)" fill="#263238"/>
        <path id="Trazado_641185" data-name="Trazado 641185" d="M109.211,147.275a2.093,2.093,0,0,0,2.166,1.959,2,2,0,0,0,2.013-2.039,2.093,2.093,0,0,0-2.164-1.96,2,2,0,0,0-2.015,2.04" transform="translate(108.119 -47.504)" fill="#263238"/>
        <path id="Trazado_641186" data-name="Trazado 641186" d="M131.345,157.4a15.718,15.718,0,0,0-3.906-.414c-.611-.018-1.194-.1-1.326-.5a3.093,3.093,0,0,1,.273-1.826q.694-2.263,1.456-4.747c2.01-6.754,3.417-12.289,3.145-12.368s-2.123,5.332-4.132,12.086q-.722,2.5-1.379,4.769a3.527,3.527,0,0,0-.14,2.4,1.523,1.523,0,0,0,1.061.813,4.124,4.124,0,0,0,1.04.068c2.416-.046,3.909-.144,3.908-.28" transform="translate(79.429 -44.986)" fill="#263238"/>
        <path id="Trazado_641187" data-name="Trazado 641187" d="M99.614,124.927c.25.574,2.32.142,4.8.269,2.481.075,4.517.674,4.8.122.127-.264-.259-.792-1.1-1.3a8.114,8.114,0,0,0-7.316-.3c-.875.441-1.295.937-1.186,1.21" transform="translate(118.739 -40.227)" fill="#263238"/>
        <path id="Trazado_641188" data-name="Trazado 641188" d="M136.323,132.016c.271.468,2.289-.052,4.735-.127,2.445-.12,4.475.238,4.733-.251.113-.233-.29-.652-1.143-1.023a8.54,8.54,0,0,0-3.617-.6,8.822,8.822,0,0,0-3.6.886c-.841.439-1.232.89-1.112,1.114" transform="translate(57.47 -42.524)" fill="#263238"/>
        <path id="Trazado_641189" data-name="Trazado 641189" d="M59.936,148.922c.255-.133,10.386-3.914,10.819,6.671s-10.284,8.839-10.314,8.536-.5-15.207-.5-15.207" transform="translate(183.9 -48.46)" fill="#ffbe9d"/>
        <path id="Trazado_641190" data-name="Trazado 641190" d="M63.94,161.624c.046-.036.19.122.507.252a1.846,1.846,0,0,0,1.38-.028c1.1-.456,1.97-2.27,1.943-4.18a6.107,6.107,0,0,0-.624-2.62,2.134,2.134,0,0,0-1.445-1.359.939.939,0,0,0-1.067.55c-.13.3-.054.511-.11.532-.028.027-.234-.168-.167-.609a1.179,1.179,0,0,1,.389-.681,1.4,1.4,0,0,1,1.009-.311,2.593,2.593,0,0,1,1.994,1.563,6.261,6.261,0,0,1,.76,2.924c.02,2.136-.991,4.177-2.5,4.681a1.977,1.977,0,0,1-1.7-.211c-.338-.248-.4-.482-.368-.5" transform="translate(183.47 -50.098)" fill="#eb996e"/>
        <path id="Trazado_641191" data-name="Trazado 641191" d="M113.131,174.63c-.116-.267,1.959-.888,3.416-2.834a11.88,11.88,0,0,0,1.465-2.764c.309-.768.543-1.251.657-1.216s.081.554-.089,1.39a7.814,7.814,0,0,1-1.362,3.1,6.331,6.331,0,0,1-2.7,2.07c-.808.328-1.355.349-1.383.258" transform="translate(100.142 -54.889)" fill="#263238"/>
        <path id="Trazado_641192" data-name="Trazado 641192" d="M136.507,140.439c.307.312,2.089-1.122,4.675-1.192,2.582-.108,4.517,1.2,4.788.866.134-.148-.185-.719-1.028-1.31a6.47,6.47,0,0,0-3.844-1.091,6.247,6.247,0,0,0-3.71,1.35c-.779.649-1.032,1.238-.881,1.377" transform="translate(57.171 -45.042)" fill="#263238"/>
        <path id="Trazado_641193" data-name="Trazado 641193" d="M143.73,148.391a2.092,2.092,0,0,0,2.166,1.958,2,2,0,0,0,2.013-2.038,2.093,2.093,0,0,0-2.164-1.96,2,2,0,0,0-2.015,2.04" transform="translate(50.371 -47.869)" fill="#263238"/>
        <path id="Trazado_641194" data-name="Trazado 641194" d="M62.2,91.935a8.353,8.353,0,0,1,10.419-3.3,11.433,11.433,0,0,1,19.694-9.872,4.665,4.665,0,0,1,2.277-3.132,9.22,9.22,0,0,1,3.8-1.134,18.174,18.174,0,0,1,16.6,7.239,19.782,19.782,0,0,1,16.762,6.116c4.973,5.508,5.91,18.275.464,29.3l-1.283,6.914c-1.708,0-3.271.118-4.323,1.065-1.431,1.286-2.071,3.706-4.449,2.788-1.21-.468-2.314-3.007-2.719-4.239a60.246,60.246,0,0,1-2.608-25.5,19.362,19.362,0,0,0-5.979-4.315l.182.165c-4.313-1.5-9.193-2.972-13.286-.947-3.174,1.571-5.041,4.865-7.414,7.494a24.236,24.236,0,0,1-17.272,7.978c-.228,4.346.137,10.489-.091,14.835l-3.656-6.962,0,.034c-.3-.509-.547-1.023-.786-1.538l-.082-.157v-.019l0-.005c-.669-.543-1.176-1.538-2.305-2.832a9.12,9.12,0,0,1-1.5-9.331A8.353,8.353,0,0,1,62.2,91.935" transform="translate(117.897 -24.333)" fill="#263238"/>
        <path id="Trazado_641195" data-name="Trazado 641195" d="M163.328,130.746l.014-.012Z" transform="translate(21.752 -42.761)" fill="#263238"/>
        <path id="Trazado_641196" data-name="Trazado 641196" d="M134.684,100.7c-.011,0-.037.075-.077.227a3.136,3.136,0,0,0-.1.684,4.584,4.584,0,0,0,.616,2.481,4.717,4.717,0,0,0,1.182,1.369,4.222,4.222,0,0,0,1.929.823,4.774,4.774,0,0,0,4.413-1.661l-.262-.225a2.919,2.919,0,0,0-.746,2.076,3.832,3.832,0,0,0,1.183,2.667,4.322,4.322,0,0,0,2.5,1.066,6.73,6.73,0,0,0,4.352-1.2,14.187,14.187,0,0,0,2.326-1.977,5.943,5.943,0,0,0,.741-.835,7.917,7.917,0,0,0-.836.738,16.385,16.385,0,0,1-2.365,1.866,6.574,6.574,0,0,1-4.184,1.085,4.025,4.025,0,0,1-2.3-.995,3.51,3.51,0,0,1-1.067-2.424,2.582,2.582,0,0,1,.648-1.832l-.262-.225a4.494,4.494,0,0,1-4.095,1.573,4.148,4.148,0,0,1-2.961-2.006,4.69,4.69,0,0,1-.689-2.363c0-.588.081-.908.05-.914" transform="translate(51.74 -32.936)" fill="#455a64"/>
        <path id="Trazado_641197" data-name="Trazado 641197" d="M129.068,83.455c-.006-.01-.084.024-.227.1a4.622,4.622,0,0,0-.59.4,5.16,5.16,0,0,0-1.6,2.073,4.059,4.059,0,0,0,.363,3.813,3.126,3.126,0,0,0,1.929,1.324,3.174,3.174,0,0,0,2.466-.478A2.782,2.782,0,0,0,132,90.1l-.3-.171a2.956,2.956,0,0,0,.079,2.379,3.254,3.254,0,0,0,1.54,1.577,4.289,4.289,0,0,0,3.607-.007,5.754,5.754,0,0,0,1.943-1.465,2.775,2.775,0,0,0,.515-.721c-.022-.017-.212.233-.611.631a6.1,6.1,0,0,1-1.942,1.335,4.09,4.09,0,0,1-3.37-.055,2.948,2.948,0,0,1-1.373-1.435,2.633,2.633,0,0,1-.067-2.1l.559-1.3-.862,1.128a2.462,2.462,0,0,1-.507.5,2.856,2.856,0,0,1-2.192.427,2.813,2.813,0,0,1-1.735-1.172,3.835,3.835,0,0,1-.4-3.539,5.354,5.354,0,0,1,1.453-2.06c.452-.405.747-.577.73-.6" transform="translate(70.602 -27.296)" fill="#455a64"/>
        <path id="Trazado_641198" data-name="Trazado 641198" d="M243.959,197.363l24.425,18.651a3.164,3.164,0,1,1-3.861,5.013L240.3,202.2l-3.278-6.463Z" transform="translate(-134.123 -64.023)" fill="#eb6f2d"/>
        <g id="Grupo_927335" data-name="Grupo 927335" transform="translate(104.304 132.45)" opacity="0.5">
          <g id="Grupo_927334" data-name="Grupo 927334" transform="translate(0)">
            <g id="Grupo_927333" data-name="Grupo 927333" clip-path="url(#clip-path-7)">
              <path id="Trazado_641199" data-name="Trazado 641199" d="M276.572,196.83l-1.732,2.017,1.871,3.712a1.486,1.486,0,0,0,1.628-1.689,1.308,1.308,0,0,0,1.478-1.7s1.27-.114.554-1.456Z" transform="translate(-274.84 -196.83)" fill="#fff"/>
            </g>
          </g>
        </g>
        <path id="Trazado_641200" data-name="Trazado 641200" d="M244.223,225.308l-4.009,4.9-1.346-1.046,3.844-5.005Z" transform="translate(-109.963 -73.317)" fill="#263238"/>
        <path id="Trazado_641201" data-name="Trazado 641201" d="M274.562,264.308l.878-.157-18-31.456,2.844-9.068s3.3-12.915.549-16.213c0,0-6.01-7.074-7.96-6.977s-3.51.487-3.9,1.949c0,0-3.315-.39-4.192.682a16.9,16.9,0,0,0-1.56,2.34s-3.608-.292-4.583,2.828c0,0-3.412,1.755-3.7,4.29s.682,14.331,1.755,17.353,5.069,9.359,6.239,18.719,5.293,15.434,8.958,29.113l9.955,3.937Z" transform="translate(-138.499 -65.559)" fill="#ffbe9d"/>
        <path id="Trazado_641202" data-name="Trazado 641202" d="M268.874,203.034a10.672,10.672,0,0,1,3.381,5.379,6.1,6.1,0,0,0-3.381-5.379" transform="translate(-158.222 -66.406)" fill="#eb996e"/>
        <path id="Trazado_641203" data-name="Trazado 641203" d="M277.359,207.813a10.431,10.431,0,0,1,3.408,4.848,5.653,5.653,0,0,0-3.408-4.848" transform="translate(-172.437 -67.969)" fill="#eb996e"/>
        <path id="Trazado_641204" data-name="Trazado 641204" d="M284.774,211.876c-.075.095.821.878,1.643,2.067s1.259,2.293,1.374,2.254a6.349,6.349,0,0,0-3.017-4.32" transform="translate(-184.437 -69.299)" fill="#eb996e"/>
        <path id="Trazado_641205" data-name="Trazado 641205" d="M258.324,213.05a4.314,4.314,0,0,1,3.931.266c.036-.034-.1-.254-.423-.5a2.952,2.952,0,0,0-3.022-.2c-.357.2-.517.4-.487.435" transform="translate(-141.089 -69.438)" fill="#eb996e"/>
        <path id="Trazado_641206" data-name="Trazado 641206" d="M269.518,218.716a5.223,5.223,0,0,1,3.593-2.739c0-.05-.277-.115-.73-.057A3.589,3.589,0,0,0,269.657,218c-.176.421-.186.707-.139.719" transform="translate(-159.458 -70.616)" fill="#eb996e"/>
        <path id="Trazado_641207" data-name="Trazado 641207" d="M278.44,221.527a5.849,5.849,0,0,1,4.7-1.274c.018-.046-.238-.211-.712-.323a4.019,4.019,0,0,0-3.539.959c-.353.336-.491.607-.452.638" transform="translate(-175.507 -71.906)" fill="#eb996e"/>
        <path id="Trazado_641208" data-name="Trazado 641208" d="M12.4,273.334s11.028,62.638,10.5,68.494S19.43,357,12.777,358.6A29.272,29.272,0,0,1,0,358.6l7.987-76.937Z" transform="translate(272.086 -89.403)" fill="#ffb338"/>
        <path id="Trazado_641209" data-name="Trazado 641209" d="M86.24,219.365s13.2,9.382,16.116,12.141c12.2,11.541,14.756,16.263,16.176,20.167s-8.471,94.593-8.471,94.593l-2,15.844-92.638.239V281.4l13.918-56.972,8.564-2.437,1.729-6.791s10.642-7.857,28.192-8.083c5.4-.07,13.036,2.052,17.3,5.362Z" transform="translate(165.955 -67.743)" fill="#ffb338"/>
        <path id="Trazado_641210" data-name="Trazado 641210" d="M221.771,233.051s-9.52-.429-10.362-.234c-2.934.677-10.993,8.064-20.171,17.167-8.756,8.685-25.984,26.754-25.984,26.754s-3.1-3.127-6.628,1.046L145.026,258s-20.414,2.507-23.624,17.916c0,0,6.257,11.946,11.382,20.488,0,0,18.973,31.484,33.959,25.783,13.688-5.208,30.853-19.134,33.27-22.11L220.166,285.7s13.8-26.322,7.7-39.483Z" transform="translate(-16.119 -76.134)" fill="#ffb338"/>
        <path id="Trazado_641211" data-name="Trazado 641211" d="M63.612,227.094a2.293,2.293,0,0,0,.489-.1l1.374-.362c1.2-.3,2.932-.721,5.1-1.13a142.117,142.117,0,0,1,17.1-2.108,116.8,116.8,0,0,1,17.22.051c2.2.188,3.961.462,5.173.682l1.394.275a2.269,2.269,0,0,0,.494.069,2.281,2.281,0,0,0-.474-.149l-1.381-.351a45.582,45.582,0,0,0-5.177-.814,105.867,105.867,0,0,0-17.274-.172,126.082,126.082,0,0,0-17.128,2.233c-2.167.447-3.9.908-5.085,1.26l-1.357.437a2.248,2.248,0,0,0-.464.179" transform="translate(140.243 -72.849)" fill="#263238"/>
        <path id="Trazado_641212" data-name="Trazado 641212" d="M80.364,218.821a30.474,30.474,0,0,0,.97-6.982,30.474,30.474,0,0,0-.97,6.982" transform="translate(159.574 -69.289)" fill="#263238"/>
        <path id="Trazado_641213" data-name="Trazado 641213" d="M85.728,218.367a11.038,11.038,0,0,0,.486-7.01c-.12.017.062,1.588-.079,3.517s-.524,3.459-.407,3.493" transform="translate(150.75 -69.131)" fill="#263238"/>
        <g id="Grupo_927338" data-name="Grupo 927338" transform="translate(207.353 150.137)" opacity="0.3">
          <g id="Grupo_927337" data-name="Grupo 927337">
            <g id="Grupo_927336" data-name="Grupo 927336" clip-path="url(#clip-path-8)">
              <path id="Trazado_641214" data-name="Trazado 641214" d="M108.6,224.52c-14.5,2.566-29.194.024-44.536,1.839,14.815-3.066,30.242-4.52,44.536-1.839" transform="translate(-64.067 -223.114)"/>
            </g>
          </g>
        </g>
        <g id="Grupo_927341" data-name="Grupo 927341" transform="translate(277.33 207.892)" opacity="0.3">
          <g id="Grupo_927340" data-name="Grupo 927340" transform="translate(0)">
            <g id="Grupo_927339" data-name="Grupo 927339" clip-path="url(#clip-path-9)">
              <path id="Trazado_641215" data-name="Trazado 641215" d="M16.137,370.366c8.155-19.1,7.19-40.687,6.084-61.424Z" transform="translate(-16.137 -308.942)"/>
            </g>
          </g>
        </g>
        <path id="Trazado_641216" data-name="Trazado 641216" d="M25.9,293.628a1.1,1.1,0,0,0-.043.241c-.022.182-.05.416-.085.71-.069.653-.166,1.568-.29,2.733-.238,2.4-.577,5.834-1,10.061-.828,8.5-1.96,20.234-3.309,33.187s-2.7,24.672-3.784,33.138c-.532,4.234-.989,7.657-1.311,10.022-.153,1.161-.274,2.074-.36,2.725-.034.294-.062.528-.083.71a1.062,1.062,0,0,0-.014.244,1.11,1.11,0,0,0,.056-.238c.032-.181.072-.413.123-.7.1-.648.25-1.557.436-2.714.37-2.359.871-5.777,1.44-10.008,1.155-8.46,2.551-20.174,3.9-33.134s2.435-24.7,3.19-33.2c.364-4.232.659-7.666.866-10.073.092-1.168.163-2.086.214-2.741.018-.3.033-.53.045-.714a1.087,1.087,0,0,0,0-.244" transform="translate(258.589 -96.041)" fill="#263238"/>
        <path id="Trazado_641217" data-name="Trazado 641217" d="M22.477,278.313a3.232,3.232,0,0,0,.6.032l1.711.012c1.485-.006,3.634.016,6.288.077,5.307.12,12.637.509,20.679,1.462s15.262,2.3,20.449,3.433c2.594.563,4.688,1.046,6.13,1.4l1.665.39a3.3,3.3,0,0,0,.588.109,3.339,3.339,0,0,0-.567-.189l-1.647-.464c-1.431-.4-3.517-.929-6.107-1.528a193.5,193.5,0,0,0-41.187-4.9c-2.658-.025-4.809,0-6.294.052l-1.711.065a3.273,3.273,0,0,0-.6.05" transform="translate(199.29 -90.973)" fill="#263238"/>
        <path id="Trazado_641218" data-name="Trazado 641218" d="M57.308,289.714c.114,0-.1-8.678-.475-19.371s-.771-19.363-.885-19.358.1,8.676.476,19.373.771,19.361.884,19.357" transform="translate(200.032 -82.093)" fill="#263238"/>
        <path id="Trazado_641219" data-name="Trazado 641219" d="M119.177,282.127a3.841,3.841,0,0,0,.347-.544q.347-.6.929-1.6l3.418-5.871a50.927,50.927,0,0,0,4.287-9.136,29.915,29.915,0,0,0,1.279-5.84,35.156,35.156,0,0,0,.019-6.418,34.1,34.1,0,0,0-3.058-11.957,19.746,19.746,0,0,0-3.015-4.5,17.12,17.12,0,0,0-3.622-3.024,13.8,13.8,0,0,0-6.426-2.153,9.065,9.065,0,0,0-2.491.139,23.476,23.476,0,0,1,2.478.02,14.034,14.034,0,0,1,6.284,2.239,17.043,17.043,0,0,1,3.525,3.007,19.6,19.6,0,0,1,2.93,4.439,34.2,34.2,0,0,1,2.988,11.829,35.189,35.189,0,0,1-.009,6.337,29.96,29.96,0,0,1-1.238,5.767,52.576,52.576,0,0,1-4.181,9.111l-3.305,5.934-.862,1.635a3.857,3.857,0,0,0-.275.583" transform="translate(90.82 -75.578)" fill="#263238"/>
        <g id="Grupo_927344" data-name="Grupo 927344" transform="translate(227.475 187.522)" opacity="0.3">
          <g id="Grupo_927343" data-name="Grupo 927343">
            <g id="Grupo_927342" data-name="Grupo 927342" clip-path="url(#clip-path-10)">
              <path id="Trazado_641220" data-name="Trazado 641220" d="M75.09,285.355a110.375,110.375,0,0,1-17.408-2.3,26.541,26.541,0,0,1,.975,7.788,17.865,17.865,0,0,1-3.871-7.123,10.778,10.778,0,0,1-4.391,7.206A23.547,23.547,0,0,1,50,282.994q-12.993-1.566-25.814-4.272A175.03,175.03,0,0,1,75.437,285.1" transform="translate(-24.19 -278.67)"/>
            </g>
          </g>
        </g>
        <path id="Trazado_641221" data-name="Trazado 641221" d="M135.829,339.506a2.289,2.289,0,0,0,.4-.238l1.106-.738c.958-.647,2.333-1.6,4.023-2.785,3.382-2.373,8.017-5.7,13.071-9.473s9.57-7.263,12.81-9.827c1.62-1.282,2.924-2.329,3.817-3.062l1.023-.85a2.36,2.36,0,0,0,.342-.315,2.335,2.335,0,0,0-.386.259l-1.065.8-3.884,2.973c-3.277,2.513-7.815,5.973-12.867,9.742s-9.662,7.128-13.005,9.553l-3.957,2.875-1.069.792a2.335,2.335,0,0,0-.359.3" transform="translate(31.178 -102.121)" fill="#263238"/>
        <path id="Trazado_641222" data-name="Trazado 641222" d="M216.1,313.842c.061,0,.022-1.017.14-2.645a27.772,27.772,0,0,1,3.745-12.051c.825-1.407,1.433-2.221,1.384-2.258a2.79,2.79,0,0,0-.474.536,17.594,17.594,0,0,0-1.121,1.593,24.648,24.648,0,0,0-3.781,12.166,17.652,17.652,0,0,0,.02,1.949,2.8,2.8,0,0,0,.087.71" transform="translate(-71.703 -97.107)" fill="#263238"/>
        <path id="Trazado_641223" data-name="Trazado 641223" d="M228.184,313.06c.057-.011-.072-.8-.17-2.073a25.872,25.872,0,0,1,1.135-9.858c.384-1.221.688-1.956.636-1.98a1.747,1.747,0,0,0-.279.489,14.362,14.362,0,0,0-.591,1.411,21.658,21.658,0,0,0-1.146,9.961,14.452,14.452,0,0,0,.254,1.509,1.751,1.751,0,0,0,.161.54" transform="translate(-87.957 -97.847)" fill="#263238"/>
        <path id="Trazado_641224" data-name="Trazado 641224" d="M242.379,297.45c.02,0-.009-.13.156-.252a.811.811,0,0,0,.273-.3c.079-.14.13-.314.227-.476.179-.337.626-.6.952-1.1a7.159,7.159,0,0,0,.812-1.776,11.824,11.824,0,0,1,2.309-4.357,19.17,19.17,0,0,1,2.081-2.073,21.775,21.775,0,0,1,2.51-1.917,20.662,20.662,0,0,1,2.686-1.667l2.664-1.3c.852-.4,1.641-.818,2.415-1.149l2.155-.918a9.758,9.758,0,0,0,.937-.428c.285-.171.523-.355.765-.49l.7-.371c.22-.117.4-.269.558-.37.332-.207.624-.321.811-.421a.936.936,0,0,0,.275-.17,1.424,1.424,0,0,0-.3.106,6.368,6.368,0,0,0-.852.368,9.051,9.051,0,0,1-1.28.686c-.26.134-.509.316-.782.468s-.6.255-.927.395l-2.165.875c-.777.319-1.585.731-2.447,1.128l-2.673,1.286a20.36,20.36,0,0,0-2.727,1.682,21.629,21.629,0,0,0-2.544,1.951,18.933,18.933,0,0,0-2.1,2.125,11.776,11.776,0,0,0-2.3,4.486,7.234,7.234,0,0,1-.74,1.746c-.281.472-.717.748-.907,1.138-.1.188-.137.363-.2.5a.779.779,0,0,1-.227.29c-.173.164-.112.318-.109.306" transform="translate(-133.754 -90.901)" fill="#263238"/>
        <path id="Trazado_641225" data-name="Trazado 641225" d="M148.594,398.51c.1,0,.175-17.026.175-38.024s-.078-38.028-.175-38.028-.175,17.023-.175,38.028.078,38.024.175,38.024" transform="translate(46.357 -105.471)" fill="#263238"/>
      </g>
    </g>
  </g>
</svg>
