<svg id="Grupo_927190" data-name="Grupo 927190" xmlns="http://www.w3.org/2000/svg" xmlns:xlink="http://www.w3.org/1999/xlink" width="295" height="274.914" viewBox="0 0 295 274.914">
  <defs>
    <clipPath id="clip-path">
      <rect id="Rectángulo_334989" data-name="Rectángulo 334989" width="295" height="274.914" fill="none"/>
    </clipPath>
    <clipPath id="clip-path-4">
      <rect id="Rectángulo_334969" data-name="Rectángulo 334969" width="9.309" height="16.163" fill="none"/>
    </clipPath>
    <clipPath id="clip-path-5">
      <rect id="Rectángulo_334970" data-name="Rectángulo 334970" width="10" height="6.657" fill="none"/>
    </clipPath>
    <clipPath id="clip-path-6">
      <rect id="Rectángulo_334971" data-name="Rectángulo 334971" width="9.515" height="4.394" fill="none"/>
    </clipPath>
    <clipPath id="clip-path-7">
      <rect id="Rectángulo_334972" data-name="Rectángulo 334972" width="3.33" height="5.572" fill="none"/>
    </clipPath>
    <clipPath id="clip-path-8">
      <rect id="Rectángulo_334973" data-name="Rectángulo 334973" width="2.998" height="2.704" fill="none"/>
    </clipPath>
    <clipPath id="clip-path-9">
      <rect id="Rectángulo_334974" data-name="Rectángulo 334974" width="5.537" height="15.294" fill="none"/>
    </clipPath>
    <clipPath id="clip-path-10">
      <rect id="Rectángulo_334975" data-name="Rectángulo 334975" width="9.771" height="3.696" fill="none"/>
    </clipPath>
    <clipPath id="clip-path-11">
      <rect id="Rectángulo_334976" data-name="Rectángulo 334976" width="7.759" height="4.986" fill="none"/>
    </clipPath>
    <clipPath id="clip-path-12">
      <rect id="Rectángulo_334977" data-name="Rectángulo 334977" width="1.723" height="5.349" fill="none"/>
    </clipPath>
    <clipPath id="clip-path-13">
      <rect id="Rectángulo_334978" data-name="Rectángulo 334978" width="3.078" height="1.695" fill="none"/>
    </clipPath>
    <clipPath id="clip-path-14">
      <rect id="Rectángulo_334979" data-name="Rectángulo 334979" width="10.007" height="12.395" fill="none"/>
    </clipPath>
    <clipPath id="clip-path-15">
      <rect id="Rectángulo_334980" data-name="Rectángulo 334980" width="7.371" height="7.136" fill="none"/>
    </clipPath>
    <clipPath id="clip-path-16">
      <rect id="Rectángulo_334981" data-name="Rectángulo 334981" width="8.146" height="3.923" fill="none"/>
    </clipPath>
    <clipPath id="clip-path-17">
      <rect id="Rectángulo_334982" data-name="Rectángulo 334982" width="3.676" height="4.176" fill="none"/>
    </clipPath>
    <clipPath id="clip-path-18">
      <rect id="Rectángulo_334983" data-name="Rectángulo 334983" width="2.153" height="2.737" fill="none"/>
    </clipPath>
    <clipPath id="clip-path-20">
      <rect id="Rectángulo_334985" data-name="Rectángulo 334985" width="80.628" height="81.414" fill="none"/>
    </clipPath>
  </defs>
  <g id="Grupo_927249" data-name="Grupo 927249" clip-path="url(#clip-path)">
    <g id="Grupo_927191" data-name="Grupo 927191">
      <g id="Grupo_927190-2" data-name="Grupo 927190" clip-path="url(#clip-path)">
        <path id="Trazado_640793" data-name="Trazado 640793" d="M423.834,286.383c-4.444-2.292-9.676-2.591-14.609-1.776-2.651.438-5.414,1.232-7.217,3.222s-2.145,5.494-.074,7.2a6.916,6.916,0,0,0,4.55,1.154c3.862-.045,8.147-.725,11.232,1.6,1.76,1.325,2.931,3.529,5.036,4.181a4.977,4.977,0,0,0,5.475-2.435,8.507,8.507,0,0,0,.619-6.275,9.582,9.582,0,0,0-5.012-6.875" transform="translate(-400.515 -95.199)" fill="#ebebeb"/>
        <path id="Trazado_640794" data-name="Trazado 640794" d="M407.508,237.632c-2.717,3.88-8,2.6-10.447.227s-3.483-5.8-4.426-9.076c-2.152-7.48-4.323-15.327-2.722-22.945a12.755,12.755,0,0,1,2.93-6.238,6.66,6.66,0,0,1,6.311-2.1c2.663.7,4.318,3.311,5.514,5.792a54.689,54.689,0,0,1,5.4,23.472c.013,3.781-.432,7.746-2.565,10.867" transform="translate(-374.008 -66.1)" fill="#ebebeb"/>
        <path id="Trazado_640795" data-name="Trazado 640795" d="M337.809,249.49c-2.95-3.5-3.51-8.608-2.2-12.995s4.279-8.118,7.7-11.164A41.425,41.425,0,0,1,357.09,217.2a14.7,14.7,0,0,1,6.2-1.053,6.506,6.506,0,0,1,5.2,3.147c1.45,2.767.06,6.122-1.444,8.859a104.961,104.961,0,0,1-9.052,13.785c-2.713,3.5-5.821,6.948-9.956,8.529s-8.43,1.395-10.622-1.473" transform="translate(-296.847 -72.39)" fill="#ebebeb"/>
        <path id="Trazado_640796" data-name="Trazado 640796" d="M413.148,327.986a8.426,8.426,0,0,1-.246-1.764c-.124-1.283-.281-2.895-.468-4.812a69.478,69.478,0,0,0-1.083-7.059,54.474,54.474,0,0,0-2.566-8.331,30.716,30.716,0,0,0-4.254-7.539,15.89,15.89,0,0,0-5.379-4.472,15.05,15.05,0,0,0-4.529-1.41,8.471,8.471,0,0,1-1.756-.255,8.33,8.33,0,0,1,1.787-.027,13.727,13.727,0,0,1,4.723,1.229,15.857,15.857,0,0,1,5.673,4.51,30,30,0,0,1,4.41,7.69,50.908,50.908,0,0,1,2.548,8.468,59.729,59.729,0,0,1,.938,7.148c.153,2.044.211,3.7.239,4.842a8.3,8.3,0,0,1-.037,1.781" transform="translate(-379.464 -97.914)" fill="#e0e0e0"/>
        <path id="Trazado_640797" data-name="Trazado 640797" d="M401.881,300.324a3.479,3.479,0,0,1-.047-.819c0-.614,0-1.389.006-2.34.006-2.031,0-4.97-.1-8.6-.18-7.257-.8-15.067-2.011-26.08-1.143-10.354-2.677-22.4-4.3-30.239-.347-1.782-.7-3.386-1.025-4.789-.314-1.407-.582-2.621-.841-3.6l-.547-2.274a3.489,3.489,0,0,1-.144-.807,3.424,3.424,0,0,1,.285.767l.679,2.242c.3.973.611,2.178.963,3.58s.753,3,1.133,4.777a265.4,265.4,0,0,1,4.516,28.059c1.21,11.035,1.754,21.082,1.8,28.358.043,3.638-.034,6.582-.127,8.614-.058.95-.105,1.724-.143,2.339a3.448,3.448,0,0,1-.1.813" transform="translate(-368.528 -73.955)" fill="#e0e0e0"/>
        <path id="Trazado_640798" data-name="Trazado 640798" d="M354.566,283.93a15.527,15.527,0,0,1,.017-2.445c.09-1.57.306-3.841.748-6.622a87.448,87.448,0,0,1,2.154-9.648A78.912,78.912,0,0,1,361.52,253.8a60.817,60.817,0,0,1,11.848-18.45,30.09,30.09,0,0,1,2.788-2.591c.428-.361.805-.722,1.19-1.008l1.081-.745a15.571,15.571,0,0,1,2.058-1.317c.117.159-2.915,1.943-6.745,6.017a64.076,64.076,0,0,0-11.553,18.383,90.34,90.34,0,0,0-4.057,11.312,98.019,98.019,0,0,0-2.292,9.552c-.5,2.753-.8,5-.974,6.557a15.762,15.762,0,0,1-.3,2.421" transform="translate(-321.262 -76.939)" fill="#e0e0e0"/>
        <path id="Trazado_640799" data-name="Trazado 640799" d="M403.408,362.655l-1.942,26.6H367.291l-1.942-26.6Z" transform="translate(-351.374 -121.481)" fill="#e0e0e0"/>
        <rect id="Rectángulo_334958" data-name="Rectángulo 334958" width="45.438" height="10.485" transform="translate(9.898 230.689)" fill="#e0e0e0"/>
        <path id="Trazado_640800" data-name="Trazado 640800" d="M405.072,401.127v2.907H360.385v-2.907Z" transform="translate(-349.737 -134.368)" fill="#ebebeb"/>
        <path id="Trazado_640801" data-name="Trazado 640801" d="M402.427,410.613l2.093-5.115H363.6l2.441,5.115Z" transform="translate(-351.319 -135.832)" fill="#e0e0e0"/>
        <path id="Trazado_640802" data-name="Trazado 640802" d="M366.215,373.847a1.077,1.077,0,0,0,.16.244l.51.678,1.991,2.548.088.113.086-.118,4.891-6.765h-.281l4.815,6.819.151.214.169-.2,5.711-6.795-.329,0,.314.4,5.107,6.4.17.213.157-.222,4.818-6.817-.28.013,5.933,6.761.105.12.08-.135,1.858-3.122.477-.831a1.392,1.392,0,0,0,.146-.3,1.314,1.314,0,0,0-.2.263l-.527.8-1.951,3.064.186-.015-5.838-6.842-.147-.173-.133.186-4.861,6.786.327-.009-5.095-6.412-.314-.4-.162-.2-.167.2-5.7,6.808.32.013-4.864-6.784-.142-.2-.139.2-4.788,6.838.174,0-2.071-2.483-.555-.642c-.128-.143-.2-.213-.2-.207" transform="translate(-351.605 -123.978)" fill="#f5f5f5"/>
        <path id="Trazado_640803" data-name="Trazado 640803" d="M365.776,362.284c0,.118,8.564.213,19.124.213s19.126-.1,19.126-.213-8.561-.213-19.126-.213-19.124.1-19.124.213" transform="translate(-352.276 -121.285)" fill="#f5f5f5"/>
        <path id="Trazado_640804" data-name="Trazado 640804" d="M363.379,405.821c0,.118,9.306.213,20.784.213s20.787-.1,20.787-.213-9.305-.213-20.787-.213-20.784.1-20.784.213" transform="translate(-351.605 -135.869)" fill="#f5f5f5"/>
        <rect id="Rectángulo_334959" data-name="Rectángulo 334959" width="82.874" height="86.389" transform="translate(1.328 3.289)" fill="#e0e0e0"/>
        <rect id="Rectángulo_334960" data-name="Rectángulo 334960" width="82.874" height="86.389" transform="translate(6.94 3.289)" fill="#fafafa"/>
        <path id="Trazado_640805" data-name="Trazado 640805" d="M308.5,91.348h82.925V4.908H308.5Zm82.874-.052H308.551V4.959h82.823Z" transform="translate(-301.585 -1.644)" fill="#e0e0e0"/>
        <rect id="Rectángulo_334961" data-name="Rectángulo 334961" width="60.593" height="63.163" transform="translate(18.081 14.903)" fill="#fafafa"/>
        <path id="Trazado_640806" data-name="Trazado 640806" d="M308.663,118.017a9.873,9.873,0,0,0,1.495,1.738c.968,1.021,2.328,2.4,3.852,3.905s2.925,2.839,3.958,3.789a9.655,9.655,0,0,0,1.752,1.459,9.629,9.629,0,0,0-1.488-1.732c-.968-1.021-2.331-2.407-3.86-3.912s-2.933-2.846-3.966-3.8a9.451,9.451,0,0,0-1.743-1.451" transform="translate(-229.989 -39.532)" fill="#e0e0e0"/>
        <path id="Trazado_640807" data-name="Trazado 640807" d="M427.294,117.785a9.869,9.869,0,0,0-1.738,1.495c-1.021.968-2.4,2.328-3.905,3.852s-2.84,2.925-3.789,3.958a9.668,9.668,0,0,0-1.458,1.752,9.689,9.689,0,0,0,1.731-1.487c1.021-.968,2.407-2.332,3.913-3.86s2.846-2.933,3.8-3.966a9.481,9.481,0,0,0,1.452-1.743" transform="translate(-409.213 -39.454)" fill="#e0e0e0"/>
        <path id="Trazado_640808" data-name="Trazado 640808" d="M427.211,17.174a9.863,9.863,0,0,0-1.5-1.738c-.968-1.021-2.327-2.4-3.851-3.9s-2.925-2.84-3.959-3.79a9.649,9.649,0,0,0-1.751-1.458,9.63,9.63,0,0,0,1.487,1.731c.968,1.021,2.332,2.407,3.86,3.913s2.933,2.846,3.966,3.8a9.449,9.449,0,0,0,1.743,1.451" transform="translate(-408.964 -2.104)" fill="#e0e0e0"/>
        <path id="Trazado_640809" data-name="Trazado 640809" d="M308.664,17.324a9.9,9.9,0,0,0,1.738-1.495c1.021-.968,2.4-2.328,3.905-3.852s2.84-2.925,3.789-3.959a9.6,9.6,0,0,0,1.458-1.751,9.648,9.648,0,0,0-1.731,1.487c-1.021.968-2.406,2.332-3.912,3.86s-2.846,2.933-3.8,3.966a9.451,9.451,0,0,0-1.451,1.743" transform="translate(-229.824 -2.098)" fill="#e0e0e0"/>
        <path id="Trazado_640810" data-name="Trazado 640810" d="M325.121,85.437a2.883,2.883,0,0,0,.013-.307c0-.215.007-.506.013-.882.007-.792.015-1.931.027-3.41.014-2.992.035-7.345.061-12.873.029-11.063.069-26.822.119-45.692l-.234.233,60.421.035h.006l-.268-.268c.014,23.183.027,44.872.038,63.163l.23-.23-43.753.118-12.29.06-3.251.027-.84.013a2.754,2.754,0,0,0-.293.013,1.879,1.879,0,0,0,.267.013l.816.013,3.207.027,12.237.061,43.9.118h.231v-.231c.011-18.291.024-39.979.038-63.163v-.268h-.275l-60.421.034h-.234v.234c.049,18.932.09,34.743.119,45.841.027,5.505.047,9.84.061,12.82.012,1.46.021,2.584.027,3.365.006.365.01.647.013.856a2.073,2.073,0,0,0,.013.281" transform="translate(-306.874 -7.371)" fill="#e0e0e0"/>
        <rect id="Rectángulo_334962" data-name="Rectángulo 334962" width="20.219" height="20.219" transform="translate(38.268 36.375)" fill="#ebebeb"/>
        <rect id="Rectángulo_334963" data-name="Rectángulo 334963" width="156.184" height="4.945" transform="translate(138.816 106.309)" fill="#e0e0e0"/>
        <rect id="Rectángulo_334964" data-name="Rectángulo 334964" width="7.908" height="15.661" transform="translate(260.717 108.783)" fill="#e0e0e0"/>
        <rect id="Rectángulo_334965" data-name="Rectángulo 334965" width="7.908" height="18.134" transform="translate(166.947 106.31)" fill="#e0e0e0"/>
        <path id="Trazado_640811" data-name="Trazado 640811" d="M75.99,109.9l-5.113,33.6H41.171l-6.895-33.116Z" transform="translate(196.216 -36.813)" fill="#ebebeb"/>
        <path id="Trazado_640812" data-name="Trazado 640812" d="M39.629,142.192c0,.1,7.612.174,17,.174s17-.078,17-.174-7.611-.174-17-.174-17,.078-17,.174" transform="translate(195.017 -47.573)" fill="#fafafa"/>
        <path id="Trazado_640813" data-name="Trazado 640813" d="M39.456,139.707c0,.1,7.663.174,17.114.174s17.116-.078,17.116-.174-7.662-.174-17.116-.174-17.114.078-17.114.174" transform="translate(195.075 -46.74)" fill="#fafafa"/>
        <path id="Trazado_640814" data-name="Trazado 640814" d="M39.367,136.9c0,.1,7.663.174,17.114.174S73.6,137,73.6,136.9s-7.662-.174-17.116-.174-17.114.078-17.114.174" transform="translate(195.222 -45.8)" fill="#fafafa"/>
        <path id="Trazado_640815" data-name="Trazado 640815" d="M44.863,153.25a26.963,26.963,0,0,0,.911-4.231,26.914,26.914,0,0,0,.567-4.29,27.01,27.01,0,0,0-.911,4.231,27,27,0,0,0-.567,4.29" transform="translate(218.817 -48.481)" fill="#fafafa"/>
        <path id="Trazado_640816" data-name="Trazado 640816" d="M49.324,152.841a32.779,32.779,0,0,0,.368-4.128,32.771,32.771,0,0,0,.194-4.14,19.966,19.966,0,0,0-.541,4.117,19.959,19.959,0,0,0-.021,4.151" transform="translate(212.336 -48.428)" fill="#fafafa"/>
        <path id="Trazado_640817" data-name="Trazado 640817" d="M54.124,152.707a20.709,20.709,0,0,0,.773-4.232,20.692,20.692,0,0,0,.226-4.3,37.3,37.3,0,0,0-.573,4.257,37.137,37.137,0,0,0-.426,4.273" transform="translate(203.853 -48.296)" fill="#fafafa"/>
        <path id="Trazado_640818" data-name="Trazado 640818" d="M58.947,152.929a21.091,21.091,0,0,0,.412-4.3,21.058,21.058,0,0,0-.132-4.318,37.14,37.14,0,0,0-.217,4.307,37.1,37.1,0,0,0-.063,4.312" transform="translate(196.444 -48.34)" fill="#fafafa"/>
        <path id="Trazado_640819" data-name="Trazado 640819" d="M65.985,152.887a24.123,24.123,0,0,0,.313-4.081,24.108,24.108,0,0,0-.036-4.094,24.125,24.125,0,0,0-.313,4.082,24.1,24.1,0,0,0,.036,4.093" transform="translate(184.829 -48.475)" fill="#fafafa"/>
        <path id="Trazado_640820" data-name="Trazado 640820" d="M71.466,153.018a25.7,25.7,0,0,0,.14-4.222,25.813,25.813,0,0,0-.209-4.22,25.714,25.714,0,0,0-.14,4.223,25.721,25.721,0,0,0,.209,4.22" transform="translate(176.005 -48.43)" fill="#fafafa"/>
        <path id="Trazado_640821" data-name="Trazado 640821" d="M77.019,152.168a28.08,28.08,0,0,0-.253-4.412,28.127,28.127,0,0,0-.6-4.38,28.091,28.091,0,0,0,.253,4.413,28.09,28.09,0,0,0,.6,4.378" transform="translate(167.317 -48.028)" fill="#fafafa"/>
        <path id="Trazado_640822" data-name="Trazado 640822" d="M83.839,152.22a23.176,23.176,0,0,0-1.6-7.374,33.406,33.406,0,0,0,.764,3.7,33.258,33.258,0,0,0,.841,3.678" transform="translate(156.456 -48.52)" fill="#fafafa"/>
        <path id="Trazado_640823" data-name="Trazado 640823" d="M66.2,10.2a.681.681,0,0,0,.036.166l.139.475.565,1.814c.254.784.558,1.746.872,2.875s.718,2.4,1.071,3.831c.378,1.425.785,2.987,1.157,4.679.413,1.684.759,3.5,1.146,5.412.712,3.83,1.362,8.065,1.82,12.538.434,4.477.635,8.758.695,12.655,0,1.948.017,3.8-.054,5.532-.031,1.732-.122,3.344-.21,4.815-.065,1.473-.2,2.8-.294,3.967s-.192,2.171-.287,2.99c-.082.8-.148,1.43-.2,1.889-.017.2-.03.361-.042.493a.716.716,0,0,0,0,.17.589.589,0,0,0,.038-.165c.021-.13.045-.291.077-.488.063-.458.15-1.087.261-1.883.114-.817.241-1.82.345-2.987s.266-2.494.346-3.97c.1-1.472.209-3.086.253-4.823.084-1.735.075-3.59.086-5.543-.041-3.905-.233-8.2-.668-12.687-.461-4.484-1.121-8.729-1.853-12.565-.4-1.912-.753-3.733-1.178-5.417-.386-1.693-.809-3.255-1.2-4.678-.37-1.43-.784-2.7-1.123-3.823s-.655-2.082-.929-2.86c-.265-.759-.475-1.358-.627-1.794-.07-.188-.126-.34-.172-.464a.577.577,0,0,0-.07-.154" transform="translate(176.957 -3.416)" fill="#ebebeb"/>
        <path id="Trazado_640824" data-name="Trazado 640824" d="M77.122,38.241A11.029,11.029,0,0,0,72.5,32.408a2.642,2.642,0,0,0-2.443-.448c-1.036.5-1.12,1.959-.811,3.068a8.125,8.125,0,0,0,3.362,4.582,6.856,6.856,0,0,0,5.046,1.273" transform="translate(171.395 -10.654)" fill="#ebebeb"/>
        <path id="Trazado_640825" data-name="Trazado 640825" d="M75.183,57.809c-.767-2.9-3.08-7.023-5.483-8.818a3.535,3.535,0,0,0-1.247-.664,1.45,1.45,0,0,0-1.333.289,2.045,2.045,0,0,0-.3,1.925,11.692,11.692,0,0,0,8.667,8.725" transform="translate(175.138 -16.172)" fill="#ebebeb"/>
        <path id="Trazado_640826" data-name="Trazado 640826" d="M75.342,77.345a16.973,16.973,0,0,0-5.532-6.957,2.639,2.639,0,0,0-1.931-.688c-1.049.19-1.526,1.472-1.433,2.534.192,2.187,1.862,3.941,3.586,5.3a22.243,22.243,0,0,0,5.117,2.63" transform="translate(175.478 -23.34)" fill="#ebebeb"/>
        <path id="Trazado_640827" data-name="Trazado 640827" d="M74.559,91.548a16.336,16.336,0,0,0-4.706-5.359,3.416,3.416,0,0,0-1.413-.633,1.442,1.442,0,0,0-1.386.527c-.472.693-.022,1.63.484,2.3a13.42,13.42,0,0,0,6.716,4.927" transform="translate(175.981 -28.654)" fill="#ebebeb"/>
        <path id="Trazado_640828" data-name="Trazado 640828" d="M53.667,85.415A52.416,52.416,0,0,1,60.4,78.559c.382-.323.865-.662,1.341-.507a1,1,0,0,1,.618.905A2.552,2.552,0,0,1,62.1,80.08a13.049,13.049,0,0,1-8.666,7.291" transform="translate(197.105 -26.132)" fill="#ebebeb"/>
        <path id="Trazado_640829" data-name="Trazado 640829" d="M51.754,67.513l5.288-6.446a6.4,6.4,0,0,1,1.716-1.628,2.172,2.172,0,0,1,2.256-.027,2.138,2.138,0,0,1,.724,2.129,5.6,5.6,0,0,1-1.032,2.117,15.689,15.689,0,0,1-3.852,4.093,6.443,6.443,0,0,1-4.827,1.488" transform="translate(198.803 -19.8)" fill="#ebebeb"/>
        <path id="Trazado_640830" data-name="Trazado 640830" d="M53.928,47.716a18.434,18.434,0,0,1,5.321-7.988,3.109,3.109,0,0,1,1.387-.809,2.331,2.331,0,0,1,2.425,1.7,4.367,4.367,0,0,1-.483,3.5,9.22,9.22,0,0,1-2.485,2.628,21.326,21.326,0,0,1-5.882,3.176" transform="translate(195.894 -13.027)" fill="#ebebeb"/>
        <path id="Trazado_640831" data-name="Trazado 640831" d="M59.154,29.119c.512-3.737,2.457-6.846,4.711-9.87.475-.637,1.138-1.313,1.924-1.194a1.524,1.524,0,0,1,1.1.948A3.566,3.566,0,0,1,67.1,20.5a11.544,11.544,0,0,1-7.491,10.312" transform="translate(188.556 -6.043)" fill="#ebebeb"/>
        <path id="Trazado_640832" data-name="Trazado 640832" d="M79.746,19.306a30.876,30.876,0,0,0,.194-5.778,10.338,10.338,0,0,0-1.919-5.381A4.436,4.436,0,0,0,76.1,6.616a2.423,2.423,0,0,0-2.355.313A2.562,2.562,0,0,0,72.939,9a6.525,6.525,0,0,0,.6,2.214c1.409,3.389,3.758,7.142,6.211,8.09" transform="translate(166.485 -2.16)" fill="#ebebeb"/>
        <path id="Trazado_640833" data-name="Trazado 640833" d="M47.988,32.478a2.416,2.416,0,0,0-.029.474c0,.344-.009.8-.015,1.356,0,.589,0,1.309-.034,2.145s-.033,1.788-.1,2.838c-.092,2.1-.3,4.6-.614,7.362-.342,2.759-.813,5.781-1.463,8.924-.667,3.14-1.45,6.1-2.246,8.762-.819,2.657-1.635,5.027-2.4,6.989-.358.99-.736,1.863-1.046,2.639s-.593,1.438-.831,1.977l-.531,1.248a2.428,2.428,0,0,0-.164.445,2.322,2.322,0,0,0,.227-.416q.226-.466.591-1.222c.257-.531.562-1.185.887-1.957s.722-1.639,1.1-2.626c.792-1.955,1.636-4.323,2.473-6.985.815-2.668,1.611-5.633,2.281-8.784.652-3.154,1.115-6.188,1.44-8.958.3-2.773.481-5.281.542-7.389.053-1.053.042-2.008.051-2.845s0-1.559-.025-2.149c-.021-.561-.038-1.011-.051-1.357a2.416,2.416,0,0,0-.041-.472" transform="translate(221.277 -10.879)" fill="#e0e0e0"/>
        <path id="Trazado_640834" data-name="Trazado 640834" d="M44.615,52.588a7.875,7.875,0,0,0-1.888-4.966,1.888,1.888,0,0,0-1.567-.831c-.814.118-1.184,1.093-1.213,1.915a5.8,5.8,0,0,0,1.3,3.843A4.9,4.9,0,0,0,44.412,54.5" transform="translate(223.821 -15.67)" fill="#e0e0e0"/>
        <path id="Trazado_640835" data-name="Trazado 640835" d="M46.79,66.412a13.28,13.28,0,0,0-1.835-7.184,2.514,2.514,0,0,0-.706-.72,1.033,1.033,0,0,0-.97-.091,1.46,1.46,0,0,0-.618,1.246,8.349,8.349,0,0,0,4.023,7.806" transform="translate(219.851 -19.54)" fill="#e0e0e0"/>
        <path id="Trazado_640836" data-name="Trazado 640836" d="M51.176,79.868a12.126,12.126,0,0,0-2.269-5.927,1.887,1.887,0,0,0-1.166-.884c-.755-.1-1.356.674-1.522,1.417a5.855,5.855,0,0,0,1.3,4.381,15.889,15.889,0,0,0,2.918,2.892" transform="translate(213.141 -24.47)" fill="#e0e0e0"/>
        <path id="Trazado_640837" data-name="Trazado 640837" d="M53.568,89.537a11.671,11.671,0,0,0-2.051-4.662,2.429,2.429,0,0,0-.825-.734,1.028,1.028,0,0,0-1.057.06c-.47.371-.366,1.105-.166,1.669a9.577,9.577,0,0,0,3.512,4.8" transform="translate(208.647 -28.146)" fill="#e0e0e0"/>
        <path id="Trazado_640838" data-name="Trazado 640838" d="M37.45,86.988a37.51,37.51,0,0,1,6.058-3.219,1.082,1.082,0,0,1,1.023-.057.716.716,0,0,1,.225.749,1.812,1.812,0,0,1-.416.71,9.314,9.314,0,0,1-7.468,3.1" transform="translate(225.7 -28.005)" fill="#e0e0e0"/>
        <path id="Trazado_640839" data-name="Trazado 640839" d="M32.088,74.75,37.075,71.5a4.556,4.556,0,0,1,1.518-.739,1.549,1.549,0,0,1,1.542.468,1.527,1.527,0,0,1,.035,1.6,3.994,3.994,0,0,1-1.158,1.22,11.2,11.2,0,0,1-3.5,1.958,4.6,4.6,0,0,1-3.607-.027" transform="translate(233.406 -23.69)" fill="#e0e0e0"/>
        <path id="Trazado_640840" data-name="Trazado 640840" d="M29.543,60.913a13.162,13.162,0,0,1,5.342-4.293A2.215,2.215,0,0,1,36,56.368a1.664,1.664,0,0,1,1.285,1.682,3.117,3.117,0,0,1-1.082,2.279,6.6,6.6,0,0,1-2.258,1.254,15.214,15.214,0,0,1-4.688.9" transform="translate(238.254 -18.879)" fill="#e0e0e0"/>
        <path id="Trazado_640841" data-name="Trazado 640841" d="M28.153,47.513a15.4,15.4,0,0,1,5.332-5.706,1.616,1.616,0,0,1,1.567-.4,1.088,1.088,0,0,1,.547.883,2.529,2.529,0,0,1-.179,1.061,8.242,8.242,0,0,1-7.32,5.409" transform="translate(240.705 -13.84)" fill="#e0e0e0"/>
        <path id="Trazado_640842" data-name="Trazado 640842" d="M39.039,39.135a22.054,22.054,0,0,0,1.375-3.892,7.377,7.377,0,0,0-.148-4.077,3.173,3.173,0,0,0-.978-1.456,1.734,1.734,0,0,0-1.671-.294,1.829,1.829,0,0,0-.995,1.238,4.653,4.653,0,0,0-.071,1.635c.229,2.611,1.021,5.671,2.487,6.845" transform="translate(230.088 -9.819)" fill="#e0e0e0"/>
        <path id="Trazado_640843" data-name="Trazado 640843" d="M81.051,31.988a2.416,2.416,0,0,0-.041.472c-.013.345-.029.8-.051,1.357-.022.589-.039,1.311-.025,2.148s0,1.792.051,2.846c.06,2.109.239,4.616.541,7.389.326,2.77.788,5.8,1.44,8.958.67,3.151,1.466,6.116,2.281,8.784.837,2.661,1.681,5.03,2.473,6.985.374.986.768,1.855,1.1,2.626s.63,1.426.887,1.957l.591,1.222a2.343,2.343,0,0,0,.228.416,2.462,2.462,0,0,0-.164-.446l-.531-1.248c-.238-.539-.524-1.2-.831-1.977s-.688-1.65-1.046-2.639c-.761-1.962-1.577-4.331-2.4-6.989-.8-2.665-1.579-5.622-2.246-8.762-.65-3.143-1.121-6.165-1.463-8.924-.319-2.763-.523-5.26-.614-7.362-.069-1.05-.075-2-.1-2.838s-.035-1.556-.033-2.145c-.007-.561-.011-1.011-.015-1.357a2.411,2.411,0,0,0-.029-.473" transform="translate(150.656 -10.715)" fill="#ebebeb"/>
        <path id="Trazado_640844" data-name="Trazado 640844" d="M86.9,52.1a7.878,7.878,0,0,1,1.889-4.966,1.888,1.888,0,0,1,1.567-.831c.813.118,1.184,1.093,1.212,1.914a5.8,5.8,0,0,1-1.3,3.844,4.9,4.9,0,0,1-3.162,1.953" transform="translate(145.632 -15.506)" fill="#ebebeb"/>
        <path id="Trazado_640845" data-name="Trazado 640845" d="M84.982,65.922a13.276,13.276,0,0,1,1.835-7.184,2.522,2.522,0,0,1,.706-.72,1.033,1.033,0,0,1,.97-.091,1.46,1.46,0,0,1,.617,1.246,8.348,8.348,0,0,1-4.023,7.806" transform="translate(149.349 -19.376)" fill="#ebebeb"/>
        <path id="Trazado_640846" data-name="Trazado 640846" d="M80.157,79.379a12.119,12.119,0,0,1,2.269-5.927,1.884,1.884,0,0,1,1.166-.883c.755-.1,1.356.673,1.522,1.417a5.855,5.855,0,0,1-1.3,4.381,15.889,15.889,0,0,1-2.918,2.892" transform="translate(156.497 -24.306)" fill="#ebebeb"/>
        <path id="Trazado_640847" data-name="Trazado 640847" d="M78.154,89.047A11.671,11.671,0,0,1,80.2,84.385a2.438,2.438,0,0,1,.825-.735,1.028,1.028,0,0,1,1.057.061c.47.37.366,1.1.166,1.669a9.584,9.584,0,0,1-3.512,4.8" transform="translate(160.605 -27.982)" fill="#ebebeb"/>
        <path id="Trazado_640848" data-name="Trazado 640848" d="M92.437,86.5a37.482,37.482,0,0,0-6.058-3.219,1.081,1.081,0,0,0-1.022-.057.716.716,0,0,0-.225.749,1.82,1.82,0,0,0,.416.71,9.316,9.316,0,0,0,7.469,3.1" transform="translate(145.385 -27.84)" fill="#ebebeb"/>
        <path id="Trazado_640849" data-name="Trazado 640849" d="M97.513,74.26l-4.988-3.251a4.561,4.561,0,0,0-1.518-.739,1.55,1.55,0,0,0-1.542.467,1.526,1.526,0,0,0-.035,1.6,3.988,3.988,0,0,0,1.158,1.22,11.214,11.214,0,0,0,3.5,1.958,4.6,4.6,0,0,0,3.607-.027" transform="translate(137.965 -23.526)" fill="#ebebeb"/>
        <path id="Trazado_640850" data-name="Trazado 640850" d="M100.285,60.423a13.162,13.162,0,0,0-5.342-4.293,2.215,2.215,0,0,0-1.118-.252A1.664,1.664,0,0,0,92.54,57.56a3.117,3.117,0,0,0,1.082,2.279,6.593,6.593,0,0,0,2.258,1.254,15.21,15.21,0,0,0,4.688.9" transform="translate(132.89 -18.715)" fill="#ebebeb"/>
        <path id="Trazado_640851" data-name="Trazado 640851" d="M101.937,47.023a15.4,15.4,0,0,0-5.332-5.706,1.616,1.616,0,0,0-1.567-.4,1.09,1.09,0,0,0-.548.883,2.53,2.53,0,0,0,.18,1.061,8.243,8.243,0,0,0,7.32,5.409" transform="translate(130.177 -13.676)" fill="#ebebeb"/>
        <path id="Trazado_640852" data-name="Trazado 640852" d="M92.76,38.645a21.948,21.948,0,0,1-1.375-3.892,7.377,7.377,0,0,1,.148-4.077,3.168,3.168,0,0,1,.978-1.456,1.732,1.732,0,0,1,1.671-.294,1.828,1.828,0,0,1,1,1.238,4.653,4.653,0,0,1,.071,1.635c-.229,2.611-1.021,5.671-2.487,6.845" transform="translate(139.084 -9.655)" fill="#ebebeb"/>
        <path id="Trazado_640853" data-name="Trazado 640853" d="M77.117,99.893v6.287a2.475,2.475,0,0,1-2.475,2.476H31.625a2.475,2.475,0,0,1-2.475-2.476V99.893Z" transform="translate(198.498 -33.462)" fill="#ebebeb"/>
        <path id="Trazado_640854" data-name="Trazado 640854" d="M75.813,113.07l-.357,2L35.764,117.9l-1.006-4.83Z" transform="translate(196.072 -37.876)" fill="#e0e0e0"/>
        <path id="Trazado_640855" data-name="Trazado 640855" d="M190.649,92.95s7.13,5.433.3,12.61a.62.62,0,0,1-.452.191l-62.3-.363s-5.32-5.967-.906-12.843Z" transform="translate(17.604 -31)" fill="#ebebeb"/>
        <path id="Trazado_640856" data-name="Trazado 640856" d="M151.541,101.617c0,.069,7.758.126,17.325.126s17.327-.057,17.327-.126-7.756-.126-17.327-.126-17.325.057-17.325.126" transform="translate(8.029 -33.997)" fill="#e0e0e0"/>
        <path id="Trazado_640857" data-name="Trazado 640857" d="M164.579,105.006c0,.069,3.647.126,8.145.126s8.146-.057,8.146-.126-3.646-.126-8.146-.126-8.145.057-8.145.126" transform="translate(4.681 -35.132)" fill="#e0e0e0"/>
        <path id="Trazado_640858" data-name="Trazado 640858" d="M213.977,105.1c.041-.011-.137-.716-.33-1.869a25.816,25.816,0,0,1,.086-9.084c.215-1.15.406-1.851.365-1.863a1.989,1.989,0,0,0-.181.479c-.1.313-.228.773-.358,1.347a22.078,22.078,0,0,0-.086,9.152c.119.577.235,1.039.333,1.354a2.005,2.005,0,0,0,.172.483" transform="translate(-60.776 -30.913)" fill="#e0e0e0"/>
        <path id="Trazado_640859" data-name="Trazado 640859" d="M221.948,92.427a2.153,2.153,0,0,0-.277.453,5.323,5.323,0,0,0-.277.558c-.1.222-.22.472-.318.762a13.27,13.27,0,0,0-.593,2.067,13.89,13.89,0,0,0-.043,5.248,13.294,13.294,0,0,0,.56,2.077c.093.291.212.543.305.767a5.375,5.375,0,0,0,.268.563,2.167,2.167,0,0,0,.27.457c.043-.021-.3-.692-.675-1.843a15.073,15.073,0,0,1-.5-2.06,14.854,14.854,0,0,1,.041-5.164,15.025,15.025,0,0,1,.533-2.051c.389-1.145.747-1.811.7-1.833" transform="translate(-73.398 -30.961)" fill="#e0e0e0"/>
        <path id="Trazado_640860" data-name="Trazado 640860" d="M142.738,105.533a1.953,1.953,0,0,0,.29-.416,4.4,4.4,0,0,0,.291-.52,7.175,7.175,0,0,0,.332-.716,10.887,10.887,0,0,0,.608-1.965,11.559,11.559,0,0,0-.067-5.012,10.891,10.891,0,0,0-.66-1.949,7.356,7.356,0,0,0-.352-.707,4.387,4.387,0,0,0-.305-.512,1.943,1.943,0,0,0-.3-.408c-.043.026.358.628.795,1.7a12.14,12.14,0,0,1,.6,1.93,12.19,12.19,0,0,1,.066,4.916,12.142,12.142,0,0,1-.545,1.945c-.408,1.08-.792,1.692-.749,1.718" transform="translate(55.686 -31.262)" fill="#e0e0e0"/>
        <path id="Trazado_640861" data-name="Trazado 640861" d="M131.97,107a2.482,2.482,0,0,0,.321-.472,5.525,5.525,0,0,0,.325-.585,8.871,8.871,0,0,0,.376-.8,13.181,13.181,0,0,0,.714-2.2,13.9,13.9,0,0,0,.125-5.635,13.311,13.311,0,0,0-.615-2.229c-.1-.313-.237-.58-.341-.819a5.323,5.323,0,0,0-.3-.6,2.451,2.451,0,0,0-.3-.485c-.045.023.354.732.771,1.963a14.528,14.528,0,0,1,.555,2.21,14.69,14.69,0,0,1-.122,5.544,14.636,14.636,0,0,1-.652,2.183c-.471,1.212-.9,1.9-.857,1.928" transform="translate(73.18 -31.211)" fill="#e0e0e0"/>
        <rect id="Rectángulo_334966" data-name="Rectángulo 334966" width="23.069" height="11.922" transform="translate(148.087 93.36)" fill="#ebebeb"/>
        <path id="Trazado_640862" data-name="Trazado 640862" d="M184.454,145.82c0,.105-.009.21-.014.316a6.83,6.83,0,0,1-6.862,6.4h-68.7v-.862h16.31a5.961,5.961,0,0,0,0-11.922h-16.31v-1.267l68.724.232a6.874,6.874,0,0,1,6.856,7.106" transform="translate(38.137 -46.388)" fill="#e0e0e0"/>
        <path id="Trazado_640863" data-name="Trazado 640863" d="M189.055,149.526c0,.069,4.744.126,10.593.126s10.594-.057,10.594-.126-4.742-.126-10.594-.126-10.593.057-10.593.126" transform="translate(-40.969 -50.045)" fill="#e0e0e0"/>
        <path id="Trazado_640864" data-name="Trazado 640864" d="M190.266,153.566c0,.07,4.488.126,10.023.126s10.025-.056,10.025-.126-4.488-.126-10.025-.126-10.023.057-10.023.126" transform="translate(-41.845 -51.399)" fill="#e0e0e0"/>
        <path id="Trazado_640865" data-name="Trazado 640865" d="M193.811,157.26c0,.07,4.036.126,9.012.126s9.012-.056,9.012-.126-4.035-.126-9.012-.126-9.012.057-9.012.126" transform="translate(-45.725 -52.636)" fill="#e0e0e0"/>
        <path id="Trazado_640866" data-name="Trazado 640866" d="M189.708,145.9c0,.07,4.647.126,10.376.126s10.378-.056,10.378-.126-4.645-.126-10.378-.126-10.376.057-10.376.126" transform="translate(-41.622 -48.83)" fill="#e0e0e0"/>
        <path id="Trazado_640867" data-name="Trazado 640867" d="M192.635,142.267c0,.069,4.136.126,9.236.126s9.237-.057,9.237-.126-4.134-.126-9.237-.126-9.236.057-9.236.126" transform="translate(-44.214 -47.614)" fill="#e0e0e0"/>
        <path id="Trazado_640868" data-name="Trazado 640868" d="M116.631,139.131a15.212,15.212,0,0,1,1.46,1.736,8.829,8.829,0,0,1-.121,10.217,15.37,15.37,0,0,1-1.5,1.7,2.4,2.4,0,0,0,.5-.366,7.884,7.884,0,0,0,1.148-1.23,8.7,8.7,0,0,0,.123-10.424,7.837,7.837,0,0,0-1.119-1.256,2.382,2.382,0,0,0-.487-.378" transform="translate(97.636 -46.605)" fill="#f5f5f5"/>
        <path id="Trazado_640869" data-name="Trazado 640869" d="M113.138,138.748a15.211,15.211,0,0,1,1.46,1.736,8.829,8.829,0,0,1-.121,10.217,15.288,15.288,0,0,1-1.5,1.7,2.432,2.432,0,0,0,.5-.366,7.883,7.883,0,0,0,1.148-1.23,8.7,8.7,0,0,0,.123-10.424,7.838,7.838,0,0,0-1.119-1.256,2.382,2.382,0,0,0-.487-.378" transform="translate(103.452 -46.477)" fill="#f5f5f5"/>
        <path id="Trazado_640870" data-name="Trazado 640870" d="M183.334,139.131a15.3,15.3,0,0,1,1.46,1.736,8.829,8.829,0,0,1-.121,10.217,15.16,15.16,0,0,1-1.5,1.7,2.368,2.368,0,0,0,.5-.366,7.886,7.886,0,0,0,1.148-1.23,8.7,8.7,0,0,0,.123-10.424,7.836,7.836,0,0,0-1.119-1.256,2.4,2.4,0,0,0-.487-.378" transform="translate(-13.427 -46.605)" fill="#f5f5f5"/>
        <path id="Trazado_640871" data-name="Trazado 640871" d="M179.841,138.748a15.3,15.3,0,0,1,1.46,1.736,8.829,8.829,0,0,1-.121,10.217,15.374,15.374,0,0,1-1.5,1.7,2.433,2.433,0,0,0,.5-.366,7.883,7.883,0,0,0,1.148-1.23,8.7,8.7,0,0,0,.123-10.424,7.839,7.839,0,0,0-1.119-1.256,2.382,2.382,0,0,0-.487-.378" transform="translate(-7.61 -46.477)" fill="#f5f5f5"/>
        <path id="Trazado_640872" data-name="Trazado 640872" d="M127.729,148.537q.033-2.424.065-4.847a3.462,3.462,0,0,1,.171-1.249,1.177,1.177,0,0,1,.92-.777,1.845,1.845,0,0,1,1.978.937,4.6,4.6,0,0,1,.476,2.375,34.424,34.424,0,0,1-.186,3.83,4.421,4.421,0,0,1-.451,1.753,1.636,1.636,0,0,1-1.479.888,1.653,1.653,0,0,1-1.3-1.124,4.873,4.873,0,0,1-.2-1.787" transform="translate(78.719 -47.43)" fill="#f5f5f5"/>
        <path id="Trazado_640873" data-name="Trazado 640873" d="M139.919,149.877c0,.069,4.967.126,11.093.126s11.093-.057,11.093-.126-4.966-.126-11.093-.126-11.093.056-11.093.126" transform="translate(39.846 -50.163)" fill="#f5f5f5"/>
        <path id="Trazado_640874" data-name="Trazado 640874" d="M132.281,132.722l.127-11.3h-6.151l-.212,11.3Z" transform="translate(78.769 -40.674)" fill="#f5f5f5"/>
        <path id="Trazado_640875" data-name="Trazado 640875" d="M126.151,124.382a16.315,16.315,0,0,0,2.858.126,16.314,16.314,0,0,0,2.859-.126,16.394,16.394,0,0,0-2.859-.126,16.4,16.4,0,0,0-2.858.126" transform="translate(79.238 -41.623)" fill="#e0e0e0"/>
        <path id="Trazado_640876" data-name="Trazado 640876" d="M126.151,127a16.317,16.317,0,0,0,2.858.126,16.315,16.315,0,0,0,2.859-.126,16.391,16.391,0,0,0-2.859-.126,16.393,16.393,0,0,0-2.858.126" transform="translate(79.238 -42.501)" fill="#e0e0e0"/>
        <path id="Trazado_640877" data-name="Trazado 640877" d="M126.151,129.628a16.312,16.312,0,0,0,2.858.126,16.311,16.311,0,0,0,2.859-.126,16.4,16.4,0,0,0-2.859-.126,16.4,16.4,0,0,0-2.858.126" transform="translate(79.238 -43.38)" fill="#e0e0e0"/>
        <path id="Trazado_640878" data-name="Trazado 640878" d="M126.151,132.25a16.317,16.317,0,0,0,2.858.126,16.315,16.315,0,0,0,2.859-.126,16.392,16.392,0,0,0-2.859-.126,16.393,16.393,0,0,0-2.858.126" transform="translate(79.238 -44.258)" fill="#e0e0e0"/>
        <path id="Trazado_640879" data-name="Trazado 640879" d="M126.151,134.873a16.319,16.319,0,0,0,2.858.126,16.318,16.318,0,0,0,2.859-.126,16.39,16.39,0,0,0-2.859-.126,16.391,16.391,0,0,0-2.858.126" transform="translate(79.238 -45.137)" fill="#e0e0e0"/>
        <path id="Trazado_640880" data-name="Trazado 640880" d="M194.318,120.972H126.142a32.03,32.03,0,0,0,0,12.215h67.886v-.831h-4.148a1.958,1.958,0,0,1-1.958-1.958v-6.759a1.958,1.958,0,0,1,1.958-1.958h4.439Z" transform="translate(17.186 -40.523)" fill="#ebebeb"/>
        <path id="Trazado_640881" data-name="Trazado 640881" d="M148.713,128.968h-1.137a.257.257,0,0,0-.123.031.232.232,0,0,0-.122.214.257.257,0,0,0,.009.073c.023.1.048.193.077.291a3.228,3.228,0,0,0,.712,1.287,1.346,1.346,0,0,0,.97.5,1.079,1.079,0,0,0,.137-.009,1.11,1.11,0,0,0,.774-.56,2.559,2.559,0,0,0,.339-1.37,3.688,3.688,0,0,0-.134-.976,3.28,3.28,0,0,0-.676-1.318,1.373,1.373,0,0,0-1.025-.545.966.966,0,0,0-.431.1,1.393,1.393,0,0,0-.664.83.248.248,0,0,0-.027.113.239.239,0,0,0,.033.122.233.233,0,0,0,.211.122.263.263,0,0,0,.076-.011.233.233,0,0,0,.156-.154l.012-.022a1.219,1.219,0,0,1,.138-.269.65.65,0,0,1,.545-.325.638.638,0,0,1,.376.138,2.014,2.014,0,0,1,.621.892,3.351,3.351,0,0,1,.269,1.283,2.3,2.3,0,0,1-.2,1.008.661.661,0,0,1-.593.446.819.819,0,0,1-.551-.331,3.032,3.032,0,0,1-.584-1.057q.786,0,.817-.009c.177-.029.268-.12.272-.275a.265.265,0,0,0-.025-.082.258.258,0,0,0-.257-.138" transform="translate(46.673 -42.404)" fill="#fafafa"/>
        <path id="Trazado_640882" data-name="Trazado 640882" d="M152.782,126.766a.689.689,0,0,0-.031.082q-.073.25-.8,4.224a.181.181,0,0,0-.011.061.254.254,0,0,0,.033.125.225.225,0,0,0,.2.125l.039,0a.223.223,0,0,0,.188-.169l.271-1.4h1.4l.673,1.409a.253.253,0,0,0,.233.166.241.241,0,0,0,.133-.04.236.236,0,0,0,.112-.2.184.184,0,0,0-.016-.073c-.042-.1-.112-.253-.208-.463q-1.47-3.21-1.758-3.789a.264.264,0,0,0-.236-.171.256.256,0,0,0-.224.122m.305.944.757,1.594h-1.069Z" transform="translate(38.734 -42.423)" fill="#fafafa"/>
        <path id="Trazado_640883" data-name="Trazado 640883" d="M158.132,131.381h2.055a.236.236,0,0,0,.132-.04.37.37,0,0,0,.116-.257v0q0-.125-.567-4.206a.646.646,0,0,0-.012-.09.225.225,0,0,0-.221-.15.239.239,0,0,0-.113.027.227.227,0,0,0-.129.217q.027.278.14,1.153.352,2.693.368,2.844h-1.746a.344.344,0,0,0-.132.025.23.23,0,0,0-.156.229.269.269,0,0,0,.012.079.288.288,0,0,0,.254.172" transform="translate(29.581 -42.42)" fill="#fafafa"/>
        <path id="Trazado_640884" data-name="Trazado 640884" d="M162.725,126.766a.694.694,0,0,0-.031.082q-.073.25-.8,4.224a.166.166,0,0,0-.011.061.254.254,0,0,0,.033.125.225.225,0,0,0,.2.125l.039,0a.223.223,0,0,0,.188-.169l.271-1.4h1.4l.673,1.409a.327.327,0,0,0,.022.047.273.273,0,0,0,.211.12.241.241,0,0,0,.133-.04.236.236,0,0,0,.112-.2.184.184,0,0,0-.016-.073c-.042-.1-.112-.253-.208-.463q-1.47-3.21-1.758-3.789a.264.264,0,0,0-.236-.171.256.256,0,0,0-.224.122m.305.944.757,1.594h-1.069Z" transform="translate(22.179 -42.423)" fill="#fafafa"/>
        <path id="Trazado_640885" data-name="Trazado 640885" d="M169.127,129.191q-.239.667-.371,1.029-.318.879-.318.927a.216.216,0,0,0,.039.125.234.234,0,0,0,.205.112.224.224,0,0,0,.2-.166c.016-.044.029-.078.039-.1q.168-.384.549-1.448l1.162,1.589a.284.284,0,0,0,.217.129.265.265,0,0,0,.127-.034.226.226,0,0,0,.116-.206.3.3,0,0,0,0-.052.594.594,0,0,0-.122-.2q-.585-.755-1.291-1.8c.05-.137.1-.266.142-.388q.655-1.758.655-1.816a.264.264,0,0,0-.031-.126.214.214,0,0,0-.2-.122.247.247,0,0,0-.229.136l-.686,1.849-1.371-1.866a.275.275,0,0,0-.218-.116.236.236,0,0,0-.112.027.232.232,0,0,0-.119.219.313.313,0,0,0,.025.113Z" transform="translate(12.502 -42.423)" fill="#fafafa"/>
        <path id="Trazado_640886" data-name="Trazado 640886" d="M173.065,126.667a.246.246,0,0,0-.113.027.243.243,0,0,0-.132.211q.5,3.985.557,4.307a2.619,2.619,0,0,0,.44,1.122,1.587,1.587,0,0,0,2.022.5,1.459,1.459,0,0,0,.725-.636.265.265,0,0,0,.027-.119.239.239,0,0,0-.034-.122.232.232,0,0,0-.211-.122.24.24,0,0,0-.187.1,1.317,1.317,0,0,1-1.052.6,1.038,1.038,0,0,1-.816-.414,2.266,2.266,0,0,1-.453-1.291,1.236,1.236,0,0,0,1.04.563,1.024,1.024,0,0,0,.917-.569,2.534,2.534,0,0,0,.343-1.37q0-.373-.035-.771-.058-.623-.277-1.771a.285.285,0,0,0-.022-.07.226.226,0,0,0-.22-.168.232.232,0,0,0-.119.033.217.217,0,0,0-.122.2,9.017,9.017,0,0,0,.113.938,12.966,12.966,0,0,1,.162,1.432,2.873,2.873,0,0,1-.184,1.115q-.211.5-.609.5a.413.413,0,0,1-.082-.009,1.119,1.119,0,0,1-.614-.491,3.072,3.072,0,0,1-.508-1.133l-.312-2.342a.293.293,0,0,0-.031-.1.223.223,0,0,0-.213-.134" transform="translate(3.48 -42.43)" fill="#fafafa"/>
        <path id="Trazado_640887" data-name="Trazado 640887" d="M224.157,133.266c.069,0,.126-2.806.126-6.266s-.057-6.266-.126-6.266-.126,2.8-.126,6.266.057,6.266.126,6.266" transform="translate(-78.268 -40.443)" fill="#f5f5f5"/>
        <path id="Trazado_640888" data-name="Trazado 640888" d="M140.267,133.266c.07,0,.126-2.806.126-6.266s-.056-6.266-.126-6.266-.126,2.8-.126,6.266.057,6.266.126,6.266" transform="translate(61.41 -40.443)" fill="#e0e0e0"/>
        <path id="Trazado_640889" data-name="Trazado 640889" d="M225.956,133.266c.07,0,.126-2.806.126-6.266s-.056-6.266-.126-6.266-.126,2.8-.126,6.266.057,6.266.126,6.266" transform="translate(-81.264 -40.443)" fill="#f5f5f5"/>
        <path id="Trazado_640890" data-name="Trazado 640890" d="M138.586,133.266c.07,0,.126-2.806.126-6.266s-.056-6.266-.126-6.266-.126,2.8-.126,6.266.057,6.266.126,6.266" transform="translate(64.209 -40.443)" fill="#e0e0e0"/>
        <path id="Trazado_640891" data-name="Trazado 640891" d="M195.322,123.826l.011-.021-7.206,5.814-.063.051.079.021.959.252,6.084,1.6.013,0,.011-.005,5.514-2.338,1.561-.669.412-.18.105-.047a.152.152,0,0,0,.035-.019.162.162,0,0,0-.037.013l-.108.042-.416.17-1.569.649-5.525,2.31h.024l-6.081-1.6-.959-.252.015.072,7.192-5.832.011-.009v-.013" transform="translate(-32.903 -41.472)" fill="#e0e0e0"/>
        <path id="Trazado_640892" data-name="Trazado 640892" d="M209.37,131.186l-.393.37-.527-.114.23.488-.271.466.535-.068.36.4.1-.53.493-.217-.473-.259Z" transform="translate(-53.494 -43.944)" fill="#e0e0e0"/>
        <path id="Trazado_640893" data-name="Trazado 640893" d="M199.012,134.631l-.268.223-.337-.094.13.324-.194.291.349-.023.216.274.086-.338.327-.121-.3-.186Z" transform="translate(-36.224 -45.098)" fill="#e0e0e0"/>
        <path id="Trazado_640894" data-name="Trazado 640894" d="M188.53,129.764l-.428.027-.265-.336-.106.415-.4.147.362.23.015.428.331-.273.412.117-.158-.4Z" transform="translate(-18.107 -43.364)" fill="#e0e0e0"/>
        <path id="Trazado_640895" data-name="Trazado 640895" d="M215.261,123.819l-.428.027-.265-.337-.106.415-.4.148.362.229.016.428.33-.273.412.117-.158-.4Z" transform="translate(-62.616 -41.372)" fill="#e0e0e0"/>
        <path id="Trazado_640896" data-name="Trazado 640896" d="M199.6,123.453l-.273.017-.168-.215-.068.265-.257.094.231.146.01.273.211-.174.263.075-.1-.255Z" transform="translate(-36.836 -41.287)" fill="#e0e0e0"/>
        <path id="Trazado_640897" data-name="Trazado 640897" d="M199.313,124.2c0,.028,2.332-.049,5.206-.172s5.2-.245,5.2-.273-2.332.049-5.206.173-5.2.245-5.2.273" transform="translate(-47.269 -41.452)" fill="#e0e0e0"/>
        <path id="Trazado_640898" data-name="Trazado 640898" d="M114.429,117.913h69.145c.906-2.055,1.128-4.007,0-5.756H114.429a6.669,6.669,0,0,0,0,5.756" transform="translate(34.997 -37.57)" fill="#e0e0e0"/>
        <rect id="Rectángulo_334967" data-name="Rectángulo 334967" width="37.46" height="2.095" transform="translate(166.793 76.232)" fill="#ebebeb"/>
        <path id="Trazado_640899" data-name="Trazado 640899" d="M117.122,118.018a2,2,0,0,0,.546-.695,5.085,5.085,0,0,0,.366-4.165,1.992,1.992,0,0,0-.416-.78,6.636,6.636,0,0,0,.247.834,5.826,5.826,0,0,1-.354,4.029,6.706,6.706,0,0,0-.388.777" transform="translate(98.795 -37.644)" fill="#e0e0e0"/>
        <path id="Trazado_640900" data-name="Trazado 640900" d="M119.372,118.018a2,2,0,0,0,.546-.695,5.085,5.085,0,0,0,.366-4.165,1.992,1.992,0,0,0-.416-.78,6.64,6.64,0,0,0,.247.834,5.826,5.826,0,0,1-.354,4.029,6.7,6.7,0,0,0-.388.777" transform="translate(95.049 -37.644)" fill="#e0e0e0"/>
        <path id="Trazado_640901" data-name="Trazado 640901" d="M215.421,117.819a8.667,8.667,0,0,1-.033-5.633,5.856,5.856,0,0,0,.033,5.633" transform="translate(-63.197 -37.579)" fill="#f5f5f5"/>
        <path id="Trazado_640902" data-name="Trazado 640902" d="M213.187,117.861c.075-.017-.215-1.232-.207-2.756s.29-2.738.215-2.756a8.442,8.442,0,0,0-.007,5.512" transform="translate(-59.677 -37.634)" fill="#f5f5f5"/>
      </g>
    </g>
    <g id="Grupo_927238" data-name="Grupo 927238">
      <g id="Grupo_927237" data-name="Grupo 927237" clip-path="url(#clip-path)">
        <path id="Trazado_640903" data-name="Trazado 640903" d="M79.035,297.717a29.647,29.647,0,0,0,3.026,2.345,70.58,70.58,0,0,1,13.08,12.855,29.669,29.669,0,0,0,2.4,2.985,16,16,0,0,0-2-3.283,53.171,53.171,0,0,0-13.186-12.96,16.032,16.032,0,0,0-3.316-1.943" transform="translate(144.898 -99.726)" fill="#263238"/>
        <path id="Trazado_640904" data-name="Trazado 640904" d="M97.776,282.445c-.189.046.456,3.331,1.439,7.338s1.932,7.211,2.117,7.154-.458-3.34-1.439-7.339-1.929-7.2-2.117-7.154" transform="translate(128.634 -94.612)" fill="#263238"/>
        <path id="Trazado_640905" data-name="Trazado 640905" d="M103.325,281.4c.491.217.632,1.414.226,1.991a1.487,1.487,0,0,1-1.9.329,1.6,1.6,0,0,1-.633-2.139,1.583,1.583,0,0,1,2.363-.146" transform="translate(124.162 -94.119)" fill="#455a64"/>
        <path id="Trazado_640906" data-name="Trazado 640906" d="M100.913,288.537c-.08.176,1.1.886,2.633,1.586s2.845,1.123,2.925.946-1.1-.886-2.634-1.585-2.844-1.123-2.925-.947" transform="translate(121.417 -96.64)" fill="#263238"/>
        <path id="Trazado_640907" data-name="Trazado 640907" d="M108.843,286.785a2.382,2.382,0,0,1,.933,1.185,1.057,1.057,0,0,1-.555,1.279,1,1,0,0,1-.928-.2,1.838,1.838,0,0,1-.536-.819,1.485,1.485,0,0,1-.054-1.044.726.726,0,0,1,.85-.462" transform="translate(113.606 -96.036)" fill="#455a64"/>
        <path id="Trazado_640908" data-name="Trazado 640908" d="M108.252,295.712a1.438,1.438,0,1,0,.31.011" transform="translate(114.229 -99.053)" fill="#455a64"/>
        <path id="Trazado_640909" data-name="Trazado 640909" d="M62.747,235.72a15.456,15.456,0,0,0-.173,2.377c-.053,1.645-.124,3.832-.21,6.479-.147,5.471-.3,13.028-.428,21.375s-.2,15.907-.223,21.379c.005,2.648.01,4.834.013,6.48a15.43,15.43,0,0,0,.1,2.378A15.527,15.527,0,0,0,62,293.816c.054-1.645.125-3.831.211-6.478.146-5.471.3-13.031.428-21.383s.2-15.909.223-21.38c-.005-2.648-.01-4.834-.013-6.48a15.32,15.32,0,0,0-.1-2.375" transform="translate(191.099 -78.961)" fill="#263238"/>
        <path id="Trazado_640910" data-name="Trazado 640910" d="M46.258,223.967a10.547,10.547,0,1,0,11.347-9.681,10.547,10.547,0,0,0-11.347,9.681" transform="translate(196.94 -71.769)" fill="#406834"/>
        <g id="Grupo_927194" data-name="Grupo 927194" transform="translate(253.468 147.442)" opacity="0.3">
          <g id="Grupo_927193" data-name="Grupo 927193" transform="translate(0)">
            <g id="Grupo_927192" data-name="Grupo 927192" transform="translate(0)" clip-path="url(#clip-path-4)">
              <path id="Trazado_640911" data-name="Trazado 640911" d="M49.131,237.873a22.019,22.019,0,0,0-.09-3.052,17.374,17.374,0,0,1,1.079-7.1,9.853,9.853,0,0,1,4.763-5.1,14.811,14.811,0,0,1,2.88-.8c0-.041-.29-.108-.831-.109a6.373,6.373,0,0,0-2.244.454,9.679,9.679,0,0,0-5.217,5.29,15.658,15.658,0,0,0-.926,7.4,9.612,9.612,0,0,0,.586,3.023" transform="translate(-48.454 -221.71)"/>
            </g>
          </g>
        </g>
        <g id="Grupo_927197" data-name="Grupo 927197" transform="translate(244.309 148.711)" opacity="0.3">
          <g id="Grupo_927196" data-name="Grupo 927196" transform="translate(0)">
            <g id="Grupo_927195" data-name="Grupo 927195" transform="translate(0)" clip-path="url(#clip-path-5)">
              <path id="Trazado_640912" data-name="Trazado 640912" d="M61.188,223.815c-.027.213,2.957.008,5.851,1.895,2.909,1.868,3.944,4.674,4.127,4.561.08-.027-.053-.753-.614-1.795a9.431,9.431,0,0,0-7.474-4.836,3.461,3.461,0,0,0-1.889.175" transform="translate(-61.188 -223.618)"/>
            </g>
          </g>
        </g>
        <g id="Grupo_927200" data-name="Grupo 927200" transform="translate(248.985 145.356)" opacity="0.3">
          <g id="Grupo_927199" data-name="Grupo 927199" transform="translate(0)">
            <g id="Grupo_927198" data-name="Grupo 927198" transform="translate(0)" clip-path="url(#clip-path-6)">
              <path id="Trazado_640913" data-name="Trazado 640913" d="M54.927,222.966c.116.026.251-.7.9-1.594a4.75,4.75,0,0,1,7.392-.617c.794.777,1.047,1.466,1.156,1.422.072-.011-.012-.8-.791-1.757a4.946,4.946,0,0,0-8.174.682c-.609,1.073-.561,1.866-.488,1.865" transform="translate(-54.885 -218.573)"/>
            </g>
          </g>
        </g>
        <g id="Grupo_927203" data-name="Grupo 927203" transform="translate(251.819 146.199)" opacity="0.3">
          <g id="Grupo_927202" data-name="Grupo 927202" transform="translate(0)">
            <g id="Grupo_927201" data-name="Grupo 927201" transform="translate(0)" clip-path="url(#clip-path-7)">
              <path id="Trazado_640914" data-name="Trazado 640914" d="M60.038,225.412c.205.019.43-1.43,1.319-2.939.864-1.524,2.008-2.442,1.888-2.61-.079-.165-1.533.574-2.5,2.258s-.892,3.3-.71,3.291" transform="translate(-59.924 -219.84)"/>
            </g>
          </g>
        </g>
        <g id="Grupo_927206" data-name="Grupo 927206" transform="translate(252.962 148.536)" opacity="0.3">
          <g id="Grupo_927205" data-name="Grupo 927205" transform="translate(0)">
            <g id="Grupo_927204" data-name="Grupo 927204" transform="translate(0)" clip-path="url(#clip-path-8)">
              <path id="Trazado_640915" data-name="Trazado 640915" d="M58.708,223.45c-.051.208.821.484,1.543,1.188.717.72,1.221,1.52,1.408,1.411.147-.073-.048-1.022-.922-1.918-.941-.886-2.022-.851-2.028-.681" transform="translate(-58.706 -223.354)"/>
            </g>
          </g>
        </g>
        <path id="Trazado_640916" data-name="Trazado 640916" d="M40.388,284.4c-.185-.059-3.086,8.482-6.479,19.074s-6,19.231-5.81,19.29,3.085-8.48,6.479-19.076,5.995-19.229,5.81-19.288" transform="translate(235.922 -95.267)" fill="#263238"/>
        <path id="Trazado_640917" data-name="Trazado 640917" d="M18.317,310.78c.118.126,3.08-2.215,6.786-5.063s6.6-5.314,6.473-5.473c-.115-.142-3.2,2.055-6.9,4.919s-6.5,5.46-6.354,5.618" transform="translate(251.242 -100.572)" fill="#263238"/>
        <path id="Trazado_640918" data-name="Trazado 640918" d="M18.476,298.606a1.757,1.757,0,0,1-.28,2.33,1.933,1.933,0,0,1-2.629-.436,1.735,1.735,0,0,1,.649-2.346,1.907,1.907,0,0,1,2.4.638" transform="translate(265.988 -99.809)" fill="#455a64"/>
        <path id="Trazado_640919" data-name="Trazado 640919" d="M32.388,278.135c-.213.043.423,3.086,1.679,6.652s2.028,6.5,2.206,6.468c.207-.031-.282-3.11-1.54-6.691s-2.176-6.46-2.345-6.428" transform="translate(237.17 -93.168)" fill="#263238"/>
        <path id="Trazado_640920" data-name="Trazado 640920" d="M38.2,274.065c.7.5.733.806,1,1.626a1.606,1.606,0,0,1-.961,2.081,1.854,1.854,0,0,1-1.855-1.251A2.22,2.22,0,0,1,36.4,274.4a1.227,1.227,0,0,1,1.885-.207" transform="translate(231.688 -91.729)" fill="#455a64"/>
        <path id="Trazado_640921" data-name="Trazado 640921" d="M25.426,310.881c.07-.181-1.176-.876-2.783-1.553s-2.977-1.082-3.056-.906,1.166.872,2.784,1.553,2.986,1.087,3.056.906" transform="translate(256.548 -103.3)" fill="#263238"/>
        <path id="Trazado_640922" data-name="Trazado 640922" d="M17.767,310.2c.484.251.684,1.418.658,1.907a1.577,1.577,0,0,1-.747,1.2,1.88,1.88,0,1,1,.09-3.108" transform="translate(266.726 -103.798)" fill="#455a64"/>
        <path id="Trazado_640923" data-name="Trazado 640923" d="M28.169,280.768a2.507,2.507,0,0,1-4.332,2.206,1.833,1.833,0,0,1-.486-1.43,2.909,2.909,0,0,1,2.264-2.081,2.593,2.593,0,0,1,2.554,1.305" transform="translate(251.254 -93.61)" fill="#455a64"/>
        <path id="Trazado_640924" data-name="Trazado 640924" d="M67.73,297.217a13.33,13.33,0,0,0,.836,2.792l2.325,6.612,2.381,6.594a13.393,13.393,0,0,0,1.119,2.691c.2-.059-.984-4.357-2.838-9.52-1.829-5.171-3.63-9.25-3.823-9.169" transform="translate(175.554 -99.56)" fill="#263238"/>
        <path id="Trazado_640925" data-name="Trazado 640925" d="M67.947,284.445A9.027,9.027,0,1,0,74.9,273.74a9.026,9.026,0,0,0-6.953,10.706" transform="translate(164.141 -91.63)" fill="#406834"/>
        <g id="Grupo_927209" data-name="Grupo 927209" transform="translate(241.485 184.218)" opacity="0.3">
          <g id="Grupo_927208" data-name="Grupo 927208">
            <g id="Grupo_927207" data-name="Grupo 927207" clip-path="url(#clip-path-9)">
              <path id="Trazado_640926" data-name="Trazado 640926" d="M74.506,292.3a14.829,14.829,0,0,0-.783-2.495,15.009,15.009,0,0,1-.826-6.068,8.456,8.456,0,0,1,2.638-5.324,15.479,15.479,0,0,1,2.145-1.387,3.87,3.87,0,0,0-2.461,1,8.274,8.274,0,0,0-3.021,5.633,13.305,13.305,0,0,0,1.057,6.312,7.381,7.381,0,0,0,1.25,2.325" transform="translate(-72.144 -277.01)"/>
            </g>
          </g>
        </g>
        <g id="Grupo_927212" data-name="Grupo 927212" transform="translate(232.197 189.026)" opacity="0.3">
          <g id="Grupo_927211" data-name="Grupo 927211" transform="translate(0)">
            <g id="Grupo_927210" data-name="Grupo 927210" transform="translate(0)" clip-path="url(#clip-path-10)">
              <path id="Trazado_640927" data-name="Trazado 640927" d="M79.745,285.061c.042.207,2.435-.66,5.248.179,2.821.817,4.364,2.84,4.511,2.689.071-.05-.205-.622-.917-1.35a8,8,0,0,0-7.341-2.157c-.992.227-1.534.559-1.5.638" transform="translate(-79.744 -284.24)"/>
            </g>
          </g>
        </g>
        <g id="Grupo_927215" data-name="Grupo 927215" transform="translate(236.089 184.402)" opacity="0.3">
          <g id="Grupo_927214" data-name="Grupo 927214" transform="translate(0)">
            <g id="Grupo_927213" data-name="Grupo 927213" transform="translate(0)" clip-path="url(#clip-path-11)">
              <path id="Trazado_640928" data-name="Trazado 640928" d="M77.1,282.272c.115-.009.064-.633.388-1.518a4.055,4.055,0,0,1,5.862-2.286c.838.432,1.222.926,1.313.855.068-.034-.184-.672-1.058-1.28a4.251,4.251,0,0,0-6.594,2.571c-.232,1.039.015,1.679.088,1.659" transform="translate(-76.917 -277.286)"/>
            </g>
          </g>
        </g>
        <g id="Grupo_927218" data-name="Grupo 927218" transform="translate(238.732 184.992)" opacity="0.3">
          <g id="Grupo_927217" data-name="Grupo 927217" transform="translate(0)">
            <g id="Grupo_927216" data-name="Grupo 927216" transform="translate(0)" clip-path="url(#clip-path-12)">
              <path id="Trazado_640929" data-name="Trazado 640929" d="M82.439,283.521c.2-.042.057-1.279.415-2.721.335-1.448,1.025-2.485.865-2.613-.126-.135-1.164.819-1.548,2.449s.094,2.947.268,2.885" transform="translate(-82.019 -278.173)"/>
            </g>
          </g>
        </g>
        <g id="Grupo_927221" data-name="Grupo 927221" transform="translate(239.231 187.258)" opacity="0.3">
          <g id="Grupo_927220" data-name="Grupo 927220" transform="translate(0)">
            <g id="Grupo_927219" data-name="Grupo 927219" transform="translate(0)" clip-path="url(#clip-path-13)">
              <path id="Trazado_640930" data-name="Trazado 640930" d="M79.233,281.835c.013.21.787.251,1.532.644s1.377.923,1.522.769c.122-.115-.251-.863-1.2-1.394-1.007-.505-1.893-.188-1.853-.02" transform="translate(-79.232 -281.581)"/>
            </g>
          </g>
        </g>
        <path id="Trazado_640931" data-name="Trazado 640931" d="M51.932,268.749a6.545,6.545,0,0,0-.35,1.5q-.282,1.681-.693,4.115c-.555,3.476-1.272,8.282-2.022,13.594s-1.389,10.13-1.818,13.622q-.278,2.446-.472,4.14a6.416,6.416,0,0,0-.078,1.533,6.462,6.462,0,0,0,.348-1.494q.282-1.679.692-4.111c.555-3.477,1.273-8.288,2.024-13.607s1.39-10.138,1.818-13.63q.278-2.444.472-4.138a6.369,6.369,0,0,0,.077-1.526" transform="translate(212.136 -90.024)" fill="#263238"/>
        <path id="Trazado_640932" data-name="Trazado 640932" d="M31.738,251.167a9.027,9.027,0,1,0,11.128-6.257,9.027,9.027,0,0,0-11.128,6.257" transform="translate(224.658 -81.926)" fill="#406834"/>
        <g id="Grupo_927224" data-name="Grupo 927224" transform="translate(263.6 168.232)" opacity="0.3">
          <g id="Grupo_927223" data-name="Grupo 927223" transform="translate(0)">
            <g id="Grupo_927222" data-name="Grupo 927222" transform="translate(0)" clip-path="url(#clip-path-14)">
              <path id="Trazado_640933" data-name="Trazado 640933" d="M32.276,265.367a14.818,14.818,0,0,0,.464-2.574,15,15,0,0,1,2.084-5.758,8.456,8.456,0,0,1,4.807-3.492,15.466,15.466,0,0,1,2.544-.233,3.868,3.868,0,0,0-2.646-.253,8.28,8.28,0,0,0-5.29,3.588,13.3,13.3,0,0,0-1.992,6.082,7.372,7.372,0,0,0,.029,2.64" transform="translate(-32.17 -252.972)"/>
            </g>
          </g>
        </g>
        <g id="Grupo_927227" data-name="Grupo 927227" transform="translate(257.871 166.596)" opacity="0.3">
          <g id="Grupo_927226" data-name="Grupo 927226" transform="translate(0)">
            <g id="Grupo_927225" data-name="Grupo 927225" transform="translate(0)" clip-path="url(#clip-path-15)">
              <path id="Trazado_640934" data-name="Trazado 640934" d="M44.747,250.577c-.059.2,2.463.545,4.566,2.594,2.12,2.033,2.548,4.541,2.749,4.476.085-.012.106-.646-.187-1.621a8,8,0,0,0-5.5-5.317c-.984-.259-1.618-.217-1.627-.131" transform="translate(-44.746 -250.511)"/>
            </g>
          </g>
        </g>
        <g id="Grupo_927230" data-name="Grupo 927230" transform="translate(261.673 165.121)" opacity="0.3">
          <g id="Grupo_927229" data-name="Grupo 927229" transform="translate(0)">
            <g id="Grupo_927228" data-name="Grupo 927228" transform="translate(0)" clip-path="url(#clip-path-16)">
              <path id="Trazado_640935" data-name="Trazado 640935" d="M37.888,251.318c.106.045.35-.531,1.049-1.164a4.054,4.054,0,0,1,6.253.7c.543.771.654,1.387.767,1.367.076,0,.149-.681-.343-1.625a4.251,4.251,0,0,0-7.033-.783c-.688.813-.767,1.495-.692,1.51" transform="translate(-37.865 -248.294)"/>
            </g>
          </g>
        </g>
        <g id="Grupo_927233" data-name="Grupo 927233" transform="translate(263.741 166.15)" opacity="0.3">
          <g id="Grupo_927232" data-name="Grupo 927232" transform="translate(0)">
            <g id="Grupo_927231" data-name="Grupo 927231" transform="translate(0)" clip-path="url(#clip-path-17)">
              <path id="Trazado_640936" data-name="Trazado 640936" d="M41.54,254.015c.2.056.644-1.107,1.63-2.218.968-1.127,2.061-1.726,1.979-1.913-.049-.178-1.411.186-2.508,1.451s-1.284,2.655-1.1,2.68" transform="translate(-41.477 -249.841)"/>
            </g>
          </g>
        </g>
        <g id="Grupo_927236" data-name="Grupo 927236" transform="translate(265.179 167.795)" opacity="0.3">
          <g id="Grupo_927235" data-name="Grupo 927235" transform="translate(0)">
            <g id="Grupo_927234" data-name="Grupo 927234" transform="translate(0)" clip-path="url(#clip-path-18)">
              <path id="Trazado_640937" data-name="Trazado 640937" d="M41.612,252.377c-.086.192.581.587,1.058,1.282s.79,1.456.992,1.388c.162-.045.178-.88-.417-1.792-.658-.915-1.59-1.045-1.633-.878" transform="translate(-41.604 -252.314)"/>
            </g>
          </g>
        </g>
        <path id="Trazado_640938" data-name="Trazado 640938" d="M63.2,383.354l8.2-59.111H36.127l7.2,59.111Z" transform="translate(199.581 -108.614)" fill="#263238"/>
        <path id="Trazado_640939" data-name="Trazado 640939" d="M40.946,358.855c0,.164,6.608.3,14.758.3s14.76-.132,14.76-.3-6.607-.3-14.76-.3-14.758.132-14.758.3" transform="translate(197.306 -120.109)" fill="#fafafa"/>
        <path id="Trazado_640940" data-name="Trazado 640940" d="M41.74,364.572c0,.164,6.326.3,14.127.3S70,364.736,70,364.572s-6.324-.3-14.128-.3-14.127.133-14.127.3" transform="translate(197.246 -122.024)" fill="#fafafa"/>
        <path id="Trazado_640941" data-name="Trazado 640941" d="M42.5,370.04c0,.164,6.114.3,13.654.3s13.655-.132,13.655-.3-6.112-.3-13.655-.3-13.654.132-13.654.3" transform="translate(196.931 -123.855)" fill="#fafafa"/>
        <path id="Trazado_640942" data-name="Trazado 640942" d="M43.322,375.98c0,.164,5.883.3,13.139.3s13.141-.132,13.141-.3-5.882-.3-13.141-.3-13.139.132-13.139.3" transform="translate(196.588 -125.845)" fill="#fafafa"/>
        <path id="Trazado_640943" data-name="Trazado 640943" d="M44.47,381.409c0,.164,5.614.3,12.537.3s12.539-.132,12.539-.3-5.613-.3-12.539-.3-12.537.132-12.537.3" transform="translate(195.88 -127.664)" fill="#fafafa"/>
        <path id="Trazado_640944" data-name="Trazado 640944" d="M44.828,386.838c0,.164,5.4.3,12.068.3s12.068-.132,12.068-.3-5.4-.3-12.068-.3-12.068.133-12.068.3" transform="translate(196.225 -129.482)" fill="#fafafa"/>
        <path id="Trazado_640945" data-name="Trazado 640945" d="M45.581,392.267a116.428,116.428,0,0,0,11.728.3,116.423,116.423,0,0,0,11.73-.3,116.412,116.412,0,0,0-11.73-.3,116.417,116.417,0,0,0-11.728.3" transform="translate(195.648 -131.301)" fill="#fafafa"/>
        <path id="Trazado_640946" data-name="Trazado 640946" d="M46.333,397.695a107.27,107.27,0,0,0,11.258.3,107.276,107.276,0,0,0,11.26-.3,107.291,107.291,0,0,0-11.26-.3,107.286,107.286,0,0,0-11.258.3" transform="translate(195.337 -133.119)" fill="#fafafa"/>
      </g>
    </g>
    <g id="Grupo_927246" data-name="Grupo 927246">
      <g id="Grupo_927245" data-name="Grupo 927245" clip-path="url(#clip-path)">
        <path id="Trazado_640947" data-name="Trazado 640947" d="M157.906,20.46c1.053,1.72,3.563,2.064,5.394,1.216a9.816,9.816,0,0,0,4.084-4.329,28.764,28.764,0,0,1,3.162-5.143,9.376,9.376,0,0,1,9.3-2.828,8.565,8.565,0,0,1,6.142,7.393c.287,4.107-2.731,7.9-6.443,9.677s-7.984,1.922-12.1,1.756" transform="translate(3.982 -3.038)" fill="#263238"/>
        <path id="Trazado_640948" data-name="Trazado 640948" d="M287.089,30.158c-4-1.911-9.078.425-11.355,4.228s-2.278,8.571-1.4,12.915c.835,4.113,2.187,9.014-.742,12.019-2.3,2.356-6.5,2.491-8.122,5.35-2.336,4.106,2.908,8.912,2.188,13.581-.454,2.949-3.188,5-5.923,6.2s-5.747,1.909-8.089,3.758-3.752,5.416-2.028,7.852l15.278,4.805,3.11-5.377a7.842,7.842,0,0,0,.692,7.2,18.731,18.731,0,0,0,5.291,5.285c7.91,5.781,17.506,9.8,27.289,9.254" transform="translate(-175.106 -9.874)" fill="#263238"/>
        <path id="Trazado_640949" data-name="Trazado 640949" d="M242.482,28.242c.117-4.081-3.657-7.233-7.456-8.728s-8.022-2.058-11.408-4.337c-3-2.018-5.014-5.166-7.552-7.739a25.128,25.128,0,0,0-42.261,11.529c-1.458,5.812-.463,12.682,4.119,16.544,5.317,4.482,13.2,3.486,20.011,2.092s14.523-2.769,20.211,1.231c3.43,2.413,5.4,6.337,7.493,9.969s4.728,7.34,8.694,8.705,9.35-.992,9.5-5.183" transform="translate(-64.008 0)" fill="#263238"/>
        <path id="Trazado_640950" data-name="Trazado 640950" d="M237,36.65c-.449,3.42,2.026,6.483,4.49,8.9s5.248,4.976,5.683,8.4c.508,4-2.41,7.934-1.563,11.873.537,2.5,2.482,4.427,3.662,6.7A14.23,14.23,0,0,1,250,83c-1.015,3.444-2.634,11.137-5.028,13.813a55.281,55.281,0,0,1-26.843,16.014c-9.679,2.224-19.733,2.236-29.646,1.627-8.115-.5-17.447-.126-24.21-11.29-3.5-5.782-5.237-13.47-7.1-19.969-1.6-5.6-2.989-11.588-1.323-17.165.971-3.249,2.925-6.139,3.883-9.392,1.2-4.064.759-8.411,1.241-12.62a28.954,28.954,0,0,1,41.2-22.863" transform="translate(-58.801 -6.168)" fill="#263238"/>
        <path id="Trazado_640951" data-name="Trazado 640951" d="M191.065,54.461c.759-11.645,8.508-25.917,20.11-24.664l36.217,9.24a6.829,6.829,0,0,1,6.094,6.94l-2.355,79.569a21,21,0,0,1-41.989-.588c-.01-5.671-.014-12.352-.016-12.324,0,0-14.875-2.5-17.914-21.924-1.512-9.658-.992-23.31-.148-36.249" transform="translate(-85.01 -9.955)" fill="#ffbe9d"/>
        <path id="Trazado_640952" data-name="Trazado 640952" d="M266.93,88.378a2.49,2.49,0,0,0,2.4,2.518,2.382,2.382,0,0,0,2.572-2.239,2.492,2.492,0,0,0-2.393-2.519,2.383,2.383,0,0,0-2.574,2.24" transform="translate(-154.413 -28.853)" fill="#263238"/>
        <path id="Trazado_640953" data-name="Trazado 640953" d="M264.222,78.005c.308.325,2.2-1.066,4.877-1.053,2.677-.025,4.64,1.357,4.931,1.03.143-.145-.17-.732-1.025-1.357a6.832,6.832,0,0,0-3.946-1.226,6.558,6.558,0,0,0-3.882,1.244c-.825.63-1.106,1.217-.954,1.363" transform="translate(-154.751 -25.257)" fill="#263238"/>
        <path id="Trazado_640954" data-name="Trazado 640954" d="M228.277,88.378a2.489,2.489,0,0,0,2.4,2.517,2.381,2.381,0,0,0,2.571-2.239,2.491,2.491,0,0,0-2.393-2.518,2.382,2.382,0,0,0-2.574,2.24" transform="translate(-90.054 -28.853)" fill="#263238"/>
        <path id="Trazado_640955" data-name="Trazado 640955" d="M224.621,78.845c.309.325,2.2-1.066,4.878-1.053,2.676-.025,4.64,1.357,4.93,1.03.143-.145-.167-.732-1.025-1.357a6.832,6.832,0,0,0-3.946-1.227,6.57,6.57,0,0,0-3.883,1.244c-.823.63-1.1,1.217-.954,1.363" transform="translate(-88.816 -25.538)" fill="#263238"/>
        <path id="Trazado_640956" data-name="Trazado 640956" d="M258.931,98.76c.013-.152-1.652-.444-4.35-.795-.684-.072-1.331-.209-1.446-.676a3.478,3.478,0,0,1,.462-2.027q.971-2.481,2.035-5.205c2.826-7.411,4.873-13.506,4.574-13.616s-2.834,5.8-5.659,13.217q-1.02,2.74-1.95,5.236a3.959,3.959,0,0,0-.361,2.685,1.718,1.718,0,0,0,1.123,1,4.607,4.607,0,0,0,1.161.164c2.716.152,4.4.168,4.411.016" transform="translate(-132.893 -25.605)" fill="#263238"/>
        <path id="Trazado_640957" data-name="Trazado 640957" d="M243.987,144.01s-6.318,13.335-25.744,11.475l-.005-4.567a48.907,48.907,0,0,0,25.75-6.908" transform="translate(-94.12 -48.24)" fill="#eb996e"/>
        <path id="Trazado_640958" data-name="Trazado 640958" d="M240.643,118.8a4.828,4.828,0,0,1,4.332-1.784,4.4,4.4,0,0,1,3.04,1.64,2.792,2.792,0,0,1,.205,3.193,3.239,3.239,0,0,1-3.514.88,10.142,10.142,0,0,1-3.42-2.052,2.952,2.952,0,0,1-.763-.793.9.9,0,0,1,.006-1" transform="translate(-113.486 -39.189)" fill="#eb6f2d"/>
        <path id="Trazado_640959" data-name="Trazado 640959" d="M250.126,112.816c-.436-.026-.448,2.882-2.941,4.94s-5.589,1.732-5.612,2.139c-.041.182.689.567,2,.6a7.237,7.237,0,0,0,4.684-1.621,6.3,6.3,0,0,0,2.28-4.142c.114-1.216-.209-1.937-.408-1.921" transform="translate(-116.207 -37.791)" fill="#263238"/>
        <path id="Trazado_640960" data-name="Trazado 640960" d="M221.985,67.354c.262.729,2.939.39,6.08.775,3.151.323,5.683,1.248,6.1.6.187-.312-.254-1-1.277-1.706a10.661,10.661,0,0,0-9.282-1.045c-1.155.463-1.736,1.034-1.624,1.38" transform="translate(-86.825 -21.893)" fill="#263238"/>
        <path id="Trazado_640961" data-name="Trazado 640961" d="M263.822,66.269c.47.61,2.317-.017,4.537-.043,2.218-.1,4.1.418,4.532-.217.19-.309-.105-.918-.925-1.5a6.567,6.567,0,0,0-7.307.21c-.785.623-1.045,1.25-.837,1.546" transform="translate(-153.349 -21.272)" fill="#263238"/>
        <path id="Trazado_640962" data-name="Trazado 640962" d="M233.293,100.822a17.239,17.239,0,0,1-20.509-19.064c.6-4.768,3.174-9.619,1.522-14.132-2.186-5.967-10.55-7.8-12.769-13.757-1.29-3.461-.132-7.509-1.595-10.9-1.375-3.189-4.73-5.026-8-6.207s-6.767-2-9.509-4.127-4.452-6.154-2.683-9.142A183.967,183.967,0,0,1,222.177,33.8c3.168,1.183,6.5,2.606,8.369,5.422,1.982,2.98,1.887,6.83,1.72,10.4l-2.44,52.3" transform="translate(-57.355 -7.87)" fill="#263238"/>
        <path id="Trazado_640963" data-name="Trazado 640963" d="M121.2,12.441c-.5,4.893-.99,9.925.344,14.66s4.938,9.167,9.79,9.978c2.3.384,4.876,0,6.766,1.363,4.01,2.89.727,9.662,3.092,14,2.12,3.892,7.818,4.242,10.644,7.656,3.114,3.762,1.506,9.43-.67,13.8s-4.859,9.186-3.407,13.849c1.623,5.212,7.847,7.977,9.377,13.217.986,3.375-.051,7.533,2.361,10.091,1.864,1.976,4.954,2.013,7.659,1.766a76.612,76.612,0,0,0,31.571-10.12,17.974,17.974,0,0,1-2.6-8.939l5.433,3.959,12.53-15.615A25.427,25.427,0,0,0,200,67.98c-3.789-1.507-8.641-2.788-9.53-6.767-.491-2.2,2.153-6.213.725-11.328,0,0-2.384-9.741-8.021-12.488s-4.857-4.393-6.086-8.145" transform="translate(0.66 -4.167)" fill="#263238"/>
        <path id="Trazado_640964" data-name="Trazado 640964" d="M214.841,85.222a32.342,32.342,0,0,0-4.871-.037,46.858,46.858,0,0,1-5.647-.259A22.249,22.249,0,0,1,197.236,83a17.084,17.084,0,0,1-3.555-2.275A12.644,12.644,0,0,1,190.8,77.28a13.123,13.123,0,0,1-1.455-4.59c-.264-1.686-.356-3.488-.639-5.375a14.5,14.5,0,0,0-1.945-5.663,8.145,8.145,0,0,0-2.248-2.348,9.117,9.117,0,0,0-3.031-1.266,53.3,53.3,0,0,0-6.2-.675,7.773,7.773,0,0,1-5.155-2.171,11.024,11.024,0,0,1-2.415-5.265c-.42-1.947-.558-4.015-.961-6.055a13.144,13.144,0,0,0-2.4-5.793,11.324,11.324,0,0,0-2.26-2.13,13.276,13.276,0,0,0-2.632-1.42A22.271,22.271,0,0,0,148.739,33.4c-3.321.335-6.327.882-9.078.994a23.256,23.256,0,0,1-3.891-.111,15.346,15.346,0,0,1-3.342-.811,12.41,12.41,0,0,1-4.653-2.893,8.622,8.622,0,0,1-1.93-2.894c-.306-.747-.4-1.176-.48-1.161a2.723,2.723,0,0,0,.15,1.272,7.921,7.921,0,0,0,1.764,3.239,12.58,12.58,0,0,0,4.8,3.339,15.891,15.891,0,0,0,3.538,1,23.582,23.582,0,0,0,4.086.244c2.86-.039,5.924-.525,9.165-.787a28.353,28.353,0,0,1,4.97-.03,17.545,17.545,0,0,1,5.016,1.2,10.245,10.245,0,0,1,4.194,3.091,11.56,11.56,0,0,1,2.037,5.1c.373,1.92.495,3.965.943,6.1a12.608,12.608,0,0,0,2.838,6.09,7.728,7.728,0,0,0,2.947,1.966,13.279,13.279,0,0,0,3.276.731,55.481,55.481,0,0,1,6.014.615,7.5,7.5,0,0,1,2.478,1,6.5,6.5,0,0,1,1.8,1.859,13.034,13.034,0,0,1,1.755,5.012c.29,1.775.408,3.588.712,5.369a14.474,14.474,0,0,0,1.71,5.058,13.885,13.885,0,0,0,3.275,3.768,18.01,18.01,0,0,0,3.894,2.357,22.456,22.456,0,0,0,7.507,1.773A39.815,39.815,0,0,0,210,85.859a22.235,22.235,0,0,0,4.846-.636" transform="translate(-3.195 -8.885)" fill="#e0e0e0"/>
        <path id="Trazado_640965" data-name="Trazado 640965" d="M176.41,25.21c-.209.1-.11.864.371,1.986a14.426,14.426,0,0,0,2.626,3.939,15.1,15.1,0,0,0,3.687,2.958c1.065.585,1.813.769,1.933.572.254-.43-2.026-2.158-4.345-4.7-2.354-2.513-3.817-4.953-4.271-4.752" transform="translate(-7.293 -8.441)" fill="#ffb338"/>
        <path id="Trazado_640966" data-name="Trazado 640966" d="M156.488,354.255l-3.574,36.866,112.239-.041-21.684-43.772Z" transform="translate(-71.845 -116.34)" fill="#ffb338"/>
        <path id="Trazado_640967" data-name="Trazado 640967" d="M348.156,274.689l-21.839,32.183s-4.463-35.324-4.877-34.531,24.478-33.828,24.478-33.828Z" transform="translate(-266.918 -79.896)" fill="#eb996e"/>
        <path id="Trazado_640968" data-name="Trazado 640968" d="M232.761,171.673c.868,0,28.7,11.328,31.883,16.534s-16.709,103.275-16.709,103.275L146,293.578,145,246.724l-7.6-62.693,42.15-14.206,5.621-4.9L196.587,184.8l31.368-20.1Z" transform="translate(-61.361 -55.169)" fill="#ffb338"/>
        <g id="Grupo_927241" data-name="Grupo 927241" transform="translate(95.005 190.115)" opacity="0.3">
          <g id="Grupo_927240" data-name="Grupo 927240" transform="translate(0)">
            <g id="Grupo_927239" data-name="Grupo 927239" transform="translate(0)" clip-path="url(#clip-path-20)">
              <path id="Trazado_640969" data-name="Trazado 640969" d="M260.121,367.288c-6.757-1.76-12.329-6.725-16.2-12.534s-6.261-12.462-8.548-19.06-4.542-13.281-8.2-19.228a92.219,92.219,0,0,0-9.491-12.147,26.31,26.31,0,0,0-5.324-5.044c-2.561-1.646-5.6-2.348-8.567-3.022l-15.611-3.544a17.793,17.793,0,0,1-5.633-1.966,6.029,6.029,0,0,1-3.047-4.866c7.786.788,15.65.545,23.431,1.38s15.679,2.86,21.894,7.617c6.26,4.791,10.277,11.927,13.421,19.156,7.643,17.573,11.224,36.987,21.339,53.261" transform="translate(-179.493 -285.877)"/>
            </g>
          </g>
        </g>
        <path id="Trazado_640970" data-name="Trazado 640970" d="M139.034,200.051s8.456,5.543,10.674,23.2c1.649,13.121,4.942,50.259,4.942,50.259l-40.215-3.36Z" transform="translate(64.248 -67.012)" fill="#ffb338"/>
        <path id="Trazado_640971" data-name="Trazado 640971" d="M154.846,289.4a.868.868,0,0,0-.2-.035l-.6-.067-2.3-.225-8.46-.762-27.922-2.383-.719-.061.157.2c1.416-10.681,2.693-20.316,3.62-27.308.444-3.47.8-6.283,1.055-8.254.115-.956.2-1.708.269-2.244.025-.241.046-.434.062-.585a.917.917,0,0,0,.009-.2.894.894,0,0,0-.045.2c-.024.149-.056.34-.1.58-.079.534-.191,1.283-.333,2.235-.277,1.968-.674,4.776-1.163,8.24-.953,6.988-2.266,16.618-3.723,27.294l-.025.18.182.015.719.061,27.932,2.282,8.469.652,2.3.16.6.033a.916.916,0,0,0,.206,0" transform="translate(64.052 -82.897)" fill="#263238"/>
        <path id="Trazado_640972" data-name="Trazado 640972" d="M186.793,188.615a4.009,4.009,0,0,0,.657-.18l1.836-.59,6.567-2.195-.171-.063,3.076,5.2.078.132.138-.067c1.61-.783,3.33-1.653,5.087-2.59a145.913,145.913,0,0,0,12.907-7.754c1.6-1.075,2.864-1.987,3.735-2.621l.991-.747a1.98,1.98,0,0,0,.331-.279,2.039,2.039,0,0,0-.372.223l-1.028.694c-.894.6-2.179,1.479-3.793,2.526-3.223,2.1-7.749,4.9-12.935,7.652-1.753.934-3.467,1.807-5.07,2.595l.216.065-3.115-5.181-.061-.1-.11.039-6.528,2.311-1.81.664a4.028,4.028,0,0,0-.629.263" transform="translate(-51.249 -59.245)" fill="#263238"/>
        <path id="Trazado_640973" data-name="Trazado 640973" d="M240.606,172.638a1.128,1.128,0,0,0,.01.321c.02.209.045.519.1.914a29.715,29.715,0,0,0,.646,3.32,34.114,34.114,0,0,0,1.578,4.767c.364.873.781,1.776,1.259,2.689.241.456.493.914.763,1.373a3.6,3.6,0,0,0,.476.688,1.038,1.038,0,0,0,.853.376,1.382,1.382,0,0,0,.8-.436c.2-.2.369-.409.543-.608l1.017-1.188,1.919-2.247a3.569,3.569,0,0,1,.982-.865.948.948,0,0,1,1.067.065,4.371,4.371,0,0,1,.771.876l.675.892,2.054,2.677.573.718c.134.162.209.243.219.236a1.156,1.156,0,0,0-.162-.277l-.521-.756-1.966-2.744-.657-.9a4.518,4.518,0,0,0-.814-.947,1.25,1.25,0,0,0-1.375-.106,3.81,3.81,0,0,0-1.086.927l-1.936,2.236-1.021,1.184c-.344.388-.683.869-1.113.923s-.751-.456-1-.893c-.267-.454-.519-.906-.76-1.357-.476-.9-.9-1.792-1.264-2.654a36.936,36.936,0,0,1-1.636-4.705c-.377-1.369-.6-2.5-.749-3.28a10.217,10.217,0,0,0-.247-1.214" transform="translate(-121.919 -57.83)" fill="#263238"/>
        <path id="Trazado_640974" data-name="Trazado 640974" d="M233.615,334.27c-.045.084,8.78,5.028,19.711,11.041s19.834,10.823,19.88,10.74-8.778-5.027-19.713-11.043-19.832-10.822-19.878-10.738" transform="translate(-133.565 -111.972)" fill="#263238"/>
        <path id="Trazado_640975" data-name="Trazado 640975" d="M245.787,363.477c-.005.1,5.677.476,12.69.851s12.705.6,12.71.5-5.676-.476-12.691-.85-12.7-.6-12.709-.5" transform="translate(-139.641 -121.749)" fill="#263238"/>
        <path id="Trazado_640976" data-name="Trazado 640976" d="M319.691,282.015l5.711-5.872-5.731-30.026-5.73,20.154Z" transform="translate(-239.179 -82.444)" fill="#ffb338"/>
        <path id="Trazado_640977" data-name="Trazado 640977" d="M316.96,325.188a.524.524,0,0,0,.013-.154c0-.122,0-.271,0-.452q-.008-.639-.021-1.736c-.03-1.539-.071-3.711-.122-6.382-.106-5.388-.254-12.831-.343-21.052s-.072-15.669.065-21.054c.057-2.693.17-4.869.257-6.372q.081-1.091.128-1.729c.009-.181.017-.329.024-.452a.531.531,0,0,0,0-.155.516.516,0,0,0-.032.151c-.016.121-.035.268-.059.448q-.071.636-.192,1.726c-.128,1.5-.279,3.681-.368,6.376-.2,5.389-.252,12.838-.167,21.065s.276,15.668.445,21.055c.1,2.669.176,4.841.232,6.379q.054,1.094.086,1.734c.013.181.023.329.032.451a.534.534,0,0,0,.023.153" transform="translate(-232.191 -88.987)" fill="#263238"/>
        <path id="Trazado_640978" data-name="Trazado 640978" d="M283.634,169.338a3.549,3.549,0,0,1,3.543.72c1.581,1.483,1.384,3.164.89,4.746a3.446,3.446,0,0,1-1.483,2.076l-6.525-3.064Z" transform="translate(-179.669 -56.659)" fill="#eb996e"/>
        <path id="Trazado_640979" data-name="Trazado 640979" d="M274.982,185.007s2.733,1.87,2.831,2.435c.071.406-.427.918-1.2.656a23.386,23.386,0,0,1-2.561-1.369Z" transform="translate(-165.071 -61.973)" fill="#eb6f2d"/>
        <path id="Trazado_640981" data-name="Trazado 640981" d="M322.007,163.176l7.528,7.1L327.86,172.6l-8.133-2.9-41.512-23.562a3.053,3.053,0,0,1,2.974-5.332Z" transform="translate(-218.526 -47.04)" fill="#455a64"/>
        <path id="Trazado_640982" data-name="Trazado 640982" d="M284.785,255.461c.465-6.738,42.684-65.051,45.322-68.689l7.3-15.138,3.1-12.756s16.57-9.536,17.882-9.536,7.749,8.226,7.868,9.536a3.106,3.106,0,0,1-.835,2.265l-.835,8.345a4.674,4.674,0,0,1,.239,3.547c-.716,1.7-3.577,1.7-3.577,1.7l1.073,3.61s-.238,4.019-.954,4.735a5.215,5.215,0,0,1-3.259.186c-1.372-.256-1.756-2.255-1.692-3.213-.443.712-1.935,0-1.935,0a4.834,4.834,0,0,1-1.911,2.959s-2.529,10.2-2.887,11.514a10.766,10.766,0,0,1-5.961,5.842,8.723,8.723,0,0,0-.824.346c-2.442,9.149-19.324,72.067-22.882,76.291-3.837,4.557-14.234,7.412-23.588,6.933s-12.127-21.518-11.648-28.474" transform="translate(-260.623 -50.026)" fill="#ffbe9d"/>
        <path id="Trazado_640983" data-name="Trazado 640983" d="M286.73,161.362a15.626,15.626,0,0,0,2.353.15c1.454.047,3.464.085,5.685.093,1.111,0,2.169,0,3.132-.021.482-.009.94-.023,1.371-.049a2.063,2.063,0,0,1,1.075.249,6.277,6.277,0,0,1,1.367.987,3.287,3.287,0,0,0,.474.419,1.712,1.712,0,0,0-.378-.513,5.4,5.4,0,0,0-1.35-1.11,2.277,2.277,0,0,0-1.2-.319c-.422.013-.878.017-1.359.017l-3.127-.007-5.683.008a16.128,16.128,0,0,0-2.355.1" transform="translate(-197.871 -54.014)" fill="#eb996e"/>
        <path id="Trazado_640984" data-name="Trazado 640984" d="M295.987,159.725a1.838,1.838,0,0,0,.908-.414,9.373,9.373,0,0,0,1.78-1.607l.189-.222-.29-.183a1.046,1.046,0,0,0-.017.736,2.077,2.077,0,0,0,.3.55,4.251,4.251,0,0,0,.689.728c.43.362.736.521.76.485s-.224-.262-.6-.656a5.312,5.312,0,0,1-.594-.732,1.082,1.082,0,0,1-.223-.962l.485-1.086-.775.9-.182.211a14.706,14.706,0,0,1-1.665,1.638c-.457.386-.785.561-.763.611" transform="translate(-202.142 -52.377)" fill="#eb996e"/>
        <path id="Trazado_640985" data-name="Trazado 640985" d="M287.986,172.527a17.672,17.672,0,0,0,2.056.08c1.268.035,3.017.126,4.945.292a11.547,11.547,0,0,1,4.692,1.279c1.107.6,1.7,1.128,1.737,1.079.015-.017-.118-.165-.386-.4a8.433,8.433,0,0,0-1.23-.89,10.727,10.727,0,0,0-4.784-1.41,48.117,48.117,0,0,0-4.972-.192,9.235,9.235,0,0,0-2.057.165" transform="translate(-197.934 -57.735)" fill="#eb996e"/>
        <path id="Trazado_640986" data-name="Trazado 640986" d="M291.4,171.731a3.3,3.3,0,0,0,3.329-2.59,5.55,5.55,0,0,1-3.329,2.59" transform="translate(-193.524 -56.657)" fill="#eb996e"/>
        <path id="Trazado_640987" data-name="Trazado 640987" d="M292.979,180.01a4.208,4.208,0,0,0,1.379.707,21.933,21.933,0,0,0,3.624.876,18.194,18.194,0,0,1,3.554.925c.869.353,1.352.691,1.388.64a3.833,3.833,0,0,0-1.289-.864,14.159,14.159,0,0,0-3.589-1.041,34.385,34.385,0,0,1-3.61-.767c-.9-.268-1.429-.527-1.456-.475" transform="translate(-202.763 -60.297)" fill="#eb996e"/>
        <path id="Trazado_640988" data-name="Trazado 640988" d="M299.717,190.167c-.02-.036-.354.086-.787.458a3,3,0,0,0-1.008,1.964,1.965,1.965,0,0,0,.237,1.24,2.732,2.732,0,0,0,.638.783c.467.368.853.372.855.337.019-.056-.322-.15-.691-.519a3,3,0,0,1-.521-.753,1.761,1.761,0,0,1-.174-1.052,3.147,3.147,0,0,1,.834-1.825c.362-.392.646-.588.617-.633" transform="translate(-202.834 -63.699)" fill="#eb996e"/>
        <path id="Trazado_640989" data-name="Trazado 640989" d="M299.792,189.378c-.041.021.037.295.229.717a3.534,3.534,0,0,0,1.139,1.444,2.1,2.1,0,0,0,.984.375,1.674,1.674,0,0,0,.851-.142c.458-.217.578-.536.541-.549-.043-.035-.223.2-.63.321a1.77,1.77,0,0,1-1.55-.29,4.331,4.331,0,0,1-1.121-1.277c-.241-.382-.4-.622-.444-.6" transform="translate(-207.905 -63.437)" fill="#eb996e"/>
        <path id="Trazado_640990" data-name="Trazado 640990" d="M303.009,195.4c-.007.04.281.142.764.09a2.637,2.637,0,0,0,2.33-2.6c0-.485-.133-.761-.172-.75s-.011.3-.072.733a2.762,2.762,0,0,1-2.129,2.371c-.429.108-.716.1-.721.151" transform="translate(-212.611 -64.363)" fill="#eb996e"/>
        <path id="Trazado_640991" data-name="Trazado 640991" d="M344.66,149.467a15.451,15.451,0,0,0,3.737-5.888c-.086-.036-.785,1.355-1.825,2.973-1.02,1.628-1.981,2.854-1.912,2.915" transform="translate(-282.611 -48.095)" fill="#263238"/>
        <path id="Trazado_640992" data-name="Trazado 640992" d="M334.977,150.82q5.329,3.1,10.82,5.9l.063.044a.428.428,0,0,1-.239.612,1.086,1.086,0,0,1-.747-.07,11.974,11.974,0,0,1-1.766-.881l-7.216-4.113a2.541,2.541,0,0,1-.773-.584.865.865,0,0,1-.142-.91" transform="translate(-273.641 -50.521)" fill="#263238"/>
        <path id="Trazado_640993" data-name="Trazado 640993" d="M144.285,310.393l11.685,18.028.628-22.683,32.626,2.726c.058.884-2.345,27.579-5.962,50.609-1.577,10.045-11.817,17.66-21.985,17.66a20.65,20.65,0,0,1-18.708-11.909l-19.992-50.052Z" transform="translate(24.259 -102.415)" fill="#ffbe9d"/>
        <path id="Trazado_640994" data-name="Trazado 640994" d="M281.336,202.406c.049-.3-.993-4.516-.993-4.516s-50.686-2.531-50.8-2.466l-3.056,1.839Z" transform="translate(-136.961 -65.462)" fill="#fff"/>
        <path id="Trazado_640995" data-name="Trazado 640995" d="M281.867,202.326s-.1-.018-.291-.04l-.835-.091-3.193-.325-11.722-1.152-38.786-3.707.073.32,1.7-1.02.943-.568c.157-.077.313-.227.47-.244a4.4,4.4,0,0,0,.46.035l2.173.1,4.277.2,8.236.392,14.867.708,20.638.949-.063-.052.818,3.332c.182.765.241,1.166.241,1.166a4.781,4.781,0,0,0-.172-1.181c-.156-.768-.408-1.9-.755-3.35l-.011-.049-.051,0-20.63-1.1-14.865-.751-8.236-.4-4.277-.2-2.175-.1c-.2-.007-.426-.006-.634,0a1.946,1.946,0,0,0-.488.254l-.943.568-1.7,1.021-.452.273.525.048,38.922,3.579,11.693,1.043,3.159.271.815.064a2.093,2.093,0,0,0,.271.013" transform="translate(-137.492 -65.382)" fill="#263238"/>
        <path id="Trazado_640996" data-name="Trazado 640996" d="M149.259,199.743l.267-.83.672-4.228L197.708,185l4.624,3.479-6.961,61.671L147.09,262.171Z" transform="translate(-5.151 -61.97)" fill="#fff"/>
        <path id="Trazado_640997" data-name="Trazado 640997" d="M149.18,199.665s-.011.1-.023.29-.023.487-.042.861c-.032.77-.078,1.895-.14,3.358-.112,2.951-.277,7.258-.485,12.726-.4,10.962-.96,26.567-1.634,45.187l-.007.2.2-.049,48.285-12,.117-.029.013-.12c.164-1.456.342-3.025.519-4.6,2.344-20.831,4.542-40.377,6.42-57.074l.01-.085-.069-.052-4.627-3.475-.053-.039-.064.013-47.491,9.783-.033.007,0,.033c-.344,2.286-.55,3.657-.637,4.234v0c-.229.728-.254.834-.254.834s.043-.1.279-.826v0c.1-.575.325-1.943.707-4.222l-.039.04,47.53-9.593-.116-.026,4.621,3.483-.059-.137c-1.891,16.695-4.105,36.24-6.465,57.068-.178,1.576-.355,3.144-.519,4.6l.13-.148-48.276,12.042.19.154c.621-18.615,1.142-34.215,1.507-45.173.172-5.472.307-9.782.4-12.735.041-1.466.072-2.594.094-3.365.008-.376.014-.662.018-.865s0-.294,0-.294" transform="translate(-5.072 -61.892)" fill="#263238"/>
        <path id="Trazado_640998" data-name="Trazado 640998" d="M255.05,189.462l-4.469,62.3L198,262.664l-53.016-9.53-.612-58.088,52.826,3s.321,2.366,4.2,2.282l2.6-.891,48.4-9.453Z" transform="translate(-56.06 -63.465)" fill="#455a64"/>
        <line id="Línea_2717" data-name="Línea 2717" x1="1.375" y2="67.399" transform="translate(139.762 134.578)" fill="#fff"/>
        <path id="Trazado_640999" data-name="Trazado 640999" d="M231.354,269.764c.1,0,.481-15.085.861-33.695s.611-33.7.515-33.7-.481,15.083-.861,33.7-.611,33.7-.515,33.7" transform="translate(-91.593 -67.787)" fill="#263238"/>
        <path id="Trazado_641000" data-name="Trazado 641000" d="M221.081,268.689a.6.6,0,0,0,.025-.165c.011-.13.023-.289.039-.485q.043-.683.118-1.869c.1-1.623.2-3.974.326-6.878.234-5.81.46-13.839.63-22.708s.263-16.9.3-22.717c.009-2.885.015-5.23.021-6.885-.007-.791-.011-1.416-.015-1.872-.005-.2-.009-.356-.013-.487a.6.6,0,0,0-.016-.166.594.594,0,0,0-.019.166c-.005.13-.013.29-.021.487q-.018.684-.05,1.871c-.031,1.655-.076,4-.13,6.884-.1,5.838-.245,13.855-.4,22.713s-.358,16.9-.529,22.706c-.09,2.884-.164,5.226-.215,6.881q-.034,1.186-.053,1.871c0,.2,0,.357,0,.487a.6.6,0,0,0,.01.167" transform="translate(-74.558 -68.488)" fill="#263238"/>
        <path id="Trazado_641001" data-name="Trazado 641001" d="M213.094,331.367l.2.085-.2-.085" transform="translate(-60.01 -111)" fill="#ffbe9d"/>
        <path id="Trazado_641002" data-name="Trazado 641002" d="M213.439,331.33l.033.014-.033-.014" transform="translate(-60.414 -110.988)" fill="#ffbe9d"/>
        <path id="Trazado_641003" data-name="Trazado 641003" d="M213.488,331.314l.025.011-.025-.011" transform="translate(-60.488 -110.982)" fill="#ffbe9d"/>
        <path id="Trazado_641004" data-name="Trazado 641004" d="M213.4,331.35l.027.011-.027-.011" transform="translate(-60.341 -110.994)" fill="#ffbe9d"/>
        <path id="Trazado_641005" data-name="Trazado 641005" d="M193.145,268.844a59.593,59.593,0,0,1-5.673-6.064c-1.27-2.064.793-3.493,2.222-4.127s20.159,15.4,20.159,15.4-15.715-13.968-16.667-14.921-1.587-2.223-.635-4.762,3.969-1.587,5.08-1.428,18.889,15.079,18.889,15.079-10.317-10-11.27-10.793-1.27-2.223-.952-4.127,2.381-1.746,3.81-1.746,23.761,19.842,23.761,19.842l-1.063,10.476,3.781,16.044L217,304.527c-3.016-1.27-8.73-8.7-9.841-10.159s-7.461-12.222-7.461-12.222c-2.54-1.428-6.19-7.143-7.619-8.73s-.952-2.381-.158-3.651c.427-.683,4.574,2.63,8.316,5.838l-.856-.758s-3.154-2.965-6.231-6" transform="translate(-63.996 -84.196)" fill="#ffbe9d"/>
        <path id="Trazado_641006" data-name="Trazado 641006" d="M192.929,286a1.852,1.852,0,0,0,.988.458,3.836,3.836,0,0,0,4.413-2.227,1.853,1.853,0,0,0,.219-1.066c-.056-.011-.134.394-.44.96a3.97,3.97,0,0,1-4.147,2.093c-.636-.09-1.009-.269-1.033-.217" transform="translate(-31.871 -94.854)" fill="#eb996e"/>
        <path id="Trazado_641007" data-name="Trazado 641007" d="M206.16,294.476a1.543,1.543,0,0,0,.937.078,3.583,3.583,0,0,0,3.112-2.989,1.547,1.547,0,0,0-.041-.939,7.509,7.509,0,0,0-.2.888,3.817,3.817,0,0,1-2.914,2.8,7.548,7.548,0,0,0-.9.163" transform="translate(-52.349 -97.353)" fill="#eb996e"/>
        <path id="Trazado_641008" data-name="Trazado 641008" d="M217.54,302.924a2.086,2.086,0,0,0,1.1-.1,4.713,4.713,0,0,0,3.408-3.839,2.09,2.09,0,0,0-.031-1.107c-.056,0-.055.42-.21,1.06a5.085,5.085,0,0,1-3.243,3.652c-.616.229-1.033.278-1.027.333" transform="translate(-71.765 -99.782)" fill="#eb996e"/>
        <path id="Trazado_641009" data-name="Trazado 641009" d="M151.09,334.451c-.08.053,3.628,5.824,8.281,12.889s8.491,12.753,8.571,12.7-3.627-5.823-8.282-12.89-8.49-12.751-8.57-12.7" transform="translate(26.579 -112.033)" fill="#eb996e"/>
        <path id="Trazado_641010" data-name="Trazado 641010" d="M252.459,237.506c-.014.094,6.2,1.082,13.88,2.206s13.917,1.958,13.931,1.863-6.2-1.082-13.881-2.206-13.916-1.957-13.93-1.863" transform="translate(-153.161 -79.557)" fill="#263238"/>
        <path id="Trazado_641011" data-name="Trazado 641011" d="M257.354,241.525c-.015.094,5.578,1.055,12.49,2.147s12.53,1.9,12.546,1.8-5.577-1.055-12.492-2.147-12.529-1.9-12.544-1.8" transform="translate(-158.536 -80.903)" fill="#263238"/>
      </g>
    </g>
    <g id="Grupo_927248" data-name="Grupo 927248">
      <g id="Grupo_927247" data-name="Grupo 927247" clip-path="url(#clip-path)">
        <path id="Trazado_641012" data-name="Trazado 641012" d="M6.39,413.042c0,.1,64.426.173,143.881.173,79.482,0,143.894-.077,143.894-.173s-64.412-.173-143.894-.173c-79.455,0-143.881.077-143.881.173" transform="translate(-3.414 -138.301)" fill="#263238"/>
      </g>
    </g>
  </g>
</svg>
