<svg xmlns="http://www.w3.org/2000/svg" xmlns:xlink="http://www.w3.org/1999/xlink" width="137" height="137.551" viewBox="0 0 137 137.551">
  <defs>
    <filter id="Elipse_4813" x="0" y="0" width="137" height="137" filterUnits="userSpaceOnUse">
      <feOffset dy="3" input="SourceAlpha"/>
      <feGaussianBlur stdDeviation="3" result="blur"/>
      <feFlood flood-opacity="0.161"/>
      <feComposite operator="in" in2="blur"/>
      <feComposite in="SourceGraphic"/>
    </filter>
  </defs>
  <g id="_23" data-name="23" transform="translate(-522 -5675)">
    <g transform="matrix(1, 0, 0, 1, 522, 5675)" filter="url(#Elipse_4813)">
      <circle id="Elipse_4813-2" data-name="Elipse 4813" cx="59.5" cy="59.5" r="59.5" transform="translate(9 6)" fill="#4d793f"/>
    </g>
    <g id="hablar" transform="translate(547.765 5705.875)">
      <path id="Trazado_653676" data-name="Trazado 653676" d="M90.8,54.863h8.771V52.055a12.4,12.4,0,0,1-5.713-10.43V36.763a1.218,1.218,0,0,1,.8-1.143c7.3-2.693,12.722-8.133,14.886-10.6a1.219,1.219,0,0,1,1.791-.045,15.5,15.5,0,0,0,7.536,4.4,1.217,1.217,0,0,1,.864,1.165v1.337a6.485,6.485,0,0,1,5.5,2.022V26.411a18.438,18.438,0,1,0-36.877,0V52.418A2.445,2.445,0,0,0,90.8,54.863Zm0,0" transform="translate(-69.551 -6.311)" fill="#576574"/>
      <path id="Trazado_653677" data-name="Trazado 653677" d="M94.605,52.422V45.886a12.254,12.254,0,0,1-.748-4.257V36.766a1.218,1.218,0,0,1,.748-1.122V26.416A18.444,18.444,0,0,1,109.919,8.241,18.451,18.451,0,0,0,88.355,26.416V52.422A2.445,2.445,0,0,0,90.8,54.867h6.25a2.445,2.445,0,0,1-2.445-2.445Zm0,0" transform="translate(-69.551 -6.314)" fill="#3e4b5a"/>
      <path id="Trazado_653678" data-name="Trazado 653678" d="M217.994,163.088a13.883,13.883,0,0,1-5.682,10.858v2.427h8.748a2.445,2.445,0,0,0,2.444-2.444V161.461a6.281,6.281,0,0,1-5.511,1.627Zm0,0" transform="translate(-167.682 -127.821)" fill="#576574"/>
      <path id="Trazado_653679" data-name="Trazado 653679" d="M122,226.947a13.339,13.339,0,0,0,19.617,0l2.079-2.209-2.93-1.135a1.817,1.817,0,0,1-1.161-1.7v-6.523a13.066,13.066,0,0,1-7.42,2.3,13.74,13.74,0,0,1-7.838-2.337v6.491a1.912,1.912,0,0,1-1.222,1.784l-3.114,1.207Zm0,0" transform="translate(-94.615 -170.483)" fill="#ffbeab"/>
      <path id="Trazado_653680" data-name="Trazado 653680" d="M130.608,217.605a13.482,13.482,0,0,1-6.256-2.254v6.491a1.914,1.914,0,0,1-1.222,1.784l-3.114,1.207L122,226.947a13.459,13.459,0,0,0,8.6,4.241Zm0,0" transform="translate(-94.615 -170.483)" fill="#f7af9f"/>
      <path id="Trazado_653681" data-name="Trazado 653681" d="M75.729,289.754a5.467,5.467,0,0,0-2.521.056l-10.343,2.647a.67.67,0,0,1-.728-1.016l1.283-1.963a5.556,5.556,0,0,0-.657-6.919,25.841,25.841,0,0,1-6.956-22.351l-.9-.348L52.8,262.1a12.89,12.89,0,0,1-18.957,0l-2.024-2.151L15.692,266.2a12.789,12.789,0,0,0-7.465,11.579v29.744a3.4,3.4,0,0,0,3.4,3.4H75.357a3.4,3.4,0,0,0,3.4-3.4v-17.3a25.7,25.7,0,0,1-3.029-.471Zm0,0" transform="translate(-6.117 -205.718)" fill="#54a0ff"/>
      <path id="Trazado_653682" data-name="Trazado 653682" d="M14.481,327.324V294.23a12.261,12.261,0,0,1,4.139-9.363L15.694,286a12.789,12.789,0,0,0-7.464,11.579v29.743a3.4,3.4,0,0,0,3.4,3.4h6.25A3.4,3.4,0,0,1,14.481,327.324Zm0,0" transform="translate(-6.12 -225.515)" fill="#338def"/>
      <path id="Trazado_653683" data-name="Trazado 653683" d="M274.38,162.258a26,26,0,0,0-33.132,39.724,5.379,5.379,0,0,1,.632,6.66L240.6,210.6a.879.879,0,0,0,.953,1.332l10.343-2.647a5.3,5.3,0,0,1,2.425-.055,25.945,25.945,0,0,0,15.218-1.269c19.242-7.686,22.236-34.016,4.842-45.708Zm0,0" transform="translate(-184.75 -124.995)" fill="#feca57"/>
      <path id="Trazado_653684" data-name="Trazado 653684" d="M248.132,208.644a5.38,5.38,0,0,0-.632-6.66,25.929,25.929,0,0,1,15.607-43.9,25.967,25.967,0,0,0-21.858,43.9,5.379,5.379,0,0,1,.632,6.66l-1.283,1.963a.879.879,0,0,0,.953,1.332l5.317-1.362Zm0,0" transform="translate(-184.751 -124.998)" fill="#f4b537"/>
      <path id="Trazado_653685" data-name="Trazado 653685" d="M240.767,121.762v9.974c0,.12-.006.238-.009.356a5.32,5.32,0,1,0,.009-10.33Zm0,0" transform="translate(-190.201 -96.313)" fill="#ffbeab"/>
      <path id="Trazado_653686" data-name="Trazado 653686" d="M245.891,123.32a5.651,5.651,0,0,0-5.125-1.559v9.974c0,.12-.006.238-.009.356a5.651,5.651,0,0,0,5.134-1.557Zm0,0" transform="translate(-190.2 -96.313)" fill="#f7af9f"/>
      <path id="Trazado_653687" data-name="Trazado 653687" d="M139.349,90.32a18.914,18.914,0,0,1-7.93-4.992,1.22,1.22,0,0,0-1.791.045c-2.164,2.468-7.985,8.5-15.279,11.192a1.219,1.219,0,0,0-.8,1.143v4.863a13.332,13.332,0,0,0,26.662,0V91.486a1.218,1.218,0,0,0-.864-1.165Zm0,0" transform="translate(-89.497 -67.256)" fill="#ffcdbf"/>
      <path id="Trazado_653688" data-name="Trazado 653688" d="M119.8,136.332v-8.727a29.853,29.853,0,0,1-5.455,2.722,1.219,1.219,0,0,0-.8,1.143v4.863A13.475,13.475,0,0,0,130.09,149.12,13.061,13.061,0,0,1,119.8,136.332Zm0,0" transform="translate(-89.497 -101.018)" fill="#ffbeab"/>
      <g id="Grupo_946897" data-name="Grupo 946897" transform="translate(0.5 0)">
        <path id="Trazado_653689" data-name="Trazado 653689" d="M320.765,243.512H298.032a1.563,1.563,0,0,0,0,3.125h22.734a1.563,1.563,0,0,0,0-3.125Zm0,0" transform="translate(-234.804 -192.777)" fill="#020202"/>
        <path id="Trazado_653690" data-name="Trazado 653690" d="M320.765,277.16H298.032a1.563,1.563,0,1,0,0,3.125h22.734a1.563,1.563,0,1,0,0-3.125Zm0,0" transform="translate(-234.804 -219.414)" fill="#020202"/>
        <path id="Trazado_653691" data-name="Trazado 653691" d="M320.765,310.809H298.032a1.563,1.563,0,0,0,0,3.125h22.734a1.563,1.563,0,0,0,0-3.125Zm0,0" transform="translate(-234.804 -246.052)" fill="#020202"/>
        <path id="Trazado_653692" data-name="Trazado 653692" d="M99.121,55.814a1.563,1.563,0,0,0,3.1-.378A27.441,27.441,0,0,0,57.339,37.925V34.5a6.613,6.613,0,0,0,0-7.962V20a20,20,0,1,0-40,0V46.009a4.011,4.011,0,0,0,4.007,4.007h6.784v1.246a.352.352,0,0,1-.224.326L8.962,58.931l-.029.012-.022.009A14.253,14.253,0,0,0,.5,71.966V101.71a4.97,4.97,0,0,0,4.965,4.965H33.682a1.563,1.563,0,0,0,0-3.125H16.33V74.891a1.563,1.563,0,0,0-3.126,0V103.55H5.465a1.842,1.842,0,0,1-1.839-1.839V71.966a10.953,10.953,0,0,1,1.187-5.083,11.569,11.569,0,0,1,5.3-5.045l15.126-5.864,1.3,1.384a14.442,14.442,0,0,0,21.208.026,27.437,27.437,0,0,0,7.7,20.409l.039.041A3.968,3.968,0,0,1,56.6,80.562c.018,1.5-.59,2.152-1.933,4.207a2.234,2.234,0,0,0,2.423,3.385l1.239-.317V103.55H40.974a1.563,1.563,0,1,0,0,3.125H69.192a4.97,4.97,0,0,0,4.965-4.965V86.078A27.369,27.369,0,0,0,102.068,63.17a1.562,1.562,0,1,0-3.084-.5A24.3,24.3,0,0,1,69.9,82.411a7.061,7.061,0,0,0-3.242.068l-8.118,2.078.027-.042a7.164,7.164,0,0,0-.847-8.865,24.209,24.209,0,1,1,41.4-19.836ZM61.452,87.037c8.43-2.158,5.986-1.778,9.579-1.245V101.71a1.842,1.842,0,0,1-1.839,1.84h-7.74ZM28.126,46.89H21.342a.883.883,0,0,1-.881-.881V20a16.876,16.876,0,1,1,33.752,0v4.233a7.419,7.419,0,0,0-2-.413,2.768,2.768,0,0,0-1.937-2.346l-.019-.007A17.33,17.33,0,0,1,43,16.885a2.78,2.78,0,0,0-4.087.1c-2.086,2.378-7.687,8.187-14.647,10.756a2.794,2.794,0,0,0-1.817,2.609v4.863a14.635,14.635,0,0,0,5.682,11.6Zm20.98-22.507V35.216a11.77,11.77,0,0,1-23.536,0V30.591c5.8-2.2,11.359-6.687,15.443-11.266a20.733,20.733,0,0,0,8.093,5.058ZM45.5,55.215a11.373,11.373,0,0,1-8.34,3.662c-3.712,0-6.4-1.6-8.775-4.123l.65-.252a3.5,3.5,0,0,0,2.219-3.241V48.654a16.074,16.074,0,0,0,6.276,1.265A14.843,14.843,0,0,0,43.384,48.7v2.626a3.4,3.4,0,0,0,2.159,3.152l.474.183Zm3-2.945c-1.932-.749-1.987-.711-1.987-.944V50.016h2.639q-.375,1.113-.653,2.255Zm5.717-11.23a27.714,27.714,0,0,0-3.8,5.849h-3.9v-.043a14.723,14.723,0,0,0,5.581-9.63,7.353,7.353,0,0,0,2.123-.42v4.244ZM52.231,34.07V26.961A3.564,3.564,0,0,1,52.231,34.07Zm0,0" transform="translate(-0.5 0)" fill="#020202"/>
      </g>
    </g>
  </g>
</svg>
