<svg xmlns="http://www.w3.org/2000/svg" xmlns:xlink="http://www.w3.org/1999/xlink" width="297.153" height="208.94" viewBox="0 0 297.153 208.94">
  <defs>
    <filter id="Trazado_114355" x="0" y="0" width="297.153" height="208.94" filterUnits="userSpaceOnUse">
      <feOffset dy="3" input="SourceAlpha"/>
      <feGaussianBlur stdDeviation="3" result="blur"/>
      <feFlood flood-opacity="0.161"/>
      <feComposite operator="in" in2="blur"/>
      <feComposite in="SourceGraphic"/>
    </filter>
    <clipPath id="clip-path">
      <rect id="Rectángulo_335184" data-name="Rectángulo 335184" width="189.265" height="197.149" fill="none"/>
    </clipPath>
    <filter id="Trazado_641874" x="50.667" y="5.568" width="63.514" height="83.971" filterUnits="userSpaceOnUse">
      <feOffset dy="3" input="SourceAlpha"/>
      <feGaussianBlur stdDeviation="3" result="blur-2"/>
      <feFlood flood-opacity="0.161"/>
      <feComposite operator="in" in2="blur-2"/>
      <feComposite in="SourceGraphic"/>
    </filter>
    <clipPath id="clip-path-5">
      <rect id="Rectángulo_335172" data-name="Rectángulo 335172" width="16.392" height="25.768" fill="none"/>
    </clipPath>
    <clipPath id="clip-path-6">
      <rect id="Rectángulo_335173" data-name="Rectángulo 335173" width="4.194" height="4.194" fill="none"/>
    </clipPath>
    <clipPath id="clip-path-8">
      <rect id="Rectángulo_335175" data-name="Rectángulo 335175" width="14.453" height="24.794" fill="none"/>
    </clipPath>
    <clipPath id="clip-path-9">
      <rect id="Rectángulo_335176" data-name="Rectángulo 335176" width="2.882" height="2.886" fill="none"/>
    </clipPath>
    <clipPath id="clip-path-10">
      <rect id="Rectángulo_335177" data-name="Rectángulo 335177" width="19.537" height="20.865" fill="none"/>
    </clipPath>
    <clipPath id="clip-path-11">
      <rect id="Rectángulo_335178" data-name="Rectángulo 335178" width="2.826" height="2.858" fill="none"/>
    </clipPath>
  </defs>
  <g id="Grupo_947500" data-name="Grupo 947500" transform="translate(-651.424 -4184.795)">
    <g transform="matrix(1, 0, 0, 1, 651.42, 4184.79)" filter="url(#Trazado_114355)">
      <path id="Trazado_114355-2" data-name="Trazado 114355" d="M313.339,346.849c6.106,0,33.633.007,68.558,0,9.643,0,19.853-.005,30.329-.009,7.949,0,16.054-.007,24.186-.012l13.775-.009c61.47-.048,71.267.639,81.023.029,18.149,0,64.633-70.531,9.3-116.841-21.488-17.982,6.09-41.873-29.6-59.816-23.47-11.8-40.518,8.93-68.851,1.462-20.932-5.517-25.19-18.459-66.573-14.873-39.8,3.449-40.6,36.124-27.972,63.106,7.971,17.035-31.111,11.775-49.184,37.2C267.477,300.481,313.065,346.2,313.339,346.849Z" transform="translate(-278.62 -150.16)" fill="#ffe293"/>
    </g>
    <g id="Grupo_927506" data-name="Grupo 927506" transform="translate(699.568 4196.362)">
      <g id="Grupo_927543" data-name="Grupo 927543" clip-path="url(#clip-path)">
        <rect id="Rectángulo_335161" data-name="Rectángulo 335161" width="45.514" height="65.971" transform="translate(13.802 0.001)" fill="#e0e0e0"/>
        <g transform="matrix(1, 0, 0, 1, -48.14, -11.57)" filter="url(#Trazado_641874)">
          <path id="Trazado_641874-2" data-name="Trazado 641874" d="M0,0H45.514V65.971H0Z" transform="translate(59.67 11.57)" fill="#f5f5f5"/>
        </g>
        <rect id="Rectángulo_335163" data-name="Rectángulo 335163" width="34.204" height="51.68" transform="translate(17.177 7.146)" fill="#fff"/>
        <g id="Grupo_927507" data-name="Grupo 927507">
          <g id="Grupo_927506-2" data-name="Grupo 927506" clip-path="url(#clip-path)">
            <path id="Trazado_641659" data-name="Trazado 641659" d="M73.333,67.866s0-.087-.007-.253,0-.414-.007-.733c0-.65-.007-1.6-.014-2.835-.007-2.477-.017-6.086-.031-10.646-.014-9.113-.033-22.018-.056-37.214l.114.114-34.2.01h0l.124-.124c-.01,19.5-.018,37.471-.025,51.68l-.1-.1,24.9.052,6.878.025,1.806.011c.409,0,.624.01.624.01s-.2.007-.6.01l-1.787.011-6.856.025-24.957.052h-.1v-.1c-.007-14.209-.016-32.184-.025-51.68v-.124h.128l34.2.01h.114v.114c-.023,15.227-.042,28.158-.056,37.289-.013,4.549-.024,8.149-.031,10.62-.006,1.225-.011,2.168-.014,2.812,0,.313-.005.553-.007.72s-.007.24-.007.24" transform="translate(-21.952 -9.04)" fill="#e0e0e0"/>
            <path id="Trazado_641660" data-name="Trazado 641660" d="M122.77,0a7.867,7.867,0,0,1-.811,1.179c-.529.707-1.279,1.669-2.135,2.708s-1.657,1.961-2.25,2.616a7.874,7.874,0,0,1-1,1.022,8.523,8.523,0,0,1,.869-1.136l2.191-2.659,2.189-2.659A8.512,8.512,0,0,1,122.77,0" transform="translate(-65.606 0)" fill="#e0e0e0"/>
            <path id="Trazado_641661" data-name="Trazado 641661" d="M117.923,134.172a42.343,42.343,0,0,0,5.966,7.461" transform="translate(-66.367 -75.512)" fill="#fff"/>
            <path id="Trazado_641662" data-name="Trazado 641662" d="M123.886,141.632a6.822,6.822,0,0,1-1.04-.946,33.395,33.395,0,0,1-4.232-5.292,6.777,6.777,0,0,1-.694-1.223,9.462,9.462,0,0,1,.839,1.125c.5.7,1.207,1.667,2.029,2.7s1.608,1.928,2.185,2.572a9.432,9.432,0,0,1,.912,1.066" transform="translate(-66.365 -75.511)" fill="#e0e0e0"/>
            <path id="Trazado_641663" data-name="Trazado 641663" d="M26.34,141.307l5.962-7.355" transform="translate(-14.824 -75.388)" fill="#fff"/>
            <path id="Trazado_641664" data-name="Trazado 641664" d="M32.3,133.951a45.37,45.37,0,0,1-2.885,3.756,45.225,45.225,0,0,1-3.077,3.6,45.476,45.476,0,0,1,2.885-3.756,45.455,45.455,0,0,1,3.077-3.6" transform="translate(-14.822 -75.387)" fill="#e0e0e0"/>
            <path id="Trazado_641665" data-name="Trazado 641665" d="M26.353,0A41.137,41.137,0,0,1,29.246,3.46a41.086,41.086,0,0,1,2.7,3.613,41.267,41.267,0,0,1-2.894-3.46A41.121,41.121,0,0,1,26.353,0" transform="translate(-14.83 0)" fill="#e0e0e0"/>
            <rect id="Rectángulo_335164" data-name="Rectángulo 335164" width="11.453" height="32.518" transform="translate(29.272 17.639)" fill="#e0e0e0"/>
            <rect id="Rectángulo_335165" data-name="Rectángulo 335165" width="98.043" height="45.216" transform="translate(0 91.871)" fill="#f5f5f5"/>
            <path id="Trazado_641666" data-name="Trazado 641666" d="M98.6,256.283H5.132V215.577H98.6Zm-92.855-.61H97.988V216.187H5.742Z" transform="translate(-2.888 -121.327)" fill="#e0e0e0"/>
            <rect id="Rectángulo_335166" data-name="Rectángulo 335166" width="23.951" height="45.216" transform="translate(98.043 91.871)" fill="#e0e0e0"/>
            <path id="Trazado_641667" data-name="Trazado 641667" d="M5.677,244.074H98.532a.123.123,0,0,0,0-.246H5.677a.123.123,0,0,0,0,.246" transform="translate(-3.128 -137.227)" fill="#e0e0e0"/>
            <path id="Trazado_641668" data-name="Trazado 641668" d="M112.218,228.144a101.7,101.7,0,0,0,.031-12.282.125.125,0,0,0-.25,0,101.7,101.7,0,0,0,.032,12.282.093.093,0,0,0,.187,0" transform="translate(-62.938 -121.419)" fill="#e0e0e0"/>
            <path id="Trazado_641669" data-name="Trazado 641669" d="M166.628,228.435a1.265,1.265,0,1,1-1.265-1.265,1.265,1.265,0,0,1,1.265,1.265" transform="translate(-92.355 -127.852)" fill="#e0e0e0"/>
            <path id="Trazado_641670" data-name="Trazado 641670" d="M55.167,228.435A1.265,1.265,0,1,1,53.9,227.17a1.265,1.265,0,0,1,1.265,1.265" transform="translate(-29.624 -127.852)" fill="#e0e0e0"/>
            <path id="Trazado_641671" data-name="Trazado 641671" d="M111.661,260.5a1.265,1.265,0,1,1-1.265-1.265,1.265,1.265,0,0,1,1.265,1.265" transform="translate(-61.419 -145.899)" fill="#e0e0e0"/>
            <path id="Trazado_641672" data-name="Trazado 641672" d="M20.313,313.558l-5.048,28.388h2.84l9.307-28.388Z" transform="translate(-8.592 -176.471)" fill="#e0e0e0"/>
            <path id="Trazado_641673" data-name="Trazado 641673" d="M199.25,313.558l4.221,28.437h-2.839l-8.48-28.437Z" transform="translate(-108.143 -176.471)" fill="#e0e0e0"/>
            <path id="Trazado_641674" data-name="Trazado 641674" d="M242.6,313.558l4.782,28.437h-2.839L235.5,313.558Z" transform="translate(-132.542 -176.471)" fill="#e0e0e0"/>
            <path id="Trazado_641675" data-name="Trazado 641675" d="M111.466,289.771a1.265,1.265,0,1,1-1.265-1.265,1.265,1.265,0,0,1,1.265,1.265" transform="translate(-61.309 -162.372)" fill="#e0e0e0"/>
            <path id="Trazado_641676" data-name="Trazado 641676" d="M5.677,276.1H98.532a.123.123,0,0,0,0-.246H5.677a.123.123,0,0,0,0,.246" transform="translate(-3.128 -155.252)" fill="#e0e0e0"/>
            <path id="Trazado_641677" data-name="Trazado 641677" d="M398.247,285.731c-.042.052-.388-.156-.774-.466s-.665-.6-.624-.654.388.157.774.466.665.6.624.654" transform="translate(-223.345 -160.176)" fill="#e0e0e0"/>
            <path id="Trazado_641678" data-name="Trazado 641678" d="M409.555,241.623a12.178,12.178,0,0,0-.36-4.376,3.848,3.848,0,0,0-7.236-.878,12.114,12.114,0,0,0-1.511,4.768,168.4,168.4,0,0,0-2.064,34.609l6.732.944c2.957-12.081,3.9-22.641,4.438-35.067" transform="translate(-224.122 -131.809)" fill="#2b6e17"/>
            <path id="Trazado_641679" data-name="Trazado 641679" d="M407.984,234.232a.386.386,0,0,1-.03.108l-.111.305-.449,1.163c-.094.254-.219.528-.319.841l-.327,1.02-.377,1.17-.348,1.335a58.535,58.535,0,0,0-1.3,6.662c-.365,2.532-.6,5.336-.791,8.282-.344,5.9-.4,11.253-.55,15.125-.072,1.936-.138,3.5-.212,4.584q-.054.787-.084,1.245l-.028.323a.37.37,0,0,1-.018.11.389.389,0,0,1-.007-.111c0-.087,0-.194,0-.324q.014-.458.039-1.247c.045-1.082.086-2.648.136-4.584.108-3.871.135-9.226.48-15.134.188-2.951.434-5.761.812-8.3a55.645,55.645,0,0,1,1.355-6.675l.365-1.335q.211-.62.4-1.169t.347-1.017c.107-.312.239-.585.34-.836l.491-1.148.133-.3a.386.386,0,0,1,.053-.1" transform="translate(-226.827 -131.826)" fill="#e0e0e0"/>
            <path id="Trazado_641680" data-name="Trazado 641680" d="M413.755,234.241a4.816,4.816,0,0,1,.822,1.393,10.3,10.3,0,0,1,.614,4.355c-.179,3.72-.512,8.846-.954,14.506s-.939,10.777-1.336,14.476c-.2,1.85-.371,3.345-.5,4.378l-.153,1.188-.046.308a.337.337,0,0,1-.024.1.378.378,0,0,1,0-.107c.006-.084.013-.187.022-.311q.04-.44.108-1.193l.421-4.384c.354-3.7.82-8.82,1.265-14.478s.8-10.784,1.025-14.493a10.547,10.547,0,0,0-.531-4.315,9.068,9.068,0,0,0-.736-1.427" transform="translate(-231.975 -131.831)" fill="#e0e0e0"/>
            <path id="Trazado_641681" data-name="Trazado 641681" d="M423.28,272.936a7.235,7.235,0,0,1-2.471-.886,7.232,7.232,0,0,1,2.471.886" transform="translate(-236.832 -153.102)" fill="#e0e0e0"/>
            <path id="Trazado_641682" data-name="Trazado 641682" d="M425.063,258.388a8.005,8.005,0,0,1-2.526,1.13,8.006,8.006,0,0,1,2.526-1.13" transform="translate(-237.805 -145.415)" fill="#e0e0e0"/>
            <path id="Trazado_641683" data-name="Trazado 641683" d="M424.793,245.327a4.2,4.2,0,0,1-1.991-.137,4.191,4.191,0,0,1,1.991.137" transform="translate(-237.954 -137.954)" fill="#e0e0e0"/>
            <path id="Trazado_641684" data-name="Trazado 641684" d="M410.019,235.106c-.056.035-.351-.332-.658-.82s-.511-.913-.455-.949.351.332.658.821.511.913.455.948" transform="translate(-230.128 -131.321)" fill="#e0e0e0"/>
            <path id="Trazado_641685" data-name="Trazado 641685" d="M403.757,244.947a3.837,3.837,0,0,1-1.907-.041,3.838,3.838,0,0,1,1.907.041" transform="translate(-226.162 -137.776)" fill="#e0e0e0"/>
            <path id="Trazado_641686" data-name="Trazado 641686" d="M399.967,259.61a2.338,2.338,0,0,1-1.006-.276c-.531-.214-.941-.438-.916-.5a2.331,2.331,0,0,1,1.006.276c.531.214.941.438.916.5" transform="translate(-224.02 -145.664)" fill="#e0e0e0"/>
            <path id="Trazado_641687" data-name="Trazado 641687" d="M399.77,273.616c.014.065-.37.2-.856.3s-.892.132-.906.067.37-.2.857-.3.892-.132.906-.067" transform="translate(-223.999 -153.972)" fill="#e0e0e0"/>
            <path id="Trazado_641688" data-name="Trazado 641688" d="M397.87,294.93c.012.066-.4.193-.909.285a1.959,1.959,0,0,1-.952.049c-.012-.066.4-.193.909-.285a1.964,1.964,0,0,1,.952-.048" transform="translate(-222.874 -165.966)" fill="#e0e0e0"/>
            <path id="Trazado_641689" data-name="Trazado 641689" d="M396.988,306.729c.031.059-.308.3-.758.537s-.84.383-.871.324.308-.3.759-.537.839-.383.87-.324" transform="translate(-222.508 -172.621)" fill="#e0e0e0"/>
            <path id="Trazado_641690" data-name="Trazado 641690" d="M407.251,317.6c-.058.033-.354-.376-.661-.912a2.714,2.714,0,0,1-.452-1.032c.058-.033.354.375.661.912a2.708,2.708,0,0,1,.452,1.032" transform="translate(-228.57 -177.65)" fill="#e0e0e0"/>
            <path id="Trazado_641691" data-name="Trazado 641691" d="M409.353,297.9c.046.047-.283.446-.736.89s-.858.766-.9.718.283-.446.736-.89.858-.766.9-.718" transform="translate(-229.459 -167.657)" fill="#e0e0e0"/>
            <path id="Trazado_641692" data-name="Trazado 641692" d="M409.317,284.6c-.049.045-.354-.206-.683-.56s-.555-.678-.506-.724.354.206.683.56.555.679.506.724" transform="translate(-229.691 -159.448)" fill="#e0e0e0"/>
            <path id="Trazado_641693" data-name="Trazado 641693" d="M410.944,271.375c.049.045-.225.432-.613.865s-.743.749-.793.7.226-.431.614-.865.743-.749.793-.7" transform="translate(-230.485 -152.728)" fill="#e0e0e0"/>
            <path id="Trazado_641694" data-name="Trazado 641694" d="M411.843,258.621c-.047.047-.43-.254-.856-.673s-.734-.8-.688-.844.43.254.856.673.734.8.688.844" transform="translate(-230.915 -144.696)" fill="#e0e0e0"/>
            <path id="Trazado_641695" data-name="Trazado 641695" d="M414.559,245.979a2.353,2.353,0,0,1-.43.956c-.295.494-.579.866-.636.832a2.36,2.36,0,0,1,.43-.955c.295-.494.58-.867.637-.832" transform="translate(-232.709 -138.436)" fill="#e0e0e0"/>
            <path id="Trazado_641696" data-name="Trazado 641696" d="M418.644,232.451a2.277,2.277,0,0,1-.38.957c-.268.5-.533.874-.592.842a2.271,2.271,0,0,1,.38-.957c.268-.5.533-.874.592-.842" transform="translate(-235.06 -130.823)" fill="#e0e0e0"/>
            <path id="Trazado_641697" data-name="Trazado 641697" d="M422.724,238.574c.029.06-.24.248-.6.421s-.677.264-.705.2.241-.248.6-.421.677-.264.705-.2" transform="translate(-237.173 -134.26)" fill="#e0e0e0"/>
            <path id="Trazado_641698" data-name="Trazado 641698" d="M421.351,285.823a4.106,4.106,0,0,1-2.458-1.049,51.4,51.4,0,0,1,2.458,1.049" transform="translate(-235.753 -160.267)" fill="#e0e0e0"/>
            <path id="Trazado_641699" data-name="Trazado 641699" d="M420.287,297.428c.013.065-.393.2-.905.3a1.957,1.957,0,0,1-.951.061c-.013-.065.393-.2.905-.3a1.96,1.96,0,0,1,.951-.061" transform="translate(-235.494 -167.373)" fill="#e0e0e0"/>
            <path id="Trazado_641700" data-name="Trazado 641700" d="M418.26,312.41a3.814,3.814,0,0,1-1.668-2.1,243.431,243.431,0,0,0,1.668,2.1" transform="translate(-234.454 -174.64)" fill="#e0e0e0"/>
            <path id="Trazado_641701" data-name="Trazado 641701" d="M395.66,321.662c-.043-.051.23-.355.611-.681s.724-.548.767-.5-.23.355-.611.681-.724.548-.767.5" transform="translate(-222.676 -180.364)" fill="#e0e0e0"/>
            <path id="Trazado_641702" data-name="Trazado 641702" d="M381.772,280.836c-.438-1.368-1.26-2.963-2.7-2.984a2.387,2.387,0,0,0-2.02,1.352,4.984,4.984,0,0,0-.546,2.477,64.528,64.528,0,0,0,3.087,17.932h5.256a62.456,62.456,0,0,0-3.081-18.777" transform="translate(-211.899 -156.375)" fill="#2b6e17"/>
            <path id="Trazado_641703" data-name="Trazado 641703" d="M355.178,258.961a5.843,5.843,0,0,0-5.472-4.673c-2.323.407-3.224,2.695-3.5,5.037a16.665,16.665,0,0,0,1.17,6.921l6.919,21.641,6.539-.714c-2.07-9.665-3.258-18.624-5.656-28.213" transform="translate(-194.812 -143.114)" fill="#2b6e17"/>
            <path id="Trazado_641704" data-name="Trazado 641704" d="M381.249,277.852a5.561,5.561,0,0,0-.446.744,4.9,4.9,0,0,0-.246,2.324c.1,1,.216,2.2.383,3.521s.409,2.767.7,4.277c.595,3.02,1.264,5.729,1.689,7.7.216.987.378,1.789.48,2.344l.11.642a.115.115,0,1,1-.048.01c-.042-.172-.092-.38-.154-.632l-.554-2.325c-.467-1.964-1.163-4.668-1.759-7.7-.3-1.514-.529-2.967-.689-4.3-.084-.664-.139-1.3-.193-1.89s-.113-1.14-.14-1.647a4.768,4.768,0,0,1,.331-2.374,2.084,2.084,0,0,1,.53-.7" transform="translate(-214.073 -156.376)" fill="#e0e0e0"/>
            <path id="Trazado_641705" data-name="Trazado 641705" d="M351.955,253.862a8.75,8.75,0,0,0-.79,1.062,7.467,7.467,0,0,0-1,3.422,15.831,15.831,0,0,0,.809,5.264l1.866,6.324,3.347,11.5.988,3.494c.107.4.192.713.257.953a1.887,1.887,0,0,1,.074.337,1.823,1.823,0,0,1-.121-.323l-.3-.94-1.061-3.473L352.614,270l-1.849-6.331a15.628,15.628,0,0,1-.765-5.336,7.335,7.335,0,0,1,1.086-3.46,4.034,4.034,0,0,1,.87-1.012" transform="translate(-196.966 -142.874)" fill="#e0e0e0"/>
            <path id="Trazado_641706" data-name="Trazado 641706" d="M363.547,286.4a1.88,1.88,0,0,1-.148-.313c-.086-.21-.225-.515-.372-.92-.312-.8-.711-1.987-1.124-3.473s-.824-3.276-1.219-5.274l-1.232-6.505c-.455-2.3-.961-4.48-1.549-6.424A35.8,35.8,0,0,0,356,258.457a26.777,26.777,0,0,0-1.763-3.177c-.225-.366-.429-.631-.551-.822a1.846,1.846,0,0,1-.183-.295,1.9,1.9,0,0,1,.222.266c.134.182.352.439.589.8a23.728,23.728,0,0,1,1.838,3.155,34.118,34.118,0,0,1,1.966,5.048,64.667,64.667,0,0,1,1.573,6.442c.43,2.308.84,4.506,1.213,6.509s.773,3.787,1.166,5.272.764,2.673,1.049,3.485c.133.409.258.719.33.934a1.916,1.916,0,0,1,.1.331" transform="translate(-198.95 -143.044)" fill="#e0e0e0"/>
            <path id="Trazado_641707" data-name="Trazado 641707" d="M347.107,279.13c.016.065-.34.206-.794.316s-.836.147-.851.083.34-.206.794-.317.835-.147.851-.083" transform="translate(-194.426 -157.077)" fill="#e0e0e0"/>
            <path id="Trazado_641708" data-name="Trazado 641708" d="M344.794,268.8a8.081,8.081,0,0,1-2.212.087,3.8,3.8,0,0,1,2.212-.087" transform="translate(-192.806 -151.211)" fill="#e0e0e0"/>
            <path id="Trazado_641709" data-name="Trazado 641709" d="M347.479,258.067c-.043.051-.4-.18-.793-.515s-.681-.648-.638-.7.4.18.794.515.681.648.638.7" transform="translate(-194.754 -144.553)" fill="#e0e0e0"/>
            <path id="Trazado_641710" data-name="Trazado 641710" d="M353.627,251.007c.066.015.048.333.038.717s-.012.7-.08.714-.174-.309-.161-.721.139-.726.2-.71" transform="translate(-198.908 -141.267)" fill="#e0e0e0"/>
            <path id="Trazado_641711" data-name="Trazado 641711" d="M362.028,255.069c.054.038-.105.36-.357.719s-.5.62-.554.582.105-.36.357-.72.5-.62.554-.581" transform="translate(-203.232 -143.551)" fill="#e0e0e0"/>
            <path id="Trazado_641712" data-name="Trazado 641712" d="M367.2,265.562c.025.062-.313.258-.756.438s-.822.277-.847.216.313-.258.756-.438.822-.277.847-.216" transform="translate(-205.757 -149.448)" fill="#e0e0e0"/>
            <path id="Trazado_641713" data-name="Trazado 641713" d="M370.145,276.382a3.019,3.019,0,0,1-2.168.491,21.565,21.565,0,0,1,2.168-.491" transform="translate(-207.098 -155.54)" fill="#e0e0e0"/>
            <path id="Trazado_641714" data-name="Trazado 641714" d="M356.045,271.542c-.064-.02-.017-.347.1-.73s.269-.678.332-.658.017.346-.1.73-.268.678-.332.658" transform="translate(-200.367 -152.043)" fill="#e0e0e0"/>
            <path id="Trazado_641715" data-name="Trazado 641715" d="M358.414,284.5a2.269,2.269,0,0,1,.3-.982c.224-.516.456-.914.516-.887a2.258,2.258,0,0,1-.3.983c-.224.516-.456.913-.516.887" transform="translate(-201.708 -159.063)" fill="#e0e0e0"/>
            <path id="Trazado_641716" data-name="Trazado 641716" d="M350.264,289.849c-.026.063-.44-.051-.942-.207s-.906-.3-.892-.367a1.77,1.77,0,0,1,.964.137c.513.16.9.376.87.436" transform="translate(-196.097 -162.789)" fill="#e0e0e0"/>
            <path id="Trazado_641717" data-name="Trazado 641717" d="M354.178,301.684c.038.054-.242.32-.626.594s-.727.453-.766.4.241-.32.626-.594.727-.452.766-.4" transform="translate(-198.547 -169.783)" fill="#e0e0e0"/>
            <path id="Trazado_641718" data-name="Trazado 641718" d="M356.592,312.691c.016.065-.331.2-.774.312s-.815.143-.831.078.331-.2.774-.312.815-.143.831-.078" transform="translate(-199.787 -175.965)" fill="#e0e0e0"/>
            <path id="Trazado_641719" data-name="Trazado 641719" d="M371.279,285.6c.034.056-.263.292-.694.454s-.81.181-.821.117.327-.187.737-.342.745-.287.779-.229" transform="translate(-208.104 -160.731)" fill="#e0e0e0"/>
            <path id="Trazado_641720" data-name="Trazado 641720" d="M373.413,301.879c-.028.06-.381-.046-.788-.238s-.714-.4-.686-.456.381.046.788.238.714.4.686.456" transform="translate(-209.327 -169.498)" fill="#e0e0e0"/>
            <path id="Trazado_641721" data-name="Trazado 641721" d="M376.419,314.055a2.492,2.492,0,0,1-1.041-.278c-.551-.216-.978-.441-.953-.5a4.834,4.834,0,0,1,1.994.782" transform="translate(-210.727 -176.302)" fill="#e0e0e0"/>
            <path id="Trazado_641722" data-name="Trazado 641722" d="M359.245,322.862c-.033-.06.4-.349.891-.74s.879-.737.93-.691-.265.476-.781.88a2.155,2.155,0,0,1-1.04.551" transform="translate(-202.183 -180.899)" fill="#e0e0e0"/>
            <path id="Trazado_641723" data-name="Trazado 641723" d="M368.173,316.445c-.068.008-.16-.352-.325-.773s-.335-.749-.279-.79.329.25.5.7.164.854.1.859" transform="translate(-206.863 -177.214)" fill="#e0e0e0"/>
            <path id="Trazado_641724" data-name="Trazado 641724" d="M364.985,302.663c-.039.054-.313-.077-.612-.292s-.512-.434-.473-.487.313.077.613.292.512.434.473.487" transform="translate(-204.801 -169.894)" fill="#e0e0e0"/>
            <path id="Trazado_641725" data-name="Trazado 641725" d="M387.311,280.51c.039.053-.228.317-.6.59s-.7.45-.74.4.228-.317.6-.59.7-.449.74-.4" transform="translate(-217.225 -157.866)" fill="#e0e0e0"/>
            <path id="Trazado_641726" data-name="Trazado 641726" d="M390.107,289.566c.006.064-.412.153-.93.1s-.908-.23-.888-.292.421,0,.914.052.9.076.9.144" transform="translate(-218.53 -162.843)" fill="#e0e0e0"/>
            <path id="Trazado_641727" data-name="Trazado 641727" d="M375.5,291.895c.014.063-.373.2-.874.235s-.9-.052-.9-.117.4-.09.881-.123.876-.061.89.005" transform="translate(-210.334 -164.257)" fill="#e0e0e0"/>
            <path id="Trazado_641728" data-name="Trazado 641728" d="M377.156,282.253c0,.064-.4.074-.825-.124s-.677-.5-.632-.545.341.149.732.326.733.275.724.343" transform="translate(-211.442 -158.471)" fill="#e0e0e0"/>
            <path id="Trazado_641729" data-name="Trazado 641729" d="M391.565,298.511c-.035.056-.436-.132-.9-.421s-.8-.569-.768-.625.436.132.9.421.8.569.767.625" transform="translate(-219.436 -167.408)" fill="#e0e0e0"/>
            <rect id="Rectángulo_335167" data-name="Rectángulo 335167" width="34.223" height="6.066" transform="translate(153.557 142.552)" fill="#ffb338"/>
            <path id="Trazado_641730" data-name="Trazado 641730" d="M357.076,337.179l4.162,18.126h20.4l4.553-18.126Z" transform="translate(-200.963 -189.765)" fill="#f9a21b"/>
            <path id="Trazado_641731" data-name="Trazado 641731" d="M385.078,339.794c0,.066-7.72.12-17.24.12s-17.241-.054-17.241-.12,7.718-.12,17.241-.12,17.24.054,17.24.12" transform="translate(-197.317 -191.169)" fill="#ebebeb"/>
            <path id="Trazado_641732" data-name="Trazado 641732" d="M384.835,290.513c-.056.035-.29-.237-.522-.609s-.375-.7-.318-.737.29.237.522.609.375.7.318.736" transform="translate(-216.106 -162.743)" fill="#e0e0e0"/>
            <path id="Trazado_641733" data-name="Trazado 641733" d="M385.934,301.137c-.063-.021.017-.433.179-.921s.344-.867.407-.846-.017.433-.179.921-.345.866-.407.845" transform="translate(-217.193 -168.486)" fill="#e0e0e0"/>
            <path id="Trazado_641734" data-name="Trazado 641734" d="M388.575,312.64c-.06.029-.316-.381-.571-.915a2.5,2.5,0,0,1-.355-1.019c.06-.029.316.381.571.915a2.508,2.508,0,0,1,.355,1.019" transform="translate(-218.162 -174.866)" fill="#e0e0e0"/>
            <path id="Trazado_641735" data-name="Trazado 641735" d="M381.505,322.93c-.05-.044.154-.361.456-.709s.588-.595.638-.551-.154.361-.456.709-.588.6-.638.551" transform="translate(-214.708 -181.034)" fill="#e0e0e0"/>
            <path id="Trazado_641736" data-name="Trazado 641736" d="M377.94,307.055c-.011.066-.341.062-.735-.008s-.705-.179-.694-.244.341-.062.735.008.705.179.694.244" transform="translate(-211.901 -172.643)" fill="#e0e0e0"/>
          </g>
        </g>
        <g id="Grupo_927509" data-name="Grupo 927509">
          <g id="Grupo_927508" data-name="Grupo 927508" clip-path="url(#clip-path)">
            <path id="Trazado_641737" data-name="Trazado 641737" d="M122.971,58.516A20.2,20.2,0,1,1,102.23,38.875a20.2,20.2,0,0,1,20.741,19.641" transform="translate(-46.477 -21.875)" fill="#fafafa"/>
            <path id="Trazado_641738" data-name="Trazado 641738" d="M169.206,116.167c0,.02-.216.039-.568.195a2.65,2.65,0,0,0-1.18,1.069,2.51,2.51,0,0,0-.345,1.043,2.192,2.192,0,0,0,.251,1.218,2.394,2.394,0,0,0,4.473-.388,2.184,2.184,0,0,0,.038-1.243,2.506,2.506,0,0,0-.519-.968,2.647,2.647,0,0,0-1.346-.85c-.373-.093-.593-.073-.592-.094a.49.49,0,0,1,.157-.017.943.943,0,0,1,.192,0,1.525,1.525,0,0,1,.26.035,2.688,2.688,0,0,1,2,1.848,2.334,2.334,0,0,1-.023,1.336,2.726,2.726,0,0,1-.8,1.237,2.412,2.412,0,0,1-2.982.258,2.726,2.726,0,0,1-1-1.08,2.33,2.33,0,0,1-.253-1.312,2.685,2.685,0,0,1,1.65-2.164,1.563,1.563,0,0,1,.25-.08,1,1,0,0,1,.188-.038.5.5,0,0,1,.158-.01" transform="translate(-93.959 -65.357)" fill="#263238"/>
            <path id="Trazado_641739" data-name="Trazado 641739" d="M180.589,128.911c0,.01-.108.02-.283.1a1.323,1.323,0,0,0-.588.534,1.248,1.248,0,0,0-.172.52,1.091,1.091,0,0,0,.125.608,1.195,1.195,0,0,0,2.232-.194,1.092,1.092,0,0,0,.019-.62,1.254,1.254,0,0,0-.259-.483,1.322,1.322,0,0,0-.672-.424c-.186-.046-.3-.036-.3-.047a.251.251,0,0,1,.078-.008.451.451,0,0,1,.1,0,.739.739,0,0,1,.13.018,1.34,1.34,0,0,1,1,.922,1.164,1.164,0,0,1-.011.666,1.361,1.361,0,0,1-.4.617,1.2,1.2,0,0,1-1.487.129,1.36,1.36,0,0,1-.5-.539,1.16,1.16,0,0,1-.126-.654,1.339,1.339,0,0,1,.823-1.08.767.767,0,0,1,.125-.04.464.464,0,0,1,.094-.019.254.254,0,0,1,.079-.005" transform="translate(-101.002 -72.541)" fill="#263238"/>
            <path id="Trazado_641740" data-name="Trazado 641740" d="M122.937,60.107s-.007-.111-.01-.327-.005-.54-.009-.957q0-.316,0-.705c-.013-.259-.054-.54-.083-.846s-.067-.635-.1-.987a3.488,3.488,0,0,0-.087-.54l-.118-.57a19.165,19.165,0,0,0-1.952-5.451,20.009,20.009,0,0,0-4.8-5.945l-.833-.689c-.294-.215-.606-.414-.912-.626l-.466-.315a3.947,3.947,0,0,0-.482-.3l-1.014-.552c-.171-.092-.341-.189-.516-.278L111,40.788l-1.106-.468c-.376-.146-.773-.248-1.164-.376l-.592-.184c-.1-.03-.2-.065-.3-.09l-.307-.063a18.62,18.62,0,0,0-2.517-.422c-.431-.037-.863-.1-1.3-.117h-1.328c-.223,0-.448-.009-.671.009l-.673.069c-.449.051-.9.08-1.357.15a21.179,21.179,0,0,0-2.708.647l-.677.21c-.112.036-.227.068-.339.108l-.329.139L94.3,40.96c-.434.208-.853.454-1.284.681-.212.121-.436.221-.638.359l-.612.411A22.493,22.493,0,0,0,89.4,44.226l-1.074,1.069-.27.269c-.084.095-.163.195-.246.292l-.489.59-.491.592-.437.638-.436.643-.219.322c-.066.111-.125.228-.189.341L84.8,50.358l-.617,1.454a19.849,19.849,0,0,0-.642,12.627q.235.757.468,1.51l.608,1.446.153.359.185.343.369.683.369.679.429.639.428.636.214.316.242.295.961,1.172a22.483,22.483,0,0,0,2.173,2.044l.567.471c.188.158.4.281.6.422.406.27.8.557,1.209.808l1.262.689.313.171c.108.051.218.094.327.141l.651.277a21.186,21.186,0,0,0,2.63.918c.443.115.894.19,1.336.286l.662.136c.221.041.446.051.667.077l1.321.136c.439.028.876.008,1.308.015a18.655,18.655,0,0,0,2.547-.166l.312-.031c.1-.015.2-.04.306-.059l.607-.123c.4-.088.807-.149,1.2-.257l1.148-.354.566-.174.541-.224,1.065-.447a3.928,3.928,0,0,0,.51-.249l.495-.267c.327-.179.657-.346.971-.53l.9-.6a20.008,20.008,0,0,0,5.381-5.429c.158-.235.32-.462.467-.692l.387-.706.373-.679c.059-.112.125-.219.177-.331l.145-.338.548-1.281c.163-.411.268-.821.395-1.2l.175-.555a3.453,3.453,0,0,0,.141-.529l.2-.971c.06-.3.129-.578.168-.834s.053-.491.076-.7q.069-.622.106-.951c.025-.214.042-.324.042-.324s0,.11-.024.325l-.087.954c-.02.21-.042.445-.067.7s-.1.535-.16.837l-.2.976a3.515,3.515,0,0,1-.138.532l-.172.558c-.125.38-.228.792-.389,1.206l-.543,1.289-.143.341c-.052.113-.117.221-.176.334l-.371.684-.386.711c-.148.231-.309.46-.467.7a20.048,20.048,0,0,1-5.392,5.48l-.9.608c-.316.187-.647.355-.976.537l-.5.27a3.988,3.988,0,0,1-.513.252l-1.071.452c-.181.075-.361.155-.545.227l-.569.177L108,78.619c-.392.109-.8.172-1.2.261l-.613.125c-.1.02-.2.045-.308.06l-.314.032a18.786,18.786,0,0,1-2.566.172c-.436-.006-.876.015-1.318-.014l-1.332-.134c-.224-.027-.45-.036-.673-.077L99,78.909c-.446-.1-.9-.172-1.347-.287A21.469,21.469,0,0,1,95,77.7l-.657-.279c-.11-.048-.222-.091-.329-.143l-.316-.172-1.274-.694c-.415-.252-.811-.542-1.22-.813-.2-.143-.415-.266-.6-.425l-.573-.475a22.714,22.714,0,0,1-2.193-2.061l-.971-1.182-.244-.3L86.4,70.84,85.97,70.2l-.433-.645-.374-.685-.372-.689-.187-.346-.154-.362-.615-1.459-.472-1.524a20.011,20.011,0,0,1,.647-12.744q.314-.736.624-1.468.382-.7.759-1.389c.064-.115.124-.232.191-.344l.221-.325.44-.648.442-.643.5-.6.494-.6c.083-.1.163-.2.248-.295l.273-.271,1.084-1.077a22.722,22.722,0,0,1,2.391-1.828l.617-.414c.2-.139.431-.24.644-.362.435-.229.858-.477,1.3-.686l1.337-.562L95.9,40.1c.112-.04.228-.072.341-.108l.682-.211a21.311,21.311,0,0,1,2.732-.649c.457-.07.916-.1,1.369-.15l.679-.068c.225-.018.451,0,.676-.008h1.339c.442.016.879.082,1.313.12a18.708,18.708,0,0,1,2.535.43l.309.063c.1.025.2.061.3.091l.6.187c.393.13.793.233,1.172.381l1.113.474.549.233c.176.09.347.188.519.281l1.02.558a4,4,0,0,1,.485.3l.468.319c.309.214.621.415.916.633l.837.7a20.052,20.052,0,0,1,4.812,6,19.086,19.086,0,0,1,1.931,5.486l.115.573a3.5,3.5,0,0,1,.084.543l.1.991c.026.307.064.59.074.849s0,.5,0,.707q-.006.627-.009.958c0,.216-.01.326-.01.326" transform="translate(-46.503 -21.896)" fill="#263238"/>
            <path id="Trazado_641741" data-name="Trazado 641741" d="M141.906,82.6a1.881,1.881,0,1,0,1.829-1.931,1.881,1.881,0,0,0-1.829,1.931" transform="translate(-79.865 -45.4)" fill="#263238"/>
            <path id="Trazado_641742" data-name="Trazado 641742" d="M124.7,83.068a1.881,1.881,0,1,0,1.829-1.931,1.881,1.881,0,0,0-1.829,1.931" transform="translate(-70.179 -45.664)" fill="#263238"/>
            <path id="Trazado_641743" data-name="Trazado 641743" d="M107.181,82.6a1.881,1.881,0,1,0,2.549-.758,1.881,1.881,0,0,0-2.549.758" transform="translate(-60.194 -45.935)" fill="#263238"/>
          </g>
        </g>
        <g id="Grupo_927517" data-name="Grupo 927517">
          <g id="Grupo_927516" data-name="Grupo 927516" clip-path="url(#clip-path)">
            <path id="Trazado_641744" data-name="Trazado 641744" d="M319.626,48.7l-68.515-25a.981.981,0,0,0-1.25.565L232.92,67.734a.981.981,0,0,0,.59,1.282l33.117,11.6a.97.97,0,0,1,.12.051l32.4,16.445a.98.98,0,0,0,1.347-.493l19.7-46.61a.981.981,0,0,0-.567-1.3" transform="translate(-131.05 -13.307)" fill="#f9a21b"/>
            <path id="Trazado_641745" data-name="Trazado 641745" d="M425.719,78.793l1.753,5.288,1.325-3.253a.863.863,0,0,0-.515-1.14Z" transform="translate(-239.596 -44.345)" fill="#e0e0e0"/>
            <path id="Trazado_641746" data-name="Trazado 641746" d="M270.413,78.629c-18.643-13.148-32.18-10.886-32.18-10.886l17.237-45.77c14.6-2.177,32.694,11.985,32.694,11.985Z" transform="translate(-134.078 -12.239)" fill="#fafafa"/>
            <path id="Trazado_641747" data-name="Trazado 641747" d="M270.234,78.495s.027-.077.081-.219l.245-.631.957-2.44,3.618-9.178,12.753-32.24.032.119a74.206,74.206,0,0,0-6.863-4.577,71.689,71.689,0,0,0-7.736-4,47.311,47.311,0,0,0-8.613-2.872,29.384,29.384,0,0,0-4.611-.67,22.806,22.806,0,0,0-4.718.154l-.073.008.09-.073L238.141,67.641l-.1-.124a29.054,29.054,0,0,1,7.532.261,46.2,46.2,0,0,1,6.594,1.517,56.309,56.309,0,0,1,10.06,4.235c1.352.671,2.485,1.4,3.491,1.988.5.305.976.561,1.376.842l1.107.748,1.512,1.026c.343.234.522.361.522.361s-.174-.109-.518-.333l-1.529-1c-.672-.442-1.5-1.005-2.512-1.574s-2.145-1.3-3.5-1.964a56.8,56.8,0,0,0-10.054-4.186,46.267,46.267,0,0,0-6.575-1.493,28.99,28.99,0,0,0-7.478-.244l-.154.018.053-.142L255.184,21.8l.024-.065.066-.007.074-.009a23.063,23.063,0,0,1,4.765-.156,29.583,29.583,0,0,1,4.645.676,47.461,47.461,0,0,1,8.653,2.89,71.666,71.666,0,0,1,7.757,4.014,74.087,74.087,0,0,1,6.88,4.6l.062.047-.029.073L275.2,66.132l-3.659,9.133-.97,2.411-.25.616c-.056.137-.086.2-.086.2" transform="translate(-133.899 -12.104)" fill="#263238"/>
            <path id="Trazado_641748" data-name="Trazado 641748" d="M382.447,184.209a8.729,8.729,0,0,0-6.391,1.345l3.452,1.967a1.153,1.153,0,0,0,1.613-.509Z" transform="translate(-211.645 -103.596)" fill="#e0e0e0"/>
            <path id="Trazado_641749" data-name="Trazado 641749" d="M362.791,60.222s-12.331-12.035-33.2-10.68L311.837,94.213s25.943,9.108,31.762,15.079Z" transform="translate(-175.503 -27.823)" fill="#fafafa"/>
            <path id="Trazado_641750" data-name="Trazado 641750" d="M362.6,60.113s-.025.078-.083.233l-.262.69-1.035,2.685-3.924,10.114L343.5,109.221l-.058.15-.114-.115a18.843,18.843,0,0,0-3.039-2.359c-1.1-.7-2.245-1.359-3.418-1.995-2.352-1.264-4.818-2.433-7.351-3.569-5.074-2.259-10.423-4.382-15.951-6.413l-1.966-.709-.111-.04.043-.109L329.311,49.4l.021-.054.058,0a48.5,48.5,0,0,1,14.665,1.288,46.85,46.85,0,0,1,10.535,3.983,41.873,41.873,0,0,1,6.079,3.858c.657.5,1.138.918,1.459,1.2l.356.327c.079.077.114.116.114.116s-.045-.036-.124-.107l-.364-.316c-.326-.275-.812-.68-1.474-1.177a43.07,43.07,0,0,0-6.094-3.809,47.11,47.11,0,0,0-10.521-3.931A48.52,48.52,0,0,0,329.4,49.525l.08-.058L311.751,94.146,311.683,94l1.968.71c5.532,2.033,10.884,4.159,15.963,6.424,2.537,1.138,5.006,2.311,7.364,3.581,1.176.639,2.328,1.3,3.431,2.007a19.036,19.036,0,0,1,3.073,2.391l-.173.035,13.858-35.3,3.985-10.108,1.068-2.69.279-.693c.063-.156.1-.236.1-.236" transform="translate(-175.311 -27.713)" fill="#263238"/>
            <path id="Trazado_641751" data-name="Trazado 641751" d="M402.362,127.823l-1.471-.72,7.813-17.646,1.255.393Z" transform="translate(-225.622 -61.603)" fill="#e0e0e0"/>
            <path id="Trazado_641752" data-name="Trazado 641752" d="M304.681,53.65a1.312,1.312,0,0,1-.238-.146l-.657-.452c-.282-.2-.629-.443-1.04-.712s-.868-.592-1.395-.916c-1.038-.672-2.3-1.427-3.731-2.22s-3.039-1.592-4.761-2.363-3.4-1.409-4.945-1.952-2.954-.963-4.148-1.283c-.594-.173-1.139-.3-1.615-.421s-.888-.219-1.225-.3l-.776-.184a1.338,1.338,0,0,1-.267-.079,1.265,1.265,0,0,1,.277.035l.785.143c.341.062.757.144,1.236.258s1.029.226,1.627.39c1.2.3,2.62.72,4.175,1.241s3.237,1.177,4.969,1.942,3.335,1.594,4.769,2.387,2.688,1.577,3.718,2.268c.522.334.975.665,1.379.947s.745.534,1.02.745l.632.487a1.307,1.307,0,0,1,.211.182" transform="translate(-157.519 -23.989)" fill="#263238"/>
            <path id="Trazado_641753" data-name="Trazado 641753" d="M297.508,60.164a1.2,1.2,0,0,1-.238-.125c-.151-.09-.376-.217-.669-.376a23.293,23.293,0,0,0-2.56-1.177c-1.106-.441-2.454-.891-3.946-1.406-.747-.262-1.528-.518-2.342-.82a3.767,3.767,0,0,1-1.163-.672,1.974,1.974,0,0,1-.672-1.229,1.709,1.709,0,0,1-.008-.192l.168.1a2.945,2.945,0,0,1-2.637.056,1.966,1.966,0,0,1-.963-.872.882.882,0,0,1-.053-.672.757.757,0,0,1,.5-.437.526.526,0,0,1,.622.216.581.581,0,0,1-.052.633,1.9,1.9,0,0,1-.911.64,3.556,3.556,0,0,1-1.921.318,1.958,1.958,0,0,1-1.356-.848,1.344,1.344,0,0,1-.108-1.2,1.15,1.15,0,0,1,.483-.593.646.646,0,0,1,.251-.089c0,.012-.087.034-.227.128a1.149,1.149,0,0,0-.424.584,1.254,1.254,0,0,0,.132,1.1,1.832,1.832,0,0,0,1.274.758,3.421,3.421,0,0,0,1.824-.333,1.716,1.716,0,0,0,.818-.576.379.379,0,0,0,.043-.421.318.318,0,0,0-.388-.118.549.549,0,0,0-.36.313.676.676,0,0,0,.05.5,1.764,1.764,0,0,0,.863.763,2.731,2.731,0,0,0,2.432-.055l.166-.09,0,.192a1.483,1.483,0,0,0,.007.163,1.757,1.757,0,0,0,.6,1.084,3.584,3.584,0,0,0,1.093.632c.8.3,1.587.563,2.328.829,1.487.526,2.833.992,3.937,1.455a19.833,19.833,0,0,1,2.544,1.249c.288.171.506.312.65.414a1.189,1.189,0,0,1,.214.164" transform="translate(-157.081 -28.943)" fill="#263238"/>
            <path id="Trazado_641754" data-name="Trazado 641754" d="M300.541,70.8a1.01,1.01,0,0,1-.237-.074l-.662-.253-2.42-.968-7.951-3.275L281.344,62.9a8.893,8.893,0,0,0-2.481-.7c-.609-.063-.948,0-.95-.024a1.027,1.027,0,0,1,.244-.048,4.083,4.083,0,0,1,.713-.017,8.346,8.346,0,0,1,2.534.642c2.046.819,4.853,1.982,7.955,3.272l7.925,3.336,2.392,1.035.646.292a1,1,0,0,1,.22.116" transform="translate(-156.41 -34.95)" fill="#263238"/>
            <path id="Trazado_641755" data-name="Trazado 641755" d="M296.188,75.137a2.95,2.95,0,0,0-.846-.653,4.243,4.243,0,0,0-1.2-.365c-.485-.087-1.048-.107-1.675-.166a4.739,4.739,0,0,1-1.994-.553,4.229,4.229,0,0,1-.865-.772,1.432,1.432,0,0,0-.974-.521,8.694,8.694,0,0,0-1.246.129,1.912,1.912,0,0,1-.691-.05,1.694,1.694,0,0,1-.618-.349c-.357-.31-.628-.676-.954-1a13.964,13.964,0,0,0-1.025-.956,11.925,11.925,0,0,0-4.66-2.5,7,7,0,0,0-2.306-.158,2.025,2.025,0,0,1-1.082-.194.96.96,0,0,1-.551-.86.728.728,0,0,1,.646-.661.489.489,0,0,1,.413.2.585.585,0,0,1,.093.414.866.866,0,0,1-.381.613.938.938,0,0,1-.595.108,2.108,2.108,0,0,1-.766-.278,1.119,1.119,0,0,1-.236-.156,1.637,1.637,0,0,1,.257.115,2.266,2.266,0,0,0,.753.231.859.859,0,0,0,.528-.111.758.758,0,0,0,.313-.536.379.379,0,0,0-.374-.457.582.582,0,0,0-.491.529.8.8,0,0,0,.475.693,1.854,1.854,0,0,0,.99.16,7.123,7.123,0,0,1,2.362.143,11.96,11.96,0,0,1,4.758,2.528,13.9,13.9,0,0,1,1.041.973c.331.332.612.707.936.989a1.48,1.48,0,0,0,.536.307,1.7,1.7,0,0,0,.611.045,8.36,8.36,0,0,1,1.278-.121,1.413,1.413,0,0,1,.626.192,2.36,2.36,0,0,1,.477.4,4.084,4.084,0,0,0,.821.751,4.638,4.638,0,0,0,1.912.554c.617.068,1.188.1,1.681.2a4.157,4.157,0,0,1,1.218.412,2.247,2.247,0,0,1,.64.5,1.226,1.226,0,0,1,.129.167c.027.039.038.061.035.063" transform="translate(-154.589 -36.868)" fill="#263238"/>
            <path id="Trazado_641756" data-name="Trazado 641756" d="M293.8,83.019a.874.874,0,0,1-.214-.084l-.592-.279-2.17-1.039c-1.834-.873-4.382-2.05-7.236-3.258-1.429-.6-2.791-1.176-4.048-1.636a15.472,15.472,0,0,0-3.435-.866,5.986,5.986,0,0,1-1.348-.315,2.564,2.564,0,0,1-.884-.567,1.689,1.689,0,0,1-.373-.548.6.6,0,0,1-.06-.223,2.149,2.149,0,0,0,.495.707,2.563,2.563,0,0,0,.867.512,6.116,6.116,0,0,0,1.324.275,14.927,14.927,0,0,1,3.484.827c1.271.454,2.634,1.025,4.066,1.624,2.858,1.21,5.4,2.412,7.218,3.323.91.454,1.638.837,2.14,1.105l.573.317a.882.882,0,0,1,.193.124" transform="translate(-153.889 -41.763)" fill="#263238"/>
            <path id="Trazado_641757" data-name="Trazado 641757" d="M290.206,91.5a.874.874,0,0,1-.214-.083l-.592-.279-2.17-1.039c-1.834-.873-4.382-2.05-7.236-3.258-1.429-.6-2.791-1.176-4.048-1.636a15.472,15.472,0,0,0-3.435-.866,5.962,5.962,0,0,1-1.348-.316,2.557,2.557,0,0,1-.884-.567,1.69,1.69,0,0,1-.373-.548.6.6,0,0,1-.06-.223,2.149,2.149,0,0,0,.494.707,2.563,2.563,0,0,0,.867.512,6.116,6.116,0,0,0,1.324.275,14.909,14.909,0,0,1,3.484.827c1.271.453,2.634,1.024,4.066,1.623,2.858,1.21,5.4,2.412,7.218,3.323.91.454,1.638.837,2.14,1.105l.573.317a.884.884,0,0,1,.193.124" transform="translate(-151.869 -46.537)" fill="#263238"/>
            <path id="Trazado_641758" data-name="Trazado 641758" d="M330.087,53.6a1.67,1.67,0,0,1-.2-.028,3.226,3.226,0,0,0-.58.027,1.439,1.439,0,0,1-.437-.021.687.687,0,0,1-.455-.292.641.641,0,0,1,0-.619,1.92,1.92,0,0,1,.392-.522l.075.17a10.57,10.57,0,0,0-2.589.506l-.291.1.157-.262.085-.142a9.878,9.878,0,0,1,1.755-2.136l.092.17c-.872.2-1.6.363-2.116.47a4.267,4.267,0,0,1-.816.136,4.252,4.252,0,0,1,.788-.251c.505-.14,1.229-.329,2.1-.549l.366-.093-.275.263a10.5,10.5,0,0,0-1.7,2.109l-.083.138-.134-.166a9.96,9.96,0,0,1,2.649-.487l.271-.012-.2.181c-.3.277-.549.647-.386.917a.831.831,0,0,0,.747.279,2.4,2.4,0,0,1,.6.028c.137.034.2.081.195.088" transform="translate(-182.995 -28.286)" fill="#263238"/>
            <path id="Trazado_641759" data-name="Trazado 641759" d="M321.714,111.859c-.337.848.809,1.685,1.678,1.408a3.039,3.039,0,0,0,1.681-2.036,6.566,6.566,0,0,1,1.161-2.454,3.476,3.476,0,0,1,2.816-.891,12.263,12.263,0,0,1,2.941.8,42.43,42.43,0,0,0,8.254,1.977c2.024.275,4.277.344,5.891-.907a8.438,8.438,0,0,0,2.318-3.662c1.962-4.8,3.818-9.712,4.485-14.857a6.616,6.616,0,0,0-.348-3.854c-.824-1.619-2.682-2.375-4.388-3l-16.968,4.309Z" transform="translate(-181.027 -47.489)" fill="#e0e0e0"/>
            <rect id="Rectángulo_335170" data-name="Rectángulo 335170" width="28.634" height="22.892" transform="translate(145.65 58.544) rotate(-75.447)" fill="#fafafa"/>
            <path id="Trazado_641760" data-name="Trazado 641760" d="M355.2,103.852s.009-.047.03-.136l.1-.39c.088-.346.216-.851.382-1.508.338-1.319.83-3.242,1.454-5.679l5.159-20.021.053.09-22.157-5.743h0l.1-.059L333.1,98.118l-.049-.084,16.061,4.207,4.487,1.183,1.183.315c.268.072.409.114.409.114s-.134-.03-.4-.1l-1.174-.3-4.481-1.145-16.121-4.148-.066-.017.017-.067,7.181-27.719.021-.08.08.021h0l22.154,5.76.071.018-.019.072c-2.155,8.24-3.968,15.172-5.243,20.049-.638,2.426-1.142,4.341-1.488,5.653-.172.649-.3,1.148-.4,1.49l-.1.38c-.023.084-.036.125-.036.125" transform="translate(-187.387 -39.556)" fill="#263238"/>
            <rect id="Rectángulo_335171" data-name="Rectángulo 335171" width="26.622" height="20.01" transform="translate(147.303 57.915) rotate(-75.447)" fill="#455a64"/>
            <path id="Trazado_641761" data-name="Trazado 641761" d="M343.614,73.529l9.7,12.125-8.979,3.62,3.045,4.827-10.457,5.2Z" transform="translate(-189.622 -41.382)" fill="#455a64"/>
            <path id="Trazado_641762" data-name="Trazado 641762" d="M371.054,114.993a2.1,2.1,0,1,1,2.555-1.5,2.1,2.1,0,0,1-2.555,1.5" transform="translate(-207.947 -62.397)" fill="#455a64"/>
            <g id="Grupo_927512" data-name="Grupo 927512" transform="translate(147.303 32.147)" opacity="0.3">
              <g id="Grupo_927511" data-name="Grupo 927511">
                <g id="Grupo_927510" data-name="Grupo 927510" clip-path="url(#clip-path-5)">
                  <path id="Trazado_641763" data-name="Trazado 641763" d="M343.614,73.529l9.7,12.125-8.979,3.62,3.045,4.827-10.457,5.2Z" transform="translate(-336.925 -73.529)"/>
                </g>
              </g>
            </g>
            <g id="Grupo_927515" data-name="Grupo 927515" transform="translate(161.538 48.471)" opacity="0.3">
              <g id="Grupo_927514" data-name="Grupo 927514">
                <g id="Grupo_927513" data-name="Grupo 927513" clip-path="url(#clip-path-6)">
                  <path id="Trazado_641764" data-name="Trazado 641764" d="M371.054,114.993a2.1,2.1,0,1,1,2.555-1.5,2.1,2.1,0,0,1-2.555,1.5" transform="translate(-369.484 -110.867)"/>
                </g>
              </g>
            </g>
            <path id="Trazado_641765" data-name="Trazado 641765" d="M335.341,48.476s.5.115.086,1.486-15.754,41.961-15.754,41.961l1.053-.846.867,1.776S334.9,57.72,337.467,49.983a1.8,1.8,0,0,0-2.409-2.238,5.525,5.525,0,0,0-1.11.671Z" transform="translate(-179.913 -26.785)" fill="#d18b1c"/>
            <path id="Trazado_641766" data-name="Trazado 641766" d="M382.062,73.713a.966.966,0,0,1-.223-.089l-.621-.29c-.539-.252-1.321-.611-2.3-1.026-1.955-.838-4.706-1.878-7.726-3.077-1.511-.6-2.948-1.177-4.269-1.65-.662-.235-1.276-.5-1.877-.675a6.6,6.6,0,0,1-1.617-.685,3.734,3.734,0,0,0-1.281-.571,2.51,2.51,0,0,0-1.052.038,3.583,3.583,0,0,0-.836.363.709.709,0,0,1,.186-.154,2.3,2.3,0,0,1,.627-.3,2.528,2.528,0,0,1,1.1-.078,3.772,3.772,0,0,1,1.341.557,6.584,6.584,0,0,0,1.591.644c.6.168,1.225.427,1.891.657,1.334.466,2.772,1.039,4.283,1.636,3.019,1.2,5.763,2.263,7.707,3.141.973.435,1.747.818,2.275,1.095.264.138.467.249.6.328a.957.957,0,0,1,.2.13" transform="translate(-202.754 -36.861)" fill="#263238"/>
            <path id="Trazado_641767" data-name="Trazado 641767" d="M407.077,77.564a6.193,6.193,0,0,1-.995-.477c-.6-.31-1.442-.73-2.386-1.153s-1.815-.769-2.448-1.013a6.23,6.23,0,0,1-1.018-.425,4.632,4.632,0,0,1,1.071.273,24.689,24.689,0,0,1,4.859,2.177,4.71,4.71,0,0,1,.917.618" transform="translate(-225.251 -41.924)" fill="#263238"/>
            <path id="Trazado_641768" data-name="Trazado 641768" d="M351.082,151.028a1.137,1.137,0,0,1-.263,0,4.8,4.8,0,0,1-.746-.114,6.217,6.217,0,0,1-2.491-1.207,6.33,6.33,0,0,1-1.3-1.422c-.192-.294-.349-.613-.559-.9a.907.907,0,0,0-.839-.468c-.338.052-.606.365-.94.611a1.1,1.1,0,0,1-.619.247.833.833,0,0,1-.637-.275,5.253,5.253,0,0,1-.626-1.146,1.1,1.1,0,0,0-.878-.721c-.9.014-1.606,1.03-2.664.891a2.053,2.053,0,0,1-1.158-.766,6.717,6.717,0,0,0-.868-.908,2.352,2.352,0,0,0-2.123-.3,2.285,2.285,0,0,0-1.4,1.177l-.054.118-.073-.1a4.2,4.2,0,0,1-.764-2.189,3.807,3.807,0,0,1,.018-.623.829.829,0,0,1,.042-.211c.021,0-.028.294.021.828a4.26,4.26,0,0,0,.8,2.108l-.128.014a2.431,2.431,0,0,1,1.478-1.29,2.532,2.532,0,0,1,2.3.312,6.7,6.7,0,0,1,.9.927,1.858,1.858,0,0,0,1.033.691,2,2,0,0,0,1.247-.366,2.926,2.926,0,0,1,1.392-.532,1.063,1.063,0,0,1,.668.283,1.984,1.984,0,0,1,.4.562,5.355,5.355,0,0,0,.587,1.1.61.61,0,0,0,.469.208.885.885,0,0,0,.5-.2,2.618,2.618,0,0,1,1.036-.643.866.866,0,0,1,.616.14,1.688,1.688,0,0,1,.417.416c.223.307.376.631.556.913a6.263,6.263,0,0,0,1.244,1.4,6.4,6.4,0,0,0,2.411,1.246c.627.164.991.181.988.2" transform="translate(-186.892 -80.32)" fill="#263238"/>
            <path id="Trazado_641769" data-name="Trazado 641769" d="M355.425,159.434c-.024.058-3.614-1.375-8.018-3.2s-7.955-3.354-7.931-3.412,3.613,1.375,8.019,3.2,7.954,3.353,7.93,3.411" transform="translate(-191.058 -86.007)" fill="#263238"/>
            <path id="Trazado_641770" data-name="Trazado 641770" d="M272.836,97.084c-.021.029-.55-.332-1.442-.849a12.269,12.269,0,0,0-3.689-1.519c-.766-.161-1.513-.242-2.192-.336a16.447,16.447,0,0,1-1.8-.324,8.044,8.044,0,0,1-1.171-.388,1.655,1.655,0,0,1-.4-.212c.016-.037.6.233,1.607.444.5.107,1.11.192,1.788.272s1.431.157,2.212.321a11.184,11.184,0,0,1,3.726,1.6c.439.277.783.52,1.015.695a1.619,1.619,0,0,1,.344.292" transform="translate(-147.535 -52.595)" fill="#263238"/>
            <path id="Trazado_641771" data-name="Trazado 641771" d="M299.42,112.053a1.022,1.022,0,0,1,.238-.069l.688-.166a25.121,25.121,0,0,0,2.486-.752c.515-.187,1.073-.409,1.661-.673a5.812,5.812,0,0,0,.873-.456,2.009,2.009,0,0,0,.7-.711.957.957,0,0,0-.026-.958,1.452,1.452,0,0,0-.885-.577,3.745,3.745,0,0,0-2.3.423,5.028,5.028,0,0,1-1.06.291l-.1.014-.026-.094c-.228-.8.014-1.582-.184-2.247a1.326,1.326,0,0,0-.541-.8.864.864,0,0,0-.873.012,1.953,1.953,0,0,0-.83,1.517,11.11,11.11,0,0,0-.133,1.614,11.7,11.7,0,0,0,.218,2.324c.108.54.192.833.175.838a.869.869,0,0,1-.082-.207c-.046-.138-.108-.344-.175-.613a10.535,10.535,0,0,1-.29-2.342,10.808,10.808,0,0,1,.107-1.641,3.44,3.44,0,0,1,.24-.905,1.594,1.594,0,0,1,.672-.762,1.071,1.071,0,0,1,1.078-.017,1.531,1.531,0,0,1,.644.922c.215.752-.024,1.531.191,2.242l-.124-.08a4.817,4.817,0,0,0,1.011-.28,12.034,12.034,0,0,1,1.185-.41,2.372,2.372,0,0,1,1.248-.015,1.663,1.663,0,0,1,1.013.677,1.171,1.171,0,0,1,.028,1.171,2.206,2.206,0,0,1-.778.782,6.024,6.024,0,0,1-.906.461c-.6.259-1.162.473-1.684.652a20.566,20.566,0,0,1-2.52.686c-.3.062-.538.1-.7.125a1,1,0,0,1-.247.024" transform="translate(-168.255 -59.07)" fill="#263238"/>
            <path id="Trazado_641772" data-name="Trazado 641772" d="M274.843,106.1a4.6,4.6,0,0,0-1.573-1.406,9.851,9.851,0,0,0-2.164-.813c-.846-.226-1.792-.452-2.768-.737-1.958-.557-3.7-1.165-4.945-1.642-.623-.237-1.121-.444-1.464-.59a2.834,2.834,0,0,1-.522-.254,2.832,2.832,0,0,1,.554.171l1.487.522c1.257.437,3,1.018,4.952,1.574.975.284,1.911.515,2.763.754a9.368,9.368,0,0,1,2.187.875,3.964,3.964,0,0,1,1.2,1.04,2.185,2.185,0,0,1,.23.367c.045.088.066.135.059.139" transform="translate(-147.12 -56.65)" fill="#263238"/>
            <path id="Trazado_641773" data-name="Trazado 641773" d="M276.681,114.132a.8.8,0,0,1-.207-.071l-.575-.243-2.1-.933c-.884-.4-1.93-.885-3.111-1.373a21.461,21.461,0,0,0-3.946-1.254,13.911,13.911,0,0,0-2.127-.253,3.243,3.243,0,0,1-1.957-.581,1.721,1.721,0,0,1-.55-.815,1.058,1.058,0,0,1,.143-.929,1.088,1.088,0,0,1,.787-.386.712.712,0,0,1,.706,1.088,1.139,1.139,0,0,1-.465.45,1.443,1.443,0,0,1-1,.077,3.254,3.254,0,0,1-.594-.21.725.725,0,0,1-.193-.1c.008-.024.282.115.8.227a1.381,1.381,0,0,0,.923-.1,1.019,1.019,0,0,0,.4-.407.6.6,0,0,0,.008-.588c-.21-.384-.916-.324-1.225.07a.871.871,0,0,0-.1.757,1.52,1.52,0,0,0,.492.71,3.071,3.071,0,0,0,1.837.519,13.73,13.73,0,0,1,2.157.253,20.7,20.7,0,0,1,3.982,1.284c1.184.5,2.223,1.005,3.1,1.42l2.067,1,.557.282a.8.8,0,0,1,.188.112" transform="translate(-147.169 -60.384)" fill="#263238"/>
            <path id="Trazado_641774" data-name="Trazado 641774" d="M289.528,127.559c-.025.028-.5-.383-1.3-.989a24.317,24.317,0,0,0-6.928-3.649c-.955-.322-1.56-.479-1.552-.515a1.664,1.664,0,0,1,.437.065c.278.054.677.154,1.163.3a20.306,20.306,0,0,1,6.979,3.676c.393.321.7.593.9.792a1.644,1.644,0,0,1,.3.324" transform="translate(-157.442 -68.888)" fill="#263238"/>
          </g>
        </g>
        <g id="Grupo_927531" data-name="Grupo 927531">
          <g id="Grupo_927530" data-name="Grupo 927530" clip-path="url(#clip-path)">
            <path id="Trazado_641775" data-name="Trazado 641775" d="M232.491,108.492c-.531-1.486-1.305-2.953-1.255-4.53.063-1.973,1.4-3.681,1.781-5.618.426-2.166-.376-4.356-.814-6.519a53.518,53.518,0,0,1-.576-9.574,22.884,22.884,0,0,0-1.715-9.378c-1.37-2.895-4.029-5.357-7.214-5.7L198.248,83.6c-.512,5.951-4.26,11.683-2.926,17.5.267,1.166.734,2.283.939,3.463a15.944,15.944,0,0,1,.055,3.749q-.171,2.668-.342,5.337a3.9,3.9,0,0,0,.344,2.355,3.821,3.821,0,0,0,2.3,1.341,85.175,85.175,0,0,0,28.889,3.215,6.654,6.654,0,0,0,4.19-1.276,5.644,5.644,0,0,0,1.51-3.4,15.292,15.292,0,0,0-.715-7.391" transform="translate(-109.767 -37.807)" fill="#263238"/>
            <path id="Trazado_641776" data-name="Trazado 641776" d="M200.194,77.189c1.193-5.07,2.415-10.348,6.616-13.427,3.743-2.743,7.929-3.406,12.557-3.062a16.422,16.422,0,0,1,6.773,2.5c2.675,1.631,3.728,4.8,4.95,7.682,2.449,5.78,1.865,13.479.01,15.564L206.9,98.235c-4.14-2.329-6.924-3.443-7.889-8.095-.657-3.168.445-9.8,1.186-12.951" transform="translate(-111.889 -34.115)" fill="#263238"/>
            <path id="Trazado_641777" data-name="Trazado 641777" d="M214.677,73.5,229.8,69.564c4.846-.546,8.112,5.4,8.452,10.27.378,5.405.625,12.019.012,16.059-1.233,8.122-7.445,9.2-7.445,9.2,0-.028-.018.121-.049,2.532l.043,5.426c-2,6.583-8.665,5.79-17,2.37l-1.668-39.011a2.854,2.854,0,0,1,2.534-2.912" transform="translate(-119.394 -39.131)" fill="#ffbe9d"/>
            <path id="Trazado_641778" data-name="Trazado 641778" d="M262.108,107.96a1.041,1.041,0,0,1-1,1.057,1,1,0,0,1-1.079-.931,1.041,1.041,0,0,1,1-1.057,1,1,0,0,1,1.08.931" transform="translate(-146.347 -60.235)" fill="#263238"/>
            <path id="Trazado_641779" data-name="Trazado 641779" d="M263.328,101.834c-.128.136-.92-.442-2.04-.431-1.118-.005-1.936.576-2.059.44-.06-.06.07-.306.426-.569a2.854,2.854,0,0,1,1.647-.52,2.739,2.739,0,0,1,1.625.512c.346.261.464.506.4.567" transform="translate(-145.887 -56.705)" fill="#263238"/>
            <path id="Trazado_641780" data-name="Trazado 641780" d="M239.524,107.96a1.04,1.04,0,0,1-1,1.057,1,1,0,0,1-1.079-.931,1.04,1.04,0,0,1,1-1.057,1,1,0,0,1,1.08.931" transform="translate(-133.636 -60.235)" fill="#263238"/>
            <path id="Trazado_641781" data-name="Trazado 641781" d="M238.157,101.521c-.129.137-.922-.441-2.04-.43-1.119-.006-1.936.575-2.059.44-.06-.06.068-.306.426-.569a2.856,2.856,0,0,1,1.647-.52,2.747,2.747,0,0,1,1.625.513c.345.261.464.506.4.567" transform="translate(-131.72 -56.528)" fill="#263238"/>
            <path id="Trazado_641782" data-name="Trazado 641782" d="M252.119,108.567a7.4,7.4,0,0,1,1.816-.341c.286-.031.556-.09.6-.285a1.458,1.458,0,0,0-.2-.846q-.411-1.036-.86-2.172a37.385,37.385,0,0,1-1.938-5.682,37.441,37.441,0,0,1,2.39,5.513q.432,1.144.825,2.185a1.651,1.651,0,0,1,.156,1.121.717.717,0,0,1-.467.421,1.94,1.94,0,0,1-.485.07,7.261,7.261,0,0,1-1.843.015" transform="translate(-141.563 -55.853)" fill="#263238"/>
            <path id="Trazado_641783" data-name="Trazado 641783" d="M240.839,147.231a20.643,20.643,0,0,1-10.886-2.824s2.725,5.659,10.84,4.845Z" transform="translate(-129.418 -81.273)" fill="#eb996e"/>
            <path id="Trazado_641784" data-name="Trazado 641784" d="M244.145,124.345a1.8,1.8,0,0,1,1.49-.825,2.338,2.338,0,0,1,2.139,1.041,1.454,1.454,0,0,1,.1,1.05c-.077.178-.017.09-.154.214a4.094,4.094,0,0,1-1.666,1.049,1.756,1.756,0,0,1-1.859-.67,1.793,1.793,0,0,1-.051-1.859" transform="translate(-137.273 -69.516)" fill="#eb996e"/>
            <path id="Trazado_641785" data-name="Trazado 641785" d="M244.665,122.491c.182-.013.2,1.2,1.25,2.052s2.343.7,2.355.87c.018.076-.285.24-.832.261a3.024,3.024,0,0,1-1.965-.657,2.634,2.634,0,0,1-.971-1.721c-.053-.508.079-.81.162-.8" transform="translate(-137.6 -68.938)" fill="#263238"/>
            <path id="Trazado_641786" data-name="Trazado 641786" d="M238.2,93.42c-.09.311-1.216.24-2.517.482-1.306.216-2.338.668-2.53.407-.086-.125.08-.423.488-.745a4.453,4.453,0,0,1,3.844-.677c.494.163.752.386.714.533" transform="translate(-131.207 -52.178)" fill="#263238"/>
            <path id="Trazado_641787" data-name="Trazado 641787" d="M263.28,95.257c-.261.212-1.063-.2-2.081-.393-1.012-.226-1.914-.167-2.066-.465-.065-.143.116-.369.536-.539a3.192,3.192,0,0,1,1.768-.108,3.153,3.153,0,0,1,1.573.8c.315.321.387.6.27.706" transform="translate(-145.833 -52.722)" fill="#263238"/>
            <path id="Trazado_641788" data-name="Trazado 641788" d="M252.105,67.6c.012.059.021.118.032.177l-.028.011,0-.188" transform="translate(-141.885 -38.043)" fill="#263238"/>
            <path id="Trazado_641789" data-name="Trazado 641789" d="M210.187,106.2a5.455,5.455,0,0,0,3.525-4.091,18.336,18.336,0,0,0,.152-5.636,12.9,12.9,0,0,1,.517-5.592,25.477,25.477,0,0,0,1.547-3.49c.489-2.141-.618-4.445.035-6.541.456-1.465,1.679-2.531,2.665-3.707a13.569,13.569,0,0,0,3.143-8.588,17.6,17.6,0,0,0-7.4,1.876,11.613,11.613,0,0,0-5.25,5.429c-1.069,2.424-1.114,5.158-1.142,7.807q-.117,11.095-.233,22.19" transform="translate(-116.92 -38.582)" fill="#263238"/>
            <path id="Trazado_641790" data-name="Trazado 641790" d="M238.745,68.929a6.042,6.042,0,0,0,3.529,2.527c1.409.456,2.893.655,4.293,1.136a11.439,11.439,0,0,1,7.509,9.772A11.082,11.082,0,0,0,239.9,67.194" transform="translate(-134.366 -37.364)" fill="#263238"/>
            <path id="Trazado_641791" data-name="Trazado 641791" d="M193.22,78.28c.5-3.366,1.091-3.658.177-5.624s-4.264-3.858-6.424-3.685a4.56,4.56,0,0,0-4.146,4.234c-.032,2.347,1.964,4.262,4.1,5.236a4.99,4.99,0,0,0-1.492.908,1.693,1.693,0,0,0-.525,1.59,1.724,1.724,0,0,0,2.143.958,5.01,5.01,0,0,0,2.089-1.511A1.459,1.459,0,0,0,190.6,82a2.376,2.376,0,0,0,1.971-1.325,7,7,0,0,0,.648-2.394" transform="translate(-102.895 -38.811)" fill="#263238"/>
            <path id="Trazado_641792" data-name="Trazado 641792" d="M201.109,87.821a1.424,1.424,0,0,1-.016-.409c0-.263.028-.643.079-1.11a17.231,17.231,0,0,1,2.355-6.915c.244-.4.456-.718.615-.928a1.437,1.437,0,0,1,.262-.314c.031.021-.288.505-.738,1.323a20.535,20.535,0,0,0-2.335,6.856c-.142.922-.185,1.5-.222,1.5" transform="translate(-113.175 -43.98)" fill="#ff725e"/>
            <path id="Trazado_641793" data-name="Trazado 641793" d="M204.7,75.372a5.549,5.549,0,0,1,.721.052,13.118,13.118,0,0,0,1.96.013,12.27,12.27,0,0,0,10.269-6.813,13.149,13.149,0,0,0,.75-1.811,5.672,5.672,0,0,1,.232-.685.59.59,0,0,1-.025.187c-.027.12-.056.3-.122.524a10.951,10.951,0,0,1-.69,1.856,12.021,12.021,0,0,1-10.4,6.9,10.97,10.97,0,0,1-1.979-.086c-.232-.026-.409-.069-.53-.091a.587.587,0,0,1-.181-.049" transform="translate(-115.205 -37.217)" fill="#455a64"/>
            <path id="Trazado_641794" data-name="Trazado 641794" d="M215.9,88.088a2.686,2.686,0,0,1-.443.351,5.919,5.919,0,0,1-.551.369c-.222.133-.468.3-.761.441a14.143,14.143,0,0,1-2.1.912,14.732,14.732,0,0,1-5.532.768,14.063,14.063,0,0,1-2.269-.306c-.321-.058-.6-.149-.852-.217a5.778,5.778,0,0,1-.631-.2,2.7,2.7,0,0,1-.522-.217c.015-.044.769.24,2.036.481a15.682,15.682,0,0,0,2.246.254,15.562,15.562,0,0,0,5.456-.757,15.618,15.618,0,0,0,2.092-.856c1.154-.577,1.8-1.055,1.829-1.017" transform="translate(-113.818 -49.575)" fill="#455a64"/>
            <path id="Trazado_641795" data-name="Trazado 641795" d="M256.316,81.366c-.021,0-.021-.324-.073-.9a12.385,12.385,0,0,0-.459-2.417,9.7,9.7,0,0,0-1.654-3.217,10.932,10.932,0,0,0-3.482-2.724c-1.413-.724-2.84-1.255-4.121-1.781a24.124,24.124,0,0,1-3.325-1.589,12.622,12.622,0,0,1-1.177-.793c-.323-.265-.592-.506-.807-.706l-.452-.5a.9.9,0,0,1-.145-.185.967.967,0,0,1,.179.154l.478.471c.223.188.5.416.822.668a13.673,13.673,0,0,0,1.182.756,25.822,25.822,0,0,0,3.322,1.533c1.282.515,2.715,1.041,4.147,1.774a10.933,10.933,0,0,1,3.542,2.8,9.6,9.6,0,0,1,1.643,3.3,11.1,11.1,0,0,1,.393,2.456c.011.294.013.522,0,.676a.919.919,0,0,1-.02.235" transform="translate(-135.423 -37.451)" fill="#455a64"/>
            <path id="Trazado_641796" data-name="Trazado 641796" d="M254.536,292.418l3.3,5.576-26.332,14.548.942-20.124,5.083-4.466Z" transform="translate(-130.292 -162.06)" fill="#263238"/>
            <path id="Trazado_641797" data-name="Trazado 641797" d="M155.282,196.449s4.037-23.224,4.89-24.42a27.342,27.342,0,0,1,4.269-3.586l8.538,20.642-1.192,7.895Z" transform="translate(-87.393 -94.8)" fill="#f9a21b"/>
            <path id="Trazado_641798" data-name="Trazado 641798" d="M191.493,154.717c-.683.085-11.9,3.07-15.261,5.584l7.018,28.438,2.22,25.783,23.649,1.708,15.609,2.982-1.353-2.954s.6,1.082.258-1.138-5.549-8.708-5.293-10.331,2.22-4.268,2.817-7.513a79.64,79.64,0,0,0,.609-9.868c.106-10.986-.326-26.972-.326-26.972l-10.535-3.958c-3.557,4.481-13.057,3.547-17.688-2.5Z" transform="translate(-99.184 -86.658)" fill="#f9a21b"/>
            <path id="Trazado_641799" data-name="Trazado 641799" d="M278.151,168.631s6.043,2.907,7.218,7.27,5.2,20.725,5.2,20.725-9.23.576-11.915-.971-.5-27.025-.5-27.025" transform="translate(-156.074 -94.906)" fill="#f9a21b"/>
            <path id="Trazado_641800" data-name="Trazado 641800" d="M183.245,200.077a1.417,1.417,0,0,1-.03-.29c-.011-.214-.024-.49-.042-.832-.055-.721-.155-1.763-.338-3.043a88.78,88.78,0,0,0-2.1-9.883,64.98,64.98,0,0,0-3.3-9.541c-.291-.575-.525-1.114-.781-1.557s-.467-.834-.667-1.133l-.481-.678a1.459,1.459,0,0,1-.157-.248,1.424,1.424,0,0,1,.192.219l.519.658c.213.294.43.683.7,1.121s.513.976.815,1.552a59.435,59.435,0,0,1,3.376,9.549,78.511,78.511,0,0,1,2.04,9.921c.164,1.287.24,2.336.268,3.06,0,.344,0,.622,0,.836a1.378,1.378,0,0,1-.016.29" transform="translate(-98.685 -97.292)" fill="#263238"/>
            <path id="Trazado_641801" data-name="Trazado 641801" d="M172.126,224.308a2.949,2.949,0,0,1-.589.08c-.381.039-.933.073-1.617.094a36.028,36.028,0,0,1-10.584-1.277c-.659-.184-1.188-.348-1.548-.476a2.963,2.963,0,0,1-.553-.218,3,3,0,0,1,.579.133c.368.1.9.242,1.563.405a43.09,43.09,0,0,0,10.541,1.272c.681,0,1.233-.01,1.615-.022a2.988,2.988,0,0,1,.595.009" transform="translate(-88.492 -125.228)" fill="#263238"/>
            <path id="Trazado_641802" data-name="Trazado 641802" d="M268.347,174.669c-.35-2.147-1.465-4.129-1.669-6.295a25.239,25.239,0,0,1,.426-5.04,19.476,19.476,0,0,0-3.291-13.007l-8.859,2.279c-1.143,1.768-.525,4.133.438,6.005s2.263,3.675,2.44,5.772c.188,2.232-.942,4.407-.826,6.644.128,2.464,1.719,4.567,2.74,6.814s1.3,5.308-.654,6.818a4.306,4.306,0,0,0,3.862-2.479q.036,1.121.071,2.242a9.321,9.321,0,0,0,5.322-9.753" transform="translate(-143.141 -84.605)" fill="#263238"/>
            <path id="Trazado_641803" data-name="Trazado 641803" d="M171.657,192.766c.005.063-2.07.287-4.635.5s-4.649.336-4.654.273,2.07-.286,4.635-.5,4.649-.336,4.654-.273" transform="translate(-91.381 -108.48)" fill="#fff"/>
            <path id="Trazado_641804" data-name="Trazado 641804" d="M219.338,193.881c0,.063-7.214.416-16.117.789s-16.126.624-16.128.561,7.213-.416,16.119-.789,16.124-.624,16.127-.561" transform="translate(-105.296 -109.111)" fill="#fff"/>
            <path id="Trazado_641805" data-name="Trazado 641805" d="M289.186,189.752c-.017.066-1.24-.22-2.776-.355s-2.79-.08-2.795-.149a11.956,11.956,0,0,1,5.57.5" transform="translate(-159.62 -106.433)" fill="#fff"/>
            <path id="Trazado_641806" data-name="Trazado 641806" d="M167.685,369.972c-.887.153-25.369,5.4-25.369,5.4l-3.369-10.919,24-9.5Z" transform="translate(-78.2 -199.771)" fill="#ffbe9d"/>
            <path id="Trazado_641807" data-name="Trazado 641807" d="M125.049,370.477s-3.919,9.565,2.724,12.126l-2.052,2.726L108.8,395.967a2.59,2.59,0,0,1-3.391-.478,2.5,2.5,0,0,1-.3-2.681c2.3-4.628,10.844-21.61,12.59-22.009l4.546-1.348a2.909,2.909,0,0,1,2.8,1.025" transform="translate(-59.01 -207.886)" fill="#f9a21b"/>
            <g id="Grupo_927520" data-name="Grupo 927520" transform="translate(45.811 162.421)" opacity="0.6">
              <g id="Grupo_927519" data-name="Grupo 927519">
                <g id="Grupo_927518" data-name="Grupo 927518" clip-path="url(#clip-path-8)">
                  <path id="Trazado_641808" data-name="Trazado 641808" d="M105.113,396.3,119.237,371.5l-.989.31c-1.1.237-1.381.837-1.911,1.558-1.57,2.137-4.835,7.721-11.288,20.564a2.5,2.5,0,0,0,.063,2.362" transform="translate(-104.784 -371.504)" fill="#fff"/>
                </g>
              </g>
            </g>
            <g id="Grupo_927523" data-name="Grupo 927523" transform="translate(61.248 162.389)" opacity="0.6">
              <g id="Grupo_927522" data-name="Grupo 927522">
                <g id="Grupo_927521" data-name="Grupo 927521" clip-path="url(#clip-path-9)">
                  <path id="Trazado_641809" data-name="Trazado 641809" d="M142.9,373.288a1.515,1.515,0,0,1-1.765.986,1.456,1.456,0,0,1-.993-1.74,1.6,1.6,0,0,1,1.874-1.035,1.511,1.511,0,0,1,.833,1.925" transform="translate(-140.093 -371.432)" fill="#fff"/>
                </g>
              </g>
            </g>
            <path id="Trazado_641810" data-name="Trazado 641810" d="M125.03,408.623a5.4,5.4,0,0,1,3.808,4c.064,0,.153-.35.059-.919a3.991,3.991,0,0,0-2.945-3.1c-.565-.122-.921-.051-.922.013" transform="translate(-70.367 -229.929)" fill="#263238"/>
            <path id="Trazado_641811" data-name="Trazado 641811" d="M119.071,414.723c-.066.143.926.654,1.65,1.752a20.425,20.425,0,0,1,1.006,2.186,2.776,2.776,0,0,0-.561-2.486c-.832-1.247-2.07-1.593-2.095-1.452" transform="translate(-67.012 -233.39)" fill="#263238"/>
            <path id="Trazado_641812" data-name="Trazado 641812" d="M131.969,398.763A25.015,25.015,0,0,1,134.7,401.3a24.98,24.98,0,0,1,1.89,3.207,6.846,6.846,0,0,0-4.618-5.74" transform="translate(-74.271 -224.415)" fill="#263238"/>
            <path id="Trazado_641813" data-name="Trazado 641813" d="M144.514,393.865c-.12.106.821,1.226,1.406,2.884.609,1.65.6,3.113.759,3.118a6.213,6.213,0,0,0-2.165-6" transform="translate(-81.327 -221.664)" fill="#263238"/>
            <path id="Trazado_641814" data-name="Trazado 641814" d="M148.159,396.4a2.109,2.109,0,0,0,.834-.4,6.424,6.424,0,0,0,1.8-1.778,2.848,2.848,0,0,0,.635-1.714,1.008,1.008,0,0,0-.727-.9,1.641,1.641,0,0,0-1.157.172,3.54,3.54,0,0,0-1.454,4.27,4.107,4.107,0,0,0,3.779,2.569,1.425,1.425,0,0,0,1.08-.492.987.987,0,0,0-.018-1.158,3.506,3.506,0,0,0-1.49-1.035,7.154,7.154,0,0,0-2.457-.592,2.177,2.177,0,0,0-.922.061,11.413,11.413,0,0,1,3.22.875,3.27,3.27,0,0,1,1.277.934.526.526,0,0,1,.014.631.978.978,0,0,1-.729.282,3.664,3.664,0,0,1-3.25-2.265,3.073,3.073,0,0,1,1.182-3.643,1.188,1.188,0,0,1,.8-.154.545.545,0,0,1,.408.491,2.577,2.577,0,0,1-.511,1.461,9.492,9.492,0,0,1-2.316,2.385" transform="translate(-83.22 -220.372)" fill="#263238"/>
            <path id="Trazado_641815" data-name="Trazado 641815" d="M165.417,232.9a126.968,126.968,0,0,0,1.007,14.18c.923,6.356,2.24,9.965,3.721,11.727a3.368,3.368,0,0,0,3.076,1.426l14.768-22.656-4.7-2.433-5.874,6.377.074-8.267Z" transform="translate(-93.097 -131.079)" fill="#ffbe9d"/>
            <path id="Trazado_641816" data-name="Trazado 641816" d="M216.605,344.591c-.115.893-2.315,25.835-2.315,25.835H202.864l-2-25.731Z" transform="translate(-113.045 -193.937)" fill="#ffbe9d"/>
            <path id="Trazado_641817" data-name="Trazado 641817" d="M201.768,391.066s9.1,6.461,13.509.868l1.152,2.71,5.176,19.308a2.59,2.59,0,0,1-1.456,3.1,2.5,2.5,0,0,1-2.649-.506c-3.744-3.562-17.453-16.732-17.319-18.519l.053-4.741a2.41,2.41,0,0,1,1.534-2.219" transform="translate(-112.662 -220.093)" fill="#f9a21b"/>
            <g id="Grupo_927526" data-name="Grupo 927526" transform="translate(87.504 176.284)" opacity="0.6">
              <g id="Grupo_927525" data-name="Grupo 927525">
                <g id="Grupo_927524" data-name="Grupo 927524" clip-path="url(#clip-path-10)">
                  <path id="Trazado_641818" data-name="Trazado 641818" d="M219.684,424.018l-19.528-20.8,0,1.035a2.885,2.885,0,0,0,.926,2.285c1.579,2.13,5.953,6.9,16.322,16.849a2.5,2.5,0,0,0,2.276.636" transform="translate(-200.147 -403.213)" fill="#fff"/>
                </g>
              </g>
            </g>
            <g id="Grupo_927529" data-name="Grupo 927529" transform="translate(88.172 172.964)" opacity="0.6">
              <g id="Grupo_927528" data-name="Grupo 927528">
                <g id="Grupo_927527" data-name="Grupo 927527" clip-path="url(#clip-path-11)">
                  <path id="Trazado_641819" data-name="Trazado 641819" d="M203.876,395.855a1.515,1.515,0,0,1,.422,1.977,1.456,1.456,0,0,1-1.956.436,1.6,1.6,0,0,1-.437-2.1,1.511,1.511,0,0,1,2.085-.228" transform="translate(-201.675 -395.62)" fill="#fff"/>
                </g>
              </g>
            </g>
            <path id="Trazado_641820" data-name="Trazado 641820" d="M231.924,422.8c.139.067.685-1.215,2.135-1.91a7.649,7.649,0,0,1,2.812-.55c.021-.06-.289-.249-.861-.327a3.992,3.992,0,0,0-3.826,1.9c-.283.5-.32.865-.259.884" transform="translate(-130.513 -236.371)" fill="#263238"/>
            <path id="Trazado_641821" data-name="Trazado 641821" d="M235.95,431.644a20.372,20.372,0,0,1,2.16-1.06,20.4,20.4,0,0,1,2.386-.317,2.776,2.776,0,0,0-2.541-.2c-1.437.427-2.132,1.508-2,1.573" transform="translate(-132.785 -241.945)" fill="#263238"/>
            <path id="Trazado_641822" data-name="Trazado 641822" d="M224.494,413.133a25.035,25.035,0,0,1,3.224-1.861,25.062,25.062,0,0,1,3.622-.86,6.846,6.846,0,0,0-6.846,2.721" transform="translate(-126.341 -230.881)" fill="#263238"/>
            <path id="Trazado_641823" data-name="Trazado 641823" d="M223.51,402.082c.066.146,1.413-.424,3.17-.494,1.756-.095,3.152.346,3.2.194a6.212,6.212,0,0,0-6.373.3" transform="translate(-125.79 -225.707)" fill="#263238"/>
            <path id="Trazado_641824" data-name="Trazado 641824" d="M227.855,396.443a2.112,2.112,0,0,0-.137-.915,6.42,6.42,0,0,0-1.168-2.244,2.845,2.845,0,0,0-1.451-1.112,1.006,1.006,0,0,0-1.074.429,1.64,1.64,0,0,0-.177,1.156A3.539,3.539,0,0,0,227.5,396.4a4.1,4.1,0,0,0,3.568-2.853,1.423,1.423,0,0,0-.152-1.177.987.987,0,0,0-1.112-.323,3.5,3.5,0,0,0-1.428,1.119,7.158,7.158,0,0,0-1.29,2.173,2.189,2.189,0,0,0-.214.9,11.4,11.4,0,0,1,1.786-2.819,3.268,3.268,0,0,1,1.269-.945.527.527,0,0,1,.607.173.978.978,0,0,1,.055.78,3.664,3.664,0,0,1-3.122,2.438,3.074,3.074,0,0,1-3.133-2.2,1.191,1.191,0,0,1,.09-.812.545.545,0,0,1,.589-.246,2.575,2.575,0,0,1,1.246.919,9.5,9.5,0,0,1,1.6,2.916" transform="translate(-125.964 -220.616)" fill="#263238"/>
            <path id="Trazado_641825" data-name="Trazado 641825" d="M268.744,231.5s-.985,21.313-2.579,24.669-3.685,5.113-5.283,4.738-16.262-7.632-18.582-15.043l4.789-4.957s8.816,5.365,10.128,5.321l1.731-15.783Z" transform="translate(-136.368 -129.695)" fill="#ffbe9d"/>
            <path id="Trazado_641826" data-name="Trazado 641826" d="M281.736,271.838c-.04.005-.082-.465-.325-1.172a6.064,6.064,0,0,0-4.025-3.881c-.715-.217-1.187-.242-1.183-.282a.857.857,0,0,1,.332-.014,4.813,4.813,0,0,1,.894.14,5.746,5.746,0,0,1,4.135,3.987,4.812,4.812,0,0,1,.173.888.856.856,0,0,1,0,.332" transform="translate(-155.448 -149.979)" fill="#eb996e"/>
            <path id="Trazado_641827" data-name="Trazado 641827" d="M184.637,252.02a12.286,12.286,0,0,1-1.024,1.052c-.641.64-1.505,1.543-2.4,2.593s-1.649,2.048-2.179,2.782a12.244,12.244,0,0,1-.877,1.178,1.341,1.341,0,0,1,.176-.355c.125-.222.318-.534.568-.915a29.592,29.592,0,0,1,4.6-5.4c.336-.307.614-.547.813-.706a1.345,1.345,0,0,1,.323-.23" transform="translate(-100.266 -141.837)" fill="#eb996e"/>
            <path id="Trazado_641828" data-name="Trazado 641828" d="M170.846,329.74s47.646-20.965,49.772-22.146,9.447-4.133,12.989-2.125a12.289,12.289,0,0,1,5.314,13.815c-1.889,6.14-10.509,15.823-13.461,17.595s-26.569.945-26.569.945l-22.656,6.753Z" transform="translate(-96.152 -171.535)" fill="#263238"/>
            <path id="Trazado_641829" data-name="Trazado 641829" d="M268,354.128a2.239,2.239,0,0,1-.3.224c-.2.136-.488.353-.88.6a33.57,33.57,0,0,1-3.408,1.92,47.2,47.2,0,0,1-5.357,2.227c-2.061.725-4.368,1.4-6.806,2.03-4.884,1.24-9.335,2.218-12.5,3.143-1.585.452-2.857.856-3.729,1.152l-1.006.341a2.273,2.273,0,0,1-.355.107,2.232,2.232,0,0,1,.339-.15c.226-.088.557-.227.992-.382.865-.322,2.132-.75,3.714-1.222,3.16-.967,7.612-1.972,12.488-3.21,2.434-.63,4.736-1.3,6.794-2.007a50.1,50.1,0,0,0,5.357-2.173,38.782,38.782,0,0,0,3.432-1.85c.4-.231.693-.435.9-.56a2.283,2.283,0,0,1,.322-.185" transform="translate(-131.504 -199.304)" fill="#455a64"/>
            <path id="Trazado_641830" data-name="Trazado 641830" d="M314.316,336.33a3.523,3.523,0,0,1,.118,1.056,10.022,10.022,0,0,1-1.221,4.943,3.518,3.518,0,0,1-.6.88,13.633,13.633,0,0,0,1.7-6.879" transform="translate(-175.939 -189.287)" fill="#455a64"/>
            <path id="Trazado_641831" data-name="Trazado 641831" d="M261.835,308.415a1.052,1.052,0,0,1-.225.118l-.663.3-2.438,1.08c-2.054.921-4.862,2.259-7.945,3.776s-5.884,2.88-7.935,3.814c-1.025.468-1.859.837-2.44,1.08l-.671.277a1.078,1.078,0,0,1-.24.082,1.037,1.037,0,0,1,.221-.124l.654-.316,2.408-1.145c2.032-.97,4.818-2.354,7.9-3.873s5.907-2.833,7.981-3.718c1.037-.443,1.88-.79,2.469-1.014l.679-.256a1.06,1.06,0,0,1,.243-.075" transform="translate(-134.665 -173.576)" fill="#455a64"/>
            <path id="Trazado_641832" data-name="Trazado 641832" d="M280.875,189.249a4.677,4.677,0,0,1,.152.734c.087.474.185,1.166.282,2.023a43.62,43.62,0,0,1-.613,13.424c-.174.845-.335,1.524-.465,1.989a4.716,4.716,0,0,1-.219.717,4.707,4.707,0,0,1,.132-.738c.1-.47.24-1.153.393-2a49.767,49.767,0,0,0,.611-13.377c-.076-.856-.149-1.549-.209-2.027a4.725,4.725,0,0,1-.065-.746" transform="translate(-157.59 -106.51)" fill="#263238"/>
            <path id="Trazado_641833" data-name="Trazado 641833" d="M212.758,224.244,207.155,237s-22.478,6.906-24.693,9.056h-1.6l12.614-14.79s9.992-5.61,12.793-6.385,5.71-1.238,5.71-1.238Z" transform="translate(-101.787 -125.866)" fill="#fff"/>
            <path id="Trazado_641834" data-name="Trazado 641834" d="M210.756,233.806s7.658-4.461,11.215-5.6a62.182,62.182,0,0,1,6.847-1.737l-5.553,12.591L208.6,242.3Z" transform="translate(-117.403 -127.46)" fill="#bd7c15"/>
            <path id="Trazado_641835" data-name="Trazado 641835" d="M229.153,239.72s-.6-1.161-.23-1.714,4.377-1.078,6.9-1.384,4.081.388,3.918,2.685a3.146,3.146,0,0,1,.851,2.389c-.138,1.43-.851,1.661-.851,1.661s.763,1.753,0,2.675-1.06.784-1.06.784a3.106,3.106,0,0,1-1.044,1.822,8.357,8.357,0,0,1-2.777,1.02l-4.723-9.689Z" transform="translate(-128.77 -133.133)" fill="#ffbe9d"/>
            <path id="Trazado_641836" data-name="Trazado 641836" d="M239.825,243.221a5.8,5.8,0,0,1-1.169.194c-.725.087-1.731.181-2.844.249s-2.123.094-2.854.1a5.739,5.739,0,0,1-1.183-.052,6.525,6.525,0,0,1,1.179-.109l2.845-.162,2.843-.182a6.5,6.5,0,0,1,1.183-.034" transform="translate(-130.443 -136.877)" fill="#eb996e"/>
            <path id="Trazado_641837" data-name="Trazado 641837" d="M241.915,250.867a40.043,40.043,0,0,1-6.031-.32,40.169,40.169,0,0,1,6.031.32" transform="translate(-132.756 -140.988)" fill="#eb996e"/>
            <path id="Trazado_641838" data-name="Trazado 641838" d="M243.463,257.222a7.3,7.3,0,0,1-4.5-.582c.023-.065.991.267,2.232.423s2.26.09,2.266.159" transform="translate(-134.49 -144.433)" fill="#eb996e"/>
            <path id="Trazado_641839" data-name="Trazado 641839" d="M247.533,252.077a1.075,1.075,0,0,1,.179.359,4.564,4.564,0,0,1,.237,1.065,11.849,11.849,0,0,1,.042,1.612,4.967,4.967,0,0,1-.083.962,2.022,2.022,0,0,1-.5.937,4.47,4.47,0,0,1-1.7,1.048,6.974,6.974,0,0,1-1.571.393,4.717,4.717,0,0,1-1.091.025,1.042,1.042,0,0,1-.392-.084,9.554,9.554,0,0,0,1.459-.1,7.667,7.667,0,0,0,1.519-.429,4.461,4.461,0,0,0,1.606-1.006,1.826,1.826,0,0,0,.449-.834,5.032,5.032,0,0,0,.091-.919,14.4,14.4,0,0,0,.007-1.59,8.485,8.485,0,0,0-.256-1.438" transform="translate(-136.569 -141.869)" fill="#eb996e"/>
            <path id="Trazado_641840" data-name="Trazado 641840" d="M186.372,240.624a5.337,5.337,0,0,1,2.877-1.733c1.441-.091,4.722-.628,6.168,2.109s3.279,11.046,3.328,14.059-2.722,42.089-2.722,42.089H179.972l-1.47-9.357-10.219,4.347a11.331,11.331,0,0,1-4.471-8.648c-.393-6.027.362-13.5,1.688-15.461s20.871-27.407,20.871-27.407" transform="translate(-92.135 -134.391)" fill="#263238"/>
            <path id="Trazado_641841" data-name="Trazado 641841" d="M214.434,273.181s0,.066,0,.193-.017.324-.031.568c-.031.508-.077,1.244-.136,2.194-.128,1.921-.314,4.7-.546,8.181-.254,3.484-.49,7.674-.77,12.4s-.6,9.977-.934,15.594l-.006.1h-.1l-11.931,0h-3.836l-.018-.092-1.93-9.9,0,.014a46.8,46.8,0,0,1-2.267-14.725,63.519,63.519,0,0,1,1.16-11.755c.616-3.262,1.285-5.821,1.771-7.567.239-.874.451-1.541.584-1.994.068-.22.12-.39.157-.513s.06-.172.06-.172-.011.061-.041.178l-.139.518c-.121.457-.321,1.127-.549,2-.463,1.751-1.111,4.313-1.706,7.573a64.245,64.245,0,0,0-1.108,11.73A46.841,46.841,0,0,0,194.4,302.37l0,.007v.007l1.938,9.9-.111-.092h3.742l11.931,0-.111.1c.347-5.616.672-10.87.963-15.593s.547-8.91.82-12.393.468-6.258.611-8.177c.075-.949.133-1.685.174-2.192.021-.243.038-.431.05-.566s.024-.192.024-.192" transform="translate(-108.015 -149.543)" fill="#455a64"/>
            <path id="Trazado_641842" data-name="Trazado 641842" d="M226.227,211.989,222,212.38l2.448,2a1.856,1.856,0,0,0,1.778-2.391" transform="translate(-124.943 -119.308)" fill="#ffbe9d"/>
            <path id="Trazado_641843" data-name="Trazado 641843" d="M202.493,210.536l-4.759-1.885a.814.814,0,1,1,.627-1.5l5.987,2.63,9.55,4.194.938,1.253-1.584.333Z" transform="translate(-110.996 -116.545)" fill="#263238"/>
            <path id="Trazado_641844" data-name="Trazado 641844" d="M205.393,222.874a2.88,2.88,0,0,1-.435-1.89,7.7,7.7,0,0,0-.034-2.253s-.526-1.72,0-2.4a2.109,2.109,0,0,0,.47-1.351s.056-1.762.547-1.895,5.1-2.221,5.712-1.975,5.59,4.607,5.59,4.607.493,1.3-.675,1.263l1.535,1.439-2.7,1.131-8.1,4.31s-1.468.193-1.912-.99" transform="translate(-115.2 -118.804)" fill="#ffbe9d"/>
            <path id="Trazado_641845" data-name="Trazado 641845" d="M221.023,228.639a7.35,7.35,0,0,1-1.124-.149,24.783,24.783,0,0,0-5.43-.231,7.354,7.354,0,0,1-1.133.053,4.549,4.549,0,0,1,1.118-.213,17.307,17.307,0,0,1,5.473.233,4.535,4.535,0,0,1,1.1.308" transform="translate(-120.065 -128.308)" fill="#eb996e"/>
            <path id="Trazado_641846" data-name="Trazado 641846" d="M221.54,222.319a5.36,5.36,0,0,0-.961-.747,7.36,7.36,0,0,0-2.839-.716c-1.151-.1-2.212-.052-2.98-.093a4.492,4.492,0,0,1-1.236-.147c0-.034.475,0,1.238-.014a28.973,28.973,0,0,1,3,.027,6.729,6.729,0,0,1,2.9.8,2.776,2.776,0,0,1,.7.6c.136.17.191.278.18.285" transform="translate(-120.172 -124.14)" fill="#eb996e"/>
            <path id="Trazado_641847" data-name="Trazado 641847" d="M226.528,216a4.546,4.546,0,0,1-.834-.584c-.5-.383-1.172-.924-1.908-1.532s-1.4-1.17-1.866-1.584a4.535,4.535,0,0,1-.731-.707,4.537,4.537,0,0,1,.833.584c.5.383,1.172.924,1.909,1.533s1.4,1.169,1.866,1.584a4.494,4.494,0,0,1,.73.707" transform="translate(-124.486 -119.084)" fill="#eb996e"/>
            <path id="Trazado_641848" data-name="Trazado 641848" d="M207.883,237.18c.006.026-.207.1-.567.093a2.316,2.316,0,0,1-2.112-1.6c-.107-.344-.089-.569-.063-.571s.075.207.213.513a2.526,2.526,0,0,0,1.976,1.5,3.373,3.373,0,0,1,.552.068" transform="translate(-115.443 -132.314)" fill="#eb996e"/>
            <path id="Trazado_641849" data-name="Trazado 641849" d="M178.89,256.558s-3.128,2.6-3.013,11-.556,10.971-.556,10.971h1.784l14.206-16.218a20.165,20.165,0,0,1-1.035-7.821c.178-2.952,2.631-11.5,2.631-11.5l-.884.113Z" transform="translate(-98.672 -136.753)" fill="#bd7c15"/>
            <path id="Trazado_641850" data-name="Trazado 641850" d="M176.868,255.6s-3.128,2.6-3.013,11-.556,10.972-.556,10.972h1.784l14.206-16.218a20.166,20.166,0,0,1-1.035-7.821c.178-2.952,2.631-11.5,2.631-11.5l-1.668-.948Z" transform="translate(-97.534 -135.679)" fill="#ebebeb"/>
            <path id="Trazado_641851" data-name="Trazado 641851" d="M189.3,241.9a.35.35,0,0,1-.019.1l-.077.282q-.117.395-.319,1.076c-.3.929-.672,2.293-1.1,3.991a45.52,45.52,0,0,0-1.07,6.074,23.677,23.677,0,0,0-.087,3.651q.047.473.095.954c.059.316.1.641.174.957l.117.477.153.469a3.751,3.751,0,0,0,.431.871l.062.083-.069.07-.924.932a125,125,0,0,0-9.647,11.072c-1.15,1.488-2.051,2.715-2.67,3.566l-.712.98-.189.252c-.044.056-.068.084-.071.081a.375.375,0,0,1,.052-.094l.171-.265c.153-.231.377-.573.677-1.005.6-.867,1.479-2.11,2.614-3.612a115.014,115.014,0,0,1,9.612-11.134l.926-.933-.007.153a3.869,3.869,0,0,1-.469-.939l-.158-.484-.119-.49c-.08-.325-.117-.654-.176-.977q-.047-.489-.094-.969a23.621,23.621,0,0,1,.1-3.686,43.631,43.631,0,0,1,1.123-6.091c.451-1.7.852-3.056,1.173-3.979l.358-1.065.1-.275a.349.349,0,0,1,.041-.091" transform="translate(-97.576 -136.141)" fill="#263238"/>
            <path id="Trazado_641852" data-name="Trazado 641852" d="M207.641,286.438a2.6,2.6,0,0,1-.975-.455c-.506-.3-.89-.6-.857-.649a2.611,2.611,0,0,1,.974.454c.506.305.89.6.857.65" transform="translate(-115.829 -160.582)" fill="#263238"/>
            <path id="Trazado_641853" data-name="Trazado 641853" d="M195.261,270.7a3.206,3.206,0,0,1-.12-.61c-.066-.394-.132-.97-.186-1.683a27.043,27.043,0,0,1,1.5-11.01c.243-.673.461-1.21.63-1.572a3.216,3.216,0,0,1,.279-.555,3.235,3.235,0,0,1-.2.588c-.144.372-.338.915-.56,1.591a30.346,30.346,0,0,0-1.494,10.948c.033.711.074,1.286.113,1.682a3.252,3.252,0,0,1,.032.62" transform="translate(-109.682 -143.667)" fill="#263238"/>
            <path id="Trazado_641854" data-name="Trazado 641854" d="M190.637,275.834a1.7,1.7,0,0,1-.184-.458,8.33,8.33,0,0,1-.292-1.313,28.752,28.752,0,0,1-.135-4.421,16.648,16.648,0,0,1,.212-2.433,12.477,12.477,0,0,1,.492-1.934,10.874,10.874,0,0,1,.512-1.242,1.83,1.83,0,0,1,.246-.428c.035.017-.275.645-.6,1.72a14.186,14.186,0,0,0-.438,1.918,18.394,18.394,0,0,0-.191,2.405,37,37,0,0,0,.067,4.394c.121,1.117.355,1.78.316,1.792" transform="translate(-106.937 -148.357)" fill="#263238"/>
            <path id="Trazado_641855" data-name="Trazado 641855" d="M185.865,281.131a1.39,1.39,0,0,1-.007-.373c.014-.284.032-.625.052-1.027.053-.875.14-2.1.251-3.513l.039.094a1.8,1.8,0,0,1,.317-2.969l.039.206a1.466,1.466,0,0,1-.593-2.712l.142-.082-.037.154a1.091,1.091,0,0,1-.674.773.58.58,0,0,1-.365.047c0-.018.129-.017.335-.115a1.039,1.039,0,0,0,.567-.731l.1.072a1.359,1.359,0,0,0-.592,1.208,1.311,1.311,0,0,0,1.136,1.168l.352.041-.313.165a1.585,1.585,0,0,0-.277,2.605l.044.037,0,.056c-.123,1.41-.238,2.635-.33,3.506l-.117,1.022a1.389,1.389,0,0,1-.068.366" transform="translate(-104.135 -152.383)" fill="#263238"/>
            <path id="Trazado_641856" data-name="Trazado 641856" d="M183.893,285.577a1.236,1.236,0,0,1-.154-.351,8.138,8.138,0,0,1-.29-1,14.708,14.708,0,0,1-.342-3.418,29.133,29.133,0,0,1,.255-3.421,8.226,8.226,0,0,1,.238-1.4,9.378,9.378,0,0,1-.078,1.417c-.07.872-.175,2.075-.187,3.4a17.9,17.9,0,0,0,.272,3.383c.16.856.324,1.372.287,1.385" transform="translate(-103.052 -155.326)" fill="#263238"/>
            <path id="Trazado_641857" data-name="Trazado 641857" d="M180.085,290.6a1.971,1.971,0,0,1-.047-.482c-.015-.31-.03-.759-.044-1.314-.022-1.111-.063-2.645-.03-4.342a29.211,29.211,0,0,1,.373-4.333c.1-.549.2-.988.277-1.29a1.965,1.965,0,0,1,.151-.46c.037.009-.119.678-.268,1.775a37.85,37.85,0,0,0-.3,4.313c-.033,1.691-.018,3.225-.037,4.336-.007.555-.017,1-.028,1.315a1.984,1.984,0,0,1-.042.483" transform="translate(-101.278 -156.673)" fill="#263238"/>
            <path id="Trazado_641858" data-name="Trazado 641858" d="M182.518,350.092a2.113,2.113,0,0,1-.434.256c-.286.151-.7.362-1.222.616-1.037.509-2.48,1.19-4.088,1.91s-3.082,1.338-4.16,1.755c-.54.205-.978.369-1.286.47a2.121,2.121,0,0,1-.484.138,2.174,2.174,0,0,1,.452-.221l1.257-.536c1.06-.455,2.52-1.093,4.128-1.813l4.113-1.848,1.252-.551a2.185,2.185,0,0,1,.472-.176" transform="translate(-96.152 -197.031)" fill="#455a64"/>
          </g>
        </g>
        <g id="Grupo_927542" data-name="Grupo 927542">
          <g id="Grupo_927541" data-name="Grupo 927541" clip-path="url(#clip-path)">
            <path id="Trazado_641859" data-name="Trazado 641859" d="M82.343,281.514c-1.243-.062-1.608-1.817-1.145-2.972s1.378-2.183,1.391-3.427c.011-1.08-.675-2.061-.74-3.139-.118-1.945,1.761-3.53,1.84-5.476.063-1.517-.99-2.962-.735-4.459.274-1.606,1.949-2.661,2.334-4.245.409-1.686-.761-3.47-.312-5.146s2.414-2.9,2.134-4.6a16.037,16.037,0,0,0-.585-1.608,4.2,4.2,0,0,1,1.184-3.617,13.871,13.871,0,0,0,2.393-3.133c.8-1.865.244-4.135,1.187-5.931.786-1.495,2.534-2.5,2.755-4.176.887,1.507.02,3.426.222,5.163a16.652,16.652,0,0,0,1.079,3.236,8.427,8.427,0,0,1-.661,6.742c-.76,1.336-1.932,2.6-1.873,4.132.072,1.859,1.933,3.208,2.261,5.04.47,2.621-2.321,4.977-1.935,7.612.1.679.411,1.319.469,2,.2,2.329-2.443,3.974-2.845,6.276-.3,1.694.684,3.445.279,5.117-.312,1.289-1.425,2.444-1.152,3.741a9.013,9.013,0,0,0,.711,1.566,2.986,2.986,0,0,1-.467,3.087,2.6,2.6,0,0,1-3,.617" transform="translate(-45.59 -129.21)" fill="#b7ceac"/>
            <path id="Trazado_641861" data-name="Trazado 641861" d="M89.958,280.406a3.414,3.414,0,0,1-.48-1.84c.128-.712,1.331-1.337,1.63-2.544.388-1.566-.312-4.335-.014-5.914.405-2.146,2.626-3.558,2.534-5.69-.027-.626.062-2.3,0-2.921-.237-2.4,1.871-4.013,1.564-6.4-.215-1.665-1.942-3.617-1.943-5.325,0-1.41,1.01-2.647,1.682-3.926a8.81,8.81,0,0,0,.76-6.251,15.121,15.121,0,0,1-.792-2.91c-.113-1.587.666-3.41-.021-4.74-.235,1.556-1.716,2.6-2.414,4.024-.839,1.715-.45,3.769-1.17,5.538a14.9,14.9,0,0,1-2.081,3.04,4.525,4.525,0,0,0-1.095,3.407,14.5,14.5,0,0,1,.435,1.443c.178,1.553-1.49,2.809-1.913,4.375s.489,3.139.1,4.718c-.368,1.483-1.82,3.5-2.1,4.995-.258,1.395,1.006,2.3.906,3.7-.127,1.8-1.929,3.972-1.892,5.755.02.988.847,1.305.8,2.3a20.378,20.378,0,0,1-1.429,4.518,3.1,3.1,0,0,0,.3,3.077l5.343,2.65c2.385-1.137,2.28-3.455,1.289-5.09" transform="translate(-46.573 -130.543)" fill="#2b6e17"/>
            <path id="Trazado_641862" data-name="Trazado 641862" d="M97.725,250.531a.508.508,0,0,1,.009.118c0,.09,0,.2,0,.347,0,.305,0,.756-.055,1.336a6.666,6.666,0,0,1-.482,2.063,10.674,10.674,0,0,1-1.608,2.293,4.242,4.242,0,0,0-.762,1.4,4.738,4.738,0,0,0-.194,1.71c.057,1.206.429,2.462.605,3.832a5.841,5.841,0,0,1-.069,2.126,4.05,4.05,0,0,1-.418,1.03,9.312,9.312,0,0,0-.564.938,3.493,3.493,0,0,0-.031,2.168c.077.376.161.758.206,1.153a4.581,4.581,0,0,1-.03,1.2,9.482,9.482,0,0,1-.736,2.244,18.114,18.114,0,0,0-.826,2.1,5.426,5.426,0,0,0-.185,2.134,9.624,9.624,0,0,1,.075,2.119,6.435,6.435,0,0,1-.674,1.907,7.5,7.5,0,0,0-.673,1.734,18.319,18.319,0,0,0,.085,3.359,9.021,9.021,0,0,1-.614,2.737,9.6,9.6,0,0,0-.522,2.029,2.925,2.925,0,0,0,.135,1.3c.108.281.192.42.181.426a2.292,2.292,0,0,1-.221-.411,2.848,2.848,0,0,1-.178-1.324,9.34,9.34,0,0,1,.491-2.059,9.027,9.027,0,0,0,.577-2.7,15.962,15.962,0,0,0-.13-1.612,6.041,6.041,0,0,1,.022-1.781c.231-1.238,1.138-2.3,1.326-3.632a9.529,9.529,0,0,0-.083-2.075,5.636,5.636,0,0,1,.187-2.21c.41-1.455,1.3-2.781,1.552-4.321a4.357,4.357,0,0,0,.029-1.145c-.043-.38-.125-.756-.2-1.134a3.681,3.681,0,0,1,.049-2.3,9.3,9.3,0,0,1,.577-.959,3.841,3.841,0,0,0,.4-.974,5.663,5.663,0,0,0,.071-2.052c-.166-1.347-.534-2.613-.586-3.848a4.882,4.882,0,0,1,.214-1.769,4.387,4.387,0,0,1,.8-1.436,10.768,10.768,0,0,0,1.619-2.249,6.726,6.726,0,0,0,.508-2.023c.065-.574.078-1.024.095-1.328.007-.143.013-.257.017-.347a.518.518,0,0,1,.013-.118" transform="translate(-50.749 -140.999)" fill="#263238"/>
            <path id="Trazado_641863" data-name="Trazado 641863" d="M60.83,253.017c-1.739.254-2.726-2.077-2.4-3.8s1.312-3.4.989-5.129c-.281-1.5-1.5-2.67-1.885-4.146-.7-2.662,1.472-5.373,1.05-8.092-.329-2.119-2.184-3.833-2.24-5.976-.061-2.3,1.972-4.221,2.071-6.52.1-2.448-2-4.6-1.842-7.044s2.551-4.673,1.7-6.959a22.681,22.681,0,0,0-1.251-2.068c-.837-1.666-.238-3.7.649-5.335s2.069-3.173,2.457-5c.6-2.8-.794-5.8.021-8.542.679-2.287,2.826-4.16,2.672-6.54,1.642,1.845.966,4.741,1.721,7.093a23.539,23.539,0,0,0,2.381,4.187,11.9,11.9,0,0,1,.93,9.523c-.688,2.059-1.966,4.126-1.462,6.238.609,2.556,3.557,3.915,4.513,6.363,1.369,3.5-1.853,7.532-.6,11.076.324.914.93,1.715,1.2,2.647.913,3.172-2.3,6.175-2.222,9.475.055,2.429,1.891,4.586,1.788,7.013-.079,1.871-1.305,3.775-.571,5.5a12.776,12.776,0,0,0,1.414,1.974,4.216,4.216,0,0,1,.2,4.405,3.665,3.665,0,0,1-3.991,1.677" transform="translate(-31.708 -100.103)" fill="#b7ceac"/>
            <path id="Trazado_641865" data-name="Trazado 641865" d="M70.646,249.716a4.821,4.821,0,0,1-1.169-2.418c-.017-1.021,1.478-2.217,1.562-3.971.109-2.276-1.62-5.921-1.639-8.191-.026-3.084,2.663-5.649,1.953-8.577-.209-.86-.545-3.205-.8-4.046-.986-3.261,1.493-6.072.415-9.289-.754-2.249-3.681-4.48-4.15-6.845-.388-1.954.674-3.944,1.254-5.9a12.44,12.44,0,0,0-.659-8.869A21.348,21.348,0,0,1,65.52,187.8c-.591-2.167-.011-4.906-1.328-6.561.1,2.221-1.666,4.067-2.242,6.236-.692,2.606.409,5.345-.1,7.993a21.018,21.018,0,0,1-2.051,4.782c-.739,1.573-1.247,3.5-.584,5.02a20.277,20.277,0,0,1,1,1.881c.673,2.1-1.3,4.3-1.452,6.586s1.537,4.215,1.427,6.51c-.1,2.156-1.563,5.345-1.538,7.495.024,2,2.024,2.914,2.27,4.883.316,2.525-1.585,6.032-1.045,8.493.3,1.363,1.532,1.576,1.744,2.966.245,1.6-.46,5.022-.742,6.652a4.373,4.373,0,0,0,1.256,4.182l8.128,2.208c2.993-2.228,2.212-5.412.391-7.405" transform="translate(-33.005 -101.999)" fill="#2b6e17"/>
            <path id="Trazado_641866" data-name="Trazado 641866" d="M69.4,207.811a20.46,20.46,0,0,1,.418,2.509,9.431,9.431,0,0,1-.11,2.983,7.483,7.483,0,0,1-.638,1.759c-.291.6-.644,1.2-.966,1.85a6.024,6.024,0,0,0-.679,2.151,6.713,6.713,0,0,0,.2,2.435c.41,1.662,1.269,3.3,1.885,5.148a8.211,8.211,0,0,1,.483,2.948,5.654,5.654,0,0,1-.3,1.53,13.32,13.32,0,0,0-.526,1.458,4.975,4.975,0,0,0,.552,3.04c.209.5.431,1,.6,1.538a6.418,6.418,0,0,1,.285,1.662,13.338,13.338,0,0,1-.4,3.3,25.611,25.611,0,0,0-.568,3.144,7.877,7.877,0,0,0,.014,1.541,8.545,8.545,0,0,0,.317,1.482,13.542,13.542,0,0,1,.684,2.906,9.01,9.01,0,0,1-.409,2.815,10.615,10.615,0,0,0-.456,2.6,8.349,8.349,0,0,0,.434,2.415,22.374,22.374,0,0,1,.609,2.221,8.064,8.064,0,0,1,.1,2.1c-.043.661-.123,1.279-.2,1.855a13.509,13.509,0,0,0-.16,2.959,4.111,4.111,0,0,0,.553,1.769c.23.359.386.527.374.537a3.552,3.552,0,0,1-.411-.514,4.044,4.044,0,0,1-.6-1.782,13.268,13.268,0,0,1,.124-2.983c.068-.577.142-1.193.179-1.848a7.994,7.994,0,0,0-.114-2.06,22.643,22.643,0,0,0-.619-2.2,8.482,8.482,0,0,1-.453-2.464,10.739,10.739,0,0,1,.452-2.643,8.873,8.873,0,0,0,.394-2.756,13.442,13.442,0,0,0-.683-2.861,8.722,8.722,0,0,1-.326-1.514,8.073,8.073,0,0,1-.017-1.583A25.694,25.694,0,0,1,70,242.076a13.172,13.172,0,0,0,.4-3.246,6.208,6.208,0,0,0-.275-1.607c-.165-.518-.383-1.017-.593-1.52a9.414,9.414,0,0,1-.533-1.545,3.562,3.562,0,0,1-.026-1.625,13.24,13.24,0,0,1,.535-1.481,5.49,5.49,0,0,0,.286-1.47,8.04,8.04,0,0,0-.467-2.877c-.6-1.824-1.459-3.475-1.87-5.166a6.859,6.859,0,0,1-.189-2.5,6.15,6.15,0,0,1,.707-2.2c.33-.658.687-1.256.98-1.843a7.438,7.438,0,0,0,.644-1.725,9.513,9.513,0,0,0,.143-2.949c-.07-.813-.178-1.44-.241-1.866-.032-.2-.056-.365-.075-.484a.967.967,0,0,1-.019-.166" transform="translate(-37.832 -116.956)" fill="#263238"/>
            <path id="Trazado_641867" data-name="Trazado 641867" d="M46.517,293.983c-.992.488-2.033-.716-2.172-1.812s.128-2.29-.4-3.261c-.457-.843-1.413-1.309-1.929-2.117-.932-1.459-.157-3.5-.936-5.046-.607-1.2-2.048-1.872-2.5-3.143-.481-1.365.365-2.908-.021-4.3-.41-1.486-2.088-2.364-2.464-3.86s.624-3.29-.33-4.493a14.29,14.29,0,0,0-1.149-1,3.732,3.732,0,0,1-.643-3.319,12.341,12.341,0,0,0,.5-3.465c-.185-1.792-1.6-3.315-1.639-5.116-.035-1.5.887-3.036.335-4.431,1.339.787,1.494,2.651,2.4,3.912a14.778,14.778,0,0,0,2.235,2.046,7.485,7.485,0,0,1,2.4,5.52c-.013,1.365-.379,2.85.331,4.016.859,1.412,2.886,1.656,3.931,2.936,1.5,1.831.347,4.866,1.784,6.744.371.484.888.847,1.229,1.353,1.159,1.722-.181,4.14.5,6.1.5,1.443,2.018,2.379,2.425,3.852.314,1.135-.051,2.512.721,3.4a8.063,8.063,0,0,0,1.228.908,2.651,2.651,0,0,1,.971,2.6,2.305,2.305,0,0,1-2.064,1.775" transform="translate(-18.484 -139.925)" fill="#b7ceac"/>
            <path id="Trazado_641869" data-name="Trazado 641869" d="M51.289,290.342a3.034,3.034,0,0,1-1.166-1.221c-.208-.607.456-1.612.167-2.678-.375-1.383-2.114-3.231-2.564-4.585-.612-1.841.5-3.9-.489-5.511-.291-.475-.946-1.813-1.26-2.267-1.221-1.761-.28-3.923-1.547-5.64-.885-1.2-3.069-1.97-3.807-3.294-.61-1.095-.359-2.491-.39-3.774a7.825,7.825,0,0,0-2.109-5.181,13.424,13.424,0,0,1-1.871-1.917c-.772-1.183-.954-2.934-2.063-3.67.489,1.309-.211,2.756-.136,4.166.09,1.693,1.278,3.12,1.482,4.8a13.2,13.2,0,0,1-.3,3.258,4.02,4.02,0,0,0,.621,3.118,12.793,12.793,0,0,1,.96.933c.809,1.128.056,2.824.4,4.222s1.735,2.226,2.112,3.621c.355,1.31.1,3.5.529,4.783.4,1.194,1.775,1.353,2.3,2.484.677,1.45.217,3.916,1.016,5.284.442.759,1.221.647,1.617,1.438a18.1,18.1,0,0,1,.842,4.125A2.75,2.75,0,0,0,47.2,295.1l5.291-.25c1.361-1.912.278-3.666-1.2-4.508" transform="translate(-19.162 -141.04)" fill="#2b6e17"/>
            <path id="Trazado_641870" data-name="Trazado 641870" d="M40.033,266.34a.383.383,0,0,1,.059.087l.154.268c.13.237.326.587.536,1.059a5.927,5.927,0,0,1,.519,1.81,9.478,9.478,0,0,1-.257,2.476,3.761,3.761,0,0,0,.012,1.408,4.19,4.19,0,0,0,.587,1.408c.565.91,1.4,1.724,2.125,2.712a5.2,5.2,0,0,1,.866,1.683,3.59,3.59,0,0,1,.121.984,8.289,8.289,0,0,0-.032.97,3.094,3.094,0,0,0,.909,1.69c.221.258.453.518.659.807a4.073,4.073,0,0,1,.5.949,8.415,8.415,0,0,1,.4,2.063,16.187,16.187,0,0,0,.266,1.987,4.813,4.813,0,0,0,.776,1.733,8.553,8.553,0,0,1,.974,1.615,5.707,5.707,0,0,1,.3,1.775,6.663,6.663,0,0,0,.225,1.634,16.342,16.342,0,0,0,1.514,2.57,8.016,8.016,0,0,1,.7,2.392,8.556,8.556,0,0,0,.469,1.8,2.6,2.6,0,0,0,.664.952c.2.172.329.245.323.255a1.974,1.974,0,0,1-.351-.222,2.534,2.534,0,0,1-.712-.951,8.29,8.29,0,0,1-.51-1.811,8.032,8.032,0,0,0-.719-2.342,15.844,15.844,0,0,1-1.55-2.589c-.356-1.064-.111-2.279-.54-3.391a8.435,8.435,0,0,0-.96-1.573,5.018,5.018,0,0,1-.811-1.8,35.954,35.954,0,0,0-.661-4.023,3.876,3.876,0,0,0-.47-.9c-.2-.276-.424-.532-.647-.792a3.284,3.284,0,0,1-.956-1.811,8.268,8.268,0,0,1,.034-.995,3.4,3.4,0,0,0-.111-.924,5.024,5.024,0,0,0-.828-1.62c-.71-.973-1.542-1.8-2.116-2.735a4.349,4.349,0,0,1-.6-1.469,3.907,3.907,0,0,1,0-1.463,9.556,9.556,0,0,0,.288-2.443,5.994,5.994,0,0,0-.476-1.789c-.2-.473-.38-.829-.5-1.072l-.135-.277a.388.388,0,0,1-.04-.1" transform="translate(-22.531 -149.897)" fill="#263238"/>
            <path id="Trazado_641871" data-name="Trazado 641871" d="M46.744,342.807l2.057,4.184H73.873l2.829-4.184Z" transform="translate(-26.308 -192.932)" fill="#455a64"/>
            <path id="Trazado_641872" data-name="Trazado 641872" d="M52.824,349.082l3.753,12.956,16.887.014,3.4-12.948Z" transform="translate(-29.73 -196.464)" fill="#455a64"/>
            <path id="Trazado_641873" data-name="Trazado 641873" d="M76.375,352.169c0,.059-5.594.107-12.493.107s-12.494-.048-12.494-.107,5.593-.107,12.494-.107,12.493.048,12.493.107" transform="translate(-28.921 -198.141)" fill="#263238"/>
          </g>
        </g>
      </g>
    </g>
  </g>
</svg>
