<svg xmlns="http://www.w3.org/2000/svg" xmlns:xlink="http://www.w3.org/1999/xlink" width="297.153" height="208.94" viewBox="0 0 297.153 208.94">
  <defs>
    <filter id="Trazado_114355" x="0" y="0" width="297.153" height="208.94" filterUnits="userSpaceOnUse">
      <feOffset dy="3" input="SourceAlpha"/>
      <feGaussianBlur stdDeviation="3" result="blur"/>
      <feFlood flood-opacity="0.161"/>
      <feComposite operator="in" in2="blur"/>
      <feComposite in="SourceGraphic"/>
    </filter>
    <clipPath id="clip-path">
      <rect id="Rectángulo_335129" data-name="Rectángulo 335129" width="71.33" height="154.355" fill="none"/>
    </clipPath>
    <clipPath id="clip-path-2">
      <rect id="Rectángulo_335129-2" data-name="Rectángulo 335129" width="71.329" height="154.355" fill="none"/>
    </clipPath>
    <clipPath id="clip-path-3">
      <rect id="Rectángulo_335136" data-name="Rectángulo 335136" width="243.116" height="20.238" fill="none"/>
    </clipPath>
    <clipPath id="clip-path-4">
      <rect id="Rectángulo_335142" data-name="Rectángulo 335142" width="41.074" height="65.6" fill="none"/>
    </clipPath>
    <clipPath id="clip-path-6">
      <rect id="Rectángulo_335146" data-name="Rectángulo 335146" width="42.199" height="73.477" fill="none"/>
    </clipPath>
    <clipPath id="clip-path-8">
      <rect id="Rectángulo_335143" data-name="Rectángulo 335143" width="14.528" height="41.279" fill="#fffaea"/>
    </clipPath>
    <clipPath id="clip-path-9">
      <rect id="Rectángulo_335160" data-name="Rectángulo 335160" width="130.986" height="141.047" fill="none"/>
    </clipPath>
    <clipPath id="clip-path-12">
      <rect id="Rectángulo_335148" data-name="Rectángulo 335148" width="1.415" height="1.406" fill="none"/>
    </clipPath>
    <clipPath id="clip-path-13">
      <rect id="Rectángulo_335149" data-name="Rectángulo 335149" width="18.165" height="2.213" fill="none"/>
    </clipPath>
    <clipPath id="clip-path-14">
      <rect id="Rectángulo_335150" data-name="Rectángulo 335150" width="1.4" height="1.421" fill="none"/>
    </clipPath>
    <clipPath id="clip-path-15">
      <rect id="Rectángulo_335151" data-name="Rectángulo 335151" width="5.682" height="17.667" fill="none"/>
    </clipPath>
    <clipPath id="clip-path-16">
      <rect id="Rectángulo_335152" data-name="Rectángulo 335152" width="27.009" height="15.13" fill="none"/>
    </clipPath>
    <clipPath id="clip-path-18">
      <rect id="Rectángulo_335154" data-name="Rectángulo 335154" width="1.314" height="1.308" fill="none"/>
    </clipPath>
    <clipPath id="clip-path-19">
      <rect id="Rectángulo_335155" data-name="Rectángulo 335155" width="16.914" height="1.444" fill="none"/>
    </clipPath>
    <clipPath id="clip-path-21">
      <rect id="Rectángulo_335157" data-name="Rectángulo 335157" width="16.913" height="1.5" fill="none"/>
    </clipPath>
    <clipPath id="clip-path-22">
      <rect id="Rectángulo_335158" data-name="Rectángulo 335158" width="23.688" height="17.972" fill="none"/>
    </clipPath>
  </defs>
  <g id="Grupo_947501" data-name="Grupo 947501" transform="translate(-1003 -4185.1)">
    <g transform="matrix(1, 0, 0, 1, 1003, 4185.1)" filter="url(#Trazado_114355)">
      <path id="Trazado_114355-2" data-name="Trazado 114355" d="M541.049,346.85c-6.106,0-33.633.007-68.558,0-9.643,0-19.853-.005-30.329-.009-7.949,0-16.054-.007-24.186-.012L404.2,346.82c-61.47-.048-71.267.639-81.023.029-18.149,0-64.633-70.531-9.3-116.841,21.488-17.982-6.09-41.873,29.6-59.816,23.47-11.8,40.518,8.93,68.851,1.462,20.932-5.517,25.19-18.459,66.573-14.873,39.8,3.449,40.6,36.124,27.972,63.106-7.971,17.035,31.111,11.775,49.184,37.2C586.91,300.481,541.323,346.2,541.049,346.85Z" transform="translate(-278.62 -150.16)" fill="#ffe293"/>
    </g>
    <g id="Grupo_927546" data-name="Grupo 927546" transform="translate(-1.331)">
      <g id="Grupo_927448" data-name="Grupo 927448" transform="translate(1036.166 4226.568)">
        <g id="Grupo_927447" data-name="Grupo 927447" transform="translate(0)" clip-path="url(#clip-path)">
          <path id="Trazado_641471" data-name="Trazado 641471" d="M18.422,154.355c-6.158-4.129-10.138-10.612-12.311-17.388s-2.7-13.9-3.118-20.966C.69,77.364-1.61,38.585,1.533,0h69.8V154.355Z" transform="translate(0)" fill="#1f4168"/>
          <path id="Trazado_641472" data-name="Trazado 641472" d="M82.291,23.69s.008.119.012.351.009.582.015,1.03c.008.912.02,2.245.035,3.96.021,3.445.05,8.419.087,14.564.052,12.3.123,29.288.2,48.048.054,18.767.1,35.754.138,48.056.007,6.145.013,11.119.017,14.563,0,1.715-.006,3.048-.007,3.959q-.005.672-.008,1.03c0,.232-.01.351-.01.351s-.008-.119-.013-.35-.008-.582-.015-1.03c-.008-.912-.02-2.244-.035-3.959-.021-3.445-.05-8.418-.087-14.563-.052-12.3-.124-29.29-.2-48.057-.054-18.76-.1-35.746-.138-48.049-.007-6.145-.012-11.119-.016-14.564,0-1.715.005-3.048.007-3.96q.005-.672.007-1.03c0-.232.01-.351.01-.351" transform="translate(-47.109 -13.566)" fill="#e0e0e0"/>
          <path id="Trazado_641473" data-name="Trazado 641473" d="M64.9,38.424s.018.112.04.333.054.554.1.98c.08.868.2,2.137.347,3.768s.329,3.64.5,5.968.4,4.977.579,7.91q.144,2.2.3,4.6c.1,1.6.18,3.268.276,4.993.2,3.45.343,7.139.506,11.022.278,7.766.473,16.308.494,25.275,0,8.971-.166,17.515-.422,25.283-.152,3.883-.282,7.574-.474,11.024-.091,1.725-.164,3.392-.262,4.994s-.2,3.137-.287,4.6c-.17,2.934-.387,5.583-.556,7.912s-.336,4.332-.484,5.969-.259,2.9-.336,3.769q-.06.639-.093.98c-.022.221-.039.333-.039.333s0-.114.017-.335.04-.555.071-.982c.068-.869.167-2.139.294-3.773s.293-3.642.446-5.97.364-4.979.523-7.913q.131-2.2.273-4.6.12-2.4.249-4.993c.184-3.45.307-7.14.454-11.022.244-7.766.408-16.308.4-25.276-.022-8.965-.21-17.5-.477-25.268-.157-3.881-.291-7.57-.485-11.019Q66.715,64.4,66.588,62q-.149-2.4-.286-4.6c-.168-2.933-.382-5.583-.546-7.911s-.324-4.333-.464-5.97-.235-2.9-.305-3.772q-.048-.64-.074-.982c-.015-.221-.018-.335-.018-.335" transform="translate(-37.162 -22.003)" fill="#e0e0e0"/>
          <path id="Trazado_641474" data-name="Trazado 641474" d="M49.754,135.561c-.062,0-.341-23.21-.625-51.836s-.464-51.843-.4-51.844.341,23.206.625,51.841.464,51.838.4,51.839" transform="translate(-27.896 -18.256)" fill="#e0e0e0"/>
          <path id="Trazado_641475" data-name="Trazado 641475" d="M35.365,191.814s-.018-.072-.04-.213-.054-.36-.094-.629c-.079-.563-.194-1.377-.341-2.421s-.324-2.339-.508-3.836-.411-3.2-.619-5.087c-.445-3.771-.911-8.269-1.362-13.27s-.851-10.507-1.18-16.293-.52-11.307-.643-16.327-.149-9.543-.127-13.341c0-1.9.031-3.616.049-5.124s.047-2.807.077-3.868.054-1.876.071-2.444c.01-.272.018-.483.024-.635s.015-.216.015-.216.006.074.008.217,0,.364,0,.636c-.007.569-.016,1.391-.028,2.445s-.035,2.36-.04,3.868-.029,3.225-.015,5.124c0,3.8.053,8.317.174,13.335s.343,10.534.661,16.32.738,11.286,1.162,16.287.888,9.5,1.313,13.271c.2,1.888.412,3.592.587,5.09s.335,2.787.47,3.84.23,1.862.3,2.427l.073.632c.015.142.018.216.018.216" transform="translate(-17.434 -61.906)" fill="#e0e0e0"/>
          <path id="Trazado_641476" data-name="Trazado 641476" d="M108.871,32.779s0,.114-.022.335-.048.554-.085.981l-.35,3.77-.259,2.723q-.113,1.5-.245,3.245c-.164,2.329-.4,4.977-.529,7.914q-.117,2.2-.245,4.606c-.081,1.6-.112,3.271-.174,5-.144,3.453-.154,7.145-.2,11.03.006,7.77.218,16.313.777,25.263.593,8.951,1.481,17.452,2.472,25.16.539,3.848,1.026,7.509,1.609,10.915.283,1.7.525,3.356.813,4.934s.567,3.092.832,4.537c.5,2.9,1.077,5.492,1.537,7.781l.658,3.186.6,2.668.829,3.693.21.962c.046.217.064.329.064.329s-.033-.109-.086-.324l-.232-.957-.869-3.685-.624-2.664c-.219-.976-.433-2.042-.676-3.183-.471-2.287-1.056-4.883-1.57-7.778q-.4-2.168-.846-4.536c-.293-1.578-.539-3.23-.826-4.934-.592-3.407-1.085-7.069-1.631-10.918-1-7.71-1.9-16.217-2.49-25.173-.559-8.955-.765-17.5-.76-25.277.05-3.887.067-7.581.219-11.036.066-1.727.1-3.4.187-5s.177-3.14.259-4.608c.139-2.937.386-5.586.562-7.914q.142-1.746.264-3.245.153-1.492.278-2.722c.17-1.63.3-2.9.392-3.765q.07-.638.107-.979c.026-.22.044-.332.044-.332" transform="translate(-61.02 -18.771)" fill="#e0e0e0"/>
          <path id="Trazado_641477" data-name="Trazado 641477" d="M147.321,126.1s0,.074-.024.218l-.091.635c-.087.568-.212,1.389-.372,2.441s-.367,2.355-.577,3.863-.476,3.222-.715,5.124-.528,3.981-.784,6.221c-.279,2.236-.523,4.632-.791,7.151-.5,5.043-.974,10.6-1.338,16.432s-.559,11.409-.676,16.476c-.04,2.534-.091,4.942-.085,7.2-.019,2.254,0,4.353.02,6.27s.058,3.65.086,5.172.065,2.833.1,3.9.055,1.894.072,2.468c.006.275.01.488.013.642s0,.219,0,.219-.011-.074-.02-.218-.02-.367-.036-.641c-.026-.574-.064-1.4-.114-2.466s-.1-2.382-.14-3.9-.1-3.256-.119-5.173-.059-4.018-.047-6.272c-.013-2.255.031-4.664.065-7.2.106-5.07.308-10.643.658-16.486s.844-11.395,1.356-16.439c.274-2.52.525-4.916.812-7.153.263-2.239.547-4.32.811-6.219s.524-3.614.748-5.121.434-2.8.614-3.859l.413-2.435.113-.632c.027-.142.046-.214.046-.214" transform="translate(-81.132 -72.211)" fill="#e0e0e0"/>
          <path id="Trazado_641478" data-name="Trazado 641478" d="M130.089,72.036a.864.864,0,0,1,0,.161c-.007.117-.016.272-.028.47-.031.425-.074,1.031-.129,1.8-.122,1.565-.278,3.833-.448,6.635s-.337,6.142-.473,9.851-.217,7.789-.237,12.073.051,8.366.149,12.077.248,7.051.4,9.854.289,5.071.4,6.638c.05.773.089,1.379.116,1.8.01.2.018.353.025.47a.837.837,0,0,1,0,.161.9.9,0,0,1-.023-.159c-.012-.116-.027-.271-.047-.468l-.158-1.8c-.137-1.565-.3-3.832-.47-6.636s-.329-6.145-.449-9.857-.178-7.8-.166-12.084.118-8.368.254-12.079.327-7.051.521-9.853.371-5.068.519-6.632c.073-.772.131-1.376.171-1.8l.05-.468a.878.878,0,0,1,.025-.159" transform="translate(-73.612 -41.251)" fill="#e0e0e0"/>
        </g>
      </g>
      <g id="Grupo_927449" data-name="Grupo 927449" transform="translate(1209.909 4226.568)">
        <g id="Grupo_927447-2" data-name="Grupo 927447" transform="translate(0)" clip-path="url(#clip-path-2)">
          <path id="Trazado_641471-2" data-name="Trazado 641471" d="M52.907,154.355c6.158-4.129,10.138-10.612,12.311-17.388s2.7-13.9,3.118-20.966c2.3-38.637,4.6-77.415,1.459-116H0V154.355Z" transform="translate(0.001)" fill="#1f4168"/>
          <path id="Trazado_641472-2" data-name="Trazado 641472" d="M82.774,23.69s-.008.119-.012.351-.009.582-.015,1.03c-.008.912-.02,2.245-.035,3.96-.021,3.445-.05,8.419-.087,14.564-.052,12.3-.124,29.288-.2,48.048-.054,18.767-.1,35.754-.138,48.056-.007,6.145-.013,11.119-.017,14.563,0,1.715.006,3.048.007,3.96q.005.672.008,1.03c0,.232.01.351.01.351s.008-.119.013-.35.008-.582.015-1.03c.008-.912.02-2.244.035-3.959.021-3.445.05-8.418.087-14.563.052-12.3.124-29.29.2-48.057.054-18.76.1-35.746.138-48.049.007-6.145.012-11.119.016-14.564,0-1.715-.005-3.048-.007-3.96q-.005-.672-.007-1.03c0-.232-.01-.351-.01-.351" transform="translate(-46.627 -13.566)" fill="#e0e0e0"/>
          <path id="Trazado_641473-2" data-name="Trazado 641473" d="M68.036,38.424s-.018.112-.04.333-.054.554-.1.98c-.08.868-.2,2.137-.347,3.768s-.329,3.64-.5,5.968-.4,4.977-.579,7.91q-.144,2.2-.3,4.6c-.1,1.6-.18,3.268-.276,4.993-.2,3.45-.343,7.139-.506,11.022-.278,7.766-.473,16.308-.494,25.275,0,8.971.166,17.515.422,25.283.152,3.883.282,7.574.474,11.024.091,1.725.164,3.392.262,4.994s.2,3.137.287,4.6c.17,2.934.387,5.583.556,7.912s.336,4.332.484,5.968.259,2.9.336,3.769q.06.639.093.98c.022.221.039.333.039.333s0-.114-.017-.335-.04-.555-.071-.982c-.068-.869-.167-2.139-.294-3.773s-.293-3.642-.446-5.97-.364-4.979-.523-7.913q-.131-2.2-.273-4.6-.12-2.4-.249-4.993c-.184-3.45-.307-7.14-.454-11.022-.244-7.766-.408-16.308-.4-25.276.022-8.965.21-17.5.477-25.268.157-3.881.291-7.57.485-11.019q.137-2.587.263-4.992.149-2.4.286-4.6c.168-2.933.382-5.583.546-7.911s.324-4.333.464-5.97.235-2.9.305-3.772q.048-.64.074-.982c.015-.221.018-.335.018-.335" transform="translate(-24.44 -22.003)" fill="#e0e0e0"/>
          <path id="Trazado_641474-2" data-name="Trazado 641474" d="M48.727,135.561c.062,0,.341-23.21.625-51.836s.464-51.843.4-51.844-.341,23.206-.625,51.841-.464,51.838-.4,51.839" transform="translate(0.745 -18.256)" fill="#e0e0e0"/>
          <path id="Trazado_641475-2" data-name="Trazado 641475" d="M30.445,191.814s.018-.072.04-.213.054-.36.094-.629c.079-.563.194-1.377.341-2.421s.324-2.339.508-3.836.411-3.2.619-5.087c.445-3.771.911-8.269,1.362-13.27s.851-10.507,1.18-16.293.52-11.307.643-16.327.149-9.543.127-13.341c0-1.9-.031-3.616-.049-5.124s-.047-2.807-.077-3.868-.054-1.876-.071-2.444c-.01-.272-.018-.483-.024-.635s-.015-.216-.015-.216-.006.074-.008.217,0,.364,0,.636c.007.569.016,1.391.028,2.445s.035,2.36.04,3.868.029,3.225.015,5.124c0,3.8-.053,8.317-.174,13.335s-.343,10.534-.661,16.32-.738,11.286-1.162,16.287-.888,9.5-1.313,13.271c-.2,1.888-.412,3.592-.587,5.09s-.335,2.787-.47,3.84-.23,1.862-.3,2.427l-.073.632c-.015.142-.018.216-.018.216" transform="translate(22.953 -61.906)" fill="#e0e0e0"/>
          <path id="Trazado_641476-2" data-name="Trazado 641476" d="M114.856,32.779s0,.114.022.335.048.554.085.981l.35,3.77.259,2.723q.113,1.5.245,3.245c.164,2.329.4,4.977.529,7.914q.117,2.2.245,4.606c.081,1.6.112,3.271.174,5,.144,3.453.154,7.145.2,11.03-.006,7.77-.218,16.313-.777,25.263-.593,8.951-1.481,17.452-2.472,25.16-.539,3.848-1.026,7.509-1.609,10.915-.283,1.7-.525,3.356-.813,4.934s-.567,3.092-.832,4.537c-.5,2.9-1.077,5.492-1.537,7.781l-.658,3.186-.6,2.668-.829,3.693-.21.962c-.046.217-.064.329-.064.329s.033-.109.086-.324l.232-.957.869-3.685.624-2.664c.219-.976.433-2.042.676-3.183.471-2.287,1.056-4.883,1.57-7.777q.4-2.168.846-4.536c.293-1.578.539-3.23.826-4.934.592-3.407,1.085-7.069,1.631-10.918,1-7.71,1.9-16.217,2.49-25.173.559-8.955.765-17.5.76-25.277-.05-3.887-.067-7.581-.219-11.036-.066-1.727-.1-3.4-.187-5s-.177-3.14-.259-4.608c-.139-2.937-.386-5.586-.562-7.914q-.142-1.746-.264-3.244-.153-1.492-.278-2.722c-.17-1.63-.3-2.9-.392-3.765l-.107-.979c-.026-.22-.044-.332-.044-.332" transform="translate(-91.378 -18.771)" fill="#e0e0e0"/>
          <path id="Trazado_641477-2" data-name="Trazado 641477" d="M141.681,126.1s0,.074.024.218l.091.635c.087.568.212,1.389.372,2.441s.367,2.355.577,3.863.476,3.222.715,5.124.528,3.981.784,6.221c.279,2.236.523,4.632.791,7.151.5,5.043.974,10.6,1.338,16.432s.559,11.409.676,16.476c.04,2.534.091,4.942.085,7.2.019,2.254,0,4.353-.02,6.27s-.058,3.65-.086,5.172-.065,2.833-.1,3.9-.055,1.894-.072,2.468c-.006.275-.01.488-.013.642s0,.219,0,.219.011-.074.02-.218.02-.367.035-.641c.027-.574.065-1.4.114-2.466s.1-2.382.14-3.9.1-3.256.119-5.173.059-4.018.047-6.272c.013-2.255-.031-4.664-.065-7.2-.106-5.07-.308-10.643-.658-16.486s-.844-11.395-1.356-16.439c-.274-2.52-.525-4.916-.812-7.153-.263-2.239-.547-4.32-.811-6.219s-.524-3.614-.748-5.121-.434-2.8-.614-3.859l-.413-2.435-.113-.632c-.027-.142-.046-.214-.046-.214" transform="translate(-136.54 -72.211)" fill="#e0e0e0"/>
          <path id="Trazado_641478-2" data-name="Trazado 641478" d="M128.55,72.036a.865.865,0,0,0,0,.161c.007.117.016.272.028.47.031.425.074,1.031.129,1.8.122,1.565.278,3.833.448,6.635s.337,6.142.473,9.851.217,7.789.237,12.073-.051,8.366-.149,12.077-.248,7.051-.4,9.854-.289,5.071-.4,6.638c-.05.774-.089,1.379-.116,1.8-.01.2-.018.353-.025.47a.837.837,0,0,0,0,.161.9.9,0,0,0,.023-.159c.012-.116.027-.271.047-.468l.158-1.8c.137-1.565.3-3.832.47-6.636s.329-6.145.449-9.857.178-7.8.166-12.084-.118-8.368-.254-12.079-.327-7.051-.521-9.853-.371-5.068-.519-6.632c-.073-.772-.131-1.376-.171-1.8l-.05-.468a.878.878,0,0,0-.025-.159" transform="translate(-113.698 -41.251)" fill="#e0e0e0"/>
        </g>
      </g>
      <g id="Grupo_927452" data-name="Grupo 927452" transform="translate(1034.666 4213.06)">
        <rect id="Rectángulo_335130" data-name="Rectángulo 335130" width="2.728" height="10.318" transform="translate(78.406 0)" fill="#ebebeb"/>
        <rect id="Rectángulo_335131" data-name="Rectángulo 335131" width="2.728" height="10.318" transform="translate(117.233 0)" fill="#ebebeb"/>
        <path id="Trazado_641479" data-name="Trazado 641479" d="M173.812,14.235l-6.832,8.74,7.482,4.382,5.528-9.686Z" transform="translate(-94.834 -8.085)" fill="#e0e0e0"/>
        <g id="Grupo_927451" data-name="Grupo 927451" transform="translate(0 0)">
          <g id="Grupo_927450" data-name="Grupo 927450" transform="translate(0 0)" clip-path="url(#clip-path-3)">
            <path id="Trazado_641480" data-name="Trazado 641480" d="M166.98,33.81s.331,5.886,7.482,4.382c0,0-1.826-6.731-7.482-4.382" transform="translate(-94.834 -18.919)" fill="#f5f5f5"/>
            <path id="Trazado_641481" data-name="Trazado 641481" d="M265.314,15.269l.81,11.064,8.486-1.781L272.2,13.664Z" transform="translate(-150.681 -7.76)" fill="#e0e0e0"/>
            <path id="Trazado_641482" data-name="Trazado 641482" d="M267.189,39.008s4.2,4.137,8.487-1.78c0,0-5.873-3.759-8.487,1.78" transform="translate(-151.746 -20.435)" fill="#f5f5f5"/>
            <path id="Trazado_641483" data-name="Trazado 641483" d="M372.374,15.785l3.037,10.67,7.949-3.464-4.569-10.174Z" transform="translate(-211.485 -7.279)" fill="#e0e0e0"/>
            <path id="Trazado_641484" data-name="Trazado 641484" d="M379.4,39.15s4.951,3.2,7.949-3.464c0,0-6.514-2.49-7.949,3.464" transform="translate(-215.476 -19.974)" fill="#f5f5f5"/>
            <path id="Trazado_641507" data-name="Trazado 641507" d="M0,0H243.116V3.889H0Z" transform="translate(0 10.317)" fill="#1f4168"/>
            <rect id="Rectángulo_335133" data-name="Rectángulo 335133" width="2.728" height="10.318" transform="translate(32.175 0)" fill="#ebebeb"/>
            <rect id="Rectángulo_335134" data-name="Rectángulo 335134" width="2.728" height="10.318" transform="translate(163.838 0)" fill="#ebebeb"/>
            <rect id="Rectángulo_335135" data-name="Rectángulo 335135" width="2.728" height="10.318" transform="translate(206.986 0)" fill="#ebebeb"/>
            <path id="Trazado_641485" data-name="Trazado 641485" d="M173.812,14.235l-6.832,8.74,7.482,4.382,5.528-9.686Z" transform="translate(-94.834 -8.085)" fill="#e0e0e0"/>
            <path id="Trazado_641486" data-name="Trazado 641486" d="M166.98,33.81s.331,5.886,7.482,4.382c0,0-1.826-6.731-7.482-4.382" transform="translate(-94.834 -18.919)" fill="#fafafa"/>
            <path id="Trazado_641487" data-name="Trazado 641487" d="M67.791,16.141,70,27.013,78.19,24.17,74.416,13.676Z" transform="translate(-38.501 -7.767)" fill="#e0e0e0"/>
            <path id="Trazado_641488" data-name="Trazado 641488" d="M72.9,39.8s4.69,3.571,8.192-2.843c0,0-6.3-2.983-8.192,2.843" transform="translate(-41.402 -20.558)" fill="#fafafa"/>
            <path id="Trazado_641489" data-name="Trazado 641489" d="M265.314,15.269l.81,11.064,8.486-1.781L272.2,13.664Z" transform="translate(-150.681 -7.76)" fill="#e0e0e0"/>
            <path id="Trazado_641490" data-name="Trazado 641490" d="M267.189,39.008s4.2,4.137,8.487-1.78c0,0-5.873-3.759-8.487,1.78" transform="translate(-151.746 -20.435)" fill="#fafafa"/>
            <path id="Trazado_641491" data-name="Trazado 641491" d="M372.374,15.785l3.037,10.67,7.949-3.464-4.569-10.174Z" transform="translate(-211.485 -7.279)" fill="#e0e0e0"/>
            <path id="Trazado_641492" data-name="Trazado 641492" d="M379.4,39.15s4.951,3.2,7.949-3.464c0,0-6.514-2.49-7.949,3.464" transform="translate(-215.476 -19.974)" fill="#f5f5f5"/>
            <path id="Trazado_641493" data-name="Trazado 641493" d="M470.858,13.929l-8.249,7.417,6.605,5.618,7.13-8.576Z" transform="translate(-262.732 -7.911)" fill="#e0e0e0"/>
            <path id="Trazado_641494" data-name="Trazado 641494" d="M462.584,30.874s-.7,5.853,6.605,5.618c0,0-.626-6.945-6.605-5.618" transform="translate(-262.708 -17.439)" fill="#f5f5f5"/>
          </g>
        </g>
      </g>
      <g id="Grupo_927459" data-name="Grupo 927459" transform="translate(1242.503 4315.323)">
        <g id="Grupo_927458" data-name="Grupo 927458" transform="translate(0)" clip-path="url(#clip-path-4)">
          <g id="Grupo_927457" data-name="Grupo 927457" transform="translate(0)">
            <g id="Grupo_927456" data-name="Grupo 927456" clip-path="url(#clip-path-4)">
              <path id="Trazado_641495" data-name="Trazado 641495" d="M4.083,55.6S14.388,43.738,18.277,31.877s2.042-10.5,2.042-10.5S15.068,32.9,11.083,38.464,0,52.2,0,52.2Z" transform="translate(20.317 -9.738)" fill="#3d9323"/>
              <path id="Trazado_641496" data-name="Trazado 641496" d="M37.5,24.558a.6.6,0,0,1,1.118.382c-.628,4.166-1.986,13.943-1.933,20.284.069,8.237,0,11.421,0,11.421H32.39s.761-17.029,1.731-22.22A35.626,35.626,0,0,1,37.5,24.558" transform="translate(-15.151 -11.072)" fill="#2b6e17"/>
              <path id="Trazado_641497" data-name="Trazado 641497" d="M46.491,54.027a45.412,45.412,0,0,1-3.53-12.806c-.353-3.032.277-7.13,1.214-12.6a33.915,33.915,0,0,0,.542-6.062,1.023,1.023,0,0,0-1.922-.48,27.245,27.245,0,0,0-2.4,6.058c-1.039,5.4-2.215,8.1-1.316,13.221s4.223,13.014,4.223,13.014Z" transform="translate(-26.483 -9.837)" fill="#3d9323"/>
              <path id="Trazado_641498" data-name="Trazado 641498" d="M62.017,48.857S50.7,24.541,49.919,20.934,46.468,9.014,46.154,9.485s-.784,4.862,1.255,9.881S58.154,49.6,58.154,49.6h3.863" transform="translate(-45.873 -4.322)" fill="#3d9323"/>
              <path id="Trazado_641499" data-name="Trazado 641499" d="M.255,53.456a2.246,2.246,0,0,0,.318-.218c.2-.152.505-.366.877-.669a40.261,40.261,0,0,0,3.04-2.685A51.035,51.035,0,0,0,12.7,39.349a69.067,69.067,0,0,0,5.6-12.138c.57-1.615.985-2.937,1.253-3.855.139-.458.234-.818.3-1.061a2.277,2.277,0,0,0,.087-.374,2.453,2.453,0,0,0-.134.36q-.127.39-.343,1.047c-.3.909-.736,2.221-1.324,3.825a73.356,73.356,0,0,1-5.65,12.072A53.253,53.253,0,0,1,4.37,49.762c-1.211,1.2-2.248,2.121-2.98,2.734-.361.314-.656.539-.847.7a2.361,2.361,0,0,0-.288.256" transform="translate(20.992 -10.008)" fill="#263238"/>
              <path id="Trazado_641500" data-name="Trazado 641500" d="M33.428,43.323a4.076,4.076,0,0,0,.1-.714c.054-.5.124-1.159.208-1.949.179-1.645.459-3.913.859-6.406s.847-4.735,1.193-6.353c.167-.777.306-1.422.413-1.916a4.162,4.162,0,0,0,.127-.709,4.028,4.028,0,0,0-.218.686c-.127.446-.295,1.1-.489,1.9-.389,1.611-.862,3.854-1.265,6.352s-.654,4.776-.79,6.428c-.068.826-.113,1.5-.133,1.959a4.156,4.156,0,0,0-.008.721" transform="translate(-13.419 -11.54)" fill="#263238"/>
              <path id="Trazado_641501" data-name="Trazado 641501" d="M44.277,22.178a1.807,1.807,0,0,0-.134.309l-.339.9c-.149.391-.322.875-.485,1.448s-.386,1.215-.55,1.947l-.28,1.143c-.1.4-.162.82-.249,1.252-.185.864-.3,1.8-.436,2.782a45.237,45.237,0,0,0-.27,6.444,45.207,45.207,0,0,0,.731,6.409c.207.971.388,1.9.634,2.744.117.426.215.841.338,1.231L43.6,49.91c.216.718.479,1.344.688,1.9s.41,1.029.588,1.409l.4.877a1.761,1.761,0,0,0,.155.3,1.784,1.784,0,0,0-.111-.319l-.361-.893c-.164-.385-.356-.858-.548-1.421s-.447-1.188-.652-1.907l-.345-1.121c-.118-.39-.21-.8-.323-1.228-.237-.846-.409-1.769-.61-2.735a47.1,47.1,0,0,1-.708-6.377,47.058,47.058,0,0,1,.25-6.409c.13-.978.236-1.911.412-2.772.082-.431.145-.851.234-1.248l.264-1.142c.152-.731.358-1.376.514-1.949s.309-1.061.445-1.456l.3-.917a1.8,1.8,0,0,0,.088-.326" transform="translate(-26.918 -10.126)" fill="#263238"/>
              <path id="Trazado_641502" data-name="Trazado 641502" d="M49.278,10.4a.377.377,0,0,0,.009.109l.05.316c.05.277.112.687.223,1.21.218,1.046.583,2.551,1.149,4.377s1.336,3.969,2.253,6.321,1.974,4.919,2.978,7.649c1.02,2.726,1.806,5.386,2.544,7.8s1.426,4.584,2.1,6.375a40.558,40.558,0,0,0,1.786,4.158c.232.482.44.841.574,1.088l.158.278c.037.062.058.093.061.091a.366.366,0,0,0-.04-.1l-.137-.289c-.12-.254-.315-.62-.533-1.106-.456-.964-1.069-2.381-1.711-4.176s-1.324-3.962-2.044-6.381S57.19,33.033,56.167,30.3c-1.007-2.737-2.074-5.3-3-7.647s-1.715-4.476-2.3-6.292-.974-3.308-1.22-4.346c-.124-.518-.2-.925-.267-1.2l-.074-.311a.372.372,0,0,0-.033-.1" transform="translate(-48.868 -4.748)" fill="#263238"/>
              <path id="Trazado_641503" data-name="Trazado 641503" d="M25.388.281a.974.974,0,0,1,1.6.993A27.853,27.853,0,0,1,25.57,4.93C24.015,8.236,19.445,20.1,17.307,26.61s-5.153,18.666-5.153,18.666l-4.567-.741s4.179-19.967,8.261-27.161C19.129,11.593,22.41,3.24,25.388.281" transform="translate(9.912 0)" fill="#3d9323"/>
              <path id="Trazado_641504" data-name="Trazado 641504" d="M31.7,56.463a2.805,2.805,0,0,0-.235.547c-.135.358-.319.881-.527,1.534-.421,1.3-.935,3.123-1.454,5.144s-.948,3.862-1.248,5.2l-.343,1.583a2.781,2.781,0,0,0-.095.588,2.788,2.788,0,0,0,.186-.566c.111-.416.252-.941.418-1.565.349-1.374.809-3.179,1.317-5.176.518-2.019,1.006-3.843,1.384-5.155l.452-1.553a2.8,2.8,0,0,0,.146-.577" transform="translate(-5.726 -25.779)" fill="#263238"/>
              <path id="Trazado_641505" data-name="Trazado 641505" d="M8.56,45.078a.459.459,0,0,0,.026-.122c.014-.1.03-.214.052-.36.048-.316.091-.785.187-1.383.168-1.2.467-2.929.958-5.038a72.132,72.132,0,0,1,2.138-7.3c.937-2.706,2.112-5.63,3.443-8.656,2.687-6.045,5.371-11.406,7.135-15.37.892-1.978,1.582-3.592,2.036-4.717.232-.56.4-1,.514-1.3L25.175.5a.5.5,0,0,0,.036-.119.46.46,0,0,0-.059.11L25,.818,24.448,2.1c-.48,1.112-1.194,2.715-2.1,4.682-1.8,3.943-4.509,9.29-7.2,15.344-1.334,3.03-2.505,5.963-3.433,8.68a68.527,68.527,0,0,0-2.094,7.331A51.06,51.06,0,0,0,8.731,43.2c-.083.6-.11,1.073-.142,1.391-.011.147-.021.266-.028.362a.462.462,0,0,0,0,.124" transform="translate(11.212 -0.172)" fill="#263238"/>
              <path id="Trazado_641506" data-name="Trazado 641506" d="M34.18,65.828a4.776,4.776,0,0,0,.154-.767c.091-.536.211-1.244.356-2.1.315-1.769.8-4.207,1.486-6.86s1.454-5.018,2.047-6.714l.715-2.006a4.949,4.949,0,0,0,.243-.744,4.776,4.776,0,0,0-.331.71c-.2.464-.472,1.139-.787,1.982a66.4,66.4,0,0,0-2.121,6.712,69.693,69.693,0,0,0-1.421,6.892c-.13.891-.229,1.613-.28,2.115a4.88,4.88,0,0,0-.061.78" transform="translate(-16.681 -21.292)" fill="#263238"/>
              <rect id="Rectángulo_335137" data-name="Rectángulo 335137" width="17.828" height="21.721" transform="translate(8.125 43.88)" fill="#d18b1c"/>
              <path id="Trazado_641508" data-name="Trazado 641508" d="M15.817,0H0V21.721H15.817Z" transform="translate(13.812 43.88)" fill="#ffb338"/>
            </g>
          </g>
        </g>
      </g>
      <g id="Grupo_927466" data-name="Grupo 927466" transform="translate(1021.576 4307.447)">
        <g id="Grupo_927465" data-name="Grupo 927465" transform="translate(0)" clip-path="url(#clip-path-6)">
          <g id="Grupo_927464" data-name="Grupo 927464" transform="translate(0)">
            <g id="Grupo_927463" data-name="Grupo 927463" clip-path="url(#clip-path-6)">
              <path id="Trazado_641509" data-name="Trazado 641509" d="M63.406,3.915a21.889,21.889,0,0,0-8.669,8.945,65.236,65.236,0,0,0-4.707,11.7L48.878,45.194c4.351-7.4,7.844-16.1,8.787-24.639l-2.9-.258a6.928,6.928,0,0,0,4.608-3.371,20.518,20.518,0,0,0,2.091-5.485l-3.532.525a13.094,13.094,0,0,0,5.469-8.051" transform="translate(-27.554 -2.207)" fill="#3d9323"/>
              <path id="Trazado_641511" data-name="Trazado 641511" d="M35.313,47.821s-9.445-11.3-9.336-22.1h3.815S25.648,23,25.976,21.474s.437-7.3.437-7.3l3.488.872s-2.616-1.308-2.943-3.379S27.721,0,27.721,0s4.251,4.469,5.559,9.047,4.741,9.92,3.733,23.872-1.7,14.9-1.7,14.9" transform="translate(-14.633)" fill="#2b6e17"/>
              <path id="Trazado_641512" data-name="Trazado 641512" d="M58.371,64.792S68.6,57.976,70.877,49.276l-3.067-.835s3.928-1.284,4-2.583,1.247-5.968,1.247-5.968l-3-.062s2.389-.479,3.105-2.073S75.1,28.212,75.1,28.212s-4.4,2.663-6.449,6.058-5.982,6.937-8.224,18.376-2.058,12.147-2.058,12.147" transform="translate(-32.904 -15.904)" fill="#3d9323"/>
              <path id="Trazado_641513" data-name="Trazado 641513" d="M35.912,22.592a.49.49,0,0,1,.037.117c.022.091.05.205.085.347l.3,1.34c.264,1.164.612,2.857,1.012,4.954s.835,4.6,1.276,7.389.853,5.864,1.231,9.1.657,6.328.878,9.143.362,5.353.444,7.486.136,3.86.145,5.053c0,.584.007,1.044.01,1.375,0,.146,0,.264,0,.357a.512.512,0,0,1-.009.122.5.5,0,0,1-.014-.122c-.005-.093-.011-.211-.019-.357l-.052-1.373c-.037-1.192-.108-2.918-.217-5.048S40.744,57.81,40.526,55s-.525-5.9-.895-9.133-.8-6.3-1.212-9.094-.841-5.294-1.227-7.392-.7-3.8-.94-4.965l-.263-1.349c-.026-.144-.046-.26-.062-.352a.482.482,0,0,1-.014-.122" transform="translate(-20.244 -12.736)" fill="#263238"/>
              <path id="Trazado_641514" data-name="Trazado 641514" d="M19.369,91.4S10.726,81.593,8.043,75.665l2.026-.866a5.25,5.25,0,0,1-4.111-1.347,15.558,15.558,0,0,1-2.8-3.461l2.669-.451A9.922,9.922,0,0,1,0,65.023a16.587,16.587,0,0,1,8.346,4.41,41.519,41.519,0,0,1,5.058,5.86,19.986,19.986,0,0,1,1.965,3.229c1.452,3,4.006,9.276,4,12.878" transform="translate(0 -36.656)" fill="#2b6e17"/>
              <path id="Trazado_641515" data-name="Trazado 641515" d="M68.054,41.3a.382.382,0,0,1-.038.1l-.131.286-.522,1.09c-.461.943-1.115,2.314-1.906,4.014-1.586,3.4-3.678,8.144-5.744,13.482s-3.707,10.259-4.82,13.841c-.558,1.791-1,3.245-1.29,4.252q-.22.733-.347,1.157l-.1.3a.412.412,0,0,1-.04.1.373.373,0,0,1,.017-.106c.02-.082.045-.182.074-.306q.113-.428.306-1.169c.267-1.015.682-2.477,1.221-4.275,1.075-3.6,2.7-8.529,4.762-13.877S63.688,50.1,65.312,46.718c.811-1.693,1.487-3.053,1.973-3.984l.56-1.071L68,41.386a.386.386,0,0,1,.058-.09" transform="translate(-29.945 -23.28)" fill="#263238"/>
              <path id="Trazado_641516" data-name="Trazado 641516" d="M37.9,113.453a4.256,4.256,0,0,1-.136-.7c-.068-.452-.184-1.1-.344-1.906a39.842,39.842,0,0,0-1.754-6.128,39.8,39.8,0,0,0-2.734-5.759c-.409-.707-.753-1.273-1-1.658a4.252,4.252,0,0,1-.36-.614,4.288,4.288,0,0,1,.434.565c.27.37.637.925,1.065,1.625a34.668,34.668,0,0,1,4.508,11.939c.141.808.232,1.467.274,1.924a4.238,4.238,0,0,1,.048.711" transform="translate(-17.797 -54.507)" fill="#263238"/>
              <rect id="Rectángulo_335144" data-name="Rectángulo 335144" width="18.916" height="3.859" transform="translate(12.591 56.639)" fill="#ffb338"/>
              <path id="Trazado_641517" data-name="Trazado 641517" d="M32.992,138.673l2.046,12.979H46.469l1.907-12.979Z" transform="translate(-18.599 -78.175)" fill="#ffb338"/>
              <path id="Trazado_641518" data-name="Trazado 641518" d="M48.906,138.526c0,.063-3.578.113-7.991.113s-7.992-.051-7.992-.113,3.577-.113,7.992-.113,7.991.051,7.991.113" transform="translate(-18.559 -78.028)" fill="#263238"/>
            </g>
          </g>
        </g>
      </g>
      <g id="Grupo_927504" data-name="Grupo 927504" transform="translate(1092.459 4240.993)">
        <g id="Grupo_927503" data-name="Grupo 927503" clip-path="url(#clip-path-9)">
          <g id="Grupo_927468" data-name="Grupo 927468">
            <g id="Grupo_927467" data-name="Grupo 927467" clip-path="url(#clip-path-9)">
              <path id="Trazado_641519" data-name="Trazado 641519" d="M103.481,9.01a9.613,9.613,0,0,0,1.6,5.437c.187.318-.93,3.384-.93,3.384l3.3-1.151a7.735,7.735,0,0,0,5.046,1.34,9.01,9.01,0,1,0-9.01-9.01" transform="translate(-62.896)" fill="#fff"/>
              <path id="Trazado_641520" data-name="Trazado 641520" d="M117.729,21.88a.773.773,0,1,1-.773-.773.773.773,0,0,1,.773.773" transform="translate(-70.616 -12.829)" fill="#263238"/>
              <path id="Trazado_641521" data-name="Trazado 641521" d="M125.618,21.88a.773.773,0,1,1-.773-.773.773.773,0,0,1,.773.773" transform="translate(-75.411 -12.829)" fill="#263238"/>
              <path id="Trazado_641522" data-name="Trazado 641522" d="M133.646,21.493a.773.773,0,1,1-1.056-.283.773.773,0,0,1,1.056.283" transform="translate(-80.354 -12.828)" fill="#263238"/>
              <path id="Trazado_641523" data-name="Trazado 641523" d="M112.042.05a.89.89,0,0,1,.156,0l.46.013c.1,0,.214,0,.338.015l.405.057.473.068.528.131a8.564,8.564,0,0,1,2.561,1.117,9.039,9.039,0,0,1,4.151,6.792,9.34,9.34,0,0,1,.025,1.238c-.015.209-.011.422-.041.633s-.064.424-.1.638a9.069,9.069,0,0,1-.86,2.52,9.713,9.713,0,0,1-1.646,2.265,9.51,9.51,0,0,1-2.372,1.7,8.606,8.606,0,0,1-2.89.887,5.74,5.74,0,0,1-.771.066,6.976,6.976,0,0,1-.779.014,9.256,9.256,0,0,1-1.561-.2,9.123,9.123,0,0,1-3.107-1.308l.094.009-3.165,1.27-.187.075.053-.195.931-3.384.016.084a9.082,9.082,0,0,1-1.689-3.867,8.227,8.227,0,0,1-.123-1.981,6.384,6.384,0,0,1,.09-.951q.036-.234.072-.463c.028-.152.075-.3.111-.448A9.054,9.054,0,0,1,106.748,1.7a8.662,8.662,0,0,1,2.1-1.109l.473-.169.449-.114.411-.1c.132-.025.259-.039.378-.057.24-.03.449-.072.634-.081l.465-.016.284-.006a.417.417,0,0,1,.1,0,.456.456,0,0,1-.1.013l-.283.022L111.2.116c-.183.014-.391.06-.628.1a9,9,0,0,0-7.2,6.677c-.035.146-.08.291-.107.44s-.045.3-.068.455a6.215,6.215,0,0,0-.084.934,8.067,8.067,0,0,0,.128,1.942,8.92,8.92,0,0,0,1.666,3.783l.029.038-.013.046q-.448,1.64-.924,3.386l-.134-.119,3.164-1.274.049-.02.045.029a8.925,8.925,0,0,0,3.038,1.277,9.085,9.085,0,0,0,1.526.193,6.76,6.76,0,0,0,.762-.014,5.605,5.605,0,0,0,.754-.064,8.436,8.436,0,0,0,2.827-.864,9.344,9.344,0,0,0,2.323-1.663,9.543,9.543,0,0,0,1.617-2.213,8.928,8.928,0,0,0,.851-2.466q.048-.314.1-.625c.031-.207.027-.416.042-.621a9.2,9.2,0,0,0-.019-1.215A8.944,8.944,0,0,0,116.9,1.544,8.615,8.615,0,0,0,114.381.408L113.86.269l-.468-.077-.4-.066c-.124-.014-.236-.017-.336-.025L112.2.068a.89.89,0,0,1-.156-.018" transform="translate(-62.56 -0.028)" fill="#263238"/>
            </g>
          </g>
          <g id="Grupo_927485" data-name="Grupo 927485">
            <g id="Grupo_927484" data-name="Grupo 927484" clip-path="url(#clip-path-9)">
              <path id="Trazado_641524" data-name="Trazado 641524" d="M194.206,116.491a9.613,9.613,0,0,1-1.6,5.437c-.187.318.93,3.384.93,3.384l-3.3-1.151a7.737,7.737,0,0,1-5.046,1.34,9.01,9.01,0,1,1,9.01-9.01" transform="translate(-107.086 -65.327)" fill="#fff"/>
              <path id="Trazado_641525" data-name="Trazado 641525" d="M205.488,129.361a.773.773,0,1,0,.773-.773.773.773,0,0,0-.773.773" transform="translate(-124.896 -78.156)" fill="#263238"/>
              <path id="Trazado_641526" data-name="Trazado 641526" d="M197.6,129.361a.773.773,0,1,0,.773-.773.773.773,0,0,0-.773.773" transform="translate(-120.102 -78.156)" fill="#263238"/>
              <path id="Trazado_641527" data-name="Trazado 641527" d="M189.571,128.974a.773.773,0,1,0,1.056-.283.774.774,0,0,0-1.056.283" transform="translate(-115.159 -78.155)" fill="#263238"/>
              <path id="Trazado_641528" data-name="Trazado 641528" d="M181.77,108.193a.875.875,0,0,0-.145.059l-.418.191c-.091.044-.2.088-.306.146l-.351.211-.409.247-.435.327a8.556,8.556,0,0,0-1.921,2.028,9.039,9.039,0,0,0-1.167,7.875,9.469,9.469,0,0,0,.461,1.15c.1.187.175.385.286.567l.338.549a9.094,9.094,0,0,0,1.777,1.983,9.714,9.714,0,0,0,2.4,1.441,9.528,9.528,0,0,0,2.849.642,8.622,8.622,0,0,0,3.007-.313,5.771,5.771,0,0,0,.735-.241,6.9,6.9,0,0,0,.723-.292,9.246,9.246,0,0,0,1.36-.791,9.125,9.125,0,0,0,2.349-2.418l-.083.045,3.41-.067.2,0-.126-.158-2.179-2.751.018.083a9.08,9.08,0,0,0,.044-4.219,8.213,8.213,0,0,0-.661-1.872,6.325,6.325,0,0,0-.455-.841l-.247-.4c-.085-.129-.186-.247-.277-.369a9.055,9.055,0,0,0-5.263-3.359,8.663,8.663,0,0,0-2.368-.2l-.5.029-.458.071-.418.067c-.131.028-.254.065-.371.095-.232.066-.442.11-.615.173l-.435.167-.264.105a.445.445,0,0,0-.087.041.41.41,0,0,0,.094-.025l.269-.09.437-.152c.174-.058.384-.1.615-.158a9,9,0,0,1,9.235,3.334c.089.121.187.237.27.364l.24.392a6.262,6.262,0,0,1,.442.827,8.091,8.091,0,0,1,.641,1.838,8.917,8.917,0,0,1-.056,4.133l-.011.046.029.038,2.174,2.756.076-.162-3.41.064h-.054l-.03.045a8.923,8.923,0,0,1-2.3,2.363,9.026,9.026,0,0,1-1.329.774,6.723,6.723,0,0,1-.707.285,5.583,5.583,0,0,1-.719.236,8.423,8.423,0,0,1-2.94.309,9.33,9.33,0,0,1-2.788-.622,9.541,9.541,0,0,1-2.353-1.405,8.926,8.926,0,0,1-1.747-1.937l-.333-.538c-.109-.178-.187-.372-.282-.555a8.925,8.925,0,0,1,.642-8.884,8.614,8.614,0,0,1,1.875-2.03l.426-.332.4-.254.344-.218c.108-.061.211-.107.3-.154l.408-.209a.871.871,0,0,0,.136-.078" transform="translate(-107.094 -65.296)" fill="#263238"/>
              <path id="Trazado_641529" data-name="Trazado 641529" d="M170.707,322.641l2.853,8.5s-9.12,3.461-9.1,5.192l18.079-.633-3.451-14.176Z" transform="translate(-99.959 -195.425)" fill="#455a64"/>
              <g id="Grupo_927471" data-name="Grupo 927471" transform="translate(78.286 134.513)" opacity="0.6">
                <g id="Grupo_927470" data-name="Grupo 927470" transform="translate(0)">
                  <g id="Grupo_927469" data-name="Grupo 927469" clip-path="url(#clip-path-12)">
                    <path id="Trazado_641530" data-name="Trazado 641530" d="M200.445,342.993a.739.739,0,0,1,.571.8.711.711,0,0,1-.792.573.779.779,0,0,1-.6-.855.737.737,0,0,1,.89-.5" transform="translate(-199.608 -342.972)" fill="#fff"/>
                  </g>
                </g>
              </g>
              <g id="Grupo_927474" data-name="Grupo 927474" transform="translate(64.414 138.835)" opacity="0.6">
                <g id="Grupo_927473" data-name="Grupo 927473" transform="translate(0)">
                  <g id="Grupo_927472" data-name="Grupo 927472" clip-path="url(#clip-path-13)">
                    <path id="Trazado_641531" data-name="Trazado 641531" d="M182.4,355.435l-.351-1.444-17.183,1.2a1.25,1.25,0,0,0-.631,1.01Z" transform="translate(-164.239 -353.99)" fill="#fff"/>
                  </g>
                </g>
              </g>
              <path id="Trazado_641532" data-name="Trazado 641532" d="M186.9,345.708c.009.088.453.1.907.348s.712.606.79.565c.08-.023-.09-.54-.645-.835s-1.077-.156-1.052-.077" transform="translate(-113.597 -210.058)" fill="#263238"/>
              <path id="Trazado_641533" data-name="Trazado 641533" d="M182.221,348.149c-.014.087.378.209.7.56s.441.739.529.729c.084.008.107-.513-.307-.941s-.931-.431-.927-.347" transform="translate(-110.754 -211.579)" fill="#263238"/>
              <path id="Trazado_641534" data-name="Trazado 641534" d="M178.641,351.909c.081.013.172-.436-.089-.9s-.687-.628-.719-.552.242.315.45.7.27.75.358.753" transform="translate(-108.084 -212.996)" fill="#263238"/>
              <path id="Trazado_641535" data-name="Trazado 641535" d="M186.907,339.826c.043.078.438-.073.939-.076s.9.127.94.048-.355-.366-.945-.355-.982.317-.934.383" transform="translate(-113.6 -206.314)" fill="#263238"/>
              <path id="Trazado_641536" data-name="Trazado 641536" d="M186.482,333.132a1.7,1.7,0,0,0,.9-.07,4.073,4.073,0,0,0,.924-.359,4.193,4.193,0,0,0,.5-.313,1.118,1.118,0,0,0,.258-.232.385.385,0,0,0,.006-.471.485.485,0,0,0-.4-.173,1.174,1.174,0,0,0-.335.071,3.26,3.26,0,0,0-.548.233,3.185,3.185,0,0,0-.793.608c-.391.418-.509.757-.478.772s.226-.264.628-.615a3.62,3.62,0,0,1,.773-.513,3.377,3.377,0,0,1,.507-.2c.187-.064.35-.077.405,0,.02.031.024.044-.013.1a.9.9,0,0,1-.189.17,4.742,4.742,0,0,1-.458.307,5.011,5.011,0,0,1-.849.4,6.245,6.245,0,0,0-.84.278" transform="translate(-113.344 -201.494)" fill="#263238"/>
              <path id="Trazado_641537" data-name="Trazado 641537" d="M184.731,331.579a1.445,1.445,0,0,0,.175-.89,2.925,2.925,0,0,0-.465-1.512.748.748,0,0,0-.609-.415.424.424,0,0,0-.359.279,1.226,1.226,0,0,0-.069.338,2.014,2.014,0,0,0,.044.609,2.083,2.083,0,0,0,.454.905c.386.442.762.52.767.49.026-.047-.293-.194-.6-.624a2.082,2.082,0,0,1-.348-.828,1.842,1.842,0,0,1-.021-.524c.014-.194.075-.353.148-.339.089-.008.253.126.338.273a3.032,3.032,0,0,1,.259.474,3.248,3.248,0,0,1,.24.889c.063.527-.007.864.042.874" transform="translate(-111.469 -199.823)" fill="#263238"/>
              <path id="Trazado_641538" data-name="Trazado 641538" d="M291.969,325.155l7.775-4.475s5.192,8.258,6.885,7.9l-4.187-17.6-13.217,6.178Z" transform="translate(-175.791 -189.014)" fill="#455a64"/>
              <g id="Grupo_927477" data-name="Grupo 927477" transform="translate(121.693 125.769)" opacity="0.6">
                <g id="Grupo_927476" data-name="Grupo 927476" transform="translate(0)">
                  <g id="Grupo_927475" data-name="Grupo 927475" clip-path="url(#clip-path-14)">
                    <path id="Trazado_641539" data-name="Trazado 641539" d="M310.292,321.4a.739.739,0,0,1,.675-.718.71.71,0,0,1,.717.663.779.779,0,0,1-.719.757.737.737,0,0,1-.67-.773" transform="translate(-310.285 -320.678)" fill="#fff"/>
                  </g>
                </g>
              </g>
              <g id="Grupo_927480" data-name="Grupo 927480" transform="translate(125.304 121.966)" opacity="0.6">
                <g id="Grupo_927479" data-name="Grupo 927479" transform="translate(0)">
                  <g id="Grupo_927478" data-name="Grupo 927478" clip-path="url(#clip-path-15)">
                    <path id="Trazado_641540" data-name="Trazado 641540" d="M320.838,310.98l-1.347.629,4.568,16.608a1.251,1.251,0,0,0,1.115.42Z" transform="translate(-319.491 -310.98)" fill="#fff"/>
                  </g>
                </g>
              </g>
              <path id="Trazado_641541" data-name="Trazado 641541" d="M315.71,333.623c.084-.026,0-.463.162-.957s.453-.817.4-.886c-.038-.074-.512.194-.692.8s.059,1.087.132,1.047" transform="translate(-191.768 -201.649)" fill="#263238"/>
              <path id="Trazado_641542" data-name="Trazado 641542" d="M319.117,338.31c.088,0,.13-.412.41-.8s.637-.579.61-.662c-.009-.084-.524,0-.862.486s-.239,1-.158.977" transform="translate(-193.911 -204.718)" fill="#263238"/>
              <path id="Trazado_641543" data-name="Trazado 641543" d="M323.549,341.649c0-.082-.462-.082-.867.266s-.48.8-.4.814.262-.3.6-.58.682-.412.667-.5" transform="translate(-195.866 -207.627)" fill="#263238"/>
              <path id="Trazado_641544" data-name="Trazado 641544" d="M309.746,334.713c.068-.057-.158-.415-.259-.905s-.053-.907-.139-.931-.289.421-.162,1,.5.9.56.84" transform="translate(-187.9 -202.322)" fill="#263238"/>
              <path id="Trazado_641545" data-name="Trazado 641545" d="M302.923,335.233a1.7,1.7,0,0,0-.247-.871,4.067,4.067,0,0,0-.534-.835,4.281,4.281,0,0,0-.405-.427,1.115,1.115,0,0,0-.278-.207.385.385,0,0,0-.464.087.485.485,0,0,0-.091.427,1.186,1.186,0,0,0,.136.315,3.3,3.3,0,0,0,.337.491,3.193,3.193,0,0,0,.752.658,1.513,1.513,0,0,0,.851.316c.017-.046-.3-.169-.727-.495a3.632,3.632,0,0,1-.655-.657,3.436,3.436,0,0,1-.294-.458c-.1-.171-.145-.328-.076-.4.027-.026.038-.031.1-.008a.89.89,0,0,1,.2.152,4.672,4.672,0,0,1,.392.388,5.01,5.01,0,0,1,.558.754,6.249,6.249,0,0,0,.438.768" transform="translate(-182.881 -202.307)" fill="#263238"/>
              <path id="Trazado_641546" data-name="Trazado 641546" d="M302.291,338.464a1.44,1.44,0,0,0-.907,0,2.93,2.93,0,0,0-1.39.754.749.749,0,0,0-.286.679.423.423,0,0,0,.344.3,1.225,1.225,0,0,0,.345,0,2,2,0,0,0,.588-.163,2.081,2.081,0,0,0,.8-.623c.357-.466.36-.849.329-.848-.051-.016-.133.326-.494.707a2.083,2.083,0,0,1-.743.5,1.859,1.859,0,0,1-.509.124c-.193.024-.362,0-.362-.078-.026-.086.073-.273.2-.385a2.976,2.976,0,0,1,.413-.347,3.259,3.259,0,0,1,.824-.411c.5-.166.849-.164.849-.213" transform="translate(-182.158 -205.682)" fill="#263238"/>
              <path id="Trazado_641547" data-name="Trazado 641547" d="M235.445,263.8s-8.16,24.014-6.344,28.3c1.327,3.129,3.108,6.871,10.78,5.342,8.438-1.682,22.3-6.721,22.3-6.721l-2.693-10.186L245,285.331s9.647-15.851,9.344-20.682c-.362-5.765-.617-6.19-.617-6.19Z" transform="translate(-139.088 -157.092)" fill="#263238"/>
              <path id="Trazado_641548" data-name="Trazado 641548" d="M183.7,254.09s-13.34-5.424-19.739-5.314-9.577,1.737-9.4,7.254,9.81,28.75,9.81,28.75,11.14-1.091,11.03-1.2-6.683-20.672-6.683-20.672,8.733,4.309,13.055,6.671c4.93,2.694,7.389,2.974,7.389,2.974l4.416-12.021Z" transform="translate(-93.938 -151.206)" fill="#263238"/>
              <path id="Trazado_641549" data-name="Trazado 641549" d="M229.563,307.673a1.33,1.33,0,0,1-.128-.237,4.776,4.776,0,0,1-.279-.721,10.06,10.06,0,0,1-.384-2.813,31.171,31.171,0,0,1,1.632-9.195l2.467-9.012.766-2.727.218-.739a1.346,1.346,0,0,1,.089-.254,1.352,1.352,0,0,1-.05.264l-.181.749-.7,2.745c-.609,2.314-1.433,5.515-2.412,9.035a32.577,32.577,0,0,0-1.683,9.131,10.692,10.692,0,0,0,.316,2.792c.176.642.352.971.331.981" transform="translate(-139.047 -171.385)" fill="#455a64"/>
              <path id="Trazado_641550" data-name="Trazado 641550" d="M137.834,185.363a15.112,15.112,0,0,0,1.854,2.4c.762.672,1.427.71,2.052,2.023s1.359,2.695,1.359,2.695a34.475,34.475,0,0,1,3.132,1.825c-.124.075-1.844,4.919-1.844,4.919l-5.634-3.558-6.876-2.621-3.358-4.072.142-.408-.425-.842s.314-1.1,1.254-.471c0,0-.318-1.2,1.089-.578s4.063,2.416,4.251,2.421,2.652.527,2.652.527l1.106-.3a3,3,0,0,1-1.324-1.3c-.38-.852-1.046-1.311-.662-2.1a1.073,1.073,0,0,1,1.233-.56" transform="translate(-77.942 -112.645)" fill="#ae7461"/>
              <path id="Trazado_641551" data-name="Trazado 641551" d="M143.772,199.239a2.229,2.229,0,0,1-.388-.1A5.811,5.811,0,0,0,142.3,199a15.864,15.864,0,0,0-3.673.413l-.035.007-.031-.015-.76-.354-.378-.176-.031-.015-.014-.028-.749-1.446a1.007,1.007,0,0,0-.447-.491.622.622,0,0,0-.572.056l.034-.082a11.47,11.47,0,0,1,.245,2.6c-.015,0-.029-.254-.1-.7s-.173-1.09-.308-1.865l-.009-.054.044-.028a.791.791,0,0,1,.739-.087,1.177,1.177,0,0,1,.549.571l.755,1.434-.046-.043.378.176.759.356-.065-.007a14.147,14.147,0,0,1,3.725-.35,4.74,4.74,0,0,1,1.1.2,1.349,1.349,0,0,1,.367.171" transform="translate(-82.338 -119.54)" fill="#6f4439"/>
              <path id="Trazado_641552" data-name="Trazado 641552" d="M135.915,193.028A34.145,34.145,0,0,1,131.59,190a34.254,34.254,0,0,1,4.325,3.03" transform="translate(-79.98 -115.48)" fill="#6f4439"/>
              <path id="Trazado_641553" data-name="Trazado 641553" d="M131.364,194.838c-.024.017-.136-.1-.306-.305a5.121,5.121,0,0,0-.7-.719,2.042,2.042,0,0,0-.879-.414c-.248-.046-.41-.021-.417-.053s.153-.1.433-.091a1.772,1.772,0,0,1,.989.4,3.212,3.212,0,0,1,.691.793c.142.226.212.375.189.391" transform="translate(-78.443 -117.461)" fill="#6f4439"/>
              <path id="Trazado_641554" data-name="Trazado 641554" d="M143.654,196.089a3.589,3.589,0,0,0-1.708,2.179c-.024,0-.04-.171.018-.437a2.458,2.458,0,0,1,1.271-1.621c.244-.119.412-.144.42-.121" transform="translate(-86.262 -119.178)" fill="#6f4439"/>
              <path id="Trazado_641555" data-name="Trazado 641555" d="M161.553,182.816l11.475,5.238s7.669-12.489,9.063-13.588,8.832-3.781,8.832-3.781l-6.852,18.634s-5.521,8.591-8.934,9.173c-2.222.379-17.113-8.772-17.113-8.772Z" transform="translate(-96.047 -103.743)" fill="#455a64"/>
              <path id="Trazado_641556" data-name="Trazado 641556" d="M246.934,209.535c.11-2.873-1.918-11.232-1.918-11.232s1.753-22.089-.323-24.74c-1.822-2.327-9.924-4.168-9.924-4.168l-8.286.426-9.285,3.861-1.049,7.833,2.9,9.208,1.651,12.9-1.563,1.45s1.825,6.418,7.4,7,20.394-2.528,20.394-2.528" transform="translate(-131.376 -102.958)" fill="#455a64"/>
              <path id="Trazado_641557" data-name="Trazado 641557" d="M220.176,190.038a1.339,1.339,0,0,1,.028.261c.01.192.024.44.04.748.038.649.1,1.588.21,2.745.208,2.316.607,5.5,1.078,9.023s.916,6.7,1.189,9.016c.139,1.156.236,2.093.293,2.741.023.308.042.556.057.748a1.262,1.262,0,0,1,.006.262,1.282,1.282,0,0,1-.047-.258c-.025-.191-.056-.437-.1-.743-.088-.669-.209-1.6-.357-2.731-.323-2.327-.762-5.5-1.249-9.008-.471-3.52-.848-6.715-1.019-9.038-.09-1.161-.132-2.1-.146-2.754,0-.309,0-.558,0-.75a1.207,1.207,0,0,1,.014-.262" transform="translate(-133.815 -115.505)" fill="#263238"/>
              <g id="Grupo_927483" data-name="Grupo 927483" transform="translate(87.222 84.311)" opacity="0.3">
                <g id="Grupo_927482" data-name="Grupo 927482" transform="translate(0)">
                  <g id="Grupo_927481" data-name="Grupo 927481" clip-path="url(#clip-path-16)">
                    <path id="Trazado_641558" data-name="Trazado 641558" d="M222.984,219.109s1.788.4,2.311,1.183,1.356,5.1,3.555,5.886l1.321.457a1.487,1.487,0,0,0,1.76-.64l1.145-1.908,3.989.719.6,2.48a1.552,1.552,0,0,0,1.266,1.165L249.4,230.1v-3.2l-11.62-5.819-6.056-1.377-4.208-1.517-3.925-2.794-1.2-.418Z" transform="translate(-222.395 -214.971)"/>
                  </g>
                </g>
              </g>
              <path id="Trazado_641559" data-name="Trazado 641559" d="M252.732,262.6a.911.911,0,0,1-.179.134,5.54,5.54,0,0,1-.547.335,14.047,14.047,0,0,1-2.156.954,28.774,28.774,0,0,1-7.615,1.5,20.832,20.832,0,0,1-4.282-.142,11.88,11.88,0,0,1-1.829-.421,6.374,6.374,0,0,1-1.484-.7,3.148,3.148,0,0,1-1.426-1.847c-.029-.138-.067-.258-.077-.365s-.009-.192-.012-.273a.112.112,0,1,1,.041,0c.009.079.02.167.031.266s.059.22.093.352a3.128,3.128,0,0,0,1.428,1.748,6.351,6.351,0,0,0,1.458.656,12.052,12.052,0,0,0,1.8.4,21.422,21.422,0,0,0,4.243.125,30.57,30.57,0,0,0,7.58-1.43,16.189,16.189,0,0,0,2.167-.888c.5-.245.751-.418.764-.4" transform="translate(-141.691 -158.974)" fill="#263238"/>
              <path id="Trazado_641560" data-name="Trazado 641560" d="M270.158,184.911l2.785,10.487-7.583-1.27-.742,8.63s7.96,1.407,10.7,1.759c3.927.506,6.066-2.181,4.855-8.844-.486-2.676-1.537-10.39-3.317-14.933a11.742,11.742,0,0,0-4.712-4.782" transform="translate(-160.835 -106.948)" fill="#455a64"/>
              <path id="Trazado_641561" data-name="Trazado 641561" d="M271.974,175.959a3.356,3.356,0,0,1,.659.329,11.345,11.345,0,0,1,1.668,1.3,11.95,11.95,0,0,1,2.152,2.558,5.11,5.11,0,0,1,.418.928c.124.326.246.664.357,1.017.236.7.447,1.454.659,2.247.846,3.172,1.492,7.032,2.2,11.3a21.262,21.262,0,0,1,.345,3.322c0,.286-.018.573-.027.862s-.064.577-.095.867-.123.575-.183.864a7.39,7.39,0,0,1-.315.837,4.024,4.024,0,0,1-1.1,1.442,3.852,3.852,0,0,1-1.68.753l-.462.071c-.155.013-.311.011-.466.018a7.168,7.168,0,0,1-.935-.048c-.615-.077-1.229-.171-1.847-.266-3.08-.483-6.058-1-8.895-1.5l-.089-.016.008-.09c.267-3.056.519-5.952.752-8.629l.009-.1.095.016,7.58,1.286-.082.091-2.006-7.682-.535-2.091-.134-.545c-.029-.123-.039-.187-.039-.187s.023.061.059.182l.154.54c.134.485.326,1.184.573,2.081l2.07,7.666.029.109-.112-.018-7.586-1.254.1-.08c-.227,2.678-.473,5.574-.733,8.631l-.082-.106c2.836.495,5.816,1.011,8.892,1.493a11.232,11.232,0,0,0,3.64.227,3.647,3.647,0,0,0,1.593-.711,3.828,3.828,0,0,0,1.042-1.369,7.223,7.223,0,0,0,.305-.807c.058-.282.138-.558.179-.841s.08-.566.094-.849.025-.566.028-.847a21.186,21.186,0,0,0-.335-3.29c-.7-4.277-1.333-8.128-2.159-11.3-.205-.791-.412-1.543-.642-2.243-.108-.352-.227-.689-.348-1.014a5.01,5.01,0,0,0-.4-.914,13.422,13.422,0,0,0-3.743-3.876,4.546,4.546,0,0,0-.472-.276c-.11-.055-.165-.088-.165-.088" transform="translate(-160.67 -106.948)" fill="#263238"/>
              <path id="Trazado_641562" data-name="Trazado 641562" d="M289.97,226.6a8.227,8.227,0,0,0-2.26-.892c-1.323-.26-2.44-.214-2.438-.287a2.291,2.291,0,0,1,.726-.069,8.217,8.217,0,0,1,1.754.156,5.131,5.131,0,0,1,1.65.631,1.774,1.774,0,0,1,.569.461" transform="translate(-173.388 -136.969)" fill="#263238"/>
              <path id="Trazado_641563" data-name="Trazado 641563" d="M277.918,184.456a4.857,4.857,0,0,1,2.263-4.609" transform="translate(-168.901 -109.311)" fill="#455a64"/>
              <path id="Trazado_641564" data-name="Trazado 641564" d="M280.085,179.844a7.785,7.785,0,0,1-.589.524,5.215,5.215,0,0,0-1.619,3.3,7.652,7.652,0,0,1-.055.787,1.955,1.955,0,0,1-.09-.8,4.625,4.625,0,0,1,1.668-3.4,1.95,1.95,0,0,1,.684-.416" transform="translate(-168.806 -109.308)" fill="#263238"/>
              <path id="Trazado_641565" data-name="Trazado 641565" d="M197.318,220.151a2.726,2.726,0,0,1-.415-.725,10.47,10.47,0,0,1-.945-3.9,2.738,2.738,0,0,1,.036-.835c.064,0,.075,1.272.446,2.783s.935,2.65.878,2.678" transform="translate(-119.1 -130.489)" fill="#263238"/>
              <path id="Trazado_641566" data-name="Trazado 641566" d="M235.125,185.323c-.221.307-6.534,17.684-6.534,17.684s-2.278-.04-3.315-1.344-2.315-3.476-3.773-3.43-6.215-.1-6.215-.1l4.447-17.287a9.517,9.517,0,0,1,4.444-.073c1.763.612,2.658,3.61,4.81,4.3s6.135.253,6.135.253" transform="translate(-130.853 -109.719)" fill="#fff"/>
              <path id="Trazado_641567" data-name="Trazado 641567" d="M234.923,185.2a.6.6,0,0,1-.079.015l-.235.029c-.207.022-.516.052-.919.077a20.807,20.807,0,0,1-3.5-.039,8.252,8.252,0,0,1-1.177-.213,3.335,3.335,0,0,1-1.195-.556,10.635,10.635,0,0,1-2-2.161,7.644,7.644,0,0,0-1.093-1.173,2.869,2.869,0,0,0-1.527-.631,10.278,10.278,0,0,0-3.642.26l.064-.064-4.3,16.779-.132.512-.1-.127q2.056.061,4.047.1c.662.009,1.32.02,1.967.009a3.3,3.3,0,0,1,.5.018l.249.06c.08.028.157.062.235.094a3.475,3.475,0,0,1,.815.553,27.171,27.171,0,0,1,2.361,2.872,3.4,3.4,0,0,0,1.466.88,6.232,6.232,0,0,0,1.658.3l-.087.06c1.926-5.274,3.558-9.7,4.719-12.8.581-1.55,1.044-2.769,1.369-3.6.16-.415.291-.731.38-.944.043-.109.083-.178.109-.233s.041-.082.043-.083l-.478,1.28-1.321,3.615-4.65,12.82-.023.063-.064,0a6.4,6.4,0,0,1-1.713-.307,4.187,4.187,0,0,1-.823-.362,2.86,2.86,0,0,1-.725-.567,27.609,27.609,0,0,0-2.352-2.854,2.173,2.173,0,0,0-1.667-.672c-.653.011-1.31,0-1.974-.007-1.327-.02-2.679-.055-4.05-.095l-.127,0,.032-.124c.043-.169.087-.34.132-.512l4.328-16.772.014-.052.05-.011a10.41,10.41,0,0,1,3.71-.249,3.953,3.953,0,0,1,.858.221,2.17,2.17,0,0,1,.392.2,2.252,2.252,0,0,1,.349.251,7.8,7.8,0,0,1,1.109,1.2,10.587,10.587,0,0,0,1.962,2.149,3.221,3.221,0,0,0,1.152.547,8.274,8.274,0,0,0,1.159.221,22.145,22.145,0,0,0,3.485.087l.919-.051.236-.015a.5.5,0,0,1,.08,0" transform="translate(-130.651 -109.594)" fill="#263238"/>
              <path id="Trazado_641568" data-name="Trazado 641568" d="M237.183,180.854c-.221.307-6.658,20.917-6.658,20.917s-2.278-.04-3.314-1.344-2.315-3.476-3.773-3.43-6.215-.1-6.215-.1l4.571-20.52a9.523,9.523,0,0,1,4.444-.073c1.763.612,2.658,3.61,4.81,4.3s6.135.253,6.135.253" transform="translate(-132.028 -107.003)" fill="#fff"/>
              <path id="Trazado_641569" data-name="Trazado 641569" d="M236.987,180.732a.623.623,0,0,1-.078.014l-.233.028c-.206.022-.513.051-.914.076a20.934,20.934,0,0,1-3.489-.038,8.273,8.273,0,0,1-1.175-.21,3.361,3.361,0,0,1-1.2-.549,10.438,10.438,0,0,1-2.007-2.157,7.767,7.767,0,0,0-1.092-1.178,2.875,2.875,0,0,0-1.529-.64,10.258,10.258,0,0,0-3.656.259l.062-.064-4.432,19.971-.123.552-.1-.124q2.033.06,4.009.1c.658.009,1.311.019,1.955.011l.24-.005.258.016a1.907,1.907,0,0,1,.487.139,3.1,3.1,0,0,1,.823.538,24.128,24.128,0,0,1,2.375,2.876,3.366,3.366,0,0,0,1.469.9,6.257,6.257,0,0,0,1.683.311l-.09.065c1.945-6.192,3.6-11.424,4.792-15.1.593-1.839,1.068-3.291,1.4-4.28.165-.495.3-.873.392-1.128.044-.13.087-.216.114-.28s.043-.1.045-.1a.777.777,0,0,1-.03.095c-.02.064-.062.166-.1.295l-.365,1.136-1.353,4.3c-1.155,3.7-2.789,8.934-4.721,15.124l-.022.068-.069,0a6.407,6.407,0,0,1-1.74-.317,3.546,3.546,0,0,1-1.553-.955,24.373,24.373,0,0,0-2.361-2.854,2.144,2.144,0,0,0-1.675-.637c-.649.009-1.3,0-1.961-.009-1.318-.021-2.656-.055-4.013-.095l-.123,0,.027-.121.123-.552,4.464-19.964.012-.053.051-.011a10.389,10.389,0,0,1,3.722-.247,3.912,3.912,0,0,1,.859.226,2.05,2.05,0,0,1,.391.2,2.423,2.423,0,0,1,.349.253A7.9,7.9,0,0,1,228,177.811a10.39,10.39,0,0,0,1.967,2.146,3.254,3.254,0,0,0,1.155.541,8.257,8.257,0,0,0,1.158.218,22.181,22.181,0,0,0,3.474.084l.915-.051.235-.015a.565.565,0,0,1,.08,0" transform="translate(-131.832 -106.881)" fill="#263238"/>
              <path id="Trazado_641570" data-name="Trazado 641570" d="M239.26,209.034l2.905,2.087,2.163.694,1.007-1.4.989,3.535,1.617.4-.57,5.426L244.7,218.4s-3.584-.323-3.858-.323a28.647,28.647,0,0,1-2.974-2.562l-1.262-3.02s-1.071-1.189-.384-1.921c0,0-.457-.147.091-.646s1.235-.132,1.83.508,1.418,1.6,1.418,1.6l2.287.915-1.876-1.373s-2.073-1.707-2.068-2.1a.579.579,0,0,1,.29-.5.961.961,0,0,1,1.068.056" transform="translate(-143.434 -126.934)" fill="#ae7461"/>
              <path id="Trazado_641571" data-name="Trazado 641571" d="M240.988,217.2c-.018.025-.331-.172-.887-.4-.276-.117-.611-.246-.977-.411a3.65,3.65,0,0,1-1.113-.717,16.73,16.73,0,0,1-1.384-1.92c-.335-.5-.582-.774-.56-.8a2.878,2.878,0,0,1,.677.711c.38.471.808,1.2,1.414,1.863a3.73,3.73,0,0,0,1.047.689l.957.449a2.557,2.557,0,0,1,.827.529" transform="translate(-143.481 -129.434)" fill="#6f4439"/>
              <path id="Trazado_641572" data-name="Trazado 641572" d="M240.862,222.091a1.6,1.6,0,0,1-.7-.342,7.285,7.285,0,0,1-1.327-1.326,10.336,10.336,0,0,1-1.106-1.51,1.952,1.952,0,0,1-.3-.718,6.075,6.075,0,0,1,.424.642,17.052,17.052,0,0,0,1.139,1.455,9.9,9.9,0,0,0,1.258,1.342c.36.3.628.426.614.457" transform="translate(-144.307 -132.619)" fill="#6f4439"/>
              <path id="Trazado_641573" data-name="Trazado 641573" d="M240.284,110.666a1.837,1.837,0,0,1-.231-3.647,1.911,1.911,0,0,1,2.132-2.934,2.287,2.287,0,0,1,3.691-1.333,2.571,2.571,0,0,1,3.139.414,1.829,1.829,0,0,1,1.129,3.31" transform="translate(-144.971 -62.142)" fill="#263238"/>
              <path id="Trazado_641574" data-name="Trazado 641574" d="M249.916,134.624l.3-2.04,2.788-14.232c1.019-4.238-.6-8.363-4.862-9.265l-.4-.06a7.794,7.794,0,0,0-8.752,5.926c-.862,3.677-1.768,7.751-2.045,9.751-.574,4.143,3.465,5.411,3.465,5.411l-.464,3,3.347,3.3Z" transform="translate(-143.984 -66.213)" fill="#ae7461"/>
              <path id="Trazado_641575" data-name="Trazado 641575" d="M245.574,161.714a10.142,10.142,0,0,0,5.658-.767s-1.724,2.783-5.794,1.788Z" transform="translate(-149.178 -97.824)" fill="#6f4439"/>
              <path id="Trazado_641576" data-name="Trazado 641576" d="M243.523,133.213a.6.6,0,0,0,.479.682.571.571,0,0,0,.689-.44.6.6,0,0,0-.478-.682.572.572,0,0,0-.69.441" transform="translate(-148.008 -80.691)" fill="#263238"/>
              <path id="Trazado_641577" data-name="Trazado 641577" d="M243.73,129.05c.062.088.559-.176,1.194-.078s1.053.486,1.133.419c.039-.029-.014-.18-.2-.358a1.639,1.639,0,0,0-.893-.431,1.579,1.579,0,0,0-.965.158c-.218.12-.305.25-.274.29" transform="translate(-148.136 -78.154)" fill="#263238"/>
              <path id="Trazado_641578" data-name="Trazado 641578" d="M257.576,135.936a.6.6,0,0,0,.479.682.571.571,0,0,0,.69-.44.6.6,0,0,0-.479-.682.572.572,0,0,0-.69.441" transform="translate(-156.55 -82.346)" fill="#263238"/>
              <path id="Trazado_641579" data-name="Trazado 641579" d="M259.611,131.76c.062.088.56-.175,1.194-.078s1.053.486,1.134.418c.039-.029-.014-.18-.2-.358a1.633,1.633,0,0,0-.893-.43,1.572,1.572,0,0,0-.965.158c-.218.12-.305.249-.275.289" transform="translate(-157.788 -79.801)" fill="#263238"/>
              <path id="Trazado_641580" data-name="Trazado 641580" d="M249.512,135.47a4.254,4.254,0,0,0-1-.342c-.16-.041-.308-.1-.319-.211a.837.837,0,0,1,.181-.465l.667-1.163a21.46,21.46,0,0,0,1.566-3.069,21.512,21.512,0,0,0-1.809,2.936l-.648,1.173a.947.947,0,0,0-.18.624.411.411,0,0,0,.231.278,1.11,1.11,0,0,0,.27.08,4.2,4.2,0,0,0,1.046.16" transform="translate(-150.708 -79.147)" fill="#263238"/>
              <path id="Trazado_641581" data-name="Trazado 641581" d="M260.842,126.756c.007.184.585.259,1.212.53s1.1.616,1.228.489c.059-.062.011-.246-.155-.468a2.055,2.055,0,0,0-.836-.629,1.982,1.982,0,0,0-1.023-.148c-.269.04-.427.138-.426.225" transform="translate(-158.54 -76.895)" fill="#263238"/>
              <path id="Trazado_641582" data-name="Trazado 641582" d="M244.525,124.414c.111.156.607.047,1.188.091.582.025,1.064.191,1.19.049.056-.07-.009-.222-.211-.378a1.862,1.862,0,0,0-1.916-.113c-.218.131-.3.275-.25.351" transform="translate(-148.615 -75.276)" fill="#263238"/>
              <path id="Trazado_641583" data-name="Trazado 641583" d="M244,112.142s1.482-2.425,2.822-2.84c1.623-.5,2.023,1.254,3.524,1.069s3.051-.669,4.355.668c1.427,1.463.543,2.2.365,4.053-.72,7.5.32,9.808,1.236,6.363.1-.377,1.212-.522,1.615-2.12a18.474,18.474,0,0,0,.746-6.177,5.955,5.955,0,0,0-1.933-3.448c-1.8-1.819-4.586-2.274-6.508-2.369s-5.9,1.532-6.221,4.8" transform="translate(-148.301 -65.24)" fill="#263238"/>
              <path id="Trazado_641584" data-name="Trazado 641584" d="M273.821,141.5a1.135,1.135,0,0,1,1.375-.9c.76.19,1.552.757,1.261,2.343a2.15,2.15,0,0,1-3.225,1.632c.007-.055.362-1.9.59-3.077" transform="translate(-166.071 -85.439)" fill="#ae7461"/>
              <path id="Trazado_641585" data-name="Trazado 641585" d="M275.282,145.068c.014-.007.042.044.118.1a.5.5,0,0,0,.365.075,1.232,1.232,0,0,0,.761-.985,1.645,1.645,0,0,0-.008-.727.575.575,0,0,0-.3-.444.253.253,0,0,0-.314.081c-.052.072-.045.131-.06.133s-.052-.058-.008-.17a.318.318,0,0,1,.144-.156.374.374,0,0,1,.284-.022.7.7,0,0,1,.432.53,1.7,1.7,0,0,1,.026.815,1.3,1.3,0,0,1-.938,1.084.534.534,0,0,1-.435-.157c-.075-.086-.078-.151-.067-.155" transform="translate(-167.314 -86.875)" fill="#6f4439"/>
              <path id="Trazado_641586" data-name="Trazado 641586" d="M260.663,114.447a2.722,2.722,0,0,1-1.281.372.933.933,0,0,1-.925-.8c0-.2.079-.423-.027-.594-.127-.2-.42-.191-.661-.2a1.825,1.825,0,0,1-1.677-1.577.766.766,0,0,1-1.03-.058,4.093,4.093,0,0,1-.646-.94,1.177,1.177,0,0,0-.9-.632,2.8,2.8,0,0,1-.635.043c-.366-.089-.482-.551-.482-.928s.021-.813-.264-1.061a1.494,1.494,0,0,0-1.006-.181c-.349,0-.779-.148-.816-.5a.68.68,0,0,1,.2-.494,1.851,1.851,0,0,1,2.266-.366,2.51,2.51,0,0,1,4.632.208,2.547,2.547,0,0,1,3.887,1.526,1.847,1.847,0,0,1,1.657,2.967,1.753,1.753,0,0,1,.745,1.524,1,1,0,0,1-1.277.844,1.023,1.023,0,0,1-1.9.745" transform="translate(-152.14 -63.87)" fill="#263238"/>
              <path id="Trazado_641587" data-name="Trazado 641587" d="M255.741,110.81a.151.151,0,0,0-.007.052c0,.035-.007.086-.005.154a1.8,1.8,0,0,0,.123.576,2.043,2.043,0,0,0,.526.763,1.9,1.9,0,0,0,1.108.505l-.038-.07a1.036,1.036,0,0,0-.061.789,2.949,2.949,0,0,0,.379.768,2.122,2.122,0,0,0,.267.372,1,1,0,0,0,.423.234,1.043,1.043,0,0,0,.959-.189l-.1-.046a2.145,2.145,0,0,0,.678,1.6,1.563,1.563,0,0,0,.882.444,2.82,2.82,0,0,0,.945-.062l-.071-.045a2.253,2.253,0,0,0,.537.973,1.2,1.2,0,0,0,.944.417,1.575,1.575,0,0,0,1.383-1.038l-.069.02a1.475,1.475,0,0,0,.95.289,1.6,1.6,0,0,0,.723-.2,1.381,1.381,0,0,0,.368-.3.707.707,0,0,0,.094-.135,1.721,1.721,0,0,1-.485.391,1.582,1.582,0,0,1-.7.173,1.409,1.409,0,0,1-.894-.289l-.048-.038-.02.058a1.486,1.486,0,0,1-1.305.958,1.09,1.09,0,0,1-.856-.389,2.148,2.148,0,0,1-.5-.923l-.014-.056-.056.011a2.724,2.724,0,0,1-.9.059,1.441,1.441,0,0,1-.815-.413,2.029,2.029,0,0,1-.642-1.511l0-.136-.1.09a.927.927,0,0,1-.847.166.885.885,0,0,1-.375-.2,2.077,2.077,0,0,1-.252-.349,2.884,2.884,0,0,1-.373-.737.938.938,0,0,1,.045-.716l.033-.064-.072-.006a1.841,1.841,0,0,1-1.064-.467,2.042,2.042,0,0,1-.528-.727,2.211,2.211,0,0,1-.16-.761" transform="translate(-155.433 -67.35)" fill="#455a64"/>
              <path id="Trazado_641588" data-name="Trazado 641588" d="M251.583,146.223a9.837,9.837,0,0,0-2.351.362l-.01.019a1.941,1.941,0,0,0,.484,1.5,1.138,1.138,0,0,0,1.136.171,1.278,1.278,0,0,0,.768-.81,2.669,2.669,0,0,0-.027-1.236" transform="translate(-151.478 -88.875)" fill="#6f4439"/>
              <path id="Trazado_641589" data-name="Trazado 641589" d="M250.105,148.13a1.243,1.243,0,0,0,.749-.091,1.146,1.146,0,0,0,.543-.58,1.86,1.86,0,0,0,.1-.994,1.755,1.755,0,0,0-.049-.246c-.017-.018.015,0-.013-.007l-.124.016-.511.069-.866.106a3.165,3.165,0,0,1-.806.046,3.186,3.186,0,0,1,.784-.189l.86-.149.509-.081c.048-.006.08-.015.144-.02a.211.211,0,0,1,.206.125,1.528,1.528,0,0,1,.067.3,1.951,1.951,0,0,1-.135,1.1,1.249,1.249,0,0,1-.654.634.975.975,0,0,1-.609.059c-.142-.037-.2-.09-.2-.1" transform="translate(-151.424 -88.743)" fill="#263238"/>
            </g>
          </g>
          <g id="Grupo_927502" data-name="Grupo 927502">
            <g id="Grupo_927501" data-name="Grupo 927501" clip-path="url(#clip-path-9)">
              <path id="Trazado_641590" data-name="Trazado 641590" d="M20.293,326.1l-.614,8.043s8.6,2.9,8.639,4.513l-16.828.033,1.065-5.806.4-7.049Z" transform="translate(-6.983 -198.041)" fill="#455a64"/>
              <g id="Grupo_927488" data-name="Grupo 927488" transform="translate(7.009 135.162)" opacity="0.6">
                <g id="Grupo_927487" data-name="Grupo 927487" transform="translate(0)">
                  <g id="Grupo_927486" data-name="Grupo 927486" clip-path="url(#clip-path-18)">
                    <path id="Trazado_641591" data-name="Trazado 641591" d="M18.384,344.65a.687.687,0,0,0-.5.767.661.661,0,0,0,.756.5.725.725,0,0,0,.528-.815.685.685,0,0,0-.844-.438" transform="translate(-17.871 -344.626)" fill="#fff"/>
                  </g>
                </g>
              </g>
              <g id="Grupo_927491" data-name="Grupo 927491" transform="translate(4.506 139.291)" opacity="0.6">
                <g id="Grupo_927490" data-name="Grupo 927490" transform="translate(0)">
                  <g id="Grupo_927489" data-name="Grupo 927489" clip-path="url(#clip-path-19)">
                    <path id="Trazado_641592" data-name="Trazado 641592" d="M11.49,356.508l.277-1.355,16.015.527a1.162,1.162,0,0,1,.622.917Z" transform="translate(-11.49 -355.153)" fill="#fff"/>
                  </g>
                </g>
              </g>
              <path id="Trazado_641593" data-name="Trazado 641593" d="M30.649,346.689c-.005.082-.418.1-.831.354s-.641.587-.715.552c-.075-.019.065-.505.57-.8s1-.182.976-.107" transform="translate(-17.677 -210.666)" fill="#263238"/>
              <path id="Trazado_641594" data-name="Trazado 641594" d="M35.716,348.785c.016.08-.344.207-.636.545s-.385.7-.466.7c-.078.01-.118-.473.253-.885s.851-.433.849-.355" transform="translate(-21.007 -211.97)" fill="#263238"/>
              <path id="Trazado_641595" data-name="Trazado 641595" d="M39.731,352.153c-.075.015-.175-.4.052-.842s.617-.608.649-.538-.214.3-.395.668-.225.706-.307.712" transform="translate(-24.095 -213.191)" fill="#263238"/>
              <path id="Trazado_641596" data-name="Trazado 641596" d="M30.161,341.252c-.037.074-.41-.053-.875-.038s-.832.149-.873.076.318-.352.866-.362.924.261.881.324" transform="translate(-17.267 -207.216)" fill="#263238"/>
              <path id="Trazado_641597" data-name="Trazado 641597" d="M29.2,335.083a1.581,1.581,0,0,1-.842-.034,3.778,3.778,0,0,1-.871-.3,3.917,3.917,0,0,1-.475-.274,1.037,1.037,0,0,1-.247-.207.358.358,0,0,1-.022-.438.452.452,0,0,1,.367-.175,1.1,1.1,0,0,1,.314.055,3.05,3.05,0,0,1,.517.2,2.973,2.973,0,0,1,.758.537c.378.375.5.687.471.7s-.219-.238-.605-.55a3.362,3.362,0,0,0-.736-.45,3.062,3.062,0,0,0-.478-.166c-.176-.053-.328-.06-.377.018-.018.03-.02.042.015.095a.833.833,0,0,0,.182.151,4.453,4.453,0,0,0,.436.27,4.682,4.682,0,0,0,.8.341,5.793,5.793,0,0,1,.79.23" transform="translate(-16.216 -202.795)" fill="#263238"/>
              <path id="Trazado_641598" data-name="Trazado 641598" d="M65.108,325.941l-.641,8.041s8.588,2.932,8.624,4.542L56.262,338.5l1.084-5.8.423-7.047Z" transform="translate(-34.196 -197.931)" fill="#455a64"/>
              <g id="Grupo_927494" data-name="Grupo 927494" transform="translate(24.585 135.097)" opacity="0.6">
                <g id="Grupo_927493" data-name="Grupo 927493" transform="translate(0)">
                  <g id="Grupo_927492" data-name="Grupo 927492" clip-path="url(#clip-path-18)">
                    <path id="Trazado_641599" data-name="Trazado 641599" d="M63.2,344.484a.687.687,0,0,0-.505.765.66.66,0,0,0,.754.507.725.725,0,0,0,.531-.813.686.686,0,0,0-.843-.441" transform="translate(-62.684 -344.461)" fill="#fff"/>
                  </g>
                </g>
              </g>
              <g id="Grupo_927497" data-name="Grupo 927497" transform="translate(22.066 139.216)" opacity="0.6">
                <g id="Grupo_927496" data-name="Grupo 927496">
                  <g id="Grupo_927495" data-name="Grupo 927495" clip-path="url(#clip-path-21)">
                    <path id="Trazado_641600" data-name="Trazado 641600" d="M56.262,356.317l.282-1.354,16.013.58a1.163,1.163,0,0,1,.618.92Z" transform="translate(-56.262 -354.963)" fill="#fff"/>
                  </g>
                </g>
              </g>
              <path id="Trazado_641601" data-name="Trazado 641601" d="M75.455,346.567c-.006.082-.418.1-.832.351s-.643.585-.717.55c-.075-.019.066-.505.573-.8s1-.179.976-.1" transform="translate(-44.909 -210.591)" fill="#263238"/>
              <path id="Trazado_641602" data-name="Trazado 641602" d="M80.515,348.68c.016.08-.345.206-.638.542s-.387.7-.469.694c-.078.01-.116-.473.256-.884s.852-.43.851-.352" transform="translate(-48.234 -211.905)" fill="#263238"/>
              <path id="Trazado_641603" data-name="Trazado 641603" d="M84.519,352.06c-.075.015-.173-.4.055-.842s.619-.605.651-.535-.215.3-.4.666-.227.706-.309.711" transform="translate(-51.318 -213.136)" fill="#263238"/>
              <path id="Trazado_641604" data-name="Trazado 641604" d="M74.99,341.128c-.037.074-.409-.054-.875-.041s-.833.145-.873.074.319-.351.868-.36.923.264.88.327" transform="translate(-44.514 -207.139)" fill="#263238"/>
              <path id="Trazado_641605" data-name="Trazado 641605" d="M74.052,334.952a1.578,1.578,0,0,1-.842-.037,3.794,3.794,0,0,1-.87-.305,4.036,4.036,0,0,1-.474-.275,1.045,1.045,0,0,1-.246-.208.358.358,0,0,1-.021-.438.451.451,0,0,1,.367-.174,1.1,1.1,0,0,1,.314.056,3.016,3.016,0,0,1,.517.2,2.969,2.969,0,0,1,.757.54c.376.377.5.688.469.7s-.218-.239-.6-.553a3.368,3.368,0,0,0-.735-.452,3.1,3.1,0,0,0-.478-.168c-.176-.054-.327-.061-.377.016-.018.03-.02.042.015.095a.844.844,0,0,0,.182.152,4.334,4.334,0,0,0,.435.271,4.7,4.7,0,0,0,.8.344,5.812,5.812,0,0,1,.789.232" transform="translate(-43.478 -202.711)" fill="#263238"/>
              <path id="Trazado_641606" data-name="Trazado 641606" d="M13.532,182.094a63.352,63.352,0,0,0,1.165,7.768c.777,3.2.486,19.4.486,19.4l-1.313,6.215a43.376,43.376,0,0,0-.915,10.331l.508,16.154h7.2l6.26-29.608,7.567-27.47-10.48-8.321Z" transform="translate(-7.861 -107.313)" fill="#263238"/>
              <path id="Trazado_641607" data-name="Trazado 641607" d="M56.24,191.033l3.893,1.2,1.831,18.537,1.122,9.234-2.734,30.1H52.4l-1.159-18.973a16.02,16.02,0,0,1-.008-1.81l.539-10.271-2.845-11.993L48.715,190.6Z" transform="translate(-29.609 -115.846)" fill="#263238"/>
              <path id="Trazado_641608" data-name="Trazado 641608" d="M56.706,199.213a.915.915,0,0,1-.012.221c-.019.166-.043.374-.072.628-.067.545-.176,1.332-.32,2.3-.289,1.942-.733,4.619-1.328,7.557s-1.244,5.575-1.768,7.468c-.261.947-.484,1.71-.65,2.233l-.195.6a.967.967,0,0,1-.08.206.823.823,0,0,1,.042-.217c.041-.162.093-.365.157-.612l.587-2.248c.488-1.9,1.111-4.538,1.707-7.472s1.061-5.6,1.386-7.539c.158-.946.288-1.723.384-2.292.045-.252.082-.458.111-.623a.881.881,0,0,1,.053-.215" transform="translate(-31.775 -121.082)" fill="#455a64"/>
              <path id="Trazado_641609" data-name="Trazado 641609" d="M49.071,28.558c.067-.313.383-.5.645-.686a3.189,3.189,0,0,0,1.261-3.024,3.235,3.235,0,0,0-2.149-2.5,2.437,2.437,0,0,1-.79-.325c-.557-.442-.378-1.307-.59-1.98C47,18.621,44.935,18.34,44.2,17.037a4.92,4.92,0,0,1-.26-2.678A2.548,2.548,0,0,0,43,11.936c-.431-.244-.969-.26-1.39-.521-.868-.539-.831-1.764-1.151-2.724a3.512,3.512,0,0,0-3.816-2.245A1.526,1.526,0,0,0,35.6,4.376c-2.021-.845-2.151.586-3.081-.306a3.085,3.085,0,0,0-3.8-.267,8.889,8.889,0,0,1-1.02.771,6.026,6.026,0,0,1-1.519.377A4.505,4.505,0,0,0,22.722,9.22L35.491,31.182c.442,2.089-.851,3.024.959,4.2A25.114,25.114,0,0,0,40,36.428a6.106,6.106,0,0,0,2.42-.082c1.125-.491,2.822-1.236,3.272-2.365a3.187,3.187,0,0,0,3.607-.819,3.075,3.075,0,0,0,.177-3.644c-.2-.295-.477-.611-.4-.96" transform="translate(-13.81 -1.99)" fill="#263238"/>
              <path id="Trazado_641610" data-name="Trazado 641610" d="M23.049,20.371l-.177-1.5,9.017-2.577c2.8-.558,6.138,1.954,6.59,4.738a49.431,49.431,0,0,1,.843,9.247c-.3,4.739-3.871,5.671-3.871,5.671l.826,8.06-.142,2.073-8.924-7.884Z" transform="translate(-13.902 -9.853)" fill="#ffc09d"/>
              <path id="Trazado_641611" data-name="Trazado 641611" d="M58.431,39.533a.6.6,0,0,1-.527.659.584.584,0,0,1-.679-.482.6.6,0,0,1,.526-.659.584.584,0,0,1,.68.482" transform="translate(-34.778 -23.731)" fill="#263238"/>
              <path id="Trazado_641612" data-name="Trazado 641612" d="M56.878,32.972c-.067.085-.561-.208-1.214-.146s-1.1.429-1.18.357c-.038-.032.025-.18.219-.349a1.683,1.683,0,0,1,.935-.382,1.629,1.629,0,0,1,.976.213c.216.133.3.268.264.307" transform="translate(-33.109 -19.72)" fill="#263238"/>
              <path id="Trazado_641613" data-name="Trazado 641613" d="M43.54,40.249a.6.6,0,0,1-.527.659.584.584,0,0,1-.679-.481.6.6,0,0,1,.526-.659.584.584,0,0,1,.68.482" transform="translate(-25.727 -24.166)" fill="#263238"/>
              <path id="Trazado_641614" data-name="Trazado 641614" d="M40.52,34.8c-.068.085-.561-.207-1.215-.145s-1.1.429-1.18.357c-.038-.032.024-.18.219-.349a1.683,1.683,0,0,1,.935-.382,1.629,1.629,0,0,1,.976.213c.215.133.3.268.264.307" transform="translate(-23.166 -20.834)" fill="#263238"/>
              <path id="Trazado_641615" data-name="Trazado 641615" d="M50.2,38.962a4.388,4.388,0,0,1,1.044-.287c.166-.033.32-.08.337-.195A.832.832,0,0,0,51.424,38L50.809,36.8a21.5,21.5,0,0,1-1.428-3.174,21.629,21.629,0,0,1,1.684,3.054l.6,1.216a.948.948,0,0,1,.149.638.418.418,0,0,1-.251.266,1.158,1.158,0,0,1-.28.065,4.323,4.323,0,0,1-1.076.1" transform="translate(-30.01 -20.435)" fill="#263238"/>
              <path id="Trazado_641616" data-name="Trazado 641616" d="M44.606,64.9a12.778,12.778,0,0,1-6.67-1.072s1.946,3.281,6.808,2.4Z" transform="translate(-23.058 -38.794)" fill="#ff9b6c"/>
              <path id="Trazado_641617" data-name="Trazado 641617" d="M39.469,28.555c-.047.181-.708.159-1.466.321s-1.359.426-1.476.279c-.053-.071.039-.246.273-.439a2.64,2.64,0,0,1,2.242-.457c.292.085.447.21.428.3" transform="translate(-22.192 -17.126)" fill="#263238"/>
              <path id="Trazado_641618" data-name="Trazado 641618" d="M56.06,28.207c-.1.157-.566.047-1.108.09-.544.025-.991.191-1.111.048-.053-.07,0-.224.191-.38a1.63,1.63,0,0,1,1.788-.112c.206.133.284.278.24.354" transform="translate(-32.713 -16.799)" fill="#263238"/>
              <path id="Trazado_641619" data-name="Trazado 641619" d="M24.756,15.788A8.153,8.153,0,0,0,20.282,13.3l-7.634,1.221-2.037,1.267c-.168-.446-.277-.724-.277-.724a3.35,3.35,0,0,0-4.441.305,5.62,5.62,0,0,0-1,3.145c.012.322.065.712-.213.9a1.039,1.039,0,0,1-.335.12A3.664,3.664,0,0,0,1.657,23.9a.912.912,0,0,1,.062.363.983.983,0,0,1-.317.49A3,3,0,0,0,1.05,28.3a3.684,3.684,0,0,1,.579,1.036c.155.685-.352,1.323-.739,1.92-1.161,1.79-1.3,4.326.259,5.848.378.37.857.694,1.017,1.182a2.749,2.749,0,0,1,.082.742A2.914,2.914,0,0,0,4.43,41.886c.741.118,1.622-.113,2.17.369a2.977,2.977,0,0,1,.511.78,2.849,2.849,0,0,0,3.227,1.139,2.528,2.528,0,0,0,1.7-2.787,3.457,3.457,0,0,0,2.216-3.444s-.839-4.411-.475-5.631-.63-3.742-1.185-4.963-.126-4.137-.056-5.292a3.914,3.914,0,0,0-.155-.979h0v0c-.068-.277-.155-.589-.256-.923a8.368,8.368,0,0,1-.076-.925,1.721,1.721,0,0,1,2.211-1.614,3.006,3.006,0,0,0,3.152-1.044,4.481,4.481,0,0,0,4.243.9,11.232,11.232,0,0,0,2.1,2.075,4.11,4.11,0,0,0,2.862.787,7.2,7.2,0,0,0-1.864-4.539" transform="translate(0 -8.081)" fill="#263238"/>
              <path id="Trazado_641620" data-name="Trazado 641620" d="M42.767,17.019c-.014,0,0-.171-.04-.475a3.012,3.012,0,0,0-.453-1.217,2.818,2.818,0,0,0-1.531-1.177,3,3,0,0,0-2.382.255l-.054.031-.043-.046a4.394,4.394,0,0,0-1.09-.855,4.511,4.511,0,0,0-2.886-.508,4.382,4.382,0,0,0-2.167,1.044,4.6,4.6,0,0,0-1.012,1.281c-.178.345-.243.551-.258.546a.587.587,0,0,1,.039-.153,3.338,3.338,0,0,1,.165-.42,4.369,4.369,0,0,1,.992-1.335,4.421,4.421,0,0,1,2.217-1.1,4.614,4.614,0,0,1,2.987.514,4.51,4.51,0,0,1,1.129.889l-.1-.015a3.121,3.121,0,0,1,2.5-.251,2.94,2.94,0,0,1,2,2.514,2.052,2.052,0,0,1,0,.358.424.424,0,0,1-.018.123" transform="translate(-18.75 -7.793)" fill="#455a64"/>
              <path id="Trazado_641621" data-name="Trazado 641621" d="M5.4,31.4a10.3,10.3,0,0,0,1.832-.316,7.279,7.279,0,0,0,3.649-2.427l.162-.209.023-.029.035,0a4.11,4.11,0,0,0,2.155-.837,4.387,4.387,0,0,0,1.229-1.43,4.772,4.772,0,0,0,.5-1.659.355.355,0,0,1,.006.122,2.535,2.535,0,0,1-.022.35,3.752,3.752,0,0,1-.387,1.236A4.381,4.381,0,0,1,13.34,27.69a4.193,4.193,0,0,1-2.232.88l.058-.032L11,28.752a6.953,6.953,0,0,1-1.867,1.639,7.113,7.113,0,0,1-1.875.8,6.624,6.624,0,0,1-1.359.218c-.162.011-.289,0-.374,0A.409.409,0,0,1,5.4,31.4" transform="translate(-3.28 -14.885)" fill="#455a64"/>
              <path id="Trazado_641622" data-name="Trazado 641622" d="M8.159,45.615a2.32,2.32,0,0,0,.281.2,1.578,1.578,0,0,0,.387.154,1.7,1.7,0,0,0,.564.035,1.534,1.534,0,0,0,.662-.224,1.369,1.369,0,0,0,.3-.258,1.345,1.345,0,0,0,.222-.368,1.6,1.6,0,0,0,.071-.936,1.479,1.479,0,0,0-.558-.874l-.084-.06h.1a3.159,3.159,0,0,0,1.592-.463,4.268,4.268,0,0,0,1.316-1.3c.095-.133.169-.28.252-.422s.151-.3.207-.457a4.616,4.616,0,0,0,.28-.986,7.534,7.534,0,0,0,.045-2.139,21.18,21.18,0,0,0-.665-3.132l-.007-.028.024-.016a7.842,7.842,0,0,0,2.467-2.823,8.372,8.372,0,0,0,.61-1.494c.061-.244.138-.474.174-.7.022-.114.043-.226.064-.335s.028-.217.042-.322a7.891,7.891,0,0,0-.006-1.977c-.024-.231-.071-.4-.088-.524l-.024-.136a.229.229,0,0,1-.006-.047s.069.244.145.7a7.628,7.628,0,0,1,.03,1.987c-.013.106-.02.215-.04.324l-.062.337c-.035.232-.111.464-.17.71a8.363,8.363,0,0,1-.607,1.509A7.88,7.88,0,0,1,13.2,34.406l.016-.044a20.937,20.937,0,0,1,.67,3.145,7.584,7.584,0,0,1-.047,2.163,4.7,4.7,0,0,1-.286,1c-.058.162-.14.311-.212.464s-.161.294-.257.429a4.33,4.33,0,0,1-1.344,1.322,3.219,3.219,0,0,1-1.63.466l.02-.06a1.542,1.542,0,0,1,.579.915,1.659,1.659,0,0,1-.08.97,1.394,1.394,0,0,1-.234.38,1.412,1.412,0,0,1-.317.265,1.568,1.568,0,0,1-.683.222A1.711,1.711,0,0,1,8.821,46a1.548,1.548,0,0,1-.391-.164,1.184,1.184,0,0,1-.208-.157c-.043-.041-.063-.063-.063-.063" transform="translate(-4.959 -15.789)" fill="#455a64"/>
              <path id="Trazado_641623" data-name="Trazado 641623" d="M67.363,47.679a.3.3,0,0,1,.046-.033l.138-.089a2.32,2.32,0,0,0,.221-.151,3.514,3.514,0,0,0,.29-.225,5.275,5.275,0,0,0,1.849-3.443,4.8,4.8,0,0,0-.174-1.884,5.234,5.234,0,0,0-1-1.862,5.045,5.045,0,0,0-1.82-1.392l-.055-.025.042-.042a4.712,4.712,0,0,0,1.268-2.4,4.529,4.529,0,0,0,.093-.9,4.243,4.243,0,0,0-.08-.883,4.18,4.18,0,0,0-.248-.833,4.5,4.5,0,0,0-.392-.754,4.743,4.743,0,0,0-2.43-1.926l-.04-.013.018-.038a4.268,4.268,0,0,0,.274-2.894,4.141,4.141,0,0,0-1.156-1.95,4.3,4.3,0,0,0-1.226-.824c-.157-.069-.28-.116-.365-.144l-.1-.033a.149.149,0,0,1-.032-.013,3.1,3.1,0,0,1,.5.169,4.21,4.21,0,0,1,1.247.813,4.157,4.157,0,0,1,1.185,1.966,4.321,4.321,0,0,1-.266,2.942l-.022-.051a4.807,4.807,0,0,1,2.476,1.952,4.6,4.6,0,0,1,.4.767,4.236,4.236,0,0,1,.254.848,4.326,4.326,0,0,1,.082.9,4.606,4.606,0,0,1-.094.915,4.784,4.784,0,0,1-1.293,2.443l-.012-.067a5.121,5.121,0,0,1,1.847,1.417A5.292,5.292,0,0,1,69.8,41.834a4.842,4.842,0,0,1,.168,1.912,5.289,5.289,0,0,1-.451,1.6A5.211,5.211,0,0,1,68.076,47.2a3.455,3.455,0,0,1-.3.221,2.175,2.175,0,0,1-.226.146l-.142.083a.354.354,0,0,1-.05.026" transform="translate(-37.982 -15.152)" fill="#455a64"/>
              <path id="Trazado_641624" data-name="Trazado 641624" d="M46.765,50.091a7.631,7.631,0,0,1,1.777.487l.005.015a1.5,1.5,0,0,1-.505,1.107.881.881,0,0,1-.889.03.989.989,0,0,1-.519-.692,2.065,2.065,0,0,1,.131-.948" transform="translate(-28.333 -30.445)" fill="#ff9b6c"/>
              <path id="Trazado_641625" data-name="Trazado 641625" d="M47.529,51.659c0,.011-.048.049-.162.068a.754.754,0,0,1-.473-.095.978.978,0,0,1-.458-.554,1.522,1.522,0,0,1-.008-.87,1.149,1.149,0,0,1,.081-.233.187.187,0,0,1,.193-.088c.053.011.075.019.111.029l.384.109.647.2a1.931,1.931,0,0,1,.582.231,1.948,1.948,0,0,1-.62-.091l-.658-.154-.387-.1-.091-.023c-.006.015-.005-.039-.008-.033s.033.032.021.027a1.627,1.627,0,0,0-.067.94.873.873,0,0,0,.354.488,1.077,1.077,0,0,0,.56.15" transform="translate(-28.183 -30.318)" fill="#263238"/>
              <path id="Trazado_641626" data-name="Trazado 641626" d="M15.472,73.683a38.22,38.22,0,0,1,3.492-3.619A5.076,5.076,0,0,0,20.6,67.84l9.077,3.749,1.464,2.9,2.377,3.22,1.922,2.7a12.608,12.608,0,0,1,2.3,6.382l.895,12.2.528,23.939s-8.7-.313-10.954-1.623a21.714,21.714,0,0,0-4.013-1.53,15.574,15.574,0,0,0-9.594.2l-2.32.8s1.205-11.422,1.991-14.775c.193-.825.351-1.567.481-2.218a27.643,27.643,0,0,1,2.288-6.756L14.018,82.369a16.036,16.036,0,0,1,.117-5.046,19.544,19.544,0,0,1,1.337-3.64" transform="translate(-7.461 -41.233)" fill="#ffb338"/>
              <path id="Trazado_641627" data-name="Trazado 641627" d="M36.1,76.818l6.781,2.8,1.022-2.463.651,1.424" transform="translate(-21.943 -46.69)" fill="#d18b1c"/>
              <path id="Trazado_641628" data-name="Trazado 641628" d="M44.556,78.574a1.722,1.722,0,0,1-.208-.363l-.507-1.032.128,0-1,2.474-.036.091-.092-.038-1.435-.588c-1.477-.609-2.809-1.171-3.77-1.588l-1.134-.5a1.916,1.916,0,0,1-.4-.21,1.977,1.977,0,0,1,.435.137l1.158.442c.975.382,2.316.923,3.793,1.533l1.433.595-.129.053,1.048-2.452.064-.151.063.149.449,1.059a1.729,1.729,0,0,1,.138.395" transform="translate(-21.943 -46.687)" fill="#263238"/>
              <path id="Trazado_641629" data-name="Trazado 641629" d="M40.329,149.629a1.838,1.838,0,0,1-.436-.08c-.278-.063-.676-.17-1.164-.317a28.756,28.756,0,0,1-7.205-3.34c-.427-.278-.766-.512-.993-.684a1.846,1.846,0,0,1-.343-.281,1.86,1.86,0,0,1,.387.215l1.026.627a36.482,36.482,0,0,0,7.173,3.325l1.141.377a1.856,1.856,0,0,1,.415.156" transform="translate(-18.348 -88.087)" fill="#263238"/>
              <path id="Trazado_641630" data-name="Trazado 641630" d="M87.556,81.78S88.187,80.1,88.735,79a23.337,23.337,0,0,0,1.095-2.906s-.589-1.558-.211-2.064.624-.421.624-.421.214-.716.87-.59.445,1.673.445,1.673l.21,3.591-.655,5.766-3.767,3.318L86.882,85.7a2.3,2.3,0,0,1-.687-1.761,5.119,5.119,0,0,1,.055-1.363s-.037-.581-.031-1.719a2.941,2.941,0,0,1,.375-1.648.54.54,0,0,1,1,.335c0,.758-.042,2.232-.042,2.232" transform="translate(-52.381 -44.373)" fill="#ffc09d"/>
              <path id="Trazado_641631" data-name="Trazado 641631" d="M98.531,83.915a14.439,14.439,0,0,1-.557-1.588,14.5,14.5,0,0,1-.566-1.585,6.893,6.893,0,0,1,1.123,3.173" transform="translate(-59.201 -49.075)" fill="#ff9b6c"/>
              <path id="Trazado_641632" data-name="Trazado 641632" d="M92.561,87.466c-.008,0-.062-.1-.025-.306a1.412,1.412,0,0,1,.434-.712,2.257,2.257,0,0,0,.686-.931,7.11,7.11,0,0,0,.357-1.407,3.2,3.2,0,0,0-.264-1.4,2.349,2.349,0,0,1-.147-1.228,1.051,1.051,0,0,1,.479-.688c.18-.1.3-.085.3-.076s-.106.034-.255.143a1.024,1.024,0,0,0-.38.648,2.322,2.322,0,0,0,.184,1.14,3.231,3.231,0,0,1,.289,1.481,6.55,6.55,0,0,1-.384,1.454,1.758,1.758,0,0,1-.347.578c-.142.156-.29.276-.415.391a1.472,1.472,0,0,0-.457.628c-.056.176-.033.285-.051.287" transform="translate(-56.236 -49.055)" fill="#ff9b6c"/>
              <path id="Trazado_641633" data-name="Trazado 641633" d="M96.347,76.987a4.123,4.123,0,0,1,.018-2.432,6.144,6.144,0,0,1,.011,1.216,6.092,6.092,0,0,1-.03,1.215" transform="translate(-58.454 -45.315)" fill="#ff9b6c"/>
              <path id="Trazado_641634" data-name="Trazado 641634" d="M94.743,88.588c-.04.042-.256-.109-.561-.15s-.554.034-.581-.018.233-.241.611-.184.577.32.531.352" transform="translate(-56.889 -53.624)" fill="#ff9b6c"/>
              <path id="Trazado_641635" data-name="Trazado 641635" d="M60.368,84.788l9.493,10.206L71.119,93.3l4.049-.021s-.544,9.132-2.247,12.406a6.891,6.891,0,0,1-5.061,3.606Z" transform="translate(-36.692 -51.534)" fill="#ffb338"/>
              <path id="Trazado_641636" data-name="Trazado 641636" d="M67.943,111a1.515,1.515,0,0,1-.027-.285c-.009-.207-.021-.479-.036-.819-.018-.734-.043-1.757-.074-3.011-.027-1.271-.06-2.784-.162-4.46a32.5,32.5,0,0,0-.7-5.4,22.155,22.155,0,0,0-1.818-5.12,28.341,28.341,0,0,0-2.33-3.79c-.74-1.031-1.372-1.845-1.792-2.419-.213-.285-.37-.512-.478-.665a1.506,1.506,0,0,1-.155-.241,1.484,1.484,0,0,1,.187.216l.508.642c.44.559,1.088,1.358,1.846,2.382a27.111,27.111,0,0,1,2.381,3.79,21.837,21.837,0,0,1,1.849,5.159,31.62,31.62,0,0,1,.693,5.435c.092,1.681.111,3.2.119,4.469,0,1.255.007,2.278.009,3.012,0,.339,0,.611,0,.819a1.494,1.494,0,0,1-.014.286" transform="translate(-36.691 -51.534)" fill="#263238"/>
              <path id="Trazado_641637" data-name="Trazado 641637" d="M101.2,75.8,92.375,96.111s7.194-2.858,11.137-3.351l9.605-18.707A50,50,0,0,0,101.2,75.8" transform="translate(-56.146 -45.01)" fill="#fff"/>
              <path id="Trazado_641638" data-name="Trazado 641638" d="M100.919,75.67s.064-.027.2-.073.337-.118.6-.191c.529-.16,1.319-.364,2.346-.57a65.3,65.3,0,0,1,8.766-.994l.136-.008-.062.122-9.584,18.717-.024.047-.055.008-.337.052a38.74,38.74,0,0,0-5.633,1.453c-1.8.583-3.52,1.2-5.144,1.834l-.216.084.093-.212,6.389-14.6,1.848-4.184.5-1.108.131-.282a.509.509,0,0,1,.048-.092.643.643,0,0,1-.037.1l-.12.294-.475,1.13-1.8,4.216-6.3,14.6-.124-.127c1.629-.639,3.352-1.261,5.153-1.847a38.637,38.637,0,0,1,5.665-1.464l.341-.053-.078.055,9.626-18.7.074.114a68.868,68.868,0,0,0-8.759.924c-1.026.193-1.818.382-2.35.528-.269.067-.464.131-.6.167s-.211.053-.211.053" transform="translate(-55.866 -44.876)" fill="#263238"/>
              <path id="Trazado_641639" data-name="Trazado 641639" d="M89.088,99.229l-2.66.477-4.01.437a6.864,6.864,0,0,0-1.31,0,24.017,24.017,0,0,0-2.7,1.628l-1.151,1.31-6.821,3.695,3.628,5.279,4.741-4.329s5.042-1.151,5.32-1.27a17.454,17.454,0,0,0,1.708-1.628l.675-.516,1.364-1.33a1.167,1.167,0,0,0,.3-1.171l.391-.31a1.039,1.039,0,0,0,.284-1.278c.675-.477.238-.993.238-.993" transform="translate(-42.811 -60.312)" fill="#ffc09d"/>
              <path id="Trazado_641640" data-name="Trazado 641640" d="M88.86,99.227a.522.522,0,0,1,.14.262.589.589,0,0,1-.028.368.938.938,0,0,1-.332.388l.01-.04a1.077,1.077,0,0,1-.235,1.286c-.14.119-.285.231-.437.355l.016-.053a1.221,1.221,0,0,1,0,.713,1.409,1.409,0,0,1-.442.643l-1.226,1.208,0,0,0,0-.673.519.009-.008c-.378.4-.778.816-1.219,1.236-.111.1-.224.209-.348.309a.626.626,0,0,1-.224.128c-.082.028-.154.044-.233.066l-.939.236-4.1.965.042-.022L73.9,112.128l-.086.078-.066-.1-1.63-2.371-2-2.908-.064-.093.1-.053L76.985,103l-.025.02,1.155-1.308.007-.009.009-.006c.689-.457,1.349-.884,1.995-1.264q.242-.143.488-.269a1.24,1.24,0,0,1,.272-.1,2.177,2.177,0,0,1,.275-.027,8.747,8.747,0,0,1,1.035.035h-.014l2.8-.29,1.146-.117c.352-.051.672-.111.96-.158l1.318-.216.339-.051a.542.542,0,0,1,.113-.011.716.716,0,0,1-.119.03l-.342.071-1.309.255c-.284.052-.6.118-.945.175L85,99.891l-2.8.32h-.014a8.762,8.762,0,0,0-1.015-.026,2.072,2.072,0,0,0-.255.027,1.1,1.1,0,0,0-.231.091c-.158.082-.318.171-.477.266-.637.381-1.3.813-1.979,1.271l.016-.015L77.1,103.138l-.011.012-.014.007-6.816,3.7.035-.146,2,2.907L73.918,112l-.152-.017,4.746-4.323.018-.017.024-.005,4.1-.946.937-.229c.073-.021.155-.039.221-.061a.454.454,0,0,0,.177-.1c.117-.094.23-.2.34-.3.439-.412.842-.826,1.222-1.22l0,0,0,0,.677-.513-.006.005,1.239-1.2a1.163,1.163,0,0,0,.429-1.242l-.01-.032.027-.021.438-.345a.978.978,0,0,0,.274-.4,1.008,1.008,0,0,0-.035-.795l-.012-.024.022-.015a.9.9,0,0,0,.324-.356.569.569,0,0,0,.041-.342.941.941,0,0,0-.109-.269" transform="translate(-42.583 -60.31)" fill="#ff9b6c"/>
              <path id="Trazado_641641" data-name="Trazado 641641" d="M97.789,101.609c.008.047-.467.235-1.027.56a4.312,4.312,0,0,1-1.054.524,2.921,2.921,0,0,1,.955-.7,2.031,2.031,0,0,1,1.126-.381" transform="translate(-58.17 -61.747)" fill="#ff9b6c"/>
              <path id="Trazado_641642" data-name="Trazado 641642" d="M105.868,103.034a38.661,38.661,0,0,0,4.7-1.868" transform="translate(-64.347 -61.489)" fill="#ffc09d"/>
              <path id="Trazado_641643" data-name="Trazado 641643" d="M110.572,101.161a17.393,17.393,0,0,1-4.7,1.867c-.018-.056,1.049-.435,2.345-.951s2.334-.968,2.359-.916" transform="translate(-64.346 -61.483)" fill="#ff9b6c"/>
              <path id="Trazado_641644" data-name="Trazado 641644" d="M107.083,107.463a16.916,16.916,0,0,0,3.5-1.706" transform="translate(-65.085 -64.279)" fill="#ffc09d"/>
              <path id="Trazado_641645" data-name="Trazado 641645" d="M110.58,105.751a8.947,8.947,0,0,1-3.5,1.706c-.019-.056.792-.373,1.753-.844s1.712-.912,1.744-.862" transform="translate(-65.085 -64.273)" fill="#ff9b6c"/>
              <path id="Trazado_641646" data-name="Trazado 641646" d="M107.688,112.025a6.107,6.107,0,0,0,1.817-1.02" transform="translate(-65.453 -67.469)" fill="#ffc09d"/>
              <path id="Trazado_641647" data-name="Trazado 641647" d="M109.5,111c.036.04-.3.389-.815.677a1.958,1.958,0,0,1-1,.343A43.868,43.868,0,0,1,109.5,111" transform="translate(-65.452 -67.461)" fill="#ff9b6c"/>
              <path id="Trazado_641648" data-name="Trazado 641648" d="M103.034,103.553a1.174,1.174,0,0,1,.861,1.435" transform="translate(-62.624 -62.94)" fill="#ffc09d"/>
              <path id="Trazado_641649" data-name="Trazado 641649" d="M103.894,104.958a2.574,2.574,0,0,0-.218-.845c-.246-.413-.662-.535-.644-.589,0-.026.118-.034.287.031A1.1,1.1,0,0,1,104,104.69c-.022.179-.083.276-.108.268" transform="translate(-62.623 -62.91)" fill="#ff9b6c"/>
              <path id="Trazado_641650" data-name="Trazado 641650" d="M105.1,108.365a1.174,1.174,0,0,1,.212.99" transform="translate(-63.879 -65.864)" fill="#ffc09d"/>
              <path id="Trazado_641651" data-name="Trazado 641651" d="M105.3,109.346c-.056-.016-.036-.24-.094-.5s-.163-.455-.118-.492.251.134.318.449-.055.561-.106.54" transform="translate(-63.863 -65.856)" fill="#ff9b6c"/>
              <path id="Trazado_641652" data-name="Trazado 641652" d="M105.879,112.254a.829.829,0,0,1,.11.633" transform="translate(-64.354 -68.228)" fill="#ffc09d"/>
              <path id="Trazado_641653" data-name="Trazado 641653" d="M105.956,112.876c-.055-.016-.063-.155-.092-.31s-.064-.289-.018-.323.184.081.219.288-.057.363-.109.345" transform="translate(-64.32 -68.218)" fill="#ff9b6c"/>
              <g id="Grupo_927500" data-name="Grupo 927500" transform="translate(7.564 41.331)" opacity="0.3">
                <g id="Grupo_927499" data-name="Grupo 927499" transform="translate(0)">
                  <g id="Grupo_927498" data-name="Grupo 927498" clip-path="url(#clip-path-22)">
                    <path id="Trazado_641654" data-name="Trazado 641654" d="M19.287,105.382s4.659,12.921,6.191,15.262,2.292,3,4.631,2.6,12.866-3.9,12.866-3.9l-.176-2.267-9.739,2.267L27.574,118.2l-5.008-7.793Z" transform="translate(-19.287 -105.382)"/>
                  </g>
                </g>
              </g>
              <path id="Trazado_641655" data-name="Trazado 641655" d="M37.887,93.836l-.517-.853-2.511.6-3.8.857s-2.2-12.981-5.388-15.063-5.511-1.715-7.47,1.959-.9,5.815-.9,5.815,5.068,14.307,8.375,17.228,14.206-2.591,14.206-2.591l2.209-1.853Z" transform="translate(-10.342 -47.477)" fill="#ffb338"/>
              <path id="Trazado_641656" data-name="Trazado 641656" d="M37.733,93.688a.748.748,0,0,1,.078.1l.216.3.831,1.179,3.125,4.491.03.043-.04.034-2.2,1.86-.006.005-.007,0a45.344,45.344,0,0,1-5.84,2.4,24.945,24.945,0,0,1-3.512.892,12.88,12.88,0,0,1-1.913.181,5.859,5.859,0,0,1-1.974-.277,3.073,3.073,0,0,1-.473-.2l-.229-.124c-.072-.049-.14-.1-.211-.156a2.281,2.281,0,0,1-.379-.355l-.359-.378c-.222-.266-.419-.554-.631-.833s-.381-.589-.575-.885a40.767,40.767,0,0,1-2.046-3.826c-1.279-2.664-2.448-5.508-3.581-8.452-.341-.892-.673-1.779-.982-2.643l0,.011a5.076,5.076,0,0,1-.247-2.456,9.124,9.124,0,0,1,.629-2.328,11.749,11.749,0,0,1,1.1-2.086A6.081,6.081,0,0,1,20.126,78.5a3.492,3.492,0,0,1,2.169-.62,5.692,5.692,0,0,1,2.114.611c.319.169.637.336.934.529a3.546,3.546,0,0,1,.832.671,8.407,8.407,0,0,1,1.131,1.725,25.408,25.408,0,0,1,1.436,3.6c.381,1.18.7,2.321.974,3.413.551,2.182.951,4.155,1.249,5.861l-.07-.047,3.877-.859,2.438-.566.016,0,.008.013.379.646c.083.144.119.218.119.218s-.049-.066-.138-.206l-.4-.635.024.01-2.429.6-3.87.893-.059.014-.011-.06c-.309-1.7-.72-3.668-1.28-5.843-.28-1.088-.6-2.225-.985-3.4a25.424,25.424,0,0,0-1.437-3.571,8.257,8.257,0,0,0-1.108-1.683,3.354,3.354,0,0,0-.795-.637c-.294-.191-.605-.353-.919-.518a5.506,5.506,0,0,0-2.042-.588,3.3,3.3,0,0,0-2.05.591,5.887,5.887,0,0,0-1.53,1.635,11.516,11.516,0,0,0-1.084,2.051,8.907,8.907,0,0,0-.613,2.276,4.913,4.913,0,0,0,.228,2.342l0,.011c.308.861.64,1.748.981,2.639,1.131,2.94,2.3,5.781,3.57,8.439a40.761,40.761,0,0,0,2.03,3.81c.192.293.363.6.568.878s.4.56.619.82l.347.367a2.159,2.159,0,0,0,.361.341c.066.049.129.1.2.146l.215.117a2.886,2.886,0,0,0,.447.195,5.679,5.679,0,0,0,1.912.271,12.638,12.638,0,0,0,1.885-.173,24.929,24.929,0,0,0,3.49-.874,45.871,45.871,0,0,0,5.83-2.363l-.013.009L41.9,99.746l-.011.077L38.806,95.3,38,94.1l-.2-.309a.694.694,0,0,1-.064-.107" transform="translate(-10.188 -47.329)" fill="#263238"/>
              <path id="Trazado_641657" data-name="Trazado 641657" d="M48.154,126.307A3.63,3.63,0,0,1,48.1,125.3a10.77,10.77,0,0,1,1.224-4.676,3.628,3.628,0,0,1,.543-.848,7.58,7.58,0,0,1-.413.912,13.565,13.565,0,0,0-1.209,4.62,7.671,7.671,0,0,1-.086,1" transform="translate(-29.232 -72.801)" fill="#263238"/>
              <path id="Trazado_641658" data-name="Trazado 641658" d="M67.841,125.857c-.011.009-.109-.082-.279-.255s-.408-.431-.693-.758a22.562,22.562,0,0,1-2.037-2.713,14.23,14.23,0,0,1-1.481-3.056,8.3,8.3,0,0,1-.274-.993,1.351,1.351,0,0,1-.055-.375c.035-.008.16.514.464,1.319a16.9,16.9,0,0,0,1.517,3,30.424,30.424,0,0,0,1.975,2.729,12.1,12.1,0,0,1,.861,1.106" transform="translate(-38.303 -71.542)" fill="#263238"/>
            </g>
          </g>
        </g>
      </g>
    </g>
  </g>
</svg>
