<svg xmlns="http://www.w3.org/2000/svg" width="85" height="88" viewBox="0 0 85 88">
  <g id="Grupo_926554" data-name="Grupo 926554" transform="translate(-180 -2783)">
    <rect id="Rectángulo_334759" data-name="Rectángulo 334759" width="85" height="88" rx="11" transform="translate(180 2783)" fill="#ffd667"/>
    <g id="escritor" transform="translate(188.647 2782.455)">
      <rect id="Rectángulo_335356" data-name="Rectángulo 335356" width="26.847" height="18.045" transform="translate(1.388 48.319)" fill="#1990e0"/>
      <rect id="Rectángulo_335357" data-name="Rectángulo 335357" width="26.847" height="14.632" transform="translate(1.388 48.319)" fill="#ffefc6"/>
      <path id="Trazado_642723" data-name="Trazado 642723" d="M126.156,306.824v2.691a2.227,2.227,0,0,1-1.371,2.056l-8.891,3.7a5.456,5.456,0,0,0-3.1,4.945v10.723h37.864V320.221a5.456,5.456,0,0,0-3.1-4.945l-8.891-3.7a2.227,2.227,0,0,1-1.371-2.056v-2.691Z" transform="translate(-97.877 -255.557)" fill="#0f8ee3"/>
      <g id="Grupo_927715" data-name="Grupo 927715" transform="translate(18.319 18.971)">
        <path id="Trazado_642724" data-name="Trazado 642724" d="M224.986,312.661v6.882a5.576,5.576,0,0,1-5.562,5.549h0a5.588,5.588,0,0,1-5.575-5.549v-6.882Z" transform="translate(-203.89 -279.593)" fill="#febba0"/>
        <path id="Trazado_642725" data-name="Trazado 642725" d="M166.493,79.028V75a12.409,12.409,0,1,0-24.819,0h-.049v4.025a3.095,3.095,0,1,0,0,6.189v2.31a6.07,6.07,0,0,0,2.538,4.633l7.481,4.277a4.292,4.292,0,0,0,4.831,0l7.458-4.277a6.091,6.091,0,0,0,2.56-4.633v-2.31a3.095,3.095,0,1,0,0-6.189Z" transform="translate(-138.531 -62.593)" fill="#febba0"/>
      </g>
      <path id="Trazado_642726" data-name="Trazado 642726" d="M373.3,397.256h-1.113v-3.964h-8.721v3.964H362.35a2.215,2.215,0,0,0-2.215,2.215v4.291a2.215,2.215,0,0,0,2.215,2.215H373.3a2.215,2.215,0,0,0,2.215-2.215v-4.291A2.215,2.215,0,0,0,373.3,397.256Z" transform="translate(-312.512 -330.591)" fill="#5d9eba"/>
      <path id="Trazado_642727" data-name="Trazado 642727" d="M432.919,194.359a15.528,15.528,0,0,1-8.554,19.392A15.528,15.528,0,0,1,432.919,194.359Z" transform="translate(-367.482 -157.964)" fill="#ff5957"/>
      <path id="Trazado_642728" data-name="Trazado 642728" d="M130.211,33.8s-5.618,5.75-10.086,6.484-7.286-.967-8.577-3.021c4.636.293,7.708-2.551,8.481-5.134-2.279-1.115-6.045.674-6.045.674s.352-6.339,10.711-6.339c-1.172-1.761-4.7-1.878-4.7-1.878s7.864-5.575,13.733,2.817c.939-3.873,6.827-4,9.517-1.943-4.059.065-3.233,4.643-3.233,4.643s6.569-2.348,9.739,3.815c-3.2-1.174-5.844-.22-6.955,1.416.527,3.01,1.145,4.272,5.311,5.632-5.752,1.783-11.034-1.225-11.327-5.632a9.01,9.01,0,0,1-8.484,5.92C130.815,38.5,130.211,33.8,130.211,33.8Z" transform="translate(-96.797 -9.067)" fill="#703e41"/>
      <path id="Trazado_642729" data-name="Trazado 642729" d="M36.851,303.631H32.382a1.381,1.381,0,0,0,0,2.763h4.469a1.381,1.381,0,0,0,0-2.763Z" transform="translate(-26.902 -252.787)"/>
      <path id="Trazado_642730" data-name="Trazado 642730" d="M36.851,329.489H32.382a1.381,1.381,0,0,0,0,2.763h4.469a1.381,1.381,0,0,0,0-2.763Z" transform="translate(-26.902 -275.225)"/>
      <path id="Trazado_642731" data-name="Trazado 642731" d="M36.851,355.347H32.382a1.381,1.381,0,0,0,0,2.763h4.469a1.381,1.381,0,0,0,0-2.763Z" transform="translate(-26.902 -297.664)"/>
      <path id="Trazado_642732" data-name="Trazado 642732" d="M137.279,306.395h-1.508a1.381,1.381,0,1,1,0-2.763h1.508a1.381,1.381,0,1,1,0,2.763Z" transform="translate(-116.619 -252.787)"/>
      <path id="Trazado_642733" data-name="Trazado 642733" d="M135.875,332.253h-.1a1.381,1.381,0,1,1,0-2.763h.1a1.381,1.381,0,0,1,0,2.763Z" transform="translate(-116.619 -275.226)"/>
      <path id="Trazado_642734" data-name="Trazado 642734" d="M1.4,481.545H1.381a1.381,1.381,0,1,1,0-2.763H1.4a1.381,1.381,0,1,1,0,2.763Z" transform="translate(0 -404.776)"/>
      <path id="Trazado_642735" data-name="Trazado 642735" d="M492.287,481.537h-.018a1.381,1.381,0,1,1,0-2.763h.018a1.381,1.381,0,1,1,0,2.763Z" transform="translate(-425.974 -404.769)"/>
      <path id="Trazado_642736" data-name="Trazado 642736" d="M238.078,253.166a2.735,2.735,0,0,1-2.731-2.731,1.382,1.382,0,0,1,1.382-1.381h2.7a1.382,1.382,0,0,1,1.381,1.381A2.735,2.735,0,0,1,238.078,253.166Z" transform="translate(-204.226 -205.426)"/>
      <path id="Trazado_642737" data-name="Trazado 642737" d="M274.816,436.613H274.8a1.381,1.381,0,1,1,0-2.763h.018a1.381,1.381,0,0,1,0,2.763Z" transform="translate(-237.261 -365.786)"/>
      <path id="Trazado_642738" data-name="Trazado 642738" d="M206.182,201.374a1.544,1.544,0,1,0,1.544-1.544A1.546,1.546,0,0,0,206.182,201.374Z" transform="translate(-178.917 -162.712)"/>
      <path id="Trazado_642739" data-name="Trazado 642739" d="M282.383,201.374a1.544,1.544,0,1,0,1.544-1.544A1.546,1.546,0,0,0,282.383,201.374Z" transform="translate(-245.042 -162.712)"/>
      <path id="Trazado_642740" data-name="Trazado 642740" d="M66.291,48.335a16.662,16.662,0,0,0,.49-12.407,1.382,1.382,0,0,0-1.832-.808A16.915,16.915,0,0,0,55.473,55.8a40.41,40.41,0,0,0-1.068,5.516H53.338a6.379,6.379,0,0,0-3.084-2.876l-8.891-3.7a.844.844,0,0,1-.52-.781V51.807l3.611-2.071c.025-.014.05-.03.074-.046A7.46,7.46,0,0,0,47.7,44.01c0-.035,0-1.252,0-1.252a4.477,4.477,0,0,0,0-8.516v-.45c.1,0,.2.005.3.005a12.738,12.738,0,0,0,3.764-.578,1.382,1.382,0,0,0,.02-2.633c-3.324-1.085-3.853-1.842-4.264-3.932.915-.87,2.724-1.342,5-.506a1.382,1.382,0,0,0,1.7-1.929,8.644,8.644,0,0,0-7.162-4.962,10.9,10.9,0,0,0-2.424.063,2.192,2.192,0,0,1,.413-.995,1.708,1.708,0,0,1,1.462-.55,1.381,1.381,0,0,0,.818-2.478A9.1,9.1,0,0,0,39.3,14.15a5.924,5.924,0,0,0-2.554,1.692A10.491,10.491,0,0,0,30.8,12.468a12.134,12.134,0,0,0-8.352,1.924,1.382,1.382,0,0,0,.087,2.31,10.02,10.02,0,0,0-4.874,2.956,7.1,7.1,0,0,0-1.809,4,1.381,1.381,0,0,0,1.972,1.324,10.246,10.246,0,0,1,3.412-.9,7.21,7.21,0,0,1-6.352,2.733,1.382,1.382,0,0,0-1.257,2.114A8.432,8.432,0,0,0,20.076,32.7v1.543a4.477,4.477,0,0,0,0,8.516s0,1.217,0,1.252a7.452,7.452,0,0,0,3.154,5.681c.025.016.05.032.076.047l3.632,2.076v2.145a.844.844,0,0,1-.52.781l-8.891,3.7a5.763,5.763,0,0,0-1.189.675V49.7h2.022a1.381,1.381,0,1,0,0-2.763H1.433A1.382,1.382,0,0,0,.052,48.319V66.364a1.382,1.382,0,0,0,1.381,1.381H13.579V74H5.914a1.381,1.381,0,1,0,0,2.763H60.832a3.6,3.6,0,0,0,3.6-3.6V68.88A3.6,3.6,0,0,0,61.1,65.293V62.7a1.382,1.382,0,0,0-1.381-1.381H57.191a37.313,37.313,0,0,1,.889-4.533A16.687,16.687,0,0,0,66.291,48.335ZM18.017,29.3A9,9,0,0,0,24.6,23.459a1.381,1.381,0,0,0-.716-1.637,6.726,6.726,0,0,0-4.15-.332c1.155-1.322,3.492-2.711,8.209-2.711a1.381,1.381,0,0,0,1.15-2.147,4.5,4.5,0,0,0-1.556-1.392c.209-.04.424-.075.644-.1,2.993-.349,5.574.993,7.668,3.988a1.382,1.382,0,0,0,2.475-.466,2.69,2.69,0,0,1,1.9-1.906,6.243,6.243,0,0,1,2.763-.256l-.059.07A6.272,6.272,0,0,0,41.9,21.282a1.381,1.381,0,0,0,1.824,1.056,8.222,8.222,0,0,1,3.092-.328,5.893,5.893,0,0,1,2.8.953A6.181,6.181,0,0,0,44.9,25.491a1.382,1.382,0,0,0-.218,1.015,7.546,7.546,0,0,0,1.923,4.425A7.3,7.3,0,0,1,43.6,29.77a4.753,4.753,0,0,1-2.193-3.594A1.381,1.381,0,0,0,40.2,24.9a1.38,1.38,0,0,0-1.485.94A7.658,7.658,0,0,1,34.2,30.346a13.762,13.762,0,0,0,.631-5.788,1.382,1.382,0,0,0-2.358-.79c-1.477,1.51-6.032,5.546-9.323,6.087A8.161,8.161,0,0,1,18.017,29.3Zm21.46,3.8a5.74,5.74,0,0,0-5.587,4.458,5.726,5.726,0,0,0-9.949-2.439l-1.1-.557V32.685c.25-.028.5-.062.757-.1,2.94-.483,6.2-2.809,8.379-4.626a6.512,6.512,0,0,1-1.448,3.3,1.381,1.381,0,0,0,1.021,2.312,10.507,10.507,0,0,0,8.16-3.927,8.119,8.119,0,0,0,2.331,2.4,9.743,9.743,0,0,0,2.906,1.339v1.177l-1.094.563A5.719,5.719,0,0,0,39.477,33.094Zm2.968,5.731a2.968,2.968,0,1,1-2.968-2.968A2.972,2.972,0,0,1,42.446,38.825Zm-11.174,0A2.968,2.968,0,1,1,28.3,35.857,2.972,2.972,0,0,1,31.271,38.825Zm-6.548,8.537a4.682,4.682,0,0,1-1.884-3.513V41.594a1.382,1.382,0,0,0-1.381-1.381,1.712,1.712,0,0,1-.28-3.4l1.53.774A5.73,5.73,0,0,0,33.89,40.1a5.731,5.731,0,0,0,11.186-2.5l1.534-.79a1.712,1.712,0,0,1-.285,3.4,1.382,1.382,0,0,0-1.381,1.381v2.254a4.756,4.756,0,0,1-1.906,3.514s-7.467,4.283-7.492,4.3a2.923,2.923,0,0,1-3.308,0C32.214,51.645,24.724,47.362,24.724,47.362Zm13.355,6.029V58.92a4.187,4.187,0,0,1-8.373,0V53.393l1.05.6a5.681,5.681,0,0,0,6.275,0ZM2.815,64.332h8.519a1.381,1.381,0,0,0,0-2.763H2.815V49.7H13.579V64.983H2.815Zm39.254,6.495h4.217v2.344a3.594,3.594,0,0,0,.1.833H16.342V64.663a4.1,4.1,0,0,1,2.252-3.67l8.349-3.479V58.92a6.95,6.95,0,0,0,13.9,0V57.515l8.349,3.479a3.161,3.161,0,0,1,.947.627,1.378,1.378,0,0,0-.522,1.081v2.592a3.6,3.6,0,0,0-3.235,2.771H42.069a1.382,1.382,0,0,0,0,2.763Zm16.267-6.745v2.582a1.382,1.382,0,0,0,1.381,1.381h1.113a.834.834,0,0,1,.833.833v4.291a.834.834,0,0,1-.833.833H49.883a.834.834,0,0,1-.833-.833V68.88a.834.834,0,0,1,.833-.833h4.462a1.381,1.381,0,0,0,0-2.763H52.378v-1.2h5.958Zm6.284-25.736a14.248,14.248,0,0,1-5.293,14.484,39.923,39.923,0,0,1,4.435-8.724,1.382,1.382,0,0,0-2.229-1.633,39.734,39.734,0,0,0-4.086,7.551A14.246,14.246,0,0,1,64.621,38.346Z" transform="translate(-0.045 0)"/>
      <path id="Trazado_642741" data-name="Trazado 642741" d="M164.378,411.548h-.018a1.381,1.381,0,1,1,0-2.763h.018a1.381,1.381,0,1,1,0,2.763Z" transform="translate(-141.426 -344.035)"/>
      <path id="Trazado_642742" data-name="Trazado 642742" d="M182.364,446.016h-.018a1.381,1.381,0,1,1,0-2.763h.018a1.381,1.381,0,1,1,0,2.763Z" transform="translate(-157.034 -373.946)"/>
    </g>
  </g>
</svg>
