<svg id="Grupo_927643" data-name="Grupo 927643" xmlns="http://www.w3.org/2000/svg" xmlns:xlink="http://www.w3.org/1999/xlink" width="399" height="450" viewBox="0 0 399 450">
  <defs>
    <clipPath id="clip-path">
      <rect id="Rectángulo_335000" data-name="Rectángulo 335000" width="399" height="450" fill="none"/>
    </clipPath>
    <filter id="Trazado_641039" x="-3.551" y="352.003" width="410.103" height="95.154" filterUnits="userSpaceOnUse">
      <feOffset dy="3" input="SourceAlpha"/>
      <feGaussianBlur stdDeviation="3" result="blur"/>
      <feFlood flood-opacity="0.161"/>
      <feComposite operator="in" in2="blur"/>
      <feComposite in="SourceGraphic"/>
    </filter>
    <clipPath id="clip-path-3">
      <rect id="Rectángulo_334992" data-name="Rectángulo 334992" width="391.506" height="450" fill="none"/>
    </clipPath>
    <clipPath id="clip-path-4">
      <rect id="Rectángulo_334991" data-name="Rectángulo 334991" width="23.73" height="93.468" fill="#ffb338"/>
    </clipPath>
    <clipPath id="clip-path-7">
      <rect id="Rectángulo_334998" data-name="Rectángulo 334998" width="391.506" height="450" fill="#ffb338"/>
    </clipPath>
    <clipPath id="clip-path-8">
      <rect id="Rectángulo_334995" data-name="Rectángulo 334995" width="13.798" height="54.743" fill="none"/>
    </clipPath>
    <clipPath id="clip-path-9">
      <rect id="Rectángulo_334996" data-name="Rectángulo 334996" width="41.413" height="24.475" fill="none"/>
    </clipPath>
    <clipPath id="clip-path-10">
      <rect id="Rectángulo_334997" data-name="Rectángulo 334997" width="17.259" height="82.103" fill="none"/>
    </clipPath>
  </defs>
  <g id="Enmascarar_grupo_927304" data-name="Enmascarar grupo 927304" clip-path="url(#clip-path)">
    <g id="Grupo_927281" data-name="Grupo 927281">
      <g id="Enmascarar_grupo_927280" data-name="Enmascarar grupo 927280" clip-path="url(#clip-path)">
        <path id="Trazado_641013" data-name="Trazado 641013" d="M144.954,92.551A69.318,69.318,0,1,1,75.636,23.233a69.317,69.317,0,0,1,69.318,69.318" transform="translate(0.405 1.488)" fill="#f5f5f5"/>
        <path id="Trazado_641014" data-name="Trazado 641014" d="M120.707,89.761A46.448,46.448,0,1,1,74.26,43.314a46.448,46.448,0,0,1,46.447,46.447" transform="translate(1.781 2.774)" fill="#e0e0e0"/>
        <path id="Trazado_641015" data-name="Trazado 641015" d="M117.063,84.668a6.33,6.33,0,0,1,1.236-.489,14.121,14.121,0,0,1,3.779-.548,15.734,15.734,0,0,1,5.937,1.157,14.254,14.254,0,0,1,9.035,14.194,14.88,14.88,0,0,1-4.421,10.169,15.416,15.416,0,0,1-11.521,4.106,14.613,14.613,0,0,1-6.357-1.824,7.7,7.7,0,0,1-2.654-2.258,4.027,4.027,0,0,1-.567-3.6,3.338,3.338,0,0,1,3-2.093,9.827,9.827,0,0,1,3.433.393A14.6,14.6,0,0,1,123.785,107a14.346,14.346,0,0,1,1.121,21.28,14.228,14.228,0,0,1-8.591,4.468,14.656,14.656,0,0,1-7.9-1.32,15.568,15.568,0,0,1-4.873-3.585,14.031,14.031,0,0,1-2.132-3.169,6.352,6.352,0,0,1-.462-1.247,18.081,18.081,0,0,0,2.86,4.169,15.609,15.609,0,0,0,4.822,3.358,14.256,14.256,0,0,0,7.6,1.142,13.6,13.6,0,0,0,8.112-4.343,14.266,14.266,0,0,0,3.9-9.737,14.1,14.1,0,0,0-5.051-10.324,13.715,13.715,0,0,0-5.467-2.924,9,9,0,0,0-3.1-.364,2.4,2.4,0,0,0-2.215,1.484,3.1,3.1,0,0,0,.459,2.765,6.831,6.831,0,0,0,2.344,1.978,13.742,13.742,0,0,0,5.953,1.718,14.587,14.587,0,0,0,10.876-3.817,14.628,14.628,0,0,0,1.782-18.466,14.3,14.3,0,0,0-6.007-4.8,15.8,15.8,0,0,0-5.738-1.274,18.6,18.6,0,0,0-5.013.676" transform="translate(6.465 5.356)" fill="#e0e0e0"/>
        <path id="Trazado_641016" data-name="Trazado 641016" d="M94.668,51.274a6.248,6.248,0,0,1,.3-1.294,14.1,14.1,0,0,1,1.706-3.417,15.722,15.722,0,0,1,4.337-4.217,14.257,14.257,0,0,1,16.812.677,14.878,14.878,0,0,1,5.831,9.433,15.416,15.416,0,0,1-3.2,11.8,14.621,14.621,0,0,1-5.123,4.181,7.678,7.678,0,0,1-3.369.89,4.018,4.018,0,0,1-3.284-1.589,3.338,3.338,0,0,1-.011-3.655,9.852,9.852,0,0,1,2.28-2.6,14.609,14.609,0,0,1,5.893-3A14.344,14.344,0,0,1,134.96,69.71a14.222,14.222,0,0,1-1.231,9.6,14.668,14.668,0,0,1-5.589,5.734,15.61,15.61,0,0,1-5.724,1.957,14.035,14.035,0,0,1-3.819-.057,6.44,6.44,0,0,1-1.287-.331,18.094,18.094,0,0,0,5.055.03,15.623,15.623,0,0,0,5.51-2.047,14.238,14.238,0,0,0,5.271-5.587,13.6,13.6,0,0,0,1.061-9.14,14.269,14.269,0,0,0-5.775-8.756,14.106,14.106,0,0,0-11.361-1.742,13.726,13.726,0,0,0-5.521,2.823,9.015,9.015,0,0,0-2.066,2.339,2.4,2.4,0,0,0-.045,2.666,3.1,3.1,0,0,0,2.532,1.2,6.828,6.828,0,0,0,2.962-.8A13.75,13.75,0,0,0,119.74,63.7a14.594,14.594,0,0,0,3.07-11.109,14.627,14.627,0,0,0-14.152-12,14.319,14.319,0,0,0-7.366,2.2,15.793,15.793,0,0,0-4.32,3.988,18.6,18.6,0,0,0-2.3,4.5" transform="translate(6.062 2.557)" fill="#e0e0e0"/>
        <path id="Trazado_641017" data-name="Trazado 641017" d="M55.311,46.623a6.005,6.005,0,0,1-.874-.944,13.641,13.641,0,0,1-1.82-3.214,14.41,14.41,0,0,1-.977-5.769,13.139,13.139,0,0,1,2.525-7.322,14.274,14.274,0,0,1,7.874-5.085,15.172,15.172,0,0,1,18.493,9.9,13.267,13.267,0,0,1,.579,6.379,6.979,6.979,0,0,1-1.195,3.166,3.94,3.94,0,0,1-3.144,1.625,3.394,3.394,0,0,1-2.968-1.946,9,9,0,0,1-.873-3.239,13.155,13.155,0,0,1,.929-6.34,13.862,13.862,0,0,1,8.61-8.082,15.7,15.7,0,0,1,10.733.694,14.691,14.691,0,0,1,7.083,6.145,13.441,13.441,0,0,1,1.679,7.559,13.9,13.9,0,0,1-1.646,5.616,12.652,12.652,0,0,1-2.249,2.93,5.9,5.9,0,0,1-1.012.795,16.311,16.311,0,0,0,2.941-3.9,13.875,13.875,0,0,0,1.447-5.477,13.013,13.013,0,0,0-1.73-7.2A14.083,14.083,0,0,0,92.9,27.153a14.96,14.96,0,0,0-10.172-.587,13.019,13.019,0,0,0-8.025,7.606,12.256,12.256,0,0,0-.854,5.9,8.167,8.167,0,0,0,.77,2.9,2.453,2.453,0,0,0,2.156,1.457,3.016,3.016,0,0,0,2.4-1.252A6.106,6.106,0,0,0,80.2,40.415a12.409,12.409,0,0,0-.53-5.941,14.636,14.636,0,0,0-7.3-8.447,14.813,14.813,0,0,0-10.137-.991,13.647,13.647,0,0,0-7.54,4.735,12.68,12.68,0,0,0-2.529,6.949,14.411,14.411,0,0,0,.8,5.616,18.5,18.5,0,0,0,2.354,4.286" transform="translate(3.306 1.522)" fill="#e0e0e0"/>
        <path id="Trazado_641018" data-name="Trazado 641018" d="M124.012,93.732c0,.138-.511.189-.868.766a1.05,1.05,0,1,0,1.809.226c-.2-.647-.687-.822-.652-.955-.03-.117.725-.19,1.248.678a1.848,1.848,0,0,1,.092,1.7,1.917,1.917,0,0,1-3.512-.439,1.85,1.85,0,0,1,.508-1.622c.721-.712,1.434-.455,1.377-.349" transform="translate(7.819 5.994)" fill="#e0e0e0"/>
        <path id="Trazado_641019" data-name="Trazado 641019" d="M121.321,72.476c0,.138-.511.189-.868.766a1.05,1.05,0,1,0,1.809.226c-.2-.647-.687-.823-.652-.956-.03-.117.725-.19,1.248.677a1.85,1.85,0,0,1,.092,1.7,1.917,1.917,0,0,1-3.512-.439,1.853,1.853,0,0,1,.508-1.622c.721-.712,1.434-.455,1.377-.349" transform="translate(7.647 4.633)" fill="#e0e0e0"/>
        <path id="Trazado_641020" data-name="Trazado 641020" d="M108.792,48.776c0,.138-.511.189-.868.766a1.05,1.05,0,1,0,1.809.226c-.2-.647-.687-.823-.652-.956-.03-.117.725-.19,1.248.678a1.848,1.848,0,0,1,.092,1.7,1.917,1.917,0,0,1-3.512-.439,1.853,1.853,0,0,1,.508-1.622c.721-.712,1.434-.455,1.377-.349" transform="translate(6.844 3.115)" fill="#e0e0e0"/>
        <path id="Trazado_641021" data-name="Trazado 641021" d="M89.288,37.959c0,.138-.511.189-.868.766a1.05,1.05,0,1,0,1.809.226c-.2-.647-.687-.823-.652-.956-.03-.117.725-.19,1.248.678a1.85,1.85,0,0,1,.093,1.7A1.917,1.917,0,0,1,87.4,39.93a1.846,1.846,0,0,1,.507-1.622c.721-.712,1.434-.455,1.377-.349" transform="translate(5.595 2.422)" fill="#e0e0e0"/>
        <path id="Trazado_641022" data-name="Trazado 641022" d="M63.859,35.684c0,.138-.511.189-.868.766a1.05,1.05,0,1,0,1.809.226c-.2-.647-.687-.823-.652-.956-.03-.117.725-.19,1.248.678a1.85,1.85,0,0,1,.093,1.7,1.917,1.917,0,0,1-3.512-.439,1.85,1.85,0,0,1,.506-1.622c.721-.712,1.434-.455,1.377-.349" transform="translate(3.967 2.277)" fill="#e0e0e0"/>
        <path id="Trazado_641023" data-name="Trazado 641023" d="M114.183,116.557c0,.137-.511.189-.868.766a1.05,1.05,0,1,0,1.809.226c-.2-.647-.687-.823-.652-.956-.03-.117.725-.19,1.248.677a1.85,1.85,0,0,1,.092,1.7,1.918,1.918,0,0,1-3.512-.439,1.849,1.849,0,0,1,.508-1.622c.721-.712,1.434-.455,1.377-.349" transform="translate(7.19 7.456)" fill="#e0e0e0"/>
        <path id="Trazado_641024" data-name="Trazado 641024" d="M28.244,79.221a6.309,6.309,0,0,1-1.328.066,14.037,14.037,0,0,1-3.755-.694,15.723,15.723,0,0,1-5.252-3,14.256,14.256,0,0,1-4-16.344,14.88,14.88,0,0,1,7.453-8.212,15.42,15.42,0,0,1,12.229-.19,14.631,14.631,0,0,1,5.435,3.768,7.711,7.711,0,0,1,1.788,2.991,4.023,4.023,0,0,1-.619,3.6,3.34,3.34,0,0,1-3.51,1.021,9.855,9.855,0,0,1-3.124-1.475,14.591,14.591,0,0,1-4.512-4.833,14.932,14.932,0,0,1-1.5-12.127A15.015,15.015,0,0,1,34.815,35.4a14.225,14.225,0,0,1,9.571-1.474,14.659,14.659,0,0,1,7.056,3.786,15.569,15.569,0,0,1,3.463,4.959,13.97,13.97,0,0,1,1,3.685,6.547,6.547,0,0,1,.038,1.33,18.131,18.131,0,0,0-1.372-4.866,15.571,15.571,0,0,0-3.489-4.729,14.246,14.246,0,0,0-6.829-3.521,13.607,13.607,0,0,0-9.077,1.509,14.269,14.269,0,0,0-6.816,7.971,14.1,14.1,0,0,0,1.468,11.4,13.729,13.729,0,0,0,4.239,4.525,9.021,9.021,0,0,0,2.82,1.34,2.4,2.4,0,0,0,2.574-.695,3.1,3.1,0,0,0,.454-2.767,6.833,6.833,0,0,0-1.585-2.625,13.754,13.754,0,0,0-5.086-3.539,14.593,14.593,0,0,0-11.525.122,14.626,14.626,0,0,0-7.616,16.918A14.3,14.3,0,0,0,18.254,75.2a15.783,15.783,0,0,0,5.027,3.048,18.638,18.638,0,0,0,4.964.969" transform="translate(0.823 2.154)" fill="#e0e0e0"/>
        <path id="Trazado_641025" data-name="Trazado 641025" d="M38.638,118.16a6.268,6.268,0,0,1-.7,1.129,14.054,14.054,0,0,1-2.711,2.688,15.708,15.708,0,0,1-5.462,2.6,14.718,14.718,0,0,1-8.006-.163,15.312,15.312,0,0,1-10.193-16.68,15.414,15.414,0,0,1,6.82-10.152,14.606,14.606,0,0,1,6.194-2.314,7.7,7.7,0,0,1,3.477.237,4.021,4.021,0,0,1,2.6,2.56,3.34,3.34,0,0,1-1.163,3.465,9.842,9.842,0,0,1-2.993,1.726,14.61,14.61,0,0,1-6.544.949A14.937,14.937,0,0,1,9.137,98.519,15.015,15.015,0,0,1,6.4,87.766a14.228,14.228,0,0,1,4.249-8.7,14.662,14.662,0,0,1,7.134-3.636,15.577,15.577,0,0,1,6.049-.016,13.988,13.988,0,0,1,3.6,1.279,6.431,6.431,0,0,1,1.114.728,18.063,18.063,0,0,0-4.779-1.65,15.593,15.593,0,0,0-5.875.169,14.245,14.245,0,0,0-6.786,3.6,13.6,13.6,0,0,0-3.939,8.315A14.273,14.273,0,0,0,9.82,98a14.106,14.106,0,0,0,10.2,5.3,13.741,13.741,0,0,0,6.135-.9,8.985,8.985,0,0,0,2.707-1.551,2.4,2.4,0,0,0,.9-2.511,3.1,3.1,0,0,0-2.013-1.95,6.819,6.819,0,0,0-3.061-.2,13.752,13.752,0,0,0-5.808,2.159,14.588,14.588,0,0,0-6.474,9.536,14.626,14.626,0,0,0,9.551,15.906,14.3,14.3,0,0,0,7.681.284,15.785,15.785,0,0,0,5.371-2.389,18.6,18.6,0,0,0,3.627-3.524" transform="translate(0.402 4.811)" fill="#e0e0e0"/>
        <path id="Trazado_641026" data-name="Trazado 641026" d="M75.306,134.307a5.927,5.927,0,0,1,.525,1.175,13.635,13.635,0,0,1,.691,3.628,14.4,14.4,0,0,1-.927,5.778,13.135,13.135,0,0,1-4.741,6.122,14.264,14.264,0,0,1-9.089,2.288,15.169,15.169,0,0,1-14.338-15.309,13.3,13.3,0,0,1,1.5-6.227,6.991,6.991,0,0,1,2.149-2.615,3.94,3.94,0,0,1,3.5-.529,3.393,3.393,0,0,1,2.184,2.8,9,9,0,0,1-.213,3.349,13.136,13.136,0,0,1-2.915,5.705,13.856,13.856,0,0,1-10.749,4.89,15.7,15.7,0,0,1-9.941-4.1,14.69,14.69,0,0,1-4.736-8.093,13.449,13.449,0,0,1,.835-7.7,13.916,13.916,0,0,1,3.362-4.79,12.592,12.592,0,0,1,3.072-2.053,5.947,5.947,0,0,1,1.213-.429,16.346,16.346,0,0,0-4.036,2.745,13.886,13.886,0,0,0-3.129,4.722,13.015,13.015,0,0,0-.672,7.375,14.081,14.081,0,0,0,4.6,7.644A14.967,14.967,0,0,0,42.9,144.5a13.022,13.022,0,0,0,10.041-4.628,12.258,12.258,0,0,0,2.7-5.315,8.149,8.149,0,0,0,.2-2.99,2.455,2.455,0,0,0-1.575-2.072,3.015,3.015,0,0,0-2.671.417,6.118,6.118,0,0,0-1.856,2.282,12.421,12.421,0,0,0-1.4,5.8,14.641,14.641,0,0,0,4.2,10.345,14.825,14.825,0,0,0,9.284,4.192,13.652,13.652,0,0,0,8.661-2.064,12.692,12.692,0,0,0,4.625-5.77,14.4,14.4,0,0,0,1.049-5.573,18.477,18.477,0,0,0-.853-4.815" transform="translate(1.791 7.569)" fill="#e0e0e0"/>
        <path id="Trazado_641027" data-name="Trazado 641027" d="M22.93,65.536c.044-.131.545-.015,1.068-.446a1.05,1.05,0,1,0-1.641-.8c-.014.679.387,1,.312,1.115-.01.12-.748-.052-.965-1.043a1.846,1.846,0,0,1,.458-1.635,1.917,1.917,0,0,1,3.185,1.543,1.849,1.849,0,0,1-1,1.374c-.912.443-1.5-.03-1.416-.112" transform="translate(1.388 3.985)" fill="#e0e0e0"/>
        <path id="Trazado_641028" data-name="Trazado 641028" d="M18.655,86.531c.044-.131.545-.015,1.068-.447a1.05,1.05,0,1,0-1.641-.795c-.014.679.387,1,.312,1.115-.01.12-.748-.052-.965-1.043a1.849,1.849,0,0,1,.458-1.636,1.917,1.917,0,0,1,3.185,1.544,1.847,1.847,0,0,1-1,1.374c-.912.443-1.5-.03-1.416-.112" transform="translate(1.114 5.33)" fill="#e0e0e0"/>
        <path id="Trazado_641029" data-name="Trazado 641029" d="M22.913,113c.044-.131.545-.015,1.068-.446a1.05,1.05,0,1,0-1.641-.8c-.014.679.387,1,.312,1.115-.011.12-.748-.052-.966-1.043a1.85,1.85,0,0,1,.459-1.635,1.917,1.917,0,0,1,3.185,1.543,1.849,1.849,0,0,1-1,1.374c-.912.443-1.5-.03-1.416-.112" transform="translate(1.386 7.025)" fill="#e0e0e0"/>
        <path id="Trazado_641030" data-name="Trazado 641030" d="M37.912,129.5c.044-.131.545-.015,1.068-.447a1.05,1.05,0,1,0-1.641-.795c-.014.678.387,1,.312,1.115-.01.12-.748-.052-.965-1.043a1.849,1.849,0,0,1,.458-1.636,1.917,1.917,0,0,1,3.185,1.544,1.847,1.847,0,0,1-1,1.374c-.912.443-1.5-.03-1.416-.112" transform="translate(2.347 8.082)" fill="#e0e0e0"/>
        <path id="Trazado_641031" data-name="Trazado 641031" d="M61.265,139.823c.044-.131.545-.015,1.068-.447a1.05,1.05,0,1,0-1.641-.795c-.014.679.387,1,.312,1.115-.01.12-.748-.052-.966-1.043a1.85,1.85,0,0,1,.459-1.635,1.917,1.917,0,0,1,3.185,1.543,1.847,1.847,0,0,1-1,1.374c-.912.443-1.5-.03-1.416-.112" transform="translate(3.843 8.743)" fill="#e0e0e0"/>
        <path id="Trazado_641032" data-name="Trazado 641032" d="M81.732,140.895c.044-.131.545-.015,1.068-.446a1.05,1.05,0,1,0-1.641-.8c-.014.679.387,1,.312,1.115-.01.12-.748-.052-.966-1.043a1.85,1.85,0,0,1,.459-1.635,1.917,1.917,0,0,1,3.185,1.543,1.849,1.849,0,0,1-1,1.374c-.912.443-1.5-.03-1.416-.112" transform="translate(5.153 8.811)" fill="#e0e0e0"/>
        <path id="Trazado_641033" data-name="Trazado 641033" d="M99.88,131.962c.044-.131.545-.015,1.068-.447a1.05,1.05,0,1,0-1.641-.795c-.014.679.387,1,.312,1.115-.01.12-.748-.052-.966-1.043a1.853,1.853,0,0,1,.459-1.636A1.917,1.917,0,0,1,102.3,130.7a1.849,1.849,0,0,1-1,1.374c-.912.443-1.5-.03-1.416-.112" transform="translate(6.315 8.239)" fill="#e0e0e0"/>
        <path id="Trazado_641034" data-name="Trazado 641034" d="M39.566,47.075c.044-.131.545-.015,1.068-.447a1.05,1.05,0,1,0-1.641-.795c-.014.679.387,1,.312,1.115-.01.12-.748-.052-.966-1.043A1.85,1.85,0,0,1,38.8,44.27a1.917,1.917,0,0,1,3.185,1.543,1.847,1.847,0,0,1-1,1.374c-.912.443-1.5-.03-1.416-.112" transform="translate(2.453 2.803)" fill="#e0e0e0"/>
        <path id="Trazado_641035" data-name="Trazado 641035" d="M103.348,122.382a5.255,5.255,0,0,1,.81.815,17.7,17.7,0,0,1,1.882,2.706,19.731,19.731,0,0,1,2.439,11.766,13.557,13.557,0,0,1-3.162,7.792,7.224,7.224,0,0,1-4.25,2.245,9.384,9.384,0,0,1-5.023-.758c-3.256-1.445-5.631-4.322-7.79-7.292a7.678,7.678,0,0,1-1.624-5.548,4.509,4.509,0,0,1,1.466-2.747,4.406,4.406,0,0,1,3-.969,8.551,8.551,0,0,1,5.426,2.469,10.983,10.983,0,0,1,2.919,4.966,10.377,10.377,0,0,1,.021,5.561,11.549,11.549,0,0,1-2.622,4.631A12.175,12.175,0,0,1,88.1,152a14.027,14.027,0,0,1-8.054-2.406,14.485,14.485,0,0,1-4.666-5.133,16.441,16.441,0,0,1-1.755-4.928,15.251,15.251,0,0,1-.273-3.286,4.386,4.386,0,0,1,.109-1.143,30.334,30.334,0,0,0,.519,4.355,16.8,16.8,0,0,0,1.852,4.745,14.131,14.131,0,0,0,4.574,4.839,13.437,13.437,0,0,0,7.672,2.184,11.415,11.415,0,0,0,8.13-3.791,9.807,9.807,0,0,0,2.356-9.37,10.1,10.1,0,0,0-2.681-4.54,7.656,7.656,0,0,0-4.807-2.208,3.475,3.475,0,0,0-2.381.748,3.586,3.586,0,0,0-1.153,2.189,6.793,6.793,0,0,0,1.463,4.885c2.089,2.9,4.408,5.693,7.381,7.019a8.576,8.576,0,0,0,4.564.733,6.435,6.435,0,0,0,3.807-1.968,12.981,12.981,0,0,0,3.067-7.336,19.88,19.88,0,0,0-2.1-11.517,34.339,34.339,0,0,0-2.374-3.693" transform="translate(4.697 7.837)" fill="#e0e0e0"/>
        <path id="Trazado_641036" data-name="Trazado 641036" d="M144.982,92.574s-.051-.38-.1-1.122c-.05-.775-.12-1.867-.213-3.29q-.064-1.089-.145-2.423c-.094-.887-.283-1.849-.439-2.9s-.346-2.171-.536-3.373a37.716,37.716,0,0,0-.907-3.778,66.067,66.067,0,0,0-7.678-18.384A68.878,68.878,0,0,0,117.4,37.736l-2.983-2.222c-1.048-.686-2.153-1.315-3.244-1.988-1.113-.633-2.169-1.4-3.363-1.944l-3.58-1.717L102.413,29l-1.913-.7-3.881-1.413c-1.318-.435-2.7-.716-4.061-1.086a34.921,34.921,0,0,0-4.172-.944,63.986,63.986,0,0,0-8.716-1.008c-1.485-.051-2.983-.2-4.491-.172l-4.56.236c-.765.053-1.538.048-2.3.149l-2.3.354c-1.533.254-3.093.433-4.635.753a72.719,72.719,0,0,0-9.186,2.7,71.552,71.552,0,0,0-8.984,3.949c-1.455.788-2.849,1.708-4.289,2.562-.7.451-1.457.836-2.128,1.345l-2.028,1.519a77.692,77.692,0,0,0-7.812,6.64,77.951,77.951,0,0,0-6.748,7.982l-1.583,2.119-1.386,2.266-1.384,2.28a17.062,17.062,0,0,0-1.283,2.348Q13.406,63.3,12.232,65.74q-.931,2.541-1.868,5.1A73.552,73.552,0,0,0,6.811,92.563,73.564,73.564,0,0,0,10.36,114.3l1.867,5.1q1.175,2.437,2.339,4.857l.588,1.206.695,1.144,1.384,2.281,1.386,2.266,1.584,2.12a77.718,77.718,0,0,0,6.749,7.985,77.361,77.361,0,0,0,7.813,6.643l2.028,1.518c.67.51,1.424.895,2.128,1.346,1.441.854,2.836,1.774,4.29,2.563a71.724,71.724,0,0,0,8.985,3.949,72.8,72.8,0,0,0,9.187,2.7c1.542.319,3.1.5,4.636.753l2.3.353c.765.1,1.539.1,2.3.149l4.56.236c1.509.023,3.007-.121,4.492-.172a64.193,64.193,0,0,0,8.717-1.008,35.135,35.135,0,0,0,4.172-.945c1.364-.37,2.744-.65,4.061-1.086l3.881-1.414,1.913-.7,1.821-.863,3.58-1.717c1.195-.542,2.25-1.311,3.363-1.944,1.092-.672,2.2-1.3,3.243-1.989l2.984-2.222a68.862,68.862,0,0,0,17.555-19.573,66.109,66.109,0,0,0,7.676-18.382,37.417,37.417,0,0,0,.906-3.778q.287-1.8.536-3.373c.156-1.046.347-2.007.439-2.894q.08-1.333.145-2.422c.093-1.423.163-2.515.213-3.29.053-.742.1-1.121.1-1.121s.013.38-.01,1.124c-.028.777-.068,1.873-.12,3.3q-.045,1.093-.1,2.432c-.079.892-.255,1.859-.4,2.911s-.319,2.184-.5,3.393a37.081,37.081,0,0,1-.868,3.807,65.758,65.758,0,0,1-7.58,18.56,69.121,69.121,0,0,1-17.6,19.83l-3,2.255c-1.054.7-2.167,1.339-3.267,2.022-1.123.644-2.187,1.425-3.391,1.977l-3.611,1.748-1.838.878-1.93.711-3.918,1.441c-1.331.446-2.724.733-4.1,1.113a35.855,35.855,0,0,1-4.216.967,64.852,64.852,0,0,1-8.811,1.043c-1.5.056-3.018.205-4.545.186l-4.615-.228c-.774-.052-1.556-.046-2.33-.146l-2.326-.352c-1.552-.253-3.131-.433-4.693-.753a73.724,73.724,0,0,1-9.306-2.711,72.589,72.589,0,0,1-9.1-3.985c-1.474-.8-2.889-1.725-4.349-2.589-.714-.456-1.477-.846-2.158-1.36l-2.056-1.535a78.165,78.165,0,0,1-7.922-6.719,78.528,78.528,0,0,1-6.846-8.082l-1.607-2.146-1.407-2.3-1.406-2.311-.7-1.159-.6-1.22-2.372-4.922-1.9-5.169a74.439,74.439,0,0,1-3.6-22.025A74.42,74.42,0,0,1,9.486,70.547l1.9-5.167,2.372-4.92a17.456,17.456,0,0,1,1.3-2.379l1.4-2.31,1.408-2.294,1.606-2.146a78.747,78.747,0,0,1,6.845-8.079,78.258,78.258,0,0,1,7.921-6.718L36.3,35c.68-.515,1.443-.9,2.157-1.36,1.46-.864,2.874-1.792,4.348-2.588a72.641,72.641,0,0,1,9.1-3.985,73.662,73.662,0,0,1,9.305-2.711c1.561-.32,3.141-.5,4.692-.752l2.327-.352c.774-.1,1.556-.095,2.329-.147l4.614-.228c1.527-.019,3.041.13,4.543.186a64.682,64.682,0,0,1,8.811,1.043,35.642,35.642,0,0,1,4.216.966c1.379.38,2.772.668,4.1,1.112l3.918,1.442,1.93.711,1.838.878,3.611,1.747c1.2.551,2.269,1.333,3.39,1.977,1.1.683,2.212,1.323,3.268,2.021l3,2.255a69.09,69.09,0,0,1,17.6,19.829A65.717,65.717,0,0,1,142.989,75.6a37.143,37.143,0,0,1,.869,3.806q.265,1.815.5,3.4c.142,1.052.317,2.018.4,2.911q.054,1.339.1,2.433c.052,1.427.093,2.523.12,3.3.022.744.01,1.124.01,1.124" transform="translate(0.377 1.465)" fill="#e0e0e0"/>
        <path id="Trazado_641037" data-name="Trazado 641037" d="M120.707,89.761A46.448,46.448,0,1,1,74.26,43.314a46.448,46.448,0,0,1,46.447,46.447" transform="translate(1.781 2.774)" fill="#fafafa"/>
        <path id="Trazado_641038" data-name="Trazado 641038" d="M120.735,89.782a4.57,4.57,0,0,1-.085-.751c-.039-.539-.092-1.269-.157-2.2q-.048-.731-.1-1.622c-.066-.594-.195-1.236-.3-1.937a33.937,33.937,0,0,0-.979-4.784,44.382,44.382,0,0,0-5.161-12.29A46.068,46.068,0,0,0,58.611,46.561a47.784,47.784,0,0,0-6,2.64,48.119,48.119,0,0,0-5.64,3.626,51.912,51.912,0,0,0-5.216,4.437A52.073,52.073,0,0,0,37.249,62.6a44.545,44.545,0,0,0-6.573,12.67A49.2,49.2,0,0,0,28.3,89.775a49.184,49.184,0,0,0,2.37,14.513,44.548,44.548,0,0,0,6.573,12.675,52.22,52.22,0,0,0,4.506,5.334,51.814,51.814,0,0,0,5.218,4.438A42.314,42.314,0,0,0,58.611,133a46.182,46.182,0,0,0,55.336-19.638,44.338,44.338,0,0,0,5.16-12.289,33.8,33.8,0,0,0,.979-4.783c.107-.7.236-1.343.3-1.937q.056-.889.1-1.622c.066-.933.118-1.663.157-2.2a4.57,4.57,0,0,1,.085-.751,4.482,4.482,0,0,1,.01.753c-.016.542-.037,1.275-.065,2.212q-.027.737-.061,1.632c-.05.6-.166,1.247-.259,1.953a33.015,33.015,0,0,1-.9,4.833,43.988,43.988,0,0,1-5.064,12.466,46.742,46.742,0,0,1-31.462,22.154,46.922,46.922,0,0,1-24.614-1.977,48.647,48.647,0,0,1-6.12-2.676,48.673,48.673,0,0,1-5.756-3.684,52.609,52.609,0,0,1-5.327-4.515,52.917,52.917,0,0,1-4.6-5.432A45.381,45.381,0,0,1,29.8,104.581a49.989,49.989,0,0,1-2.422-14.806,49.949,49.949,0,0,1,2.425-14.8,45.378,45.378,0,0,1,6.716-12.919,52.985,52.985,0,0,1,4.6-5.43,52.724,52.724,0,0,1,5.326-4.514A48.7,48.7,0,0,1,52.2,48.431a48.71,48.71,0,0,1,6.119-2.675A46.91,46.91,0,0,1,82.93,43.779,46.746,46.746,0,0,1,114.393,65.93,44,44,0,0,1,119.458,78.4a33.17,33.17,0,0,1,.9,4.834c.093.705.207,1.355.259,1.953.022.6.041,1.141.061,1.632.028.938.049,1.672.065,2.213a4.482,4.482,0,0,1-.01.753" transform="translate(1.753 2.753)" fill="#e0e0e0"/>
        <g transform="matrix(1, 0, 0, 1, 0, 0)" filter="url(#Trazado_641039)">
          <path id="Trazado_641039-2" data-name="Trazado 641039" d="M5.305,336.457c-1.163,10.159,3.235,20.649,11.808,28.167S38.3,376.571,50.979,376.516c.733,8.063,7.336,15.6,16.524,18.879s20.568,2.138,28.484-2.843c1.783,10.075,12.142,18.788,24.574,20.67s26.02-3.205,32.235-12.07c6.752,7.3,18,11.776,29.316,11.653s22.409-4.838,28.913-12.287c9.357,6.984,22.424,10.635,35.148,9.822s24.911-6.079,32.779-14.163c17.654,9.265,43.586,15.668,57.384,2.849a38.723,38.723,0,0,0,30.833-1.348c9.06-4.676,14.716-22.664,14.369-31.319,16.561-2.447,17.687-16.46,13.862-29.651" transform="translate(0.33 21.55)" fill="#fff"/>
        </g>
      </g>
    </g>
    <g id="Grupo_927286" data-name="Grupo 927286">
      <g id="Grupo_927285" data-name="Grupo 927285" clip-path="url(#clip-path-3)">
        <path id="Trazado_641040" data-name="Trazado 641040" d="M324.373,341.832s-12.3-60.082,0-93.468h13.618s10.452,35.209,0,93.468Z" transform="translate(20.422 15.905)" fill="#ff725e"/>
        <g id="Grupo_927284" data-name="Grupo 927284" transform="translate(339.329 264.269)" opacity="0.7">
          <g id="Grupo_927283" data-name="Grupo 927283">
            <g id="Grupo_927282" data-name="Grupo 927282" clip-path="url(#clip-path-4)">
              <path id="Trazado_641041" data-name="Trazado 641041" d="M324.373,341.832s-12.3-60.082,0-93.468h13.618s10.452,35.209,0,93.468Z" transform="translate(-318.906 -248.364)" fill="#ffb338"/>
            </g>
          </g>
        </g>
        <path id="Trazado_641042" data-name="Trazado 641042" d="M333.542,219.828a25.941,25.941,0,0,1,22.134-12.857A24.554,24.554,0,0,1,332.7,220.528" transform="translate(21.306 13.254)" fill="#455a64"/>
        <path id="Trazado_641043" data-name="Trazado 641043" d="M337.106,197.01a25.939,25.939,0,0,1-6.271-24.817,24.556,24.556,0,0,1,6.713,25.821" transform="translate(21.126 11.027)" fill="#455a64"/>
        <path id="Trazado_641044" data-name="Trazado 641044" d="M325.957,196.915a22.652,22.652,0,0,1-13.938-17.762,21.459,21.459,0,0,1,14.656,18.415" transform="translate(19.981 11.473)" fill="#455a64"/>
        <path id="Trazado_641045" data-name="Trazado 641045" d="M321.972,171.719a16.518,16.518,0,0,1,4.948-15.7,15.645,15.645,0,0,1-5.045,16.4" transform="translate(20.594 9.991)" fill="#455a64"/>
        <path id="Trazado_641046" data-name="Trazado 641046" d="M330.88,241.9a16.515,16.515,0,0,1,9.569-13.4,15.647,15.647,0,0,1-9.879,14.033" transform="translate(21.169 14.633)" fill="#455a64"/>
        <path id="Trazado_641047" data-name="Trazado 641047" d="M316.887,147.144s2.459,9.2,5.334,24.321q.524,2.838,1.095,5.938c.376,2.066.691,4.228,1.059,6.46.761,4.46,1.378,9.255,2.067,14.3,1.252,10.1,2.34,21.233,3.006,32.955.618,11.73.753,22.922.61,33.1-.135,5.086-.225,9.92-.495,14.437-.121,2.259-.2,4.442-.346,6.536s-.3,4.1-.44,6.024c-1.208,15.342-2.647,24.756-2.647,24.756s0-.15.027-.439c.031-.309.072-.734.127-1.282.123-1.147.3-2.8.53-4.923q.179-1.606.395-3.557.177-1.955.385-4.238c.261-3.043.626-6.5.849-10.341q.2-2.876.41-6.02c.137-2.093.205-4.275.318-6.533.253-4.514.328-9.343.451-14.425.118-10.165-.03-21.345-.647-33.062-.666-11.711-1.739-22.837-2.967-32.928-.677-5.036-1.278-9.829-2.022-14.288-.359-2.231-.665-4.393-1.03-6.459s-.726-4.048-1.064-5.939c-.642-3.791-1.382-7.19-1.973-10.187q-.455-2.242-.846-4.171l-.781-3.493c-.459-2.083-.816-3.709-1.065-4.837-.113-.538-.2-.957-.265-1.261-.057-.284-.074-.433-.074-.433" transform="translate(20.293 9.423)" fill="#263238"/>
        <path id="Trazado_641048" data-name="Trazado 641048" d="M346.283,167.726a1.725,1.725,0,0,1-.083.322l-.289.93c-.272.842-.66,2.037-1.154,3.562q-.383,1.162-.846,2.57-.429,1.422-.929,3.08c-.651,2.215-1.456,4.719-2.18,7.533q-.568,2.105-1.19,4.4c-.41,1.531-.767,3.143-1.175,4.8-.843,3.311-1.56,6.892-2.357,10.649-1.475,7.539-2.837,15.879-3.831,24.688-.948,8.819-1.435,17.257-1.638,24.937-.04,3.841-.118,7.492-.018,10.907.038,1.708.035,3.358.1,4.942s.138,3.1.2,4.556c.094,2.906.335,5.523.488,7.827q.126,1.725.235,3.209.145,1.473.266,2.692c.151,1.6.268,2.846.352,3.727.033.406.06.728.079.97a1.788,1.788,0,0,1,.012.333,1.623,1.623,0,0,1-.06-.327c-.032-.242-.073-.561-.127-.966-.1-.879-.251-2.126-.441-3.719q-.139-1.216-.307-2.69-.126-1.483-.275-3.209c-.179-2.3-.444-4.923-.559-7.83q-.112-2.18-.234-4.56c-.077-1.586-.083-3.239-.129-4.949-.118-3.421-.054-7.077-.026-10.925.178-7.692.652-16.146,1.6-24.979,1-8.824,2.373-17.177,3.873-24.723.81-3.76,1.544-7.342,2.4-10.654.417-1.659.783-3.271,1.2-4.8l1.222-4.4c.746-2.812,1.574-5.312,2.25-7.522q.519-1.65.967-3.072l.885-2.558,1.24-3.535c.14-.384.25-.686.334-.915a1.74,1.74,0,0,1,.129-.306" transform="translate(21.141 10.741)" fill="#263238"/>
        <path id="Trazado_641049" data-name="Trazado 641049" d="M343.6,176.252c-2.993-2.514-3.178-7.207-1.7-10.827s4.23-6.535,6.539-9.689,4.271-6.931,3.741-10.8a8.027,8.027,0,0,1-.193-2.766c.2-.909,1.1-1.761,1.985-1.485.786.244,1.1,1.169,1.268,1.975a26.736,26.736,0,0,1,.452,7.6,10.52,10.52,0,0,1,6.843-6.169,9.032,9.032,0,0,1-2.444,8.365c1.978-.823,4.1-1.663,6.2-1.256s3.986,2.64,3.2,4.632c-.9,2.266-3.991,2.311-6.391,2.745a11.593,11.593,0,0,0-6.845,4.027c-2.164,2.646-3.04,6.1-4.795,9.038s-5.13,5.5-8.381,4.44" transform="translate(21.837 9.006)" fill="#eb6f2d"/>
        <path id="Trazado_641050" data-name="Trazado 641050" d="M320.673,158.881c3.317-2.067,4.158-6.687,3.208-10.48s-3.271-7.064-5.115-10.512-3.255-7.46-2.188-11.22a8.029,8.029,0,0,0,.58-2.713c-.068-.927-.838-1.9-1.757-1.749-.813.13-1.257,1-1.533,1.777a26.716,26.716,0,0,0-1.515,7.458,10.521,10.521,0,0,0-5.909-7.068A9.041,9.041,0,0,0,307.69,133c-1.843-1.093-3.826-2.224-5.966-2.114s-4.317,2.054-3.815,4.136c.571,2.372,3.626,2.849,5.943,3.616a11.592,11.592,0,0,1,6.211,4.948c1.772,2.925,2.154,6.471,3.478,9.622s4.307,6.164,7.675,5.573" transform="translate(19.073 7.825)" fill="#eb6f2d"/>
        <path id="Trazado_641051" data-name="Trazado 641051" d="M315.627,199.123a3.65,3.65,0,0,1,.336.592l.883,1.74c.384.754.84,1.685,1.327,2.787s1.081,2.337,1.643,3.743c.584,1.4,1.217,2.932,1.825,4.608.649,1.66,1.244,3.47,1.889,5.367,1.226,3.815,2.425,8.059,3.438,12.573.987,4.521,1.692,8.876,2.191,12.853.216,1.993.44,3.885.553,5.664.155,1.775.23,3.434.289,4.948.085,1.513.073,2.884.091,4.087s0,2.24-.027,3.086c-.027.81-.049,1.458-.066,1.949a3.57,3.57,0,0,1-.055.679,3.739,3.739,0,0,1-.04-.681c-.005-.492-.013-1.139-.022-1.948,0-.846-.005-1.88-.054-3.08s-.054-2.568-.161-4.076c-.081-1.509-.174-3.162-.347-4.931-.129-1.773-.368-3.657-.6-5.642-.52-3.961-1.235-8.3-2.22-12.8-1.009-4.5-2.191-8.731-3.391-12.542-.631-1.9-1.21-3.7-1.841-5.365-.591-1.676-1.2-3.214-1.766-4.616-.54-1.413-1.108-2.658-1.575-3.763s-.894-2.05-1.251-2.817l-.8-1.776a3.659,3.659,0,0,1-.251-.634" transform="translate(20.212 12.752)" fill="#263238"/>
        <path id="Trazado_641052" data-name="Trazado 641052" d="M318.6,208.557c1.651-1.343,1.793-3.9,1.021-5.882s-2.247-3.6-3.477-5.333-2.265-3.81-1.944-5.915a4.367,4.367,0,0,0,.129-1.506c-.1-.5-.582-.968-1.068-.827-.431.127-.611.628-.708,1.065a14.548,14.548,0,0,0-.313,4.134,5.727,5.727,0,0,0-3.673-3.419,4.921,4.921,0,0,0,1.259,4.576,6.041,6.041,0,0,0-3.368-.737c-1.149.2-2.193,1.4-1.781,2.5.47,1.243,2.154,1.293,3.457,1.55a6.309,6.309,0,0,1,3.693,2.253c1.156,1.46,1.6,3.35,2.532,4.963s2.747,3.039,4.526,2.491" transform="translate(19.505 12.108)" fill="#eb6f2d"/>
      </g>
    </g>
    <g id="Grupo_927288" data-name="Grupo 927288">
      <g id="Grupo_927287" data-name="Grupo 927287" clip-path="url(#clip-path-3)">
        <path id="Trazado_641053" data-name="Trazado 641053" d="M378.351,336.44c0,.017-75.562.031-181.873.031-106.349,0-192.533-.014-192.533-.031s86.184-.031,192.533-.031c106.311,0,181.873.014,181.873.031" transform="translate(0.253 21.543)" fill="#263238"/>
      </g>
    </g>
    <path id="Trazado_641054" data-name="Trazado 641054" d="M155.708,383.9l-5.536,5.952,181.989,3.122-4.587-37.023L169.694,367.8Z" transform="translate(9.617 22.795)" fill="#e0e0e0"/>
    <g id="Grupo_927290" data-name="Grupo 927290">
      <g id="Grupo_927289" data-name="Grupo 927289" clip-path="url(#clip-path-3)">
        <path id="Trazado_641055" data-name="Trazado 641055" d="M186.363,340.742l-37.942,43.993s138.352,3.024,169.152,2.818c3.609-.024,17.013.005,19.493-6.281l-11.411-40.814Z" transform="translate(9.505 21.802)" fill="#fafafa"/>
        <path id="Trazado_641056" data-name="Trazado 641056" d="M186.387,340.758s.219-.013.66-.021,1.107-.014,1.963-.023l7.641-.054c6.7-.03,16.452-.074,28.752-.132l100.277-.313h.2l.053.19c3.61,12.893,7.449,26.611,11.425,40.809l.025.092-.034.083a7.466,7.466,0,0,1-2.71,3.159,15.521,15.521,0,0,1-3.786,1.75,37.145,37.145,0,0,1-8.259,1.388c-2.81.206-5.638.15-8.477.161l-8.571-.034c-31.118-.282-60.683-.878-87.326-1.384l-69.776-1.489-.4-.009.263-.3,27.93-32.246,7.528-8.654,1.955-2.228c.441-.5.671-.742.671-.742s-.216.276-.649.789-1.086,1.282-1.929,2.275l-7.469,8.735-27.752,32.317-.138-.312,69.778,1.359c26.642.476,56.209,1.054,87.32,1.336l8.567.035c2.839-.011,5.663.046,8.44-.159a36.617,36.617,0,0,0,8.131-1.361,15.024,15.024,0,0,0,3.643-1.68,6.926,6.926,0,0,0,2.508-2.906l-.009.173c-3.966-14.2-7.8-27.919-11.4-40.818l.25.189c-40.751.039-75.552.075-100.181.1-12.313-.006-22.08-.01-28.783-.014l-7.672-.023-1.98-.015c-.446-.006-.678-.019-.678-.019" transform="translate(9.48 21.787)" fill="#263238"/>
        <path id="Trazado_641057" data-name="Trazado 641057" d="M219.671,373.914a4.885,4.885,0,0,1,.118-1.335,16.479,16.479,0,0,1,1.03-3.509,17.363,17.363,0,0,1,2.836-4.635c.664-.782,1.54-1.5,1.168-2.5a13.813,13.813,0,0,0-.65-1.512,2.893,2.893,0,0,1-.247-.916,1.42,1.42,0,0,1,.317-1.005c.5-.553,1.148-.613,1.524-.9a2.327,2.327,0,0,0,.782-1.234c.294-1.013.537-2.065.794-3.027a15.729,15.729,0,0,1,.855-2.763,3.764,3.764,0,0,1,.79-1.12,2.079,2.079,0,0,1,1.189-.543l-.1.351a2.286,2.286,0,0,1-.725-2.079,2.723,2.723,0,0,1,.7-1.5,1.984,1.984,0,0,1,.882-.553c.234-.049.358-.051.36-.034a2.633,2.633,0,0,0-1.078.731,2.591,2.591,0,0,0-.55,1.392,1.963,1.963,0,0,0,.662,1.735l.38.3-.483.05a2.193,2.193,0,0,0-1.6,1.465,16.071,16.071,0,0,0-.778,2.692c-.248.981-.466,1.984-.772,3.07a2.848,2.848,0,0,1-.982,1.518c-.539.365-1.138.457-1.416.805a1.267,1.267,0,0,0,.013,1.351,13.207,13.207,0,0,1,.665,1.582,2.39,2.39,0,0,1,.072.924,2.109,2.109,0,0,1-.345.844,14.1,14.1,0,0,1-1.032,1.21,18,18,0,0,0-2.862,4.458,28.91,28.91,0,0,0-1.508,4.688" transform="translate(14.067 22.099)" fill="#263238"/>
        <path id="Trazado_641058" data-name="Trazado 641058" d="M237.965,345.14a5.238,5.238,0,0,1-.169,1.219c-.147.777-.372,1.9-.683,3.278a72.178,72.178,0,0,1-3.143,10.6c-1.561,4.065-3.788,7.33-4.963,9.868a34.269,34.269,0,0,0-1.611,4.248,4.055,4.055,0,0,1,.17-1.224,17.579,17.579,0,0,1,1.084-3.187c1.11-2.63,3.269-5.9,4.8-9.909a91.622,91.622,0,0,0,3.277-10.493c.337-1.275.621-2.355.853-3.233a5.284,5.284,0,0,1,.38-1.171" transform="translate(14.562 22.102)" fill="#263238"/>
        <path id="Trazado_641059" data-name="Trazado 641059" d="M245.635,343.685a6.287,6.287,0,0,1-.39,1.267l-1.224,3.389c-1.037,2.859-2.441,6.818-3.936,11.212-1.461,4.343-2.783,8.272-3.793,11.268-.469,1.353-.866,2.493-1.183,3.4a6.218,6.218,0,0,1-.5,1.226,6.063,6.063,0,0,1,.3-1.292c.229-.82.574-2,1.016-3.459.884-2.912,2.146-6.925,3.641-11.327s2.962-8.345,4.1-11.172c.566-1.414,1.041-2.552,1.39-3.329a6.143,6.143,0,0,1,.589-1.187" transform="translate(15.023 22.009)" fill="#263238"/>
        <path id="Trazado_641060" data-name="Trazado 641060" d="M250.828,345.932a5.514,5.514,0,0,1-.061,1.276,34.764,34.764,0,0,1-.5,3.449,20.523,20.523,0,0,1-.605,2.342c-.259.837-.663,1.682-.94,2.577a4.8,4.8,0,0,0-.236,1.388,8.554,8.554,0,0,0,.195,1.491,3.519,3.519,0,0,1-.039,1.717,3.823,3.823,0,0,1-.97,1.477c-.8.81-1.746,1.453-2.028,2.341a2.162,2.162,0,0,0,.129,1.363,3.156,3.156,0,0,1,.135,1.584,14.55,14.55,0,0,1-.935,2.641q-.488,1.18-.918,2.214l-1.365,3.192a5.637,5.637,0,0,1-.571,1.142,5.678,5.678,0,0,1,.37-1.222c.325-.878.727-1.967,1.2-3.257q.4-1.045.855-2.24a15.011,15.011,0,0,0,.858-2.549,2.645,2.645,0,0,0-.135-1.347,2.666,2.666,0,0,1-.145-1.674c.394-1.176,1.419-1.8,2.152-2.577a3.318,3.318,0,0,0,.841-1.256,3,3,0,0,0,.029-1.463,8.874,8.874,0,0,1-.188-1.584,5.322,5.322,0,0,1,.278-1.532c.313-.952.725-1.767.993-2.573a22.567,22.567,0,0,0,.659-2.279c.632-2.843.84-4.657.941-4.64" transform="translate(15.505 22.153)" fill="#263238"/>
        <path id="Trazado_641061" data-name="Trazado 641061" d="M250.692,378.833a4.679,4.679,0,0,1-.293-1.317,14.233,14.233,0,0,1,.018-3.683,15.072,15.072,0,0,1,1.694-5.2,15.753,15.753,0,0,0,1.481-2.754c.333-.982-.279-2.03-.319-3.309a11.828,11.828,0,0,1,.711-3.435c.29-1.065.572-2.094.842-3.079l1.392-5.236.976-3.523a6.228,6.228,0,0,1,.432-1.273,6.3,6.3,0,0,1-.222,1.326c-.215.952-.485,2.145-.806,3.566-.357,1.5-.767,3.29-1.278,5.269l-.815,3.106a11.693,11.693,0,0,0-.678,3.267,8.385,8.385,0,0,0,.289,1.663,3.559,3.559,0,0,1,0,1.8,15.084,15.084,0,0,1-1.558,2.857,15.374,15.374,0,0,0-1.754,5.014,22.031,22.031,0,0,0-.113,4.941" transform="translate(16.028 22.159)" fill="#263238"/>
        <path id="Trazado_641062" data-name="Trazado 641062" d="M258.259,378.756a6.25,6.25,0,0,1,.149-1.335c.162-.963.364-2.17.605-3.6.551-3.154,1.275-7.292,2.074-11.867.388-2.321.745-4.533,1.044-6.548.264-1.989.5-3.8.712-5.366.211-1.44.387-2.649.528-3.615a6.272,6.272,0,0,1,.269-1.318,6.189,6.189,0,0,1-.054,1.341c-.095.971-.213,2.19-.353,3.639-.175,1.575-.376,3.393-.6,5.391-.272,2.024-.614,4.243-1,6.567-.779,4.646-1.608,8.828-2.236,11.849-.315,1.511-.582,2.73-.779,3.571a6.3,6.3,0,0,1-.361,1.295" transform="translate(16.538 22.1)" fill="#263238"/>
        <path id="Trazado_641063" data-name="Trazado 641063" d="M265.55,380.027a7.324,7.324,0,0,1,.167-1.436c.174-1.023.395-2.323.66-3.876.58-3.27,1.418-7.779,2.379-12.753.485-2.479.947-4.84,1.371-7.006a11.756,11.756,0,0,0,.248-3.034c-.074-.94-.335-1.833-.354-2.7a4.264,4.264,0,0,1,1.708-3.535,3.638,3.638,0,0,1,.954-.524c.236-.079.365-.1.37-.083a8.645,8.645,0,0,0-1.189.774,4.121,4.121,0,0,0-1.452,3.351c.039.8.316,1.668.42,2.674a11.818,11.818,0,0,1-.2,3.163l-1.329,7.022c-.96,4.973-1.86,9.471-2.539,12.721-.333,1.541-.612,2.83-.832,3.844a7.265,7.265,0,0,1-.379,1.395" transform="translate(17.005 22.098)" fill="#263238"/>
        <path id="Trazado_641064" data-name="Trazado 641064" d="M275.226,378.7a1.581,1.581,0,0,0,.84-1.019,3.105,3.105,0,0,0-.085-1.589,8.5,8.5,0,0,0-1.019-1.923,3.553,3.553,0,0,1-.635-2.715c.317-1.093,1.382-1.648,1.965-2.446a1.658,1.658,0,0,0,.313-1.382c-.092-.517-.339-1.048-.48-1.666a2.353,2.353,0,0,1,.345-1.933c.366-.553.836-.978,1.193-1.452a1.787,1.787,0,0,0,.422-1.511,3.687,3.687,0,0,0-.844-1.43,15.366,15.366,0,0,1-1.119-1.378,2.621,2.621,0,0,1-.515-1.739c.186-1.256,1.087-1.97,1.337-2.83a4.678,4.678,0,0,0-.09-2.538,10.14,10.14,0,0,1-.4-2.219,3.745,3.745,0,0,1,.328-1.693c.459-.887,1.1-.974,1.077-.954a2.465,2.465,0,0,0-.88,1.043,3.685,3.685,0,0,0-.215,1.593,10.475,10.475,0,0,0,.474,2.133,4.985,4.985,0,0,1,.148,2.776c-.309,1.007-1.169,1.773-1.266,2.738s.774,1.827,1.54,2.716a4.161,4.161,0,0,1,.967,1.661,2.342,2.342,0,0,1-.516,1.964c-.4.529-.864.948-1.175,1.422a1.79,1.79,0,0,0-.277,1.515c.116.542.365,1.081.471,1.692a2.184,2.184,0,0,1-.423,1.776c-.729.916-1.694,1.419-1.937,2.274a3.215,3.215,0,0,0,.536,2.392,8.285,8.285,0,0,1,.978,2.034,3.208,3.208,0,0,1-.006,1.73,1.427,1.427,0,0,1-.681.857.643.643,0,0,1-.366.1" transform="translate(17.562 22.175)" fill="#263238"/>
        <path id="Trazado_641065" data-name="Trazado 641065" d="M283.374,379.516a15.169,15.169,0,0,0,1.069-4.731,29.245,29.245,0,0,0-.331-5.281c-.272-1.982-.614-4.181-.793-6.5a66.54,66.54,0,0,1,.1-11.909c.147-1.518.337-2.738.476-3.578a6.046,6.046,0,0,1,.294-1.293,6.13,6.13,0,0,1-.08,1.322c-.072.847-.2,2.069-.3,3.582a80.131,80.131,0,0,0,.067,11.832c.177,2.306.5,4.481.747,6.484a26.867,26.867,0,0,1,.215,5.371,11.563,11.563,0,0,1-.819,3.538,5.775,5.775,0,0,1-.442.884c-.114.195-.182.292-.2.282" transform="translate(18.13 22.172)" fill="#263238"/>
        <path id="Trazado_641066" data-name="Trazado 641066" d="M291.075,345.68c.016-.01.092.083.22.272a5.04,5.04,0,0,1,.444.9,8.573,8.573,0,0,1,.467,3.637,38.339,38.339,0,0,1-.975,5.318,21.979,21.979,0,0,0-.32,6.486c.189,2.314.545,4.519.8,6.53.255,1.98.488,3.782.689,5.343.166,1.435.306,2.643.418,3.608a6.131,6.131,0,0,1,.078,1.333,6.2,6.2,0,0,1-.292-1.3c-.159-.958-.356-2.158-.592-3.584-.236-1.556-.509-3.352-.808-5.326-.283-2.007-.654-4.206-.847-6.558a21.583,21.583,0,0,1,.372-6.635,43.828,43.828,0,0,0,1.084-5.244,9.137,9.137,0,0,0-.281-3.536c-.243-.811-.5-1.214-.46-1.24" transform="translate(18.588 22.137)" fill="#263238"/>
      </g>
    </g>
    <path id="Trazado_641067" data-name="Trazado 641067" d="M237.214,182.785l-47.039-27.122L75.367,166.65l-2.94,47.875L83.364,345.167l118.845,2.6H245.8l.492-14.907,2.659-38.646Z" transform="translate(4.638 9.968)" fill="#f9a21b"/>
    <g id="Grupo_927301" data-name="Grupo 927301">
      <g id="Grupo_927300" data-name="Grupo 927300" clip-path="url(#clip-path-7)">
        <path id="Trazado_641068" data-name="Trazado 641068" d="M183.089,155.663s38.795-.376,58.772,26.563c6.139,8.277,69.564,87.391,67.3,125.767-1.08,18.309-13.742,39.776-13.742,39.776H237.9L206.252,192.291Z" transform="translate(11.725 9.968)" fill="#f9a21b"/>
        <path id="Trazado_641069" data-name="Trazado 641069" d="M228.624,342.536a1.812,1.812,0,0,1,.081-.357c.072-.26.167-.6.287-1.028.275-.932.663-2.252,1.159-3.933.255-.855.539-1.8.849-2.838.283-1.044.527-2.2.825-3.424.554-2.465,1.331-5.242,1.8-8.391q.412-2.349.861-4.916c.289-1.711.43-3.516.664-5.369.527-3.706.674-7.7.921-11.9a153.99,153.99,0,0,0-7.665-53.878c-1.409-3.96-2.663-7.757-4.2-11.169-.743-1.715-1.38-3.408-2.136-4.97l-2.2-4.482c-1.329-2.893-2.848-5.343-4.069-7.555-.629-1.1-1.183-2.136-1.747-3.059l-1.607-2.487-2.209-3.454c-.235-.378-.421-.678-.563-.907a1.7,1.7,0,0,1-.177-.32,1.843,1.843,0,0,1,.222.287c.154.221.355.511.609.877.546.805,1.316,1.945,2.3,3.4q.747,1.114,1.65,2.465c.578.917,1.147,1.95,1.79,3.041,1.249,2.2,2.8,4.645,4.151,7.534q1.069,2.14,2.237,4.479c.767,1.562,1.417,3.255,2.172,4.972,1.562,3.414,2.838,7.217,4.264,11.187a151.825,151.825,0,0,1,7.691,54.056c-.263,4.209-.427,8.216-.975,11.931-.245,1.859-.4,3.666-.7,5.381s-.612,3.355-.9,4.924c-.5,3.153-1.3,5.93-1.885,8.393-.313,1.227-.571,2.377-.87,3.42q-.49,1.547-.9,2.828c-.538,1.67-.961,2.979-1.259,3.906l-.34,1.011a1.824,1.824,0,0,1-.134.338" transform="translate(13.416 13.327)" fill="#263238"/>
        <g id="Grupo_927293" data-name="Grupo 927293" transform="translate(240.877 302.999)" opacity="0.3">
          <g id="Grupo_927292" data-name="Grupo 927292" transform="translate(0)">
            <g id="Grupo_927291" data-name="Grupo 927291" clip-path="url(#clip-path-8)">
              <path id="Trazado_641070" data-name="Trazado 641070" d="M235.465,284.763a113.741,113.741,0,0,1-9.085,54.743l10.586-.27a96.476,96.476,0,0,0-1.5-54.472" transform="translate(-226.38 -284.763)"/>
            </g>
          </g>
        </g>
        <path id="Trazado_641071" data-name="Trazado 641071" d="M219.941,211.653a2.675,2.675,0,0,1-.192.405l-.61,1.163c-.563,1.041-1.367,2.533-2.4,4.442-2.109,3.843-5.146,9.418-9.224,16.12a161.278,161.278,0,0,1-16.112,22.341c-1.718,1.909-3.864,3.845-6.66,4.391-2.77.585-5.635-.183-8.235-1.266-2.627-1.111-5.105-2.563-7.671-3.936l-7.785-4.225-53.8-29.311-16.272-8.938-4.409-2.454-1.141-.651a2.534,2.534,0,0,1-.379-.238,2.947,2.947,0,0,1,.406.189l1.166.6,4.461,2.363,16.356,8.783L161.318,250.6l7.781,4.228c2.565,1.375,5.05,2.831,7.623,3.921,2.553,1.07,5.312,1.8,7.917,1.249,2.622-.5,4.683-2.332,6.389-4.217a164.4,164.4,0,0,0,16.156-22.2c4.115-6.665,7.2-12.209,9.369-16.018l2.489-4.392.659-1.136a2.731,2.731,0,0,1,.24-.378" transform="translate(5.447 13.416)" fill="#fff"/>
        <path id="Trazado_641072" data-name="Trazado 641072" d="M223.938,201a67.958,67.958,0,0,1-4.165,7.6,67.839,67.839,0,0,1-4.641,7.315,67.746,67.746,0,0,1,4.165-7.6A67.832,67.832,0,0,1,223.938,201" transform="translate(13.776 12.872)" fill="#fff"/>
        <path id="Trazado_641073" data-name="Trazado 641073" d="M226.635,226.415a2.813,2.813,0,0,1-.145.434c-.116.306-.275.721-.477,1.252-.411,1.1-1.087,2.706-1.987,4.755a116.406,116.406,0,0,1-9.172,16.58,117.837,117.837,0,0,1-18.216,21.37,49.791,49.791,0,0,1-6.379,5.081,24.015,24.015,0,0,1-7.8,3.434,22.728,22.728,0,0,1-8.825.095A38.563,38.563,0,0,1,165,276.6c-5.59-2.546-10.617-5.781-15.607-8.636l-14.317-8.389c-9.115-5.354-17.324-10.175-24.226-14.231-6.868-4.056-12.433-7.345-16.309-9.634l-4.42-2.644c-.484-.3-.863-.529-1.142-.7a2.672,2.672,0,0,1-.38-.255,2.682,2.682,0,0,1,.409.206c.285.159.674.375,1.169.652l4.472,2.554c3.9,2.253,9.492,5.488,16.4,9.484l24.287,14.128c4.568,2.664,9.362,5.46,14.334,8.36,4.995,2.851,10.029,6.081,15.559,8.6a38.063,38.063,0,0,0,8.506,2.777,22.193,22.193,0,0,0,8.608-.081,23.5,23.5,0,0,0,7.628-3.349,49.592,49.592,0,0,0,6.323-5.012,119.246,119.246,0,0,0,18.235-21.213,122,122,0,0,0,9.3-16.451c.928-2.032,1.636-3.617,2.08-4.707l.527-1.232a3.061,3.061,0,0,1,.2-.413" transform="translate(5.674 14.499)" fill="#fff"/>
        <path id="Trazado_641074" data-name="Trazado 641074" d="M228.374,225.557a29.7,29.7,0,0,1-4.916,6.431,29.7,29.7,0,0,1,4.916-6.431" transform="translate(14.309 14.444)" fill="#fff"/>
        <path id="Trazado_641075" data-name="Trazado 641075" d="M186.832,135.214l30.506-3.8,31.108,22.008s5.277,39.175,6.313,42.351,9.814,20.241,9.814,20.241a12.137,12.137,0,0,0-10.581,2.156c-4.5,3.374-16.216,14.082-19.92,15.471,0,0-5.745-17.417-5.678-24.8s-2-24.316-2-24.316l-2.638-10.993-8.153-9.235-10.9-1.212s-3.112,6.342-7.8,3.286l-4.434-4.048,7.652-5.7s-9.536,6.807-13.16,1.38l-1.219-2.429,6.98-3.5s-6.478,2.568-7.449-.856l8.007-8.522s-8.576-1.939-6.451-7.476" transform="translate(11.865 8.416)" fill="#ffbe9d"/>
        <path id="Trazado_641076" data-name="Trazado 641076" d="M192.319,142.821c-.027-.03.256-.364.871-.861a11.584,11.584,0,0,1,2.9-1.674c2.637-1.008,6.3-2.162,10.354-3.493,4.075-1.287,7.7-2.518,10.457-3.213a4.092,4.092,0,0,1,3.306.552c.658.506.762.994.734.994a4.989,4.989,0,0,0-.877-.785,3.981,3.981,0,0,0-3.07-.312c-2.626.783-6.3,2.1-10.351,3.383l-10.387,3.3a19.632,19.632,0,0,0-3.935,2.107" transform="translate(12.316 8.547)" fill="#eb996e"/>
        <path id="Trazado_641077" data-name="Trazado 641077" d="M234.263,152.575a10.876,10.876,0,0,1-1.813-.845c-1.143-.592-2.777-1.485-4.748-2.675s-4.276-2.677-6.75-4.453c-1.248-.883-2.45-1.932-4.051-2.077a33.059,33.059,0,0,0-5.046-.19,15.408,15.408,0,0,0-4.9.964,29.867,29.867,0,0,0-4.171,2.186c-2.609,1.549-4.958,2.96-6.976,4.069s-3.69,1.937-4.877,2.442c-.595.25-1.061.432-1.385.534a1.6,1.6,0,0,1-.5.131,18.135,18.135,0,0,1,1.782-.895c1.146-.572,2.78-1.447,4.756-2.611s4.3-2.6,6.895-4.184a29.265,29.265,0,0,1,4.245-2.264,15.8,15.8,0,0,1,5.1-1.019,32.561,32.561,0,0,1,5.168.207,5.891,5.891,0,0,1,2.389.86c.7.434,1.309.924,1.923,1.364,2.442,1.793,4.709,3.313,6.642,4.547s3.525,2.187,4.628,2.845a12.867,12.867,0,0,1,1.691,1.065" transform="translate(12.106 9.072)" fill="#eb996e"/>
        <path id="Trazado_641078" data-name="Trazado 641078" d="M234.359,163.925a7.286,7.286,0,0,1-1.377-.748c-.969-.6-2.182-1.348-3.623-2.24l-5.329-3.393-3.135-2.023a31.541,31.541,0,0,0-3.389-2.041c-2.416-1.166-5.1-.865-7.4-.5-2.37.392-4.521.447-6.266.764a15.578,15.578,0,0,0-5.313,2.112c-.014-.017.086-.116.29-.287a8.508,8.508,0,0,1,.941-.692,11.493,11.493,0,0,1,3.994-1.584c1.788-.383,3.935-.484,6.254-.9a20.981,20.981,0,0,1,3.764-.369,9.452,9.452,0,0,1,4.015.875,30.2,30.2,0,0,1,3.461,2.1l3.113,2.054,5.252,3.51,3.511,2.413a7.281,7.281,0,0,1,1.239.96" transform="translate(12.713 9.735)" fill="#eb996e"/>
        <path id="Trazado_641079" data-name="Trazado 641079" d="M256.421,201.917l40.22,72.992a26.1,26.1,0,0,1-6.243,32.843c-5.463,4.438-13.011,12.043-19.991,11.874-21.046-.513-31.353-22.437-31.353-22.437l-12.121-84.212Z" transform="translate(14.533 12.93)" fill="#ffbe9d"/>
        <path id="Trazado_641080" data-name="Trazado 641080" d="M228.326,205.028c-5.144-1.46-8.043-6.969-9.136-12.2s-1-10.757-2.992-15.721c-1.755-4.379-4.985-7.969-8.021-11.58a11.358,11.358,0,0,1-2.865-4.971c-.355-1.9.539-4.184,2.4-4.71,1.417-.4,2.9.289,4.169,1.031a39.271,39.271,0,0,1,17.266,46.972" transform="translate(13.143 9.972)" fill="#ffbe9d"/>
        <path id="Trazado_641081" data-name="Trazado 641081" d="M228.444,214.738a3.11,3.11,0,0,1-.155-.66c-.082-.436-.2-1.08-.335-1.913-.236-1.668-.534-4.093-.743-7.1-.228-3-.378-6.589-.695-10.549a60.621,60.621,0,0,0-2.138-12.686c-.272-1.048-.7-2.03-1.052-3.023-.446-.952-.822-1.926-1.325-2.812a50.253,50.253,0,0,0-3.239-4.954c-2.23-3.064-4.15-6.056-4.884-8.965l.184.15-7.851-.589-2.134-.19a3.535,3.535,0,0,1-.742-.105,3.574,3.574,0,0,1,.749-.011l2.141.081,7.862.409.145.007.038.143c.758,2.814,2.657,5.718,4.911,8.771a49.917,49.917,0,0,1,3.3,4.992c.517.909.9,1.894,1.357,2.865.358,1.008.8,2.008,1.074,3.071a59.19,59.19,0,0,1,2.115,12.807c.29,3.978.4,7.561.577,10.563.159,3,.4,5.424.566,7.1.095.788.171,1.426.232,1.923a3.088,3.088,0,0,1,.045.678" transform="translate(13.021 10.331)" fill="#eb996e"/>
        <path id="Trazado_641082" data-name="Trazado 641082" d="M185.432,79.067c.146.031-.15,1.114-1.246,1.824s-2.2.556-2.171.411c0-.161.942-.253,1.867-.875.94-.6,1.4-1.426,1.549-1.36" transform="translate(11.656 5.063)" fill="#eb996e"/>
        <path id="Trazado_641083" data-name="Trazado 641083" d="M74.337,69.483c3.982-20.1,11.65-40.77,27.738-53.465C116.411,4.708,137.733-.166,155.979.543c8.985.348,19.143,4.463,26.981,8.869,10.748,6.041,15.33,18.344,20.54,29.517,10.438,22.384,9.216,52.743,2.219,61.2L112.2,149.882C95.588,141.3,77.5,129.6,73.061,111.44c-3.026-12.365-1.2-29.47,1.276-41.957" transform="translate(4.578 0.03)" fill="#e0e0e0"/>
        <path id="Trazado_641084" data-name="Trazado 641084" d="M107.427,31.961l58.9-17.573C185.309,11.563,198.982,34.5,201,53.589c2.241,21.2,4.14,47.177,2.293,63.146-3.712,32.112-27.884,40.562-27.884,40.562-.012-.107.186,8.189.186,8.189l3.686,20.464c-13.676,14.421-60.032,7.266-73.174-13.773L97.871,43.765a11.231,11.231,0,0,1,9.556-11.8" transform="translate(6.266 0.906)" fill="#ffbe9d"/>
        <path id="Trazado_641085" data-name="Trazado 641085" d="M186.161,75.98a4.1,4.1,0,0,1-3.77,4.294,3.914,3.914,0,0,1-4.373-3.509,4.1,4.1,0,0,1,3.766-4.3,3.919,3.919,0,0,1,4.377,3.511" transform="translate(11.399 4.639)" fill="#263238"/>
        <path id="Trazado_641086" data-name="Trazado 641086" d="M191,64.394c-.485.555-3.682-1.607-8.082-1.409-4.4.134-7.534,2.537-8.035,2.017-.245-.229.231-1.214,1.594-2.3a11.237,11.237,0,0,1,6.4-2.275,10.791,10.791,0,0,1,6.462,1.788c1.4.981,1.9,1.927,1.658,2.176" transform="translate(11.196 3.869)" fill="#263238"/>
        <path id="Trazado_641087" data-name="Trazado 641087" d="M148.612,77.316a4.094,4.094,0,0,1-3.77,4.294A3.916,3.916,0,0,1,140.47,78.1a4.1,4.1,0,0,1,3.766-4.3,3.918,3.918,0,0,1,4.376,3.511" transform="translate(8.995 4.725)" fill="#263238"/>
        <path id="Trazado_641088" data-name="Trazado 641088" d="M150.37,66.89c-.486.554-3.686-1.607-8.085-1.408-4.4.134-7.533,2.536-8.034,2.017-.244-.23.227-1.213,1.6-2.3a11.231,11.231,0,0,1,6.4-2.276,10.792,10.792,0,0,1,6.461,1.788c1.394.981,1.9,1.927,1.659,2.176" transform="translate(8.593 4.029)" fill="#263238"/>
        <path id="Trazado_641089" data-name="Trazado 641089" d="M165.926,98.9c-.031-.249,2.685-.838,7.1-1.593,1.119-.164,2.174-.432,2.331-1.208.23-.824-.292-2.014-.892-3.3q-1.759-4.013-3.688-8.419c-5.132-11.99-8.9-21.869-8.414-22.071s5.039,9.352,10.172,21.344q1.856,4.435,3.549,8.474c.48,1.26,1.273,2.678.77,4.388a2.826,2.826,0,0,1-1.779,1.722,7.669,7.669,0,0,1-1.9.346c-4.452.429-7.22.567-7.247.317" transform="translate(10.395 3.99)" fill="#263238"/>
        <path id="Trazado_641090" data-name="Trazado 641090" d="M173.418,149.482l.1,7.952c-31.8,4.337-43.305-17.535-43.305-17.535a81.211,81.211,0,0,0,43.2,9.584" transform="translate(8.339 8.959)" fill="#eb996e"/>
        <path id="Trazado_641091" data-name="Trazado 641091" d="M152.418,105.206a7.077,7.077,0,0,1,5.744-3.453,9.2,9.2,0,0,1,8.557,3.8c.785.866.826,3.4.547,4.113s-.054.359-.578.863c-1.9,1.823-3.9,3.648-6.406,4.358a6.908,6.908,0,0,1-7.4-2.375,7.05,7.05,0,0,1-.461-7.3" transform="translate(9.709 6.514)" fill="#eb996e"/>
        <path id="Trazado_641092" data-name="Trazado 641092" d="M153.693,100.072c.714-.071.926,4.706,5.16,7.924s9.3,2.477,9.362,3.143c.08.3-1.095.977-3.242,1.126a11.908,11.908,0,0,1-7.8-2.354,10.368,10.368,0,0,1-4.02-6.657c-.267-1.99.216-3.2.544-3.183" transform="translate(9.803 6.408)" fill="#263238"/>
        <path id="Trazado_641093" data-name="Trazado 641093" d="M151.982,53.5c-.383,1.215-4.8.834-9.939,1.676-5.156.738-9.256,2.426-9.987,1.382-.328-.5.35-1.658,1.986-2.888a17.527,17.527,0,0,1,15.181-2.33c1.928.684,2.923,1.584,2.76,2.16" transform="translate(8.452 3.237)" fill="#e0e0e0"/>
        <path id="Trazado_641094" data-name="Trazado 641094" d="M188.82,50.175c-.731,1.032-3.808.123-7.457.229-3.652-.021-6.706.958-7.461-.059-.333-.494.112-1.516,1.419-2.52a10.8,10.8,0,0,1,12.02-.137c1.332.973,1.8,1.984,1.478,2.487" transform="translate(11.13 2.941)" fill="#e0e0e0"/>
        <path id="Trazado_641095" data-name="Trazado 641095" d="M108.273,78.234c-.446-.187-17.966-5.071-17.175,12.732s18.5,13.337,18.51,12.825-1.335-25.557-1.335-25.557" transform="translate(5.832 4.962)" fill="#ffbe9d"/>
        <path id="Trazado_641096" data-name="Trazado 641096" d="M103.6,96.935c-.081-.053-.3.231-.815.495a3.1,3.1,0,0,1-2.315.15c-1.911-.607-3.628-3.522-3.857-6.727a10.261,10.261,0,0,1,.671-4.48,3.584,3.584,0,0,1,2.227-2.483,1.579,1.579,0,0,1,1.868.768c.261.487.163.848.259.875.052.041.369-.316.193-1.045a1.976,1.976,0,0,0-.749-1.084,2.347,2.347,0,0,0-1.735-.378,4.365,4.365,0,0,0-3.118,2.9,10.539,10.539,0,0,0-.854,5.009c.273,3.583,2.259,6.858,4.866,7.488a3.322,3.322,0,0,0,2.815-.6c.532-.464.608-.866.545-.9" transform="translate(6.106 5.315)" fill="#eb996e"/>
        <path id="Trazado_641097" data-name="Trazado 641097" d="M199.49,59c-2.581-5.079-7.385-8.68-12.434-11.319s-10.479-4.5-15.5-7.181a53.54,53.54,0,0,1-24.992-29.083c8.6-4.836,19.534-4.709,28.527-.645s16.077,11.748,20.461,20.589,6.214,18.787,6.463,28.651" transform="translate(9.386 0.497)" fill="#e0e0e0"/>
        <path id="Trazado_641098" data-name="Trazado 641098" d="M102.4,27.631c12.722-12.98,37.358-20.771,54.736-15.522-2.017,15.082-12.729,32.321-22.275,44.172-9.606,11.926-14.928,32.414-36.965,26.3-1.516-.421-3.185,1.007-4.57.259a5.577,5.577,0,0,1-2.22-3.226A51.108,51.108,0,0,1,102.4,27.631" transform="translate(5.653 0.669)" fill="#e0e0e0"/>
        <path id="Trazado_641099" data-name="Trazado 641099" d="M197.012,80.183a6.558,6.558,0,0,0,3.123-.29,12.235,12.235,0,0,0,6.665-5.277c2.062-3.084,2.851-7.645,2.265-12.4a45.858,45.858,0,0,0-1.517-7.351A77.453,77.453,0,0,0,190.29,23.351a72.364,72.364,0,0,0-6.077-5.985l-1.8-1.463a2.694,2.694,0,0,0-.666-.462,21.111,21.111,0,0,0,2.227,2.184c1.417,1.417,3.517,3.421,5.835,6.148a82.819,82.819,0,0,1,14.374,23.782c.96,2.547,1.846,5.058,2.51,7.541a46.543,46.543,0,0,1,1.543,7.212c.611,4.636-.087,8.99-1.98,11.967a12.234,12.234,0,0,1-6.231,5.282,16.166,16.166,0,0,1-3.015.625" transform="translate(11.639 0.989)" fill="#e0e0e0"/>
        <path id="Trazado_641100" data-name="Trazado 641100" d="M52.4,32.164c-.237-8.357,1.754-17.1,7.224-23.418C67.214-.032,80.969-2.435,91.426,2.6s17.087,16.729,16.8,28.331-7.106,22.651-16.946,28.8l-7.374-.574c-7.234,4.141-17,1.737-22.892-4.157S52.634,40.5,52.4,32.164" transform="translate(3.354 0)" fill="#e0e0e0"/>
        <path id="Trazado_641101" data-name="Trazado 641101" d="M94.419,24.435c-.023.018.113.219.393.586A20.128,20.128,0,0,0,96.1,26.58a32.32,32.32,0,0,0,5.588,4.909,35.567,35.567,0,0,0,9.919,4.85,35.273,35.273,0,0,0,13.437,1.478A35.247,35.247,0,0,0,138,33.946a35.574,35.574,0,0,0,8.884-6.556,32.253,32.253,0,0,0,4.616-5.834,20.119,20.119,0,0,0,.984-1.765,2.2,2.2,0,0,0,.282-.647c-.172-.122-1.83,3.484-6.295,7.826a36.559,36.559,0,0,1-8.824,6.293,35.4,35.4,0,0,1-12.676,3.723A35.41,35.41,0,0,1,111.831,35.6a36.529,36.529,0,0,1-9.81-4.6c-5.174-3.468-7.453-6.718-7.6-6.566" transform="translate(6.046 1.226)" fill="#fff"/>
        <path id="Trazado_641102" data-name="Trazado 641102" d="M87.2,48.914c-.019.022.194.222.617.585a18.2,18.2,0,0,0,1.92,1.509,27.9,27.9,0,0,0,8.091,3.882A35.463,35.463,0,0,0,111.069,56.2a40.818,40.818,0,0,0,15.623-4.618,51.715,51.715,0,0,0,12.856-10.023,67.9,67.9,0,0,0,8.108-10.551,80.471,80.471,0,0,0,4.356-7.83c.473-.946.79-1.7,1.017-2.213a3.231,3.231,0,0,0,.3-.8,3.282,3.282,0,0,0-.448.724l-1.154,2.138c-1,1.855-2.5,4.514-4.564,7.659a71.3,71.3,0,0,1-8.17,10.34,52.28,52.28,0,0,1-12.7,9.819A40.869,40.869,0,0,1,111,55.435a35.888,35.888,0,0,1-13.011-1.111,29.8,29.8,0,0,1-8.076-3.586c-1.759-1.142-2.662-1.891-2.716-1.824" transform="translate(5.584 1.292)" fill="#fff"/>
        <path id="Trazado_641103" data-name="Trazado 641103" d="M58.833,22.615c-.043.038.243.414.8,1.063a21.5,21.5,0,0,0,2.6,2.522,29.089,29.089,0,0,0,4.433,3.061,33.6,33.6,0,0,0,6.067,2.607,33.636,33.636,0,0,0,6.483,1.264,29.27,29.27,0,0,0,5.387-.032,21.666,21.666,0,0,0,3.571-.618,4.126,4.126,0,0,0,1.26-.428c-.034-.15-1.868.295-4.874.456A33.968,33.968,0,0,1,72.982,31.07,33.982,33.982,0,0,1,62.6,25.738c-2.392-1.827-3.658-3.227-3.77-3.123" transform="translate(3.767 1.448)" fill="#fff"/>
        <path id="Trazado_641104" data-name="Trazado 641104" d="M52.984,33.333a2.584,2.584,0,0,0-.173,1.448,6.844,6.844,0,0,0,1.507,3.689,11.777,11.777,0,0,0,4.823,3.4,35.4,35.4,0,0,0,6.879,2.02,36.441,36.441,0,0,0,12.955.092,29.966,29.966,0,0,0,3.823-.924,4.781,4.781,0,0,0,1.338-.547c-.04-.142-2,.467-5.25.886a40.623,40.623,0,0,1-12.712-.328c-4.841-.973-9.337-2.469-11.4-4.973a7.066,7.066,0,0,1-1.641-3.355c-.159-.886-.077-1.4-.15-1.409" transform="translate(3.381 2.135)" fill="#fff"/>
        <path id="Trazado_641105" data-name="Trazado 641105" d="M154.139,97.493a13.026,13.026,0,0,1-1.863.017,12.685,12.685,0,0,0-8.065,3.17c-.853.752-1.3,1.311-1.377,1.256a4.272,4.272,0,0,1,1.106-1.539,11,11,0,0,1,8.342-3.278,4.281,4.281,0,0,1,1.858.375" transform="translate(9.147 6.218)" fill="#eb996e"/>
        <path id="Trazado_641106" data-name="Trazado 641106" d="M143.543,83.627a4.124,4.124,0,0,1-5.155-1.108,25.358,25.358,0,0,0,2.494.944,25.465,25.465,0,0,0,2.661.164" transform="translate(8.862 5.284)" fill="#eb996e"/>
        <path id="Trazado_641107" data-name="Trazado 641107" d="M119.365,164.013a2.671,2.671,0,0,0,.08-3.257c-.242-.476-.589-.981-.925-1.555a4.863,4.863,0,0,1-.745-2.053c-.133-1.707,1.324-3,1.478-4.542a3.189,3.189,0,0,0-.7-2.129c-.443-.636-.969-1.207-1.423-1.807a5.291,5.291,0,0,1-1.187-3.8,5.1,5.1,0,0,1,.9-2.535c.373-.519.666-.725.684-.7a8.62,8.62,0,0,1-.5.819,5.378,5.378,0,0,0-.687,2.443,4.994,4.994,0,0,0,1.2,3.463c.444.568.98,1.13,1.462,1.808a3.69,3.69,0,0,1,.8,2.49,6.735,6.735,0,0,1-.914,2.4,4.038,4.038,0,0,0-.605,2.059c.114,1.368,1.064,2.428,1.514,3.473a3.52,3.52,0,0,1,.22,2.68c-.272.616-.652.764-.654.743" transform="translate(7.424 9.07)" fill="#eb996e"/>
        <path id="Trazado_641108" data-name="Trazado 641108" d="M126.1,162.259c-.043-.024.12-.278.219-.782a4.42,4.42,0,0,0-.193-2.143c-.251-.891-.829-1.861-1.234-3.1a4.714,4.714,0,0,1-.234-2.054c.1-.731.393-1.4.546-2.065a2.169,2.169,0,0,0-.265-1.814,6.919,6.919,0,0,0-1.339-1.329,6.053,6.053,0,0,1-1.274-1.338,3.3,3.3,0,0,1-.5-1.562,3.431,3.431,0,0,1,.6-2.228c.328-.446.6-.6.616-.577.033.035-.183.242-.433.692a3.475,3.475,0,0,0-.395,2.077,2.991,2.991,0,0,0,.495,1.346,5.88,5.88,0,0,0,1.215,1.2,7,7,0,0,1,1.464,1.42,2.7,2.7,0,0,1,.354,2.238c-.176.743-.462,1.387-.549,2.016a4.328,4.328,0,0,0,.185,1.831c.349,1.163.9,2.183,1.124,3.142a4.179,4.179,0,0,1,.023,2.3c-.176.528-.409.745-.428.728" transform="translate(7.801 9.175)" fill="#eb996e"/>
        <path id="Trazado_641109" data-name="Trazado 641109" d="M74.763,65.619a.923.923,0,0,1,.249.063l.709.235c.629.188,1.514.589,2.72.9a45.707,45.707,0,0,0,10.337,1.837A52.268,52.268,0,0,0,104.251,67.3a59.229,59.229,0,0,0,17.531-7.33,71.6,71.6,0,0,0,14.556-12.289,88.647,88.647,0,0,0,9.441-12.419c2.379-3.76,4.093-6.934,5.22-9.155.584-1.1.983-1.982,1.288-2.563.138-.267.251-.485.343-.664.081-.149.126-.222.135-.218a.94.94,0,0,1-.083.242c-.079.185-.176.411-.293.687-.272.6-.641,1.495-1.2,2.612a97.247,97.247,0,0,1-5.082,9.268,86.121,86.121,0,0,1-9.4,12.555,70.9,70.9,0,0,1-14.639,12.414,58.956,58.956,0,0,1-17.71,7.359A51.641,51.641,0,0,1,88.75,69.044a43.375,43.375,0,0,1-10.373-2.021c-1.2-.345-2.079-.78-2.7-1l-.689-.287a.888.888,0,0,1-.228-.115" transform="translate(4.788 1.451)" fill="#263238"/>
        <path id="Trazado_641110" data-name="Trazado 641110" d="M100.939,17.583c.013.014-.1.144-.331.377l-1.02,1c-.45.426-1,.949-1.6,1.586S96.65,21.871,95.916,22.7c-1.515,1.611-3.222,3.62-5.014,5.929a89.415,89.415,0,0,0-5.34,7.858,89.334,89.334,0,0,0-4.387,8.43c-1.183,2.673-2.142,5.128-2.842,7.226-.382,1.038-.651,2-.918,2.841s-.475,1.566-.634,2.164l-.4,1.372a1.681,1.681,0,0,1-.174.47,1.767,1.767,0,0,1,.066-.5l.3-1.4c.129-.608.3-1.348.546-2.2s.484-1.827.844-2.878a73.842,73.842,0,0,1,2.747-7.311A75.884,75.884,0,0,1,90.5,28.316a73.777,73.777,0,0,1,5.133-5.885c.755-.816,1.5-1.494,2.134-2.108s1.2-1.12,1.675-1.523l1.092-.924a1.683,1.683,0,0,1,.405-.294" transform="translate(4.88 1.126)" fill="#263238"/>
        <path id="Trazado_641111" data-name="Trazado 641111" d="M199.342,41.425a2.4,2.4,0,0,1-.594-.1l-1.679-.394c-.73-.167-1.618-.394-2.63-.722s-2.187-.641-3.435-1.13c-1.262-.454-2.639-.964-4.077-1.612-1.463-.591-2.964-1.359-4.556-2.14a80.394,80.394,0,0,1-9.809-6.059,80.492,80.492,0,0,1-8.749-7.512c-1.227-1.281-2.414-2.478-3.421-3.694-1.053-1.174-1.957-2.332-2.772-3.4-.845-1.042-1.5-2.061-2.117-2.93s-1.106-1.643-1.486-2.288l-.884-1.481a2.419,2.419,0,0,1-.275-.534,2.453,2.453,0,0,1,.37.477L154.2,9.33c.408.625.917,1.382,1.559,2.227s1.313,1.847,2.174,2.868c.83,1.043,1.745,2.18,2.808,3.334,1.015,1.2,2.207,2.373,3.435,3.636a84.587,84.587,0,0,0,8.717,7.427,84.571,84.571,0,0,0,9.718,6.053c1.575.787,3.058,1.566,4.505,2.171,1.42.663,2.781,1.191,4.027,1.665,1.233.511,2.391.855,3.392,1.2s1.876.612,2.6.811l1.648.493a2.511,2.511,0,0,1,.567.209" transform="translate(9.789 0.476)" fill="#263238"/>
        <path id="Trazado_641112" data-name="Trazado 641112" d="M92.03,82.1c.02.033-.231.22-.7.533a23.941,23.941,0,0,1-2.073,1.207,36.316,36.316,0,0,1-15.194,4.085,23.652,23.652,0,0,1-2.4,0,2.714,2.714,0,0,1-.876-.107c0-.089,1.249-.1,3.249-.279a44.126,44.126,0,0,0,15.047-4.045c1.817-.85,2.9-1.465,2.951-1.389" transform="translate(4.533 5.257)" fill="#263238"/>
        <path id="Trazado_641113" data-name="Trazado 641113" d="M150.907,336.044,83.365,311.07l-7.233,14.559s-16.916,7.045-17.806,29.564L68.611,371.08l80.938,3.1Z" transform="translate(3.735 19.92)" fill="#ffbe9d"/>
        <path id="Trazado_641114" data-name="Trazado 641114" d="M216.239,350.437c-4.665-4.8-17.376-9.324-23.9-10.819l7.75,16.546c2.138,1.649,10.323,4.557,13.023,4.633s5.6-1.7,5.946-4.382c.287-2.264-1.229-4.341-2.82-5.978" transform="translate(12.317 21.749)" fill="#ffbe9d"/>
        <path id="Trazado_641115" data-name="Trazado 641115" d="M149.562,299.4a4.085,4.085,0,0,0,.035,5.7l28.955,29.367,36.7,37.156,8.793,3.771-3.127-9.505-65.5-66.524a4.085,4.085,0,0,0-5.855.035" transform="translate(9.505 19.093)" fill="#263238"/>
        <path id="Trazado_641116" data-name="Trazado 641116" d="M145.637,334.693l1.146-.129,25.522-2.86,6.353-1.933a11.071,11.071,0,0,1,8.362.793c6.526,3.421,18.915,10.548,23.362,17.443a7.953,7.953,0,0,1,.493,7.633l-1.788,3.882s3.908,2.989,1.149,8.967-7.194,5.057-7.194,5.057a14.705,14.705,0,0,1-9.818,4.828h-6.207a10.238,10.238,0,0,1-6.208,3.449c-4.138.689-20.291-2.784-21.913-3.324-.786-.262-18.2-7.1-18.2-7.1Z" transform="translate(9.01 21.087)" fill="#ffbe9d"/>
        <path id="Trazado_641117" data-name="Trazado 641117" d="M195.258,337.274a13.177,13.177,0,0,1,3.168,1.871,50.027,50.027,0,0,1,6.78,5.741,15.233,15.233,0,0,1,1.638,1.976,7.192,7.192,0,0,1,.951,2.229,10.189,10.189,0,0,1,.23,4.034,9.228,9.228,0,0,1-.754,2.609,2.666,2.666,0,0,1-.51.853,17.153,17.153,0,0,0,.876-3.508,9.092,9.092,0,0,0-2.831-7.811,64.881,64.881,0,0,0-6.611-5.809c-1.781-1.392-2.972-2.116-2.936-2.186" transform="translate(12.504 21.598)" fill="#eb996e"/>
        <path id="Trazado_641118" data-name="Trazado 641118" d="M206.069,357.726a3.516,3.516,0,0,1-1.057.116,16.95,16.95,0,0,1-2.892-.17,26.317,26.317,0,0,1-8.99-3.146,52.339,52.339,0,0,1-7.8-5.462c-.937-.776-1.681-1.42-2.187-1.876s-.772-.721-.749-.751a30.618,30.618,0,0,1,3.178,2.32,65.954,65.954,0,0,0,7.826,5.284,28.926,28.926,0,0,0,8.785,3.245c2.374.426,3.886.339,3.887.441" transform="translate(11.68 22.185)" fill="#eb996e"/>
        <path id="Trazado_641119" data-name="Trazado 641119" d="M202.421,371.23a2.546,2.546,0,0,1-.946.068,12.556,12.556,0,0,1-2.56-.358,46.922,46.922,0,0,1-7.876-3.126c-3-1.369-5.707-2.637-7.654-3.579a21.958,21.958,0,0,1-3.1-1.63,21.864,21.864,0,0,1,3.264,1.274c1.988.851,4.718,2.063,7.721,3.432a61.3,61.3,0,0,0,7.746,3.251,34.126,34.126,0,0,0,3.406.669" transform="translate(11.545 23.22)" fill="#eb996e"/>
        <path id="Trazado_641120" data-name="Trazado 641120" d="M183.365,374.825a13.985,13.985,0,0,1-7.33-3.96c.1-.127,1.612.969,3.627,2.051s3.753,1.755,3.7,1.909" transform="translate(11.273 23.749)" fill="#eb996e"/>
        <path id="Trazado_641121" data-name="Trazado 641121" d="M154.36,333.342a10.794,10.794,0,0,1-2.539.727,53.886,53.886,0,0,1-12.658,1.192,10.8,10.8,0,0,1-2.629-.239,14.836,14.836,0,0,1,2.628-.152c1.621-.05,3.855-.151,6.314-.382s4.672-.55,6.273-.8a14.756,14.756,0,0,1,2.611-.342" transform="translate(8.744 21.345)" fill="#eb996e"/>
        <path id="Trazado_641122" data-name="Trazado 641122" d="M110.548,329.042c.8-4.558-14.436-18.823-24.967-13.44l1.2-7.011L81.935,165.815s-39.2,3.16-55.225,47.231-30.025,97-26.018,118.521,11.957,37.64,23.975,44.763,44.961,7.123,44.961,7.123Z" transform="translate(0 10.619)" fill="#f9a21b"/>
        <path id="Trazado_641123" data-name="Trazado 641123" d="M89.189,305.785a2.252,2.252,0,0,1-.564.106L87,306.086c-.7.069-1.564.168-2.553.353s-2.127.314-3.354.624l-1.935.433c-.672.155-1.356.378-2.072.574-1.441.37-2.929.925-4.507,1.469a61.537,61.537,0,0,0-18.626,10.967c-1.242,1.115-2.449,2.148-3.471,3.228-.519.531-1.046,1.02-1.507,1.533l-1.318,1.482c-.866.923-1.539,1.849-2.173,2.629s-1.145,1.479-1.546,2.062c-.386.532-.7.969-.958,1.322a2.277,2.277,0,0,1-.366.442,2.187,2.187,0,0,1,.272-.5l.873-1.383a24.047,24.047,0,0,1,1.479-2.126c.613-.8,1.268-1.752,2.121-2.7l1.3-1.516c.456-.525.979-1.025,1.495-1.567,1.016-1.1,2.221-2.157,3.465-3.292A59.4,59.4,0,0,1,72.408,309.06c1.6-.537,3.1-1.079,4.558-1.432.725-.188,1.416-.4,2.1-.547l1.957-.4c1.241-.286,2.389-.4,3.388-.546a23.955,23.955,0,0,1,2.577-.261l1.633-.093a2.218,2.218,0,0,1,.571.005" transform="translate(2.729 19.581)" fill="#263238"/>
        <path id="Trazado_641124" data-name="Trazado 641124" d="M80.7,306.826a12.1,12.1,0,0,1-1.873-.169c-1.2-.151-2.938-.351-5.085-.57-4.3-.445-10.251-.878-16.839-.915s-12.549.344-16.849.744c-2.15.2-3.89.38-5.09.519a12.043,12.043,0,0,1-1.875.15,12.354,12.354,0,0,1,1.846-.364c1.193-.205,2.928-.446,5.079-.695a143.879,143.879,0,0,1,33.773.171c2.147.27,3.879.529,5.072.746a12.289,12.289,0,0,1,1.842.383" transform="translate(2.119 19.507)" fill="#263238"/>
        <path id="Trazado_641125" data-name="Trazado 641125" d="M105.582,325.361a5.147,5.147,0,0,0-.009-.636,6.089,6.089,0,0,0-.479-1.774,16.724,16.724,0,0,0-4.267-5.487,42.652,42.652,0,0,0-3.881-3.13,16.208,16.208,0,0,0-5.27-2.367,27.72,27.72,0,0,0-13.751.489l-.377.1.057-.377c1.234-8.124,2.648-17.428,4.144-27.276,1.3-8.471,2.542-16.538,3.67-23.882,1.042-7.346,1.733-14,2.223-19.59s.722-10.13.781-13.266c.033-1.568.017-2.787-.013-3.611-.013-.387-.022-.7-.03-.94a1.36,1.36,0,0,1,.008-.322,1.373,1.373,0,0,1,.048.318c.021.242.05.551.084.937.067.826.117,2.047.117,3.619.009,3.145-.162,7.7-.605,13.3s-1.092,12.264-2.108,19.63c-1.115,7.348-2.341,15.42-3.627,23.9-1.517,9.843-2.951,19.144-4.2,27.265l-.318-.275a27.966,27.966,0,0,1,14-.414,16.512,16.512,0,0,1,5.376,2.476,41.559,41.559,0,0,1,3.873,3.2,16.338,16.338,0,0,1,4.21,5.644,5.683,5.683,0,0,1,.414,1.828,1.444,1.444,0,0,1-.071.641" transform="translate(4.966 14.299)" fill="#263238"/>
        <g id="Grupo_927296" data-name="Grupo 927296" transform="translate(41.406 326.518)" opacity="0.3">
          <g id="Grupo_927295" data-name="Grupo 927295" transform="translate(0)">
            <g id="Grupo_927294" data-name="Grupo 927294" clip-path="url(#clip-path-9)">
              <path id="Trazado_641126" data-name="Trazado 641126" d="M80.327,306.867c-7.915.47-16.439,1.664-23.653,4.957s-13.654,8.683-17.162,15.793a4.484,4.484,0,0,0-.6,2.025,1.711,1.711,0,0,0,1.109,1.65,2.511,2.511,0,0,0,2.037-.693c4.188-3.1,7.807-6.889,11.825-10.2,7.787-6.418,16.6-11.3,26.442-13.532" transform="translate(-38.914 -306.867)"/>
            </g>
          </g>
        </g>
        <g id="Grupo_927299" data-name="Grupo 927299" transform="translate(82.819 244.23)" opacity="0.3">
          <g id="Grupo_927298" data-name="Grupo 927298" transform="translate(0)">
            <g id="Grupo_927297" data-name="Grupo 927297" clip-path="url(#clip-path-10)">
              <path id="Trazado_641127" data-name="Trazado 641127" d="M77.835,311.634c17.547-22.788,22.72-55.915,10.83-82.1-1.731,27.157-6.6,54.448-10.83,82.1" transform="translate(-77.834 -229.531)"/>
            </g>
          </g>
        </g>
        <path id="Trazado_641128" data-name="Trazado 641128" d="M87.315,217.031c-.049,0-.113-.816-.3-2.282a39.483,39.483,0,0,0-1.311-6.11,37.746,37.746,0,0,0-28.837-26.524,39.536,39.536,0,0,0-6.2-.8c-1.477-.067-2.3-.063-2.3-.112a2.412,2.412,0,0,1,.595-.061c.391-.011.967-.068,1.711-.044a34.631,34.631,0,0,1,6.267.628,37.211,37.211,0,0,1,29.137,26.8,34.58,34.58,0,0,1,1.148,6.194c.086.738.078,1.319.1,1.709a2.437,2.437,0,0,1-.012.6" transform="translate(3.098 11.597)" fill="#263238"/>
        <path id="Trazado_641129" data-name="Trazado 641129" d="M86.651,215.455a2.4,2.4,0,0,1-.466-.368l-1.259-1.132c-.537-.5-1.2-1.107-2.009-1.767s-1.682-1.463-2.736-2.247c-1.032-.81-2.166-1.692-3.44-2.562-1.241-.916-2.642-1.785-4.1-2.726a89.466,89.466,0,0,0-9.956-5.272A89.547,89.547,0,0,0,52.1,195.528c-1.675-.449-3.258-.905-4.771-1.211-1.5-.362-2.914-.611-4.207-.833-1.287-.256-2.47-.376-3.5-.522s-1.926-.243-2.658-.3l-1.683-.174a2.444,2.444,0,0,1-.586-.1,2.354,2.354,0,0,1,.593-.013l1.694.071c.737.029,1.636.084,2.676.211s2.23.212,3.529.444c1.3.2,2.729.428,4.242.771,1.526.288,3.124.73,4.813,1.168a84.8,84.8,0,0,1,10.677,3.836,84.9,84.9,0,0,1,10,5.346c1.458.959,2.857,1.847,4.093,2.786,1.269.892,2.4,1.8,3.418,2.63,1.043.808,1.91,1.628,2.7,2.32s1.435,1.316,1.951,1.844l1.19,1.209a2.365,2.365,0,0,1,.387.448" transform="translate(2.221 12.319)" fill="#fff"/>
        <path id="Trazado_641130" data-name="Trazado 641130" d="M89.948,243.707a3.8,3.8,0,0,1-.611-.435l-1.679-1.33c-.72-.588-1.609-1.3-2.671-2.084s-2.233-1.728-3.6-2.67c-1.351-.968-2.834-2.023-4.476-3.08-1.612-1.1-3.4-2.177-5.271-3.33-3.778-2.237-8.024-4.543-12.61-6.7-4.6-2.128-9.1-3.9-13.241-5.356-2.084-.689-4.057-1.373-5.939-1.9-1.866-.578-3.627-1.036-5.237-1.449-1.6-.444-3.075-.742-4.36-1.044s-2.4-.532-3.313-.705l-2.1-.432a3.8,3.8,0,0,1-.726-.188,3.763,3.763,0,0,1,.745.078l2.119.33c.921.141,2.045.334,3.338.615s2.778.546,4.391.967c1.621.389,3.393.827,5.271,1.389,1.894.509,3.879,1.177,5.977,1.856a141.951,141.951,0,0,1,13.309,5.337A142.013,142.013,0,0,1,71.9,230.34c1.867,1.17,3.656,2.261,5.263,3.385,1.638,1.079,3.111,2.156,4.452,3.146,1.359.965,2.521,1.927,3.562,2.743s1.916,1.547,2.618,2.161l1.614,1.412a3.8,3.8,0,0,1,.538.52" transform="translate(1.544 13.64)" fill="#fff"/>
      </g>
    </g>
    <g id="Grupo_927303" data-name="Grupo 927303">
      <g id="Grupo_927302" data-name="Grupo 927302" clip-path="url(#clip-path-3)">
        <path id="Trazado_641131" data-name="Trazado 641131" d="M204.012,79.005A49.715,49.715,0,1,0,251.5,27.157a49.715,49.715,0,0,0-47.486,51.848" transform="translate(13.062 1.736)" fill="#fafafa"/>
        <path id="Trazado_641132" data-name="Trazado 641132" d="M203.894,79.02a49.87,49.87,0,1,0,47.634-52.01,49.87,49.87,0,0,0-47.634,52.01" transform="translate(13.054 1.727)" fill="#fff"/>
        <path id="Trazado_641133" data-name="Trazado 641133" d="M203.911,99.336c-.013.05.53.126,1.383.558a6.588,6.588,0,0,1,2.789,2.808,6.253,6.253,0,0,1,.718,2.632,5.436,5.436,0,0,1-.783,2.99,5.949,5.949,0,0,1-11.05-1.547,5.446,5.446,0,0,1,.067-3.09,6.237,6.237,0,0,1,1.415-2.333,6.576,6.576,0,0,1,3.452-1.934c.938-.181,1.481-.105,1.483-.156A1.242,1.242,0,0,0,203,99.2a2.463,2.463,0,0,0-.476-.014,3.948,3.948,0,0,0-.65.054,6.684,6.684,0,0,0-5.2,4.325,5.81,5.81,0,0,0-.117,3.319,6.778,6.778,0,0,0,1.834,3.175,5.99,5.99,0,0,0,7.365,1.031,6.765,6.765,0,0,0,2.635-2.55,5.788,5.788,0,0,0,.8-3.222,6.676,6.676,0,0,0-3.812-5.587,3.748,3.748,0,0,0-.611-.231,2.415,2.415,0,0,0-.462-.118,1.224,1.224,0,0,0-.389-.046" transform="translate(12.575 6.351)" fill="#263238"/>
        <path id="Trazado_641134" data-name="Trazado 641134" d="M203.737,76.705s.03-.275.066-.81.084-1.34.148-2.375c.031-.522.066-1.107.1-1.749.067-.641.2-1.334.317-2.09s.249-1.567.387-2.436a8.548,8.548,0,0,1,.287-1.329q.179-.68.368-1.4a47.652,47.652,0,0,1,5.555-13.275,49.738,49.738,0,0,1,12.7-14.126l2.158-1.6c.759-.495,1.557-.948,2.346-1.433l1.2-.721a9.6,9.6,0,0,1,1.236-.68l2.589-1.237c.437-.205.871-.423,1.317-.621l1.383-.5L238.7,29.3c.953-.314,1.95-.515,2.937-.781l1.494-.38c.25-.06.5-.134.753-.183l.77-.115a46.238,46.238,0,0,1,6.3-.718c1.075-.035,2.157-.138,3.247-.119l3.3.176c.552.039,1.111.036,1.664.111l1.66.259c1.109.185,2.237.317,3.351.55a52.662,52.662,0,0,1,6.637,1.961l1.651.609c.275.1.554.2.827.312l.8.387,3.214,1.558c1.051.572,2.058,1.239,3.1,1.858.509.328,1.052.607,1.536.976l1.464,1.1a56.168,56.168,0,0,1,5.639,4.812l2.526,2.793.635.7c.2.247.38.505.57.759l1.137,1.528,1.142,1.534,1,1.64,1,1.651.5.828c.15.285.282.581.424.871l1.683,3.515q.67,1.839,1.344,3.69A53.162,53.162,0,0,1,303.542,76.9a53.177,53.177,0,0,1-2.6,15.708l-1.359,3.686-1.7,3.509-.427.87-.5.826-1,1.647-1.006,1.638-1.149,1.53-1.143,1.524-.574.757-.638.7-2.538,2.784a55.866,55.866,0,0,1-5.66,4.79l-1.468,1.095c-.486.367-1.031.644-1.541.969-1.043.616-2.052,1.278-3.106,1.846l-3.221,1.546-.8.384c-.271.113-.552.2-.828.308l-1.654.6a52.913,52.913,0,0,1-6.646,1.934c-1.116.228-2.244.355-3.353.536l-1.662.252c-.553.071-1.112.067-1.664.1l-3.3.163c-1.091.014-2.174-.094-3.247-.133a46.361,46.361,0,0,1-6.3-.744l-.77-.118c-.253-.05-.5-.126-.752-.186l-1.492-.385c-.985-.271-1.982-.476-2.934-.794l-2.8-1.028-1.381-.506-1.314-.628-2.585-1.247a9.949,9.949,0,0,1-1.234-.685L228,119.424c-.787-.488-1.583-.944-2.34-1.443l-2.152-1.611a49.759,49.759,0,0,1-12.644-14.177c-.362-.6-.733-1.189-1.069-1.778q-.444-.918-.869-1.8l-.836-1.733c-.132-.285-.282-.56-.4-.846s-.211-.576-.315-.859q-.624-1.7-1.193-3.25c-.35-1.043-.558-2.073-.824-3.028q-.185-.72-.362-1.4a8.569,8.569,0,0,1-.282-1.331q-.2-1.3-.378-2.437c-.11-.755-.244-1.45-.309-2.091-.035-.643-.067-1.227-.1-1.749q-.089-1.553-.138-2.375c-.034-.535-.063-.81-.063-.81s0,.275.016.811.052,1.342.092,2.379q.033.787.074,1.755c.057.644.184,1.341.287,2.1s.23,1.575.358,2.447a8.6,8.6,0,0,0,.272,1.337q.171.683.353,1.407c.26.961.462,2,.807,3.045q.562,1.561,1.179,3.271c.1.285.206.574.312.864s.262.564.393.851q.409.857.832,1.746l.865,1.816c.335.594.705,1.183,1.067,1.791a49.825,49.825,0,0,0,12.667,14.306l2.161,1.627c.76.5,1.56.966,2.352,1.46l1.2.734a9.945,9.945,0,0,0,1.241.694l2.6,1.263c.439.21.876.432,1.323.634l1.391.515L238.4,124.6c.958.322,1.961.531,2.955.805l1.5.392c.252.062.5.138.758.189l.776.12a46.516,46.516,0,0,0,6.346.762c1.082.043,2.174.151,3.273.139l3.324-.159c.556-.036,1.12-.032,1.678-.1l1.676-.251c1.118-.181,2.256-.309,3.382-.537a53.089,53.089,0,0,0,6.706-1.941l1.669-.606c.278-.1.561-.2.835-.311l.807-.385,3.252-1.556c1.062-.572,2.082-1.239,3.135-1.86.515-.327,1.065-.606,1.556-.977l1.483-1.1a56.456,56.456,0,0,0,5.713-4.829l2.563-2.806.644-.707.58-.762,1.155-1.536,1.16-1.544,1.016-1.651,1.014-1.662.51-.833.431-.879q.855-1.764,1.715-3.541.685-1.853,1.373-3.72A53.62,53.62,0,0,0,304.006,76.9a53.568,53.568,0,0,0-2.564-15.858q-.682-1.869-1.358-3.724l-1.7-3.546c-.145-.294-.278-.592-.429-.88l-.505-.835-1.008-1.665-1.011-1.655-1.152-1.548-1.149-1.541c-.193-.254-.378-.515-.576-.764l-.642-.709-2.551-2.815a56.5,56.5,0,0,0-5.695-4.85L282.189,35.4c-.49-.371-1.037-.653-1.551-.982-1.049-.625-2.066-1.295-3.127-1.871l-3.244-1.569-.8-.388c-.275-.115-.558-.209-.834-.314l-1.666-.613a53.063,53.063,0,0,0-6.7-1.967c-1.125-.234-2.261-.365-3.379-.551l-1.675-.257c-.558-.073-1.12-.07-1.678-.109q-1.673-.088-3.323-.171c-1.1-.018-2.19.087-3.272.126a46.581,46.581,0,0,0-6.349.735l-.776.118c-.256.05-.506.126-.759.186l-1.5.385c-.994.27-2,.476-2.957.794l-2.825,1.031-1.392.508c-.449.2-.885.421-1.326.63l-2.6,1.252a9.857,9.857,0,0,0-1.243.687l-1.2.73c-.794.491-1.6.949-2.358,1.45l-2.167,1.619A49.836,49.836,0,0,0,210.747,51.11a47.461,47.461,0,0,0-5.508,13.363q-.185.723-.359,1.407a8.61,8.61,0,0,0-.279,1.335l-.367,2.447c-.105.759-.235,1.455-.3,2.1q-.043.969-.081,1.755-.065,1.558-.1,2.38c-.02.536-.019.811-.019.811" transform="translate(13.047 1.704)" fill="#263238"/>
        <path id="Trazado_641135" data-name="Trazado 641135" d="M241.8,74.644a5.185,5.185,0,1,1-5.185-5.185,5.185,5.185,0,0,1,5.185,5.185" transform="translate(14.82 4.448)" fill="#263238"/>
        <path id="Trazado_641136" data-name="Trazado 641136" d="M256.351,74.644a5.185,5.185,0,1,1-5.185-5.185,5.185,5.185,0,0,1,5.185,5.185" transform="translate(15.752 4.448)" fill="#263238"/>
        <path id="Trazado_641137" data-name="Trazado 641137" d="M270.905,74.644a5.185,5.185,0,1,1-5.185-5.185,5.185,5.185,0,0,1,5.185,5.185" transform="translate(16.684 4.448)" fill="#263238"/>
      </g>
    </g>
  </g>
</svg>
