<svg xmlns="http://www.w3.org/2000/svg" xmlns:xlink="http://www.w3.org/1999/xlink" width="94.999" height="95.027" viewBox="0 0 94.999 95.027">
  <defs>
    <filter id="Trazado_642483" x="0" y="0" width="94.999" height="95.027" filterUnits="userSpaceOnUse">
      <feOffset dy="3" input="SourceAlpha"/>
      <feGaussianBlur stdDeviation="3" result="blur"/>
      <feFlood flood-opacity="0.161"/>
      <feComposite operator="in" in2="blur"/>
      <feComposite in="SourceGraphic"/>
    </filter>
  </defs>
  <g id="question_1_" data-name="question (1)" transform="translate(8.908 6)">
    <path id="Trazado_642478" data-name="Trazado 642478" d="M15.208,395.293,7.833,408.912a1.9,1.9,0,0,0,2.569,2.569l13.619-7.375Z" transform="translate(-6.375 -335.824)" fill="#b6b0a2"/>
    <circle id="Elipse_4715" data-name="Elipse 4715" cx="37.376" cy="37.376" r="37.376" transform="translate(1.221 1.143)" fill="#fff9eb"/>
    <path id="Trazado_642479" data-name="Trazado 642479" d="M108.431,56.161A37.377,37.377,0,0,1,56.162,108.43a37.377,37.377,0,1,0,52.269-52.269Z" transform="translate(-47.635 -47.712)" fill="#b6b0a2"/>
    <path id="Trazado_642480" data-name="Trazado 642480" d="M169.224,114.878a3.384,3.384,0,0,1-3.384-3.384v-4.45a10.129,10.129,0,0,1,6.574-9.5,8.878,8.878,0,0,0,5.687-8.88,8.994,8.994,0,0,0-8.3-8.3,8.9,8.9,0,0,0-9.468,8.877,3.384,3.384,0,1,1-6.768,0A15.724,15.724,0,0,1,158.5,77.826a15.664,15.664,0,1,1,16.343,26.039,3.408,3.408,0,0,0-2.234,3.179v4.45A3.384,3.384,0,0,1,169.224,114.878Z" transform="translate(-130.381 -62.509)" fill="#6c7a88"/>
    <path id="SVGCleanerId_1" d="M235.237,397.5a3.383,3.383,0,1,1,5.934,1.484A3.39,3.39,0,0,1,235.237,397.5Z" transform="translate(-199.711 -334.258)" fill="#596775"/>
    <g id="Grupo_927644" data-name="Grupo 927644" transform="translate(35.457 59.192)">
      <path id="SVGCleanerId_1_1_" d="M235.237,397.5a3.383,3.383,0,1,1,5.934,1.484A3.39,3.39,0,0,1,235.237,397.5Z" transform="translate(-235.169 -393.449)" fill="#596775"/>
    </g>
    <path id="Trazado_642481" data-name="Trazado 642481" d="M168.878,98.43a16.8,16.8,0,1,0-22.814-15.677,4.512,4.512,0,0,0,9.024,0,7.76,7.76,0,0,1,7.761-7.767,7.867,7.867,0,0,1,7.772,7.76,7.729,7.729,0,0,1-4.981,7.26,11.359,11.359,0,0,0-5.306,4.148c-2.382,3.44-1.99,6.343-1.99,10.852a4.584,4.584,0,0,0,.125,1.062,1.129,1.129,0,0,0,2.194-.529c-.088-.365-.065-.108-.065-4.983a9.032,9.032,0,0,1,5.851-8.444,10.012,10.012,0,1,0-13.616-9.358,2.256,2.256,0,0,1-4.512,0,14.535,14.535,0,1,1,19.749,13.571,4.625,4.625,0,0,0-2.145,1.66c-1.023,1.459-.812,2.306-.812,7.021a2.264,2.264,0,0,1-2.256,2.255,1.129,1.129,0,0,0-1.128,1.128c0,2.369,5.635.926,5.64-3.383v-4.451A2.276,2.276,0,0,1,168.878,98.43Z" transform="translate(-124.012 -56.02)"/>
    <path id="Trazado_642482" data-name="Trazado 642482" d="M228.427,387.984a4.507,4.507,0,1,0,7.6.158A4.509,4.509,0,0,0,228.427,387.984Zm3.217,4.679a2.2,2.2,0,0,1-1.672-1.74,2.25,2.25,0,1,1,1.672,1.74Z" transform="translate(-193.34 -327.895)"/>
    <g transform="matrix(1, 0, 0, 1, -8.91, -6)" filter="url(#Trazado_642483)">
      <path id="Trazado_642483-2" data-name="Trazado 642483" d="M57.9,5.195A38.51,38.51,0,0,0,2.021,50.579,36.821,36.821,0,0,0,7.562,61.268l0-.006,0,.008.011.009s0,0,0,0,0,0,0,0a1.12,1.12,0,0,0,.934.254l0,0a1.052,1.052,0,0,0,.214-.062h0l.026-.012h0a1.13,1.13,0,0,0,.463-1.7C-8.182,35.732,9.217,2.271,38.6,2.271A36.248,36.248,0,1,1,17.35,67.888a1.139,1.139,0,0,0-1.2-.078L3.49,74.665A.775.775,0,0,1,2.349,74c0-.27-.274.321,4.809-9.067a1.127,1.127,0,1,0-1.982-1.074C.059,73.305.09,72.989.093,74A3.032,3.032,0,0,0,4.564,76.65l12.043-6.523A38.508,38.508,0,1,0,57.9,5.195Z" transform="translate(8.91 6)"/>
    </g>
  </g>
</svg>
