<svg xmlns="http://www.w3.org/2000/svg" xmlns:xlink="http://www.w3.org/1999/xlink" width="94.595" height="92.354" viewBox="0 0 94.595 92.354">
  <defs>
    <filter id="Trazado_642501" x="24.452" y="46.637" width="45.69" height="45.717" filterUnits="userSpaceOnUse">
      <feOffset dy="3" input="SourceAlpha"/>
      <feGaussianBlur stdDeviation="3" result="blur"/>
      <feFlood flood-opacity="0.161"/>
      <feComposite operator="in" in2="blur"/>
      <feComposite in="SourceGraphic"/>
    </filter>
    <filter id="Trazado_642502" x="13.064" y="25.118" width="68.468" height="36.136" filterUnits="userSpaceOnUse">
      <feOffset dy="3" input="SourceAlpha"/>
      <feGaussianBlur stdDeviation="3" result="blur-2"/>
      <feFlood flood-opacity="0.161"/>
      <feComposite operator="in" in2="blur-2"/>
      <feComposite in="SourceGraphic"/>
    </filter>
    <filter id="Trazado_642503" x="0" y="0" width="94.595" height="39.489" filterUnits="userSpaceOnUse">
      <feOffset dy="3" input="SourceAlpha"/>
      <feGaussianBlur stdDeviation="3" result="blur-3"/>
      <feFlood flood-opacity="0.161"/>
      <feComposite operator="in" in2="blur-3"/>
      <feComposite in="SourceGraphic"/>
    </filter>
    <filter id="Trazado_642504" x="24.452" y="46.637" width="31.795" height="45.617" filterUnits="userSpaceOnUse">
      <feOffset dy="3" input="SourceAlpha"/>
      <feGaussianBlur stdDeviation="3" result="blur-4"/>
      <feFlood flood-opacity="0.161"/>
      <feComposite operator="in" in2="blur-4"/>
      <feComposite in="SourceGraphic"/>
    </filter>
    <filter id="Trazado_642505" x="13.064" y="25.118" width="43.184" height="36.136" filterUnits="userSpaceOnUse">
      <feOffset dy="3" input="SourceAlpha"/>
      <feGaussianBlur stdDeviation="3" result="blur-5"/>
      <feFlood flood-opacity="0.161"/>
      <feComposite operator="in" in2="blur-5"/>
      <feComposite in="SourceGraphic"/>
    </filter>
    <filter id="Trazado_642501-2" x="26.018" y="45.436" width="42.558" height="42.582" filterUnits="userSpaceOnUse">
      <feOffset dy="3" input="SourceAlpha"/>
      <feGaussianBlur stdDeviation="3" result="blur-6"/>
      <feFlood flood-opacity="0.161"/>
      <feComposite operator="in" in2="blur-6"/>
      <feComposite in="SourceGraphic"/>
    </filter>
    <filter id="Trazado_642502-2" x="15.918" y="25.215" width="62.76" height="34.085" filterUnits="userSpaceOnUse">
      <feOffset dy="3" input="SourceAlpha"/>
      <feGaussianBlur stdDeviation="3" result="blur-7"/>
      <feFlood flood-opacity="0.161"/>
      <feComposite operator="in" in2="blur-7"/>
      <feComposite in="SourceGraphic"/>
    </filter>
    <filter id="Trazado_642503-2" x="4.332" y="2.02" width="85.932" height="37.059" filterUnits="userSpaceOnUse">
      <feOffset dy="3" input="SourceAlpha"/>
      <feGaussianBlur stdDeviation="3" result="blur-8"/>
      <feFlood flood-opacity="0.161"/>
      <feComposite operator="in" in2="blur-8"/>
      <feComposite in="SourceGraphic"/>
    </filter>
    <filter id="Trazado_642504-2" x="26.018" y="45.436" width="30.235" height="42.494" filterUnits="userSpaceOnUse">
      <feOffset dy="3" input="SourceAlpha"/>
      <feGaussianBlur stdDeviation="3" result="blur-9"/>
      <feFlood flood-opacity="0.161"/>
      <feComposite operator="in" in2="blur-9"/>
      <feComposite in="SourceGraphic"/>
    </filter>
    <filter id="Trazado_642505-2" x="15.918" y="25.215" width="40.336" height="34.085" filterUnits="userSpaceOnUse">
      <feOffset dy="3" input="SourceAlpha"/>
      <feGaussianBlur stdDeviation="3" result="blur-10"/>
      <feFlood flood-opacity="0.161"/>
      <feComposite operator="in" in2="blur-10"/>
      <feComposite in="SourceGraphic"/>
    </filter>
  </defs>
  <g id="Grupo_947502" data-name="Grupo 947502" transform="translate(-25 -26.242)">
    <g id="pyramid" transform="translate(34 32.242)">
      <g transform="matrix(1, 0, 0, 1, -9, -6)" filter="url(#Trazado_642501)">
        <path id="Trazado_642501-3" data-name="Trazado 642501" d="M0,0H27.69L13.845,27.717Z" transform="translate(33.45 52.64)"/>
      </g>
      <g transform="matrix(1, 0, 0, 1, -9, -6)" filter="url(#Trazado_642502)">
        <path id="Trazado_642502-3" data-name="Trazado 642502" d="M0,0H50.468L41.408,18.136H9.059Z" transform="translate(22.06 31.12)"/>
      </g>
      <g transform="matrix(1, 0, 0, 1, -9, -6)" filter="url(#Trazado_642503)">
        <path id="Trazado_642503-3" data-name="Trazado 642503" d="M0,0H76.595L65.861,21.489H10.734Z" transform="translate(9 6)"/>
      </g>
      <g transform="matrix(1, 0, 0, 1, -9, -6)" filter="url(#Trazado_642504)">
        <path id="Trazado_642504-3" data-name="Trazado 642504" d="M13.8,27.617V0H0Z" transform="translate(33.45 52.64)"/>
      </g>
      <g transform="matrix(1, 0, 0, 1, -9, -6)" filter="url(#Trazado_642505)">
        <path id="Trazado_642505-3" data-name="Trazado 642505" d="M25.184,0H0L9.059,18.136H25.184Z" transform="translate(22.06 31.12)"/>
      </g>
      <path id="Trazado_642506" data-name="Trazado 642506" d="M38.247,0H0L10.734,21.489H38.247Z" transform="translate(0)"/>
    </g>
    <g id="pyramid-2" data-name="pyramid" transform="translate(38.332 34.262)">
      <g transform="matrix(1, 0, 0, 1, -13.33, -8.02)" filter="url(#Trazado_642501-2)">
        <path id="Trazado_642501-4" data-name="Trazado 642501" d="M0,0H24.558L12.279,24.582Z" transform="translate(35.02 51.44)" fill="#f9a21b"/>
      </g>
      <g transform="matrix(1, 0, 0, 1, -13.33, -8.02)" filter="url(#Trazado_642502-2)">
        <path id="Trazado_642502-4" data-name="Trazado 642502" d="M0,0H44.76L36.725,16.085H8.035Z" transform="translate(24.92 31.21)" fill="#fff9eb"/>
      </g>
      <g transform="matrix(1, 0, 0, 1, -13.33, -8.02)" filter="url(#Trazado_642503-2)">
        <path id="Trazado_642503-4" data-name="Trazado 642503" d="M0,0H67.932l-9.52,19.059H9.52Z" transform="translate(13.33 8.02)" fill="#5d7082"/>
      </g>
      <g transform="matrix(1, 0, 0, 1, -13.33, -8.02)" filter="url(#Trazado_642504-2)">
        <path id="Trazado_642504-4" data-name="Trazado 642504" d="M12.235,24.494V0H0Z" transform="translate(35.02 51.44)" fill="#d18b1c"/>
      </g>
      <g transform="matrix(1, 0, 0, 1, -13.33, -8.02)" filter="url(#Trazado_642505-2)">
        <path id="Trazado_642505-4" data-name="Trazado 642505" d="M22.336,0H0L8.035,16.085h14.3Z" transform="translate(24.92 31.21)" fill="#feefcb"/>
      </g>
      <path id="Trazado_642506-2" data-name="Trazado 642506" d="M33.922,0H0L9.52,19.059h24.4Z" transform="translate(0 0)" fill="#6c7a88"/>
    </g>
  </g>
</svg>
