<svg xmlns="http://www.w3.org/2000/svg" width="101" height="101" viewBox="0 0 101 101">
  <g id="_5" data-name="5" transform="translate(-959 -1401.811)">
    <circle id="Elipse_4778" data-name="Elipse 4778" cx="50.5" cy="50.5" r="50.5" transform="translate(959 1401.811)" fill="#fcd03e"/>
    <g id="event" transform="translate(975.647 1418.458)">
      <path id="Trazado_650454" data-name="Trazado 650454" d="M152,240h24.825v15.8H152Zm0,0" transform="translate(-130.56 -206.147)" fill="#e6e7e8"/>
      <path id="Trazado_650455" data-name="Trazado 650455" d="M8,165.137a4.514,4.514,0,0,0,4.514,4.514H68.935a4.514,4.514,0,0,0,4.514-4.514V120H8Zm7.9-28.211H53.137v15.8H28.312v-15.8Zm0,0" transform="translate(-6.872 -103.074)" fill="#e6e7e8"/>
      <path id="Trazado_650456" data-name="Trazado 650456" d="M68.935,8H12.514A4.514,4.514,0,0,0,8,12.514V23.8H73.449V12.514A4.514,4.514,0,0,0,68.935,8ZM15.9,15.9" transform="translate(-6.872 -6.872)" fill="#46f8ff"/>
      <path id="Trazado_650457" data-name="Trazado 650457" d="M62.063,0H5.642A5.649,5.649,0,0,0,0,5.642V62.063a5.649,5.649,0,0,0,5.642,5.642H62.063a5.649,5.649,0,0,0,5.642-5.642V5.642A5.649,5.649,0,0,0,62.063,0ZM2.257,5.642A3.385,3.385,0,0,1,5.642,2.257H62.063a3.385,3.385,0,0,1,3.385,3.385V15.8H2.257ZM65.449,62.063a3.385,3.385,0,0,1-3.385,3.385H5.642a3.385,3.385,0,0,1-3.385-3.385V18.055H65.449Zm0,0"/>
      <path id="Trazado_650458" data-name="Trazado 650458" d="M106.779,56H57.128a1.128,1.128,0,1,0,0,2.257h49.651a1.128,1.128,0,1,0,0-2.257Zm0,0" transform="translate(-48.101 -48.101)"/>
      <path id="Trazado_650459" data-name="Trazado 650459" d="M57.128,185.954a1.128,1.128,0,0,0,0,2.257H68.413v8.937a1.128,1.128,0,1,0,2.257,0v-8.937H93.238v9.027a1.128,1.128,0,0,0,2.257,0v-9.027h11.284a1.128,1.128,0,0,0,0-2.257H95.495V172.413h11.284a1.128,1.128,0,1,0,0-2.257H95.495v-9.027a1.128,1.128,0,0,0-2.257,0v9.027H70.67v-9.027a1.128,1.128,0,0,0-2.257,0v9.027H57.128a1.128,1.128,0,1,0,0,2.257H68.413v13.541ZM70.67,172.413H93.238v13.541H70.67Zm0,0" transform="translate(-48.101 -137.431)"/>
    </g>
  </g>
</svg>
