<svg xmlns="http://www.w3.org/2000/svg" width="72.013" height="72.042" viewBox="0 0 72.013 72.042">
  <g id="_5" data-name="5" transform="translate(-0.011 3)">
    <g id="_003---Dictionary" data-name="003---Dictionary" transform="translate(0.011 -3)">
      <g id="Icons" transform="translate(1.189 1.201)">
        <path id="Shape" d="M54.031,46.2v7.2H44.426c-4.6,0-7.612-1.441-9.606-3.35-1.993,1.909-5.007,3.35-9.606,3.35H3.6A3.6,3.6,0,0,1,.072,49.1,3.674,3.674,0,0,1,3.6,46.2H25.214c4.274,0,5.511-1.6,6.052-4.19A3.708,3.708,0,0,1,34.808,39h.012a1.774,1.774,0,0,1,.252.012,3.543,3.543,0,0,1,2.161.913,3.62,3.62,0,0,1,1.117,1.969c.528,2.666,1.741,4.311,6.076,4.311Z" transform="translate(-0.001 7.827)" fill="#91562d"/>
        <path id="Shape-2" data-name="Shape" d="M28.11,39.925a3.62,3.62,0,0,1,1.117,1.969c.528,2.666,1.741,4.311,6.076,4.311h3.6c-4.335,0-5.547-1.645-6.076-4.311a3.62,3.62,0,0,0-1.117-1.969,3.543,3.543,0,0,0-2.161-.913A1.774,1.774,0,0,0,29.3,39h-.012a3.439,3.439,0,0,0-1.772.5,3.416,3.416,0,0,1,.6.426Z" transform="translate(5.52 7.827)" fill="#6d4122"/>
        <path id="Rectangle-path" d="M42,45h3.6v7.2H42Z" transform="translate(8.428 9.031)" fill="#6d4122"/>
        <path id="Shape-3" data-name="Shape" d="M59.4,48.6a3.6,3.6,0,0,1-3.6,3.6H51V45h4.8A3.6,3.6,0,0,1,59.4,48.6Z" transform="translate(10.234 9.031)" fill="#91562d"/>
        <path id="Shape-4" data-name="Shape" d="M58.148,46.057A3.594,3.594,0,0,0,55.6,45H52a3.6,3.6,0,1,1,0,7.2h3.6a3.6,3.6,0,0,0,2.545-6.148Z" transform="translate(10.435 9.031)" fill="#6d4122"/>
        <path id="Shape-5" data-name="Shape" d="M48.211,37.81v9.642H38.606c-4.335,0-5.547-1.645-6.076-4.311a3.62,3.62,0,0,0-1.117-1.969,3.543,3.543,0,0,0-2.161-.913A1.774,1.774,0,0,0,29,40.247v-4.8l3.806-1.9a7.2,7.2,0,0,1,6.724.144l5.847,3.242A7.029,7.029,0,0,0,48.211,37.81Z" transform="translate(5.819 6.58)" fill="#f5f5f5"/>
        <path id="Shape-6" data-name="Shape" d="M44.5,36.932,38.654,33.69a7.2,7.2,0,0,0-5.289-.671,7.211,7.211,0,0,1,1.687.671L40.9,36.932a7.029,7.029,0,0,0,2.834.877V47.45h3.6V37.809A7.029,7.029,0,0,1,44.5,36.932Z" transform="translate(6.695 6.581)" fill="#cfd8dc"/>
        <path id="Shape-7" data-name="Shape" d="M34.434,35.445v4.8h-.012a3.708,3.708,0,0,0-3.542,3.014c-.54,2.594-1.777,4.19-6.052,4.19H3.216a11.344,11.344,0,0,0-1.141-7.829A1.193,1.193,0,0,1,3.12,37.846H14.563a7.157,7.157,0,0,0,3.494-.913L23.9,33.692a7.2,7.2,0,0,1,6.724-.144Z" transform="translate(0.384 6.58)" fill="#f5f5f5"/>
        <path id="Shape-8" data-name="Shape" d="M56.943,38.777A11.277,11.277,0,0,0,55.8,46.606H51V37h4.9a1.194,1.194,0,0,1,1.045,1.777Z" transform="translate(10.234 7.426)" fill="#f5f5f5"/>
        <path id="Shape-9" data-name="Shape" d="M55.741,37h-3.6a1.193,1.193,0,0,1,1.045,1.777,11.277,11.277,0,0,0-1.141,7.829h3.6a11.277,11.277,0,0,1,1.141-7.829A1.194,1.194,0,0,0,55.741,37Z" transform="translate(10.392 7.426)" fill="#cfd8dc"/>
        <path id="Shape-10" data-name="Shape" d="M52.2,37.2V58.009a1.179,1.179,0,0,1-.54,1l-4.8,3.206a1.2,1.2,0,0,1-1.861-1V37.165A1.2,1.2,0,0,1,46.2,36H51a1.2,1.2,0,0,1,1.2,1.2Z" transform="translate(9.03 7.225)" fill="#f44335"/>
        <path id="Shape-11" data-name="Shape" d="M51,36H47.4a1.2,1.2,0,0,1,1.2,1.2V58.009a1.179,1.179,0,0,1-.54,1L45,61.049v.166a1.2,1.2,0,0,0,1.861,1l4.8-3.206a1.179,1.179,0,0,0,.54-1V37.2A1.2,1.2,0,0,0,51,36Z" transform="translate(9.03 7.225)" fill="#c81e1e"/>
        <path id="Shape-12" data-name="Shape" d="M61.232,4.8V26.415a4.8,4.8,0,0,1-4.8,4.8H40.117a1.2,1.2,0,0,0-.849.352l-4.8,4.8a1.21,1.21,0,0,1-1.7,0l-4.8-4.8a1.2,1.2,0,0,0-.842-.352H10.8a4.8,4.8,0,0,1-4.8-4.8V4.8A4.8,4.8,0,0,1,10.8,0H56.429A4.8,4.8,0,0,1,61.232,4.8Z" transform="translate(1.203)" fill="#dee4f0"/>
        <g id="Grupo_947448" data-name="Grupo 947448" transform="translate(33.018)">
          <path id="Shape-13" data-name="Shape" d="M31.351,26.352,27.5,30.2l.949.949a1.21,1.21,0,0,0,1.7,0l4.8-4.8A1.2,1.2,0,0,1,35.8,26H32.2a1.2,1.2,0,0,0-.849.352Z" transform="translate(-27.5 5.218)" fill="#b0c0d2"/>
          <path id="Shape-14" data-name="Shape" d="M48.6,0H45a4.8,4.8,0,0,1,4.8,4.8V26.415a4.8,4.8,0,0,1-4.8,4.8h3.6a4.8,4.8,0,0,0,4.8-4.8V4.8A4.8,4.8,0,0,0,48.6,0Z" transform="translate(-23.988)" fill="#b0c0d2"/>
        </g>
      </g>
      <g id="Layer_11">
        <path id="Shape-15" data-name="Shape" d="M68.289,47.572A10.029,10.029,0,0,1,69.429,41.4a2.4,2.4,0,0,0-2.1-3.553H63.3a2.393,2.393,0,0,0-2.068-1.2h-4.8a2.4,2.4,0,0,0-1.958,1.019,5.9,5.9,0,0,1-1.494-.58l-5.847-3.242a8.389,8.389,0,0,0-7.842-.169L36.019,35.3l-3.267-1.629a8.389,8.389,0,0,0-7.845.168l-5.853,3.242a5.943,5.943,0,0,1-2.906.761H4.7A2.4,2.4,0,0,0,2.61,41.408a10.055,10.055,0,0,1,1.132,6.2A4.786,4.786,0,0,0,4.8,57.057H26.413A15,15,0,0,0,36.019,54.1a15,15,0,0,0,9.606,2.957h8.4v6a2.4,2.4,0,0,0,3.733,2l4.8-3.2a2.4,2.4,0,0,0,1.07-2v-2.8h3.6a4.8,4.8,0,0,0,1.052-9.486Zm-2.441-.12H63.635v-7.2l3.693-.006A12.338,12.338,0,0,0,65.848,47.452ZM40.364,35.821a5.99,5.99,0,0,1,5.6.12l5.843,3.242a8.337,8.337,0,0,0,2.22.84v7.429h-8.4c-3.931,0-4.51-1.386-4.9-3.334a4.814,4.814,0,0,0-1.485-2.63,4.674,4.674,0,0,0-2.023-1.09V37.389ZM16.147,40.248a8.344,8.344,0,0,0,4.076-1.063l5.847-3.242a6,6,0,0,1,5.606-.12l3.141,1.566v3.034a4.947,4.947,0,0,0-3.529,3.794c-.382,1.833-.983,3.235-4.876,3.235H6.186a12.292,12.292,0,0,0-1.482-7.2ZM45.624,54.656a12.227,12.227,0,0,1-8.776-3.016,1.2,1.2,0,0,0-1.659,0,12.227,12.227,0,0,1-8.776,3.016H4.8a2.4,2.4,0,0,1-2.35-2.889A2.459,2.459,0,0,1,4.8,49.853H26.413c4.314,0,6.475-1.539,7.228-5.151a2.521,2.521,0,0,1,2.365-2.053l.179.008a2.345,2.345,0,0,1,1.441.6,2.416,2.416,0,0,1,.749,1.321c.729,3.7,2.9,5.275,7.249,5.275h8.4v4.8Zm10.806,8.4V39.047h4.8v20.81Zm10.806-8.4h-3.6v-4.8h3.6a2.4,2.4,0,1,1,0,4.8Z" transform="translate(-0.011 6.58)"/>
        <path id="Shape-16" data-name="Shape" d="M12,33.62H28.316l4.8,4.8a2.409,2.409,0,0,0,3.4,0l4.8-4.8H57.63a6.011,6.011,0,0,0,6-6V6a6.011,6.011,0,0,0-6-6H12A6.011,6.011,0,0,0,6,6V27.616A6.011,6.011,0,0,0,12,33.62ZM8.4,6A3.6,3.6,0,0,1,12,2.4H57.63a3.6,3.6,0,0,1,3.6,3.6V27.616a3.6,3.6,0,0,1-3.6,3.6H41.317a2.385,2.385,0,0,0-1.7.7l-4.8,4.8-4.8-4.8a2.385,2.385,0,0,0-1.7-.7H12a3.6,3.6,0,0,1-3.6-3.6Z" transform="translate(1.191)"/>
        <path id="Shape-17" data-name="Shape" d="M17.72,20.906a1.2,1.2,0,0,0,1.581-.618l.736-1.681h4.733l.736,1.681a1.2,1.2,0,1,0,2.2-.961L23.5,9.721a1.2,1.2,0,0,0-2.2,0l-4.2,9.606a1.2,1.2,0,0,0,.618,1.579ZM22.4,13.2l1.321,3H21.082Z" transform="translate(3.399 1.807)"/>
        <path id="Shape-18" data-name="Shape" d="M28.2,21.007h3.6a3.586,3.586,0,0,0,2.666-6A3.586,3.586,0,0,0,31.8,9H28.2A1.2,1.2,0,0,0,27,10.2v9.606a1.2,1.2,0,0,0,1.2,1.2Zm3.6-2.4H29.4V16.2h2.4a1.2,1.2,0,1,1,0,2.4Zm-2.4-7.2h2.4a1.2,1.2,0,1,1,0,2.4H29.4Z" transform="translate(5.405 1.806)"/>
        <path id="Shape-19" data-name="Shape" d="M39.8,21.007a4.812,4.812,0,0,0,4.529-3.2,1.2,1.2,0,1,0-2.265-.8,2.4,2.4,0,0,1-4.666-.8V13.8a2.4,2.4,0,0,1,4.666-.8,1.2,1.2,0,1,0,2.265-.8A4.8,4.8,0,0,0,35,13.8v2.4A4.8,4.8,0,0,0,39.8,21.007Z" transform="translate(7.011 1.806)"/>
      </g>
    </g>
  </g>
</svg>
