<svg xmlns="http://www.w3.org/2000/svg" width="101" height="101" viewBox="0 0 101 101">
  <g id="_6" data-name="6" transform="translate(-1170 -1391.811)">
    <circle id="Elipse_7551" data-name="Elipse 7551" cx="50.5" cy="50.5" r="50.5" transform="translate(1170 1391.811)" fill="#fcd03e"/>
    <g id="XMLID_1021_" transform="translate(1178.256 1379.355)">
      <g id="XMLID_1170_" transform="translate(0.001 20.022)">
        <path id="XMLID_768_" d="M147,286.568l-6.425,6.425a4.62,4.62,0,0,1-6.534-6.534l4.527-4.527Z" transform="translate(-110.791 -238.713)" fill="#ffddcf"/>
        <path id="XMLID_1344_" d="M45.152,140.346l-6.425,6.425a4.62,4.62,0,1,1-6.534-6.534l4.527-4.527a29.941,29.941,0,0,1,47.526,6.961l4.87,9.031-6.584,24.914Z" transform="translate(-25.751 -109.297)" fill="#ffddcf"/>
        <path id="XMLID_1313_" d="M356.439,295.676l-12.751-3.417a3.3,3.3,0,0,1-2.334-4.042l7.175-26.778a3.3,3.3,0,0,1,4.042-2.334l12.751,3.417a3.3,3.3,0,0,1,2.334,4.042l-7.175,26.778A3.3,3.3,0,0,1,356.439,295.676Z" transform="translate(-284.931 -219.559)" fill="#91def5"/>
        <g id="XMLID_2768_" transform="translate(1.65 1.647)">
          <path id="XMLID_2775_" d="M0,0H14.521V55.284H0Z" transform="translate(47.148 0) rotate(45)" fill="#ffcb7c"/>
          <path id="XMLID_2774_" d="M10,285.247l8.059-18.327,10.268,10.268Z" transform="translate(-10 -227.825)" fill="#98a1b3"/>
        </g>
        <path id="XMLID_1251_" d="M160.267,240.107l-10-10a5.28,5.28,0,0,0-7.468,7.468l10,10a22.939,22.939,0,0,0,21.081,13.9h.848Z" transform="translate(-117.946 -194.151)" fill="#ffddcf"/>
        <path id="XMLID_682_" d="M80.818,61.392,68.067,57.975A4.95,4.95,0,0,0,63.449,59.1l-3.5-6.491a31.7,31.7,0,0,0-8.9-10.316l9.189-9.189a1.65,1.65,0,0,0,0-2.334L49.968,20.505a1.651,1.651,0,0,0-2.334,0l-15.51,15.51A31.591,31.591,0,0,0,9.8,45.268L5.276,49.795a6.266,6.266,0,0,0,2.839,10.5L.14,78.426A1.65,1.65,0,0,0,2.315,80.6l18.138-7.976a6.271,6.271,0,0,0,10.5,2.844l1.8-1.8.719.719A24.556,24.556,0,0,0,54.694,88.957a4.952,4.952,0,0,0,3.636,5.359l12.751,3.417a4.948,4.948,0,0,0,6.063-3.5l1.622-6.053a1.65,1.65,0,1,0-3.188-.854l-1.622,6.053a1.652,1.652,0,0,1-2.021,1.167L59.184,91.128a1.65,1.65,0,0,1-1.167-2.021L65.192,62.33a1.653,1.653,0,0,1,2.021-1.167l12.751,3.417A1.652,1.652,0,0,1,81.131,66.6l-1.709,6.377a1.65,1.65,0,1,0,3.188.854l1.709-6.377a4.956,4.956,0,0,0-3.5-6.063ZM56.736,31.94,33.676,55l-.186-.186a6.883,6.883,0,0,0-3.37-1.859L53.935,29.14ZM48.8,24.006l2.8,2.8L14.844,63.564l-2.8-2.8ZM7.61,56.329a2.97,2.97,0,0,1,0-4.2L12.137,47.6a28.078,28.078,0,0,1,16.47-8.069l-16.8,16.8a2.973,2.973,0,0,1-4.2,0Zm2.639,7.307L17.1,70.492,4.868,75.873ZM19.978,68.7l-2.8-2.8,4.656-4.656a6.888,6.888,0,0,0,1.856,3.374l.186.186Zm8.638,4.437a2.97,2.97,0,1,1-4.2-4.2l1.8-1.8,4.2,4.2Zm26.9,12.548A21.263,21.263,0,0,1,36.37,72.8a1.652,1.652,0,0,0-.35-.516l-10-10a3.63,3.63,0,1,1,5.134-5.134l10,10a1.65,1.65,0,0,0,2.334-2.334L36.01,57.333,48.684,44.66a28.383,28.383,0,0,1,8.36,9.519l4.62,8.568Z" transform="translate(-0.001 -20.022)"/>
      </g>
      <g id="XMLID_928_" transform="translate(77.445 78.929)">
        <path id="XMLID_273_" d="M470.97,380.3a1.651,1.651,0,1,1,1.167-.484A1.666,1.666,0,0,1,470.97,380.3Z" transform="translate(-469.32 -377.003)"/>
      </g>
    </g>
  </g>
</svg>
