<svg xmlns="http://www.w3.org/2000/svg" width="101" height="101" viewBox="0 0 101 101">
  <g id="_9" data-name="9" transform="translate(-3621 9876.189)">
    <circle id="Elipse_7554" data-name="Elipse 7554" cx="50.5" cy="50.5" r="50.5" transform="translate(3621 -9876.189)" fill="#fcd03e"/>
    <g id="books" transform="translate(3635.966 -9897.196)">
      <g id="Grupo_945670" data-name="Grupo 945670" transform="translate(0.895 44.655)">
        <path id="Trazado_650535" data-name="Trazado 650535" d="M82.539,347.453,80.194,349.8H28.74V336.87H80.433l2.107,1.627a5.811,5.811,0,0,0,0,8.956Z" transform="translate(-26.205 -302.614)" fill="#ecf4ff"/>
        <path id="Trazado_650536" data-name="Trazado 650536" d="M325.079,337.876v6.037a1.008,1.008,0,0,1-1.472.9l-3.449-1.787a1.008,1.008,0,0,0-.928,0l-3.448,1.786a1.008,1.008,0,0,1-1.472-.9v-6.037a1.008,1.008,0,0,1,1.008-1.008h8.753A1.009,1.009,0,0,1,325.079,337.876Z" transform="translate(-277.691 -302.612)" fill="#bac0c9"/>
        <path id="Trazado_650537" data-name="Trazado 650537" d="M82.54,338.5a5.777,5.777,0,0,0-2.031,3.54H28.741v-5.167H80.434Z" transform="translate(-26.206 -302.613)" fill="#bac0c9"/>
        <path id="Trazado_650538" data-name="Trazado 650538" d="M11.679,324.036a4.484,4.484,0,0,0,4.478,4.589H64.731a2.089,2.089,0,1,1,0,4.177H16.157A8.657,8.657,0,0,1,7.5,324.117a8.74,8.74,0,0,1,8.786-8.628H64.731a2.089,2.089,0,1,1,0,4.177H16.242A4.534,4.534,0,0,0,11.679,324.036Z" transform="translate(-7.501 -283.785)" fill="#b7e4fc"/>
        <path id="Trazado_650539" data-name="Trazado 650539" d="M10.834,324.115a8.74,8.74,0,0,1,8.786-8.628H16.285A8.74,8.74,0,0,0,7.5,324.115a8.657,8.657,0,0,0,8.657,8.685H19.49a8.657,8.657,0,0,1-8.657-8.685Z" transform="translate(-7.5 -283.783)" fill="#97ccfa"/>
        <g id="Grupo_945668" data-name="Grupo 945668" transform="translate(3.068 15.946)">
          <path id="Trazado_650540" data-name="Trazado 650540" d="M55.964,212.556l2.135,2.136h46.83V202.924H57.881L55.964,204.4a5.289,5.289,0,0,1,0,8.152Z" transform="translate(-53.247 -200.601)" fill="#ecf4ff"/>
          <path id="Trazado_650541" data-name="Trazado 650541" d="M55.964,204.4a5.258,5.258,0,0,1,1.849,3.222h47.116v-4.7H57.881Z" transform="translate(-53.247 -200.601)" fill="#bac0c9"/>
          <path id="Trazado_650542" data-name="Trazado 650542" d="M83.387,191.244a4.081,4.081,0,0,1-4.076,4.176H35.1a1.9,1.9,0,1,0,0,3.8H79.312a7.879,7.879,0,0,0,7.879-7.9,7.955,7.955,0,0,0-8-7.853H35.1a1.9,1.9,0,0,0,0,3.8H79.235a4.127,4.127,0,0,1,4.152,3.977Z" transform="translate(-33.202 -183.464)" fill="#f5de87"/>
          <g id="Grupo_945667" data-name="Grupo 945667">
            <path id="Trazado_650543" data-name="Trazado 650543" d="M37.183,285.531a1.9,1.9,0,0,0,1.9,1.9H35.1a1.9,1.9,0,0,1,0-3.8h3.982A1.9,1.9,0,0,0,37.183,285.531Z" transform="translate(-33.201 -271.674)" fill="#f1ce73"/>
            <path id="Trazado_650544" data-name="Trazado 650544" d="M37.183,185.361a1.9,1.9,0,0,0,1.9,1.9H35.1a1.9,1.9,0,0,1,0-3.8h3.982a1.9,1.9,0,0,0-1.9,1.9Z" transform="translate(-33.201 -183.46)" fill="#f1ce73"/>
          </g>
        </g>
        <g id="Grupo_945669" data-name="Grupo 945669" transform="translate(6.064 0)">
          <path id="Trazado_650545" data-name="Trazado 650545" d="M115.771,78.956l-2.135,2.136h-36V69.324h36.216l1.917,1.481a5.289,5.289,0,0,0,0,8.152Z" transform="translate(-75.331 -67.001)" fill="#ecf4ff"/>
          <path id="Trazado_650546" data-name="Trazado 650546" d="M115.771,70.8a5.258,5.258,0,0,0-1.849,3.222H77.638v-4.7h36.216Z" transform="translate(-75.331 -67.001)" fill="#bac0c9"/>
          <path id="Trazado_650547" data-name="Trazado 650547" d="M62.109,57.645a4.081,4.081,0,0,0,4.076,4.176H99.562a1.9,1.9,0,1,1,0,3.8H66.185a7.879,7.879,0,0,1-7.879-7.9,7.955,7.955,0,0,1,8-7.853h33.26a1.9,1.9,0,1,1,0,3.8h-33.3a4.127,4.127,0,0,0-4.152,3.977Z" transform="translate(-58.306 -49.865)" fill="#b4dd7f"/>
          <path id="Trazado_650548" data-name="Trazado 650548" d="M63.471,63.311a7.854,7.854,0,0,0,5.571,2.308H66.185a7.879,7.879,0,0,1-7.879-7.9,7.955,7.955,0,0,1,8-7.854H69.16a7.956,7.956,0,0,0-8,7.854A7.852,7.852,0,0,0,63.471,63.311Z" transform="translate(-58.307 -49.861)" fill="#99c560"/>
        </g>
        <path id="Trazado_650549" data-name="Trazado 650549" d="M340.069,259.38v15.058l-5.385-2.789-5.384,2.789V259.38Z" transform="translate(-290.892 -234.373)" fill="#b4dd7f"/>
        <path id="Trazado_650550" data-name="Trazado 650550" d="M329.3,259.38h10.769V263.2H329.3Z" transform="translate(-290.892 -234.373)" fill="#da4a54"/>
      </g>
      <path id="Trazado_650551" data-name="Trazado 650551" d="M58.126,88.6H57.57a4.915,4.915,0,0,1,0-7.169h.556a2.984,2.984,0,1,0,0-5.968H55.383a8.9,8.9,0,0,0,.894-.78,8.713,8.713,0,0,0,2.569-6.232,8.838,8.838,0,0,0-8.038-8.7A2.8,2.8,0,0,0,48.215,55.9h-.474a4.391,4.391,0,0,1,0-6.363h.473a2.8,2.8,0,0,0,0-5.592H14.955a8.847,8.847,0,0,0-8.891,8.745,8.713,8.713,0,0,0,2.569,6.232,8.9,8.9,0,0,0,.894.78H5.864a2.8,2.8,0,1,0,0,5.592h.473a4.391,4.391,0,0,1,0,6.364H5.864a2.8,2.8,0,0,0-1.317,5.264A9.528,9.528,0,0,0,9.552,94.568H58.126a2.984,2.984,0,1,0,0-5.968Zm1.194-10.152a1.2,1.2,0,0,1-1.194,1.194H50.967V77.254h7.158A1.2,1.2,0,0,1,59.319,78.447ZM9.9,57.66A6.934,6.934,0,0,1,7.855,52.7a7.054,7.054,0,0,1,7.1-6.96H48.215a1.006,1.006,0,1,1,0,2.011H19.6a.9.9,0,1,0,0,1.79H45.467a6.189,6.189,0,0,0,0,6.363H14.838a3.186,3.186,0,0,1-3.181-3.259,3.241,3.241,0,0,1,3.257-3.1h1.108a.9.9,0,1,0,0-1.79H14.914A5.042,5.042,0,0,0,9.867,52.6a4.976,4.976,0,0,0,4.971,5.093H48.215a1.006,1.006,0,0,1,0,2.012H14.838A6.938,6.938,0,0,1,9.9,57.66ZM5.152,63.213A1.005,1.005,0,0,1,5.864,61.5H49.954a7.056,7.056,0,0,1,7.1,6.96A6.982,6.982,0,0,1,50.967,75.4V73.371a4.979,4.979,0,0,0,4.075-5.012A5.039,5.039,0,0,0,50,63.508H5.864a1,1,0,0,1-.712-.3ZM8.611,65.3H50a3.239,3.239,0,0,1,3.256,3.1,3.192,3.192,0,0,1-2.285,3.133V69.662a.9.9,0,0,0-.9-.9H32.366a.9.9,0,1,0,0,1.79h6.042v1.105H8.611a6.189,6.189,0,0,0,0-6.364ZM40.2,70.557h8.978V83.248L45.1,81.136a.895.895,0,0,0-.823,0L40.2,83.248V70.557Zm-34.335,2.9H38.408v2.011H5.864a1.006,1.006,0,1,1,0-2.011ZM58.969,92.427a1.185,1.185,0,0,1-.843.35H9.552A7.763,7.763,0,0,1,1.79,84.99a7.841,7.841,0,0,1,7.891-7.736H38.408v2.387H9.635a5.45,5.45,0,0,0-5.457,5.244A5.38,5.38,0,0,0,9.552,90.39H42.181a.9.9,0,0,0,0-1.79H9.552a3.59,3.59,0,0,1-3.583-3.673,3.649,3.649,0,0,1,3.667-3.5H38.408V84.72a.9.9,0,0,0,1.307.795l4.972-2.576,4.973,2.576a.9.9,0,0,0,1.307-.795V81.431h4.3a6.706,6.706,0,0,0,0,7.169h-9.5a.9.9,0,0,0,0,1.79H58.126a1.193,1.193,0,0,1,.843,2.037Z" transform="translate(0)"/>
    </g>
    <g id="pluma-de-la-pluma" transform="translate(3641.075 -9844.465)">
      <g id="Grupo_945678" data-name="Grupo 945678" transform="translate(23.103 0.71)">
        <g id="Grupo_945671" data-name="Grupo 945671" transform="translate(0 0)">
          <path id="Trazado_650552" data-name="Trazado 650552" d="M87.967,7.37c-2.359.172-11.624,1.067-19.774,4.9a1.122,1.122,0,0,0-.5.46l-3.733,6.534a.2.2,0,0,1-.381-.079,19.374,19.374,0,0,1,.019-3.915.2.2,0,0,0-.315-.192c-5.469,3.672-11.59,8.145-15.058,14.281a1.026,1.026,0,0,0-.13.515c.021,2.132.256,4.893,1.192,6.64a.1.1,0,0,1-.157.124l-2.586-2.228a.205.205,0,0,0-.335.118A11.507,11.507,0,0,0,48.4,43.974l9.367-1.839a22.54,22.54,0,0,0,11.066-5.668.206.206,0,0,0-.141-.356,26.027,26.027,0,0,1-7.407-1.01.2.2,0,0,1,.011-.394l10.962-2.727a.813.813,0,0,0,.5-.368,22.546,22.546,0,0,0,2.054-4.46l1.214-3.632a27.048,27.048,0,0,1,7.145-11.15l4.95-4.645a.2.2,0,0,0-.154-.353Z" transform="translate(-45.983 -7.37)" fill="#f6f1f1"/>
        </g>
        <g id="Grupo_945673" data-name="Grupo 945673" transform="translate(1.771)">
          <g id="Grupo_945672" data-name="Grupo 945672">
            <path id="Trazado_650553" data-name="Trazado 650553" d="M104.576,7.37c-.965.07-3.086.262-5.813.726l-4.186,3.928a27.431,27.431,0,0,0-7.246,11.308L86.1,27.015a22.873,22.873,0,0,1-2.083,4.523.824.824,0,0,1-.509.373L72.391,34.678a.207.207,0,0,0-.012.4A26.4,26.4,0,0,0,79.892,36.1a.209.209,0,0,1,.143.361A22.858,22.858,0,0,1,68.812,42.21l-4.449.873a7.3,7.3,0,0,0,.644.889l9.367-1.839a22.54,22.54,0,0,0,11.067-5.668.206.206,0,0,0-.141-.356,26.029,26.029,0,0,1-7.408-1.01.2.2,0,0,1,.011-.394l10.962-2.727a.813.813,0,0,0,.5-.368,22.547,22.547,0,0,0,2.054-4.46l1.214-3.632a27.048,27.048,0,0,1,7.145-11.15l4.95-4.645a.2.2,0,0,0-.154-.353Z" transform="translate(-64.363 -7.37)" fill="#e7ecf6"/>
          </g>
        </g>
        <g id="Grupo_945674" data-name="Grupo 945674" transform="translate(2.64 0.051)">
          <path id="Trazado_650554" data-name="Trazado 650554" d="M107.931,12.85l4.95-4.645a.2.2,0,0,0,0-.3l-7.11,3.535A72.143,72.143,0,0,0,83.623,28.5,65.015,65.015,0,0,0,73.383,44.41l9.142-1.8a22.54,22.54,0,0,0,11.067-5.668.206.206,0,0,0-.141-.356,26.029,26.029,0,0,1-7.408-1.01.2.2,0,0,1,.011-.394L97.017,32.46a.813.813,0,0,0,.5-.368,22.546,22.546,0,0,0,2.054-4.46L100.786,24a27.049,27.049,0,0,1,7.145-11.15Z" transform="translate(-73.383 -7.902)" fill="#e7ecf6"/>
        </g>
        <g id="Grupo_945675" data-name="Grupo 945675" transform="translate(1.065 35.864)">
          <path id="Trazado_650555" data-name="Trazado 650555" d="M68.042,384.018a.178.178,0,0,0,.055-.348,7.078,7.078,0,0,1-3.794-2.457,5.1,5.1,0,0,0-5.494-1.371q-.953,2.056-1.769,4.176h11Z" transform="translate(-57.04 -379.567)" fill="#e7ecf6"/>
        </g>
        <g id="Grupo_945676" data-name="Grupo 945676" transform="translate(2.86 35.864)">
          <path id="Trazado_650556" data-name="Trazado 650556" d="M84.93,383.672a7.077,7.077,0,0,1-3.794-2.457,5.093,5.093,0,0,0-5.467-1.378,6.172,6.172,0,0,1,2.908,1.9,10.752,10.752,0,0,0,2.659,2.286h3.64a.178.178,0,0,0,.055-.348Z" transform="translate(-75.669 -379.569)" fill="#d5dff4"/>
        </g>
        <g id="Grupo_945677" data-name="Grupo 945677" transform="translate(2.64 0.051)">
          <path id="Trazado_650557" data-name="Trazado 650557" d="M112.876,7.9l-7.11,3.535q-2.188,1.088-4.288,2.318a27.432,27.432,0,0,0-6,10.058L94.25,27.5a22.872,22.872,0,0,1-2.083,4.523.824.824,0,0,1-.509.373L80.541,35.158a.207.207,0,0,0-.012.4,26.4,26.4,0,0,0,7.512,1.024.209.209,0,0,1,.143.361A22.858,22.858,0,0,1,76.961,42.69l-3.057.6q-.266.557-.522,1.119l9.142-1.8a22.54,22.54,0,0,0,11.067-5.668.206.206,0,0,0-.141-.356,26.029,26.029,0,0,1-7.408-1.01.2.2,0,0,1,.011-.394l10.962-2.727a.813.813,0,0,0,.5-.368,22.547,22.547,0,0,0,2.054-4.46L100.786,24a27.048,27.048,0,0,1,7.145-11.15L112.88,8.2a.2.2,0,0,0,0-.3Z" transform="translate(-73.382 -7.901)" fill="#d5dff4"/>
        </g>
      </g>
      <g id="Grupo_945679" data-name="Grupo 945679" transform="translate(20.664 -0.001)">
        <path id="Trazado_650558" data-name="Trazado 650558" d="M150.4.547A.916.916,0,0,0,149.5,0c-2.628.192-11.84,1.117-20.025,4.964a1.822,1.822,0,0,0-.81.75l-2.876,5.034a19.731,19.731,0,0,1,.1-2.069.914.914,0,0,0-1.418-.854,68.31,68.31,0,0,0-10.131,7.935.71.71,0,1,0,1,1.009,63.381,63.381,0,0,1,9.054-7.178,19.663,19.663,0,0,0,.063,3,.915.915,0,0,0,1.7.358l3.733-6.534a.409.409,0,0,1,.181-.169,58.743,58.743,0,0,1,18.074-4.7l-2.358,2.212a.71.71,0,1,0,.972,1.036l3.424-3.213A.917.917,0,0,0,150.4.547Z" transform="translate(-105.124 0.001)"/>
        <path id="Trazado_650559" data-name="Trazado 650559" d="M50.488,81.019a23.309,23.309,0,0,0,2.118-4.6l1.214-3.632a26.5,26.5,0,0,1,6.028-9.941.71.71,0,0,0-1.022-.986,27.93,27.93,0,0,0-6.353,10.477l-1.214,3.632a21.888,21.888,0,0,1-1.989,4.32.1.1,0,0,1-.064.045L38.244,83.06a.915.915,0,0,0-.047,1.763,25.812,25.812,0,0,0,6.315,1.012,21.812,21.812,0,0,1-9.763,4.646l-7.771,1.526q1-2.089,2.144-4.088h3.409a.71.71,0,1,0,0-1.42H29.956a63.493,63.493,0,0,1,5.729-8,70.765,70.765,0,0,1,7.071-7.256h3.66a.71.71,0,1,0,0-1.42H44.4a71.434,71.434,0,0,1,6.876-5.09.71.71,0,1,0-.775-1.19A72.857,72.857,0,0,0,35.964,76.01V73.882a.71.71,0,1,0-1.42,0v3.765a65.445,65.445,0,0,0-9.037,14.141,11.085,11.085,0,0,1-1.613-7.205l1.9,1.634a.812.812,0,0,0,1.247-1,14.633,14.633,0,0,1-1.108-6.312.315.315,0,0,1,.038-.158A26.386,26.386,0,0,1,28.7,74.841a.71.71,0,0,0-1.09-.911,27.8,27.8,0,0,0-2.874,4.119,1.736,1.736,0,0,0-.222.871,22.376,22.376,0,0,0,.478,4.729l-.856-.738a.916.916,0,0,0-1.5.522,12.265,12.265,0,0,0,2.187,9.853c-1.21,2.636-3.073,8.01-4.114,10.793a.71.71,0,0,0,.422.911.909.909,0,0,0,.788-.146l5.769-3.323a6.844,6.844,0,0,1,7.12.162l2.6,1.659a7.2,7.2,0,0,0,5.875.845l4.217-1.223a5.182,5.182,0,0,1,3.339.16.71.71,0,0,0,.524-1.32,6.609,6.609,0,0,0-4.259-.2l-4.217,1.223a5.773,5.773,0,0,1-4.715-.678l-2.6-1.659a8.26,8.26,0,0,0-8.593-.2l-4.271,2.46c.089-.24,1.933-5.28,1.951-5.315H35.171a.9.9,0,0,0,.132-1.779,6.285,6.285,0,0,1-3.338-2.206,5.866,5.866,0,0,0-.868-.808l3.927-.771a23.241,23.241,0,0,0,11.415-5.846.916.916,0,0,0-.625-1.585,27.441,27.441,0,0,1-5.248-.5l8.985-2.235a1.531,1.531,0,0,0,.939-.691ZM28.842,93.111a3.991,3.991,0,0,1,2.056,1.28,9.613,9.613,0,0,0,1.786,1.626H25.211q.491-1.223,1.027-2.418l2.556-.5.048.015Z" transform="translate(-20.664 -55.702)"/>
        <path id="Trazado_650560" data-name="Trazado 650560" d="M368.416,493.693h-8.94a4.825,4.825,0,0,1-1.757-.33.71.71,0,0,0-.515,1.324,6.237,6.237,0,0,0,2.273.427h8.94a.71.71,0,1,0,0-1.42Z" transform="translate(-324.367 -445.78)"/>
      </g>
    </g>
  </g>
</svg>
