<svg xmlns="http://www.w3.org/2000/svg" xmlns:xlink="http://www.w3.org/1999/xlink" width="134.559" height="124.592" viewBox="0 0 134.559 124.592">
  <defs>
    <clipPath id="clip-path">
      <rect id="Rectángulo_34073" data-name="Rectángulo 34073" width="109.699" height="78.369" fill="none"/>
    </clipPath>
    <clipPath id="clip-path-3">
      <rect id="Rectángulo_34070" data-name="Rectángulo 34070" width="21.85" height="66.051" fill="none"/>
    </clipPath>
    <clipPath id="clip-path-4">
      <rect id="Rectángulo_34071" data-name="Rectángulo 34071" width="27.425" height="67.598" fill="none"/>
    </clipPath>
  </defs>
  <g id="d2" transform="matrix(0.848, -0.53, 0.53, 0.848, 0, 58.132)">
    <g id="Grupo_80813" data-name="Grupo 80813" clip-path="url(#clip-path)">
      <path id="Trazado_115342" data-name="Trazado 115342" d="M22.715,0V70.756L50.14,78.369V7.612Z" transform="translate(4.709 0)" fill="#e8e8e8"/>
      <path id="Trazado_115343" data-name="Trazado 115343" d="M68.146,0V70.756l27.425,7.613V7.612Z" transform="translate(14.127 0)" fill="#e8e8e8"/>
      <path id="Trazado_115344" data-name="Trazado 115344" d="M72.855,0,45.431,7.612V78.369l27.424-7.613Z" transform="translate(9.418 0)" fill="#c9c7c1"/>
      <path id="Trazado_115345" data-name="Trazado 115345" d="M27.424,0,0,7.612V78.369l27.424-7.613Z" transform="translate(0 0)" fill="#cacaca"/>
      <path id="Trazado_115346" data-name="Trazado 115346" d="M22.715,4.46V64.446l27.425,7.613V12.074Z" transform="translate(4.709 0.925)" fill="#3fb7c8"/>
      <path id="Trazado_115347" data-name="Trazado 115347" d="M45.431,12.073V72.059l27.425-7.613V4.46Z" transform="translate(9.418 0.925)" fill="#3fb7c8"/>
      <path id="Trazado_115348" data-name="Trazado 115348" d="M68.226,4.482l-.08-.022V64.445L90,70.51V10.526Z" transform="translate(14.127 0.925)" fill="#3fb7c8"/>
      <path id="Trazado_115349" data-name="Trazado 115349" d="M4.617,10.526V70.511l21.85-6.066V4.46Z" transform="translate(0.957 0.925)" fill="#3fb7c8"/>
      <g id="Grupo_80812" data-name="Grupo 80812" transform="translate(0 0)">
        <g id="Grupo_80811" data-name="Grupo 80811" clip-path="url(#clip-path)">
          <path id="Trazado_115350" data-name="Trazado 115350" d="M25.22,32.715c.016.07-.286.091-.333.092a.291.291,0,0,0,.062.085c.193,0,.305-.048.272-.176" transform="translate(5.159 6.783)" fill="#fff"/>
          <path id="Trazado_115351" data-name="Trazado 115351" d="M22.967,32.247c-.037,0-.028.011.006.037.008-.024.008-.037-.006-.037" transform="translate(4.756 6.686)" fill="#fff"/>
          <path id="Trazado_115352" data-name="Trazado 115352" d="M20.38,33.418a2.234,2.234,0,0,0,.292.11c-.006-.037-.013-.069-.017-.1-.016-.1-.127-.076-.275-.006" transform="translate(4.225 6.916)" fill="#fff"/>
          <path id="Trazado_115353" data-name="Trazado 115353" d="M18.961,32.561h0" transform="translate(3.928 6.75)" fill="#fff"/>
          <path id="Trazado_115354" data-name="Trazado 115354" d="M10.18,17.508h0" transform="translate(2.108 3.63)" fill="#fff"/>
          <path id="Trazado_115355" data-name="Trazado 115355" d="M33.822,20.59a.272.272,0,0,0,.208-.093c.008-.019-.2-.215-.176-.246-1.435.078.177-1.349-.755-1.867.022.012-1.428,1.155-1.358.629,0,.025-.156-.6.046-.763-.147-.021-.4-.112-.419-.112.415-.235-.709-.485-1-.4-.933-.132-1.048,2.089-1.8,2.442-.8.351-.8,1.1-1.322,1.421-.712.419,0-1.379.042-1.312a6.5,6.5,0,0,0-2.3-.694,2.121,2.121,0,0,0,.237-.576c-.1-.1-.254.046-.357-.037-.192-.144,2.069-1.7,2.16-1.545-.106-.169-.478-.016-.584-.2,1.076.33,1.516-.308,2.439-.622-.318.281-.63.573-.893.8.182-.029,1.507.164,1.781-.063-.184.144-.5-.794-.676-.794-.06,0-.042.237-.14.264.068-.106.13-.217-.023-.234a.142.142,0,0,0,0-.109c.333-.048.267.286.516.286.135,0-.086-.221-.1-.234.244-.243,1.591-.389,1.262-1.072-.023-.039,1.2.158,1.044-.3.12.147.3.424.472.374.012.164-.338-.047-.321.18.006.072.429.053.478.033,0,.15-.215.234-.209.269.074.36.309-.184.311-.2.037.1.062.043.142.072-.116.408-.711.508-.711.833-.278.157-1.266-.151-1.364.311.1-.493,2.128.988,2.544.988.27,0-.339-.618-.349-.654.3-.006.557.473.788.473.214,0-.01-.4.113-.454,0,0,.012-.006.019-.007.034.071.028.126.133.126-.15,0,.03-.362.083-.389-.076-.12-.5-.447-.487-.454.059-.14,1.25.275,1.813-.315-.1-.037-1.27-.6-1.27-.612-.018-.127.56-.122.561-.212,0-.034-.211-.064-.26-.081a.194.194,0,0,0,.007-.042c.052.008.176.06.217-.01.106-.208-.258-.142-.326-.113.075-.208-.545-.73-.831-.347-.111-.266-.3-.287-.4-.447.065-.41-.793-.369-.784-.2.034.4.435.051.583.168a6.964,6.964,0,0,1-.881.211c0-.076.308-.29.3-.444-.007-.2-1.509.182-1.572.5-.017.093.225.049.217.126,0,0-.126.068-.123.068-.6-.121.66-.775.666-.751-.081-.269-1.859.314-1.859.765a2.911,2.911,0,0,1,.525.076c-.058,0-.589-.076-.559.064.058.281,1.35.255,1.35.255l-.11.088a5.71,5.71,0,0,1-1.273.567c-.024,0,.1-.1.087-.122a5.746,5.746,0,0,1-.508.344.378.378,0,0,0-.107-.165c-.006.007.7-.54.2-.54a.34.34,0,0,0-.139.05c.014-.231-.49-.1-.508-.126.179-.124.665-.442.191-.675.27-.066,1.449-.311,1.584-.566-.058.109-2.393.455-2.644,1.061-.105.227.34.188.385.2-.01.047.043.059.072.072-.156.062-.905.394-.905.628-.011.013-.13.042-.118.046-.028-.007-.047-.042-.081-.049a2.068,2.068,0,0,1,.3-.257c-.006-.043-.257-.008-.3-.063a3.655,3.655,0,0,0,.78-.3c.093-.188-1.262-.089-1.2.157.029.113.251-.019.308.043a1.766,1.766,0,0,1-1.736.191c.473-.15-.843-.426-.968-.076.006-.016.184.321-.062.47a.324.324,0,0,1-.105-.034.192.192,0,0,0-.2-.257c.022-.027.214-.088.212-.1-.006-.039-1.316.25-1.525.089,0-.138.594-.016.491-.214-.273-.493-1.673-.205-2.078-.28a.24.24,0,0,1,.065-.029.918.918,0,0,0,.18-.174c-.042-.211-.714.289-.714.186-.011,0,.1-.29.077-.327a.3.3,0,0,0-.124-.05c.041,0-.453.4-.512.255a.822.822,0,0,0,.1-.064c-.629.3-9.829-.835-9.684.572.011.109.254.573.473.373,0,.321-.606.348-.758.305.033-.022.194-.117.187-.159,0,.035-1.556.188-1.559.355,0,.083.235.083.273.083-.035,0-.333.126-.325.219.024.186.927.1,1.335-.007-.877.36-3.208.855-2.819,1.664.129.243.7-.314.823-.319a6.031,6.031,0,0,0-.843.682,5.037,5.037,0,0,0,1.17-.145c-.258.237-.027.169.187.105-.228.133-1.193.491-2.1.825h0a1.134,1.134,0,0,1,.2.182c1.047-.307,2.177-.65,2.427-.734-.046.037-.642.243-.525.38-.018-.019.141.091.111.091A3.883,3.883,0,0,0,9.506,19.2c.027-.094-.033-.022,0-.094.012-.022-.659.157-.717.174.187-.106.753-.219.483-.413.551-.159.914-.489,1.38-.584-.171.133-.8.43-.849.56.048-.151,1.241-.141,1.794-.325a.052.052,0,0,0,0,.053c.027.056.287-.145.346-.174,0,.209.056.071.087.32,2.145-.543.8,1.1,1.3,1.78.168.243.438-.426.493-.56a8.021,8.021,0,0,0,0,1.95c-.112-.034-.448-.286-.485-.057-.135.582.566.7.129,1.568-.688,1.049-2.127,2.732-1.4,3.883.392.611,1.585,2.756.854,2.756.369,0,.732,2.045,1.161,2.081h.048c.24,0-.881-3.3-.635-3.3.78,0,.1.775.342,1.114.949,1.286,1.379,3.681,3.215,4.455a12.694,12.694,0,0,0,3.731,1.224c.45,0,.652,2.075,1.425,2.075.013,0,.217-.379.4-.1,0,.173-.129.078-.153.124s.062.162.08.162a6.331,6.331,0,0,0,.8-.456,2.706,2.706,0,0,1-1.306-1.332c-.686-1.607.561-.729-1.495-1.442a8.294,8.294,0,0,0,.635-1.469c.723-1.405-1.23-.256-1.107.138.187.573-1.65.386-2-.656.448-.57,1.456-4.78,2.906-3.021a.118.118,0,0,1,.118.059c.1-.185.6-.459.665-.528.063-.464,1.3,1.072,1.346,1.13a4.437,4.437,0,0,0,.413,1.009c.687,0,.118-2.954,1.455-3.244.712-.152.819-.715,1.053-.89.1-.075.018-1.19.449-1.231-.033.071-.351.784-.278.874.147.162.445-.776.45-.845a2.1,2.1,0,0,1,.074.2c-.022-.1.487-.6.844-.806-.016,0-.027,0-.03-.01a.709.709,0,0,0,.127-.041c-.029.018-.062.03-.1.051.076-.007.278-.093.305-.047a.111.111,0,0,0-.116-.029c.366-.122.467-.19.489-.019,0-.068.488-.07.394-.287-.054-.124-.116.042-.2.091,0-.086-.078-.165-.077-.209.047-.292.707-.547.956-.765,0,.087-.115.071-.105.155,0-.059,1.4-.561,1.518-.657-.029.057-.214.136-.212.158.006.094.267-.006.292-.022,0,.269-1.012.1-.785.676.083.217,2.566-1.254,2.014-1.254-.6,0-.742.153-.77.228a1.511,1.511,0,0,0-.215-.54,3.041,3.041,0,0,1-.613-.024.025.025,0,0,1,0-.017c.375.083.525-.211.809-.291.184-.549-1.939.514-2.19.665,1.4-1.087,2.639-.77,4.035-1.466.991,0,1.142-1.012.735-1.12m-5.1-4.993a.707.707,0,0,0-.24.28c-.156-.275.1-.256.24-.28m-1.1,1.029a.8.8,0,0,1,.558.162c-.211.01-.478-.171-.559-.162Z" transform="translate(1.273 2.921)" fill="#fff"/>
          <path id="Trazado_115356" data-name="Trazado 115356" d="M28.857,19.508a.627.627,0,0,0-.113.066.218.218,0,0,1,.113-.066" transform="translate(5.959 4.045)" fill="#fff"/>
          <path id="Trazado_115357" data-name="Trazado 115357" d="M28.459,19.661l-.024.01a.167.167,0,0,0,.024-.01" transform="translate(5.895 4.076)" fill="#fff"/>
          <path id="Trazado_115358" data-name="Trazado 115358" d="M27.486,16.826c-.194.157.107-.151,0,0" transform="translate(5.684 3.48)" fill="#fff"/>
          <path id="Trazado_115359" data-name="Trazado 115359" d="M22.984,15.669c.235.1-.077.029,0,0" transform="translate(4.762 3.249)" fill="#fff"/>
          <path id="Trazado_115360" data-name="Trazado 115360" d="M18.445,26.765c.146-.17-.033.043,0,0" transform="translate(3.823 5.535)" fill="#fff"/>
          <path id="Trazado_115361" data-name="Trazado 115361" d="M9.979,16.058h0" transform="translate(2.069 3.329)" fill="#fff"/>
          <path id="Trazado_115362" data-name="Trazado 115362" d="M9.791,16.056a.2.2,0,0,0-.043,0,.191.191,0,0,1,.043,0" transform="translate(2.021 3.328)" fill="#fff"/>
          <path id="Trazado_115363" data-name="Trazado 115363" d="M10.217,17.509c-.56.105.115-.025,0,0" transform="translate(2.071 3.629)" fill="#fff"/>
          <path id="Trazado_115364" data-name="Trazado 115364" d="M12.248,18.856c.006,0-.008.013-.011.018.054-.094.161-.205.011-.018" transform="translate(2.537 3.888)" fill="#fff"/>
          <path id="Trazado_115365" data-name="Trazado 115365" d="M12.592,19.221c-.023.042,0,0,0,0" transform="translate(2.608 3.985)" fill="#fff"/>
          <path id="Trazado_115366" data-name="Trazado 115366" d="M18.987,32.565c-.432.3.165-.118,0,0" transform="translate(3.903 6.747)" fill="#fff"/>
          <path id="Trazado_115367" data-name="Trazado 115367" d="M18.621,27.173c-.041-.012-.057-.1-.1-.161-.037.072-.021.13.1.161" transform="translate(3.837 5.6)" fill="#fff"/>
          <path id="Trazado_115368" data-name="Trazado 115368" d="M27.489,17.516l-.006-.011a.176.176,0,0,0-.1.036c.065.01.115.007.106-.025" transform="translate(5.677 3.629)" fill="#fff"/>
          <path id="Trazado_115369" data-name="Trazado 115369" d="M17.477,15.046c0,.006-.016.023-.04.039.025-.011.043-.025.04-.039" transform="translate(3.615 3.12)" fill="#fff"/>
          <path id="Trazado_115370" data-name="Trazado 115370" d="M31.77,37.8c.008,0,.034-.536-.129-.536-.548,0-1.036-.488-1.483.384.017-.337-1.883-4.808-2.949-3.286.161-.666-.94-1-1.259-1.352a8.059,8.059,0,0,1-2.377-.7c-.063.13-.555.582-.538.5,0-.086-.074-.142-.074-.219s.412-.117.276-.308c-.49-.672-2.079,1.588-1.969,1.588a2.03,2.03,0,0,1-.529-.083c.091.52.359,1.658.315,1.658-.936,0-1.165,2.628-.9,2.283-.217,1.672.557,2.488,1.437,4.32.542,1.129,3.336,1.769,2.307,3.586-.377.739.062,6.347.714,6.68-.165.035-.094.612.1.612s.043-.525.063-.688c0,.01.068,0,.08,0a2.093,2.093,0,0,1,.184,1.1c-.094,0-.128-.251-.24-.251.1,0-.046,1.135.031,1.135-.043,0,.481-.089.481-.228.056.078.174.321.122.412-.707.692.763,1.778.768,1.774a.464.464,0,0,1,.013.1c-.116-.019-.206-.118-.206.06a7.5,7.5,0,0,0,2.657,1.065s0-.006.007,0c-.346,0,.327-.433.35-.476-1.741-.449-2.186-3.594-1.691-4.288.123-.263.241.3.4.076.1-.151-.863-.42-.694-.7.126-.035,1.458-.861.662-.773,2.352-.615.771-.366.785-1.67,0,1.077,1.449-.34,1.964-1.09,0,.039,0,.063.035.063.35,0,.867-2.894,1.818-3.176.877-.314,3.2-6.041,2.428-6.663s-2.226-.6-2.958-.892m-8.6-4.472c-.368.495.479-.674,0,0m2.037,20.5c-.191-.18,0-.257,0,0" transform="translate(4.157 6.665)" fill="#fff"/>
          <path id="Trazado_115371" data-name="Trazado 115371" d="M22.639,33.126h0" transform="translate(4.691 6.866)" fill="#fff"/>
          <path id="Trazado_115372" data-name="Trazado 115372" d="M29.029,16.6c.007.014.016.025.014.033.006-.033,0-.039-.014-.033" transform="translate(6.018 3.44)" fill="#fff"/>
          <path id="Trazado_115373" data-name="Trazado 115373" d="M39.97,15.71a6.783,6.783,0,0,0-.977-.043c.482-.018.513,0,1.158,0,.278,0-.132-.414-.415-.68.132.082.7.241.6-.135-.023-.078-.268-.066-.325-.12.325-.113.435.033.733-.153-.013.028-.109-.029-.129-.047a.813.813,0,0,0,.54-.12c.083-.077-.226-.094-.261-.126.506-.225.031-.31-.007-.484-.062-.243.347,0,.448.124a.955.955,0,0,1,.215-.258c-.045-.256-.31.021-.419-.152.024,0,.3.091.291-.014,0-.363-.563.006-.6,0,.161-.715,2.3-.464,2.381-1.013a7.032,7.032,0,0,1-1.678-.142c-.037.024-.029.3-.349.208.31-.283-.559-.065-.6-.138a3.575,3.575,0,0,0,.858-.142c0-.351-2.393-.057-2.444-.069.046-.025.285-.036.285-.124-.039-.314-2.807.359-2.948.151.006,0-.132-.136-.132-.04,0,.279.518.05.563.235-.222.066-1.011-.375-1.193-.126-.066.091.152.126.2.14-.08.014-.728,0-.809.022a11.8,11.8,0,0,0-3.143.375c.023.12.423-.046.449.039.116.385-2.167.175-2.188.517a3.693,3.693,0,0,0,.53.19c-.153,0-.465-.088-.5.076-.121.689,2.433-.042,2.456.406,0,.239-.1-.016.127.249-.263.264-.105.5.071.418-.007.066-.6.442-.145.231-.037.037-.322.275-.258.342.176.175.435-.012.572-.115-.046.2.077.346.333.295a.445.445,0,0,1-.033.1c-.371.062-.4-.2-.409-.214-.149-.171-.606.458-.639.513-.082.152.32.133.566.081-.384.311-.965.786-.617.806-.709.9.342,1.526.849,2.032a17.168,17.168,0,0,0,4.378-2.587c.31.289,1.053.159,1.48,0,.158-.052,1.13-.493,1.13-.493m-.086-.936c-.045.022-.244.076-.2.163-.1-.092-.177-.158-.181-.162a.854.854,0,0,1,.384,0m-9.183-1.2c.03-.019.128-.01,0,0m2.23,2.234c-.058-.034-.209-.091-.245-.123a1.937,1.937,0,0,1,.365,0c.024,0-.03.051-.12.122" transform="translate(6.236 2.487)" fill="#fff"/>
          <path id="Trazado_115374" data-name="Trazado 115374" d="M39.4,13.65c.039,0,.031-.019,0-.057-.017.037-.024.057,0,.057" transform="translate(8.166 2.818)" fill="#fff"/>
          <path id="Trazado_115375" data-name="Trazado 115375" d="M40.757,19.062c.039.057.205-.219.262-.245,0,.083-.168.246-.1.339.076-.027.152-.181.22-.171-.007.113-.333.239-.3.318.07.112.214-.126.239-.127-.012.048-.118.222-.08.291s.273-.21.283-.21c.025.018-.117.274-.112.319.01.083.391-.012.452-.039-.028.17-.464.776-.464.607,0,.152.076.135.228.175-.046.081-.351.3-.332.349.03.1.508.12.642.1-.037.031-.918.342-.861.484,0-.021,2.137-.234,2.1-.446-.008-.033-.211-.064-.22-.064.13-.217.6-.715-.1-.5a8.787,8.787,0,0,1-.433-1.637c-.075-.228-.516.1-.6-.029.023.029.584-.484.47-.559,0,0-.112-.048-.112-.048a9.021,9.021,0,0,0-.74.551.611.611,0,0,1-.408.153c.056.118-.054.367-.034.4" transform="translate(8.449 3.724)" fill="#fff"/>
          <path id="Trazado_115376" data-name="Trazado 115376" d="M73.688,24.471H73.67c.033.013.033.01.018,0" transform="translate(15.273 5.073)" fill="#fff"/>
          <path id="Trazado_115377" data-name="Trazado 115377" d="M67.733,30.917c.013-.016-.053.056,0,0" transform="translate(14.037 6.409)" fill="#fff"/>
          <path id="Trazado_115378" data-name="Trazado 115378" d="M76.733,21.827c.033.039.056.057.062.046s-.022-.023-.062-.046" transform="translate(15.908 4.525)" fill="#fff"/>
          <path id="Trazado_115379" data-name="Trazado 115379" d="M56.724,14.392c-.007.013,0,.035.019.057.012-.081.007-.124-.019-.057" transform="translate(11.759 2.977)" fill="#fff"/>
          <path id="Trazado_115380" data-name="Trazado 115380" d="M79.072,19.783l.016.019c0-.008,0-.016-.016-.019" transform="translate(16.392 4.102)" fill="#fff"/>
          <path id="Trazado_115381" data-name="Trazado 115381" d="M79.159,32.487c.008.246,3.155-1.9,2.2-3.027.071.076-.536,0-.529,0,.7-.118-.155-.962-.413-1.2-1.11-1,.109-.675.109-1.244a.877.877,0,0,0-.034-.19c-.068-.071-2.032-.086-1.774-.544a.574.574,0,0,1,.037-.091c.379,0,.611-.752.922-.622.124.035.072.453.081.662a8.024,8.024,0,0,1,1.483.54c.782.013.312.589.733,1.253-.011-.017,1.264-.275.779-.793-.3-.311-1.556-2.149-.752-2.149,1.836,0,1.152-2.267.869-3.554.786.136,1.114,2.188,1.708,2.188.094,0-.017-.2-.013-.246a1.212,1.212,0,0,1,.356.11c-.19-.2-.763-1-.817-1.082.118-.037.586.205.59.187a23.124,23.124,0,0,0-2.185-2.06H82.5c-.181.048.233.314.272.348-.176.226.075.014.051.472-.5-.479-1.172-.928-1.617-.71,0-.167-.331-.466-.374-.337-.016.082.27.186.223.264s-.312-.255-.326-.255-.048.209-.408.1c.615-.87,1.9-2.607,3.105-1.588a.484.484,0,0,0-.2.085c0,.234,1.075-.047,1.076-.059a.971.971,0,0,0-.031-.482,1.312,1.312,0,0,0,.375-.349c-.155.191.976.572.9.043-.017-.106-.26-.182-.328-.273a1.412,1.412,0,0,1,.648.532c-.045-.006-.552.948-.628,1.039.034-.029,2.019,2.8,1.979,2.735.145.229.385-.73.186-1.044a1.316,1.316,0,0,1,.353-.033c-.072-.085-.384-.283-.349-.359.013-.024.43-.512.2-.685.011-.018.011-.037-.011-.08-.167-.326-1.537-.75-1.324-1.2.232-.408,1.213-.018,1.724-.018-.532,0,1.473-1.4,1.289-.835.155-.437-1.216-.53-1.363-.773.133.028.487.058.487-.175,0-.082-.406-.321-.373-.321s.106.1.106-.006a5.758,5.758,0,0,0,2.4.559c.017-.048-.366-.3-.406-.327.053-.037.3.034.258-.1-.168-.082-1.483-.779-1.649-.479A1.022,1.022,0,0,0,89,16.5a32.527,32.527,0,0,0-5.269-1.141,4.436,4.436,0,0,0,.622.4c-.28.421-6.324-.957-7.5-1.035,0-.057.179-.023.2-.047v-.029a7.185,7.185,0,0,0-1.305-.089c-.008.033.12.082.144.092-.047.008-.333-.01-.348.043.016-.1.478.278.484.284-.49.039-1.035-.151-1.77-.151-.081,0,.064.311.082.386-.252-.08-2.673-1.442-2.853-.89-.029.083.256.193.3.258-.88-.439-2.493.107-3.033-.331.064-.014.338-.014.338-.126,0-.257-.743.158-.74.17,0,.1.2.047.256.041-.057.168-.885.039-.885.252,0-.3,1.165-.465,1.111-.722-.142-.809-3.351-.415-3.217-.374-.573-.112-.794.2-1.37.072-.155.033-1.6.357-1.608.524,0,.048.5.077.578.109-.247.2-1.289-.054-1.326.249-.013.181.887.36.887.427a3.224,3.224,0,0,1-1.137-.215c.041-.022.223-.011.239-.047.121-.289-.617.205-.549.174.153.066.255-.018.4.054-.072.031-.449-.072-.474.052a.079.079,0,0,0,0,.034,1.482,1.482,0,0,1-.46-.278c-.019.158-.087.462-.135.413.007.012.016.03.025.045-.543-.717-1.39-1.2-1.478.033,0-.011.355.275.371.285-.239.473.67.031.524.567a16.062,16.062,0,0,0-2.7-.6,7.021,7.021,0,0,0,.78.338c.024.472-.448-.041-.542-.11a3.652,3.652,0,0,1-1.046.363c-.1-.221.111-.066.111-.208s-2.014.944-2.133.479c.092-.147.289.01.369-.118-.221-.105-.709-.18-.844-.274-.065.076.4.658.409.593-.019.074-.088.145-.054.226-.776-.558-.778.34-.822.45-.191.286-.8-.365-.984-.065-.06.093.415.241.459.293-.551.275-1.154-.66-1.461-.9.456-.146,3.138.436,1.5-.427a5.219,5.219,0,0,0-2.459-.53c.029-.013.351-.109.344-.158-.06-.3-.7-.041-.739-.052,0,0,.132-.164.13-.167-.184-.206-.347.113-.459.162a.374.374,0,0,1-.033-.047c0,.063-.063.136-.32.152.019-.057.241-.232.185-.3a5.384,5.384,0,0,1-1,.152c.035.023.167.075.19.13a.59.59,0,0,0-.584.174c.041-.5-.355.031-.429.2-.182-.34-.2-.033-.285.1-.123-.383-.6.088-.924.221a.194.194,0,0,0,0,.1c.047.062.443-.161.537-.179.031,1.043-1.97,1.455-1.99,1.806.013-.145-1.126.877-.455,1.1-.235.433,1.112.792,1.358.024.394,1.189.222.936.148,1.609,0,.045.13.1.162.1.986,0,1.315-1.188,1.933-1.807.043-.039-.933-.759-.239-1.066.345-.176.92-.4,1.3-.551-.412.261-.907.814-.516,1.213s1.52.2,2.232.285c-.374.088-2.02.133-2.067.577.006-.027.1.181.085.177.078-.011.736-.281.635-.161-.022.141.034.276,0,.4-.687.214-2.325,1.708-3.562,1.093-.392.281.016-1.2-.07-1.291-.615-.642-.479,1.265-.477,1.279a28.518,28.518,0,0,1-3.085,1.49c.6,0-.8.685-.9.54.1.409,2.271,1.741-.256,1.741-1.515,0-1.265,1.128-1.292,2.477.509.113,3.185.391,2.735-.878-.263-.769,3.1-2.563,3.1-1.31,0,.068,1.445.686,1.451.919.043.752-.72.755-.72.868,0,1.442,1.772-.619,1.469-.9.118.06.25.208.321.214.217-.245-1.858-1.281-1.858-1.793,0-.671.814.066.814.141,0,.139,2.607,2.786,2.854,2.473a2.019,2.019,0,0,1,.152-.2c-.117-.081-.837-.874-.691-.874.126,0,1.181-.35,1.212.012.008.062-.26.379-.225.468.133.3.3-.153.3-.153a1.216,1.216,0,0,1-.249.5,2.145,2.145,0,0,0,.408.088c0,.054-.28.144.1.29-.048,0-.2.254-.2.29.186-.129.176-.156.356-.216,0,.069-.147.03-.18.139a.936.936,0,0,1,.22.243c.069-.081.105-.26.151-.292,0,.279,2.242.25,2.242-.028.395,2.057-1.136,2.288-2.877,1.972-.251-.047-3.144-.322-2.325.383a7.511,7.511,0,0,0-2.406-1.183c-.546-.15.263-.916.029-1.269-.6-.947-5.587,1.087-6.125,1.438a14.8,14.8,0,0,0-2.63,3.745c-.136.4-.657,3.383-.354,3.732.543.593,1.072,1.582,1.781,2.34,1.236,1.626,3.127.355,4.642.169.389-.046,2.983.982,2.122,1.8-.494.547.924,3.207,1.186,3.917.6,1.553-1.008,2.716.138,4.438.8,1.158.8,3.569,1.446,4.582.5.768,1.633.175,2.5.175,1.973,0,2.568-4.024,3.041-4.774-.171-1.012,1.825-1.875,1.829-3.6.016-.293-1.031-3.3.157-3.3,1.123,0,3.411-4.211,3.319-4.992-.022-.209-2.3-.174-2.778-.174.615-.524-3.8-5.373-3.543-6.807.093.167.361.785.589.785.085,0,.132-.435.153-.541.052.75,3.693,5.883,3.508,6.087,1.19-1.334,4.806-1.363,4.713-3.559,0,.12-1.673-1.4-1.34-1.4-.419,0-.664.806-1.282.806-.407,0,.076-.844-.369-.844-.1,0-.071.331-.092.349.033-.007-1.625-1.934-.567-1.776.205.023,1.432,1.824,1.955,1.234.418-.508,4.17,1.582,4.971,1.413-.1.187-.448.15-.478.212-.06.153.77.9,1.044.439.184,1.437,2.561,5.97,2.79,4.433.035-.318-.158-2.389.4-2.607A5.535,5.535,0,0,0,71.088,32.5c0,.32.566.147.6-.089.1.261.429.035.429-.094.234.928,1.489,2.7,1.94,2.235.739-.788.959,3.309.8,3.309.051,0,.078-.2.093-.228.042.06.163.375.182.394,0,0,1.483,2.844,1.934,2.368.2-.205-2.975-4.73-1.59-4.73.392,0,1.69,1.85,1.643,1.875,2.476-1.414-1.38-4.856.979-4.856a4.287,4.287,0,0,0,.054.513c-.151-.318.919-.522,1.007-.712M61.741,15.069a.392.392,0,0,1-.12-.013c.17.012.3-.006.12.013m-1.05,1.492c.63,0,.506-.643.136-1.231a1.654,1.654,0,0,0,1.008.413c-.012,0-.388.039-.415.109-.045.1.321,1.285-.729.71m1.187-.815c.27.035.485.441.511.441-.151,0-.31-.354-.511-.441M77.1,14.87c.338-.152.153-.06,0,0" transform="translate(7.715 2.772)" fill="#fff"/>
          <path id="Trazado_115382" data-name="Trazado 115382" d="M72.489,24.142a.247.247,0,0,1-.024-.118c-.063,0-.066.037.024.118" transform="translate(15.013 4.981)" fill="#fff"/>
          <path id="Trazado_115383" data-name="Trazado 115383" d="M47.742,14.938c0-.066-.072-.113,0,0" transform="translate(9.891 3.083)" fill="#fff"/>
          <path id="Trazado_115384" data-name="Trazado 115384" d="M48.53,24.282c.006,0,.012,0,.023-.011-.019,0-.029,0-.023.011" transform="translate(10.06 5.032)" fill="#fff"/>
          <path id="Trazado_115385" data-name="Trazado 115385" d="M49.15,24.961a.089.089,0,0,1-.1.043c.1.028.113,0,.1-.043" transform="translate(10.169 5.175)" fill="#fff"/>
          <path id="Trazado_115386" data-name="Trazado 115386" d="M40.993,21.212a.1.1,0,0,1,0-.057.055.055,0,0,0,0,.057" transform="translate(8.497 4.386)" fill="#fff"/>
          <path id="Trazado_115387" data-name="Trazado 115387" d="M48.259,24.311c.008.008.016.011.017.008.006-.022,0-.018-.017-.008" transform="translate(10.005 5.039)" fill="#fff"/>
          <path id="Trazado_115388" data-name="Trazado 115388" d="M81.729,37.842h0c.025.01.016,0,0,0" transform="translate(16.943 7.845)" fill="#fff"/>
          <path id="Trazado_115389" data-name="Trazado 115389" d="M82.528,38.485c-.033.057.714-.03.127-.3-.04-.017-.017-.008,0,0-.247-.117-3.419-2.574-3.58-1.381-.051.419-1.181-.809-1.753-.58-.023-.014-.037.07-.054.112.216.124.537.564.862.546-.163.025-.394.034-.439.105.047-.072.289.516.322.516.14,0,.2-.256.263-.349,0,.641,1.117.838,1.117,1.885,0,.4,2.485-.021,1.821-.021.934-.624,1.316.962,2.3.962a.709.709,0,0,0,.19-.2c.008-.249-1.457-.821-1.175-1.291" transform="translate(16.018 7.504)" fill="#fff"/>
          <path id="Trazado_115390" data-name="Trazado 115390" d="M77.272,36.314l-.027-.016c.008.059.018.048.027.016" transform="translate(16.014 7.525)" fill="#fff"/>
          <path id="Trazado_115391" data-name="Trazado 115391" d="M83.716,43.642a3.177,3.177,0,0,1-.071-.779c-.016-.331-1.327-1.994-1.28-2.132-.059-.116-.138-1.522-.227-1.522-.3,0-.875,3.033-1.233,2.673-.4-.391-.966-.572-1.308-1.043-.121-.192.774-.833.615-.973a1.914,1.914,0,0,1-.122-.188c-.186,0-.058.256-.181.256-.024-.007-.074-.232-.031-.232-.512,0-.878-.272-1.271-.272-.141,0,.26.286.2.372.011-.01-1.776.885-1.052.939-.133.261-.362-.1-.488.185-.087-1.2-1.242.221-1.344.477-.091,0-.169-.123-.223-.123-.19,0,.033.357.028.4-.2-.065-.046-.013-.139.17-.062-.107-.031-.338-.087-.4a9.444,9.444,0,0,1-3.211,2.235c0-.033.06-.274-.011-.269-.112.5-.076,1.18-.176,1.583-.014.033-.066.062-.1.08-.01-.041-.034-.2-.089-.211-.225-.048.077.315-.068.315-.024-.052-.078-.415-.164-.415a9.083,9.083,0,0,1,.209,2.54c-.368,1.316-.269.845,1.081.671,1.2-.174,2.226-.873,3.508-.873a1.128,1.128,0,0,1,.841.316c.222,1.163.415,2.256,1.572,2.987a.878.878,0,0,0,1.075-.138c.122-.146.238-.291.354-.441.883-.008,4.416-4.006,4.293-5.272.036.372-.9-1.408-.9-.91" transform="translate(14.86 8.129)" fill="#fff"/>
          <g id="Grupo_80807" data-name="Grupo 80807" transform="translate(5.575 5.386)" style="mix-blend-mode: multiply;isolation: isolate">
            <g id="Grupo_80806" data-name="Grupo 80806">
              <g id="Grupo_80805" data-name="Grupo 80805" clip-path="url(#clip-path-3)">
                <path id="Trazado_115392" data-name="Trazado 115392" d="M4.617,10.526V70.511l21.85-6.066V4.46Z" transform="translate(-4.617 -4.461)" fill="#cecece"/>
              </g>
            </g>
          </g>
          <g id="Grupo_80810" data-name="Grupo 80810" transform="translate(54.849 5.386)" style="mix-blend-mode: multiply;isolation: isolate">
            <g id="Grupo_80809" data-name="Grupo 80809">
              <g id="Grupo_80808" data-name="Grupo 80808" clip-path="url(#clip-path-4)">
                <path id="Trazado_115393" data-name="Trazado 115393" d="M45.431,12.073V72.059l27.425-7.613V4.46Z" transform="translate(-45.431 -4.461)" fill="#cecece"/>
              </g>
            </g>
          </g>
        </g>
      </g>
    </g>
  </g>
</svg>
