<svg xmlns="http://www.w3.org/2000/svg" xmlns:xlink="http://www.w3.org/1999/xlink" width="114.777" height="121.386" viewBox="0 0 114.777 121.386">
  <defs>
    <clipPath id="clip-path">
      <rect id="Rectángulo_336073" data-name="Rectángulo 336073" width="95.686" height="82.024" fill="none"/>
    </clipPath>
    <clipPath id="clip-path-2">
      <rect id="Rectángulo_336072" data-name="Rectángulo 336072" width="95.686" height="82.023" fill="none"/>
    </clipPath>
    <clipPath id="clip-path-3">
      <rect id="Rectángulo_336061" data-name="Rectángulo 336061" width="40.422" height="37.211" fill="none"/>
    </clipPath>
    <clipPath id="clip-path-4">
      <rect id="Rectángulo_336062" data-name="Rectángulo 336062" width="37.478" height="36.525" fill="none"/>
    </clipPath>
    <clipPath id="clip-path-5">
      <rect id="Rectángulo_336063" data-name="Rectángulo 336063" width="38.434" height="38.237" fill="none"/>
    </clipPath>
    <clipPath id="clip-path-6">
      <rect id="Rectángulo_336064" data-name="Rectángulo 336064" width="37.67" height="34.79" fill="none"/>
    </clipPath>
    <clipPath id="clip-path-7">
      <rect id="Rectángulo_336067" data-name="Rectángulo 336067" width="35.829" height="26.868" fill="none"/>
    </clipPath>
    <clipPath id="clip-path-8">
      <rect id="Rectángulo_336065" data-name="Rectángulo 336065" width="32.56" height="23.688" fill="none"/>
    </clipPath>
    <clipPath id="clip-path-9">
      <rect id="Rectángulo_336066" data-name="Rectángulo 336066" width="30.256" height="20.55" fill="none"/>
    </clipPath>
    <clipPath id="clip-path-10">
      <rect id="Rectángulo_336070" data-name="Rectángulo 336070" width="35.233" height="26.696" fill="none"/>
    </clipPath>
    <clipPath id="clip-path-11">
      <rect id="Rectángulo_336068" data-name="Rectángulo 336068" width="32.017" height="23.317" fill="none"/>
    </clipPath>
    <clipPath id="clip-path-12">
      <rect id="Rectángulo_336069" data-name="Rectángulo 336069" width="30.102" height="20.61" fill="none"/>
    </clipPath>
    <clipPath id="clip-path-13">
      <rect id="Rectángulo_336071" data-name="Rectángulo 336071" width="7.722" height="7.373" fill="none"/>
    </clipPath>
  </defs>
  <g id="d3" transform="translate(0 86.721) rotate(-65)">
    <g id="Grupo_947200" data-name="Grupo 947200" clip-path="url(#clip-path)">
      <g id="Grupo_947199" data-name="Grupo 947199" transform="translate(0 0)">
        <g id="Grupo_947198" data-name="Grupo 947198" clip-path="url(#clip-path-2)">
          <path id="Trazado_654557" data-name="Trazado 654557" d="M4.243,14.608c-1.479-.465-1.731-.8-1.488-2.235a22.932,22.932,0,0,1,3.61-8.6C7.028,2.74,7.822,1.8,8.562.817A1.727,1.727,0,0,1,10.848.2C23.42,5.793,34.8,13,43.521,23.922a48.507,48.507,0,0,0,8.01,8.459,46.587,46.587,0,0,0,9.948,5.848c7.4,3.224,14.487,6.961,20.687,12.23A135.333,135.333,0,0,1,95.2,63.556a1.509,1.509,0,0,1,.151,2.056,40.821,40.821,0,0,1-7.863,8.725,2.089,2.089,0,0,1-.608.442c-.618.2-1.343.582-1.854.4-.327-.115-.361-1.1-.5-1.694a1.132,1.132,0,0,1,.081-.429l-.259-.052c-1.19.973-2.361,1.967-3.573,2.911-1.534,1.2-3.094,2.357-4.655,3.518a12.1,12.1,0,0,1-12.077,1.7A32.674,32.674,0,0,1,49.766,70.825c-3.365-4.142-4.34-8.927-3.88-14.115a51.158,51.158,0,0,1,2.66-11.783,4.7,4.7,0,0,0-4.037-6.256,4.367,4.367,0,0,0-2.412.679c-1.772,1.03-3.379,2.363-5.2,3.3a71.458,71.458,0,0,1-8.456,3.81c-4.6,1.643-9.114.855-13.429-1.2A30.127,30.127,0,0,1,1.906,34.024,11.006,11.006,0,0,1,.539,24.489c.929-2.875,2.067-5.682,3.12-8.516.161-.433.364-.851.585-1.364M29.5,13.616c-1.471-.92-3.21-2.167-5.09-3.141a48.6,48.6,0,0,0-5.946-2.523,6.092,6.092,0,0,0-5.121.484C9.425,10.637,6.793,15.3,4.623,19.09,2.48,22.834,1.259,27.6,3.05,31.77A19.593,19.593,0,0,0,9.126,39.1a28.487,28.487,0,0,0,8.987,4.785,15,15,0,0,0,11.344-.4,33.2,33.2,0,0,0,10.059-6.808,10.092,10.092,0,0,0,2.94-4.84c.539-2.3-.45-4.279-1.553-6.133-2.825-4.748-6.858-8.393-11.4-12.09M77.954,50.129A50.345,50.345,0,0,0,66.4,43.556a30.363,30.363,0,0,0-6.459-1.916,6.9,6.9,0,0,0-7.535,3.467,29.83,29.83,0,0,0-4.057,12.527,16.968,16.968,0,0,0,3.985,12.751A29.356,29.356,0,0,0,62.5,78.254c3.958,1.95,9.148,2.187,12.926-.36A31.009,31.009,0,0,0,85.786,65.6a7.049,7.049,0,0,0-.064-7.036,31.7,31.7,0,0,0-7.768-8.435M12.481,5.545c-.277-1.779-1.8-2.606-3.238-1.763a3.227,3.227,0,0,0,3.238,1.763M91.986,65.927c.408-1.62-.809-2.848-2.6-2.619a3.229,3.229,0,0,0,2.6,2.619" transform="translate(0 0)" fill="#991d32"/>
          <g id="Grupo_947167" data-name="Grupo 947167" transform="translate(2.186 7.597)" opacity="0.75" style="mix-blend-mode: darken;isolation: isolate">
            <g id="Grupo_947166" data-name="Grupo 947166" transform="translate(0 0)">
              <g id="Grupo_947165" data-name="Grupo 947165" transform="translate(0 0)" clip-path="url(#clip-path-3)">
                <path id="Trazado_654558" data-name="Trazado 654558" d="M27.313,6.019c-1.471-.921-3.21-2.167-5.09-3.142A48.674,48.674,0,0,0,16.276.355a6.091,6.091,0,0,0-5.12.485C7.238,3.039,4.607,7.7,2.437,11.493.294,15.237-.926,20,.864,24.173a19.587,19.587,0,0,0,6.077,7.332,28.5,28.5,0,0,0,8.987,4.785,15,15,0,0,0,11.344-.4A33.215,33.215,0,0,0,37.33,29.082a10.084,10.084,0,0,0,2.94-4.841c.54-2.3-.45-4.279-1.553-6.132-2.825-4.748-6.858-8.393-11.4-12.09" transform="translate(0 0)" fill="#050505"/>
              </g>
            </g>
          </g>
          <g id="Grupo_947170" data-name="Grupo 947170" transform="translate(2.084 8.379)" opacity="0.2">
            <g id="Grupo_947169" data-name="Grupo 947169" transform="translate(0 0)">
              <g id="Grupo_947168" data-name="Grupo 947168" transform="translate(0 0)" clip-path="url(#clip-path-4)">
                <path id="Trazado_654559" data-name="Trazado 654559" d="M11.289.114a19.706,19.706,0,0,0-5.633,6.58C4.908,7.943,4.207,9.226,3.52,10.531A20.416,20.416,0,0,0,1.84,14.448a16.887,16.887,0,0,0-.706,4.078,10.26,10.26,0,0,0,.627,3.945,16.474,16.474,0,0,0,5.012,6.5A25.678,25.678,0,0,0,13.9,33.554a27.638,27.638,0,0,0,4,1.436,16.3,16.3,0,0,0,4.107.506,13.743,13.743,0,0,0,4.108-.7,29.845,29.845,0,0,0,3.965-1.706,35.807,35.807,0,0,0,7.307-4.832l.092.092a33.245,33.245,0,0,1-7.064,5.336A29.558,29.558,0,0,1,26.4,35.589a14.685,14.685,0,0,1-4.345.913,15.259,15.259,0,0,1-4.423-.421,28.533,28.533,0,0,1-4.2-1.441A26.914,26.914,0,0,1,5.92,29.949,17.606,17.606,0,0,1,.647,22.874,13.121,13.121,0,0,1,.882,14.12a21.447,21.447,0,0,1,1.9-4.013c.736-1.28,1.487-2.556,2.3-3.791A19.139,19.139,0,0,1,11.226,0Z" transform="translate(0 0)"/>
              </g>
            </g>
          </g>
          <g id="Grupo_947173" data-name="Grupo 947173" transform="translate(48.261 41.523)" opacity="0.75" style="mix-blend-mode: darken;isolation: isolate">
            <g id="Grupo_947172" data-name="Grupo 947172" transform="translate(0 0)">
              <g id="Grupo_947171" data-name="Grupo 947171" transform="translate(0 0)" clip-path="url(#clip-path-5)">
                <path id="Trazado_654560" data-name="Trazado 654560" d="M29.693,8.605A50.377,50.377,0,0,0,18.14,2.032,30.37,30.37,0,0,0,11.68.117,6.9,6.9,0,0,0,4.145,3.584,29.846,29.846,0,0,0,.088,16.111a16.969,16.969,0,0,0,3.985,12.75,29.359,29.359,0,0,0,10.17,7.868c3.958,1.95,9.148,2.187,12.925-.36A31,31,0,0,0,37.525,24.077a7.045,7.045,0,0,0-.063-7.036,31.708,31.708,0,0,0-7.768-8.436" transform="translate(0 0)" fill="#050505"/>
              </g>
            </g>
          </g>
          <g id="Grupo_947176" data-name="Grupo 947176" transform="translate(48.175 45.074)" opacity="0.2">
            <g id="Grupo_947175" data-name="Grupo 947175" transform="translate(0 0)">
              <g id="Grupo_947174" data-name="Grupo 947174" transform="translate(0 0)" clip-path="url(#clip-path-6)">
                <path id="Trazado_654561" data-name="Trazado 654561" d="M4.287.066A31.519,31.519,0,0,0,1.528,8.215,31.745,31.745,0,0,0,.955,12.44a16.638,16.638,0,0,0,.208,4.139C2.08,22.023,6,26.564,10.6,29.657a33.137,33.137,0,0,0,3.592,2.2,14.292,14.292,0,0,0,3.785,1.457,12.275,12.275,0,0,0,7.85-.709,12.9,12.9,0,0,0,1.763-1.035c.581-.4,1.151-.815,1.7-1.256a29.568,29.568,0,0,0,3.113-2.9A37.185,37.185,0,0,0,37.553,20.5l.117.058A30.11,30.11,0,0,1,26.286,33.5a12.825,12.825,0,0,1-8.561.97,15.512,15.512,0,0,1-4.105-1.511,34.524,34.524,0,0,1-3.76-2.23,26.877,26.877,0,0,1-6.308-6.017,19.674,19.674,0,0,1-2.206-3.779A16.555,16.555,0,0,1,.16,16.722a23.444,23.444,0,0,1,.7-8.671A29.516,29.516,0,0,1,4.175,0Z" transform="translate(0 0)"/>
              </g>
            </g>
          </g>
          <g id="Grupo_947185" data-name="Grupo 947185" transform="translate(2.863 13.716)" style="mix-blend-mode: soft-light;isolation: isolate">
            <g id="Grupo_947184" data-name="Grupo 947184" transform="translate(0 0)">
              <g id="Grupo_947183" data-name="Grupo 947183" clip-path="url(#clip-path-7)">
                <g id="Grupo_947179" data-name="Grupo 947179" opacity="0.2">
                  <g id="Grupo_947178" data-name="Grupo 947178">
                    <g id="Grupo_947177" data-name="Grupo 947177" clip-path="url(#clip-path-8)">
                      <path id="Trazado_654562" data-name="Trazado 654562" d="M26.758,0,0,17.581c.059.159.12.316.187.473a16.982,16.982,0,0,0,4.125,5.634L32.56,5.129C30.776,3.355,28.822,1.682,26.758,0" transform="translate(0 0)" fill="#fff"/>
                    </g>
                  </g>
                </g>
                <g id="Grupo_947182" data-name="Grupo 947182" transform="translate(5.572 6.318)" opacity="0.2">
                  <g id="Grupo_947181" data-name="Grupo 947181" transform="translate(0 0)">
                    <g id="Grupo_947180" data-name="Grupo 947180" clip-path="url(#clip-path-9)">
                      <path id="Trazado_654563" data-name="Trazado 654563" d="M28.145,0,0,18.493c.228.193.459.386.691.575A24.463,24.463,0,0,0,2.725,20.55L30.256,2.46q-1-1.273-2.111-2.46" transform="translate(0 0)" fill="#fff"/>
                    </g>
                  </g>
                </g>
              </g>
            </g>
          </g>
          <g id="Grupo_947194" data-name="Grupo 947194" transform="translate(49.293 48.167)" style="mix-blend-mode: soft-light;isolation: isolate">
            <g id="Grupo_947193" data-name="Grupo 947193" transform="translate(0 0)">
              <g id="Grupo_947192" data-name="Grupo 947192" transform="translate(0 0)" clip-path="url(#clip-path-10)">
                <g id="Grupo_947188" data-name="Grupo 947188" opacity="0.2">
                  <g id="Grupo_947187" data-name="Grupo 947187">
                    <g id="Grupo_947186" data-name="Grupo 947186" clip-path="url(#clip-path-11)">
                      <path id="Trazado_654564" data-name="Trazado 654564" d="M28.661,1.961Q27.248.913,25.863,0L0,16.993a18.894,18.894,0,0,0,3.041,5.224c.305.379.62.744.941,1.1L32.017,4.9a44.12,44.12,0,0,0-3.356-2.936" transform="translate(0 -0.001)" fill="#fff"/>
                    </g>
                  </g>
                </g>
                <g id="Grupo_947191" data-name="Grupo 947191" transform="translate(5.132 6.086)" opacity="0.2">
                  <g id="Grupo_947190" data-name="Grupo 947190" transform="translate(0 0)">
                    <g id="Grupo_947189" data-name="Grupo 947189" transform="translate(0 0)" clip-path="url(#clip-path-12)">
                      <path id="Trazado_654565" data-name="Trazado 654565" d="M28.044,0,0,18.427A27.435,27.435,0,0,0,2.533,20.61L30.1,2.5A27.366,27.366,0,0,0,28.044,0" transform="translate(0.001 0)" fill="#fff"/>
                    </g>
                  </g>
                </g>
              </g>
            </g>
          </g>
          <g id="Grupo_947197" data-name="Grupo 947197" transform="translate(42.057 37.579)" opacity="0.2">
            <g id="Grupo_947196" data-name="Grupo 947196" transform="translate(0 0)">
              <g id="Grupo_947195" data-name="Grupo 947195" transform="translate(0 0)" clip-path="url(#clip-path-13)">
                <path id="Trazado_654566" data-name="Trazado 654566" d="M6.414,7.322a5.147,5.147,0,0,0,.061-2.683,4.513,4.513,0,0,0-1.4-2.251,4.537,4.537,0,0,0-2.4-1.128,2.77,2.77,0,0,0-1.323.075,5.6,5.6,0,0,0-1.265.5L0,1.7A3.377,3.377,0,0,1,1.112.507a3.725,3.725,0,0,1,.8-.376A3.154,3.154,0,0,1,2.851.006,4.638,4.638,0,0,1,6.13,1.194,4.628,4.628,0,0,1,7.708,4.326,3.628,3.628,0,0,1,6.566,7.373Z" transform="translate(0 0)"/>
              </g>
            </g>
          </g>
        </g>
      </g>
    </g>
  </g>
</svg>
