<svg xmlns="http://www.w3.org/2000/svg" xmlns:xlink="http://www.w3.org/1999/xlink" width="105.313" height="126.251" viewBox="0 0 105.313 126.251">
  <defs>
    <clipPath id="clip-path">
      <rect id="Rectángulo_336188" data-name="Rectángulo 336188" width="105.312" height="126.251" fill="none"/>
    </clipPath>
    <clipPath id="clip-path-3">
      <rect id="Rectángulo_336184" data-name="Rectángulo 336184" width="21.923" height="17.942" fill="none"/>
    </clipPath>
    <clipPath id="clip-path-4">
      <rect id="Rectángulo_336185" data-name="Rectángulo 336185" width="102.307" height="71.948" fill="none"/>
    </clipPath>
    <clipPath id="clip-path-5">
      <rect id="Rectángulo_336186" data-name="Rectángulo 336186" width="46.879" height="33.654" fill="none"/>
    </clipPath>
  </defs>
  <g id="d5" clip-path="url(#clip-path)">
    <g id="Grupo_947583" data-name="Grupo 947583">
      <g id="Grupo_947582" data-name="Grupo 947582" clip-path="url(#clip-path)">
        <path id="Trazado_655096" data-name="Trazado 655096" d="M90.838,22.465a11.382,11.382,0,1,1,13.687-8.474,11.394,11.394,0,0,1-13.687,8.474m4.215-17.92a7.027,7.027,0,1,0,5.231,8.448,7.034,7.034,0,0,0-5.231-8.448" transform="translate(-26.156 0)" fill="#7d5533"/>
        <g id="Grupo_947575" data-name="Grupo 947575" transform="translate(56.749 4.827)" opacity="0.39" style="mix-blend-mode: multiply;isolation: isolate">
          <g id="Grupo_947574" data-name="Grupo 947574">
            <g id="Grupo_947573" data-name="Grupo 947573" clip-path="url(#clip-path-3)">
              <path id="Trazado_655097" data-name="Trazado 655097" d="M103.122,7.085A11.365,11.365,0,0,1,83.3,17.906,11.37,11.37,0,1,0,103.122,7.085" transform="translate(-83.299 -7.085)" fill="#634329"/>
            </g>
          </g>
        </g>
        <path id="Trazado_655098" data-name="Trazado 655098" d="M103.626,95.575a52.1,52.1,0,1,0-62.645,38.787,52.1,52.1,0,0,0,62.645-38.787" transform="translate(-0.255 -10.051)" fill="#7c5533"/>
        <circle id="Elipse_7619" data-name="Elipse 7619" cx="52.1" cy="52.1" r="52.1" transform="matrix(0.517, -0.856, 0.856, 0.517, -18.884, 91.225)" fill="none" stroke="#7d5533" stroke-miterlimit="10" stroke-width="1.599"/>
        <g id="Grupo_947578" data-name="Grupo 947578" transform="translate(2.456 53.758)" opacity="0.39" style="mix-blend-mode: multiply;isolation: isolate">
          <g id="Grupo_947577" data-name="Grupo 947577">
            <g id="Grupo_947576" data-name="Grupo 947576" clip-path="url(#clip-path-4)">
              <path id="Trazado_655099" data-name="Trazado 655099" d="M101.969,78.909A52.1,52.1,0,0,1,3.605,112.7a52.1,52.1,0,1,0,98.364-33.792" transform="translate(-3.605 -78.909)" fill="#634329"/>
            </g>
          </g>
        </g>
        <path id="Trazado_655100" data-name="Trazado 655100" d="M98.886,97.816a42.722,42.722,0,1,0-51.369,31.8,42.722,42.722,0,0,0,51.369-31.8" transform="translate(-4.643 -14.44)" fill="#ffeabe"/>
        <line id="Línea_2827" data-name="Línea 2827" x1="1.004" y2="4.269" transform="translate(60.604 36.739)" fill="none" stroke="#2a435f" stroke-linecap="round" stroke-miterlimit="10" stroke-width="3.197"/>
        <line id="Línea_2828" data-name="Línea 2828" x1="3.729" y2="2.309" transform="translate(81.898 54.021)" fill="none" stroke="#2a435f" stroke-linecap="round" stroke-miterlimit="10" stroke-width="1.599"/>
        <line id="Línea_2829" data-name="Línea 2829" x1="4.269" y1="1.004" transform="translate(86.121 82.221)" fill="none" stroke="#2a435f" stroke-linecap="round" stroke-miterlimit="10" stroke-width="3.197"/>
        <line id="Línea_2830" data-name="Línea 2830" x1="2.308" y1="3.729" transform="translate(70.799 103.515)" fill="none" stroke="#2a435f" stroke-linecap="round" stroke-miterlimit="10" stroke-width="1.599"/>
        <line id="Línea_2831" data-name="Línea 2831" y1="4.269" x2="1.004" transform="translate(43.904 107.738)" fill="none" stroke="#2a435f" stroke-linecap="round" stroke-miterlimit="10" stroke-width="3.197"/>
        <line id="Línea_2832" data-name="Línea 2832" y1="2.308" x2="3.729" transform="translate(19.885 92.416)" fill="none" stroke="#2a435f" stroke-linecap="round" stroke-miterlimit="10" stroke-width="1.599"/>
        <line id="Línea_2833" data-name="Línea 2833" x2="4.269" y2="1.004" transform="translate(15.122 65.521)" fill="none" stroke="#2a435f" stroke-linecap="round" stroke-miterlimit="10" stroke-width="3.197"/>
        <line id="Línea_2834" data-name="Línea 2834" x2="2.309" y2="3.729" transform="translate(32.404 41.502)" fill="none" stroke="#2a435f" stroke-linecap="round" stroke-miterlimit="10" stroke-width="1.599"/>
        <path id="Trazado_655101" data-name="Trazado 655101" d="M66.958,101.563l-9.306-24.7L75.067,96.311s-2.589-4.318-6.68-1.429a4.678,4.678,0,0,0-1.428,6.681" transform="translate(-18.376 -24.5)" fill="#f14d24"/>
        <path id="Trazado_655102" data-name="Trazado 655102" d="M71.143,110.565l17.769,19.513-9.406-24.349s2.67,4.269-1.764,6.6a4.677,4.677,0,0,1-6.6-1.764" transform="translate(-22.676 -33.699)" fill="#f14d24"/>
        <path id="Trazado_655103" data-name="Trazado 655103" d="M67.73,94.048,57.652,76.867,74.457,95.631Z" transform="translate(-18.376 -24.5)" fill="#b8401e"/>
        <path id="Trazado_655104" data-name="Trazado 655104" d="M81.88,114.257l10.454,16.916-8.519-22.01Z" transform="translate(-26.098 -34.794)" fill="#b8401e"/>
        <path id="Trazado_655105" data-name="Trazado 655105" d="M80.4,106.714a5.909,5.909,0,1,1-5.731-6.081,5.909,5.909,0,0,1,5.731,6.081" transform="translate(-21.859 -32.074)" fill="#2a435f"/>
        <path id="Trazado_655106" data-name="Trazado 655106" d="M78.928,107.923a3.15,3.15,0,1,1-3.055-3.241,3.15,3.15,0,0,1,3.055,3.241" transform="translate(-23.15 -33.365)" fill="#ffeabe"/>
        <path id="Trazado_655107" data-name="Trazado 655107" d="M78.277,108.461a1.923,1.923,0,1,1-1.866-1.979,1.923,1.923,0,0,1,1.866,1.979" transform="translate(-23.724 -33.939)" fill="#f14d24"/>
        <path id="Trazado_655108" data-name="Trazado 655108" d="M92.978,31.323h0a3.005,3.005,0,0,1-2.237-3.614l1.323-5.626a3.006,3.006,0,0,1,5.851,1.376l-1.324,5.627a3,3,0,0,1-3.613,2.237" transform="translate(-28.896 -6.3)" fill="#a87244"/>
        <g id="Grupo_947581" data-name="Grupo 947581" transform="translate(19.706 34.778)" opacity="0.65">
          <g id="Grupo_947580" data-name="Grupo 947580">
            <g id="Grupo_947579" data-name="Grupo 947579" clip-path="url(#clip-path-5)">
              <path id="Trazado_655109" data-name="Trazado 655109" d="M58.55,80.678c-12.483,6.032-25.372,5.191-28.788-1.88S33.7,61.107,46.18,55.076s25.372-5.191,28.788,1.879S71.033,74.646,58.55,80.678" transform="translate(-28.925 -51.049)" fill="#fff9f8"/>
            </g>
          </g>
        </g>
      </g>
    </g>
  </g>
</svg>
