<svg xmlns="http://www.w3.org/2000/svg" width="27.228" height="32.592" viewBox="0 0 27.228 32.592">
  <g id="i2" transform="translate(-7.576 -2.371)">
    <g id="Grupo_947424" data-name="Grupo 947424" transform="translate(7.576 2.371)">
      <g id="Grupo_947412" data-name="Grupo 947412" transform="translate(0.518 0.515)">
        <path id="Trazado_655042" data-name="Trazado 655042" d="M30.3,6.406V31.9a3.035,3.035,0,0,1-3.035,3.035H11.617A3.035,3.035,0,0,1,8.582,31.9V6.406a3.035,3.035,0,0,1,3.035-3.035H27.263A3.035,3.035,0,0,1,30.3,6.406Z" transform="translate(-8.582 -3.371)" fill="#b7ceac"/>
      </g>
      <g id="Grupo_947413" data-name="Grupo 947413" transform="translate(0.518 27.606)">
        <path id="Trazado_655043" data-name="Trazado 655043" d="M8.582,55.953v1.435a3.035,3.035,0,0,0,3.035,3.035H27.263A3.035,3.035,0,0,0,30.3,57.388V55.953Z" transform="translate(-8.582 -55.953)" fill="#2b6e17"/>
      </g>
      <g id="Grupo_947414" data-name="Grupo 947414" transform="translate(0.518 27.605)">
        <path id="Trazado_655044" data-name="Trazado 655044" d="M30.3,55.95v1.437a3.037,3.037,0,0,1-3.035,3.035H11.617a3.037,3.037,0,0,1-3.035-3.035V55.95a3.038,3.038,0,0,0,3.035,2.993H27.264A3.038,3.038,0,0,0,30.3,55.95Z" transform="translate(-8.582 -55.95)" fill="#1d570b"/>
      </g>
      <g id="Grupo_947415" data-name="Grupo 947415" transform="translate(0.518 0.515)">
        <path id="Trazado_655045" data-name="Trazado 655045" d="M30.3,7.363V6.406a3.035,3.035,0,0,0-3.035-3.035H11.617A3.035,3.035,0,0,0,8.582,6.406v.957H30.3Z" transform="translate(-8.582 -3.371)" fill="#2b6e17"/>
      </g>
      <g id="Grupo_947416" data-name="Grupo 947416" transform="translate(0.518 0.515)">
        <path id="Trazado_655046" data-name="Trazado 655046" d="M30.3,6.4v.958h-.026A3.034,3.034,0,0,0,27.264,4.7H11.617A3.034,3.034,0,0,0,8.608,7.363H8.582V6.4A3.037,3.037,0,0,1,11.617,3.37H27.264A3.037,3.037,0,0,1,30.3,6.4Z" transform="translate(-8.582 -3.37)" fill="#2b6e17"/>
      </g>
      <g id="Grupo_947417" data-name="Grupo 947417" transform="translate(6.392 8.855)">
        <path id="Trazado_655047" data-name="Trazado 655047" d="M40.3,20.651V32.176a1.091,1.091,0,0,1-1.092,1.093H32.354a2.215,2.215,0,0,1-4.421,0H21.075a1.091,1.091,0,0,1-1.092-1.093V20.651a1.091,1.091,0,0,1,1.092-1.092H39.211A1.091,1.091,0,0,1,40.3,20.651Z" transform="translate(-19.983 -19.559)" fill="#87a679"/>
      </g>
      <g id="Grupo_947418" data-name="Grupo 947418" transform="translate(6.392 20.201)">
        <path id="Trazado_655048" data-name="Trazado 655048" d="M40.3,41.58v1.272a1.092,1.092,0,0,1-1.092,1.092H32.353a2.215,2.215,0,0,1-4.421,0H21.074a1.092,1.092,0,0,1-1.092-1.092V41.58a1.093,1.093,0,0,0,1.092,1.092h4.743a3.517,3.517,0,0,1,2.647,1.3,2.21,2.21,0,0,0,3.356,0,3.517,3.517,0,0,1,2.647-1.3H39.21A1.093,1.093,0,0,0,40.3,41.58Z" transform="translate(-19.982 -41.58)" fill="#87a679"/>
      </g>
      <g id="Grupo_947419" data-name="Grupo 947419" transform="translate(8.427 6.841)">
        <path id="Trazado_655049" data-name="Trazado 655049" d="M32.057,17.483V27.525a1.834,1.834,0,0,1-1.834,1.834H24.773a.841.841,0,0,1-.841-.841V16.49a.841.841,0,0,1,.841-.841h5.451A1.834,1.834,0,0,1,32.057,17.483Z" transform="translate(-23.932 -15.649)" fill="#b7ceac"/>
      </g>
      <g id="Grupo_947420" data-name="Grupo 947420" transform="translate(16.552 6.841)">
        <path id="Trazado_655050" data-name="Trazado 655050" d="M47.829,16.49V28.518a.841.841,0,0,1-.841.841H41.537A1.834,1.834,0,0,1,39.7,27.525V17.483a1.834,1.834,0,0,1,1.834-1.834h5.451a.841.841,0,0,1,.841.841Z" transform="translate(-39.703 -15.649)" fill="#b7ceac"/>
      </g>
      <g id="Grupo_947421" data-name="Grupo 947421" transform="translate(8.427 6.841)">
        <path id="Trazado_655051" data-name="Trazado 655051" d="M32.057,17.484v1.607a1.835,1.835,0,0,0-1.834-1.834H23.932v-.766a.841.841,0,0,1,.841-.841h5.449A1.834,1.834,0,0,1,32.057,17.484Z" transform="translate(-23.932 -15.65)" fill="#a0bd97"/>
      </g>
      <g id="Grupo_947422" data-name="Grupo 947422" transform="translate(16.552 6.841)">
        <path id="Trazado_655052" data-name="Trazado 655052" d="M47.827,16.491v.766H41.536A1.835,1.835,0,0,0,39.7,19.092V17.484a1.834,1.834,0,0,1,1.834-1.834h5.449A.841.841,0,0,1,47.827,16.491Z" transform="translate(-39.702 -15.65)" fill="#a0bd97"/>
      </g>
      <g id="Grupo_947423" data-name="Grupo 947423">
        <path id="Trazado_655053" data-name="Trazado 655053" d="M27.341,6.246a.515.515,0,0,0,0,1.03h1.886a.515.515,0,1,0,0-1.03Z" transform="translate(-16.908 -4.249)" fill="#003"/>
        <path id="Trazado_655054" data-name="Trazado 655054" d="M34.289,16.582a.515.515,0,0,0,.515-.515V12.319A1.61,1.61,0,0,0,33.2,10.712H32.77v-.658A1.358,1.358,0,0,0,31.413,8.7H30.326c0-.284.009-2.807-.016-3.089a3.554,3.554,0,0,0-3.535-3.237H11.13A3.554,3.554,0,0,0,7.6,5.608c-.029.327-.016.276-.016,3.875a.515.515,0,0,0,1.03,0V7.394H24.725a.515.515,0,1,0,0-1.03H8.61V5.922A2.523,2.523,0,0,1,11.13,3.4H26.776a2.523,2.523,0,0,1,2.52,2.52v.442H26.887a.515.515,0,0,0,0,1.03H29.3V8.7H25.963a2.337,2.337,0,0,0-1.834.9,2.337,2.337,0,0,0-1.834-.9H16.844a1.358,1.358,0,0,0-1.356,1.356v.658h-.427a1.609,1.609,0,0,0-1.608,1.608V23.844a1.609,1.609,0,0,0,1.608,1.608h6.42a2.729,2.729,0,0,0,5.3,0H29.3v4.011H26.279a.515.515,0,1,0,0,1.03H29.3v.92a2.523,2.523,0,0,1-2.52,2.52H11.13a2.523,2.523,0,0,1-2.52-2.52v-.92H23.7a.515.515,0,0,0,0-1.03H8.61V11.227a.515.515,0,0,0-1.03,0V31.412a3.555,3.555,0,0,0,3.551,3.55H26.776a3.555,3.555,0,0,0,3.551-3.55V25.452H33.2A1.61,1.61,0,0,0,34.8,23.844V18.252a.515.515,0,0,0-1.03,0v5.592a.578.578,0,0,1-.578.577H26.339a.516.516,0,0,0-.514.48,1.7,1.7,0,0,1-3.393,0,.516.516,0,0,0-.514-.48H15.061a.578.578,0,0,1-.577-.577V12.319a.578.578,0,0,1,.577-.577h.427v2.265a.515.515,0,0,0,1.03,0V10.053a.326.326,0,0,1,.326-.326h5.451a1.32,1.32,0,0,1,1.319,1.318V21.089a1.32,1.32,0,0,1-1.319,1.319H16.844a.327.327,0,0,1-.326-.326V16.8a.515.515,0,0,0-1.03,0v5.28a1.358,1.358,0,0,0,1.356,1.357h5.451a2.337,2.337,0,0,0,1.834-.9,2.336,2.336,0,0,0,1.834.9h5.451a1.358,1.358,0,0,0,1.356-1.357V11.742H33.2a.578.578,0,0,1,.578.577v3.748a.515.515,0,0,0,.515.515Zm-2.55,5.5a.327.327,0,0,1-.326.326H25.963a1.32,1.32,0,0,1-1.319-1.319V11.046a1.32,1.32,0,0,1,1.319-1.318h5.451a.326.326,0,0,1,.326.326Z" transform="translate(-7.576 -2.371)" fill="#003"/>
        <path id="Trazado_655055" data-name="Trazado 655055" d="M27.9,21.469h3.536a.515.515,0,0,0,0-1.03H27.9a.515.515,0,1,0,0,1.03Z" transform="translate(-17.179 -11.13)" fill="#003"/>
        <path id="Trazado_655056" data-name="Trazado 655056" d="M27.9,26.48h3.536a.515.515,0,0,0,0-1.03H27.9a.515.515,0,1,0,0,1.03Z" transform="translate(-17.179 -13.559)" fill="#003"/>
        <path id="Trazado_655057" data-name="Trazado 655057" d="M27.9,31.49h3.536a.515.515,0,0,0,0-1.03H27.9a.515.515,0,1,0,0,1.03Z" transform="translate(-17.179 -15.988)" fill="#003"/>
        <path id="Trazado_655058" data-name="Trazado 655058" d="M27.9,36.5h3.536a.515.515,0,0,0,0-1.03H27.9a.515.515,0,0,0,0,1.03Z" transform="translate(-17.179 -18.416)" fill="#003"/>
        <path id="Trazado_655059" data-name="Trazado 655059" d="M47.208,20.439H43.672a.515.515,0,1,0,0,1.03h3.536a.515.515,0,1,0,0-1.03Z" transform="translate(-24.825 -11.13)" fill="#003"/>
        <path id="Trazado_655060" data-name="Trazado 655060" d="M47.208,25.449H43.672a.515.515,0,1,0,0,1.03h3.536a.515.515,0,1,0,0-1.03Z" transform="translate(-24.825 -13.559)" fill="#003"/>
        <path id="Trazado_655061" data-name="Trazado 655061" d="M47.208,30.459H43.672a.515.515,0,1,0,0,1.03h3.536a.515.515,0,1,0,0-1.03Z" transform="translate(-24.825 -15.988)" fill="#003"/>
        <path id="Trazado_655062" data-name="Trazado 655062" d="M47.208,35.469H43.672a.515.515,0,1,0,0,1.03h3.536a.515.515,0,0,0,0-1.03Z" transform="translate(-24.825 -18.416)" fill="#003"/>
        <path id="Trazado_655063" data-name="Trazado 655063" d="M25.2,59.291a.515.515,0,1,0,0,1.03h4.093a.515.515,0,1,0,0-1.03Z" transform="translate(-15.87 -29.965)" fill="#003"/>
      </g>
    </g>
  </g>
</svg>
