<svg xmlns="http://www.w3.org/2000/svg" xmlns:xlink="http://www.w3.org/1999/xlink" width="60" height="60" viewBox="0 0 60 60">
  <defs>
    <linearGradient id="linear-gradient" x1="0.068" y1="0.139" x2="0.812" y2="0.825" gradientUnits="objectBoundingBox">
      <stop offset="0"/>
      <stop offset="1" stop-opacity="0"/>
    </linearGradient>
  </defs>
  <g id="n6" transform="translate(-6 -6)">
    <path id="Trazado_653925" data-name="Trazado 653925" d="M30,0A30,30,0,1,1,0,30,30,30,0,0,1,30,0Z" transform="translate(6 6)" fill="#406834"/>
    <path id="Trazado_653915" data-name="Trazado 653915" d="M197.753,151.678,174.5,128.422h-8.643l-5.5,9.273c-2.507,4.2-3.423,7.234-3.423,10.3a10.625,10.625,0,0,0,3.241,7.908L176.9,172.63A30.056,30.056,0,0,0,197.753,151.678Z" transform="translate(-132.819 -107.731)" opacity="0.49" fill="url(#linear-gradient)"/>
    <path id="Trazado_653916" data-name="Trazado 653916" d="M180.708,147.96c0,6.562-4.839,11.081-11.862,11.081-7.062,0-11.914-4.513-11.914-11.043,0-3.068.916-6.1,3.423-10.3l5.5-9.273H174.5c-1.97,3.3-3.962,6.588-5.936,9.888a13.075,13.075,0,0,1,1.98-.145C176.53,138.165,180.708,142.176,180.708,147.96Zm-7.707,0a4.181,4.181,0,1,0-4.181,4.207A4.027,4.027,0,0,0,173,147.96Z" transform="translate(-132.819 -107.732)" fill="#fff"/>
  </g>
</svg>
