<svg xmlns="http://www.w3.org/2000/svg" xmlns:xlink="http://www.w3.org/1999/xlink" width="60" height="60" viewBox="0 0 60 60">
  <defs>
    <linearGradient id="linear-gradient" x1="0.027" y1="0.114" x2="0.807" y2="0.826" gradientUnits="objectBoundingBox">
      <stop offset="0"/>
      <stop offset="1" stop-opacity="0"/>
    </linearGradient>
  </defs>
  <g id="n8" transform="translate(-5.582 -5.582)">
    <path id="Trazado_653926" data-name="Trazado 653926" d="M30,0A30,30,0,1,1,0,30,30,30,0,0,1,30,0Z" transform="translate(5.582 5.582)" fill="#406834"/>
    <path id="Trazado_653919" data-name="Trazado 653919" d="M197.644,148.271l-20.06-20.06c-1.9-1.87-4.878-2.966-8.535-2.966-6.5,0-10.873,3.494-10.873,8.577a7.577,7.577,0,0,0,3.105,6.054,7.713,7.713,0,0,0-3.916,6.912,8.49,8.49,0,0,0,2.546,6.2l16.4,16.4a29.632,29.632,0,0,0,21.328-21.124Z" transform="translate(-133.455 -105.135)" opacity="0.49" fill="url(#linear-gradient)"/>
    <path id="Trazado_653920" data-name="Trazado 653920" d="M176.779,139.88a7.774,7.774,0,0,1,3.929,6.907c0,5.584-4.728,9.4-11.684,9.4s-11.658-3.792-11.658-9.4a7.712,7.712,0,0,1,3.917-6.912,7.577,7.577,0,0,1-3.105-6.054c0-5.083,4.373-8.577,10.873-8.577s10.847,3.468,10.847,8.576a7.5,7.5,0,0,1-3.118,6.06Zm-3.789,6.661c0-2.068-1.554-3.509-3.94-3.509s-3.965,1.44-3.965,3.509,1.58,3.508,3.966,3.508S172.99,148.609,172.99,146.541Zm-7.322-12.48c0,1.707,1.384,2.95,3.382,2.95s3.356-1.244,3.356-2.95-1.358-2.95-3.356-2.95S165.668,132.355,165.668,134.061Z" transform="translate(-133.455 -105.135)" fill="#fff"/>
  </g>
</svg>
